<?xml version="1.0" encoding="UTF-8"?>
<svg id="Capa_1" data-name="Capa 1" xmlns="http://www.w3.org/2000/svg" viewBox="0 0 218.53 218.53">
  <defs>
    <style>
      .cls-1 {
        fill: #fff;
      }

      .cls-2 {
        opacity: .41;
      }

      .cls-2, .cls-3 {
        fill: #8da5db;
      }

      .cls-3 {
        opacity: .2;
      }

      .cls-4 {
        fill: #2e3a59;
      }
    </style>
  </defs>
  <circle class="cls-3" cx="101.22" cy="94.82" r="94.17"/>
  <g id="Emergency_patient_transportation" data-name="Emergency patient transportation">
    <polygon class="cls-2" points="4.08 110.72 17.8 110.72 17.8 91.61 35.39 91.61 35.39 133.14 58.48 133.14 58.48 73.87 90.16 73.87 90.16 97.85 126.36 97.85 126.36 145.84 159.86 145.84 159.86 90.44 184.96 90.44 184.96 73.87 212.9 73.87 212.9 200.27 4.08 200.27 4.08 110.72"/>
    <g>
      <polygon class="cls-4" points="147.83 122.41 139.55 122.41 137.64 133.14 149.75 133.14 147.83 122.41"/>
      <g>
        <path class="cls-1" d="M215.89,173.99v26.28s-214.24,0-214.24,0v-33.56l10.85-33.57,4.68-12.46h109.73l6.84,12.46h24.32l23.58,33.57h17.41c6.38,0,12.47,2.63,16.83,7.28Z"/>
        <path d="M133.75,133.31H12.5c-.1,0-.17-.08-.17-.17s.08-.17.17-.17h121.25c.1,0,.17.08.17.17s-.08.17-.17.17Z"/>
        <polygon class="cls-4" points="48.51 147.36 40.97 147.36 40.97 139.82 36.6 139.82 36.6 147.36 29.06 147.36 29.06 151.73 36.6 151.73 36.6 159.27 40.97 159.27 40.97 151.73 48.51 151.73 48.51 147.36"/>
        <polygon class="cls-4" points="215.89 173.99 215.89 180.02 1.65 180.02 1.65 171.71 213.65 171.71 215.89 173.99"/>
        <path d="M215.89,200.44H1.65c-.1,0-.17-.08-.17-.17v-33.56s0-.04,0-.05l10.85-33.57,4.68-12.47c.03-.07.09-.11.16-.11h109.73c.06,0,.12.03.15.09l6.79,12.37h24.22c.06,0,.11.03.14.07l23.53,33.5h17.32c6.4,0,12.58,2.67,16.96,7.33.03.03.05.07.05.12v26.28c0,.1-.08.17-.17.17ZM1.82,200.1h213.9v-26.04c-4.31-4.56-10.38-7.17-16.66-7.17h-17.41c-.06,0-.11-.03-.14-.07l-23.53-33.5h-24.23c-.06,0-.12-.03-.15-.09l-6.79-12.37H17.29l-4.64,12.35L1.82,166.74v33.36Z"/>
        <g>
          <g>
            <polygon class="cls-1" points="133.75 138.33 154.31 138.33 174.24 166.71 133.75 166.71 133.75 138.33"/>
            <path d="M174.24,166.88h-40.49c-.1,0-.17-.08-.17-.17v-28.37c0-.1.08-.17.17-.17h20.56c.06,0,.11.03.14.07l19.93,28.37c.04.05.04.12.01.18-.03.06-.09.09-.15.09ZM133.92,166.53h39.98l-19.68-28.03h-20.29v28.03Z"/>
          </g>
          <path d="M133.75,198.18c-.1,0-.17-.08-.17-.17v-31.13H1.65c-.1,0-.17-.08-.17-.17s.08-.17.17-.17h132.1c.1,0,.17.08.17.17v31.3c0,.1-.08.17-.17.17Z"/>
          <path d="M174.24,183.27c-.1,0-.17-.08-.17-.17v-16.39c0-.1.08-.17.17-.17h7.41c.1,0,.17.08.17.17s-.08.17-.17.17h-7.24v16.21c0,.1-.08.17-.17.17Z"/>
        </g>
        <path d="M130.8,127.95H14.51c-.1,0-.17-.08-.17-.17s.08-.17.17-.17h116.29c.1,0,.17.08.17.17s-.08.17-.17.17Z"/>
      </g>
      <g>
        <path class="cls-2" d="M143.69,120.57c-.1,0-.17-.08-.17-.17v-6.97c0-.1.08-.17.17-.17s.17.08.17.17v6.97c0,.1-.08.17-.17.17Z"/>
        <path class="cls-2" d="M145.7,120.57s-.04,0-.06-.01c-.09-.04-.13-.14-.1-.23l1.99-4.96c.04-.09.14-.13.23-.1s.13.14.1.23l-1.99,4.96c-.03.07-.09.11-.16.11Z"/>
        <path class="cls-2" d="M141.72,120.57c-.07,0-.13-.04-.16-.11l-1.99-4.96c-.04-.09,0-.19.1-.23.09-.04.19,0,.23.1l1.99,4.96c.04.09,0,.19-.1.23-.02,0-.04.01-.06.01Z"/>
      </g>
      <rect x=".45" y="198.01" width="216.04" height="4.52"/>
      <g>
        <circle cx="177.82" cy="200.27" r="17.54" transform="translate(-41.26 46.21) rotate(-13.28)"/>
        <g>
          <circle class="cls-1" cx="177.82" cy="200.27" r="11.63" transform="translate(-57.95 327.32) rotate(-76.72)"/>
          <path d="M177.82,212.08c-6.51,0-11.81-5.3-11.81-11.81s5.3-11.81,11.81-11.81,11.81,5.3,11.81,11.81-5.3,11.81-11.81,11.81ZM177.82,188.81c-6.32,0-11.46,5.14-11.46,11.46s5.14,11.46,11.46,11.46,11.46-5.14,11.46-11.46-5.14-11.46-11.46-11.46Z"/>
        </g>
        <g>
          <circle class="cls-1" cx="177.82" cy="200.27" r="4.52"/>
          <path d="M177.82,204.97c-2.59,0-4.7-2.11-4.7-4.7s2.11-4.7,4.7-4.7,4.7,2.11,4.7,4.7-2.11,4.7-4.7,4.7ZM177.82,195.92c-2.4,0-4.35,1.95-4.35,4.35s1.95,4.35,4.35,4.35,4.35-1.95,4.35-4.35-1.95-4.35-4.35-4.35Z"/>
        </g>
      </g>
      <g>
        <circle cx="42.42" cy="200.27" r="17.54"/>
        <g>
          <circle class="cls-1" cx="42.42" cy="200.27" r="11.63" transform="translate(-161.26 179.65) rotate(-72.26)"/>
          <path d="M42.42,212.08c-6.51,0-11.81-5.3-11.81-11.81s5.3-11.81,11.81-11.81,11.81,5.3,11.81,11.81-5.3,11.81-11.81,11.81ZM42.42,188.81c-6.32,0-11.46,5.14-11.46,11.46s5.14,11.46,11.46,11.46,11.46-5.14,11.46-11.46-5.14-11.46-11.46-11.46Z"/>
        </g>
        <g>
          <circle class="cls-1" cx="42.42" cy="200.27" r="4.52"/>
          <path d="M42.42,204.97c-2.59,0-4.7-2.11-4.7-4.7s2.11-4.7,4.7-4.7,4.7,2.11,4.7,4.7-2.11,4.7-4.7,4.7ZM42.42,195.92c-2.4,0-4.35,1.95-4.35,4.35s1.95,4.35,4.35,4.35,4.35-1.95,4.35-4.35-1.95-4.35-4.35-4.35Z"/>
        </g>
      </g>
    </g>
    <g>
      <path d="M200.66,217.99H17.59c-.1,0-.17-.08-.17-.17s.08-.17.17-.17h183.07c.1,0,.17.08.17.17s-.08.17-.17.17Z"/>
      <path d="M200.66,140.43h-26.21c-.1,0-.17-.08-.17-.17s.08-.17.17-.17h26.21c.1,0,.17.08.17.17s-.08.17-.17.17Z"/>
      <path d="M208.83,148.59h-21.27c-.1,0-.17-.08-.17-.17s.08-.17.17-.17h21.27c.1,0,.17.08.17.17s-.08.17-.17.17Z"/>
      <path d="M74.73,113.6H22.99c-.1,0-.17-.08-.17-.17s.08-.17.17-.17h51.73c.1,0,.17.08.17.17s-.08.17-.17.17Z"/>
      <path d="M106.04,107.07h-47.99c-.1,0-.17-.08-.17-.17s.08-.17.17-.17h47.99c.1,0,.17.08.17.17s-.08.17-.17.17Z"/>
      <path d="M117.07,115.61h-23.76c-.1,0-.17-.08-.17-.17s.08-.17.17-.17h23.76c.1,0,.17.08.17.17s-.08.17-.17.17Z"/>
    </g>
    <g>
      <g>
        <polygon class="cls-2" points="149.74 94.82 154.71 77.05 148.42 75.67 145.44 93.87 149.74 94.82"/>
        <polygon class="cls-2" points="144.88 96.99 144.1 102.06 147.51 102.81 148.94 97.89 144.88 96.99"/>
      </g>
      <g>
        <path d="M147.73,95.02s-.02,0-.02,0l-4.76-.66c-.09-.01-.16-.09-.15-.19l1.67-20.06s.03-.09.06-.12c.04-.03.08-.04.13-.04l6.97.96s.09.03.12.07c.03.04.04.09.03.13l-3.88,19.76c-.02.08-.09.14-.17.14ZM143.15,94.04l4.44.61,3.81-19.42-6.6-.91-1.64,19.72Z"/>
        <path d="M145.99,103.91s-.02,0-.02,0l-3.77-.52c-.09-.01-.16-.09-.15-.18l.41-5.58s.03-.09.06-.12c.04-.03.09-.04.13-.04l4.5.62s.09.03.12.07c.03.04.04.09.03.14l-1.14,5.48c-.02.08-.09.14-.17.14ZM142.4,103.07l3.45.48,1.07-5.14-4.14-.57-.38,5.24Z"/>
      </g>
    </g>
  </g>
</svg>