<?xml version="1.0" encoding="UTF-8"?>
<svg id="Capa_1" data-name="Capa 1" xmlns="http://www.w3.org/2000/svg" viewBox="0 0 218.53 218.53">
  <defs>
    <style>
      .cls-1 {
        fill: #ff9671;
      }

      .cls-2 {
        fill: #fff;
      }

      .cls-3 {
        fill: #ffe9e1;
      }
    </style>
  </defs>
  <circle class="cls-3" cx="123.76" cy="123.87" r="94.17"/>
  <g>
    <g>
      <g>
        <g>
          <path class="cls-2" d="M89.04,71.9c-.33,1.12,2.86,124.14,0,137.14l5.6,5.09c1.57,1.43.45,3.87-1.77,3.87h-34.34c-1.9,0-3.4-1.46-3.27-3.17l5.46-71.56s-19.52,53.78-27.69,65.26l3.26,5.78c.95,1.68-.4,3.68-2.49,3.68h-1.84c-8.55,0-16.69-3.35-22.32-9.19l-6.84-7.1c-2.23-2.31-2.68-5.61-1.15-8.35,8.61-15.4,36.33-66.64,40.93-96.47.85-5.53,2.44-10.94,4.64-16.16l2.84-6.76,38.99-2.08Z"/>
          <path d="M31.96,218.29h1.84c1.09,0,2.08-.5,2.65-1.35.57-.84.61-1.87.12-2.75l-3.17-5.64c7.21-10.32,23.11-52.93,26.84-63.04l-5.29,69.3c-.07.91.27,1.78.96,2.45.69.67,1.62,1.03,2.63,1.03h34.34c1.16,0,2.16-.6,2.6-1.58.44-.97.21-2.04-.61-2.78l-5.48-4.99c2.1-10.34.85-82.16.24-116.76-.2-11.47-.35-19.77-.27-20.23.03-.09,0-.18-.06-.25-.06-.07-.16-.1-.27-.1l-38.99,2.08c-.12,0-.23.08-.28.18l-2.84,6.76c-2.26,5.36-3.82,10.82-4.65,16.22-4.59,29.81-32.46,81.31-40.9,96.38-1.6,2.85-1.13,6.26,1.2,8.67l6.84,7.1c5.69,5.9,13.91,9.29,22.56,9.29ZM60.72,142.98c-.13,0-.26.08-.3.2-.19.54-19.6,53.88-27.66,65.2-.06.09-.07.2-.02.29l3.26,5.78c.39.7.36,1.52-.09,2.19-.45.67-1.24,1.07-2.11,1.07h-1.84c-8.46,0-16.51-3.31-22.08-9.09l-6.84-7.1c-2.15-2.23-2.59-5.39-1.11-8.03,8.44-15.09,36.35-66.66,40.96-96.56.83-5.36,2.38-10.78,4.62-16.1l2.77-6.58,38.44-2.05c-.04,1.41.05,6.86.28,19.99.61,34.76,1.87,107.09-.26,116.79-.02.09.01.19.09.26l5.6,5.09c.63.58.82,1.4.47,2.16-.34.75-1.12,1.22-2.02,1.22h-34.34c-.83,0-1.6-.3-2.16-.85-.57-.55-.85-1.27-.79-2.01l5.46-71.56c.01-.14-.1-.27-.26-.3-.02,0-.04,0-.06,0Z"/>
        </g>
        <path d="M62.01,140.71c.14,0,.27-.09.31-.22l11.8-41.6c.19-.68.41-1.45.95-1.98.47-.46,1.33-.7,1.87-.32.14.1.34.07.44-.05.11-.13.08-.31-.06-.4-.84-.59-2.07-.26-2.73.38-.65.64-.9,1.52-1.1,2.23l-11.8,41.6c-.04.15.06.31.23.35.03,0,.05,0,.08,0Z"/>
        <path d="M30.79,207.66c.14,0,.26-.08.3-.2.05-.15-.04-.31-.21-.36-9.69-2.68-18.4-7.69-25.2-14.49-.12-.12-.32-.13-.45-.02-.13.11-.14.29-.02.41,6.88,6.88,15.69,11.95,25.49,14.66.03,0,.06.01.09.01Z"/>
        <path d="M57,211.81s0,0,0,0c10.19-.21,20.45-1.11,30.5-2.68.17-.03.29-.18.26-.33-.03-.16-.19-.26-.37-.23-10.02,1.56-20.25,2.46-30.41,2.67-.17,0-.31.14-.31.29,0,.16.15.28.32.28Z"/>
      </g>
      <g>
        <g>
          <path class="cls-2" d="M99.97,58.04s14.44,45.98,16.72,51.24c2.28,5.26,5.88,7.78,4.68,11.07-1.2,3.29-12.81,2.87-15.41-2.56-2.6-5.43-21.51-56.07-21.63-56.38-1.9-4.72,15.65-3.36,15.65-3.36Z"/>
          <path d="M115.9,122.72c.2,0,.4,0,.6-.01,2.75-.11,4.68-.96,5.16-2.27.8-2.2-.41-4.06-1.95-6.42-.89-1.37-1.91-2.92-2.74-4.85-2.24-5.19-16.56-50.75-16.71-51.21-.04-.11-.15-.2-.28-.21-.54-.04-13.3-1-15.71,1.86-.46.54-.54,1.17-.26,1.88.02.04.26.69.68,1.81,12.2,32.55,19.44,51.42,20.96,54.59,1.54,3.22,6.21,4.82,10.24,4.82ZM99.72,58.31c1.02,3.25,14.49,46.03,16.67,51.07.85,1.97,1.88,3.54,2.78,4.93,1.51,2.32,2.6,3.99,1.89,5.94-.39,1.06-2.14,1.78-4.58,1.88-3.95.16-8.73-1.32-10.24-4.47-1.05-2.2-5.54-13.45-20.94-54.55-.47-1.27-.67-1.78-.68-1.82-.21-.52-.16-.96.16-1.34,2.05-2.43,13.24-1.77,14.94-1.65Z"/>
        </g>
        <g>
          <g>
            <path class="cls-2" d="M89.01,62.44l12.45-3.13s-4.55-20.68-9.98-24.86c-5.43-4.18-21.64-2.93-25.14-2.87-3.5.07-22.42,2.68-25.46,5.88-4.8,5.06-8.18,27.6-8.18,27.6l15.17,1.11-2.26,12.73s32.06.8,44.59-4.2l-1.18-12.26Z"/>
            <path d="M50.3,79.23c9.41,0,30.46-.45,40.01-4.27.12-.05.2-.17.19-.29l-1.16-12.03,12.2-3.06c.16-.04.26-.19.23-.33-.19-.85-4.64-20.83-10.09-25.02-4.89-3.76-18.03-3.22-23.64-2.99-.72.03-1.3.05-1.71.06-3.51.07-22.52,2.63-25.69,5.98-4.81,5.06-8.12,26.83-8.26,27.75-.01.08.01.16.07.22.05.06.13.1.22.11l14.83,1.08-2.21,12.42c-.01.08.01.17.07.23.06.06.14.1.24.1.07,0,1.86.04,4.71.04ZM89.85,74.52c-11.74,4.55-40.33,4.17-43.88,4.1l2.2-12.4c.01-.08,0-.16-.06-.22-.05-.06-.14-.1-.22-.11l-14.83-1.08c.42-2.69,3.68-22.53,8.06-27.15,2.82-2.97,21.29-5.7,25.23-5.78.41,0,1-.03,1.72-.06,5.54-.23,18.5-.76,23.2,2.86,4.96,3.81,9.27,22.03,9.82,24.43l-12.17,3.05c-.15.04-.24.16-.23.3l1.16,12.06Z"/>
          </g>
          <path d="M88.51,61.1s.05,0,.08,0c.17-.04.27-.19.23-.35l-2.57-9.59c-.04-.15-.21-.25-.38-.21-.17.04-.27.19-.23.35l2.57,9.59c.04.13.16.22.31.22Z"/>
        </g>
      </g>
      <g>
        <g>
          <path class="cls-2" d="M71.26,24.49l2.31,6.46,4.21.42s-5.52,8.94-18.92,1.07l4.17-1.86-.93-7.21,9.16,1.13Z"/>
          <path d="M68.99,35.96c.93,0,1.83-.1,2.7-.29,4.35-.98,6.28-4.04,6.36-4.17.05-.08.05-.19,0-.27-.05-.09-.14-.14-.25-.15l-4.01-.4-2.24-6.28c-.04-.11-.14-.18-.26-.2l-9.16-1.13c-.1-.01-.19.02-.26.08-.07.06-.1.15-.09.24l.9,7.01-3.97,1.77c-.1.05-.17.14-.18.24,0,.1.05.2.14.26,3.73,2.19,7.18,3.29,10.31,3.29ZM77.22,31.6c-.65.83-2.5,2.8-5.7,3.52-3.49.78-7.54-.11-12.03-2.65l3.67-1.64c.12-.05.19-.17.17-.29l-.88-6.84,8.56,1.05,2.24,6.29c.04.11.14.18.27.2l3.7.37ZM73.56,30.94h0,0Z"/>
        </g>
        <g>
          <path class="cls-2" d="M78.45,9.88c.28-2.65-.91-5.42-3.16-7.12-2.26-1.7-5.55-2.24-8.28-1.27-2.73.97-4.76,3.46-4.87,6.12-2.47-.51-5.22.29-6.91,2-1.69,1.72-2.24,4.28-1.4,6.45-.59-.28-1.37.05-1.69.58-.33.53-.3,1.18-.17,1.77.68,2.96,3.83,5.03,7.09,5.67,3.35.66,6.98.06,9.87-1.62,2.74-1.6,3.75-3.87,5.58-6.15,1.7-2.11,3.65-3.64,3.95-6.44Z"/>
          <path d="M61.8,24.64c2.57,0,5.12-.66,7.29-1.93,2.06-1.2,3.16-2.76,4.32-4.4.42-.59.85-1.21,1.34-1.82.36-.45.75-.89,1.11-1.3,1.36-1.54,2.65-3,2.89-5.28h0c.3-2.8-.96-5.62-3.28-7.37-2.4-1.81-5.77-2.32-8.6-1.32-2.76.98-4.79,3.43-5.05,6.04-2.5-.39-5.16.43-6.85,2.16-1.65,1.68-2.26,4.09-1.63,6.25h0c-.61,0-1.21.36-1.5.83-.32.51-.38,1.17-.2,1.97.74,3.22,4.22,5.28,7.33,5.89.93.18,1.87.27,2.81.27ZM78.13,9.86c-.22,2.11-1.4,3.43-2.76,4.97-.37.42-.76.86-1.13,1.32-.5.62-.94,1.24-1.36,1.84-1.12,1.59-2.19,3.1-4.13,4.23-2.83,1.65-6.34,2.23-9.63,1.58-2.92-.57-6.17-2.48-6.85-5.45-.15-.66-.11-1.19.13-1.57.24-.39.84-.67,1.27-.47.12.05.26.04.35-.04.1-.08.13-.2.09-.31-.8-2.06-.26-4.54,1.34-6.17,1.6-1.63,4.25-2.4,6.6-1.91.09.02.19,0,.26-.05.07-.05.12-.13.12-.22.1-2.51,2.02-4.92,4.67-5.87,2.57-.92,5.77-.42,7.96,1.22,2.16,1.63,3.33,4.26,3.05,6.87Z"/>
        </g>
        <g>
          <path class="cls-2" d="M73.56,11.35s5.84,12.62,2.11,15.89c-3.74,3.28-11.56-.13-13.57-3.88,0,0-2.76.86-4.22-2.41-1.58-3.53,1.77-3.7,4.22-1.96,0,0,3.3.18,2.2-1.87-1.1-2.05-1.45-3.98-.3-5.18,1.79-1.86,9.57-.59,9.57-.59Z"/>
          <path d="M71.75,28.85c1.67,0,3.08-.47,4.14-1.4,3.85-3.37-1.79-15.69-2.03-16.21-.04-.09-.13-.15-.24-.17-.33-.05-7.98-1.28-9.87.69-1.13,1.18-1.04,3.08.25,5.49.22.41.25.73.09.95-.33.45-1.4.52-1.89.51-1.58-1.09-3.41-1.4-4.38-.74-.46.32-1.12,1.14-.25,3.09,1.28,2.87,3.56,2.77,4.35,2.64,1.39,2.35,4.88,4.49,8.24,5.03.55.09,1.08.13,1.59.13ZM73.34,11.6c.63,1.4,5.44,12.51,2.11,15.43-1.55,1.36-3.67,1.36-5.17,1.12-3.28-.52-6.67-2.64-7.9-4.92-.07-.13-.24-.19-.39-.15-.1.03-2.5.72-3.83-2.25-.53-1.18-.51-2.03.04-2.41.74-.5,2.36-.16,3.69.79.05.04.11.06.18.06.2.01,1.93.08,2.55-.76.3-.4.28-.92-.05-1.53-.82-1.53-1.55-3.61-.34-4.86,1.33-1.39,6.86-.87,9.1-.52Z"/>
        </g>
        <path d="M61.81,21.74c.08,0,.16-.03.23-.09.12-.11.12-.29,0-.41-.74-.66-1.71-1.08-2.75-1.19-.18-.02-.33.09-.35.25-.02.16.1.3.28.32.89.09,1.73.46,2.37,1.03.06.05.14.08.22.08Z"/>
      </g>
      <path class="cls-1" d="M66.53,59.31s12.97-2.4,21.98,8.76c13.16,16.3,9.4,20.15,6.88,21.17-3.19,1.29-8.85-5.67-14.16-12.48h-9.97s.55,13.03-5.48,15.26c-6.03,2.23-7.03-9.13-6.53-13.11.5-3.98,7.28-19.59,7.28-19.59Z"/>
      <g>
        <g>
          <path class="cls-2" d="M47.74,64.72l-13.76.44s.46,11.58,7.82,15.39c13.35,6.91,37.26-2.28,47.66-3.73,1.75-.24,3.54.07,4.87,1.13l1.91,1.53s3.44-1.91.77-5.8c0,0,1.11-2.27-1.5-4.23,0,0,.97-2.16-1.98-3.36-2.94-1.2-8.67-2.28-16.29-1.02-7.62,1.26-29.5-.35-29.5-.35Z"/>
          <path d="M54.32,83.38c8.44,0,17.82-2.3,25.4-4.15,3.88-.95,7.23-1.77,9.78-2.13,1.8-.25,3.44.13,4.62,1.06l1.91,1.53c.1.08.26.09.37.03.06-.03,1.41-.8,1.82-2.36.3-1.14,0-2.39-.87-3.72.2-.55.7-2.54-1.49-4.3.17-.61.43-2.45-2.21-3.52-1.54-.63-7.29-2.56-16.47-1.04-7.49,1.24-29.2-.34-29.42-.35-.01,0-.02,0-.04,0l-13.76.44c-.08,0-.16.04-.22.09-.06.06-.09.13-.08.21.02.48.55,11.78,7.98,15.63,3.62,1.88,8.01,2.58,12.68,2.58ZM90.58,76.45c-.38,0-.77.03-1.17.08-2.58.36-5.95,1.18-9.85,2.14-11.68,2.86-27.67,6.77-37.6,1.63-6.49-3.36-7.51-13.07-7.64-14.87l13.42-.43c1.13.08,22.04,1.59,29.56.34,9-1.49,14.6.39,16.1,1,2.64,1.07,1.85,2.91,1.81,2.99-.05.12-.01.25.09.33,2.38,1.79,1.45,3.81,1.41,3.9-.04.09-.03.19.02.27.84,1.23,1.14,2.37.87,3.39-.26,1-1,1.64-1.35,1.89l-1.72-1.37c-1.05-.84-2.43-1.28-3.96-1.28Z"/>
        </g>
        <path d="M96.27,73.68c.1,0,.2-.04.26-.12.1-.13.06-.31-.08-.4-1.47-.93-3.2-1.48-4.99-1.57-.18,0-.32.11-.33.27-.01.16.12.29.3.3,1.68.09,3.29.6,4.67,1.47.06.03.12.05.18.05Z"/>
        <path d="M94.86,69.53c.11,0,.21-.05.27-.14.09-.14.04-.31-.11-.39-1.41-.75-3.13-.97-4.72-.62-.17.04-.27.19-.23.35.04.15.21.25.38.21,1.43-.32,2.98-.11,4.26.56.05.03.11.04.16.04Z"/>
        <path d="M89.47,66.29s.05,0,.08,0c1.06-.26,2.19-.3,3.28-.14.17.03.34-.08.37-.23.03-.16-.09-.3-.26-.33-1.17-.18-2.4-.13-3.55.15-.17.04-.27.2-.22.35.04.13.17.21.31.21Z"/>
      </g>
      <g>
        <g>
          <polygon class="cls-2" points="54.3 40.09 53.1 43.52 60.72 45.42 61.33 42.21 54.3 40.09"/>
          <path d="M60.72,45.71c.06,0,.12-.02.17-.04.08-.04.13-.11.14-.19l.61-3.21c.03-.14-.06-.28-.21-.32l-7.03-2.13c-.08-.02-.17-.02-.24.02-.08.03-.13.1-.16.17l-1.2,3.44c-.03.07-.02.16.02.22.04.07.11.12.19.14l7.62,1.9s.06.01.08.01ZM60.97,42.41l-.51,2.66-6.97-1.74,1.01-2.87,6.47,1.95Z"/>
        </g>
        <g>
          <g>
            <g>
              <path class="cls-2" d="M84.32,35.78l1-1.2s3.19-1.63,5.17-1.28c.85.15.99,1.15.99,1.15,0,0,2.7-.39,3.65,1.13,0,0,1.41,1.07,1.08,2.1,0,0,1.6.96.81,2.28,0,0,.45.95-.74,1.37l-.9-1.12s-2.67,1.71-7.09.89c-4.42-.82-3.96-5.31-3.96-5.31Z"/>
              <path d="M96.27,41.6s.08,0,.11-.02c.46-.16.77-.41.93-.74.16-.35.1-.68.04-.87.56-1.07-.19-1.99-.8-2.42.16-1.02-.94-1.96-1.19-2.16-.87-1.33-2.88-1.31-3.65-1.25-.12-.37-.43-.99-1.17-1.12-2.07-.36-5.25,1.24-5.38,1.31-.04.02-.07.05-.1.08l-1,1.2s-.06.09-.06.15c0,.05-.43,4.76,4.22,5.61,3.76.69,6.27-.37,7.07-.79l.72.9c.06.08.16.12.26.12ZM95.37,39.91c-.06,0-.13.02-.18.05-.03.02-2.62,1.62-6.84.84-3.82-.71-3.76-4.32-3.72-4.92l.9-1.08c.43-.21,3.2-1.52,4.9-1.22.6.11.73.9.73.9.01.08.06.15.12.19.07.05.15.07.24.05.03,0,2.5-.34,3.32.98.02.03.04.06.07.08.35.26,1.2,1.1.98,1.79-.04.12.01.25.13.32.05.03,1.35.83.7,1.9-.05.08-.05.17-.01.25,0,0,.13.29,0,.56-.06.13-.18.24-.35.33l-.74-.93c-.06-.08-.16-.12-.26-.12Z"/>
            </g>
            <path d="M96.93,40.37c.06,0,.12-.01.17-.05.15-.09.19-.26.09-.4-.56-.78-1.5-1.33-2.51-1.47-.17-.02-.33.08-.36.24-.03.16.09.3.27.33.84.12,1.62.57,2.08,1.22.06.08.16.13.27.13Z"/>
            <path d="M96.6,38.31c.09,0,.18-.04.25-.11.11-.12.09-.3-.05-.4-.86-.62-2.01-.88-3.09-.7-.17.03-.29.18-.25.33.03.16.2.26.37.23.9-.15,1.86.07,2.58.59.06.04.13.06.2.06Z"/>
            <path d="M95.11,36.03c.13,0,.26-.08.3-.2.05-.15-.04-.31-.2-.36-1.06-.31-2.16-.44-3.26-.38-.17,0-.31.14-.3.3.01.16.16.28.33.27,1.03-.05,2.05.07,3.03.35.03,0,.07.01.1.01Z"/>
          </g>
          <g>
            <path class="cls-2" d="M46.36,37.44s2.71-3.03,1.38-3.97c-1.32-.94-6.28,2.18-6.87,3.99-.59,1.81,5.48-.02,5.48-.02Z"/>
            <path d="M42.05,38.54c1.55,0,3.83-.66,4.41-.83.06-.02.11-.05.15-.09.2-.23,1.97-2.25,1.81-3.58-.04-.34-.2-.6-.47-.8-.4-.29-1.03-.31-1.86-.07-2,.58-5.03,2.72-5.5,4.2-.14.44.03.7.19.85.26.23.73.31,1.29.31ZM46.17,37.19c-1.79.53-4.46,1.06-4.97.62-.03-.02-.09-.08-.03-.27.39-1.2,3.1-3.24,5.09-3.82.6-.18,1.06-.19,1.28-.03.14.1.21.23.23.41.11.89-1.08,2.47-1.61,3.08Z"/>
          </g>
          <g>
            <path class="cls-1" d="M84.65,34.02s4.18,4.63,4.39,7.19c0,0-9.7,9.49-17.78,14.66l-1.31,2.29s13.53,1.88,16.98,6.19c0,0-5.68-.18-7.5.08,0,0-4.51,9.06-18.9,8.69-14.38-.37-15.34-10.65-13.56-19.03,0,0-4.85-2.36-6.68-7.42-1.83-5.06.59-9.19.59-9.19,0,0,2.43-1.14,5.48-.02,0,0,1.43,3.84,4.64,5.13,0,0,3.68-.02,7.54,1.28,3.85,1.3,8.21.94,13.84-3.16,5.63-4.1,12.28-6.68,12.28-6.68Z"/>
            <path d="M68.1,62.84c.13,0,.25-.07.3-.19l1.75-4.28c.06-.15-.02-.31-.19-.37-.17-.06-.35.02-.41.17l-1.75,4.28c-.06.15.02.31.19.37.04.01.07.02.11.02Z"/>
            <path d="M48.15,54.79c.15,0,.29-.1.31-.24.03-.16-.09-.3-.26-.33-.43-.07-.85-.22-1.21-.45-.14-.09-.34-.06-.44.07-.1.13-.07.31.08.4.44.28.94.47,1.46.55.02,0,.04,0,.05,0Z"/>
          </g>
        </g>
        <g>
          <path d="M56.55,40.09s-.84,2.1-5.72,0c-4.87-2.1-5.87-4.88-4.53-7.54,0,0-1.45-3.43,2.5-4.7,0,0,2.49-8.1,9.77-6.94,7.29,1.16,8.09,6.52,7.2,8.65,0,0,2.53,2.6-1.73,4.26l-7.49,6.27Z"/>
          <g>
            <g>
              <path class="cls-2" d="M64.32,31.36s-2.35,1.05-4.14.48c0,0-.83,2.23-3.67,1.85,0,0,.8,3.02-.61,3.41-1.41.39-2.14-.98-3.43.23-1.29,1.21-.09,3.69,3.15,3.16,0,0,3.72,4.36,7.98,3.04,4.26-1.32,6.83-6.07.73-12.16Z"/>
              <path d="M61.93,44.06c.57,0,1.16-.08,1.76-.27,2.23-.69,3.81-2.17,4.36-4.08.51-1.8.32-4.74-3.49-8.55-.09-.09-.25-.12-.37-.06-.02,0-2.26.99-3.9.46-.08-.03-.17-.02-.24.01-.08.03-.13.09-.16.17-.03.08-.79,1.99-3.32,1.66-.1-.01-.21.02-.28.09-.07.07-.1.17-.07.26.19.72.52,2.82-.4,3.07-.49.14-.89.02-1.31-.11-.64-.19-1.37-.42-2.26.42-.66.61-.79,1.56-.32,2.36.48.81,1.66,1.56,3.57,1.31.59.64,3.19,3.27,6.45,3.27ZM64.24,31.71c2.72,2.77,3.85,5.56,3.19,7.86-.49,1.71-1.93,3.06-3.95,3.68-4,1.24-7.59-2.9-7.62-2.94-.07-.08-.19-.13-.31-.11-1.68.28-2.69-.33-3.08-.98-.34-.58-.26-1.25.21-1.69.62-.57,1.01-.45,1.6-.27.47.14,1.01.31,1.69.12,1.36-.37,1.1-2.46.92-3.36,2.15.11,3.13-1.25,3.45-1.82,1.53.36,3.28-.24,3.89-.47Z"/>
            </g>
            <path d="M55.17,39.68c.08,0,.17-.03.23-.09.12-.12.12-.3-.01-.41-.53-.45-1.24-.7-1.97-.7-.17,0-.32.13-.31.29,0,.16.14.29.32.29,0,0,.01,0,.02,0,.56,0,1.11.2,1.51.55.06.05.14.08.22.08Z"/>
          </g>
        </g>
      </g>
    </g>
    <g>
      <g>
        <g>
          <g>
            <path class="cls-2" d="M151.27,163.23c-.15.57,3.14,42.21,3.94,52.33.1,1.24,1.24,2.2,2.61,2.2h17.62c.96,0,1.44-1.06.75-1.67l-6.55-5.84-5.72-47.55-12.65.52Z"/>
            <path d="M157.82,218.05h17.62c.57,0,1.07-.3,1.29-.78.22-.48.1-1.01-.31-1.37l-6.47-5.77-5.71-47.44c-.02-.15-.18-.26-.33-.26l-12.65.52c-.14,0-.26.09-.29.22-.15.56,2.4,33.08,3.93,52.42.11,1.38,1.39,2.47,2.93,2.47ZM163.64,163.01l5.69,47.28c0,.07.04.13.09.17l6.55,5.84c.27.24.26.54.17.75s-.33.43-.7.43h-17.62c-1.2,0-2.21-.85-2.29-1.93-1.88-23.7-3.86-49.24-3.94-52.04l12.06-.5Z"/>
          </g>
          <path d="M161.93,214.19c3.13,0,6.26-.45,9.25-1.35.17-.05.26-.21.2-.36-.06-.15-.24-.23-.4-.18-4.72,1.42-9.8,1.71-14.68.82-.17-.03-.34.07-.37.23-.03.16.08.31.25.34,1.9.34,3.83.52,5.75.52Z"/>
          <path d="M165.24,184.83c.38,0,.77-.03,1.17-.09.17-.02.29-.17.26-.33-.03-.16-.19-.26-.36-.24-.69.1-1.36.11-1.98.02-.02,0-.03,0-.05,0h-11.3c-.18,0-.32.13-.32.29s.14.29.32.29h11.27c.32.04.64.07.98.07Z"/>
        </g>
        <g>
          <g>
            <path class="cls-2" d="M134.71,164.74l-3.28,50.24c-.1,1.59,1.2,2.93,2.84,2.94l18.3.03c1.23,0,1.88-1.4,1.07-2.29l-6.21-6.8v-44.11h-12.71Z"/>
            <path d="M152.56,218.23c.66,0,1.26-.35,1.56-.92.32-.62.23-1.32-.25-1.84l-6.14-6.72v-44.01c0-.16-.14-.29-.32-.29h-12.71c-.17,0-.31.12-.32.27l-3.28,50.24c-.06.87.28,1.73.92,2.35.6.57,1.39.89,2.23.89l18.3.03h0ZM147.1,165.02v43.82c0,.07.03.13.07.18l6.21,6.8c.38.41.33.91.16,1.23-.19.37-.56.59-.98.59h0l-18.3-.03c-.67,0-1.3-.25-1.77-.71-.52-.5-.8-1.2-.75-1.92l3.26-49.97h12.09Z"/>
          </g>
          <path d="M142.35,213.51c2.47,0,4.94-.32,7.32-.97.17-.05.26-.21.21-.36-.05-.15-.23-.24-.39-.19-5.33,1.44-11.13,1.22-16.33-.63-.16-.06-.35.01-.41.16-.06.15.02.31.18.37,3.01,1.07,6.21,1.61,9.42,1.61Z"/>
          <path d="M133.7,184.69h13.1s.03,0,.05,0c.07-.01.14-.02.21-.03.08,0,.16-.02.24-.03.17-.03.29-.17.26-.33-.03-.16-.19-.26-.36-.24-.07.01-.14.02-.21.03-.07,0-.14.02-.21.03h-13.08c-.18,0-.32.13-.32.29s.14.29.32.29Z"/>
        </g>
      </g>
      <g>
        <g>
          <path class="cls-2" d="M153.99,124.14s13.41,22.21,16.78,30.43c2.71,6.62,3.44,12.74,0,14.61-3.44,1.87-2.5-1.43-2.5-1.43,0,0-.92,2.44-2.48,0-1.55-2.44.1-7.21-.92-8.57-1.02-1.36-12.47-27.7-10.88-35.04Z"/>
          <path d="M169.07,170.05c.49,0,1.1-.2,1.86-.61,3.25-1.76,3.3-7.21.13-14.95-3.33-8.15-16.66-30.25-16.79-30.47-.06-.11-.19-.16-.33-.15-.13.02-.24.11-.26.23-1.6,7.36,9.72,33.64,10.93,35.26.39.53.32,1.81.24,3.17-.11,1.86-.24,3.96.67,5.38.56.87,1.12,1.27,1.7,1.22.24-.02.45-.12.62-.25.04.37.17.75.51.98.2.13.44.2.72.2ZM154.18,125.06c2.4,4.01,13.33,22.37,16.29,29.62,3,7.35,3.05,12.68.13,14.26-1.22.66-1.7.56-1.87.45-.41-.28-.25-1.24-.16-1.56.04-.15-.05-.3-.21-.35-.16-.04-.34.04-.39.18-.08.22-.41.85-.81.89-.3.03-.69-.31-1.09-.94-.81-1.28-.69-3.29-.59-5.07.09-1.52.17-2.83-.34-3.52-.49-.66-3.65-7.69-6.38-15.21-2.32-6.37-4.9-14.57-4.57-18.76Z"/>
        </g>
        <g>
          <g>
            <path class="cls-2" d="M139.88,132.3s-6.01,13.08-10.72,13.98c-4.71.9-12.17-7.89-14.75-21.47,0,0-5.28,0-7.27-5.46-1.21-3.34,3.94-4.64,4.76-4.09l.81.55s2.88,5.49,4.78,5.18c3.87-.63-2.17-7.05,1.53-6.32,0,0,4.55,2.98,3.26,7.71l6.08,9.93,3.07-6.21,8.46,6.21Z"/>
            <path d="M128.48,146.63c.25,0,.5-.02.74-.07,4.81-.92,10.7-13.61,10.95-14.15.05-.12.02-.25-.09-.33l-8.46-6.21c-.08-.06-.18-.08-.27-.06-.1.02-.18.08-.22.16l-2.81,5.68-5.71-9.33c1.22-4.79-3.36-7.87-3.41-7.9-.04-.02-.08-.04-.12-.05-.66-.13-1.12-.06-1.39.21-.5.5-.15,1.47.25,2.59.4,1.11.84,2.36.41,3.02-.17.25-.47.41-.92.49-1.21.2-3.36-2.97-4.44-5.02-.02-.04-.06-.08-.1-.11l-.81-.55c-.65-.44-2.6-.03-3.87.8-1.4.92-1.89,2.2-1.37,3.61,1.77,4.88,6.17,5.55,7.3,5.65,2.09,10.71,7.08,18.01,11.12,20.49,1.13.69,2.23,1.05,3.24,1.05ZM139.49,132.39c-.77,1.63-6.22,12.81-10.4,13.61-1.01.19-2.22-.12-3.49-.9-3.96-2.44-8.86-9.67-10.89-20.34-.03-.14-.16-.24-.31-.24-.21,0-5.08-.07-6.97-5.27-.54-1.48.32-2.43,1.14-2.97,1.27-.83,2.85-.99,3.13-.81l.75.5c.42.79,2.9,5.29,4.89,5.29.07,0,.13,0,.2-.02.63-.1,1.09-.36,1.35-.76.58-.88.09-2.27-.35-3.49-.28-.79-.63-1.78-.38-2.03.1-.1.35-.11.72-.05.49.34,4.23,3.16,3.08,7.37-.02.07,0,.14.03.21l6.08,9.93c.06.09.17.15.29.15.12,0,.23-.07.28-.17l2.9-5.87,7.95,5.84Z"/>
          </g>
          <path d="M111.56,124.2c.1,0,.2-.05.26-.13.1-.13.06-.31-.09-.4-.83-.5-1.26-1.49-1.03-2.37.23-.88,1.12-1.58,2.11-1.68.17-.02.3-.16.28-.32-.02-.16-.17-.27-.35-.26-1.24.12-2.36,1.01-2.66,2.11-.3,1.1.25,2.36,1.29,2.98.05.03.11.05.17.05Z"/>
          <path d="M113.28,124.78c.08,0,.17-.03.23-.09.12-.12.11-.3-.01-.41-.51-.44-.75-1.15-.58-1.78.17-.62.74-1.16,1.42-1.33.17-.04.27-.2.22-.35-.05-.15-.22-.24-.39-.2-.91.23-1.64.91-1.87,1.74-.23.83.07,1.75.76,2.33.06.05.14.08.22.08Z"/>
          <path d="M109.21,122.68c.05,0,.11-.01.16-.04.15-.08.2-.26.11-.39-.49-.76-.63-1.68-.39-2.53.24-.85.85-1.6,1.68-2.05.15-.08.2-.26.11-.39-.09-.14-.28-.18-.43-.1-.97.53-1.69,1.4-1.97,2.4-.28.99-.11,2.07.46,2.96.06.09.16.14.27.14Z"/>
          <path d="M112.23,115.68c.14,0,.26-.08.3-.2.05-.15-.04-.31-.21-.36-1.91-.53-3.61-1.72-4.66-3.27-.09-.13-.29-.18-.44-.09-.15.08-.19.26-.1.4,1.13,1.66,2.96,2.94,5.02,3.52.03,0,.06.01.09.01Z"/>
          <path d="M130.28,136.09s.09,0,.14-.03c.16-.07.22-.24.15-.38l-1.45-2.74c-.08-.14-.26-.2-.42-.13-.16.07-.22.24-.15.38l1.45,2.74c.05.1.17.16.29.16Z"/>
        </g>
        <path class="cls-1" d="M170.02,166.37s-23.45,2.78-39.71,3.89l3.42-36.65-5.48-4.82s4.42-9.24,12.87-9.44c8.45-.2,14.25,1.78,17.19,8.79l-2.1,2.2s10.68,20.71,13.81,36.04Z"/>
      </g>
      <g>
        <path class="cls-2" d="M149.41,120.49s5.44,2.77,3.35,5.09c-2.51,2.79-6.24-1.66-6.24-1.66,0,0-.71,3.41-4.24,3.24-4.63-.21-3.33-7.81-1.15-7.81,2.18,0,8.29,1.14,8.29,1.14Z"/>
        <g>
          <path class="cls-2" d="M149.84,116.82c.14.15-.43,3.67-.43,3.67,0,0,.15,1.84-2.78,1.9-2.92.06-5.51-2.6-5.51-2.6l.58-7.19,8.13,4.22Z"/>
          <path d="M146.53,122.68s.07,0,.11,0c1.14-.02,1.99-.31,2.52-.84.55-.55.57-1.17.57-1.33.58-3.62.46-3.76.36-3.87-.02-.03-.06-.05-.09-.07l-8.13-4.22c-.09-.05-.21-.05-.31,0-.1.05-.16.13-.17.23l-.58,7.19c0,.08.02.15.08.21.11.11,2.65,2.7,5.64,2.7ZM149.54,116.99c0,.44-.22,2.03-.45,3.45,0,.02,0,.04,0,.06,0,.02.03.52-.41.95-.41.41-1.11.62-2.06.64-2.46.05-4.71-1.97-5.17-2.42l.53-6.61,7.56,3.92Z"/>
        </g>
        <path d="M115.78,81.93c.86-1.15,2.72-1.15,4.22-.86,4.74.93,8.94,3.57,12.09,6.92,1.3,1.38,2.46,2.94,2.92,4.71.46,1.77.12,3.79-1.26,5.11-1.62,1.54-4.27,1.8-6.58,1.4-2.84-.48-5.5-1.81-7.47-3.74-.7-.68-1.34-1.5-1.39-2.43-.05-1.03.67-2.01,1.65-2.52.39-.2.81-.34,1.25-.41-2.37-1.02-4.31-2.82-5.37-4.99-.49-1.01-.77-2.26-.08-3.18Z"/>
        <path d="M131.1,101.51c.79-.9,2.01-1.39,2.94-2.17,1.27-1.08,1.9-2.66,3.07-3.83,1.51-1.51,3.85-2.21,6.1-2.15,2.25.06,4.42.8,6.39,1.8,1.7.87,3.33,1.98,4.3,3.52.97,1.54,1.18,3.56.13,5.05-.79,1.11-2.18,1.8-3.61,2.05-1.43.26-2.91.13-4.35-.09-.66,2.84-2.44,5.45-4.94,7.25-.53.38-1.13.74-1.8.76-.01,0-.02,0-.04,0-1.81.63-3.96-.03-5.38-1.25-1.48-1.28-2.3-3.05-2.97-4.8-.39-1.01-.74-2.05-.79-3.12-.06-1.07.21-2.19.94-3.03Z"/>
        <g>
          <g>
            <path class="cls-2" d="M141.27,110.82s-2.35-2.64-4.51-1.32c-2.16,1.31-.95,5.38,4.94,5.77,0,0,6.69,5.44,11.53,2.16,7.1-4.81,2.82-11.62-3.83-17.53,0,0-9.06,1.11-7.18,10.5l-.96.43Z"/>
            <path d="M149.66,118.78c1.28,0,2.57-.31,3.77-1.12,2.34-1.59,3.61-3.49,3.77-5.66.26-3.47-2.29-7.61-7.57-12.3-.07-.06-.17-.09-.26-.08-.15.02-3.81.5-6.05,3.29-1.51,1.88-1.99,4.35-1.44,7.33l-.52.24c-.96-.98-2.98-2.29-4.76-1.2-.96.59-1.36,1.65-1.03,2.78.44,1.52,2.26,3.23,6.01,3.5.62.48,4.28,3.23,8.08,3.23ZM149.31,100.2c5.06,4.53,7.51,8.48,7.26,11.75-.15,2-1.33,3.76-3.52,5.24-4.59,3.11-11.07-2.09-11.13-2.14-.05-.04-.12-.07-.19-.07-3.5-.23-5.16-1.74-5.55-3.08-.26-.88.03-1.71.77-2.16,1.9-1.15,4.06,1.24,4.08,1.27.09.11.26.14.39.08l.96-.43c.13-.06.2-.18.17-.31-.58-2.91-.15-5.3,1.29-7.1,1.83-2.29,4.79-2.92,5.48-3.04Z"/>
          </g>
          <path d="M141.34,113.57c.08,0,.17-.03.23-.09.12-.11.12-.3,0-.41-.87-.76-2-1.26-3.2-1.41-.17-.02-.33.09-.36.24-.02.16.1.3.27.32,1.06.13,2.07.58,2.85,1.25.06.05.14.08.22.08Z"/>
        </g>
      </g>
    </g>
  </g>
</svg>