<?xml version="1.0" encoding="UTF-8"?>
<svg id="Capa_1" data-name="Capa 1" xmlns="http://www.w3.org/2000/svg" viewBox="0 0 218.53 218.53">
  <defs>
    <style>
      .cls-1 {
        fill: #fff;
      }

      .cls-2, .cls-3 {
        fill: #ea4d50;
      }

      .cls-4 {
        fill: #ffd8db;
      }

      .cls-3 {
        opacity: .41;
      }
    </style>
  </defs>
  <circle class="cls-4" cx="105.03" cy="114.2" r="94.17"/>
  <g>
    <g>
      <g>
        <g>
          <path class="cls-1" d="M22.11,162.57c-.14.57,2.86,42.63,3.6,52.82.09,1.25,1.13,2.21,2.38,2.21h16.08c.88,0,1.31-1.11.69-1.72l-5.98-5.83-5.22-48.01-11.54.52Z"/>
          <path d="M44.17,217.89h-16.08c-1.39,0-2.56-1.09-2.66-2.48-.38-5.35-3.75-52.24-3.59-52.91.03-.12.14-.21.26-.21l11.54-.52c.14-.01.28.1.29.25l5.21,47.9,5.91,5.76c.37.37.48.92.28,1.41-.2.49-.65.79-1.16.79ZM22.39,162.84c.09,3.31,2.6,38.69,3.6,52.53.08,1.1,1,1.95,2.1,1.95h16.08c.34,0,.55-.23.64-.44.09-.22.1-.55-.15-.79l-5.98-5.83s-.08-.11-.08-.17l-5.19-47.74-11.01.5Z"/>
        </g>
        <path d="M31.83,214.01c-1.76,0-3.52-.17-5.25-.52-.15-.03-.25-.18-.22-.33.03-.15.18-.25.33-.22,4.46.89,9.09.61,13.4-.83.15-.05.31.03.36.18.05.15-.03.31-.18.36-2.73.91-5.58,1.36-8.44,1.36Z"/>
        <path d="M34.85,184.3c-.31,0-.6-.02-.89-.07h-10.28c-.16,0-.28-.13-.28-.28s.13-.28.28-.28h10.31s.03,0,.04,0c.57.09,1.18.08,1.81-.02.15-.03.3.08.32.23.02.15-.08.3-.23.32-.36.06-.72.09-1.07.09Z"/>
      </g>
      <g>
        <g>
          <path class="cls-1" d="M6.99,164.09l-2.99,50.54c-.09,1.6,1.09,2.95,2.59,2.95l16.69.03c1.12,0,1.72-1.41.97-2.31l-5.67-6.84v-44.38H6.99Z"/>
          <path d="M23.29,217.9h0l-16.69-.03c-.77,0-1.49-.32-2.03-.9-.58-.62-.89-1.48-.84-2.36l2.99-50.54c0-.15.13-.27.28-.27h11.6c.16,0,.28.13.28.28v44.28l5.6,6.76c.43.52.52,1.23.22,1.85-.27.57-.81.92-1.41.92ZM7.26,164.37l-2.98,50.28c-.04.72.21,1.43.69,1.94.44.46,1.01.72,1.62.72l16.69.03h0c.39,0,.73-.22.9-.6.16-.33.2-.83-.15-1.25l-5.67-6.84c-.04-.05-.06-.11-.06-.18v-44.1H7.26Z"/>
        </g>
        <path d="M13.97,213.15c-2.92,0-5.85-.54-8.59-1.62-.14-.06-.22-.22-.16-.37.06-.15.22-.22.37-.16,4.74,1.86,10.04,2.09,14.9.63.15-.04.31.04.35.19.04.15-.04.31-.19.35-2.17.65-4.43.97-6.68.97Z"/>
        <path d="M18.03,184.16H6.07c-.16,0-.28-.13-.28-.28s.13-.28.28-.28h11.93c.06,0,.13-.02.19-.03.06,0,.13-.02.19-.03.15-.02.3.08.32.23.03.15-.08.3-.23.32-.07.01-.14.02-.22.03-.06,0-.13.02-.19.03-.02,0-.03,0-.05,0Z"/>
      </g>
    </g>
    <g>
      <path class="cls-1" d="M18.96,128.24c-5.83,1.08-12.74,12.31-12.74,17.28s10.58,10.37,10.58,10.37l2.16-27.64Z"/>
      <path d="M16.8,156.17s-.09-.01-.13-.03c-.44-.22-10.74-5.54-10.74-10.62s7-16.45,12.97-17.55c.09-.02.17,0,.24.07.07.06.1.14.09.23l-2.16,27.64c0,.09-.06.18-.14.22-.04.02-.09.04-.14.04ZM18.65,128.6c-5.56,1.43-12.15,12.17-12.15,16.92,0,4.22,8.18,8.9,10.05,9.91l2.1-26.83Z"/>
    </g>
    <g>
      <g>
        <path class="cls-1" d="M29.13,106.64s1.9,2.53,4.77,4.32c3.6,2.26,7.93,7.26,0,11.94,0,0-1.71.64-2.31,4.04l-10.24.54-.73-13.73,8.51-7.11Z"/>
        <path d="M21.35,127.77c-.15,0-.27-.12-.28-.27l-.73-13.73c0-.09.03-.17.1-.23l8.51-7.11c.06-.05.14-.07.21-.06.08,0,.15.05.19.11.02.02,1.91,2.51,4.69,4.25,1.09.68,4.64,3.17,4.6,6.47-.03,2.16-1.58,4.16-4.61,5.95-.01,0-.03.02-.04.02-.01,0-1.57.66-2.13,3.83-.02.13-.13.23-.26.23l-10.24.54s-.01,0-.02,0ZM20.91,113.88l.71,13.3,9.74-.51c.62-3.14,2.19-3.93,2.42-4.03,2.84-1.68,4.29-3.51,4.31-5.46.04-3.01-3.31-5.34-4.34-5.99-2.4-1.5-4.11-3.48-4.66-4.16l-8.18,6.84Z"/>
      </g>
      <path d="M28.73,120.93c-.08,0-.17-.04-.22-.11-.45-.57-1.26-.83-1.96-.63-.15.04-.31-.05-.35-.19-.04-.15.05-.31.19-.35.91-.26,1.97.08,2.56.83.1.12.08.3-.05.4-.05.04-.11.06-.18.06Z"/>
    </g>
    <g>
      <g>
        <g>
          <path class="cls-1" d="M42.1,122.63s7.68-5.89,11.39-13.11c3.71-7.22,5.54-8.65,6.41-8.44.86.21.36,1.94-.92,3.77,0,0,2.36-1.15,2.62.87,0,0,.84-.09.95,1.26,0,0,1.72,1.22.85,2.24-.87,1.02-1.78-.11-1.78-.11,0,0-4.44,15.08-16.5,22.04l-3.03-8.52Z"/>
          <path d="M45.13,131.43s-.07,0-.1-.02c-.08-.03-.14-.09-.17-.17l-3.03-8.52c-.04-.12,0-.24.09-.32.08-.06,7.67-5.93,11.31-13.01,3.14-6.11,5.34-8.92,6.73-8.59.27.06.47.24.57.5.27.71-.22,1.92-.88,3.01.45-.1,1.01-.14,1.47.1.37.2.61.55.72,1.03.13.03.29.09.45.22.29.24.47.63.53,1.15.28.22,1.01.86,1.1,1.6.04.36-.06.68-.3.97-.3.35-.64.53-1.02.53-.34,0-.63-.16-.84-.31-.84,2.51-5.61,15.5-16.5,21.78-.04.03-.09.04-.14.04ZM42.44,122.73l2.84,8c11.61-6.9,16.04-21.55,16.08-21.7.03-.1.11-.18.22-.2.1-.02.21.02.27.1,0,0,.36.43.76.43.21,0,.4-.11.58-.33.14-.16.2-.34.17-.53-.07-.54-.72-1.12-.97-1.29-.07-.05-.11-.12-.12-.21-.04-.42-.15-.73-.34-.89-.15-.12-.3-.12-.3-.12-.15.02-.29-.09-.31-.24-.05-.42-.21-.69-.47-.83-.54-.29-1.45.03-1.76.18-.12.05-.25.03-.34-.07-.08-.1-.09-.24-.02-.34,1.05-1.5,1.43-2.74,1.26-3.18-.03-.09-.08-.13-.17-.16-.38-.09-1.95.24-6.09,8.3-3.4,6.61-10.17,12.17-11.31,13.07Z"/>
        </g>
        <path d="M60.15,108.58s-.08,0-.12-.03c-.14-.06-.2-.23-.14-.37.46-1,1.62-1.63,2.71-1.46.15.02.26.17.24.32-.02.15-.17.26-.32.24-.85-.13-1.75.36-2.11,1.14-.05.1-.15.16-.26.16Z"/>
        <path d="M59.52,107.35s-.05,0-.08-.01c-.15-.04-.24-.2-.19-.35.28-.97,1.32-1.65,2.32-1.52.15.02.26.16.24.32-.02.15-.16.26-.32.24-.72-.1-1.51.41-1.71,1.11-.04.12-.15.2-.27.2Z"/>
      </g>
      <path class="cls-2" d="M16.15,131.57c-2.9,4.85-11.91,37.79-13.61,43.88l35.58.17-4.66-27.46,3.51-12.13s5.07-1.18,10.8-5.67l-4.08-10.21s-6.34,4.78-18.14,5.64c-3.89.28-7.4,2.44-9.4,5.78Z"/>
    </g>
    <g>
      <path d="M28.34,118.11s1.13-1.76.38-5.02,6.08-7.07,1.25-11.43c-4.83-4.36-11.69,1.52-13.62,5.19-1.93,3.67-3.09,7.58-11.72,9.86-8.63,2.28-4.47,13.04,6.47,15.81,10.94,2.77,15.96-1.2,16.79-10.32,0,0-5.5-.32-4.06-3.98,1.44-3.66,4.51-.12,4.51-.12Z"/>
      <path d="M15.71,103.58c-.42-.81-1.32-1.27-2.23-1.39l.09-.02c-1.46-.24-2.97-.37-4.4-.04-1.44.34-2.81,1.2-3.47,2.52-.66,1.32-.43,3.12.73,4.03.85.67,2.01.78,3.08.69,1.52-.14,3.01-.65,4.29-1.49.73-.47,1.4-1.06,1.8-1.83.41-.76.51-1.72.11-2.49Z"/>
    </g>
  </g>
  <g id="Unmarried_parents" data-name="Unmarried parents">
    <g>
      <g>
        <g>
          <path class="cls-1" d="M128.23,97.71l-14.03,3.43c-.94.23-1.9-.35-2.13-1.29-.23-.94.35-1.9,1.29-2.13l14.03-3.43c.94-.23,1.9.35,2.13,1.29.23.94-.35,1.9-1.29,2.13Z"/>
          <path d="M113.79,101.45c-.37,0-.73-.1-1.05-.3-.46-.28-.79-.72-.92-1.25-.13-.52-.04-1.07.24-1.53.28-.46.72-.79,1.25-.92l14.03-3.43c1.08-.26,2.18.4,2.45,1.49.26,1.08-.4,2.18-1.49,2.45l-14.03,3.43c-.16.04-.32.06-.48.06ZM127.81,94.51c-.12,0-.24.01-.35.04l-14.03,3.43c-.39.09-.71.34-.92.68-.21.34-.27.74-.18,1.13.09.39.34.71.68.92.34.21.75.27,1.13.18l14.03-3.43c.8-.2,1.29-1.01,1.1-1.81-.17-.68-.78-1.14-1.45-1.14ZM128.23,97.71h0,0Z"/>
        </g>
        <g>
          <path class="cls-1" d="M153.82,97.71l-14.03,3.43c-.94.23-1.9-.35-2.13-1.29-.23-.94.35-1.9,1.29-2.13l14.03-3.43c.94-.23,1.9.35,2.13,1.29.23.94-.35,1.9-1.29,2.13Z"/>
          <path d="M139.38,101.45c-.91,0-1.74-.62-1.97-1.54-.26-1.08.4-2.18,1.49-2.45l14.03-3.43c.52-.13,1.07-.04,1.53.24.46.28.79.72.92,1.25.13.52.04,1.07-.24,1.53-.28.46-.72.79-1.25.92l-14.03,3.43c-.16.04-.32.06-.48.06ZM153.4,94.51c-.12,0-.24.01-.35.04l-14.03,3.43c-.8.2-1.29,1.01-1.1,1.81.2.8,1.01,1.29,1.81,1.1l14.03-3.43c.39-.09.71-.34.92-.68.21-.34.27-.74.18-1.13-.09-.39-.34-.71-.68-.92-.24-.14-.51-.22-.78-.22Z"/>
        </g>
        <path d="M133.83,104.66s-.03,0-.04,0c-.14-.02-.24-.16-.22-.3l.21-1.35c.19-1.23,1.02-2.28,2.17-2.75l1.61-.65c.13-.06.29,0,.34.15.05.14-.01.29-.15.34l-1.61.65c-.98.4-1.69,1.3-1.85,2.34l-.21,1.35c-.02.13-.13.22-.26.22Z"/>
        <path d="M108.13,104.66s-.03,0-.04,0c-.14-.02-.24-.16-.22-.3l.21-1.35c.19-1.23,1.02-2.28,2.17-2.75l1.61-.65c.13-.06.29,0,.34.15.05.14-.01.29-.15.34l-1.61.65c-.98.4-1.69,1.3-1.85,2.34l-.21,1.35c-.02.13-.13.22-.26.22Z"/>
        <path d="M58.91,185.27h-4.66c-.15,0-.26-.12-.26-.26s.12-.26.26-.26h4.51l4.47-7.67c1.17-3.38,4.47-5.55,8.04-5.3l7.5.62c2.84.2,5.46-1.53,6.39-4.21,2.88-8.32,8.72-24.95,13.23-37.74,2.58-7.32,4.82-13.63,6.46-18.24.85-2.38,1.54-4.32,2.03-5.66q.82-2.27,1.03-2.27h25.87c.15,0,.26.12.26.26,0,.05-.01.1-.04.14-.52,1.17-16.81,47.32-22.47,63.68-1.01,2.91-3.85,4.79-6.93,4.57l-9.35-.67c-3.34-.24-6.43,1.81-7.51,4.97l-2.71,7.87c-.04.11-.14.18-.25.18h-25.87ZM59.37,184.74h25.22l2.65-7.69c1.16-3.39,4.47-5.58,8.05-5.32l9.35.67c2.83.2,5.46-1.53,6.39-4.21,2.88-8.32,8.72-24.95,13.23-37.74,2.58-7.32,4.82-13.63,6.46-18.24.85-2.38,1.54-4.32,2.03-5.66.32-.87.51-1.41.64-1.74h-25.31c-1.13,2.9-16.87,47.53-22.42,63.56-1.01,2.91-3.85,4.79-6.93,4.57l-7.5-.62c-3.34-.24-6.42,1.81-7.51,4.97,0,.02-.01.03-.02.05l-4.33,7.43Z"/>
        <g>
          <path class="cls-2" d="M86.39,144.11l3.87,6.14-3.69,9.52s19.44,1.01,19.37,1.23c-.07.22,1.89-6.99,1.89-6.99l3.01-1.65s5.01-3.05,4.14-6.95c-1.37-6.13-7.66-5.43-7.66-5.43l-6.36.23s-9.03.72-14.57,3.9Z"/>
          <path d="M101.48,154.77c-.09,0-.18,0-.25,0-2.28-.14-34.77,0-35.1,0h0c-.14,0-.25-.11-.26-.24-.01-.14.09-.26.22-.28l22.69-3.61c.15-.02.28.08.3.22.02.14-.08.28-.22.3l-19.3,3.07c8.51-.03,29.83-.1,31.71.01,2.25.14,14.84-2.14,14.97-2.16.14-.03.28.07.31.21.03.14-.07.28-.21.31-.5.09-12.01,2.18-14.85,2.18Z"/>
          <path class="cls-1" d="M105.74,147.37l4.86,5.07s-3.93,2.6-7.21,3.06c-3.42.47-4.74.35-4.74.35,0,0-.21,1.27-1.02,1.53s-1.05-.4-1.05-.4c0,0-.5,1.24-1.27,1.3-1.13.08-.96-1.18-.96-1.18,0,0-.57,1.57-1.74,1.13-.76-.28-.49-2.58-.49-2.58,0,0-.27,1.2-1,1.29-.73.09-1.04-2.07.31-4.55.8-1.47,6.22-2.16,6.22-2.16,0,0,5.5-1.09,8.07-2.86Z"/>
          <path d="M93.02,158.57c-.16,0-.33-.03-.5-.09-.51-.19-.67-.95-.7-1.64-.17.18-.39.33-.66.36-.24.03-.47-.08-.63-.32-.5-.73-.39-2.66.68-4.62.84-1.55,5.85-2.22,6.42-2.3.04,0,5.46-1.1,7.96-2.81.12-.08.28-.05.37.07.08.12.05.28-.07.37-2.59,1.78-7.94,2.85-8.17,2.9-1.49.19-5.44.92-6.04,2.03-1.01,1.85-1.06,3.55-.71,4.07.07.1.12.1.13.09.45-.06.71-.82.77-1.08.03-.14.16-.22.3-.2.14.02.23.15.22.29-.1.88-.05,2.17.32,2.31.22.08.42.08.61,0,.42-.19.71-.77.78-.97.05-.13.18-.2.31-.17.13.03.22.16.2.29-.02.13-.02.53.17.73.11.12.27.16.5.15.49-.04.93-.85,1.04-1.14.04-.1.13-.17.25-.16.11,0,.21.07.24.17.04.1.21.41.72.24.53-.17.79-1.02.84-1.33.02-.14.14-.23.28-.22.01,0,1.35.11,4.68-.35,3.18-.44,7.06-2.99,7.1-3.02.12-.08.29-.05.37.07.08.12.05.29-.07.37-.16.11-4.02,2.64-7.32,3.1-2.66.37-4.06.38-4.57.36-.11.42-.42,1.27-1.14,1.51-.5.16-.85.04-1.08-.15-.24.42-.68,1.02-1.3,1.06-.4.03-.71-.08-.93-.31-.09-.1-.16-.21-.21-.32-.16.21-.38.42-.65.55-.17.08-.35.12-.53.12Z"/>
          <path d="M105.91,147.52c-.09,0-.17-.04-.22-.12-.08-.12-.05-.29.08-.37l3.79-2.5c.12-.08.29-.05.37.08.08.12.05.29-.08.37l-3.79,2.5s-.1.04-.15.04Z"/>
          <path d="M90.27,149.25s-.09-.01-.13-.03c-.13-.07-.17-.23-.1-.36l2.1-3.72c.07-.13.23-.17.36-.1.13.07.17.23.1.36l-2.1,3.72c-.05.09-.14.13-.23.13Z"/>
          <path class="cls-1" d="M90.17,150.48l.09-.22-3.63-5.76c-1.84.93-6.6,3.34-8.16,3.99-3.4,1.42-6.06,2.58-6.88,3.61-.95,1.2-1.59,3.27-.85,3.64.75.37,1.12-.33,1.12-.33,0,0,.17,1.45.92,1.81.75.37,1.36-.94,1.36-.94,0,0,.29,1.17,1.02,1.13.73-.04,1.32-1.71,1.32-1.71,0,0,.38,1.12,1.3.52.6-.39,1.09-1.45,1.36-2.14,1.16.08,2.89.06,3.05-.65.04-.17,0-.33-.1-.49,2.24-.43,6.36-1.82,8.09-2.44Z"/>
          <path d="M75.13,157.66c-.52,0-.84-.42-1.03-.79-.18.24-.43.51-.74.62-.23.08-.46.07-.68-.04-.56-.28-.84-1-.97-1.51-.27.17-.64.24-1.07.03-.15-.08-.35-.24-.44-.61-.2-.9.45-2.5,1.19-3.43.85-1.08,3.43-2.21,6.98-3.69,1.53-.64,6.2-3,8.14-3.98.13-.07.29-.01.36.12.07.13.01.29-.12.36-1.94.99-6.63,3.35-8.18,4-3.36,1.4-6,2.55-6.77,3.53-.72.91-1.24,2.33-1.09,2.99.04.19.13.23.15.25.5.25.74-.17.77-.22.05-.1.17-.16.28-.14.11.02.2.11.21.23.04.36.27,1.36.77,1.61.09.04.18.05.27.02.33-.12.65-.65.73-.83.05-.1.15-.16.26-.15.11.01.2.09.23.2.06.25.33.95.75.93.37-.02.87-.93,1.08-1.53.04-.11.14-.18.25-.18h0c.11,0,.21.07.25.18.04.11.19.42.42.5.14.05.3,0,.49-.11.41-.26.85-.98,1.25-2.01.04-.11.15-.18.26-.17,1.81.13,2.7-.14,2.77-.44.02-.09,0-.19-.07-.3-.04-.07-.05-.17-.02-.24s.11-.14.19-.15c2.09-.4,6.05-1.71,8.05-2.43.14-.05.29.02.34.16.05.14-.02.29-.16.34-1.39.51-5.39,1.88-7.82,2.39.03.12.03.24,0,.35-.15.69-1.2.98-3.13.87-.31.77-.79,1.7-1.39,2.09-.33.22-.65.27-.95.17-.19-.07-.34-.19-.45-.32-.26.56-.73,1.35-1.34,1.38-.02,0-.04,0-.05,0Z"/>
          <path d="M82.08,153.18c-.07,0-.15-.03-.2-.09,0,0-.71-.79-1.76-1.06-.14-.04-.23-.18-.19-.32.04-.14.18-.23.32-.19,1.22.32,1.99,1.19,2.02,1.22.1.11.09.28-.02.37-.05.04-.11.07-.17.07Z"/>
        </g>
        <g>
          <path d="M112.41,128.65c-.07-.88-.35-1.79-.95-2.46-.09-.1-.18-.17-.27-.24.09-.52.07-1.06-.1-1.59-.25-.77-.86-1.4-1.69-1.47-.35-.03-.65.06-.91.22.2-1.1.01-2.28-.66-3.17-.47-.62-1.23-.85-1.98-.62-.2.06-.39.15-.56.26-.26-.72-.79-1.37-1.56-1.55-.9-.22-1.76.38-2.34,1.01-.27.3-.5.64-.65,1.01-.16-.29-.39-.53-.71-.67-.77-.34-1.63.1-2.17.67-1.29,1.37-1.43,3.54-.75,5.22.21.53.5,1.02.83,1.48-.22.42-.32.89-.37,1.38-.06.66-.06,1.39.16,2.03.2.56.58,1.02,1.15,1.23.39.15.82.14,1.18-.03.39,1.32,1.24,2.48,2.37,3.27,1.33.93,3.01,1.23,4.6.95,3.19-.57,5.61-3.67,5.36-6.92Z"/>
          <path class="cls-1" d="M106.46,134.34s.78,5.32.86,5.63c.08.31-2.08,2.03-4.54,2.82-4.38,1.41-1.64-2.35-1.64-2.35l-.47-5.71,5.79-.39Z"/>
          <path d="M101.13,140.71c-.14,0-.25-.1-.26-.24l-.47-5.71c0-.07.02-.14.06-.19.05-.05.11-.09.18-.09l5.79-.39c.13-.01.26.09.28.23.31,2.13.8,5.39.86,5.61.04.14-.05.29-.19.32-.14.03-.29-.05-.32-.19-.07-.29-.66-4.29-.83-5.42l-5.28.36.45,5.45c.01.15-.1.27-.24.28,0,0-.01,0-.02,0Z"/>
          <g>
            <path class="cls-1" d="M96.83,128.48c-.64,1.31-1.04,2.76-.94,4.21s.76,2.9,1.93,3.76c1.02.75,2.34,1,3.6.84,1.25-.16,2.43-.7,3.47-1.42,1.08.76,2.68.66,3.66-.21.57-.51.94-1.29.79-2.03s-.89-1.38-1.64-1.25c-.43.07-.8.36-1.23.42-.48.06-.96-.19-1.28-.55-.32-.37-.48-.84-.59-1.31-.34-1.48-.12-3.09.61-4.42-.07.13-.84.13-.98.14-.35.02-.71,0-1.06-.03-.69-.08-1.37-.27-2-.57-.32-.15-.63-.33-.91-.53-.23-.16-.49-.49-.76-.57-.57-.16-1.02.82-1.27,1.18-.51.75-1,1.52-1.4,2.34Z"/>
            <path d="M100.7,137.6c-1.13,0-2.21-.33-3.04-.94-1.16-.85-1.92-2.33-2.03-3.96-.09-1.36.23-2.82.97-4.34.35-.72.8-1.48,1.42-2.38.04-.06.09-.14.14-.22.28-.47.76-1.26,1.42-1.06.23.07.44.25.62.42.08.07.16.15.23.19.27.19.57.36.88.51.61.29,1.25.47,1.91.55.34.04.68.05,1.01.03h.1c.47-.02.65-.05.72-.07.08-.08.2-.09.31-.04.13.07.18.23.11.36t0,0c-.7,1.28-.91,2.82-.58,4.24.12.53.29.91.54,1.19.29.33.68.51,1.04.46.19-.02.37-.11.56-.19.2-.09.41-.18.65-.23.86-.15,1.77.53,1.95,1.46.15.79-.18,1.66-.88,2.28-1.04.92-2.66,1.05-3.84.33-1.14.76-2.3,1.22-3.44,1.36-.25.03-.5.05-.74.05ZM99.37,125.2c-.26,0-.59.54-.77.84-.06.1-.11.18-.16.25-.6.88-1.04,1.61-1.38,2.31-.7,1.43-1.01,2.8-.92,4.07.1,1.47.78,2.8,1.82,3.57.9.66,2.14.95,3.41.8,1.1-.14,2.23-.6,3.35-1.37.09-.06.21-.06.3,0,.98.69,2.44.6,3.34-.19.55-.48.82-1.19.71-1.78-.12-.64-.76-1.13-1.34-1.04-.17.03-.35.11-.53.19-.22.1-.45.2-.71.23-.53.07-1.11-.18-1.51-.64-.3-.35-.51-.8-.65-1.42-.31-1.36-.17-2.82.39-4.1-.12,0-.25.01-.4.02h-.09c-.36.02-.73.01-1.1-.03-.72-.08-1.42-.28-2.08-.6-.33-.16-.65-.34-.95-.55-.09-.07-.19-.15-.28-.23-.14-.12-.29-.26-.41-.3-.02,0-.03,0-.05,0ZM96.83,128.48h0,0ZM104.97,126.39s0,0,0,0c0,0,0,0,0,0Z"/>
          </g>
          <path d="M106.26,134.86c-.08,0-.17-.04-.22-.11-.08-.12-.05-.28.07-.37.13-.09,1.27-.85,2.09-.61.14.04.22.19.18.33-.04.14-.19.22-.33.18-.49-.15-1.35.34-1.64.54-.05.03-.1.05-.15.05Z"/>
        </g>
        <g>
          <path class="cls-1" d="M94.59,161l-1.24,3.58c-.98,2.83-2.95,1.94-5.94,1.69l-10.75,1.88-4.58,13.81c-.6,1.8-2.28,3.01-4.18,3.01h-10.59c-.63,0-.94-.78-.48-1.21l3.68-3.44,5.76-16.19s1.29-4.75,8.94-4.35c7.66.4,19.37,1.23,19.37,1.23Z"/>
          <path d="M67.91,185.24h-10.59c-.4,0-.75-.24-.9-.61-.15-.37-.05-.79.24-1.06l3.64-3.4,5.74-16.13s1.43-4.93,9.21-4.53c7.57.39,19.25,1.22,19.37,1.23.08,0,.16.05.2.12.05.07.06.15.03.23l-1.24,3.58c-.88,2.53-2.57,2.31-4.72,2.03-.46-.06-.94-.12-1.46-.17l-10.56,1.85-4.53,13.66c-.63,1.91-2.41,3.19-4.43,3.19ZM74.32,160.01c-6.55,0-7.73,4-7.78,4.18l-5.76,16.21s-.04.08-.07.1l-3.68,3.44c-.14.13-.18.31-.11.48.07.17.22.28.41.28h10.59c1.79,0,3.36-1.14,3.92-2.83l4.58-13.81c.03-.09.11-.16.21-.18l10.75-1.88s.04,0,.07,0c.54.04,1.03.11,1.51.17,2.13.28,3.42.44,4.15-1.68l1.12-3.25c-1.99-.14-12.18-.85-19.02-1.2-.31-.02-.61-.02-.89-.02Z"/>
        </g>
        <path d="M67.14,181.4c-3.41,0-6.52-.79-6.69-.83-.14-.04-.23-.18-.19-.32.04-.14.18-.23.32-.19.05.01,5,1.26,9.16.63.14-.02.28.08.3.22.02.14-.08.28-.22.3-.88.13-1.8.19-2.69.19Z"/>
        <path class="cls-1" d="M105.93,161l-1.24,3.58c-.98,2.83-3.76,4.64-6.74,4.4l-9.95-.82-4.58,13.81c-.6,1.8-2.28,3.01-4.18,3.01h-10.59c-.63,0-.94-.78-.48-1.21l3.68-3.44,5.76-16.19s1.29-4.75,8.94-4.35c7.66.4,19.37,1.23,19.37,1.23Z"/>
        <path d="M79.25,185.24h-10.59c-.4,0-.75-.24-.9-.61-.15-.37-.05-.79.24-1.06l3.64-3.4,5.74-16.13s1.43-4.93,9.21-4.53c.15,0,.26.13.25.28,0,.15-.13.26-.28.25-7.34-.38-8.63,3.97-8.68,4.16l-5.76,16.21s-.04.08-.07.1l-3.68,3.44c-.14.13-.18.31-.11.48.07.17.22.28.41.28h10.59c1.78,0,3.36-1.14,3.92-2.83l4.58-13.81c.04-.12.16-.19.27-.18l9.95.82c2.87.24,5.53-1.5,6.47-4.22l1.24-3.58c.05-.14.2-.21.34-.16.14.05.21.2.16.34l-1.24,3.58c-1.02,2.95-3.9,4.83-7.02,4.57l-9.74-.81-4.51,13.61c-.63,1.91-2.41,3.19-4.43,3.19Z"/>
        <g>
          <path class="cls-1" d="M88.01,168.15l.89-2.65-.89,2.65Z"/>
          <path d="M88.01,168.42s-.06,0-.08-.01c-.14-.05-.21-.2-.17-.33l.89-2.65c.05-.14.2-.21.33-.17.14.05.21.2.17.33l-.89,2.65c-.04.11-.14.18-.25.18Z"/>
        </g>
        <path d="M79.36,181.6c-3.68,0-7.38-.98-7.57-1.03-.14-.04-.22-.18-.19-.32.04-.14.19-.22.32-.19.06.01,5.61,1.49,9.77.85.14-.02.28.08.3.22.02.14-.08.28-.22.3-.78.12-1.6.17-2.42.17Z"/>
        <g>
          <path d="M106.03,201.53c-.43,0-.86-.05-1.29-.15-1.87-.43-3.41-1.78-4.33-3.8-.91-1.99-1.11-4.4-.56-6.78,1.15-4.94,5.21-8.23,9.04-7.34,1.87.43,3.41,1.78,4.33,3.8.91,1.99,1.11,4.4.56,6.78-.55,2.38-1.79,4.45-3.48,5.84-1.32,1.08-2.8,1.65-4.27,1.65ZM107.61,183.85c-3.18,0-6.29,2.93-7.25,7.08-.53,2.27-.34,4.55.52,6.44.85,1.86,2.26,3.1,3.97,3.5,1.71.4,3.53-.1,5.11-1.39,1.6-1.31,2.78-3.28,3.3-5.55h0c.53-2.27.34-4.55-.52-6.44-.85-1.86-2.26-3.1-3.97-3.5-.39-.09-.77-.13-1.16-.13Z"/>
          <path class="cls-3" d="M106.02,198.43c-.2,0-.39-.02-.58-.07-2.14-.5-3.32-3.64-2.57-6.86.74-3.19,3-5.09,4.75-5.09.2,0,.39.02.58.07,2.14.5,3.32,3.64,2.57,6.86-.74,3.19-3,5.09-4.75,5.09Z"/>
          <path d="M106.81,192.69c-.12,0-.22-.08-.25-.2l-5.36-19.9c-.04-.14.05-.29.19-.32.14-.04.29.05.32.19l5.36,19.9c.04.14-.05.29-.19.32-.02,0-.05,0-.07,0Z"/>
        </g>
        <g>
          <path d="M80.76,201.49c-.31,0-.61-.03-.91-.1-1.32-.31-2.41-1.25-3.05-2.67-.64-1.39-.78-3.08-.39-4.74.8-3.46,3.65-5.76,6.35-5.14,2.7.63,4.25,3.95,3.44,7.41-.39,1.66-1.25,3.11-2.44,4.08-.93.76-1.97,1.16-3.01,1.16ZM81.85,189.26c-2.16,0-4.28,2-4.93,4.83-.36,1.55-.23,3.11.35,4.4.58,1.26,1.53,2.11,2.69,2.38,1.16.27,2.39-.07,3.46-.95,1.1-.9,1.9-2.24,2.26-3.79.74-3.18-.63-6.21-3.05-6.78-.26-.06-.52-.09-.79-.09Z"/>
          <path class="cls-3" d="M80.75,198.39c-.07,0-.14,0-.21-.02-.49-.11-.8-.64-.94-.94-.35-.76-.42-1.77-.19-2.75.39-1.7,1.58-2.85,2.43-2.85.07,0,.14,0,.21.02.87.2,1.55,1.86,1.13,3.7-.39,1.7-1.58,2.85-2.43,2.85Z"/>
          <path d="M81.66,195.37s-.05,0-.08-.01c-.14-.04-.22-.19-.17-.33l3.12-10.1c.04-.14.19-.22.33-.17.14.04.22.19.17.33l-3.12,10.1c-.04.11-.14.19-.25.19Z"/>
        </g>
        <g>
          <path d="M55.2,201.49c-.31,0-.61-.03-.91-.1-1.32-.31-2.41-1.25-3.05-2.67-.64-1.39-.78-3.08-.39-4.74.8-3.46,3.65-5.76,6.35-5.14,2.7.63,4.25,3.95,3.44,7.41-.39,1.66-1.25,3.11-2.44,4.08-.93.76-1.97,1.16-3.01,1.16ZM56.29,189.26c-2.16,0-4.28,2-4.93,4.83-.36,1.55-.23,3.11.35,4.4.58,1.26,1.53,2.11,2.69,2.38,1.16.27,2.39-.07,3.46-.95,1.1-.9,1.9-2.24,2.26-3.79.74-3.18-.63-6.21-3.05-6.78-.26-.06-.52-.09-.79-.09Z"/>
          <path class="cls-3" d="M55.19,198.39c-.07,0-.14,0-.21-.02-.87-.2-1.55-1.86-1.13-3.7.39-1.7,1.58-2.84,2.43-2.84.07,0,.14,0,.21.02.49.11.8.64.94.94.35.76.42,1.77.19,2.75-.39,1.7-1.58,2.85-2.43,2.85Z"/>
          <path d="M55.84,195.37s-.05,0-.08-.01c-.14-.04-.22-.19-.17-.33l3.12-10.1c.04-.14.19-.22.33-.17.14.04.22.19.17.33l-3.12,10.1c-.04.11-.14.19-.25.19Z"/>
        </g>
      </g>
      <g>
        <g>
          <g>
            <g>
              <path class="cls-1" d="M190.36,108.02c0,.42,20.33,55.72,26.54,72.6,1.08,2.93.28,6.21-2.02,8.32l-13.55,12.4h-15.26c-1.34,0-2.06-1.57-1.19-2.59l7.45-8.71-21.94-74.33,19.97-7.69Z"/>
              <path d="M201.33,201.61h-15.26c-.72,0-1.36-.41-1.66-1.07-.3-.66-.2-1.41.27-1.96l7.35-8.6-21.9-74.19c-.04-.13.03-.27.16-.32l19.97-7.69c.08-.03.17-.02.24.03.06.04.1.11.11.18.32,1.27,20.38,55.83,26.53,72.55,1.12,3.04.3,6.42-2.09,8.6l-13.55,12.4s-.11.07-.18.07ZM170.71,115.88l21.87,74.09c.03.09,0,.18-.05.25l-7.45,8.71c-.33.39-.41.92-.19,1.39.22.47.67.76,1.18.76h15.16l13.47-12.33c2.23-2.04,3-5.19,1.95-8.03-16.52-44.91-25.41-69.21-26.45-72.35l-19.49,7.51ZM190.62,108.02h0,0Z"/>
            </g>
            <path d="M192.32,190.31c-.13,0-.24-.1-.26-.23-.02-.14.08-.28.23-.3.14-.02,14.24-1.89,21.94-10.55.1-.11.26-.12.37-.02s.12.26.02.37c-7.83,8.81-22.12,10.71-22.27,10.73-.01,0-.02,0-.03,0Z"/>
          </g>
          <g>
            <g>
              <path class="cls-1" d="M145.66,142.4l-3.93,46.33-12,9.83c-1.14.93-.48,2.78.99,2.78h31.84c3.53,0,6.33-2.97,6.12-6.49l-.44-7.59,3.6-86.77-20.79.65-5.4,41.26Z"/>
              <path d="M162.58,201.61h-31.84c-.78,0-1.46-.48-1.72-1.22-.26-.74-.04-1.54.56-2.03l11.91-9.76,3.92-46.22s0,0,0-.01l5.4-41.26c.02-.13.12-.23.25-.23l20.79-.65c.07,0,.14.03.2.08.05.05.08.12.08.2l-3.6,86.77.44,7.56c.1,1.78-.51,3.47-1.73,4.76-1.22,1.29-2.87,2.01-4.65,2.01ZM145.93,142.43l-3.93,46.33c0,.07-.04.14-.1.18l-12,9.83c-.52.43-.55,1.03-.4,1.45s.55.86,1.23.86h31.84c1.63,0,3.15-.65,4.27-1.84,1.12-1.19,1.68-2.74,1.59-4.37l-.44-7.59,3.59-86.51-20.28.64-5.37,41.03ZM141.74,188.73h0,0Z"/>
            </g>
            <path d="M158.6,192.49c-10.12,0-16.9-3.48-16.98-3.52-.13-.07-.18-.23-.11-.36.07-.13.23-.18.36-.11.1.05,10.41,5.33,24.55,2.76.14-.02.28.07.31.21.03.14-.07.28-.21.31-2.8.51-5.45.71-7.91.71Z"/>
          </g>
        </g>
        <path d="M176.7,19.31c-1.67-3.01-4.2-4.9-6.43-5.91-.51-.23-1.05-.39-1.61-.45-.11-.01-.23-.01-.34-.02-.09-1.32-.38-2.62-.9-3.84-1.06-2.5-3.09-4.5-5.64-5.45-.97-.36-1.99-.54-3.01-.54-.02,0-.04-.01-.06-.01-.97-1.21-2.15-2.2-3.7-2.68-1.62-.49-3.41-.45-5.08-.3-1.63.15-3.26.51-4.75,1.21-2.8,1.32-4.71,3.91-5.64,6.82-1.08,3.37-.77,7,.03,10.39.4,1.7.85,3.45,1.66,5,.63,1.22,1.55,2.32,2.84,2.82-.37,4.23.21,6.27,1.88,8.63,1.82,2.58,4.14,4.99,7.03,6.36.81.38,1.65.67,2.52.85.01.13.04.27.07.41.42,1.68,2.59,2.22,4.08,2.35,1.51.13,2.98-.17,4.28-.82,1.79.2,3.65-.13,5.29-.8,4.17-1.69,7.28-5.52,8.47-9.82,1.38-4.99,1.48-9.75-.99-14.2Z"/>
        <g>
          <g>
            <path class="cls-1" d="M141.86,43.54l-6.85,23.13s-11.26,22.44-11.84,23.02c-.58.58-6.94,5.2-8,6.07-1.06.87-1.14,1.78-1.14,1.78l11.05-2.65s-2.04,1.34-2.62,2.4c-.58,1.06-.1,2.5,1.45,2.41,1.54-.1,7.69-3.6,9.37-5.09,4.45-3.95,13.4-19.57,16.39-26.5,2.99-6.94,6.17-21.77,6.17-21.77l-13.97-2.79Z"/>
            <path d="M123.77,99.97c-.67,0-1.21-.27-1.52-.77-.37-.57-.37-1.37,0-2.03.32-.58,1.02-1.23,1.64-1.71l-9.77,2.34c-.08.02-.17,0-.23-.06-.06-.06-.1-.14-.09-.22,0-.04.1-1.03,1.24-1.96.45-.37,1.86-1.41,3.34-2.52,1.92-1.43,4.31-3.21,4.63-3.53.48-.55,7.3-14.01,11.78-22.93l6.84-23.11c.04-.13.17-.21.31-.18l13.97,2.79c.07.01.13.05.17.11.04.06.05.13.04.2-.03.15-3.22,14.94-6.18,21.82-2.79,6.47-11.86,22.52-16.45,26.6-1.65,1.46-7.9,5.06-9.53,5.16-.05,0-.11,0-.16,0ZM125.08,94.63c.1,0,.2.06.24.16.05.12.01.26-.1.33-.02.01-1.99,1.32-2.53,2.31-.27.49-.27,1.08,0,1.5.24.38.66.56,1.21.52,1.42-.09,7.49-3.5,9.21-5.03,4.26-3.79,13.19-19.14,16.32-26.41,2.73-6.33,5.65-19.45,6.09-21.46l-13.47-2.69-6.78,22.9s-.01.03-.02.04c-1.15,2.3-11.3,22.5-11.89,23.09-.35.35-2.56,1.99-4.69,3.58-1.48,1.1-2.88,2.15-3.32,2.51-.55.45-.81.91-.94,1.22l10.62-2.54s.04,0,.06,0ZM135.01,66.67h0,0Z"/>
          </g>
          <path class="cls-2" d="M140.8,44.5s4.27,1.36,4.88,1.73c0,0-1.48,3.03-1.48,5.5s.99,5.38,3.65,8.53c2.66,3.15,4.78,11.17,4.78,11.17l-9.32,81.58s40.97,1.08,62.21-5.42c0,0-10.62-31.87-11.27-47.26-.65-15.39-4.34-22.98-8.45-30.13,0,0-.65-27.1-.65-31.22s-.03-13.97-18.55-14.68c-18.52-.71-25.79,20.19-25.79,20.19Z"/>
          <path d="M145.76,46.53s-.09-.01-.14-.04c-.12-.08-.16-.24-.09-.36,2.69-4.38,3.43-8.09,3.43-8.13.03-.14.17-.24.31-.21.14.03.24.17.21.31,0,.04-.76,3.84-3.5,8.3-.05.08-.14.13-.23.13Z"/>
          <path class="cls-1" d="M167.78,45.43l-2.15,22.07s-13.64,22.43-13.88,22.74c-.25.31-7.55,3.19-9.33,4.42-1.78,1.23-1.65,2.6-1.65,2.6l4.01-.9s-.65,3.77-2.18,4.26c0,0,.68,3.32,3.07,1.66,0,0,1.29.92,2.89-.37,0,0,.54.66,1.78.12.88-.38,1.3-.68,1.3-.68,0,0,.56.25,2.04-.25,1.47-.49,7.22-5.28,9.19-7.67,1.96-2.39,15.12-13.86,17.74-23.58,1.12-4.16,1.96-20.69,1.96-20.69,0,0-9.27-2.58-14.79-3.74Z"/>
          <path d="M144.44,103.01c-.2,0-.4-.04-.58-.11-1.14-.46-1.49-2.15-1.51-2.22-.03-.13.05-.26.18-.3,1.01-.32,1.67-2.48,1.92-3.66l-3.62.81c-.07.02-.15,0-.21-.04-.06-.04-.1-.11-.11-.19,0-.06-.13-1.54,1.76-2.84,1.09-.75,4.09-2.06,6.5-3.11.56-.24,1.08-.47,1.52-.67.13-.06.29,0,.35.13.06.13,0,.29-.13.35-.44.2-.96.42-1.52.67-2.26.99-5.37,2.34-6.41,3.06-1.14.79-1.44,1.61-1.51,2.05l3.67-.83c.09-.02.18,0,.24.07.06.06.09.15.08.24-.07.38-.66,3.61-2.13,4.37.12.42.46,1.36,1.13,1.63.41.16.91.05,1.47-.34.09-.06.21-.06.3,0,.05.03,1.15.78,2.57-.36.11-.09.28-.07.37.04.09.11.07.28-.04.37-1.39,1.13-2.61.69-3.04.47-.44.28-.86.42-1.25.42Z"/>
          <path d="M167.76,45.57s-.02,0-.04,0c-.14-.02-.25-.15-.22-.3l1.5-10.67c.01-.08,1.22-7.54,6.76-8.31.14-.02.28.08.3.23.02.14-.08.28-.23.3-5.15.72-6.3,7.79-6.31,7.87l-1.5,10.67c-.02.13-.13.23-.26.23Z"/>
          <path d="M182.57,49.44s-.02,0-.02,0c-.15-.01-.25-.14-.24-.29l.81-8.91c.01-.15.14-.25.29-.24.15.01.25.14.24.29l-.81,8.91c-.01.14-.13.24-.26.24Z"/>
        </g>
        <g>
          <path class="cls-1" d="M156.83,14.84l9.77,9.47s-6.26,14.76-8.72,17.29c-2.46,2.53-1.57-14.83-1.57-14.83l-4.62-5.96,5.14-5.96Z"/>
          <g>
            <path class="cls-1" d="M143.64,15.02c.41,1.87,1.16,3.71,2.44,5.13,1.28,1.42,3.14,2.39,5.06,2.33,1.66-.05,3.25-.87,4.42-2.05,1.17-1.18,1.95-2.71,2.44-4.3,1.74-.09,3.32-1.49,3.63-3.2.18-.99-.08-2.09-.83-2.75-.76-.66-2.04-.7-2.72.04-.38.42-.53,1.03-.93,1.43-2.34-4.35-7.6-2.89-7.93-4.87.03.19-1.6,3.14-6.04,4.66-.06,1.2.2,2.39.46,3.56Z"/>
            <path d="M150.98,22.75c-1.82,0-3.72-.9-5.09-2.42-1.2-1.32-2.04-3.09-2.51-5.25l.26-.06-.26.03c-.25-1.17-.52-2.38-.46-3.61,0-.11.08-.2.18-.24,4.09-1.41,5.74-4.05,5.86-4.43,0-.12.1-.22.22-.24.15-.02.28.07.3.22.1.62.86.82,2.19,1.13,1.73.4,4.06.95,5.51,3.31.08-.12.15-.26.22-.39.14-.26.28-.52.48-.75.74-.82,2.18-.85,3.08-.06.78.68,1.13,1.83.92,3-.32,1.76-1.92,3.22-3.69,3.4-.56,1.73-1.39,3.15-2.45,4.23-1.29,1.3-2.96,2.08-4.6,2.13-.06,0-.11,0-.17,0ZM143.44,11.65c-.02,1.1.22,2.21.45,3.29v.03c.45,2.07,1.25,3.75,2.39,5.01,1.32,1.46,3.14,2.3,4.85,2.25,1.5-.05,3.04-.77,4.24-1.97,1.04-1.05,1.84-2.46,2.38-4.19.03-.11.13-.18.24-.19,1.61-.09,3.09-1.4,3.38-2.98.18-.98-.12-1.96-.74-2.51-.68-.59-1.8-.58-2.35.02-.16.18-.28.4-.41.64-.15.28-.3.56-.53.8-.06.06-.14.09-.23.08-.08-.01-.16-.06-.2-.14-1.31-2.44-3.56-2.97-5.37-3.39-1.01-.24-1.92-.45-2.35-1-.63,1.04-2.38,3.04-5.77,4.25ZM148.96,6.84h0Z"/>
          </g>
          <path d="M158.54,13.39s-.01,0-.02,0c-.15-.01-.25-.14-.24-.28,0-.09.18-2.11,1.46-2.11.15,0,.26.12.26.26s-.12.26-.26.26c-.78,0-.93,1.6-.93,1.62-.01.14-.13.24-.26.24Z"/>
        </g>
      </g>
    </g>
  </g>
</svg>