<?xml version="1.0" encoding="UTF-8"?>
<svg id="Capa_1" data-name="Capa 1" xmlns="http://www.w3.org/2000/svg" viewBox="0 0 223.24 217.53">
  <defs>
    <style>
      .cls-1 {
        fill: none;
      }

      .cls-2 {
        fill: #f6f3ff;
      }

      .cls-3 {
        fill: #d0c4ff;
      }

      .cls-4 {
        fill: #fff;
      }
    </style>
  </defs>
  <circle class="cls-2" cx="127.13" cy="96.05" r="95.41"/>
  <g>
    <g>
      <path class="cls-3" d="M96.52,65.11c-.06-.19-1.68-.81-1.24-3.73.43-2.92,2.92-1.8,5.03-5.15,2.11-3.35,2.67-9.87,7.7-15.09,5.03-5.22,10.68-3.48,13.97-.06,3.29,3.41,4.04,13.16,4.66,14.16.62.99,1.8,1.2,2.79,3.93.99,2.73-10.18,10.91-16.39,12.46-6.21,1.55-16.52-6.52-16.52-6.52Z"/>
      <path class="cls-4" d="M110.66,50.41s2.57-2.93,5.59-4.44c3.02-1.51,5.41.35,5.41.35,0,0,1.69,8.16-1.33,11.53-3.02,3.37-7.81.35-8.78-1.6-.98-1.95-.89-5.86-.89-5.86Z"/>
      <path d="M110.66,50.65c-.06,0-.11-.02-.16-.06-.1-.09-.11-.24-.02-.34.11-.12,2.64-2.98,5.66-4.49,3.12-1.56,5.64.36,5.67.38.11.08.12.23.04.34-.08.11-.23.13-.34.04-.09-.07-2.32-1.75-5.15-.33-2.94,1.47-5.49,4.35-5.52,4.38-.05.05-.12.08-.18.08Z"/>
      <path d="M108.53,53.8s-.08,0-.11-.03c-.12-.06-.16-.21-.1-.33.63-1.17,2.09-3.1,2.15-3.18.08-.11.23-.13.34-.05.11.08.13.23.05.34-.01.02-1.5,1.98-2.11,3.12-.04.08-.13.13-.21.13Z"/>
      <path d="M122.46,47.21c-.05,0-.11-.02-.15-.05l-.8-.64c-.1-.08-.12-.24-.04-.34.08-.1.24-.12.34-.04l.8.64c.1.08.12.24.04.34-.05.06-.12.09-.19.09Z"/>
      <path d="M107.24,62.35c-.06,0-.11-.02-.16-.06-1.37-1.2-2.1-6.04-.91-11.78,1.16-5.54,2.48-7.23,2.53-7.3.08-.1.24-.12.34-.04.1.08.12.24.04.34-.02.03-1.31,1.72-2.44,7.1-1.13,5.39-.52,10.2.75,11.32.1.09.11.24.02.34-.05.05-.12.08-.18.08Z"/>
      <path d="M110.49,47.22c-.05,0-.11-.02-.15-.05-.1-.08-.12-.24-.04-.34,2.86-3.51,5.67-5.06,8.6-4.74,3.51.38,4.44,2.17,4.48,2.24.06.12.01.27-.11.33-.12.06-.27.01-.33-.11-.01-.02-.88-1.63-4.09-1.98-2.75-.3-5.42,1.19-8.17,4.57-.05.06-.12.09-.19.09Z"/>
    </g>
    <g>
      <g>
        <path class="cls-3" d="M134.89,91.12l13.63,118.04H63.21s.92-9.19,8.11-26.9c7.86-19.37,14.16-41.73,17.38-57.62,3.23-15.89,2.48-28.56,2.48-28.56l43.71-4.97Z"/>
        <g>
          <path class="cls-3" d="M136.94,70.76s2.98,3.73,4.66,12.67c1.68,8.94-2.79,11.73-12.85,12.29s-18.44-1.68-18.44-1.68l.56-19.93,26.08-3.35Z"/>
          <path d="M125.5,96.05c-8.5,0-15.18-1.75-15.25-1.77-.13-.03-.21-.17-.17-.3.03-.13.17-.21.3-.17.08.02,8.46,2.22,18.36,1.67,2.17-.12,3.96-.34,5.49-.66.13-.03.26.06.29.19.03.13-.06.26-.19.29-1.55.33-3.37.55-5.56.67-1.11.06-2.2.09-3.26.09Z"/>
        </g>
      </g>
      <g>
        <ellipse class="cls-4" cx="121.15" cy="71.47" rx="24.13" ry="11.41" transform="translate(-17.02 45.14) rotate(-19.75)"/>
        <path d="M138.92,74.51c-.07,0-.13-.03-.18-.08-.09-.1-.08-.25.02-.34,4.19-3.77,5.97-7.67,4.88-10.69-1.33-3.72-6.88-5.66-14.46-5.07-.14,0-.25-.09-.26-.22-.01-.13.09-.25.22-.26,7.82-.61,13.55,1.45,14.96,5.39,1.16,3.22-.67,7.31-5.01,11.22-.05.04-.1.06-.16.06Z"/>
        <path d="M137.47,67.54c-.12,0-.22-.09-.24-.21,0-.04-.65-4.36-2.05-5.96-1.4-1.61-3.36-2.33-3.38-2.34-.13-.05-.19-.19-.15-.31.05-.13.18-.19.31-.15.08.03,2.1.77,3.58,2.48,1.49,1.71,2.14,6.03,2.17,6.21.02.13-.07.26-.21.28-.01,0-.02,0-.04,0Z"/>
        <g>
          <path class="cls-4" d="M135.36,61.21c-.73-.84-1.61-1.45-2.3-1.84-.62-.02-1.27,0-1.94.1-3.81.54-6.62,2.91-6.28,5.28.34,2.37,3.7,3.86,7.51,3.32,2-.29,3.73-1.08,4.87-2.11-.31-1.44-.91-3.67-1.86-4.76Z"/>
          <path d="M130.81,68.42c-3.25,0-5.9-1.47-6.21-3.64-.18-1.23.42-2.49,1.67-3.55,1.22-1.03,2.93-1.74,4.82-2.01.66-.09,1.33-.13,1.98-.11.04,0,.08.01.11.03.65.37,1.58.99,2.36,1.89.95,1.09,1.57,3.25,1.91,4.87.02.08-.01.17-.07.23-1.21,1.1-3.04,1.89-5,2.17-.54.08-1.06.11-1.58.11ZM132.68,59.6c-.5,0-1.01.04-1.52.11-1.8.26-3.42.93-4.57,1.9-1.12.94-1.65,2.05-1.5,3.11.32,2.24,3.56,3.63,7.23,3.11,1.82-.26,3.5-.97,4.64-1.95-.29-1.3-.88-3.48-1.77-4.51-.72-.82-1.57-1.4-2.19-1.76-.11,0-.21,0-.32,0Z"/>
        </g>
      </g>
      <g>
        <g>
          <path class="cls-4" d="M113.3,82.51s3.27-1.85,4.46-2.83c1.2-.98,1.95-2.95,3.25-2.84s.93,1.57.67,2.08c-.55,1.04-1,2.32-.54,2.61,1.59,1,6.2-.44,7.08-.44,0,0-1.09,3.37-4.9,5.44-3.81,2.07-9.03,5.33-9.03,5.33l-.98-9.36Z"/>
          <path d="M113.3,82.75c-.08,0-.17-.04-.21-.12-.07-.12-.03-.27.09-.33.03-.02,3.26-1.85,4.43-2.81.41-.33.77-.8,1.12-1.26.66-.84,1.33-1.72,2.3-1.64.59.05.86.34.99.58.32.58.09,1.42-.13,1.85-.72,1.38-.8,2.18-.63,2.29,1.08.68,3.86.11,5.52-.23.68-.14,1.17-.24,1.43-.24.13,0,.24.11.24.24s-.11.24-.24.24c-.21,0-.73.11-1.33.23-1.84.38-4.63.95-5.87.17-.71-.44-.02-2.03.46-2.93.18-.34.34-1.02.14-1.39-.11-.19-.31-.3-.61-.33-.71-.06-1.27.67-1.88,1.45-.37.47-.75.96-1.2,1.33-1.2.98-4.36,2.78-4.5,2.85-.04.02-.08.03-.12.03Z"/>
        </g>
        <path class="cls-3" d="M116.29,84.51c-.65-5.29-1.96-5.55-1.96-5.55,0,0-13.72,3.05-14.04,3.27v-.02c-.86-.72-1.5-1.59-1.85-2.59-1.38-3.84,1.67-8.73,7.38-12.92-2.62-1.72-4.86-4.57-5.53-5.15-.11.33-8.93,1.96-14.04,11.1-5.12,9.14-3.81,25.36,1.2,28.63,5.01,3.27,26.34-1.26,28.08-2.07,1.73-.8,1.58-8.05.76-14.69Z"/>
        <path d="M105.56,66.7s-.09-.01-.13-.04c-2.08-1.36-3.8-3.29-4.73-4.32-.25-.28-.45-.5-.58-.62-.1-.09-.1-.25,0-.34.09-.1.25-.1.34,0,.14.13.34.36.6.65.91,1.02,2.61,2.91,4.63,4.24.11.07.14.22.07.34-.05.07-.12.11-.2.11Z"/>
        <path d="M94,102.69c-.06,0-.11,0-.17,0-.13,0-.24-.11-.24-.24,0-.13.11-.24.24-.24h0c8.31.04,20.46-2.69,21.6-3.21.93-.43,1.36-3.5,1.16-8.2,0-.13.1-.25.23-.25.13,0,.25.1.25.23.23,5.2-.26,8.11-1.44,8.66-1.4.65-13.58,3.26-21.63,3.26Z"/>
        <path d="M91.68,84.41c-.11,0-.21-.08-.24-.19-.03-.13.05-.26.18-.29l8.62-1.96c.13-.03.26.05.29.18.03.13-.05.26-.18.29l-8.62,1.96s-.04,0-.05,0Z"/>
        <path d="M100.31,61.8c-.06,0-.12-.02-.17-.07-.01-.01-1.08-1.06-1.99-1.29-.13-.03-.21-.16-.18-.29.03-.13.17-.21.29-.18,1.05.26,2.17,1.37,2.22,1.42.1.09.1.25,0,.34-.05.05-.11.07-.17.07Z"/>
        <path d="M96.57,63.38c-.09,0-.17-.05-.21-.13-.07-.12-.02-.27.09-.33,1.51-.84,3.96-1.17,4.06-1.19.13-.02.26.08.27.21.02.13-.08.26-.21.27-.02,0-2.46.34-3.89,1.13-.04.02-.08.03-.12.03Z"/>
      </g>
    </g>
  </g>
  <g>
    <path class="cls-4" d="M30.73,78.9c-.05.13-5.85,18.5-5.85,18.5,0,0-7.95,10.82-13.7,19.08.14.06.28.11.41.17.14.06.28.12.42.18.14.06.28.12.41.18.14.06.27.13.41.19.13.06.27.13.4.2s.27.14.4.21c.13.07.26.14.39.21.13.07.26.15.38.22.13.08.25.15.38.23s.25.16.37.24c.12.08.24.17.36.26.03.02.06.04.1.07.03.02.06.04.1.07.06.04.13.09.19.14.13.09.25.19.37.29.12.1.24.2.35.3s.23.2.34.31c.11.1.22.21.33.32.11.11.22.21.32.32.11.11.21.22.32.33s.21.22.31.33c.11.11.21.22.32.33l.16.17c.05.05.1.1.15.16.1.1.2.2.31.3h0c2.3-3.06,15.91-12.77,19.6-22.4,2.49-6.52,4.41-13.61,4.41-13.61,0,0-10.95-11.38-12.46-7.29Z"/>
    <path class="cls-4" d="M6.63,141.16c-.5-.51-.69-1.26-.86-1.96-.03.75-.28,1.28-.83,1.38-.55.11-.88-.31-1.18-.83-.3-.52-.39-1.15-.44-1.75-.59-6.51,1.14-9.74,4.02-15.34,1.55-3.01,2.95-4.34,4.46-7.38,4.92,2.04,5.23,2.69,8.38,5.81-2.33,4.22-.88,2.24-3.19,6.39-1.34,2.41-2.64,5.21-2.3,8.06.09.74.28,1.6-.18,2.12-.44.5-1.28.34-1.76-.15-.48-.5-.69-1.22-.85-1.91-.16-.69-.31-1.41-.7-1.99.04,1.52.08,3.03.11,4.55,0,.32.01.65-.13.92-.34.63-1.32.47-1.75-.13-.43-.6-.47-1.41-.48-2.15,0-.75,0-1.54-.38-2.18,0,1.86-.01,3.72-.02,5.57,0,.35,0,.71-.18,1-.35.6-1.26.5-1.76,0Z"/>
    <g>
      <path class="cls-1" d="M7.53,123c-2.52,4.89-4.67,8.1-4.05,14.98.05.54.13,1.17.42,1.68.29.51.58.83,1.01.75.43-.08.67-.5.7-1.23,0-.09.07-.15.14-.16.08,0,.15.05.17.14.15.62.33,1.39.81,1.88.25.26.63.4.97.36.17-.02.4-.09.54-.33,0,0,0,0,0,0,.14-.23.15-.54.15-.91l.02-5.57c0-.08.05-.14.12-.16.07-.02.14.01.18.08.4.68.4,1.51.4,2.25v.03c0,.73.04,1.49.44,2.04.21.29.59.48.94.46.14,0,.4-.06.54-.32.13-.23.12-.55.11-.83l-.2-4.66c0-.08.04-.14.11-.16.07-.02.14,0,.18.07.38.56.78,1.3.93,1.95l.04.17c.15.63.34,1.35.81,1.82.41.43.87.44,1.25.02.35-.4.23-.86.14-1.5-.01-.1-.03-.19-.04-.29-.35-2.9.61-5.55,1.95-7.96,1.08-1.93,2.5-4.98,3.76-7.02-2.8-2.77-3.52-3.56-7.7-5.32-1.22,1.82-3.55,5.25-3.77,5.66-.18.34-.44.81-1.1,2.09Z"/>
      <path d="M43.39,85.99c-.35-.36-8.6-8.89-11.79-8.22-.54.11-.92.46-1.13,1.03-.05.13-5.18,16.39-5.84,18.47-.66.9-7.44,10.14-12.82,17.83-.02.01-.04.03-.06.05-1.32,1.85-3.21,4.86-3.46,5.32-.18.34-.44.81-1.1,2.1-2.54,4.93-4.67,8.46-4.04,15.44.05.58.14,1.26.47,1.83.3.52.69,1.04,1.35.91.3-.06.64-.25.83-.79.15.48.36.96.72,1.33.32.33.8.51,1.23.46.33-.04.6-.2.77-.47,0,0,0,0,0,0,.2-.34.2-.75.2-1.09l.02-4.6c.06.38.06.78.06,1.17v.03c0,.76.04,1.62.51,2.26.28.38.77.62,1.22.6.36-.02.64-.19.8-.49.17-.32.16-.7.15-1.01l-.1-3.86c.14.37.24.77.33,1.16l.04.17c.16.68.37,1.45.9,2,.53.54,1.47.74,1.99.15.05-.05.09-.11.13-.17.31-.51.21-1.19.13-1.81-.01-.1-.03-.19-.04-.28-.33-2.79.97-5.59,2.28-7.95,1.17-2.1,1.4-4.2,3.31-6.27.14-.15.24-.27.31-.37.76-.73,1.74-1.61,2.84-2.6,5.09-4.57,12.79-11.48,15.45-18.43,2.47-6.46,4.4-13.57,4.42-13.64.03-.09,0-.19-.07-.26ZM38.53,99.7c-2.61,6.83-10.25,13.68-15.3,18.22-1.15,1.03-2.13,1.92-2.9,2.65,0,0,0,0,0,0,0,0-.01.01-.02.02-.57.56-1.03,1.03-1.32,1.41.03.03-.44.63-.4.66-1.17,1.79-1.44,3.47-2.26,4.94-1.34,2.41-2.3,5.07-1.95,7.96.01.09.02.19.04.29.09.64.21,1.1-.14,1.5-.38.43-.83.41-1.25-.02-.46-.48-.66-1.19-.81-1.82l-.04-.17c-.15-.65-.55-1.39-.93-1.95-.04-.06-.12-.09-.18-.07-.07.02-.11.09-.11.16l.2,4.66c0,.28.01.59-.11.83-.14.27-.4.31-.54.32-.35.02-.73-.17-.94-.46-.4-.55-.44-1.31-.44-2.04v-.03c0-.74,0-1.58-.4-2.25-.04-.07-.11-.1-.18-.08-.07.02-.12.09-.12.16l-.02,5.57c0,.37-.01.67-.15.91,0,0,0,0,0,0-.14.24-.37.31-.54.33-.34.04-.72-.11-.97-.36-.48-.49-.66-1.26-.81-1.88-.02-.08-.09-.14-.17-.14-.08,0-.14.07-.14.16-.03.73-.27,1.14-.7,1.23-.44.09-.72-.24-1.01-.75-.29-.51-.37-1.13-.42-1.68-.62-6.88,1.53-10.1,4.05-14.98.66-1.28.91-1.75,1.1-2.09.22-.41,2.55-3.83,3.77-5.66,0,0,0,0-.01,0,5.58-7.95,12.62-17.53,12.73-17.69.02-.02.03-.05.04-.08.06-.18,5.74-18.17,5.84-18.49.14-.38.38-.61.73-.68,2.36-.49,8.76,5.46,11.17,7.95-.29,1.06-2.1,7.52-4.36,13.43Z"/>
    </g>
    <g>
      <path class="cls-3" d="M43.14,39s-4.31,6.97-4.74,11.57c-.43,4.6,2.37,6.83,2.37,6.83l16.39-7.12-2.59-9.99-11.43-1.29Z"/>
      <path class="cls-3" d="M51.55,37.35s-3.52,5.32-7.62,5.68c-4.1.36-4.46-4.46-3.38-7.05,1.08-2.59,4.24-6.54,6.04-7.69,1.8-1.15,3.45-1.44,5.46-1.8,2.01-.36,7.62.58,10.78,4.39,3.16,3.81,3.95,10.78,3.38,14.23-.58,3.45-2.88,3.74-4.89,2.95-2.01-.79-9.78-10.71-9.78-10.71Z"/>
      <g>
        <g>
          <ellipse class="cls-4" cx="53.89" cy="26.06" rx="3.49" ry="2.95"/>
          <path d="M53.89,29.28c-2.07,0-3.76-1.45-3.76-3.22s1.69-3.22,3.76-3.22,3.76,1.45,3.76,3.22-1.69,3.22-3.76,3.22ZM53.89,23.39c-1.77,0-3.21,1.2-3.21,2.67s1.44,2.67,3.21,2.67,3.21-1.2,3.21-2.67-1.44-2.67-3.21-2.67Z"/>
        </g>
        <g>
          <path d="M53.36,26.29s-.61,1.67-4.12,0c-3.51-1.67-4.23-3.88-3.26-5.99,0,0-1.05-2.73,1.8-3.73,0,0,1.79-6.43,7.05-5.51,5.25.92,7.75,5.18,7.11,6.87,0,0,1.82,2.06-1.25,3.39l-7.32,4.98Z"/>
          <g>
            <g>
              <path class="cls-4" d="M59.51,18.66s-1.85.91-3.26.41c0,0-.65,1.93-2.89,1.6,0,0,.63,2.62-.48,2.96-1.11.34-1.68-.85-2.7.2-1.02,1.05-.07,3.2,2.48,2.74,0,0,2.93,3.78,6.28,2.64,3.35-1.14,5.37-5.27.57-10.55Z"/>
              <path d="M57.62,29.7c-2.56,0-4.6-2.25-5.09-2.83-1.51.22-2.44-.44-2.82-1.15-.37-.7-.27-1.53.26-2.08.71-.73,1.29-.54,1.8-.37.33.11.63.21,1.01.1.65-.2.48-1.86.29-2.63-.02-.09,0-.18.06-.25.06-.07.15-.1.24-.09,1.97.29,2.57-1.35,2.59-1.42.02-.07.07-.13.14-.16.07-.03.14-.04.21-.01,1.29.45,3.03-.39,3.05-.4.11-.05.24-.03.32.06,3.01,3.31,3.16,5.87,2.76,7.44-.43,1.66-1.68,2.96-3.45,3.56-.48.16-.94.23-1.4.23ZM52.65,26.29c.08,0,.16.04.22.11.03.04,2.85,3.61,5.97,2.55,1.58-.54,2.71-1.7,3.09-3.18.51-1.99-.37-4.39-2.5-6.78-.49.21-1.85.71-3.04.41-.26.51-1.03,1.65-2.7,1.58.14.81.33,2.59-.75,2.91-.55.17-.99.02-1.35-.1-.48-.16-.76-.26-1.24.23-.36.37-.43.94-.16,1.43.3.56,1.09,1.08,2.4.84.02,0,.03,0,.05,0Z"/>
            </g>
            <path d="M52.3,25.9c-.07,0-.14-.02-.19-.08-.32-.3-.75-.46-1.18-.47h0c-.15,0-.27-.12-.27-.27,0-.15.12-.28.27-.28.57,0,1.15.22,1.57.62.11.1.11.28.01.39-.05.06-.13.09-.2.09Z"/>
          </g>
        </g>
      </g>
    </g>
    <g>
      <g>
        <path class="cls-4" d="M72.35,90.42c-.26.97,2.25,107.69,0,118.97l4.41,4.42c1.24,1.24.36,3.36-1.39,3.36h-27.04c-1.49,0-2.67-1.26-2.57-2.75l4.3-62.08s-15.37,46.65-21.8,56.62l2.56,5.02c.75,1.46-.32,3.2-1.96,3.2h-1.45c-6.74,0-12.52-2.9-17.58-7.97-1.44-1.45-5.39-6.16-5.39-6.16-1.75-2-2.11-4.87-.91-7.24,6.78-13.36,28.6-57.81,32.22-83.68.67-4.8,1.92-9.49,3.65-14.02l2.24-5.86,30.7-1.81Z"/>
        <path d="M75.37,217.44h-27.04c-.79,0-1.55-.33-2.09-.91-.54-.58-.81-1.34-.76-2.14l4.15-59.91c-3.04,9.09-15.42,45.57-21.06,54.49l2.49,4.88c.39.77.36,1.67-.09,2.41-.45.74-1.24,1.18-2.11,1.18h-1.45c-6.47,0-12.45-2.71-17.77-8.05-1.44-1.44-5.24-5.98-5.4-6.18-1.83-2.09-2.2-5.06-.94-7.54,6.64-13.07,28.58-57.74,32.2-83.6.66-4.69,1.89-9.42,3.67-14.08l2.24-5.86c.04-.1.13-.17.24-.18l30.7-1.81c.09,0,.17.03.23.1.05.06.07.15.06.23-.06.45.06,7.62.22,17.54.48,30.01,1.46,92.27-.19,101.28l4.31,4.32c.65.65.84,1.59.48,2.44-.35.85-1.15,1.38-2.07,1.38ZM50.06,152.06s.04,0,.05,0c.14.03.23.15.22.29l-4.3,62.08c-.04.64.17,1.26.61,1.73.44.47,1.04.73,1.68.73h27.04c.7,0,1.3-.4,1.57-1.04.27-.64.13-1.35-.37-1.84l-4.41-4.42c-.06-.06-.09-.16-.07-.25,1.68-8.41.68-71.16.2-101.31-.18-11.29-.25-16.03-.22-17.31l-30.22,1.78-2.18,5.7c-1.76,4.61-2.98,9.31-3.63,13.96-3.63,25.94-25.6,70.68-32.25,83.77-1.16,2.28-.82,5.01.87,6.94.04.05,3.96,4.72,5.38,6.15,5.29,5.31,10.97,7.89,17.38,7.89h1.45c.68,0,1.29-.34,1.64-.92.35-.58.38-1.28.07-1.88l-2.56-5.02c-.04-.09-.04-.19.01-.27,6.34-9.82,21.62-56.09,21.77-56.55.04-.11.14-.19.26-.19Z"/>
      </g>
      <path d="M51.07,150.14s-.05,0-.07,0c-.15-.04-.24-.19-.2-.33l9.29-36.09c.16-.62.36-1.39.87-1.94.53-.57,1.51-.86,2.18-.34.12.09.14.27.05.39-.09.12-.27.14-.39.05-.41-.32-1.08-.12-1.44.28-.42.45-.59,1.12-.74,1.7l-9.29,36.09c-.03.12-.14.21-.27.21Z"/>
      <path d="M26.49,208.21s-.05,0-.08-.01c-7.72-2.35-14.66-6.75-20.08-12.72-.1-.11-.09-.29.02-.39.11-.1.29-.09.39.02,5.35,5.9,12.21,10.25,19.83,12.57.15.04.23.2.18.34-.04.12-.14.19-.26.19Z"/>
      <path d="M47.13,211.81c-.15,0-.27-.12-.27-.27,0-.15.12-.28.27-.28,8-.18,16.05-.96,23.93-2.31.15-.03.29.07.32.22.03.15-.07.29-.22.32-7.91,1.36-15.99,2.14-24.02,2.32,0,0,0,0,0,0Z"/>
    </g>
    <g>
      <path class="cls-4" d="M80.96,78.4s11.37,39.89,13.16,44.45c1.79,4.56,4.63,6.75,3.68,9.6-.95,2.86-10.09,2.49-12.13-2.22-2.05-4.71-16.93-48.64-17.03-48.91-1.5-4.1,12.32-2.91,12.32-2.91Z"/>
      <path d="M93.51,134.53c-3.19,0-6.87-1.4-8.09-4.2-1.19-2.75-6.9-19.12-16.5-47.35-.33-.98-.52-1.54-.54-1.58-.23-.62-.16-1.18.2-1.66,1.91-2.49,11.97-1.66,12.4-1.63.11,0,.21.09.24.2.11.4,11.39,39.93,13.15,44.42.65,1.67,1.45,3.01,2.15,4.2,1.21,2.05,2.17,3.67,1.53,5.59-.38,1.15-1.91,1.89-4.08,1.99-.16,0-.31.01-.47.01ZM76.94,78.51c-3.22,0-6.96.32-7.92,1.57-.25.32-.29.69-.13,1.13.01.03.15.43.54,1.59,12.12,35.64,15.65,45.4,16.48,47.3,1.18,2.72,4.94,4,8.03,3.86,1.91-.09,3.28-.7,3.59-1.61.56-1.68-.3-3.13-1.49-5.13-.71-1.21-1.52-2.57-2.19-4.28-1.71-4.36-12.28-41.35-13.12-44.29-.94-.07-2.31-.14-3.8-.14Z"/>
    </g>
    <g>
      <g>
        <path class="cls-4" d="M72.33,82.21l9.8-2.71s-3.58-17.94-7.86-21.56c-4.28-3.62-17.04-2.54-19.79-2.49-2.76.06-17.36,1.61-19.75,4.38-3.78,4.39-6.74,24.66-6.74,24.66l11.32,1.07-1.15,10.93s25.24.7,35.1-3.64l-.93-10.64Z"/>
        <path d="M41.85,96.8c-2.25,0-3.65-.04-3.71-.04-.08,0-.15-.04-.2-.09-.05-.06-.07-.13-.07-.21l1.13-10.65-11.04-1.05c-.07,0-.14-.04-.19-.1-.05-.06-.07-.13-.06-.21.12-.83,3.01-20.4,6.8-24.8,2.54-2.95,17.62-4.43,19.95-4.48.32,0,.78-.03,1.34-.05,4.42-.2,14.77-.67,18.63,2.6,4.3,3.64,7.81,20.98,7.95,21.72.03.14-.06.28-.2.32l-9.58,2.65.91,10.41c.01.12-.06.23-.16.28-7.53,3.31-24.1,3.7-31.51,3.7ZM38.46,96.22c2.84.06,25.27.38,34.51-3.55l-.91-10.44c-.01-.13.07-.25.2-.29l9.56-2.64c-.45-2.18-3.83-17.87-7.72-21.16-3.69-3.13-13.9-2.67-18.25-2.47-.57.03-1.03.05-1.36.05-3.08.06-17.28,1.65-19.55,4.29-3.44,4-6.25,21.76-6.63,24.23l11.03,1.05c.07,0,.14.04.19.1.05.06.07.13.06.2l-1.12,10.63Z"/>
      </g>
      <path d="M71.94,81.08c-.12,0-.24-.08-.27-.21l-2.02-8.32c-.04-.15.05-.3.2-.33.15-.04.3.05.33.2l2.02,8.32c.04.15-.05.3-.2.33-.02,0-.04,0-.07,0Z"/>
      <path d="M39.4,84.49s-.02,0-.03,0c-.15-.01-.26-.15-.25-.3l.96-9.91c.01-.15.15-.26.3-.25.15.01.26.15.25.3l-.96,9.91c-.01.14-.13.25-.27.25Z"/>
    </g>
    <g>
      <g>
        <g>
          <path d="M64.51,38.41c.88-.98,1.68-2.24,1.45-3.54-.24-1.37-1.79-2.36-3.14-2.02.67-.85,1.25-1.78,1.73-2.76-3.47-.61-7.14-.53-10.38.84-3.24,1.37-6,4.15-6.78,7.58-.33,1.43-.3,2.99.39,4.28.72,1.36,2.09,2.27,3.51,2.85,1.85.76,3.97,1.06,5.86.39,1.27-.45,2.4-1.4,3.01-2.62.15-.31.27-.64.35-.97.06-.24,0-.71.12-.92.15-.24.67-.43.9-.58.34-.22.67-.46.99-.71.72-.56,1.38-1.17,1.99-1.85Z"/>
          <path d="M61.3,38.19c-.08,0-.17-.04-.22-.11-.09-.12-.07-.29.05-.38.82-.62,1.48-1.43,1.91-2.37.06-.14.23-.2.36-.13.14.06.2.23.13.36-.47,1.01-1.19,1.91-2.08,2.58-.05.04-.11.05-.16.05Z"/>
        </g>
        <path class="cls-4" d="M60.69,55.25l-2-.2-.74-8.53s-3.33-9.09-6.95-1.08l-.22,9.92-1.6.55s2.76,3.73,8.26,2.35c1.63-.41,2.75-1.52,3.24-3.01Z"/>
        <path class="cls-3" d="M59.25,48.21s4.06,1.28,5.1,4.64c1.04,3.36,3.16,9.49,1.08,11.17s-5.36,2.05-7.13-2.15c-.98-2.32.3-7.08.3-7.08l-.39-4.82,1.04-1.77Z"/>
        <g>
          <g>
            <path class="cls-4" d="M60.96,38.12s-4.47,2.49-8.23,2.44c-.65,1.13-.87,2.29-.77,3.47,0,0-.71-.87-1.53-.48-.89.41-1.39,1.51-1.13,2.45.26.95,1.2,1.64,2.18,1.69.55.03,1.07,0,1.58-.41.82.94,1.74,4.67,6.56,3.45,2.95-.75,2.94-2.46,2.93-4.54,0-2.08-.08-5.29-1.59-8.08Z"/>
            <path d="M57.84,51.25c-2.76,0-3.89-1.95-4.55-3.08-.11-.19-.21-.37-.3-.51-.53.32-1.06.33-1.53.3-1.12-.05-2.14-.85-2.43-1.89-.3-1.09.26-2.31,1.28-2.78.53-.25,1.01-.09,1.35.12.01-1.05.29-2.06.83-3,.05-.09.14-.13.24-.14,3.65.04,8.05-2.38,8.09-2.41.06-.04.14-.04.21-.02.07.02.13.07.16.13,1.61,2.98,1.62,6.51,1.62,8.21v.03c0,2.04,0,3.98-3.14,4.77-.68.17-1.29.25-1.84.25ZM53.05,47.01c.08,0,.15.03.21.09.17.19.33.47.51.79.81,1.4,2.04,3.53,5.77,2.58,2.73-.69,2.73-2.18,2.73-4.24v-.03c0-1.61,0-4.9-1.43-7.71-.99.52-4.67,2.32-7.96,2.34-.54,1-.76,2.04-.66,3.18.01.12-.06.23-.17.28-.11.05-.24.01-.32-.08-.02-.03-.59-.69-1.21-.41-.77.35-1.2,1.31-.98,2.13.22.81,1.05,1.45,1.93,1.49.57.03.98-.02,1.39-.35.05-.04.11-.06.17-.06Z"/>
          </g>
          <path d="M52.44,46.36s-.07,0-.1-.02c-.48-.19-.92-.45-1.32-.78-.12-.1-.13-.27-.04-.39.1-.12.27-.13.39-.04.35.29.74.52,1.17.69.14.06.21.21.16.36-.04.11-.15.17-.26.17Z"/>
        </g>
      </g>
      <path d="M59.26,47.21c-1.06.25-2.23.19-3.2-.31-1.31-.68-2.13-2.09-2.45-3.53-.17-.78-.22-1.57-.22-2.37,0-.5.16-1.37-.35-1.71-.91-.62-2.86,2.23-3.28,2.88,1.33,1.27,2.56,2.62,2.8,4.45.22,1.65-.02,3.49.99,4.81.57.74,1.47,1.18,2.39,1.34.92.16,1.87.05,2.78-.14,1.13-.24,2.3-.65,3.03-1.54.59-.72.68-1.45.69-2.37,0-.93.06-2.42-.15-3.32-.74,1.07-1.96,1.57-3.03,1.82Z"/>
    </g>
    <path class="cls-3" d="M50.49,49.48s1.25,9.03,2.2,10.77c1.72,3.15,1.58,5.49-1.23,6.4-4.07,1.32-6.3-1.74-7.02-4.07-1.83-6-.95-5.43-.95-5.43l-2.55.46s-2.75-2.06-3.08-5.42c-.62-6.22,3.06-10.39,3.06-10.39,0,0,6.04,6.41,9.58,7.66Z"/>
    <g>
      <g>
        <path class="cls-4" d="M52.09,38.05s1.3-.53,3.39-.3c2.09.23,1.54-1.3.86-1.54,0,0,1.54,0,1.34-1.11-.1-.59-1.01-.97-1.01-.97,0,0,1.09-.23,1.03-.97-.08-.87-1.67-.73-1.67-.73,0,0,.52-1.25-1.86-.84-1.78.31-3.44.99-3.98,1.38s.45,3.77,1.9,5.09Z"/>
        <path d="M52.09,38.32c-.07,0-.13-.02-.19-.07-1.27-1.17-2.2-3.81-2.13-4.92.02-.29.1-.49.26-.6.54-.38,2.21-1.1,4.09-1.42,1.06-.18,1.73-.08,2.05.32.13.16.18.34.18.51.15,0,.34.02.53.05.89.16,1.06.66,1.09.94.05.5-.28.84-.66,1.04.28.2.57.5.64.87.06.35-.01.65-.21.89-.2.24-.49.37-.75.44.19.26.29.59.22.91-.08.33-.41.87-1.75.73-1.99-.22-3.25.28-3.26.29-.03.01-.07.02-.1.02ZM55.01,31.77c-.21,0-.47.02-.8.08-1.72.3-3.35.96-3.86,1.33-.25.34.5,3.23,1.81,4.55.43-.14,1.63-.45,3.35-.26.66.07,1.1-.04,1.16-.31.06-.26-.19-.62-.42-.71-.13-.05-.2-.17-.18-.31.02-.13.14-.23.27-.23.19,0,.75-.07.98-.34.09-.11.12-.26.09-.44-.06-.36-.65-.68-.85-.77-.11-.05-.18-.16-.17-.28.01-.12.1-.22.22-.24,0,0,.85-.2.81-.67-.05-.57-1.36-.48-1.37-.48-.1,0-.19-.03-.25-.11-.06-.08-.07-.18-.03-.27,0,0,.08-.21-.03-.35-.06-.07-.23-.2-.73-.2Z"/>
      </g>
      <path class="cls-3" d="M50.66,32.21l2.28,6.28s-3.44,3.66-6.96,4.41c-3.52.75-5.34-.59-5.7-3.28-.37-2.69,6.45-6.24,10.38-7.41Z"/>
      <path d="M44.36,34.83c-.1,0-.21-.06-.25-.16-.06-.14,0-.3.14-.36l5.84-2.61c.14-.06.3,0,.36.14.06.14,0,.3-.14.36l-5.84,2.61s-.07.02-.11.02Z"/>
      <path d="M44.6,43.4c-.98,0-2.13-.24-3.27-1.01-.13-.09-.16-.26-.07-.38.09-.12.26-.16.38-.07,2.56,1.75,5.3.43,5.33.41.13-.07.3-.01.37.12.07.14.01.3-.12.37-.07.04-1.15.56-2.62.56Z"/>
    </g>
    <path d="M5.94,138.65s.03-.07.02-.11c-.11-1.32-.13-2.65-.08-3.97,0-.1-.07-.18-.15-.19-.09,0-.16.06-.17.16-.05,1.33-.02,2.68.08,4.02,0,.1.09.17.17.17.05,0,.1-.03.12-.07Z"/>
  </g>
</svg>