<?xml version="1.0" encoding="UTF-8"?>
<svg id="Capa_1" data-name="Capa 1" xmlns="http://www.w3.org/2000/svg" viewBox="0 0 218.53 218.53">
  <defs>
    <style>
      .cls-1 {
        fill: #fff;
      }

      .cls-2 {
        fill: #ecfeff;
      }

      .cls-3 {
        fill: #b3f7fe;
      }
    </style>
  </defs>
  <circle class="cls-2" cx="112.63" cy="114.2" r="94.17"/>
  <g>
    <g>
      <g>
        <g>
          <path class="cls-1" d="M63.87,211.99c.59,3.35,1.44,6.38,4.82,6.38h30.68c1.5,0,2.33-1.74,1.38-2.9l-6.36-7.1-1.5-7.35-29.23,7.35.2,3.62Z"/>
          <path d="M99.38,218.69h-29.78c-3.71,0-5.23-1.63-6.02-6.48-.15-.92-.22-3.72-.22-3.84,0-.18.14-.33.32-.33.18,0,.33.14.33.32,0,.03.07,2.87.22,3.75.82,5.04,2.39,5.93,5.38,5.93h29.78c.58,0,1.07-.31,1.32-.83.25-.52.18-1.1-.18-1.54l-6.34-7.08s-.06-.09-.08-.15l-1.41-6.47c-.04-.18.07-.35.25-.39.18-.04.35.07.39.25l1.4,6.38,6.3,7.03c.53.65.63,1.5.28,2.24-.35.74-1.08,1.2-1.9,1.2Z"/>
        </g>
        <path class="cls-1" d="M67.08,80.96l-28.07,1.92.05,8.87,9.45,11.99,14.51,106.15,30.28-8.48-18.96-114.72c-.58-3.49-3.72-5.97-7.25-5.73Z"/>
        <path d="M63.01,210.22c-.06,0-.12-.02-.18-.05-.08-.05-.13-.13-.14-.23l-14.5-106.06-9.39-11.92c-.04-.06-.07-.13-.07-.2l-.05-8.87c0-.17.13-.31.3-.33l28.07-1.92c3.72-.25,6.98,2.33,7.59,6l18.96,114.72c.03.16-.07.32-.23.36l-30.28,8.48s-.06.01-.09.01ZM39.38,91.64l9.38,11.9s.06.1.07.16l14.46,105.78,29.64-8.3-18.92-114.43c-.55-3.34-3.52-5.7-6.91-5.46l-27.77,1.9.04,8.45Z"/>
      </g>
      <g>
        <g>
          <path class="cls-1" d="M15.97,198.8c-4.4-4.6-8.79-10.54-10.67-17-.58.53-1.17,1.07-1.78,1.6-3.06,2.68-4.04,7.02-2.38,10.73,2.2,4.91,5.62,11.69,9.83,17.15,3.96,5.13,10.3,7.84,16.75,7.23l4.53-.42c.94-.09,1.38-1.22.73-1.91l-5.1-7.72s.02-.03.07-.08c-4.15-2.83-9.45-6.92-12-9.57Z"/>
          <path d="M25.92,218.92c-5.96,0-11.54-2.7-15.2-7.44-4.27-5.53-7.73-12.42-9.87-17.22-1.72-3.85-.73-8.31,2.46-11.11.13-.12.34-.1.46.03.12.13.1.34-.03.46-2.98,2.61-3.9,6.77-2.3,10.36,2.13,4.77,5.56,11.61,9.79,17.09,3.9,5.05,10.05,7.71,16.47,7.11l4.53-.42c.32-.03.57-.22.69-.52.11-.3.05-.61-.16-.85-.01-.01-.02-.03-.03-.04l-5.1-7.72c-.1-.15-.06-.35.09-.45.15-.1.35-.06.45.09l5.08,7.7c.37.41.47.98.28,1.5-.2.53-.67.88-1.23.94l-4.53.42c-.62.06-1.23.09-1.84.09Z"/>
        </g>
        <g>
          <path class="cls-1" d="M51.54,85.61l-3.11-8.4s-14.26,16.3-15.2,39.26c-.86,21.04-4.73,44.06-27.93,65.33,1.88,6.46,6.27,12.4,10.67,17,2.54,2.66,7.84,6.75,12,9.57,1.25-1.56,20.01-25.12,28.72-46.18,9.01-21.79,4.61-58.82,15.1-60.44l-20.25-16.15Z"/>
          <path d="M27.96,208.7c-.06,0-.13-.02-.18-.06-3.92-2.67-9.37-6.82-12.05-9.62-3.78-3.94-8.71-10.12-10.75-17.13-.03-.12,0-.25.09-.33,22.97-21.06,26.95-43.74,27.83-65.1.34-8.2,2.38-16.45,6.09-24.54.07-.16.27-.23.43-.16.16.07.23.27.16.43-3.67,8-5.7,16.18-6.03,24.29-.88,21.46-4.87,44.23-27.89,65.42,2.03,6.81,6.84,12.82,10.54,16.67,2.59,2.71,7.82,6.71,11.7,9.36,2.16-2.72,20.1-25.6,28.48-45.87,4-9.68,5.35-22.44,6.55-33.69,1.54-14.53,2.75-26.01,8.81-26.94.18-.03.34.09.37.27.03.18-.09.34-.27.37-5.56.86-6.81,12.68-8.26,26.37-1.2,11.3-2.55,24.1-6.59,33.87-8.77,21.21-27.95,45.25-28.76,46.26-.06.08-.16.12-.25.12Z"/>
        </g>
      </g>
    </g>
    <path d="M67.81,39.18c1.39-2.39,3.11-5.01,2.46-7.7-.76-3.16-4.59-4.72-7.81-4.23-3.22.49-6,2.42-8.8,4.06-13.2,7.73-29.12,9.86-42.24,17.72-3.26,1.96-6.4,4.33-8.42,7.56-2.02,3.22-2.77,7.44-1.16,10.88,1.3,2.8,4,4.78,6.91,5.79,2.92,1.01,6.06,1.16,9.15,1.08,12.88-.32,25.42-4.38,37.15-9.71,2.08-.94,4.19-1.96,5.81-3.58,3.02-3.01,1.71-6.41,2.47-10.12.85-4.13,2.36-8.12,4.48-11.77Z"/>
    <g>
      <g>
        <path class="cls-3" d="M32.67,55.42s10.24-5.56,18.46-2.16l20.63-2.74s13.34-11.84,27.71-5.66l2.01-.51,3.84,16.99-2.52.4s-9.84,12.96-24.54,8.09l-3.24,17.44s-18.72,8.3-37.41,4.15l.76-13.58s-11.07,3.77-19.37,1.27c-3.02-.91-3.49-4.32-3.4-7.47.08-3.12.56-7.4,2.06-12.4l14.3.8.71-4.62Z"/>
        <path class="cls-1" d="M103,61.45c-.15,0-.28-.1-.32-.26l-3.35-15.39c-.04-.18.07-.35.25-.39.18-.04.35.07.39.25l3.35,15.39c.04.18-.07.35-.25.39-.02,0-.05,0-.07,0Z"/>
        <path class="cls-1" d="M56.91,77.13c-2.27,0-4.54-.94-6.09-2.61-.12-.13-.12-.34.02-.46.13-.12.34-.12.46.02,1.8,1.92,4.62,2.8,7.2,2.23,2.57-.57,4.76-2.55,5.58-5.05.06-.17.24-.26.41-.21.17.06.26.24.21.41-.89,2.71-3.27,4.87-6.06,5.48-.56.12-1.14.19-1.72.19Z"/>
        <path class="cls-1" d="M70.61,73.14c-.43,0-.86-.04-1.29-.13-.18-.04-.29-.21-.25-.38.04-.17.21-.29.38-.25,2.36.51,5.01-.61,6.3-2.65,1.29-2.04,1.15-4.91-.32-6.82-.11-.14-.08-.34.06-.45.14-.11.34-.08.45.06,1.63,2.12,1.78,5.3.35,7.56-1.2,1.9-3.45,3.07-5.69,3.07Z"/>
        <path class="cls-1" d="M78.84,69.3s-.06,0-.09-.01c-.17-.05-.27-.23-.23-.4l.71-2.57c.05-.17.23-.27.4-.23.17.05.27.23.23.4l-.71,2.57c-.04.14-.17.24-.31.24Z"/>
        <path class="cls-1" d="M27.96,65.4c-3.16,0-6.74-.64-10.73-1.92-.17-.05-.26-.24-.21-.41.05-.17.24-.26.41-.21,7.29,2.34,13.18,2.51,17.49.5.16-.08.36,0,.43.16.08.16,0,.35-.16.43-2.07.97-4.49,1.45-7.23,1.45Z"/>
        <g>
          <path class="cls-1" d="M35.78,60.33c.37-1.45,4.79-23.43,5.7-27.99.15-.74.1-1.5-.16-2.21-.43-1.17-1.44-2.75-3.75-3.28-4.27-.98-3.76-.91-5.78-2.96-2.01-2.05-4.66-.89-.51,3.02,0,0-3.71,1.26-5.89-.89-.86-.84-1.62-1.27-2.24-1.49-.76-.26-1.47.5-1.15,1.23.29.67.77,1.45,1.56,2.02,0,0-2.19-.73-3.16-1.97-1.3-1.65-4.66-1.94-1.9,2.34,0,0-1.48-1.2-2.36-.49-.87.7,1.19,2.97,1.99,3.58,0,0-2.12-1.49-3.2-1.03-1.07.46-.28,2.48,3.1,4.59,3.38,2.11,7.39,3.74,7.39,3.74l-7.77,20.67c6.11,1.5,12.18,2.38,18.12,1.1Z"/>
          <path d="M17.66,59.56s-.08,0-.11-.02c-.17-.06-.25-.25-.19-.42l7.66-20.38c-.99-.42-4.31-1.87-7.15-3.64-2.37-1.48-3.78-3.12-3.69-4.27.03-.41.26-.73.64-.89.48-.21,1.1-.1,1.69.11-.48-.61-.89-1.31-.89-1.87,0-.31.11-.56.33-.74.51-.41,1.15-.33,1.68-.13-.82-1.63-.51-2.36-.05-2.69.82-.59,2.33.07,3.08,1.03.39.49.99.9,1.56,1.21-.19-.29-.36-.6-.51-.94-.2-.46-.11-.97.23-1.33.34-.37.85-.5,1.33-.34.8.27,1.59.8,2.37,1.56,1.55,1.52,3.97,1.2,5.03.95-1.39-1.41-2.05-2.61-1.84-3.42.09-.36.34-.61.71-.71.71-.19,1.7.22,2.51,1.05.24.24.44.45.62.64,1.3,1.36,1.33,1.39,5,2.23,2.43.56,3.51,2.2,3.98,3.48.28.75.34,1.57.17,2.38-.67,3.33-2.97,14.78-4.44,21.99-.04.18-.21.29-.38.25-.18-.04-.29-.21-.25-.38,1.48-7.22,3.78-18.66,4.44-21.99.14-.69.09-1.4-.15-2.03-.42-1.13-1.37-2.58-3.52-3.07-3.76-.86-3.91-.93-5.33-2.42-.18-.18-.38-.39-.61-.63-.71-.72-1.48-.99-1.88-.88-.18.05-.23.16-.25.24-.12.48.36,1.57,2.07,3.19.08.08.12.19.09.3-.02.11-.11.2-.21.24-.16.05-3.93,1.3-6.23-.97-.71-.69-1.42-1.17-2.12-1.41-.23-.08-.47-.02-.64.16-.16.18-.2.41-.11.63.35.81.84,1.44,1.46,1.89.13.09.17.27.1.41-.07.14-.24.21-.39.16-.09-.03-2.29-.77-3.31-2.07-.64-.81-1.78-1.2-2.2-.9-.32.23-.3,1.12.83,2.86.09.13.06.31-.06.42-.12.11-.3.11-.42.01-.01-.01-1.3-1.01-1.95-.49-.05.04-.09.09-.09.23,0,.74,1.35,2.29,2.07,2.85.14.11.17.31.06.45s-.3.18-.45.07c-.76-.54-2.22-1.28-2.88-1-.16.07-.23.17-.25.35-.05.71.98,2.16,3.39,3.67,3.31,2.07,7.3,3.7,7.34,3.72.16.07.24.25.18.41l-7.77,20.67c-.05.13-.17.21-.3.21Z"/>
          <path d="M23.35,34.22s-.07,0-.1-.02c-1.78-.58-3.46-1.43-4.98-2.51-.15-.1-.18-.31-.08-.45.1-.15.31-.18.45-.08,1.47,1.05,3.09,1.86,4.81,2.42.17.06.26.24.21.41-.04.14-.17.22-.31.22Z"/>
          <path d="M25.22,31.62s-.03,0-.05,0c-2.43-.35-4.78-1.43-6.63-3.04-.14-.12-.15-.32-.03-.46.12-.14.32-.15.46-.03,1.76,1.53,3.99,2.55,6.3,2.89.18.03.3.19.27.37-.02.16-.16.28-.32.28Z"/>
          <path d="M28.26,29.55s-.02,0-.03,0c-1.6-.16-3.18-.66-4.59-1.42-.16-.09-.22-.28-.13-.44.09-.16.28-.22.44-.13,1.33.73,2.84,1.19,4.35,1.35.18.02.31.18.29.36-.02.17-.16.29-.32.29Z"/>
          <path d="M32.48,33.63c-.07,0-.14-.02-.2-.07-.56-.43-.83-1.24-.72-2.16.04-.36.13-.7.22-1.03.08-.33.17-.65.2-.97.03-.26.08-1.13-.49-1.56-.14-.11-.17-.31-.07-.45.11-.14.31-.17.45-.07.57.42.85,1.23.74,2.15-.04.36-.13.71-.22,1.05-.08.33-.16.64-.2.95-.08.69.09,1.28.47,1.56.14.11.17.31.06.45-.06.08-.16.13-.26.13Z"/>
        </g>
        <path class="cls-1" d="M36,63.67s-.02,0-.03,0c-.18-.02-.31-.17-.29-.35l.21-2.27c.02-.18.17-.31.35-.29.18.02.31.17.29.35l-.21,2.27c-.02.17-.16.29-.32.29Z"/>
        <path class="cls-1" d="M38.9,71.93h0c-.18,0-.32-.15-.32-.33.05-2.48-.86-4.97-2.49-6.84-.12-.14-.1-.34.03-.46.14-.12.34-.1.46.03,1.73,1.99,2.7,4.64,2.65,7.28,0,.18-.15.32-.32.32Z"/>
      </g>
      <g>
        <path class="cls-1" d="M101.48,44.35l5.15-1.55,9.92-21.72s1.28-5.39,6.51-7.34c4.87-1.81,7.44-1.38,4.02,1.03-.61.43-1.12.99-1.49,1.63l-.27.46s12.82-7.36,15.1-4.3c0,0,3.41-.19,1.08,2.5,0,0,2.66.27-.28,2.7l-2.36,1.16s1.74-.69,3.05-.42c.62.13.74.95.19,1.25l-12.61,6.88-7.77,20.92c-2.47,6.64-8.04,11.64-14.9,13.39l-1.49.38-3.84-16.99Z"/>
        <path d="M105.32,61.66c-.14,0-.28-.1-.31-.24-.04-.17.06-.35.23-.39l1.49-.38c6.76-1.72,12.25-6.65,14.68-13.19l7.77-20.92c.03-.07.08-.13.15-.17l12.61-6.88c.2-.11.19-.3.18-.36,0-.06-.05-.25-.28-.3-1.19-.25-2.84.39-2.86.4-.16.06-.35-.01-.42-.17-.07-.16,0-.35.15-.42l2.32-1.14c1.28-1.07,1.26-1.56,1.22-1.68-.09-.29-.65-.41-.8-.42-.12-.01-.22-.09-.27-.2-.04-.11-.02-.24.06-.33.59-.68.84-1.23.7-1.52-.19-.39-1.1-.47-1.51-.45-.11,0-.21-.04-.28-.13-1.73-2.32-11.18,2.38-14.68,4.39-.13.07-.29.05-.39-.05-.1-.1-.12-.26-.05-.39l.27-.46c.39-.68.94-1.28,1.59-1.73,1.46-1.03,1.43-1.43,1.43-1.43-.11-.2-1.61-.35-5.15.96-5.01,1.86-6.3,7.06-6.31,7.11,0,.02-.01.04-.02.06l-9.92,21.72c-.04.09-.11.15-.2.18l-5.15,1.55c-.17.05-.35-.05-.4-.22-.05-.17.05-.35.22-.4l5.01-1.5,9.85-21.56c.13-.5,1.52-5.61,6.71-7.54,1.23-.46,5.31-1.86,5.95-.66.29.55-.23,1.27-1.63,2.26-.37.26-.7.57-.98.92,3.28-1.78,12.04-6.18,14.28-3.72.45,0,1.6.07,1.96.81.24.48.08,1.08-.46,1.82.32.12.69.34.81.75.19.64-.28,1.42-1.46,2.39-.02.02-.04.03-.06.04l-.13.06c.25,0,.5.02.74.07.42.09.72.42.79.84.06.42-.14.82-.51,1.02l-12.51,6.82-7.73,20.81c-2.5,6.74-8.16,11.82-15.13,13.59l-1.49.38s-.05.01-.08.01Z"/>
        <path d="M131.5,16.39c-.12,0-.24-.07-.29-.18-.08-.16-.01-.36.15-.43,2.36-1.14,5.96-2.66,8.98-3.52.17-.05.35.05.4.22.05.17-.05.35-.22.4-2.98.84-6.54,2.35-8.88,3.48-.05.02-.09.03-.14.03Z"/>
        <path d="M134.35,18.12c-.12,0-.24-.07-.29-.19-.08-.16,0-.35.16-.43,2.2-1.02,4.75-1.92,7.19-2.74.17-.06.35.03.41.2.06.17-.03.35-.2.41-2.42.82-4.95,1.71-7.12,2.72-.04.02-.09.03-.14.03Z"/>
        <path d="M135.54,20.42c-.13,0-.25-.08-.3-.21-.06-.17.02-.35.19-.42.48-.18,1.15-.41,1.79-.63.64-.22,1.3-.45,1.78-.63.17-.06.35.02.42.19.06.17-.02.35-.19.42-.48.18-1.15.41-1.79.63-.64.22-1.3.45-1.78.63-.04.01-.08.02-.11.02Z"/>
        <path d="M121.98,23.67c-.1,0-.19-.04-.25-.12-.11-.14-.09-.34.05-.46.95-.75,1.71-1.38,2.3-2.2.65-.92.92-1.96.74-2.84-.04-.18.07-.35.25-.38.18-.04.35.07.38.25.23,1.06-.08,2.28-.84,3.35-.68.96-1.65,1.73-2.43,2.34-.06.05-.13.07-.2.07Z"/>
      </g>
    </g>
    <g>
      <g>
        <path class="cls-1" d="M60.36,41.76l-1.49,10.06-4.94,1.02s4.02,5.89,12.64,5.23c8.62-.66,7.88-6.13.56-7.28l.69-6.22s-5.59-5.19-7.46-2.8Z"/>
        <path d="M66.76,53.79s-.02,0-.03,0c-.18-.02-.31-.18-.29-.35.03-.33.32-2.16.62-4.1.29-1.85.59-3.75.62-4.07.02-.18.18-.3.35-.29.18.02.31.18.29.35-.03.33-.32,2.17-.63,4.11-.29,1.84-.59,3.75-.62,4.07-.02.17-.16.29-.32.29Z"/>
      </g>
      <g>
        <path class="cls-1" d="M70.58,36.98c-.66-1.77-1.68-3.37-2.7-4.95-1.14,1.18-1.92,2.66-2.79,4.06-.86,1.4-1.87,2.79-3.29,3.62-.58.34-1.25.58-1.92.47-.54-.09-1.01-.41-1.5-.65s-1.06-.44-1.58-.26c-.5.17-.84.67-.91,1.18-.08.52.09,1.05.36,1.5.45.75,1.22,1.3,2.08,1.49.86.19,1.79.02,2.52-.46l-.16-.89c.47,1.35,1.3,2.59,2.47,3.42,1.16.83,2.67,1.2,4.06.88,1.84-.43,3.25-2.05,3.77-3.86.52-1.81.24-3.78-.42-5.54Z"/>
        <path d="M66.2,46.82c-1.11,0-2.26-.37-3.23-1.05-.84-.6-1.56-1.44-2.09-2.43-.78.47-1.73.62-2.62.42-.95-.21-1.78-.81-2.28-1.64-.34-.56-.48-1.17-.4-1.71.1-.68.54-1.24,1.13-1.44.52-.18,1.12-.09,1.83.28.11.06.22.12.34.18.36.2.71.38,1.07.45.5.08,1.07-.06,1.7-.43,1.4-.82,2.39-2.23,3.17-3.51.17-.27.33-.54.49-.81.68-1.14,1.39-2.32,2.34-3.31.07-.07.17-.11.27-.1.1,0,.19.06.24.15,1.01,1.58,2.06,3.21,2.73,5.02.53,1.43,1.04,3.59.42,5.74-.59,2.05-2.16,3.65-4.01,4.08-.36.08-.72.12-1.1.12ZM60.69,41.77c.13,0,.26.08.31.22.48,1.36,1.31,2.52,2.35,3.26,1.14.81,2.56,1.12,3.8.82,1.62-.38,3.01-1.81,3.53-3.63.57-1.99.09-4-.41-5.34h0c-.6-1.61-1.52-3.1-2.44-4.54-.76.87-1.38,1.89-1.97,2.89-.16.27-.33.55-.49.82-.83,1.34-1.88,2.84-3.4,3.73-.76.45-1.48.62-2.13.51-.47-.08-.88-.3-1.27-.52-.11-.06-.21-.12-.32-.17-.55-.28-.98-.36-1.33-.24-.36.12-.64.49-.7.92-.06.4.05.85.31,1.29.41.67,1.1,1.17,1.87,1.35.7.16,1.46.04,2.09-.31l-.12-.67c-.03-.17.07-.33.24-.37.03,0,.05-.01.08-.01Z"/>
      </g>
    </g>
  </g>
  <g>
    <g>
      <g>
        <g>
          <ellipse class="cls-1" cx="141.38" cy="181.35" rx="8.24" ry="33.97"/>
          <path d="M141.38,215.58c-4.77,0-8.5-15.04-8.5-34.23s3.74-34.23,8.5-34.23,8.5,15.04,8.5,34.23-3.74,34.23-8.5,34.23ZM141.38,147.64c-4.33,0-7.98,15.44-7.98,33.71s3.66,33.71,7.98,33.71,7.98-15.44,7.98-33.71-3.66-33.71-7.98-33.71Z"/>
        </g>
        <path class="cls-3" d="M142.91,181.35c0,2.54-.69,4.59-1.53,4.59s-1.53-2.06-1.53-4.59.69-4.59,1.53-4.59,1.53,2.06,1.53,4.59Z"/>
      </g>
      <g>
        <g>
          <path class="cls-1" d="M192.46,155.53l3.96-35.21c.34-2.99-2.01-5.61-5.02-5.61h-37.98c-2.49,0-4.61,1.82-4.99,4.29l-5.62,36.78,49.65-.24Z"/>
          <path d="M142.8,156.04c-.08,0-.15-.03-.2-.09-.05-.06-.07-.13-.06-.21l5.62-36.78c.4-2.61,2.61-4.51,5.25-4.51h37.98c1.51,0,2.95.65,3.96,1.77,1.01,1.13,1.49,2.63,1.32,4.13l-3.96,35.21c-.01.13-.13.23-.26.23l-49.65.24h0ZM192.46,155.53h0,0ZM153.42,114.97c-2.38,0-4.37,1.71-4.73,4.06l-5.58,36.48,49.12-.24,3.93-34.98c.15-1.35-.28-2.71-1.19-3.73-.91-1.01-2.21-1.6-3.57-1.6h-37.98Z"/>
        </g>
        <g>
          <path class="cls-1" d="M192.34,117.06s1.53.59,1.53,2.35l-1.53-2.35Z"/>
          <path d="M193.87,119.67c-.14,0-.26-.12-.26-.26,0-1.55-1.3-2.08-1.36-2.11-.13-.05-.2-.2-.15-.34.05-.13.2-.2.34-.15.07.03,1.69.67,1.69,2.59,0,.14-.12.26-.26.26Z"/>
        </g>
        <path d="M190.93,146.34s-.02,0-.03,0c-.14-.02-.25-.15-.23-.29l2.82-24.55c.02-.14.15-.25.29-.23.14.02.25.15.23.29l-2.82,24.55c-.02.13-.13.23-.26.23Z"/>
      </g>
      <path d="M183.37,153.89h4.36l-1.36,4.96h-46.48s-.1-2.6.49-3.73c.59-1.12,2.57-.96,4.6-.96s38.39-.34,38.39-.28Z"/>
      <g>
        <g>
          <g>
            <ellipse class="cls-1" cx="192.79" cy="181.35" rx="8.24" ry="33.97"/>
            <path d="M192.79,215.58c-4.77,0-8.5-15.04-8.5-34.23s3.74-34.23,8.5-34.23,8.5,15.04,8.5,34.23-3.74,34.23-8.5,34.23ZM192.79,147.64c-4.33,0-7.98,15.44-7.98,33.71s3.66,33.71,7.98,33.71,7.98-15.44,7.98-33.71-3.66-33.71-7.98-33.71Z"/>
          </g>
          <ellipse class="cls-3" cx="192.79" cy="181.35" rx="1.53" ry="4.59"/>
        </g>
        <path d="M182.07,196.62h-45.29c-.14,0-.26-.12-.26-.26v-2.05c0-.14.12-.26.26-.26h2.05c.14,0,.26.12.26.26s-.12.26-.26.26h-1.79v1.53h44.77v-27.52c0-1.48,1.2-2.68,2.68-2.68h.97c.14,0,.26.12.26.26s-.12.26-.26.26h-.97c-1.19,0-2.15.97-2.15,2.15v27.78c0,.14-.12.26-.26.26Z"/>
      </g>
    </g>
    <g id="Kids_fashion" data-name="Kids fashion">
      <g>
        <g>
          <g>
            <path class="cls-1" d="M151.06,138.49l31.82,1.5-3.89-14.95,8.04-3.69s-6.54-11.23-22.88-11.3c-13.86-.05-19.9,7.31-22.29,10.82l7.94,6.81,1.26,10.8Z"/>
            <path d="M182.88,140.25s0,0-.01,0l-31.82-1.5c-.13,0-.23-.1-.25-.23l-1.25-10.7-7.86-6.74c-.1-.09-.12-.24-.05-.35,4.92-7.26,12.44-10.94,22.35-10.94.05,0,.1,0,.15,0,8.52.03,14.34,3.13,17.73,5.73,3.68,2.82,5.31,5.58,5.38,5.7.04.06.05.14.02.21-.02.07-.07.13-.14.16l-7.84,3.59,3.84,14.74c.02.08,0,.17-.05.23-.05.06-.12.1-.2.1ZM151.29,138.24l31.25,1.48-3.8-14.61c-.03-.12.03-.25.14-.3l7.77-3.56c-1.08-1.63-7.84-10.87-22.5-10.92-9.71-.04-17.09,3.5-21.94,10.52l7.76,6.66s.08.1.09.17l1.23,10.58Z"/>
          </g>
          <g>
            <g>
              <path class="cls-1" d="M139.28,192.42l2.34-3.26.43-16.3c11.44-4.33,19.04-3.5,36.54,0l2.05,17.5c.44,2.03-1.09,3.94-3.16,3.94h-37.24c-.97,0-1.53-1.1-.96-1.89Z"/>
              <path d="M177.48,194.57h-37.24c-.55,0-1.04-.3-1.29-.79-.25-.49-.21-1.07.11-1.51l2.29-3.19.43-16.21c0-.11.07-.2.17-.24,11.6-4.39,19.28-3.49,36.68-.01.11.02.2.11.21.23l2.05,17.5c.22,1.02-.03,2.1-.7,2.93-.67.83-1.66,1.3-2.72,1.3ZM142.3,173.05l-.43,16.12c0,.05-.02.1-.05.15l-2.34,3.26h0c-.21.29-.24.65-.07.97.16.32.47.5.82.5h37.24c.9,0,1.75-.4,2.31-1.11.57-.71.79-1.63.59-2.52l-2.04-17.33c-17.09-3.41-24.7-4.29-36.05-.04ZM139.28,192.42h0,0Z"/>
            </g>
            <g>
              <path class="cls-3" d="M150.03,134.45c.85,0,1.55-.65,1.62-1.5.52-6.5,1.62-11.12,1.62-11.12h19.3s.95,6.44,1.21,10.96c.05.94.83,1.68,1.77,1.7,1.9.04,4.71.08,4.71.08l3.1,19.31-1.37.45c-2.76.91-4.55,3.59-4.33,6.49l.91,12.03h-36.54l1.13-12.12c.39-4.21,2.06-8.21,4.78-11.45l.53-.64,1.54-14.2Z"/>
              <path class="cls-3" d="M178.87,173.12h-37.11l1.16-12.41c.4-4.29,2.07-8.3,4.84-11.6l.48-.58,1.56-14.36h.23c.71,0,1.31-.55,1.36-1.26.51-6.44,1.62-11.11,1.63-11.16l.05-.2h19.74l.03.22c0,.06.96,6.5,1.21,10.99.05.8.71,1.44,1.51,1.46,1.9.04,4.71.08,4.71.08h.22s3.17,19.75,3.17,19.75l-1.58.52c-2.65.88-4.36,3.44-4.15,6.22l.93,12.31ZM142.34,172.6h35.97l-.89-11.75c-.23-3.03,1.62-5.81,4.51-6.76l1.16-.38-3.03-18.87c-.7-.01-2.91-.04-4.49-.08-1.07-.02-1.96-.88-2.03-1.95-.23-3.99-1.01-9.54-1.18-10.72h-18.87c-.21.96-1.12,5.23-1.57,10.88-.07.89-.77,1.61-1.65,1.72l-1.52,14.06-.58.7c-2.7,3.22-4.33,7.13-4.72,11.31l-1.11,11.84Z"/>
            </g>
            <path class="cls-3" d="M171.94,122.33c-.14,0-.25-.11-.26-.25-.32-6.1,1.22-10.19,1.23-10.23.05-.13.2-.2.34-.15.13.05.2.2.15.34-.02.04-1.51,4.04-1.2,10.02,0,.14-.1.27-.25.27,0,0,0,0-.01,0Z"/>
            <path class="cls-3" d="M154.23,121.9c-.14,0-.25-.11-.26-.25-.32-6.11,1.41-9.86,1.49-10.02.06-.13.22-.19.35-.12.13.06.19.22.13.35-.02.04-1.75,3.8-1.44,9.77,0,.14-.1.27-.25.27,0,0,0,0-.01,0Z"/>
            <path d="M178.79,189.78h-36.11c-.14,0-.26-.12-.26-.26s.12-.26.26-.26h36.11c.14,0,.26.12.26.26s-.12.26-.26.26Z"/>
            <path d="M159.91,194.57c-.14,0-.26-.11-.26-.25-.05-1.33-1.26-32.51-.54-37.55.74-5.19,3.35-5.81,3.47-5.83.14-.03.28.06.31.2.03.14-.06.28-.2.31-.04,0-2.38.61-3.06,5.4-.71,4.99.53,37.13.55,37.45,0,.14-.11.27-.25.27,0,0,0,0-.01,0Z"/>
          </g>
          <g>
            <g>
              <polygon class="cls-3" points="157.65 144.62 149.38 139.42 154.31 129.89 163.33 133.65 157.65 144.62"/>
              <polygon class="cls-3" points="163.19 146 157.64 144.61 163.32 133.64 167.42 137.82 163.19 146"/>
              <path class="cls-1" d="M157.96,144.21s-.08,0-.12-.03c-.13-.07-.18-.22-.11-.35l5.06-9.78c.07-.13.22-.18.35-.11.13.07.18.22.11.35l-5.06,9.78c-.05.09-.14.14-.23.14Z"/>
            </g>
            <g>
              <g>
                <path class="cls-1" d="M141.86,120.9l7.97,6.72-2.32,7.29s2.85.94,6.8,4c3.96,3.06,4.58,5.47.57,3.88,0,0,2.03,1.63,1.76,2.54s-2.4-.39-2.4-.39c0,0,1.01,1.4.13,1.81-.93.43-1.82-1.19-3.02-1.72,0,0,1.47,1.73.64,2.14-.83.41-3.05-1.79-4.67-2.36-1.63-.57-10.29-.55-11.59-4.68-2.03-6.45,6.13-19.22,6.13-19.22Z"/>
                <path d="M151.75,147.48c-.59,0-1.39-.53-2.35-1.18-.74-.5-1.51-1.02-2.17-1.25-.35-.12-1.12-.23-2.02-.35-3.25-.44-8.68-1.17-9.73-4.5-2.05-6.49,5.82-18.92,6.16-19.44.04-.06.11-.11.18-.12.07-.01.15.01.21.06l7.97,6.72c.08.07.11.18.08.28l-2.24,7.05c.77.3,3.3,1.38,6.64,3.96,1.96,1.51,3.85,3.48,3.29,4.45-.24.42-.85.51-1.81.27.56.59,1.12,1.37.94,1.97-.06.22-.2.37-.41.45-.43.17-1.09-.05-1.61-.29.1.28.16.59.09.86-.07.25-.23.44-.48.56-.72.33-1.37-.25-2-.81-.05-.05-.11-.1-.16-.14.14.31.23.62.17.89-.05.22-.18.39-.39.49-.11.05-.23.08-.35.08ZM141.92,121.29c-1.12,1.82-7.76,12.99-5.94,18.75.95,3.02,6.18,3.72,9.3,4.14.96.13,1.72.23,2.12.37.72.25,1.52.79,2.29,1.31.82.55,1.84,1.23,2.18,1.07.07-.03.09-.07.1-.12.07-.35-.44-1.15-.82-1.61-.08-.09-.08-.23-.01-.33.07-.1.2-.13.31-.08.51.23.97.63,1.37.99.64.57,1.05.9,1.43.73.11-.05.17-.12.19-.21.09-.33-.22-.91-.43-1.21-.07-.1-.06-.24.02-.33.08-.09.22-.11.33-.05.58.35,1.56.79,1.92.65.04-.02.08-.04.1-.11.15-.51-.89-1.63-1.68-2.26-.1-.08-.13-.22-.06-.34.07-.11.2-.16.32-.11,1.63.65,2.23.52,2.33.35.21-.37-.64-1.83-3.16-3.78-3.88-3-6.7-3.95-6.72-3.96-.14-.04-.21-.19-.17-.33l2.26-7.13-7.61-6.41Z"/>
              </g>
              <path d="M144.87,135.18c-.11,0-.21-.06-.24-.17-.05-.14.02-.29.15-.34,1.15-.43,2.74-.04,2.8-.02.14.04.22.18.19.32-.04.14-.18.22-.32.19-.01,0-1.5-.37-2.49,0-.03.01-.06.02-.09.02Z"/>
              <path d="M154.83,143.01c-.06,0-.11-.02-.16-.05-.5-.39-1.05-.71-1.63-.97-.13-.06-.19-.21-.14-.34.06-.13.21-.19.34-.14.62.27,1.21.62,1.74,1.03.11.09.14.25.05.37-.05.07-.13.1-.21.1Z"/>
              <path d="M154.19,145.17c-.06,0-.13-.02-.18-.07-.5-.46-1.39-1.11-2.17-1.44-.13-.06-.19-.21-.14-.34.06-.13.21-.19.34-.14.84.36,1.77,1.03,2.32,1.54.11.1.11.26.01.37-.05.06-.12.08-.19.08Z"/>
            </g>
            <g>
              <path class="cls-1" d="M187.03,121.35l-10.28,4.36,1.39,4.35s-7.54-3.6-13.69-3.94c-6.15-.34-7.33,1.45-8.21,3.24-.88,1.79-.16,2.57.9,1.43,0,0-.96,2.75,1.51,1.43,0,0-.65,1.68,0,2.2.65.52,2.23-1.06,2.23-1.06,0,0-.97,1.96-.2,2.53.77.56,2.58-.95,2.58-.95,0,0,16.53,11.48,22.86,8.01,4.62-2.53,6.74-10.16.91-21.59Z"/>
              <path d="M161.09,136.27c-.21,0-.41-.05-.58-.17-.53-.39-.45-1.21-.26-1.88-.57.41-1.3.78-1.78.4-.52-.42-.41-1.32-.26-1.92-.54.2-.95.19-1.22-.05-.32-.27-.34-.76-.29-1.19-.34.18-.59.13-.73.06-.15-.07-.49-.32-.38-1.08.02-.14.15-.24.29-.22.14.02.24.15.22.29-.04.32.02.5.09.53.09.04.36-.04.73-.44.08-.09.22-.11.33-.05.11.06.15.19.11.31-.15.44-.27,1.18-.04,1.38.08.07.35.18,1.18-.27.1-.05.21-.04.3.03.08.07.11.19.07.29-.19.49-.46,1.6-.08,1.9.3.24,1.29-.45,1.88-1.04.09-.09.23-.1.34-.03.1.07.14.21.08.33-.28.58-.73,1.87-.28,2.2.46.33,1.72-.49,2.26-.94.11-.09.28-.08.37.03.09.11.08.28-.03.37-.16.14-1.39,1.14-2.33,1.14Z"/>
              <path d="M183.15,143.85c-.29,0-.59-.01-.91-.04-.14-.01-.25-.14-.24-.28.01-.14.14-.25.28-.24,1.52.13,2.77-.07,3.7-.58,4.49-2.46,6.5-9.91.91-21.02l-9.83,4.17,1.31,4.12c.03.1,0,.21-.08.28-.08.07-.19.08-.28.04-.02,0-1.81-.86-4.31-1.76-.14-.05-.21-.2-.16-.33.05-.14.2-.21.33-.16,1.71.62,3.1,1.21,3.82,1.53l-1.21-3.79c-.04-.13.02-.27.15-.32l10.28-4.36c.13-.05.27,0,.33.12,5.88,11.55,3.73,19.34-1.02,21.94-.83.46-1.87.68-3.09.68Z"/>
              <path d="M185.35,133.92s-.1-.01-.14-.04c-1.41-.94-7.12-3.55-7.18-3.58-.13-.06-.19-.22-.13-.35.06-.13.21-.19.35-.13.24.11,5.81,2.66,7.25,3.62.12.08.15.24.07.36-.05.08-.13.12-.22.12Z"/>
              <path d="M157.13,131.05s-.08,0-.12-.03c-.13-.07-.18-.22-.11-.35.04-.07.88-1.67,2.19-2.47.12-.08.28-.04.36.09.08.12.04.28-.09.36-1.18.73-1.99,2.25-2,2.27-.05.09-.14.14-.23.14Z"/>
              <path d="M158.69,132.51s-.09-.01-.13-.03c-.13-.07-.17-.23-.1-.36.61-1.09,1.48-2.03,2.52-2.71.12-.08.28-.05.36.08.08.12.05.28-.08.36-.97.64-1.79,1.51-2.35,2.53-.05.09-.14.13-.23.13Z"/>
              <path d="M160.76,133.7s-.1-.01-.14-.04c-.12-.08-.16-.24-.08-.36.57-.9,1.36-1.65,2.29-2.18.13-.07.28-.03.36.1.07.13.03.29-.1.36-.85.49-1.58,1.18-2.11,2-.05.08-.13.12-.22.12Z"/>
            </g>
          </g>
        </g>
        <g>
          <g>
            <path class="cls-1" d="M159.93,109.35c-.13.16.4,3.8.4,3.8,0,0-.14,1.9,2.6,1.96,2.73.06,5.15-2.69,5.15-2.69l-.54-7.43-7.6,4.36Z"/>
            <path d="M163.02,115.37s-.07,0-.1,0c-1.05-.02-1.84-.31-2.33-.85-.51-.56-.53-1.2-.52-1.36-.54-3.73-.42-3.88-.34-3.97.02-.03.05-.05.07-.06l7.6-4.36c.08-.04.17-.05.25,0,.08.04.13.12.14.21l.54,7.43c0,.07-.02.14-.06.19-.1.11-2.47,2.78-5.25,2.78ZM160.17,109.51c0,.43.2,2.1.42,3.6,0,.02,0,.04,0,.06,0,.02-.03.55.39,1.01.39.43,1.05.66,1.95.68,2.33.06,4.46-2.08,4.87-2.52l-.5-6.9-7.13,4.09Z"/>
          </g>
          <g>
            <path d="M166.88,88.46s6.74-1.32,8.99,5.19c2.25,6.51-2.91,11.28-3.72,11.71-.81.43-17-4.99-17-4.99,0,0-1.3-5.96,1.84-10,3.14-4.04,7.3-4.73,9.89-1.91Z"/>
            <g>
              <g>
                <path class="cls-1" d="M165.1,96.73s1.2,5.45,6.11,7.04c0,0,1.17-3.79,3.07-1.91,1.89,1.88,0,6-3.84,4.84,0,0-3.71,5.48-9.34,3.89-5.63-1.58-6.72-6.03-5.69-8.74,0,0-2.09-.4-1.57-3.03.52-2.64,1.8-2.19,2.63-1.49,0,0,1.75-.61,2.32-2.25,0,0,1.8,2.83,6.33,1.64Z"/>
                <path d="M163.11,111.14c-.66,0-1.36-.09-2.09-.29-3.32-.93-4.84-2.75-5.53-4.12-.75-1.48-.91-3.22-.43-4.7-.31-.12-.8-.37-1.15-.9-.41-.61-.53-1.4-.34-2.36.24-1.22.68-1.96,1.3-2.17.49-.17,1.04-.02,1.62.43.4-.18,1.6-.79,2.03-2.03.03-.09.12-.16.22-.17.1-.01.2.03.25.12.07.11,1.77,2.65,6.04,1.53.07-.02.14,0,.2.03.06.04.1.1.12.17.01.05,1.19,5.14,5.69,6.77.22-.6.87-2.07,1.88-2.33.51-.13,1.03.06,1.53.56.96.95,1.09,2.51.32,3.79-.67,1.12-2.13,2.1-4.25,1.54-.58.77-3.36,4.14-7.43,4.14ZM155.28,97.06c-.08,0-.15.01-.23.04-.43.15-.76.77-.96,1.78-.46,2.34,1.29,2.71,1.36,2.73.08.02.14.06.18.13.04.07.04.15.02.22-.53,1.4-.41,3.1.32,4.54.64,1.27,2.07,2.97,5.2,3.85,5.38,1.51,9.02-3.74,9.06-3.79.06-.09.18-.14.29-.1,1.92.58,3.24-.27,3.82-1.25.64-1.08.54-2.37-.24-3.16-.37-.37-.71-.51-1.04-.43-.8.2-1.42,1.68-1.59,2.23-.02.07-.07.12-.13.15-.06.03-.13.04-.2.02-4.37-1.42-5.89-5.85-6.21-6.97-3.49.83-5.39-.72-6.07-1.46-.72,1.43-2.24,1.97-2.31,2-.09.03-.19.01-.26-.05-.23-.19-.62-.48-1.01-.48Z"/>
              </g>
              <path d="M171.86,105.71s-.07,0-.11-.02c-.13-.06-.19-.21-.13-.35.26-.59.92-.98,1.57-.92.14.01.25.14.24.28-.01.14-.14.25-.28.24-.42-.04-.87.23-1.05.62-.04.1-.14.15-.24.15Z"/>
              <path d="M155.37,102.09s-.06,0-.09-.01c-.14-.05-.21-.2-.16-.33.39-1.13.69-2.3.87-3.48.02-.14.16-.24.3-.22.14.02.24.16.22.3-.19,1.21-.49,2.42-.9,3.58-.04.11-.14.18-.25.18Z"/>
              <path d="M155.13,100.69s-.04,0-.06,0c-.14-.03-.23-.17-.2-.31.1-.45-.07-.94-.42-1.23-.11-.09-.12-.26-.03-.37.09-.11.26-.12.37-.03.49.41.73,1.12.59,1.74-.03.12-.13.21-.26.21Z"/>
            </g>
          </g>
        </g>
      </g>
    </g>
  </g>
</svg>