<?xml version="1.0" encoding="UTF-8"?>
<svg id="Capa_1" data-name="Capa 1" xmlns="http://www.w3.org/2000/svg" viewBox="0 0 218.53 218.53">
  <defs>
    <style>
      .cls-1 {
        fill: #f6f3ff;
      }

      .cls-2 {
        fill: #fff;
      }

      .cls-3 {
        fill: #e9e6fd;
      }

      .cls-4 {
        fill: #cec4ff;
      }
    </style>
  </defs>
  <circle class="cls-1" cx="100.75" cy="97.77" r="94.17"/>
  <g>
    <g>
      <g>
        <path class="cls-2" d="M214.36,167.25l-5.69-6.11c-.33,2.1-.97,4.29-1.45,6.35-.9,3.85-1.89,7.6-3.58,11.18-1.37,2.89-2.56,5.21-4.58,7.7-.69.85-1.6,2.01-2.42,2.83l.53,5.58-2,2.19c-.61.67-.8,1.61-.49,2.46.35.97,1.28,1.61,2.31,1.59l14.06-.24,4.83-28.46c.31-1.84-.25-3.72-1.52-5.08Z"/>
        <path d="M196.94,201.3c-1.13,0-2.13-.71-2.52-1.77-.34-.95-.13-1.99.54-2.73l1.92-2.11-.49-5.15c-.01-.15.09-.28.24-.29.15-.01.28.09.29.24l.5,5.27c0,.08-.02.15-.07.21l-2,2.19c-.54.59-.71,1.43-.43,2.19.31.86,1.15,1.43,2.05,1.42l13.84-.24,4.8-28.24c.3-1.75-.25-3.56-1.45-4.85l-5.45-5.86c-.1-.11-.09-.28.01-.38.11-.1.28-.09.38.01l5.45,5.86c1.32,1.41,1.91,3.4,1.59,5.31l-4.83,28.46c-.02.13-.13.22-.26.22l-14.06.24s-.03,0-.05,0Z"/>
        <path d="M204.64,195.05h-7.48c-.15,0-.27-.12-.27-.27s.12-.27.27-.27h7.48c.15,0,.27.12.27.27s-.12.27-.27.27Z"/>
      </g>
      <g>
        <path class="cls-2" d="M139.14,195.91l-7.35,5.34c-.85.49-1.58,1.13-1.64,2.11-.1,1.67.7,3.49,2.87,3.49l27.43.22c3.4,0,6.1-2.85,5.95-6.25l-.34-4.59-.64-3.52-25.07.5-1.15,2.43-.06.27Z"/>
        <path d="M160.45,207.34l-27.44-.22c-.9,0-1.67-.31-2.22-.89-.64-.68-.98-1.73-.91-2.88.07-1.21,1.03-1.9,1.76-2.32l7.34-5.33c.12-.09.29-.06.37.06.09.12.06.29-.06.37l-7.35,5.34s-.02.01-.02.02c-.98.56-1.46,1.17-1.5,1.89-.06,1,.22,1.91.76,2.48.45.48,1.07.72,1.84.72l27.44.22c1.56,0,3.02-.62,4.1-1.76,1.09-1.14,1.65-2.64,1.57-4.21l-.34-4.58c-.01-.15.1-.28.25-.29.15-.01.28.1.29.25l.34,4.59c.08,1.73-.53,3.37-1.72,4.61-1.18,1.24-2.78,1.92-4.49,1.92Z"/>
      </g>
      <path class="cls-3" d="M179.75,130.07l-12.52-39.32-13.33-5.73-15.18,10.27.48,100.36c1.27.46,2.58.81,3.9,1.09,1.84.39,3.71.66,5.58.81,2.55.21,5.11.2,7.66.03,2.9-.2,5.79-.61,8.61-1.33.36-.09.73-.19,1.09-.29l-3.3-45,33.89,38.09.02.16c1.17-1.03,2.17-2.26,3.04-3.46,1.8-2.49,3.23-5.24,4.5-8.03,1.73-3.81,2.95-7.87,3.77-11.97.3-1.53.54-3.06.73-4.61l-28.92-31.07Z"/>
      <path d="M162.81,151.65c-.08,0-.16-.04-.21-.11-.14-.18-3.37-4.49-4.32-6.26-.96-1.78-7.12-22.06-7.38-22.92-.04-.14.04-.29.18-.33.14-.04.29.04.33.18.06.21,6.41,21.09,7.34,22.82.93,1.74,4.25,6.15,4.28,6.19.09.12.06.29-.05.37-.05.04-.1.05-.16.05Z"/>
    </g>
    <g>
      <g>
        <g>
          <path class="cls-2" d="M27.26,85.16L.91,202.56c-.82,3.78,2.06,7.35,5.93,7.35h29.81c1.04,0,1.94-.73,2.16-1.75.15-.7-.05-1.43-.54-1.96l-8.85-9.6,13.72-65.33,6.14,15.56-14.35,35.2c-1,2.46-.29,5.28,1.76,6.97l24.46,19.14c.69.54,1.64.62,2.42.2l.16-.09c.98-.53,1.41-1.71,1-2.75l-5.83-14.84,15.21-37.77c1.96-4.86,2.26-10.23.87-15.28l-13.44-42.2-34.28-10.25Z"/>
          <path d="M36.64,210.17H6.84c-1.92,0-3.72-.86-4.93-2.36-1.21-1.5-1.67-3.44-1.26-5.32l26.35-117.4c.02-.07.06-.13.13-.17.06-.04.14-.05.21-.03l34.28,10.25c.08.03.15.09.18.17l13.44,42.2c1.4,5.09,1.09,10.57-.88,15.46l-15.17,37.67,5.79,14.74c.46,1.16-.03,2.49-1.13,3.08l-.16.09c-.87.47-1.93.38-2.71-.23l-24.46-19.14c-2.15-1.78-2.89-4.7-1.84-7.28l14.31-35.1-5.78-14.64-13.51,64.32,8.76,9.5c.54.59.77,1.41.6,2.2-.24,1.14-1.26,1.96-2.42,1.96ZM27.46,85.5L1.17,202.61c-.37,1.72.05,3.49,1.15,4.87,1.11,1.37,2.75,2.16,4.51,2.16h29.81c.91,0,1.71-.65,1.9-1.54.13-.62-.04-1.26-.47-1.72l-8.85-9.6c-.06-.06-.08-.15-.07-.24l13.72-65.33c.02-.12.12-.2.24-.21.12,0,.23.06.27.17l6.14,15.56c.03.06.03.14,0,.2l-14.35,35.2c-.96,2.36-.29,5.04,1.68,6.66l24.46,19.13c.61.48,1.44.55,2.12.18l.16-.09c.86-.47,1.24-1.51.88-2.42l-5.83-14.84c-.03-.06-.02-.13,0-.2l15.21-37.77c1.92-4.78,2.23-10.14.86-15.1l-13.4-42.06-33.87-10.13Z"/>
        </g>
        <path d="M43.14,131.54s-.04,0-.07,0c-.14-.04-.23-.18-.19-.33,1.48-5.77,4-15.48,4.17-15.75.19-.28,1.42-1.01,1.93-1.31.13-.07.29-.03.37.1.07.13.03.29-.1.37-.74.43-1.6.97-1.75,1.14-.23.62-2.57,9.62-4.11,15.59-.03.12-.14.2-.26.2Z"/>
        <path d="M58.91,190.92s-.05,0-.07,0c-.12-.03-12.28-3.3-20.39-11.66-.1-.11-.1-.28,0-.38.11-.1.28-.1.38,0,8,8.26,20.02,11.49,20.14,11.52.14.04.23.18.19.33-.03.12-.14.2-.26.2Z"/>
        <path d="M29.42,196.86H4.08c-.15,0-.27-.12-.27-.27s.12-.27.27-.27h25.34c.15,0,.27.12.27.27s-.12.27-.27.27Z"/>
      </g>
      <g>
        <path class="cls-4" d="M77,54.34s-5.04-4.83-10.77-5.78c-5.73-.96-16.26,2.25-22.67,8.66-6.42,6.42-17.21,28.11-17.21,28.11l36.72,15.29,7.87-10.41,25.85,15.19,15.02-3.41-24.13-21.42s-5.48-17.67-6.23-19.91c-1.09-3.28-4.46-6.33-4.46-6.33Z"/>
        <path class="cls-4" d="M82.7,106.66l-20.31-21.46s1.5-15.7.14-23.62-7.24-8.19-10.92-7.1c-3.69,1.09-7.51,5.46-9.15,10.38-1.03,3.1-1.85,13.31-2.31,20.43-.29,4.47,1.87,8.75,5.64,11.18l26.61,15.4,11.02-3.74-.71-1.47Z"/>
        <path d="M68.87,92.03c-.07,0-.14-.03-.19-.08l-6.48-6.57c-.06-.06-.08-.13-.08-.21.01-.16,1.48-15.76.14-23.55-.52-3.01-1.74-5.13-3.62-6.3-2.6-1.62-5.73-.95-6.96-.59-.14.04-.29-.04-.33-.18-.04-.14.04-.29.18-.33,1.29-.38,4.6-1.09,7.39.64,2.02,1.26,3.32,3.5,3.87,6.67,1.29,7.49.01,22.06-.12,23.56l6.4,6.48c.1.11.1.27,0,.38-.05.05-.12.08-.19.08Z"/>
        <path d="M41.16,91.31c-.1,0-.2-.06-.25-.16-.81-1.84-1.17-3.87-1.04-5.88.5-7.66,1.3-17.44,2.32-20.5.05-.14.2-.22.34-.17.14.05.22.2.17.34-.78,2.35-1.6,9.58-2.3,20.37-.12,1.92.22,3.87.99,5.63.06.14,0,.29-.14.35-.03.02-.07.02-.11.02Z"/>
        <path d="M70.94,90.47s-.09-.01-.14-.04c-.13-.08-.17-.24-.09-.37.1-.18,10.49-17.73,11.55-25.88.02-.15.15-.25.3-.23.15.02.25.15.23.3-1.08,8.26-11.19,25.36-11.62,26.08-.05.08-.14.13-.23.13Z"/>
        <path d="M63.21,69.94s-.08,0-.12-.03c-.13-.06-.19-.22-.12-.36.04-.08,4.09-8.47,5.43-12.89,1.32-4.35.21-7.08.2-7.11-.06-.14,0-.29.14-.35.14-.06.29,0,.35.14.05.12,1.19,2.94-.18,7.47-1.35,4.46-5.42,12.88-5.46,12.96-.05.1-.14.15-.24.15Z"/>
        <path d="M75.81,69.21s-.06,0-.09-.02c-.11-.04-.18-.14-.18-.26l.17-5.69c-.77.4-2.69,1.56-4.4,2.65-.08.05-.19.06-.28,0-.09-.05-.14-.14-.13-.24l.64-14.84c0-.15.13-.26.28-.26.15,0,.26.13.26.28l-.62,14.33c1.97-1.24,4.2-2.59,4.53-2.59.07,0,.14.03.19.08s.08.12.08.19l-.16,5.29,5.23-6.64c.09-.12.26-.14.38-.04.12.09.14.26.04.38l-5.73,7.28c-.05.07-.13.1-.21.1Z"/>
        <path d="M87.68,80.84c-.06,0-.12-.02-.17-.06l-3.04-2.43c-.12-.09-.13-.26-.04-.38.09-.12.26-.13.38-.04l3.04,2.43c.12.09.13.26.04.38-.05.07-.13.1-.21.1Z"/>
      </g>
      <g>
        <g>
          <g>
            <ellipse class="cls-2" cx="131.74" cy="205.87" rx="3.57" ry="7.66"/>
            <path d="M131.74,213.8c-2.15,0-3.84-3.48-3.84-7.93s1.69-7.93,3.84-7.93,3.84,3.48,3.84,7.93-1.69,7.93-3.84,7.93ZM131.74,198.48c-1.79,0-3.3,3.39-3.3,7.39s1.51,7.39,3.3,7.39,3.3-3.39,3.3-7.39-1.51-7.39-3.3-7.39Z"/>
          </g>
          <path d="M131.49,212.42c-.15,0-.27-.12-.27-.27s.12-.27.27-.27c1.09,0,2.26-2.42,2.26-6.01s-1.17-6.01-2.26-6.01c-.15,0-.27-.12-.27-.27s.12-.27.27-.27c1.57,0,2.8,2.88,2.8,6.55s-1.23,6.55-2.8,6.55Z"/>
          <path d="M131.69,206.05c-.15,0-.27-.12-.27-.27v-.28c0-.15.12-.27.27-.27s.27.12.27.27v.28c0,.15-.12.27-.27.27Z"/>
        </g>
        <path d="M128.71,174.18s-.05,0-.07,0l-39.98-10.47c-.14-.04-.23-.18-.19-.33.04-.14.18-.23.33-.19l39.98,10.47c.14.04.23.18.19.33-.03.12-.14.2-.26.2Z"/>
        <path d="M124.26,123.4s-.04,0-.06,0l-31.86-7.78c-.14-.04-.23-.18-.2-.32.03-.14.18-.23.32-.2l31.86,7.78c.14.04.23.18.2.32-.03.12-.14.2-.26.2Z"/>
        <path d="M84.28,207.06s-.08,0-.13,0c-.81-.07-1.41-.78-1.34-1.59l7.89-91.97c.31-3.83,2.27-7.34,5.37-9.62,3.11-2.28,7.04-3.09,10.79-2.23l7.9,1.81c5.64,1.29,9.75,6.03,10.25,11.79l8.03,89.6c.07.81-.52,1.52-1.33,1.6-.81.07-1.52-.52-1.6-1.33l-8.03-89.6c-.38-4.49-3.59-8.17-7.97-9.18l-7.9-1.81c-2.92-.67-5.98-.04-8.4,1.74-2.42,1.77-3.94,4.5-4.18,7.49l-7.89,91.98c-.07.77-.71,1.34-1.46,1.34Z"/>
      </g>
      <g>
        <g>
          <path class="cls-2" d="M103.27,101.61s1.65-2.72,3.92-2.44c3.52.44,5.83.71,6.76,1.36.94.65,1.72,3.55,1.14,3.98-.58.43-2.31.22-2.81-1.66l-9.01-1.24Z"/>
          <path d="M114.41,104.97c-.23,0-.48-.04-.72-.12-.45-.16-1.24-.59-1.62-1.75l-8.84-1.22c-.15-.02-.25-.16-.23-.3.02-.15.15-.25.3-.23l9.01,1.24c.11.01.19.09.22.2.28,1.05.95,1.43,1.32,1.56.46.16.88.1,1.07-.04.03-.02.1-.15.09-.49-.02-.98-.61-2.63-1.22-3.05-.76-.53-2.62-.8-4.97-1.1-.15-.02-.25-.15-.23-.3.02-.15.15-.25.3-.23,2.9.37,4.42.65,5.2,1.19.84.58,1.43,2.48,1.45,3.48,0,.46-.09.77-.3.93-.21.16-.51.24-.84.24Z"/>
        </g>
        <g>
          <path class="cls-2" d="M110.57,106.93s.44.42,1.05.08.44-1.14.33-1.72c-.11-.58-.61-1.67-1.28-1.75-.69-.08-1,.55-1,.55,0,0-.47-1.14-1.3-1.16s-1.03.8-1.03.8c0,0-.64-1.16-1.44-1.03-.8.14-.86,1.11-.86,1.11,0,0-.33-.5-1.08-.36-.75.14-.8.97-.8.97l-.97-.03s1.03,2.61,1.89,2.72c.86.11,1.28-.42,1.44-.33s.55,1.19,1.3,1.11c.75-.08,1-.72,1.3-.64s.72.69,1.41.44c.69-.25,1.03-.78,1.03-.78Z"/>
          <path d="M106.75,108.18c-.64,0-1.04-.64-1.26-.99-.02-.03-.04-.07-.06-.1-.02,0-.04.02-.06.03-.25.13-.68.36-1.32.27-.97-.12-1.92-2.42-2.1-2.88-.03-.08-.02-.18.03-.25.05-.07.13-.12.23-.11l.74.02c.1-.37.38-.85.98-.96.42-.08.74.01.96.14.14-.38.43-.79.98-.89.63-.11,1.15.38,1.45.75.2-.29.55-.55,1.08-.54.65.02,1.1.56,1.34.94.21-.2.53-.38.99-.33.87.1,1.4,1.39,1.51,1.96v.03c.12.62.3,1.55-.47,1.97-.48.26-.88.16-1.12.04-.18.2-.51.5-.99.67-.62.22-1.06-.09-1.35-.3-.08-.06-.18-.13-.22-.14-.01.01-.11.09-.18.15-.21.18-.53.44-1.03.5-.04,0-.08,0-.11,0ZM105.49,106.52c.05,0,.1.01.16.04.11.06.18.17.3.35.24.39.51.77.86.73.34-.04.55-.22.74-.38.18-.15.39-.33.66-.25.14.04.26.12.39.22.31.22.53.35.86.23.59-.21.89-.66.89-.67.04-.07.11-.11.19-.12.08,0,.16.01.21.07.03.03.33.27.74.05.4-.22.33-.76.2-1.4v-.03c-.12-.57-.59-1.48-1.05-1.53-.5-.06-.72.4-.72.4-.05.1-.14.15-.25.15-.11,0-.2-.07-.24-.16-.11-.27-.53-.98-1.06-1-.01,0-.02,0-.03,0-.56,0-.71.54-.73.6-.03.11-.12.19-.23.2-.11.01-.22-.04-.27-.14-.15-.28-.66-.98-1.16-.89-.58.1-.64.83-.64.86,0,.11-.09.21-.2.24-.11.03-.23-.01-.29-.11,0-.01-.26-.35-.81-.25-.54.1-.59.72-.59.73,0,.14-.12.25-.27.25l-.56-.02c.42.95,1.09,2.12,1.51,2.17.47.06.78-.1,1-.22.12-.06.24-.13.37-.13Z"/>
        </g>
      </g>
      <g>
        <path d="M52.53,214.43s-.08,0-.12,0c-.81-.07-1.41-.78-1.34-1.59l7.59-91.99c.31-3.84,2.27-7.34,5.37-9.62,3.11-2.28,7.04-3.09,10.79-2.23l7.9,1.81c5.64,1.29,9.75,6.03,10.25,11.79l6.69,89.44c.06.81-.55,1.52-1.36,1.58-.81.06-1.52-.55-1.58-1.36l-6.69-89.42c-.38-4.47-3.59-8.15-7.97-9.16l-7.9-1.81c-2.92-.67-5.98-.04-8.4,1.74-2.42,1.77-3.94,4.5-4.18,7.49l-7.59,92c-.06.77-.71,1.35-1.46,1.35Z"/>
        <path d="M91.93,129.84s-.04,0-.06,0l-31.86-7.78c-.14-.04-.23-.18-.2-.32.03-.14.18-.23.32-.2l31.86,7.78c.14.04.23.18.2.32-.03.12-.14.2-.26.2Z"/>
        <path d="M96.24,174.71s-.05,0-.07,0l-39.98-10.47c-.14-.04-.23-.18-.19-.33.04-.14.18-.23.33-.19l39.98,10.47c.14.04.23.18.19.33-.03.12-.14.2-.26.2Z"/>
        <path d="M92.48,129.76c-.36,0-.66-.29-.67-.65,0-.37.28-.68.65-.69.09,0,9.34-.27,18.31-1.85,8.95-1.58,12.77-2.85,12.81-2.86.35-.12.73.07.85.42.12.35-.07.73-.42.85-.16.05-3.94,1.31-13,2.91-9.07,1.6-18.41,1.87-18.51,1.87,0,0-.01,0-.02,0Z"/>
        <path d="M90.51,146.42c-.35,0-.65-.28-.67-.63-.02-.37.27-.68.63-.7.12,0,11.83-.61,20.81-2.2,8.95-1.58,12.77-2.85,12.81-2.86.35-.12.73.07.85.42.12.35-.07.73-.42.85-.16.05-3.94,1.31-13.01,2.91-9.06,1.6-20.85,2.21-20.97,2.22-.01,0-.02,0-.03,0Z"/>
        <g>
          <g>
            <ellipse class="cls-2" cx="98.05" cy="212.42" rx="3.57" ry="7.66"/>
            <path d="M98.05,220.35c-2.15,0-3.84-3.48-3.84-7.93s1.69-7.93,3.84-7.93,3.84,3.48,3.84,7.93-1.69,7.93-3.84,7.93ZM98.05,205.03c-1.79,0-3.3,3.39-3.3,7.39s1.51,7.39,3.3,7.39,3.3-3.39,3.3-7.39-1.51-7.39-3.3-7.39Z"/>
          </g>
          <path d="M97.81,218.97c-.15,0-.27-.12-.27-.27s.12-.27.27-.27c1.09,0,2.26-2.42,2.26-6.01s-1.17-6.01-2.26-6.01c-.15,0-.27-.12-.27-.27s.12-.27.27-.27c1.57,0,2.8,2.88,2.8,6.55s-1.23,6.55-2.8,6.55Z"/>
          <path d="M98,212.61c-.15,0-.27-.12-.27-.27v-.28c0-.15.12-.27.27-.27s.27.12.27.27v.28c0,.15-.12.27-.27.27Z"/>
        </g>
      </g>
      <g>
        <path class="cls-2" d="M73.97,107.02c.24-.07,6.21-1.64,8.05-1.09,1.84.55,3,5.53,3,5.53,0,0-1.91-.68-2.46-.68s-1.12.8-.96,1.43c.18.71.55,1.64,1.64,1.91,0,0-.89,1.43-3.41,1.43s-6.55-.68-7.44-2.18c-.89-1.5-.34-5.8,1.57-6.35Z"/>
        <path d="M79.84,115.82c-2.44,0-6.67-.63-7.67-2.32-.19-.33-.33-.77-.4-1.31-.02-.15.08-.28.23-.3.15-.02.28.08.3.23.06.46.17.84.33,1.11.83,1.4,4.79,2.05,7.21,2.05,1.68,0,2.58-.65,2.96-1.04-.95-.4-1.41-1.27-1.45-2.03-.02-.44.21-1.04.54-1.38.21-.22.44-.33.68-.33.42,0,1.45.33,2.07.53-.26-.95-.92-3.07-1.84-4.2-.09-.11-.08-.28.04-.38.11-.09.28-.08.38.04,1.29,1.57,2.04,4.76,2.07,4.89.02.1,0,.2-.08.26-.07.07-.18.09-.27.05-.72-.26-2-.67-2.37-.67-.11,0-.22.09-.3.17-.25.26-.41.72-.39.99.03.66.49,1.43,1.44,1.66.08.02.15.08.18.16.03.08.02.17-.02.24-.04.06-1,1.56-3.64,1.56Z"/>
      </g>
      <g>
        <g>
          <path class="cls-2" d="M82.75,43.12s1.52-3.99,3.75-5.63c2.23-1.64,6.2,2.37,5.47,5.19-.38,1.49,1.29.24,2.76,1.42,1.53,1.23,1.54,3.95-1.26,4.63-2.08.51-6.96,1.46-9.33.27-2.37-1.18-1.4-5.88-1.4-5.88Z"/>
          <path d="M87.36,49.84c-1.26,0-2.46-.16-3.34-.6-2.52-1.26-1.58-5.97-1.54-6.17,0-.01,0-.03.01-.04.06-.17,1.58-4.09,3.84-5.75.9-.66,2.13-.56,3.37.28,1.61,1.09,2.99,3.33,2.51,5.19-.08.32-.03.4-.03.41.05.07.34.08.58.09.57.02,1.36.05,2.11.65.88.71,1.3,1.85,1.06,2.91-.24,1.07-1.12,1.87-2.42,2.19-1.31.32-3.86.85-6.17.85ZM83,43.19c-.06.33-.82,4.53,1.26,5.57,2.41,1.2,7.61.08,9.15-.29,1.11-.27,1.83-.9,2.03-1.79.19-.85-.16-1.8-.88-2.38-.61-.49-1.27-.52-1.8-.53-.42-.01-.78-.03-.99-.3-.19-.25-.13-.61-.06-.86.42-1.61-.87-3.65-2.3-4.61-1.04-.71-2.05-.81-2.76-.29-2.06,1.51-3.53,5.18-3.65,5.49Z"/>
        </g>
        <path class="cls-2" d="M79.61,59.32l-3.63,3.16-1.49-10.08c1.16.41,1.84-.25,2.8-1l4.76-3.98,3.72,6.54-6.16,5.35Z"/>
        <path d="M79.61,59.59c-.07,0-.15-.03-.2-.09-.1-.11-.08-.28.03-.38l6-5.21-3.45-6.07-4.52,3.77c-1.02.8-2.16,1.68-3.36.88-.12-.08-.16-.25-.08-.37.08-.12.25-.16.37-.08.88.58,1.77-.11,2.72-.84l4.77-3.98c.06-.05.14-.07.22-.06.08.01.15.06.18.13l3.72,6.54c.06.11.04.25-.06.33l-6.16,5.35c-.05.04-.11.07-.18.07Z"/>
        <g>
          <path class="cls-2" d="M84.07,46.57s.29-2.9-1.32-3.45c-2.45-.85-4.94,2.81-1.52,5.06,0,0-.87,2.04-.36,3.96.61,2.26,2.78,4.49,5.35,5.23,4.32,1.24,7.55-7.26,8.34-10.29.12-.45-.11-1.58-.36-1.97-1.97-3.04-3.88-4.83-4.92-5.37-1.47-.76-.8,3.23-2,4.5-1.49,1.58-2.8,2.59-3.21,2.33Z"/>
          <path d="M87.07,57.75c-.31,0-.62-.04-.93-.13-2.56-.74-4.88-3.01-5.53-5.41-.44-1.65.08-3.35.29-3.93-1.78-1.27-1.84-2.92-1.32-3.97.62-1.25,2.02-1.87,3.26-1.44,1.5.52,1.55,2.69,1.52,3.46.36-.11,1.26-.7,2.74-2.27.47-.5.63-1.56.77-2.5.15-1.03.27-1.85.78-2.11.22-.11.48-.1.77.05,1.03.53,2.97,2.28,5.02,5.46.28.44.53,1.64.39,2.18-.72,2.74-2.89,8.37-5.92,10.1-.6.34-1.21.51-1.82.51ZM82.01,43.26c-.87,0-1.62.59-1.96,1.28-.46.93-.35,2.31,1.32,3.41.11.07.15.21.1.33,0,.02-.83,1.98-.34,3.79.6,2.23,2.77,4.35,5.16,5.04.77.22,1.56.11,2.34-.33,2.99-1.7,5.11-7.63,5.67-9.77.09-.36-.1-1.41-.32-1.76-1.87-2.89-3.77-4.73-4.82-5.27-.12-.06-.22-.08-.28-.05-.26.13-.39,1.01-.49,1.71-.15,1.02-.32,2.17-.91,2.79-1.82,1.92-3.01,2.72-3.55,2.37-.08-.05-.13-.15-.12-.25,0-.03.25-2.69-1.14-3.17-.22-.08-.43-.11-.64-.11Z"/>
        </g>
        <path d="M82.55,46.9c-.13,0-.24-.09-.26-.22-.03-.17-.05-.35-.07-.53-.08-.69-.16-1.12-.59-1.33-.13-.06-.19-.22-.13-.36.06-.13.22-.19.36-.13.73.34.82,1.09.9,1.75.02.16.04.33.07.5.03.15-.07.28-.22.31-.02,0-.03,0-.05,0Z"/>
        <g>
          <path d="M88.76,51.91c-.26,0-.51-.05-.76-.16-1.11-.48-1.55-1.92-.99-3.22.27-.62.72-1.12,1.28-1.4.58-.29,1.19-.32,1.74-.09,1.11.48,1.55,1.92.99,3.22-.27.62-.72,1.12-1.28,1.4-.32.16-.65.24-.98.24ZM89.27,47.42c-.24,0-.5.06-.74.19-.45.23-.81.63-1.03,1.14-.44,1.03-.12,2.16.71,2.52.4.17.85.14,1.28-.07.45-.23.81-.63,1.03-1.14.44-1.03.12-2.16-.71-2.52-.17-.07-.36-.11-.54-.11ZM90.77,50.15h0,0Z"/>
          <g>
            <path class="cls-2" d="M94.96,52.1c-.44,1.03-1.5,1.57-2.36,1.2-.86-.37-1.2-1.51-.76-2.54.44-1.03,1.5-1.57,2.36-1.2.86.37,1.2,1.51.76,2.54Z"/>
            <path d="M93.17,53.68c-.23,0-.46-.05-.68-.14-1-.43-1.4-1.73-.9-2.89.24-.56.65-1,1.15-1.26.52-.26,1.07-.29,1.56-.08,1,.43,1.4,1.73.9,2.89-.24.56-.65,1-1.15,1.26-.29.15-.59.22-.88.22ZM93.63,49.71c-.21,0-.43.05-.64.16-.39.2-.71.55-.9.99-.38.89-.11,1.88.62,2.19.34.15.74.12,1.11-.07.39-.2.71-.55.9-.99.38-.89.11-1.88-.62-2.19-.15-.06-.31-.1-.47-.1Z"/>
          </g>
          <path d="M91.84,51.03c-.1,0-.2-.06-.25-.16-.2-.47-.72-.35-.78-.33-.14.04-.29-.05-.33-.19-.04-.14.05-.29.19-.33.35-.09,1.1-.08,1.41.64.06.14,0,.29-.14.35-.03.01-.07.02-.11.02Z"/>
          <path d="M87.26,48.82s-.1-.01-.14-.04l-3.2-2.02c-.13-.08-.16-.24-.08-.37.08-.12.24-.16.37-.08l3.2,2.02c.13.08.16.24.08.37-.05.08-.14.12-.23.12Z"/>
        </g>
        <g>
          <path class="cls-2" d="M85.05,52.23c.09-.06,3.37.05,4.91,1.08.85.57,1.73,3.52,1.73,3.52,0,0-.64.28-1.94-.66-.86-.63-.86-1.43-.86-1.43,0,0-2.12-.06-2.98-.95s-.86-1.55-.86-1.55Z"/>
          <path d="M91.42,57.13c-.36,0-.97-.13-1.82-.75-.67-.48-.88-1.07-.94-1.39-.59-.04-2.17-.23-2.94-1.02-.91-.95-.93-1.66-.93-1.74,0-.09.05-.17.12-.22.25-.17,3.65.04,5.21,1.08.91.61,1.75,3.35,1.84,3.66.04.13-.03.27-.15.32-.03.01-.16.06-.38.06ZM85.38,52.48c.08.24.27.64.73,1.11.65.67,2.24.86,2.8.87.14,0,.26.12.26.27,0,.03.02.68.75,1.21.69.5,1.16.62,1.43.64-.3-.94-.96-2.69-1.53-3.06-1.21-.81-3.62-1.03-4.44-1.04Z"/>
        </g>
      </g>
    </g>
    <g>
      <path d="M145.14,45.34c-.83-.33-1.76-.43-2.64-.28.41-.98.58-2.09.18-3.08-.34-.86-1.07-1.57-1.96-1.79.36-.54.73-1.07,1.09-1.61.41-.6.8-1.22,1.07-1.9.56-1.39.33-2.9-.28-4.23-1.06-2.36-3.39-4.04-5.99-4.15-1.4-.06-2.82.33-3.97,1.12-1.17-1.33-3.33-.86-4.7-.27-.86.37-1.65,1.04-2.33,1.7-.64.62-1.07,1.6-1.35,2.45-.64,1.92-.32,4,.22,5.9.48,1.7,1.12,3.5,2.67,4.5,1.54.99,3.47.98,5.25.87-.1,1.34.44,2.6,1.07,3.78.64,1.19,1.32,2.4,2.2,3.43.9,1.06,2.03,1.81,3.35,2.25,1.25.42,2.66.64,3.99.62.46,0,.93-.06,1.38-.17.07.13.2.22.39.17,2-.59,3.41-2.52,3.55-4.57.15-2.13-1.26-3.96-3.19-4.72Z"/>
      <g>
        <g>
          <path class="cls-2" d="M103.15,94.3l-11.11-9.88s1.06-.85,2.42-.4c1.62.54,3.21,1.05,4.15.99,2.72-.17,4.91-.82,4.91-.82l5.49,9.4-5.85.69Z"/>
          <path d="M103.52,94.51c-.13,0-.25-.1-.27-.24-.02-.15.09-.28.23-.3l5.08-.59-5.18-8.87c-.61.16-2.48.63-4.76.77-.94.06-2.42-.4-4.25-1.01-.9-.3-1.64,0-2,.21-.13.07-.29.03-.37-.1-.07-.13-.03-.29.1-.37.35-.2,1.29-.63,2.43-.26,1.39.46,3.13,1.04,4.05.98,2.66-.17,4.82-.8,4.85-.81.12-.03.24.02.31.12l5.49,9.4c.05.08.05.17,0,.25-.04.08-.12.14-.21.15l-5.48.64s-.02,0-.03,0Z"/>
          <polygon class="cls-4" points="100.33 84.2 105.59 95.39 132.32 92.12 128.59 78.55 100.33 84.2"/>
        </g>
        <g>
          <path class="cls-4" d="M125.51,79.08s.95-16.93,2.51-20.65c1.66-3.95,18.57-9.32,23.38-8.22,11.59,2.65,21.41,33.28,22.59,36.37,2.18,5.7-2.38,8.36-2.38,8.36l4.04,12.51-7.62,2.27s-4.03-7.04-3.62-6.42,1.2,7.17,1.2,7.17l-29.11,6.01-6.01-28.9-4.97-8.51Z"/>
          <path d="M137.49,116.65c-.12,0-.23-.09-.26-.21-.03-.14.06-.29.21-.32l27.99-5.92c-.32-2.5-.83-5.92-1.1-6.68-.21-.41-.16-.44,0-.54.04-.02.23-.13.39.12.03.04.06.1.09.18.42.77,2.2,3.86,3.47,6.06l4.96-1.38c.14-.04.29.04.33.19.04.14-.04.29-.19.33l-5.16,1.43c-.12.03-.24-.02-.3-.12,0,0-.93-1.61-1.85-3.21-.29-.51-.58-1.01-.84-1.47.34,1.91.68,4.55.77,5.28.02.14-.07.27-.21.29l-28.23,5.97s-.04,0-.06,0Z"/>
          <path d="M155.44,82.58c-.11,0-.21-.07-.25-.17l-6.29-16.96c-.05-.14.02-.29.16-.34.14-.05.29.02.34.16l6.29,16.96c.05.14-.02.29-.16.34-.03.01-.06.02-.09.02Z"/>
          <path d="M134.19,92.22c-.1,0-.2-.06-.24-.16-.06-.14,0-.29.14-.35l26.63-11.71c.14-.06.29,0,.35.14.06.14,0,.29-.14.35l-26.63,11.71s-.07.02-.11.02Z"/>
          <path d="M130.55,88.31c-.1,0-.19-.05-.24-.14,0-.02-.96-1.82-2.48-4.41-1.42-2.43-.7-5.48,0-8.42.09-.36.17-.72.25-1.07.7-3.1-.19-5.67-.2-5.7-.05-.14.02-.29.16-.34.14-.05.29.02.34.16.04.11.96,2.74.22,5.99-.08.36-.17.72-.25,1.08-.67,2.84-1.37,5.78-.06,8.03,1.52,2.61,2.48,4.42,2.49,4.43.07.13.02.29-.11.36-.04.02-.08.03-.12.03Z"/>
          <path d="M138.6,104.07c-.12,0-.23-.08-.26-.2-.04-.14.05-.29.19-.33l33.01-8.86c.14-.04.29.05.33.19.04.14-.05.29-.19.33l-33.01,8.86s-.05,0-.07,0Z"/>
        </g>
        <g>
          <path class="cls-2" d="M133.61,92.54s2.28,7.15,4.28,11.32c0,0-6.74,3.74-8.07,4.28-1.34.54-6.05,1.96-7.26,1.34-1.21-.63-.29-1.75-.29-1.75,0,0-2.04.46-2.59-.33-.54-.79.04-1.67.04-1.67,0,0-1.44.3-2.04-.5-.86-1.15,1.92-2.46,1.92-2.46,0,0-1.04-.58-.38-1.71.67-1.13,7.68-4.59,7.68-4.59,0,0-2.34-.63-2.75-1.59-.42-.96.67-1.5,1.84-1.63,1.17-.13,3.88.42,5.13.13,1.25-.29,2.5-.83,2.5-.83Z"/>
          <path d="M123.48,109.9c-.44,0-.8-.05-1.04-.18-.42-.22-.67-.51-.75-.88-.06-.27,0-.54.08-.75-.71.09-1.86.12-2.31-.54-.37-.55-.3-1.12-.18-1.5-.53.03-1.36-.05-1.82-.66-.2-.27-.27-.57-.19-.89.2-.79,1.26-1.47,1.84-1.79-.13-.14-.27-.34-.34-.6-.1-.38-.03-.78.22-1.2.59-1,5.41-3.5,7.2-4.4-.77-.27-1.97-.8-2.29-1.54-.16-.37-.15-.73.03-1.04.42-.72,1.55-.91,2.02-.96.53-.06,1.33.01,2.17.09,1.06.09,2.25.2,2.93.04.15-.03.29.06.32.2.03.14-.06.29-.2.32-.76.18-1.94.07-3.09-.03-.82-.07-1.6-.14-2.07-.09-.8.09-1.42.35-1.62.7-.09.16-.09.34,0,.56.27.61,1.72,1.2,2.58,1.43.11.03.19.12.2.23s-.05.22-.15.27c-2.79,1.38-7.11,3.71-7.57,4.49-.17.29-.22.55-.16.78.1.36.43.55.44.56.09.05.14.14.14.24,0,.1-.06.19-.15.23-.48.22-1.75.95-1.92,1.62-.04.16,0,.3.1.44.49.65,1.76.4,1.78.4.11-.02.22.02.28.11.06.09.06.21,0,.3-.02.03-.47.74-.04,1.37.32.47,1.59.39,2.31.22.11-.02.23.02.29.12.06.1.05.22-.02.31,0,0-.34.43-.26.83.04.2.2.38.47.51,1.02.53,5.39-.68,7.04-1.35.49-.2,1.83-.89,3.87-2.01.13-.07.29-.02.36.11.07.13.02.29-.11.36-2.09,1.14-3.41,1.82-3.93,2.03-.94.38-4.45,1.51-6.44,1.51Z"/>
          <path d="M122.73,107.78c-.12,0-.23-.08-.26-.2-.04-.14.05-.29.19-.33.03,0,3-.81,4.04-1.17.14-.05.29.03.34.17.05.14-.03.29-.17.34-1.06.36-3.96,1.14-4.08,1.18-.02,0-.05,0-.07,0Z"/>
          <path d="M120.1,105.84c-.09,0-.17-.04-.22-.12-.08-.12-.05-.29.07-.37.06-.04.13-.07,1.98-.65,1.52-.48,3.61-1.13,4.62-1.5.14-.05.29.02.34.16.05.14-.02.29-.16.34-1.02.37-3.12,1.03-4.64,1.51-.9.28-1.75.55-1.87.6-.04.02-.08.03-.12.03Z"/>
          <path d="M120.03,102.88c-.11,0-.22-.07-.25-.18-.05-.14.03-.29.17-.34.05-.02,4.94-1.68,6.08-2.22.13-.06.29,0,.36.13.06.13,0,.29-.13.36-1.17.55-5.93,2.17-6.14,2.24-.03,0-.06.01-.09.01Z"/>
        </g>
      </g>
      <g>
        <g>
          <path class="cls-2" d="M134.92,64.03c1.82.61,7.47-12.97,7.47-12.97l-8.43-7.9-5.36,3.78,6.26,8.75s-.9,8.01.06,8.33"/>
          <path d="M134,54.76c-.08,0-.17-.04-.22-.11l-5.4-7.55c-.09-.12-.06-.29.06-.37.12-.09.29-.06.37.06l5.4,7.55c.09.12.06.29-.06.37-.05.03-.1.05-.16.05Z"/>
        </g>
        <g>
          <g>
            <path class="cls-2" d="M126.45,35.97s-3.69,10.1-.84,12.56c2.85,2.45,9.93-2.77,9.93-2.77,0,0,0,.53.71.91,1.81.97,4.52-3.58,2.3-4.97-1.12-.7-2.52.54-2.52.54,0,0-1.72-9.23-7.43-7.1,0,0-.35-2.39-2.14.83Z"/>
            <path d="M127.61,49.45c-.83,0-1.59-.21-2.18-.72-2.96-2.55.61-12.43.77-12.85,0-.01.01-.03.02-.04.74-1.34,1.34-1.91,1.88-1.81.39.07.59.47.68.76,1.25-.4,2.41-.3,3.45.29,2.55,1.44,3.66,5.39,3.96,6.69.53-.36,1.57-.88,2.49-.31,1.32.83,1.12,2.6.37,3.89-.66,1.14-1.86,2.11-2.93,1.54-.41-.22-.62-.49-.73-.71-1.11.77-4.89,3.26-7.77,3.26ZM126.69,36.08c-.18.49-3.54,9.98-.91,12.24,2.66,2.29,9.53-2.73,9.6-2.78.08-.06.19-.07.28-.02.09.05.15.14.15.24,0,.01.02.38.57.67.72.39,1.66-.38,2.22-1.34.62-1.08.83-2.54-.19-3.17-.93-.58-2.19.51-2.2.52-.07.06-.17.08-.26.05-.09-.03-.16-.11-.18-.2,0-.05-.99-5.16-3.79-6.74-.98-.55-2.08-.61-3.29-.16-.08.03-.16.02-.23-.02-.07-.04-.12-.11-.13-.19-.04-.24-.17-.6-.32-.62-.04,0-.44-.03-1.31,1.53Z"/>
          </g>
          <path d="M136.43,44.52s-.06,0-.1-.02c-.14-.05-.21-.21-.15-.35.28-.74.69-1.21,1.22-1.42.68-.26,1.29.03,1.31.05.13.07.19.23.12.36-.07.13-.23.19-.36.12-.01,0-.44-.2-.89-.02-.38.15-.69.52-.91,1.11-.04.11-.14.17-.25.17Z"/>
        </g>
      </g>
    </g>
  </g>
</svg>