<?xml version="1.0" encoding="UTF-8"?>
<svg id="Capa_1" data-name="Capa 1" xmlns="http://www.w3.org/2000/svg" viewBox="0 0 218.53 218.53">
  <defs>
    <style>
      .cls-1 {
        fill: #e2e2e2;
      }

      .cls-2 {
        fill: #fcc5f8;
      }

      .cls-3 {
        fill: #fff;
      }

      .cls-4 {
        fill: #ffc2fb;
        opacity: .2;
      }

      .cls-5 {
        fill: #26aaaa;
      }
    </style>
  </defs>
  <circle class="cls-4" cx="96.1" cy="105.41" r="94.17"/>
  <g id="Accessible_train" data-name="Accessible train">
    <g>
      <g>
        <g>
          <ellipse class="cls-3" cx="62.35" cy="181.58" rx="36.04" ry="36.02"/>
          <path d="M62.35,146.23c19.5,0,35.37,15.86,35.37,35.35s-15.87,35.35-35.37,35.35-35.37-15.86-35.37-35.35,15.87-35.35,35.37-35.35ZM62.35,145.56c-19.9,0-36.04,16.12-36.04,36.02s16.13,36.02,36.04,36.02,36.04-16.12,36.04-36.02-16.13-36.02-36.04-36.02Z"/>
        </g>
        <circle class="cls-5" cx="62.35" cy="181.58" r="4.96" transform="translate(-.23 .08)"/>
      </g>
      <g>
        <path class="cls-3" d="M47.29,134.55H15.08c-1.23,0-2.29-.87-2.53-2.07l-2.79-13.84c-.42-2.08,1.17-4.03,3.3-4.03h27.34c3.51,0,6.54,2.47,7.23,5.92l2.2,10.93c.32,1.6-.9,3.09-2.53,3.09Z"/>
        <path d="M47.29,134.88H15.08c-1.38,0-2.59-.98-2.86-2.34l-2.79-13.84c-.22-1.09.06-2.21.76-3.07.71-.86,1.75-1.36,2.86-1.36h27.34c3.66,0,6.84,2.6,7.56,6.18l2.2,10.93c.17.86-.05,1.74-.6,2.42-.56.68-1.38,1.07-2.26,1.07ZM13.05,114.94c-.91,0-1.77.4-2.34,1.11-.58.71-.8,1.62-.62,2.51l2.79,13.84c.21,1.04,1.14,1.8,2.2,1.8h32.22c.68,0,1.31-.3,1.74-.82.43-.52.6-1.2.46-1.87l-2.2-10.93c-.66-3.27-3.56-5.65-6.9-5.65H13.05Z"/>
      </g>
      <path d="M41.78,149.99c-.18,0-.33-.15-.33-.33v-15.1c0-.18.15-.33.33-.33s.33.15.33.33v15.1c0,.18-.15.33-.33.33Z"/>
      <rect class="cls-2" x="24.98" y="153.2" width="45.45" height="7.48" rx="1.59" ry="1.59" transform="translate(95.41 313.88) rotate(-180)"/>
      <g>
        <g>
          <path d="M59.06,75.13s2.42-14.47,8.74-13.27c6.75,1.28,2.92,5.71,2.92,5.71,0,0,2.85,1.99-1.78,4.1-.99.45-3.8,4.18-4.79,4.56-3.63,1.38-5.09-1.1-5.09-1.1Z"/>
          <g>
            <path d="M75.58,80.79c-.19-.56-.5-1.25-.88-2.02-1.24,1.17-3.21,2.64-4.76,1.99-2.47-1.03-5.04-6.18-5.04-6.18l3.65-5.17-8,6.18s-2.86,10.65,6,11.12c8.86.48,10.2-2.53,9.03-5.92Z"/>
            <g>
              <path class="cls-3" d="M69.94,80.77c1.55.65,3.52-.82,4.76-1.99-1.94-3.88-5.75-9.67-5.75-9.67l-.39.3-3.07,4.35c-.36.51-.4,1.18-.09,1.72.86,1.53,2.73,4.52,4.55,5.28Z"/>
              <path d="M68.84,70.17c1.01,1.57,3.49,5.48,5.03,8.46-1.2,1.05-2.29,1.63-3.11,1.63-.21,0-.39-.03-.56-.11-1.17-.49-2.71-2.31-4.22-4.99-.18-.32-.16-.71.05-1.01l2.81-3.98ZM68.94,69.11l-.39.3-3.07,4.35c-.36.51-.4,1.18-.09,1.72.86,1.53,2.73,4.52,4.55,5.28.26.11.54.16.82.16,1.38,0,2.91-1.17,3.94-2.15-1.94-3.88-5.75-9.67-5.75-9.67Z"/>
            </g>
          </g>
          <path d="M58.26,82.12c.2.06.29.29.21.48-.23.52-.04,1.22.39,1.62.59.55,1.47.67,2.27.68,1.03.02,2.05-.12,3.05-.4.72-.2,1.49-.49,1.95-1.09.53-.69.54-1.64.46-2.51-.17-1.86-.64-3.7-1.39-5.41-.33-.75-.77-1.53-1.53-1.84-.88-.36,1.59-11.06.87-10.45-1.91,1.61-9.91,1.99-11.35,10.09-.9,5.06,1.97,6.61,2.61,7.39.55.68,1.57,1.16,2.45,1.43Z"/>
          <path class="cls-3" d="M57.12,91.4c1.48.69,4.46,1.39,8.85-.75.37-.18.64-.52.74-.91.35-1.38,1.18-4.65,1.5-5.63.4-1.25-1.04-5-1.92-6.01-.88-1.02-3.57-.84-4.05.75-.48,1.59.22,3.14,2.92,2.86l-.08.94c-.07.8-.71,1.44-1.52,1.49-1.62.11-4.17.23-4.92-.07l-2.21,5.64c-.26.66.04,1.4.68,1.7Z"/>
          <path d="M56.43,90.03s-.08,0-.12-.02c-.17-.07-.26-.26-.19-.43l2.21-5.64c.03-.08.1-.15.18-.19.08-.04.18-.04.26,0,.51.21,2.24.22,4.77.05.64-.04,1.15-.54,1.21-1.19l.05-.55c-1.45.06-2.18-.43-2.55-.88-.5-.61-.62-1.48-.33-2.44.24-.77.93-1.33,1.89-1.54,1.07-.23,2.19.05,2.73.67.9,1.04,2.44,4.89,1.98,6.33-.28.86-.96,3.54-1.35,5.05-.05.18-.23.29-.41.24-.18-.05-.29-.23-.24-.41.39-1.52,1.08-4.21,1.36-5.09.36-1.11-1.01-4.72-1.85-5.69-.38-.44-1.26-.63-2.08-.45-.34.07-1.16.32-1.39,1.08-.22.74-.15,1.38.21,1.82.42.51,1.24.73,2.36.61.1-.01.2.02.27.09.07.07.11.17.1.27l-.08.94c-.08.97-.85,1.73-1.83,1.8-2.35.16-3.94.16-4.74,0l-2.1,5.36c-.05.13-.18.21-.31.21Z"/>
          <path d="M66.13,81.11c-.1,0-.21-.05-.27-.14-.29-.41-.81-.66-1.3-.64-.18,0-.34-.14-.34-.32,0-.18.14-.34.32-.34.74-.01,1.44.33,1.87.92.11.15.07.36-.08.47-.06.04-.13.06-.19.06Z"/>
        </g>
        <g>
          <g>
            <path class="cls-3" d="M45.16,130.42l-4.21,10.89c-2.93,7.58,3.94,12.15,12.07,12.1,19.27-.12,46.87,3.35,46.87,3.7,0,.44-12.67,36.41-16.55,47.4-.54,1.54.6,3.16,2.24,3.16h38.24c1.28,0,1.81-1.64.77-2.38l-9.46-6.81s10.48-21.52,17.85-42.41c4.42-12.52-4.91-25.65-18.2-25.65H45.16Z"/>
            <path d="M123.82,208.01h-38.24c-.89,0-1.7-.42-2.21-1.14-.51-.72-.64-1.62-.34-2.46,7.51-21.3,15.57-44.25,16.46-47.07-2.84-.59-27.32-3.59-45.49-3.59-.32,0-.64,0-.97,0-.04,0-.09,0-.13,0-5.15,0-9.61-1.84-11.67-4.82-1.5-2.17-1.7-4.85-.59-7.74l4.2-10.89c.05-.13.17-.21.31-.21h69.63c6.46,0,12.3,3.02,16.03,8.29,3.72,5.25,4.62,11.74,2.49,17.8-6.86,19.45-16.54,39.7-17.74,42.19l9.23,6.65c.59.43.83,1.15.61,1.84-.22.69-.84,1.14-1.57,1.14ZM53.99,153.08c18.98,0,45.57,3.24,46.13,3.79.06.06.1.16.1.25,0,.35-5.57,16.34-16.57,47.51-.22.63-.13,1.3.26,1.85.39.55.99.86,1.66.86h38.24c.53,0,.83-.35.93-.68.11-.33.07-.79-.36-1.1l-9.46-6.81c-.13-.1-.18-.27-.11-.42.1-.22,10.56-21.75,17.83-42.37,2.06-5.85,1.19-12.12-2.4-17.19-3.6-5.09-9.24-8.01-15.48-8.01H45.38l-4.12,10.68c-1.03,2.67-.85,5.13.52,7.12,1.93,2.8,6.19,4.53,11.12,4.53.04,0,.08,0,.13,0,.32,0,.65,0,.97,0Z"/>
          </g>
          <path d="M104.08,202.22c-.92,0-1.88-.05-2.87-.14-2.37-.23-4.74-.7-7.03-1.15-1.87-.37-3.81-.75-5.72-1-.18-.02-.31-.19-.29-.37.02-.18.19-.31.37-.29,1.94.25,3.88.64,5.77,1.01,2.27.45,4.62.91,6.96,1.14,5.04.49,9.15-.3,12.22-2.34.26-.17.52-.36.74-.6.12-.14.34-.15.47-.02.14.12.15.34.02.47-.26.29-.57.51-.86.7-2.59,1.72-5.88,2.59-9.79,2.59Z"/>
          <path class="cls-3" d="M35.22,130.42l-4.21,10.89c-2.93,7.58,2.7,15.74,10.84,15.69,19.27-.12,45.56-.23,45.56.12,0,.44-12.67,36.41-16.55,47.4-.54,1.54.6,3.16,2.24,3.16h38.24c1.28,0,1.81-1.64.77-2.38l-9.46-6.81s10.48-21.52,17.85-42.41c4.42-12.52-4.91-25.65-18.2-25.65H35.22Z"/>
          <path d="M111.34,208.01h-38.24c-.89,0-1.7-.42-2.21-1.14-.51-.72-.64-1.62-.34-2.46,7.48-21.19,15.49-44.02,16.44-47.02-1.05-.08-4.97-.17-16.56-.16h0c-.18,0-.33-.15-.33-.33s.15-.33.33-.33c5.24,0,9.32.01,12.13.05,5.18.06,5.18.1,5.18.52,0,.36-5.57,16.34-16.57,47.51-.22.63-.13,1.3.26,1.85.39.55.99.86,1.66.86h38.24c.53,0,.83-.35.93-.68.11-.33.07-.79-.36-1.1l-9.46-6.81c-.13-.1-.18-.27-.11-.42.1-.22,10.56-21.75,17.83-42.37,2.06-5.85,1.19-12.12-2.4-17.19-3.6-5.09-9.24-8.01-15.48-8.01H35.45l-4.12,10.68c-1.57,4.07-.68,8.58,2.33,11.75.13.13.12.35-.01.47-.13.13-.35.12-.47-.01-3.19-3.37-4.14-8.14-2.47-12.45l4.21-10.89c.05-.13.17-.21.31-.21h67.09c6.46,0,12.3,3.02,16.03,8.29,3.72,5.25,4.62,11.74,2.49,17.8-6.86,19.45-16.54,39.7-17.74,42.19l9.23,6.65c.59.43.83,1.15.61,1.84-.22.69-.84,1.14-1.57,1.14Z"/>
          <path d="M91.6,202.22c-.92,0-1.88-.05-2.87-.14-2.37-.23-4.74-.7-7.03-1.15-1.87-.37-3.81-.75-5.72-1-.18-.02-.31-.19-.29-.37s.19-.31.37-.29c1.94.25,3.88.64,5.77,1.01,2.27.45,4.62.91,6.96,1.14,5.04.49,9.15-.3,12.22-2.34.26-.17.52-.36.74-.6.12-.14.34-.15.47-.02.14.12.15.34.02.47-.26.29-.58.52-.86.7-2.59,1.72-5.88,2.59-9.79,2.59Z"/>
          <path d="M98.74,157.52h-9.68c-.18,0-.33-.15-.33-.33s.15-.33.33-.33h9.68c.18,0,.33.15.33.33s-.15.33-.33.33Z"/>
        </g>
        <g>
          <path class="cls-2" d="M34.5,131.78h39.2l4.93-17.93c1.99-7.22.12-15.03-5.11-20.4-2.93-3.01-7.01-5.37-12.63-5.52-5.8-.16-11.06,3.41-13.12,8.83l-13.27,35.01Z"/>
          <path class="cls-2" d="M89.47,132.85l-56.88.03c-1.78,0-3.23,1.45-3.23,3.23,0,1.78,1.45,3.23,3.23,3.23l56.88-.03c1.78,0,3.23-1.45,3.23-3.23,0-1.78-1.45-3.23-3.23-3.23Z"/>
          <g>
            <path class="cls-3" d="M107.25,132.85l-49.42.03c-6.34,0-11.04-5.88-9.63-12.06l1.42-6.21s10.94-2.59,18.08.28l-1.49,5.98h23.17c4.4-.02,8.72,1.37,12.2,4.07,2.36,1.83,4.58,4.4,5.67,7.9Z"/>
            <path d="M89.47,133.2c-.18,0-.33-.15-.33-.33s.15-.33.33-.33h17.32c-.97-2.82-2.79-5.27-5.41-7.32-3.33-2.59-7.58-4.02-11.98-4.02h-12.51c-.18,0-.33-.14-.33-.33s.15-.33.33-.33h12.5s0,0,.01,0c4.55,0,8.95,1.48,12.39,4.16,2.87,2.23,4.81,4.95,5.78,8.07.03.1.01.21-.05.3-.06.09-.16.14-.27.14h-17.78Z"/>
            <path d="M101,131.19c-.13,0-.26-.08-.31-.21-1-2.45-3.2-4.41-5.75-5.13-.18-.05-.28-.23-.23-.41.05-.18.23-.28.41-.23,2.74.77,5.11,2.88,6.18,5.52.07.17-.01.37-.18.44-.04.02-.08.02-.13.02Z"/>
            <path d="M95.76,131.31c-.13,0-.25-.07-.31-.2-.91-2.04-2.73-3.69-4.85-4.4-.18-.06-.27-.25-.21-.42.06-.18.25-.27.42-.21,2.3.77,4.26,2.55,5.25,4.76.08.17,0,.37-.17.44-.04.02-.09.03-.14.03Z"/>
          </g>
          <path d="M48.47,114.98s-.06,0-.1-.01c-.18-.05-.28-.24-.22-.42.54-1.76,1.84-6.35,3.1-10.79,1.26-4.44,2.57-9.03,3.11-10.8.17-.55.36-1.18.76-1.69.49-.61,1.21-.91,1.86-.75.18.04.29.22.25.4-.04.18-.22.29-.4.25-.45-.1-.91.19-1.18.52-.33.41-.49.95-.65,1.46-.54,1.76-1.84,6.35-3.1,10.79-1.26,4.44-2.57,9.03-3.11,10.8-.04.14-.18.24-.32.24Z"/>
          <path d="M68.86,115.35s-.05,0-.08,0c-.18-.04-.29-.22-.25-.4l2.95-12.29c.04-.18.22-.29.4-.25.18.04.29.22.25.4l-2.95,12.29c-.04.15-.17.26-.32.26Z"/>
        </g>
      </g>
      <g>
        <path d="M23.24,157.52c-3.41,0-6.18-2.77-6.18-6.18v-16.8c0-.18.15-.33.33-.33s.33.15.33.33v16.8c0,3.04,2.47,5.51,5.51,5.51.18,0,.33.15.33.33s-.15.33-.33.33Z"/>
        <g>
          <g>
            <ellipse class="cls-3" cx="36.04" cy="181.58" rx="36.04" ry="36.02"/>
            <path d="M36.04,146.23c19.5,0,35.37,15.86,35.37,35.35s-15.87,35.35-35.37,35.35S.67,201.07.67,181.58s15.87-35.35,35.37-35.35ZM36.04,145.56C16.13,145.56,0,161.68,0,181.58s16.13,36.02,36.04,36.02,36.04-16.12,36.04-36.02-16.13-36.02-36.04-36.02Z"/>
          </g>
          <circle class="cls-2" cx="36.04" cy="181.58" r="4.96" transform="translate(-.23 .05)"/>
        </g>
        <path d="M119.59,211.91h-53.33c-.18,0-.33-.15-.33-.33s.15-.33.33-.33h53v-3.57c0-.18.15-.33.33-.33s.33.15.33.33v3.9c0,.18-.15.33-.33.33Z"/>
      </g>
    </g>
  </g>
  <g>
    <g>
      <g>
        <path class="cls-3" d="M135.83,200.55l6.33-5.36.44-3.2,7.79-2.42,16.13,7.56-.39,3.32c-.19,1.63-1.58,2.86-3.22,2.86l-26.11-.11c-1.39,0-2.02-1.74-.96-2.64Z"/>
        <path d="M162.89,203.56l-26.11-.11c-.74,0-1.38-.45-1.63-1.15s-.05-1.45.51-1.93l6.26-5.3.42-3.11c.01-.1.08-.18.17-.2l7.79-2.42c.06-.02.12-.01.18.01l16.13,7.56c.1.05.15.15.14.25l-.39,3.32c-.21,1.76-1.7,3.08-3.47,3.08ZM142.82,192.18l-.41,3.04c0,.06-.04.12-.09.16l-6.33,5.36c-.49.41-.51.99-.37,1.38s.53.82,1.17.82l26.11.11c1.52,0,2.8-1.13,2.98-2.64l.37-3.14-15.88-7.44-7.54,2.34ZM135.83,200.55h0s0,0,0,0Z"/>
      </g>
      <g>
        <path class="cls-3" d="M203.87,199.35c.63,2.06-.91,4.13-3.07,4.13l-21.61-.09c-1.51,0-2.82-1.08-3.11-2.56l-1.46-7.24,7.96-2.76,20.23,5.07,1.06,3.46Z"/>
        <path d="M200.81,203.72l-21.61-.09c-1.62,0-3.04-1.17-3.36-2.76l-1.46-7.24c-.02-.12.04-.24.16-.28l7.96-2.76s.1-.02.14,0l20.23,5.07c.08.02.15.08.18.17l1.06,3.46c.32,1.06.13,2.17-.53,3.06-.66.89-1.67,1.39-2.78,1.39ZM174.91,193.74l1.42,7.03c.27,1.36,1.48,2.36,2.87,2.36l21.61.09c.95,0,1.81-.43,2.37-1.19.56-.76.73-1.71.45-2.62l-1.02-3.33-20.02-5.02-7.69,2.67Z"/>
      </g>
      <polygon class="cls-2" points="144.8 89.48 154.14 87.43 169.17 92.27 173.95 101.54 202.81 195.89 174.62 193.57 163.92 142.16 166.51 197.14 142.59 191.99 144.8 89.48"/>
      <path d="M163.95,141.89c-.12,0-.22-.08-.24-.2l-6.29-30.79c-.29-1.58-1.14-3-2.39-4l-1.13-.9c-.11-.09-.12-.24-.04-.35.09-.11.24-.12.35-.04l1.13.9c1.34,1.08,2.26,2.6,2.57,4.29l6.29,30.78c.03.13-.06.27-.19.29-.02,0-.03,0-.05,0Z"/>
    </g>
    <g>
      <g>
        <g>
          <path class="cls-1" d="M135.02,48.4c-1.64-1.04-3.22-2.47-3.91-1.6-.69.87,1.61,2.76,1.61,2.76-2.41-.1-4.18-2.91-5.07-2.45-.89.46-.06,1.87-.06,1.87,0,0-1.12-1.76-2.15-.96-1.03.81.78,2.6.78,2.6,0,0-1.59-1.5-2.38-.11-.78,1.39,3.86,3.44,3.86,3.44-.92-.35-2.37-.4-2.52.29-.15.69,1.53,1.22,3.25,2.04,1.72.81,4.34,1.19,4.34,1.19.03,1.91.99,11.31,1.79,18.87.55,5.18,3.83,11.44,9.94,9.58.02,0,.05,0,.07,0,.22.03,6.56-2.08,6.79-2.06,1.94.15-2.81-15.12-3.78-18.38l-2.93,2.36s-3.84-10.4-4.59-13.32c-.99-3.88-3.4-5.07-5.04-6.12Z"/>
          <path d="M142.34,86.51c-1.22,0-2.36-.35-3.4-1.04-2.91-1.92-4.3-5.96-4.63-9.1-.77-7.31-1.7-16.36-1.79-18.68-.66-.11-2.73-.48-4.2-1.18-.37-.17-.73-.33-1.07-.48-1.44-.63-2.47-1.09-2.31-1.83.05-.23.2-.41.43-.54.22-.12.5-.18.8-.19-1.05-.59-2.32-1.44-2.6-2.27-.1-.29-.07-.55.06-.8.23-.41.54-.64.93-.7.22-.03.45,0,.67.06-.21-.36-.37-.77-.35-1.15.02-.31.16-.58.41-.77.28-.22.59-.3.93-.25.28.05.55.2.78.37-.01-.16,0-.32.04-.47.08-.26.25-.47.5-.6.54-.28,1.17.21,1.96.83.69.53,1.51,1.17,2.43,1.45-.68-.69-1.58-1.81-1.01-2.52.7-.88,1.95-.01,3.27.9.32.22.64.44.97.65.14.09.29.18.44.27,1.6.99,3.78,2.35,4.71,5.99.66,2.59,3.8,11.19,4.46,12.97l2.66-2.14c.06-.05.15-.07.23-.04.08.02.14.09.16.17.08.26.17.58.29.97,3.39,11.29,4.5,16.53,3.71,17.52-.12.14-.27.22-.46.21-.23.04-1.87.56-3.19.98-3.12.99-3.5,1.1-3.63,1.08,0,0,0,0-.01,0-.75.23-1.48.34-2.19.33ZM126.36,53.95c-.31,0-.58.04-.75.14-.15.08-.17.17-.18.21-.07.34,1.04.83,2.03,1.27.35.15.71.32,1.08.49,1.67.79,4.24,1.17,4.27,1.17.12.02.21.12.21.24.03,1.91.99,11.3,1.79,18.85.31,2.89,1.64,6.9,4.41,8.74,1.52,1.01,3.28,1.22,5.21.64.06-.02.12-.01.15,0,.29-.06,2.03-.61,3.44-1.06,2.88-.91,3.23-1.02,3.35-1,.02,0,.03,0,.05-.03.64-.8-.64-6.54-3.8-17.07-.07-.23-.13-.43-.19-.62l-2.64,2.12c-.06.05-.15.07-.22.05-.08-.02-.14-.08-.17-.15-.16-.42-3.86-10.44-4.59-13.35-.88-3.45-2.88-4.69-4.49-5.69-.15-.09-.3-.19-.44-.28-.33-.21-.66-.44-.98-.66-1.13-.78-2.19-1.51-2.6-1-.41.51.88,1.85,1.57,2.41.08.07.11.18.07.28-.04.1-.13.17-.24.16-1.41-.06-2.58-.97-3.52-1.7-.6-.47-1.18-.91-1.43-.78-.13.07-.21.16-.25.3-.12.4.17,1.02.29,1.23.07.12.03.27-.08.34-.12.07-.27.04-.34-.08-.17-.26-.71-.95-1.25-1.04-.19-.03-.37.02-.54.15-.14.11-.21.24-.22.41-.04.62.73,1.52,1.02,1.82.1.1.1.25,0,.35-.09.1-.25.1-.35,0-.21-.2-.89-.71-1.42-.63-.23.04-.42.18-.57.45-.07.12-.07.25-.02.4.33.99,2.83,2.28,3.76,2.69.12.05.18.2.13.32-.05.12-.19.19-.32.14-.4-.15-.87-.23-1.26-.23ZM144.56,85.68h0Z"/>
        </g>
        <path d="M129.27,54.72s-.06,0-.09-.02l-1.4-.55c-.13-.05-.19-.19-.14-.32.05-.13.19-.19.32-.14l1.4.55c.13.05.19.19.14.32-.04.1-.13.16-.23.16Z"/>
        <path d="M130.04,52.56s-.05,0-.07,0c-1.28-.37-2.5-.92-3.64-1.61-.12-.07-.15-.23-.08-.34s.23-.15.34-.08c1.1.68,2.28,1.2,3.51,1.56.13.04.21.18.17.31-.03.11-.13.18-.24.18Z"/>
        <path d="M131.04,50.87s-.03,0-.05,0c-1.2-.25-2.37-.76-3.37-1.48-.11-.08-.14-.24-.06-.35.08-.11.24-.14.35-.06.94.68,2.04,1.16,3.18,1.4.13.03.22.16.19.29-.02.12-.13.2-.24.2Z"/>
        <path d="M133.64,53.45c-.11,0-.22-.08-.24-.19-.1-.43-.06-.85-.03-1.27.01-.18.03-.35.03-.53,0-.37-.06-1.04-.51-1.34-.11-.08-.15-.23-.07-.34.08-.11.23-.15.34-.07.66.43.75,1.29.74,1.76,0,.19-.02.38-.03.56-.03.39-.06.77.02,1.12.03.13-.05.27-.19.3-.02,0-.04,0-.06,0Z"/>
        <path d="M134.21,58.28s-.1-.01-.14-.04c-.32-.22-.67-.39-1.05-.49-.13-.04-.21-.17-.17-.31.04-.13.17-.21.31-.17.43.12.83.31,1.2.56.11.08.14.23.06.35-.05.07-.13.11-.21.11Z"/>
        <path d="M146.08,74.14c-.11,0-.21-.08-.24-.19l-1.34-5.52c-.03-.13.05-.27.18-.3.13-.03.27.05.3.18l1.34,5.52c.03.13-.05.27-.18.3-.02,0-.04,0-.06,0Z"/>
      </g>
      <g>
        <path class="cls-3" d="M146.72,76.67l-2.44-9.84s5.14-6.64,18.24-7.39c16.18-.93,28.3,9.13,28.3,9.13l-11.17,11.37-3.26-1.42-3.18,14.9-30.83-.13,4.34-16.61Z"/>
        <path d="M173.21,93.67l-4.9-.02c-.14,0-.25-.11-.25-.25s.11-.25.25-.25l4.69.02,3.14-14.7c.02-.07.06-.14.13-.17.07-.03.14-.04.21,0l3.1,1.35,10.85-11.05c-1.69-1.31-13.18-9.75-27.92-8.9-11.98.69-17.3,6.41-17.98,7.21l2.41,9.71s0,.08,0,.12l-4.26,16.3h3.32c.14.01.25.13.25.26s-.11.25-.25.25l-3.64-.02c-.08,0-.15-.04-.2-.1-.05-.06-.06-.14-.04-.21l4.33-16.55-2.42-9.77c-.02-.07,0-.15.04-.21.05-.07,5.36-6.74,18.42-7.49,16.09-.92,28.36,9.08,28.48,9.18.05.04.09.11.09.18s-.02.14-.07.19l-11.17,11.37c-.07.07-.18.09-.28.05l-2.98-1.3-3.12,14.6c-.02.12-.13.2-.24.2Z"/>
        <path d="M176.51,78.06s-.04,0-.06,0c-.13-.03-.21-.17-.18-.3l.53-2.02c.03-.13.17-.21.3-.18.13.03.21.17.18.3l-.53,2.02c-.03.11-.13.19-.24.19Z"/>
        <g>
          <path class="cls-3" d="M147.92,71.14l-1.2,5.53,1.2-5.53Z"/>
          <path d="M146.72,76.92s-.03,0-.05,0c-.13-.03-.22-.16-.19-.3l1.2-5.53c.03-.13.16-.22.3-.19.13.03.22.16.19.3l-1.2,5.53c-.03.12-.13.2-.24.2Z"/>
        </g>
      </g>
      <g>
        <g>
          <path class="cls-1" d="M183.07,80.89l-2.47-1.92,9.65-9.82c1.69,1.56,2.91,2.57,5,5.06,4.22,5.01,2.66,11.55-2.58,15.49-5.12,3.84-13.91,9.62-19.89,9.13-.9-.08-6.46-3.58-8.85-4.79-.38-.19-.56-.64-.41-1.05l.11-.3-1.05-.38c-.41-.15-.64-.58-.54-1l.02-.06c.09-.37.44-.63.82-.6l1.2.1-2.61-1.03c-.39-.15-.64-.53-.64-.94s.34-.75.75-.76c.96-.01,2.61,0,3.4.23,0,0-3.41-.83-3.52-1.21-.16-.56.54-1.48,3.99-.82,3.45.66,5.07,2.1,5.07,2.1l12.52-7.44Z"/>
          <path d="M173.47,99.1c-.24,0-.48-.01-.71-.03-.57-.05-2.35-1.06-5.21-2.72-1.45-.84-2.81-1.63-3.73-2.1-.5-.25-.73-.83-.53-1.36l.02-.06-.81-.29c-.53-.19-.82-.75-.7-1.29v-.06c.11-.39.41-.68.78-.76l-1.2-.48c-.48-.19-.8-.65-.79-1.17,0-.55.45-1,1-1.01.25,0,.52,0,.8,0-1.06-.38-1.12-.57-1.14-.66-.08-.28,0-.57.21-.8.4-.43,1.42-.84,4.07-.33,2.95.56,4.58,1.68,5.05,2.04l12.06-7.16-2.18-1.69c-.06-.04-.09-.11-.1-.18,0-.07.02-.14.07-.19l9.65-9.82c.09-.1.25-.1.35,0,.24.22.47.43.69.63,1.35,1.24,2.52,2.3,4.33,4.45,1.9,2.25,2.73,4.89,2.42,7.64-.36,3.12-2.14,6.04-5.04,8.21-4.67,3.51-13.24,9.23-19.35,9.21ZM162.82,90.9c-.25,0-.46.16-.52.41v.06c-.09.3.08.6.37.71l1.05.38c.06.02.11.07.14.13.03.06.03.13,0,.19l-.11.3c-.11.28.02.6.29.74.93.47,2.31,1.27,3.76,2.11,2.01,1.16,4.5,2.61,5,2.65,5.98.5,14.92-5.47,19.72-9.08,2.74-2.06,4.51-4.93,4.84-7.87.3-2.61-.5-5.12-2.31-7.26-1.79-2.12-2.95-3.18-4.29-4.4-.17-.15-.34-.31-.51-.47l-9.28,9.45,2.25,1.75c.06.05.1.13.1.21,0,.08-.05.16-.12.2l-12.52,7.44c-.09.06-.21.04-.29-.03-.02-.01-1.62-1.41-4.95-2.04-2.71-.52-3.45,0-3.61.18-.1.11-.12.22-.1.29.25.21,1.77.68,3.15,1.02.07.02.14.03.21.05.13.04.21.17.17.3-.03.13-.17.21-.3.18-.07-.02-.14-.03-.2-.05-.82-.17-2.3-.19-3.14-.18-.28,0-.5.23-.5.51,0,.31.19.59.48.71l2.61,1.03c.11.05.18.17.15.29-.03.12-.14.2-.26.19l-1.2-.1s-.03,0-.04,0Z"/>
        </g>
        <path d="M165.67,91.48s-.05,0-.07-.01l-1.35-.42c-.13-.04-.2-.18-.16-.31.04-.13.18-.2.31-.16l1.35.42c.13.04.21.18.16.31-.03.11-.13.18-.24.18Z"/>
        <path d="M166.49,93.98s-.07,0-.1-.02c-.93-.41-1.89-.76-2.86-1.04-.13-.04-.21-.18-.17-.31.04-.13.18-.21.31-.17,1,.28,1.98.64,2.93,1.06.13.06.18.2.13.33-.04.09-.13.15-.23.15Z"/>
        <path d="M183.52,80.94c-.08,0-.16-.04-.21-.12-.07-.12-.04-.27.08-.34l4.08-2.5c.12-.07.27-.04.34.08.07.12.04.27-.08.34l-4.08,2.5s-.09.04-.13.04Z"/>
      </g>
    </g>
    <g>
      <path d="M158.34,41.66c.76-1.29,2.26-2.03,3.75-2.11,1.49-.08,2.97.42,4.27,1.15,1.94,1.1,3.71,3.04,3.52,5.26,1.45-.12,2.75,1.22,2.91,2.67.16,1.45-.61,2.87-1.67,3.87-.87.81-2.58,2.14-3.82,2.22-1.21.08-2.87-.99-3.84-1.63-2.38-1.55-4.28-3.87-5.21-6.56-.55-1.58-.76-3.42.09-4.87Z"/>
      <g>
        <polygon class="cls-1" points="167.48 51.95 166.62 59.04 169.27 59.67 160.69 64.72 157.68 59.99 160.3 59.08 160.81 53.92 167.48 51.95"/>
        <path d="M160.69,64.97c-.08,0-.16-.04-.21-.11l-3.02-4.73c-.04-.06-.05-.14-.03-.22.02-.07.08-.13.15-.15l2.48-.86.49-5c0-.1.08-.19.18-.21l6.67-1.98c.08-.02.17,0,.23.05.06.05.1.14.09.22l-.83,6.87,2.43.58c.1.02.17.1.19.2.02.1-.03.2-.12.25l-8.57,5.05s-.08.03-.13.03ZM158.05,60.12l2.72,4.26,7.83-4.62-2.05-.49c-.12-.03-.2-.15-.19-.27l.82-6.72-6.15,1.82-.49,4.99c0,.1-.07.18-.17.21l-2.33.81Z"/>
      </g>
      <g>
        <path class="cls-1" d="M167.23,49.93c.36-.4,1.03-.44,1.48-.13s.66.89.59,1.42c-.07.53-.41,1.01-.84,1.33s-.96.49-1.5.58c-.57,1.15-1.3,2.27-2.37,2.97-1.08.7-2.57.87-3.62.14-.67-.47-1.09-1.24-1.27-2.03-.18-.8-.15-1.63-.08-2.44.19-2.15.65-4.27,1.36-6.31.81-.04,1.64-.06,2.44.12.8.18,1.57.57,2.06,1.22.61.81.7,1.89.59,2.9-.03.31-.22,1.36.36,1.33.39-.03.57-.84.8-1.09Z"/>
        <path d="M162.52,56.96c-.59,0-1.18-.15-1.71-.52-.67-.46-1.16-1.24-1.37-2.18-.19-.85-.15-1.71-.08-2.52.19-2.17.65-4.31,1.37-6.37.03-.1.12-.16.22-.17.81-.04,1.67-.06,2.5.13.94.21,1.73.68,2.21,1.32.56.75.78,1.78.64,3.07v.1c-.08.52-.06.84.03.93,0,0,.02.02.07.02.11,0,.28-.36.36-.54.09-.18.17-.36.28-.47.43-.48,1.24-.55,1.8-.17.5.34.78,1.01.69,1.66-.08.57-.42,1.12-.94,1.5-.4.29-.89.49-1.48.6-.47.92-1.21,2.18-2.4,2.95-.61.39-1.4.66-2.19.66ZM161.15,45.7c-.68,1.97-1.11,4.02-1.29,6.09-.07.77-.1,1.58.07,2.36.19.82.6,1.49,1.17,1.88.89.61,2.26.55,3.35-.15,1.14-.74,1.85-1.99,2.28-2.87.04-.07.1-.12.18-.14.56-.09,1.03-.27,1.39-.53.41-.3.68-.73.74-1.17.06-.47-.13-.94-.48-1.18-.36-.24-.89-.2-1.15.1-.06.06-.13.22-.2.35-.17.35-.38.79-.78.82-.18.01-.34-.05-.46-.17-.28-.29-.24-.84-.17-1.34v-.09c.14-1.16-.05-2.07-.53-2.72-.41-.54-1.09-.95-1.92-1.13-.72-.16-1.48-.15-2.2-.12ZM167.23,49.93h0s0,0,0,0Z"/>
      </g>
      <path d="M166.6,52.61s-.1-.01-.14-.04c-.11-.08-.14-.23-.06-.35.34-.49.89-.83,1.49-.9.14-.02.26.08.28.22.02.14-.08.26-.22.28-.45.05-.88.31-1.13.68-.05.07-.13.11-.21.11Z"/>
    </g>
  </g>
</svg>