<?xml version="1.0" encoding="UTF-8"?>
<svg id="Capa_1" data-name="Capa 1" xmlns="http://www.w3.org/2000/svg" viewBox="0 0 218.53 218.53">
  <defs>
    <style>
      .cls-1 {
        fill: #ff9671;
      }

      .cls-2 {
        opacity: .27;
      }

      .cls-2, .cls-3 {
        fill: #ff8f68;
      }

      .cls-4 {
        fill: #fff;
      }

      .cls-5 {
        fill: #ffe9e1;
      }

      .cls-6 {
        opacity: .41;
      }

      .cls-7 {
        opacity: .39;
      }

      .cls-8 {
        fill: #ffbca4;
      }
    </style>
  </defs>
  <circle class="cls-5" cx="119.81" cy="118.04" r="95.41"/>
  <g>
    <g>
      <g>
        <g>
          <rect class="cls-4" x="23.16" y="28.84" width="32.79" height="92.53" transform="translate(79.11 150.21) rotate(-180)"/>
          <path d="M55.95,121.6H23.16c-.13,0-.23-.1-.23-.23V28.84c0-.13.1-.23.23-.23h32.79c.13,0,.23.1.23.23v92.53c0,.13-.1.23-.23.23ZM23.38,121.14h32.34V29.07H23.38v92.07Z"/>
        </g>
        <path d="M55.95,44.56h-22.22c-.13,0-.23-.1-.23-.23s.1-.23.23-.23h22.22c.13,0,.23.1.23.23s-.1.23-.23.23Z"/>
        <path d="M55.95,56.33h-22.22c-.13,0-.23-.1-.23-.23s.1-.23.23-.23h22.22c.13,0,.23.1.23.23s-.1.23-.23.23Z"/>
        <path d="M55.95,68.1h-22.22c-.13,0-.23-.1-.23-.23s.1-.23.23-.23h22.22c.13,0,.23.1.23.23s-.1.23-.23.23Z"/>
        <path d="M55.95,79.87h-22.22c-.13,0-.23-.1-.23-.23s.1-.23.23-.23h22.22c.13,0,.23.1.23.23s-.1.23-.23.23Z"/>
      </g>
      <g>
        <g>
          <polygon class="cls-4" points=".38 121.37 29.49 121.37 29.49 36.64 .38 54.96 .38 121.37"/>
          <path d="M29.49,121.6H.38c-.13,0-.23-.1-.23-.23V54.96c0-.08.04-.15.11-.19l29.11-18.32c.07-.04.16-.05.23,0,.07.04.12.12.12.2v84.73c0,.13-.1.23-.23.23ZM.6,121.14h28.65V37.06L.6,55.09v66.06Z"/>
        </g>
        <path d="M23.16,121.6c-.13,0-.23-.1-.23-.23v-28.74H6.97v9.04c0,.13-.1.23-.23.23s-.23-.1-.23-.23v-9.27c0-.13.1-.23.23-.23h16.42c.13,0,.23.1.23.23v28.96c0,.13-.1.23-.23.23Z"/>
      </g>
      <g>
        <path class="cls-4" d="M64.53,121.37c4.73-2.15,7.3-8.15,5.62-13-1.68-4.85-7.37-7.98-12.44-6.84-1.1-4.61-5.58-8.23-10.39-8.39-4.81-.17-9.53,3.13-10.96,7.66-1.43,4.52.57,9.87,4.63,12.41-2.19-1.66-5.69-1.3-7.48.77-1.79,2.08-1.59,5.53.43,7.39h30.59Z"/>
        <path d="M64.53,121.6h-30.59c-.06,0-.11-.02-.15-.06-2.11-1.94-2.32-5.54-.45-7.71,1.4-1.62,3.81-2.24,5.88-1.71-3.01-2.86-4.33-7.43-3.08-11.39,1.46-4.63,6.27-8,11.18-7.82,4.84.17,9.34,3.74,10.55,8.35,5.12-1.02,10.8,2.16,12.49,7.03,1.73,5-.9,11.09-5.74,13.28-.03.01-.06.02-.09.02ZM34.03,121.14h30.45c4.61-2.12,7.1-7.93,5.45-12.7-1.64-4.74-7.22-7.8-12.18-6.69-.12.03-.24-.05-.27-.17-1.08-4.52-5.45-8.05-10.18-8.22-4.72-.16-9.34,3.06-10.73,7.5-1.34,4.25.4,9.23,4.05,11.83.17.1.34.21.5.33.1.07.12.21.05.31-.07.1-.21.13-.31.06-.17-.1-.33-.21-.49-.33-2.1-1.22-5.1-.79-6.7,1.06-1.7,1.96-1.53,5.22.35,7.01Z"/>
      </g>
    </g>
    <g>
      <g>
        <g>
          <path class="cls-4" d="M108.94,208.33l4.68,3.1c2.57,1.38,1.23,5.22-1.81,5.19l-21.49-.22c-3.65-.04-6.01-1.79-6.36-5.12-.1-.97.09-2.43.14-3.82h0l.28-94.75,25.2,5.35-.64,90.26Z"/>
          <path d="M111.84,216.84s-.03,0-.04,0l-21.49-.22c-3.83-.04-6.23-1.98-6.58-5.32-.07-.65,0-1.5.06-2.4.03-.48.07-.97.08-1.45l.28-94.74c0-.07.03-.13.08-.18.05-.04.12-.06.19-.05l25.2,5.35c.11.02.18.12.18.22l-.64,90.14,4.57,3.03c1.17.63,1.7,1.84,1.36,3.14-.31,1.19-1.46,2.47-3.26,2.47ZM84.61,113l-.28,94.47c-.02.5-.05.99-.09,1.47-.06.88-.12,1.71-.06,2.32.33,3.13,2.5,4.87,6.13,4.91l21.49.22c1.59.01,2.58-1.06,2.85-2.13.22-.85.03-2-1.15-2.63l-4.69-3.11c-.06-.04-.1-.11-.1-.19l.64-90.08-24.74-5.25Z"/>
        </g>
        <path d="M93.86,210.56c-4.01,0-6.9-1.3-8.43-3.81-.07-.11-.03-.25.08-.31.11-.07.25-.03.31.08,4.05,6.62,16.62,2.08,17.47,1.77l2.11-2.11c.52-.52,1.21-.81,1.95-.81h1.35c.13,0,.23.1.23.23s-.1.23-.23.23h-1.35c-.61,0-1.19.24-1.62.67l-2.14,2.14s-.05.04-.08.05c-.03.01-3.44,1.32-7.33,1.74-.8.09-1.57.13-2.3.13Z"/>
      </g>
      <g>
        <g>
          <g>
            <g class="cls-6">
              <ellipse class="cls-2" cx="175.43" cy="176.31" rx="41.33" ry="41.34"/>
              <path class="cls-8" d="M175.43,217.76c-22.85,0-41.45-18.6-41.45-41.46s18.59-41.46,41.45-41.46,41.45,18.6,41.45,41.46-18.59,41.46-41.45,41.46Z"/>
            </g>
            <circle class="cls-3" cx="175.43" cy="176.31" r="4.47" transform="translate(-.78 .78) rotate(-.25)"/>
          </g>
          <g class="cls-7">
            <ellipse class="cls-2" cx="41.83" cy="176.31" rx="41.33" ry="41.34"/>
            <path class="cls-8" d="M41.83,217.76C18.98,217.76.39,199.17.39,176.31s18.59-41.46,41.45-41.46,41.45,18.6,41.45,41.46-18.59,41.46-41.45,41.46Z"/>
          </g>
          <g>
            <path d="M96.15,176.89h-54.69c-.09,0-.17-.05-.2-.13-.04-.08-.03-.17.02-.24l33.43-43.36c.04-.06.11-.09.18-.09h70.67c.1,0,.18.06.21.15.03.09,0,.19-.06.25l-49.4,43.36s-.1.06-.15.06ZM41.93,176.43h54.14l48.88-42.9h-69.95l-33.08,42.9Z"/>
            <path d="M175.68,176.54c-.07,0-.14-.03-.19-.1l-37.73-54.25c-.05-.07-.05-.16-.01-.24l9.17-16.64c.06-.11.2-.15.31-.09.11.06.15.2.09.31l-9.1,16.51,37.65,54.14c.07.1.05.25-.06.32-.04.03-.09.04-.13.04Z"/>
            <path d="M94.89,168.19c-.08,0-.16-.04-.2-.11l-20.02-34.66s-.03-.07-.03-.11v-11.88c0-.13.1-.23.23-.23s.23.1.23.23v11.82l19.98,34.61c.06.11.03.25-.08.31-.04.02-.08.03-.11.03Z"/>
          </g>
          <g>
            <circle class="cls-4" cx="94.89" cy="176.31" r="8.27" transform="translate(-.2 .11)"/>
            <path d="M94.89,184.8c-4.68,0-8.49-3.81-8.49-8.5s3.81-8.5,8.49-8.5,8.49,3.81,8.49,8.5-3.81,8.5-8.49,8.5ZM94.89,168.27c-4.43,0-8.04,3.61-8.04,8.04s3.61,8.04,8.04,8.04,8.04-3.61,8.04-8.04-3.61-8.04-8.04-8.04Z"/>
          </g>
          <circle class="cls-3" cx="41.83" cy="176.31" r="4.47" transform="translate(-.78 .19) rotate(-.25)"/>
        </g>
        <g>
          <circle class="cls-1" cx="146.8" cy="105.42" r="2.32"/>
          <path class="cls-1" d="M146.8,107.85c-1.34,0-2.43-1.09-2.43-2.43s1.09-2.43,2.43-2.43,2.43,1.09,2.43,2.43-1.09,2.43-2.43,2.43ZM146.8,103.21c-1.22,0-2.2.99-2.2,2.2s.99,2.2,2.2,2.2,2.2-.99,2.2-2.2-.99-2.2-2.2-2.2Z"/>
        </g>
      </g>
      <g>
        <g>
          <g>
            <path class="cls-4" d="M118.84,177.81l4.68,3.1c2.57,1.38,1.23,5.22-1.81,5.19l-21.49-.22c-3.65-.04-6.62-2.85-6.97-6.18-.1-.97.19-1.95.76-2.75h0l23.59-32.6-24.94-16.3c-8.31-5.42-13.02-13.42-9.64-21.66,2.51-6.13,6.25-10.03,6.25-10.03l25.57,1.72-2.7,10.43,25.68,22.29c5.64,4.55,8.68,11.45,4.51,17.35l-23.47,29.65Z"/>
            <path d="M121.75,186.33s-.03,0-.04,0l-21.49-.22c-3.67-.04-6.82-2.84-7.19-6.39-.1-1,.18-2.04.8-2.9l23.45-32.4-24.74-16.17c-9.25-6.03-12.89-14.23-9.73-21.93,2.5-6.1,6.26-10.06,6.3-10.1.05-.05.11-.07.18-.07l25.57,1.72c.07,0,.13.04.17.09.04.06.05.12.04.19l-2.67,10.29,25.57,22.2c2.95,2.38,5.08,5.32,6,8.27,1.04,3.32.53,6.57-1.46,9.38l-23.33,29.46,4.47,2.96c1.17.63,1.7,1.84,1.36,3.14-.31,1.19-1.46,2.47-3.26,2.47ZM89.35,96.61c-.53.58-3.86,4.33-6.13,9.88-3.07,7.49.5,15.48,9.56,21.38l24.94,16.3c.05.03.09.09.1.15s0,.12-.04.18l-23.59,32.6c-.55.78-.81,1.7-.71,2.59.35,3.32,3.31,5.95,6.74,5.98l21.49.22s.02,0,.04,0c1.57,0,2.54-1.07,2.82-2.13.22-.85.03-2-1.15-2.63l-4.69-3.11c-.05-.04-.09-.09-.1-.15-.01-.06,0-.13.05-.18l23.47-29.65c4.46-6.3.38-13.11-4.47-17.03l-25.69-22.3c-.07-.06-.09-.15-.07-.23l2.63-10.16-25.18-1.7Z"/>
          </g>
          <path d="M108.4,178.58c-3.99,0-8.58-.91-10.83-4.59-.07-.11-.03-.25.08-.31.11-.07.25-.03.31.08,4.04,6.6,16.5,3.77,17.48,3.53l2.1-2.1c.52-.52,1.21-.81,1.95-.81h1.35c.13,0,.23.1.23.23s-.1.23-.23.23h-1.35c-.61,0-1.19.24-1.62.67l-2.14,2.15s-.07.05-.1.06c-.27.07-3.48.87-7.21.87Z"/>
          <path d="M116.63,187.91h0l-12.05-.13c-.13,0-.23-.1-.23-.23,0-.13.1-.23.23-.23l12.05.13c.13,0,.23.1.23.23,0,.13-.1.23-.23.23Z"/>
        </g>
        <g>
          <path class="cls-1" d="M82.08,91.31c-.55,2.07-1.23,5.58-1.08,7.89.34,5.5,5.53,9.65,13.22,7.58l.62-.15,21.54.39,2.64-9.32s9.46,17.64,26.52,4.78l6.1-2.22-12.06-6.2s-5.47-11.19-11.1-18.8c-3.19-4.3-7.94-7.18-13.23-8.01-4.65-.73-10.96-1.36-17.73-.99-4.35.23-12.05,12.37-15.43,25.06Z"/>
          <g>
            <path class="cls-4" d="M144.89,100.07h9.59c1.58,0,3.06.87,3.74,2.3.18.39.31.78.31,1.14,0,.87-2.53,2.51-4.51,3.66-1.23.72-2.81.37-3.62-.81-1.17-1.71-2.86-3.8-4.02-3.54-1.92.43-1.2,1.48-2.56,1.88-1.36.4-2.4-4.19,1.07-4.63Z"/>
            <path d="M152.65,107.77c-.95,0-1.88-.45-2.44-1.28-1.62-2.37-3-3.63-3.79-3.45-.96.22-1.18.58-1.41.96-.2.33-.43.71-1.13.92-.41.12-.83-.08-1.13-.56-.07-.11-.04-.25.07-.32.11-.07.25-.04.32.07.11.17.34.45.62.37.53-.15.68-.4.87-.72.26-.42.55-.91,1.7-1.17,1.02-.23,2.46.99,4.26,3.64.73,1.07,2.19,1.4,3.31.74,4.08-2.36,4.4-3.24,4.4-3.46,0-.29-.1-.64-.29-1.04-.62-1.32-2.01-2.17-3.54-2.17h-2.85c-.13,0-.23-.1-.23-.23s.1-.23.23-.23h2.85c1.7,0,3.25.96,3.95,2.43.22.46.33.88.33,1.24,0,.29,0,1.17-4.62,3.85-.46.27-.97.4-1.48.4Z"/>
            <path d="M153.84,107.33c-.1,0-.19-.07-.22-.17-.57-2.07-2.04-3.92-3.93-4.93-.11-.06-.15-.2-.09-.31.06-.11.2-.15.31-.09,2,1.08,3.55,3.03,4.15,5.22.03.12-.04.25-.16.28-.02,0-.04,0-.06,0Z"/>
            <path d="M155.63,106.21c-.1,0-.19-.07-.22-.17-.47-1.75-1.6-3.32-3.12-4.32-.11-.07-.13-.21-.07-.32.07-.1.21-.13.32-.07,1.61,1.05,2.81,2.72,3.31,4.58.03.12-.04.25-.16.28-.02,0-.04,0-.06,0Z"/>
            <path d="M157.08,105.32c-.1,0-.2-.07-.22-.18-.33-1.38-1.08-2.68-2.11-3.66-.09-.09-.1-.23,0-.32.09-.09.23-.1.32,0,1.09,1.04,1.89,2.42,2.24,3.89.03.12-.05.25-.17.27-.02,0-.04,0-.05,0Z"/>
          </g>
          <path d="M97.28,92.05s-.04,0-.06,0c-.12-.03-.19-.16-.16-.28l2.91-10.5c.03-.12.16-.19.28-.16.12.03.19.16.16.28l-2.91,10.5c-.03.1-.12.17-.22.17Z"/>
          <path d="M116.06,96.17l4.47-14.49c.15-.48.59-.8,1.09-.8h7.97c.77,0,1.31.74,1.09,1.47l-4.47,14.49c-.15.48-.59.8-1.09.8h-7.97c-.77,0-1.31-.74-1.09-1.47Z"/>
          <g>
            <path class="cls-4" d="M110.21,99.91c4.8-1.81,8.06-3.12,8.06-3.12,0,0,1.92-.02,4.18,0,2.25.02,3.25-1.81,3.25-1.81,1.72-.04,1.9-2.7,1.9-2.7,2.43-.14,2.06-2.68,2.06-2.68,0,0-13.53-.44-10.2-2.02,3.33-1.58,1.15-3.29,1.15-3.29l-11.91,3.95c-1.84,5.87-.15,8.91,1.52,11.67Z"/>
            <path d="M93.84,93.18c-.1,0-.19-.06-.22-.16-.04-.12.03-.25.15-.29l14.37-4.46c.12-.04.25.03.29.15.04.12-.03.25-.15.29l-14.37,4.46s-.05.01-.07.01Z"/>
            <path d="M94.99,106.65c-.09,0-.17-.05-.21-.14-.05-.12,0-.25.12-.3l15.03-6.41c.12-.05.25,0,.3.12.05.12,0,.25-.12.3l-15.03,6.41s-.06.02-.09.02Z"/>
            <path d="M125.7,95.2h-5.6c-.13,0-.23-.1-.23-.23s.1-.23.23-.23h5.6c.13,0,.23.1.23.23s-.1.23-.23.23Z"/>
            <path d="M127.58,92.47h-5.6c-.13,0-.23-.1-.23-.23s.1-.23.23-.23h5.6c.13,0,.23.1.23.23s-.1.23-.23.23Z"/>
          </g>
        </g>
        <g>
          <g>
            <path d="M125.31,54.38c.71-.88,1.28-1.98,1.11-3.1-.2-1.24-1.25-2.14-2.23-2.93-2.19-1.76-4.56-3.59-7.36-3.79-3.21-.23-6.24,1.83-8.03,4.5-1.19,1.77-1.95,3.87-1.87,5.99.08,2.13,1.06,4.26,2.81,5.48,1.8,1.25,4.23,1.4,6.31.7,2.04-.69,3.33-2.06,4.85-3.48,1.38-1.29,3.16-1.84,4.41-3.38Z"/>
            <path d="M109,53.14s-9.3-5.94-14.5-1.82c-6.25,4.95.22,16.08-9.12,15.58-9.34-.5,1.16,14.7,10.37,10.16,10.51-5.18,5.38-15.43,8.32-19.28,2.32-3.03,4.05-2.08,4.05-2.08l.88-2.57Z"/>
          </g>
          <g>
            <g>
              <path class="cls-4" d="M114.73,57.21l-6.2,9.21c-.44.66-.55,1.49-.26,2.23.54,1.35,2.09,3.27,6.53,3.87,4,.54,5.56-2.59,3.7-4.01-.71-.54-1.68-.97-1.68-.97l3.96-7.38-6.04-2.95Z"/>
              <path d="M116.53,68.33s-.07,0-.11-.03c-.11-.06-.15-.2-.09-.31l4.13-7.74-5.65-2.75-5.83,8.9c-.07.11-.21.13-.32.07-.11-.07-.13-.21-.07-.32l5.94-9.07c.06-.1.19-.13.29-.08l6.04,2.95c.06.03.1.08.12.13.02.06.01.12-.02.18l-4.24,7.95c-.04.08-.12.12-.2.12Z"/>
            </g>
            <g>
              <g>
                <path class="cls-4" d="M123.96,56.24c.06,1.29-.11,2.61-.7,3.76-.59,1.15-1.63,2.1-2.88,2.4-1.09.26-2.26,0-3.22-.56-.96-.56-1.73-1.42-2.33-2.37-1.14.24-2.41-.39-2.91-1.45-.29-.61-.31-1.37.06-1.93.38-.56,1.2-.81,1.77-.45.32.21.52.57.85.77.37.22.85.18,1.23,0,.38-.19.69-.51.94-.86.79-1.09,1.17-2.48,1.05-3.82.01.13.64.4.75.46.28.14.57.25.87.34.59.18,1.21.25,1.82.23.31-.01.62-.05.93-.11.24-.05.57-.23.82-.2.52.06.54,1.03.62,1.41.16.79.28,1.59.32,2.4Z"/>
                <path d="M119.51,62.72c-.83,0-1.69-.24-2.47-.69-.88-.51-1.66-1.29-2.32-2.31-1.21.18-2.48-.49-3-1.6-.35-.74-.32-1.57.08-2.16.46-.69,1.44-.93,2.08-.51.18.12.32.27.45.41.13.14.25.27.39.35.28.16.67.16,1.02-.01.3-.15.57-.4.85-.79.76-1.04,1.13-2.38,1-3.66,0,0,0,0,0,0-.01-.13.08-.24.21-.25.1-.01.19.05.23.14.05.04.19.13.57.31l.08.04c.26.13.55.24.83.33.57.17,1.16.24,1.75.22.3-.01.6-.05.89-.11.07-.01.16-.05.25-.08.2-.07.43-.15.64-.12.6.07.71.85.78,1.36.01.09.02.17.04.23.19.95.29,1.72.33,2.43h0c.07,1.49-.17,2.8-.72,3.87-.66,1.28-1.79,2.22-3.03,2.51-.3.07-.61.1-.92.1ZM114.83,59.24c.08,0,.15.04.19.11.64,1.02,1.4,1.79,2.25,2.29.97.57,2.09.77,3.05.54,1.11-.26,2.13-1.11,2.73-2.28.51-1.01.74-2.23.67-3.64-.03-.69-.13-1.44-.32-2.36-.01-.07-.03-.16-.04-.26-.05-.33-.13-.94-.38-.97-.11-.01-.28.05-.44.1-.1.04-.21.07-.31.09-.31.07-.64.11-.97.12-.64.03-1.28-.06-1.9-.24-.31-.09-.62-.21-.91-.36l-.07-.03c-.13-.06-.24-.11-.33-.16,0,1.24-.39,2.49-1.11,3.49-.33.45-.66.75-1.02.93-.49.24-1.04.24-1.45,0-.2-.12-.35-.28-.5-.44-.12-.13-.23-.25-.37-.34-.44-.28-1.13-.1-1.46.38-.3.45-.32,1.12-.05,1.71.45.96,1.62,1.54,2.66,1.32.02,0,.03,0,.05,0ZM118.05,51.7s0,0,0,0h0s0,0,0,0Z"/>
              </g>
              <g>
                <path class="cls-4" d="M113.26,57.18c.61.05,1.17.5,1.36,1.09l-1.36-1.09Z"/>
                <path d="M114.62,58.5c-.1,0-.19-.06-.22-.16-.16-.5-.63-.88-1.16-.93-.13-.01-.22-.12-.21-.25.01-.13.12-.22.25-.21.7.06,1.34.57,1.56,1.25.04.12-.03.25-.15.29-.02,0-.05.01-.07.01Z"/>
              </g>
            </g>
          </g>
        </g>
        <g>
          <path class="cls-4" d="M87.39,125.19h-22.97c-1.59,0-2.88-1.29-2.88-2.88h0c0-1.59,1.29-2.88,2.88-2.88h22.97c1.59,0,2.88,1.29,2.88,2.88h0c0,1.59-1.29,2.88-2.88,2.88Z"/>
          <path d="M87.39,125.42h-22.97c-1.72,0-3.11-1.4-3.11-3.11s1.4-3.11,3.11-3.11h22.97c1.72,0,3.11,1.4,3.11,3.11s-1.4,3.11-3.11,3.11ZM64.42,119.65c-1.46,0-2.65,1.19-2.65,2.66s1.19,2.66,2.66,2.66h22.97c1.46,0,2.65-1.19,2.65-2.66s-1.19-2.66-2.65-2.66h-22.97Z"/>
        </g>
      </g>
    </g>
  </g>
</svg>