<?xml version="1.0" encoding="UTF-8"?>
<svg id="Capa_1" data-name="Capa 1" xmlns="http://www.w3.org/2000/svg" viewBox="0 0 218.53 218.53">
  <defs>
    <style>
      .cls-1 {
        fill: #fff;
      }

      .cls-2 {
        fill: #26aaaa;
      }

      .cls-3 {
        fill: #ccefee;
      }
    </style>
  </defs>
  <circle class="cls-3" cx="123.19" cy="96.83" r="95.41"/>
  <g>
    <g>
      <path class="cls-1" d="M187.75,218.29H12.34c-.99,0-1.86-.64-2.17-1.58L.54,186.79c-.47-1.47.62-2.97,2.17-2.97h175.41c.99,0,1.86.64,2.17,1.58l9.63,29.92c.47,1.47-.62,2.97-2.17,2.97Z"/>
      <path d="M187.75,218.53H12.34c-1.1,0-2.06-.7-2.39-1.74L.31,186.86c-.25-.77-.12-1.59.36-2.25.48-.66,1.22-1.03,2.03-1.03h175.41c1.1,0,2.06.7,2.39,1.74l9.63,29.92c.25.77.12,1.59-.36,2.25-.48.66-1.22,1.03-2.03,1.03ZM2.7,184.06c-.66,0-1.26.3-1.65.84-.39.53-.49,1.2-.29,1.82l9.63,29.92c.27.84,1.05,1.41,1.94,1.41h175.41c.66,0,1.26-.3,1.64-.84.39-.53.49-1.2.29-1.82l-9.63-29.92c-.27-.84-1.05-1.41-1.94-1.41H2.7Z"/>
    </g>
    <g>
      <g>
        <g>
          <g>
            <path class="cls-1" d="M150.83,80l.69.74c4.78,5.15,17.78-.13,19.84,6.24,1.28,3.96,1.77,15.81,1.9,19.99.75,25.39.15,68.69-.01,84.92-.02,2.45-2.23,4.43-4.95,4.43h-28.16c-1.91,0-2.97-1.99-1.79-3.34l4.13-4.73,3.11-58.09-24.72,63.17c-.7,1.79-2.57,2.99-4.68,2.99h-30.03c-1.97,0-3.01-2.1-1.7-3.43l5.55-5.64,45.42-97.17,15.41-10.07Z"/>
            <path d="M168.3,196.56h-28.16c-1.04,0-1.93-.55-2.33-1.42-.36-.78-.22-1.65.36-2.31l4.08-4.66,3.03-56.52-24.18,61.78c-.73,1.88-2.7,3.14-4.9,3.14h-30.03c-1.05,0-1.98-.58-2.36-1.48-.34-.82-.16-1.7.48-2.36l5.53-5.61,45.4-97.13s.05-.07.09-.1l15.41-10.07c.1-.06.23-.05.31.04l.69.74c2.19,2.35,6.19,2.46,10.07,2.57,4.47.12,8.69.23,9.83,3.76,1.38,4.27,1.83,17.45,1.91,20.05.66,22.55.27,58.96.05,78.52-.03,2.43-.05,4.59-.07,6.41-.03,2.57-2.35,4.67-5.19,4.67ZM145.59,129.92s.03,0,.05,0c.11.02.19.13.19.25l-3.11,58.09c0,.05-.02.1-.06.14l-4.13,4.73c-.45.52-.56,1.19-.28,1.8.32.7,1.05,1.14,1.89,1.14h28.16c2.57,0,4.69-1.88,4.71-4.19.02-1.82.04-3.98.07-6.41.21-19.56.61-55.96-.05-78.5-.08-2.59-.53-15.71-1.89-19.92-1.04-3.2-5.09-3.31-9.39-3.43-3.97-.11-8.08-.22-10.4-2.72l-.55-.59-15.18,9.93-45.39,97.1s-.03.05-.05.07l-5.55,5.64c-.51.51-.65,1.2-.38,1.84.3.72,1.05,1.19,1.91,1.19h30.03c2,0,3.79-1.14,4.45-2.84l24.72-63.17c.04-.09.13-.15.22-.15ZM90.01,187.24h0,0Z"/>
          </g>
          <path d="M118.94,189.38s0,0,0,0c-9.08-.37-18.26-1.03-27.3-1.98-.13-.01-.23-.13-.21-.26.01-.13.13-.23.26-.21,9.03.94,18.2,1.6,27.27,1.97.13,0,.23.12.23.25,0,.13-.11.23-.24.23Z"/>
          <path d="M159.07,188.89c-5.54,0-11.1-.06-16.6-.19-.13,0-.24-.11-.23-.24,0-.13.11-.25.24-.23,8.14.19,16.41.23,24.56.14h0c.13,0,.24.11.24.24,0,.13-.1.24-.24.24-2.65.03-5.31.04-7.98.04Z"/>
          <path d="M145.33,131.04s-.06,0-.08-.02c-.12-.05-.19-.18-.14-.31l3.93-10.51c.99-2.66,2.17-5.36,4.65-6.59.12-.06.26,0,.32.11.06.12,0,.26-.11.32-2.32,1.15-3.41,3.64-4.42,6.32l-3.93,10.51c-.04.1-.13.16-.22.16Z"/>
        </g>
        <g>
          <g>
            <path class="cls-1" d="M137.91,65.2c-6.21.4-12.42.8-18.63,1.2-2.07,4.23-4.14,8.45-6.21,12.68-5.86,1.84-11.89,3.86-18.05,6.08-4.26,1.54-8.41,3.11-12.45,4.7-2.91-.51-6.41-1-8.91-.98-5.15.05-5.4,2.29-3.67,2.76,1.24.34,3.26.45,4.25.49-5.28-.11-6.9,1.29-6.58,2.13.45,1.19,3.28,1.41,4.91,1.43-2.41.15-3.83,1.07-3.05,1.91.89.97,4.39,1.06,4.39,1.06-3.62-.03-2.98,1.23-1.66,1.62.51.15.89.28.96.29,8.36.94,11.74.41,11.74.41,13.35-2.07,24.07-6.02,24.07-6.02,4.94-1.82,7.41-2.73,10.16-4.38,8.67-5.21,13.01-11.99,13.96-13.56,1.5-2.46,3.56-6.44,4.77-11.83Z"/>
            <path d="M81.89,101.37c-1.9,0-4.74-.12-8.71-.57-.06,0-.16-.04-.44-.12-.16-.05-.35-.11-.56-.17-.66-.19-1.29-.63-1.21-1.16.04-.29.27-.51.69-.66-.93-.16-1.88-.44-2.32-.92-.27-.29-.34-.62-.21-.94.17-.42.69-.77,1.44-1.02-1.47-.18-2.8-.59-3.13-1.46-.11-.28-.05-.6.15-.89.47-.66,1.63-1.14,3.29-1.39-.34-.06-.66-.12-.95-.2-.75-.21-1.21-.74-1.13-1.33.12-.9,1.45-1.87,4.86-1.9,2.08-.02,5.07.31,8.89.97,4.09-1.62,8.26-3.19,12.39-4.68,5.92-2.14,11.96-4.17,17.96-6.06l6.16-12.58c.04-.08.11-.13.2-.13l18.63-1.2c.08,0,.15.03.2.08.05.06.07.13.05.21-.96,4.25-2.58,8.26-4.8,11.9-1.51,2.47-5.9,8.74-14.04,13.64-2.77,1.67-5.25,2.58-10.2,4.4-.11.04-10.9,3.98-24.12,6.04-.07.01-1.02.15-3.09.15ZM73.78,98.91c-1.78,0-2.31.33-2.34.51-.02.15.27.46.87.63.22.06.41.12.57.17.16.05.32.1.36.11,8.21.92,11.64.42,11.68.42,13.17-2.04,23.92-5.97,24.02-6.01,4.92-1.81,7.39-2.72,10.12-4.36,8.05-4.84,12.39-11.04,13.88-13.48,2.15-3.51,3.72-7.36,4.67-11.44l-18.17,1.17-6.14,12.55c-.03.06-.08.1-.14.12-6.02,1.89-12.09,3.94-18.04,6.08-4.15,1.5-8.33,3.08-12.44,4.7-.04.02-.09.02-.13.01-3.77-.66-6.83-.99-8.87-.97-2.89.03-4.3.79-4.39,1.49-.04.35.26.66.78.8,1.2.33,3.14.44,4.19.48.13,0,.23.11.23.25,0,.13-.11.24-.24.23-3.85-.08-5.76.66-6.26,1.37-.11.16-.15.31-.1.44.29.77,2,1.24,4.69,1.28.13,0,.23.11.24.23,0,.13-.1.24-.22.24-1.74.11-2.83.62-3.02,1.07-.04.09-.06.23.12.44.67.73,3.27.96,4.22.98.13,0,.24.11.23.24,0,.13-.11.24-.24.24-.04,0-.08,0-.12,0Z"/>
          </g>
          <g>
            <path class="cls-2" d="M130.02,74.93c-.07,7.53-.17,13.31-.31,18.36-.04,1.56-.09,3.05.91,4.05,2.14,2.14,6.49-.56,16.31-2.66,6.44-1.38,9.66-2.06,13.32-2.16,5.54-.15,10.03.68,12.92-2.25.92-.93,1.4-1.96,1.66-2.68-.46-4.13-1.22-10.06-2.5-17.16-2.8-15.55-4.2-23.33-8.07-26.53-8.89-7.37-26.28-2.7-36.49,4.71-3.53,2.56-5.86,4.29-7.63,7.38-1.74,3.03-2.74,6.12-4.49,12.43-.73,2.63-1.25,4.81-1.59,6.29,5.32.08,10.64.15,15.96.23Z"/>
            <path d="M130.17,74.59s-.01,0-.02,0c-.13,0-.23-.12-.22-.25l.53-8.43c0-.13.12-.23.25-.22.13,0,.23.12.22.25l-.53,8.43c0,.13-.11.22-.24.22Z"/>
            <path d="M157.44,62.12s-.05,0-.07,0c-.13-.04-.2-.17-.16-.3l3.13-10.65c.04-.13.17-.2.3-.16.13.04.2.17.16.3l-3.13,10.65c-.03.1-.13.17-.23.17Z"/>
            <path d="M138.09,63.55h-1.56c-.08,0-.15-.04-.19-.1-.05-.06-.06-.14-.04-.21l3.13-10.65c.04-.13.17-.2.3-.16.13.04.2.17.16.3l-3.04,10.34h1.24c.13,0,.24.11.24.24s-.11.24-.24.24Z"/>
          </g>
        </g>
        <g>
          <path class="cls-1" d="M134.7,45.05l-3.12-4.86s-2.59-8.46,6.36-5.92l5.66,7.93s-.64,3.36-4.57,4.96c-4.73,1.93-6.78-1.29-6.78-1.29l2.45-.83Z"/>
          <path d="M132.25,46.12c-.1,0-.19-.06-.23-.16-.04-.13.03-.26.15-.3l2.16-.73-2.95-4.6s-.02-.04-.03-.06c-.05-.15-1.13-3.79.7-5.66,1.14-1.17,3.15-1.36,5.96-.56.05.01.1.05.13.09l5.66,7.93c.08.11.05.26-.06.33-.11.08-.26.05-.33-.06l-5.61-7.87c-2.58-.72-4.4-.57-5.4.45-1.55,1.58-.69,4.81-.59,5.16l3.1,4.83c.04.06.05.14.02.21-.02.07-.08.12-.15.15l-2.45.83s-.05.01-.08.01Z"/>
          <g>
            <g>
              <path d="M127.99,30.13c-3.21,1.57-4.69,1.48-4.69,1.48,0,0-1.38.1-2.5-1.97-1.13-2.07.1-7.3,6.78-6.77,6.68.53,13.94.26,10.84,3.61,0,0,4.7,1.93-.78,5.26l-.11,3.51s1.57,7.12-3.91,9.19c-5.48,2.07-5.54-.79-6.39-2.93-.25-.63-.69-1.74-1.19-2.99,1.22-.38,2.83-.73,4.97-1.11,4.63-.82.2-8.85-3.02-7.29Z"/>
              <g>
                <path class="cls-1" d="M127.99,30.13c3.21-1.57,5.48-2.51,6.44.68.96,3.2,1.21,5.78-3.42,6.61-2.14.38-3.75.73-4.97,1.11-1.2-3.03-2.74-6.91-2.74-6.91,0,0,1.48.08,4.69-1.48Z"/>
                <path d="M132.15,29.16c.64,0,1.35.21,1.82,1.79.56,1.87.81,3.33.18,4.35-.5.81-1.55,1.35-3.22,1.64-1.99.35-3.47.67-4.6.99l-2.34-5.91c.77-.12,2.15-.47,4.22-1.48,1.57-.76,2.95-1.4,3.94-1.4ZM132.15,28.68c-1.1,0-2.5.64-4.15,1.45-2.91,1.42-4.4,1.48-4.65,1.48-.03,0-.04,0-.04,0,0,0,1.54,3.88,2.74,6.91,1.22-.38,2.83-.73,4.97-1.11,4.63-.82,4.38-3.41,3.42-6.61-.47-1.55-1.24-2.13-2.28-2.13Z"/>
              </g>
            </g>
            <g>
              <g>
                <path class="cls-1" d="M136,33.36s.41-3.99,2.46-3.11c2.05.89,1.13,4.99-1.82,4.38l-.64-1.27Z"/>
                <path d="M137.24,34.93c-.2,0-.42-.02-.64-.07-.07-.01-.13-.06-.17-.13l-.64-1.27s-.03-.09-.02-.13c.01-.1.28-2.57,1.46-3.27.4-.23.85-.25,1.33-.04,1.19.52,1.46,1.91,1.1,3.03-.29.92-1.09,1.88-2.43,1.88ZM136.81,34.42c1.35.22,2.13-.66,2.4-1.5.29-.91.09-2.04-.84-2.44-.34-.15-.64-.15-.9,0-.78.46-1.14,2.14-1.22,2.83l.55,1.1Z"/>
              </g>
              <path d="M137.23,33.62s-.04,0-.06,0c-.13-.03-.21-.16-.18-.29.15-.61.5-1.15,1-1.53.11-.08.26-.06.34.05.08.11.06.26-.05.34-.41.31-.71.77-.83,1.26-.03.11-.12.18-.23.18Z"/>
            </g>
          </g>
        </g>
      </g>
      <g>
        <g>
          <g>
            <g>
              <path class="cls-1" d="M61.99,143.6l97.56,45.13.72,13.91c.09,3.28,4.55,4.17,5.89,1.18l9.88-22.56c1.81-4.14.15-8.98-3.82-11.12l-89.18-48.24-21.06,21.7Z"/>
              <path d="M163.37,205.88c-.23,0-.45-.02-.66-.06-1.29-.26-2.62-1.34-2.67-3.17l-.71-13.76-97.43-45.07c-.07-.03-.12-.1-.13-.17-.01-.08,0-.15.06-.21l21.06-21.7c.07-.08.19-.09.29-.04l89.18,48.24c4.05,2.19,5.78,7.21,3.93,11.43l-9.88,22.56c-.62,1.4-1.87,1.97-3.02,1.97ZM62.4,143.52l97.26,44.99c.08.04.13.12.14.2l.72,13.91c.04,1.68,1.26,2.51,2.28,2.72,1.03.2,2.47-.1,3.15-1.63l9.88-22.55c1.75-3.99.12-8.74-3.72-10.82l-89.02-48.16-20.69,21.33Z"/>
            </g>
            <path d="M122.49,171.84s-.02,0-.04,0c-.13-.02-.22-.14-.2-.27.01-.1,1.62-9.98,13.4-20.3.1-.09.25-.08.34.02.09.1.08.25-.02.34-11.65,10.2-13.23,19.91-13.24,20.01-.02.12-.12.2-.24.2Z"/>
          </g>
          <g>
            <g>
              <path class="cls-1" d="M87.25,116.4l7.52,3.95c10.95,5.75,10.24,20.58-1.23,25.4l-33.67,15.7v38.13c0,3.34-2.92,6.05-6.53,6.05h-24.42c-1.95,0-2.59-2.42-.86-3.25l9.03-4.33-2.82-44.86c-.3-4.73,2.29-9.21,6.7-11.61l46.27-25.17Z"/>
              <path d="M53.35,205.87h-24.42c-1.17,0-1.88-.78-2.05-1.56-.2-.89.23-1.73,1.1-2.15l8.88-4.26-2.81-44.7c-.3-4.84,2.31-9.38,6.82-11.83l46.27-25.17c.07-.04.15-.04.23,0l7.52,3.95c5.2,2.73,8.16,7.66,7.92,13.19-.24,5.52-3.75,10.36-9.17,12.64l-33.52,15.63v37.98c0,3.47-3.04,6.29-6.77,6.29ZM87.26,116.68l-46.16,25.11c-4.35,2.37-6.87,6.73-6.57,11.38l2.82,44.86c0,.1-.05.19-.14.23l-9.03,4.33c-.8.38-.96,1.08-.84,1.61.13.59.68,1.18,1.59,1.18h24.42c3.47,0,6.29-2.61,6.29-5.81v-38.13c0-.09.05-.18.14-.22l33.67-15.7c5.34-2.24,8.65-6.81,8.88-12.22.23-5.34-2.64-10.11-7.67-12.75l-7.41-3.89Z"/>
            </g>
            <path d="M58.45,163.21s-.05,0-.08-.01c-13.62-4.72-23.42-1.82-23.52-1.79-.13.04-.26-.03-.3-.16-.04-.13.03-.26.16-.3.1-.03,10.05-2.98,23.81,1.8.12.04.19.18.15.3-.03.1-.13.16-.23.16Z"/>
          </g>
        </g>
        <g>
          <g>
            <path class="cls-1" d="M50.38,94.09c-2.97,4.01-5.9,8.64-8.2,12.48-2.37,3.8-5.15,8.52-7.37,12.99-4.84,9.76,8.46,34.58,8.46,34.58l10.97.09,3.33-7.62-6.48-15.91,7.15-4.27,7.69,4.43,8.69-14.21-7.45-4.83.54-8.3,17.12-1.48,5.26-6.44-4.56-10.59s-28.69.33-35.17,9.09Z"/>
            <path d="M54.24,154.46h0l-10.97-.09c-.09,0-.17-.05-.21-.13-.55-1.02-13.31-25.04-8.47-34.8,1.88-3.78,4.36-8.15,7.38-13.01,2.94-4.9,5.71-9.1,8.21-12.49l.19.14-.19-.14c6.47-8.75,34.18-9.17,35.36-9.19.09,0,.18.06.22.14l4.56,10.59c.04.08.02.18-.03.25l-5.26,6.44c-.04.05-.1.08-.16.09l-16.91,1.46-.52,7.96,7.33,4.75c.11.07.14.21.07.33l-8.69,14.21c-.07.11-.21.15-.32.08l-7.57-4.36-6.85,4.09,6.41,15.72c.02.06.02.13,0,.19l-3.33,7.62c-.04.09-.12.14-.22.14ZM43.42,153.89l10.67.09,3.23-7.38-6.45-15.82c-.04-.11,0-.24.1-.3l7.15-4.27c.07-.04.17-.05.24,0l7.49,4.31,8.44-13.81-7.25-4.7c-.07-.05-.11-.13-.11-.22l.54-8.3c0-.12.1-.21.22-.22l17.02-1.47,5.11-6.25-4.43-10.31c-2.31.05-28.73.76-34.82,8.99-2.5,3.38-5.25,7.57-8.19,12.46-3.02,4.84-5.49,9.21-7.36,12.97-4.56,9.18,7.39,32.32,8.39,34.23Z"/>
          </g>
          <path class="cls-2" d="M91.84,117.82l-30.35,19.92-27.17-17.38c11.66-5.63,17-14.75,16.56-27.08l40.96,24.54Z"/>
          <g>
            <path class="cls-1" d="M56.35,114.65l16.32,9.98c2.44,1.49,3.21,4.68,1.72,7.12l-17.68,28.91c-1.9,3.12-6.31,3.39-8.61.55-1.95-2.42-3.95-5.13-4.84-7.08l5.69-5.62,11.38-20.42c.99-1.78.59-4.02-.97-5.34-2.15-1.81-4.77-4.55-4.76-7.14,0-.89.99-1.44,1.75-.97Z"/>
            <path d="M52.21,163.42c-1.67,0-3.22-.74-4.29-2.06-2.47-3.06-4.11-5.46-4.87-7.13-.05-.12,0-.26.12-.32.12-.05.26,0,.32.12.74,1.63,2.36,4,4.81,7.02,1.05,1.3,2.6,1.98,4.26,1.87,1.65-.11,3.1-.98,3.96-2.39l17.68-28.91c.52-.84.77-1.81.72-2.8,0-.13.1-.24.23-.25.13,0,.24.1.25.23.05,1.08-.22,2.14-.79,3.07l-17.68,28.91c-.95,1.55-2.53,2.5-4.34,2.62-.13,0-.25.01-.38.01Z"/>
            <path d="M51.35,144.47s-.08,0-.12-.03c-.12-.06-.16-.21-.09-.33l5.27-9.45c.06-.12.21-.16.33-.09.12.06.16.21.09.33l-5.27,9.45c-.04.08-.13.12-.21.12Z"/>
            <path d="M62.13,122.4c-.09,0-.17-.05-.21-.13-.44-.88-1.2-1.55-1.95-2.15-.15-.12-.29-.23-.44-.34-.65-.51-1.33-1.03-1.88-1.68-.46-.54-1.2-1.65-1.02-2.96.02-.13.14-.22.27-.2.13.02.22.14.2.27-.11.82.22,1.77.92,2.59.51.61,1.17,1.12,1.8,1.61.15.12.3.23.44.35.8.63,1.6,1.35,2.08,2.31.06.12.01.26-.11.32-.03.02-.07.03-.11.03Z"/>
          </g>
          <g>
            <path class="cls-1" d="M56.36,114.64l16.32,9.98c2.44,1.49,5.63.72,7.12-1.72l17.68-28.91c1.9-3.12.14-7.17-3.43-7.92-3.04-.64-6.37-1.18-8.5-1.08l-2.41,7.62-12.99,19.43c-1.13,1.7-3.31,2.36-5.2,1.57-2.59-1.09-6.22-2.17-8.52-.98-.79.41-.83,1.53-.07,2Z"/>
            <path d="M85.49,113.84s-.09-.01-.12-.04c-.11-.07-.15-.22-.08-.33l11.99-19.61c.86-1.41.98-3.1.33-4.62-.66-1.53-1.97-2.6-3.6-2.94-3.81-.8-6.65-1.16-8.44-1.08-.13,0-.24-.1-.25-.23,0-.13.1-.24.23-.25,1.83-.08,4.71.28,8.56,1.09,1.79.37,3.22,1.55,3.95,3.22.72,1.67.59,3.51-.36,5.06l-11.99,19.61c-.05.07-.12.11-.2.11Z"/>
            <path d="M73.35,125.21s-.06,0-.1-.02c-.25-.11-.49-.23-.72-.38l-16.3-9.97c-.11-.07-.15-.22-.08-.33.07-.11.22-.15.33-.08l16.3,9.97c.21.13.44.25.66.35.12.05.18.19.12.31-.04.09-.13.14-.22.14Z"/>
            <path d="M73.7,106.97s-.09-.01-.13-.04c-.11-.07-.14-.22-.07-.33l6.7-10.03c.07-.11.22-.14.33-.07.11.07.14.22.07.33l-6.7,10.03c-.05.07-.12.11-.2.11Z"/>
            <path d="M65.64,116.6c-1.06,0-2.05-.39-2.96-.8-.17-.08-.34-.16-.51-.24-.72-.34-1.47-.69-2.25-.87-1.05-.24-2.04-.11-2.72.37-.11.08-.26.05-.33-.06-.08-.11-.05-.26.06-.33,1.08-.76,2.41-.6,3.11-.44.83.19,1.6.55,2.35.91.17.08.34.16.51.24.88.4,1.82.77,2.8.76h0c.13,0,.24.11.24.24,0,.13-.1.24-.24.24-.01,0-.03,0-.04,0Z"/>
          </g>
        </g>
        <g>
          <g>
            <path d="M28.13,92.26s.32-4.39-2.09-5.19c-3.06-1.02-14.6,3.34-10.29,13.4,4.47,10.43,15.02,5.19,16.69,2.97,1.67-2.22-4.31-11.17-4.31-11.17Z"/>
            <g>
              <path d="M25.02,111.5c0,2.59-2.1,7.73-4.68,7.73s-4.68-5.14-4.68-7.73,2.1-4.68,4.68-4.68,4.68,2.1,4.68,4.68Z"/>
              <path d="M24.27,120.87c0,2.18-1.76,6.5-3.94,6.5s-3.94-4.32-3.94-6.5,1.76-3.94,3.94-3.94,3.94,1.76,3.94,3.94Z"/>
              <path d="M23.68,128.52c0,1.85-1.5,5.52-3.35,5.52s-3.35-3.67-3.35-5.52,1.5-3.35,3.35-3.35,3.35,1.5,3.35,3.35Z"/>
              <path d="M23.23,134.9c0,1.6-1.3,4.78-2.9,4.78s-2.9-3.18-2.9-4.78,1.3-2.9,2.9-2.9,2.9,1.3,2.9,2.9Z"/>
              <path d="M23.23,144.15c0,1.92-2.9,5.74-2.9,5.74,0,0-2.9-3.82-2.9-5.74s1.3-3.48,2.9-3.48,2.9,1.56,2.9,3.48Z"/>
            </g>
          </g>
          <path class="cls-1" d="M35.45,96.67l9.94,4.65,1.11-1.24s-2.12,8.04-5.03,10.72l-.49-1.01-11.79-6.73,6.25-6.39Z"/>
          <path d="M40.99,110.03s-.08-.01-.12-.03l-11.79-6.73c-.06-.04-.11-.1-.12-.17-.01-.07.01-.15.07-.2l6.25-6.39c.07-.07.18-.09.27-.05l9.94,4.65c.12.06.17.2.12.32-.06.12-.2.17-.32.12l-9.79-4.58-5.91,6.05,11.52,6.58c.11.07.15.21.09.33-.04.08-.13.12-.21.12Z"/>
          <g>
            <g>
              <path class="cls-1" d="M35.19,91.18c1.13.62,2.3,1.37,2.83,2.55.62,1.42.13,3.11-.73,4.39-1.4,2.07-3.78,3.45-6.28,3.63-.18,1.6-1.66,2.94-3.26,2.98-1.61.04-3.14-1.22-3.41-2.81-.15-.88.1-1.79.62-2.51.52-.73.33-1.75-.43-2.23-.65-.4-1.19-.92-1.5-1.61-.62-1.41-.02-3.04.7-4.4.54-1.02,1.12-2.16,1.88-3.03.79-.91,1.33-.51,2.44-.13,2.47.84,4.87,1.9,7.16,3.17Z"/>
              <path d="M27.67,104.98c-1.7,0-3.29-1.33-3.57-3.01-.15-.91.09-1.89.66-2.69.21-.3.29-.68.22-1.04-.07-.35-.28-.65-.58-.84-.77-.48-1.3-1.05-1.59-1.72-.7-1.6.06-3.4.7-4.61l.09-.17c.51-.97,1.09-2.06,1.82-2.91.78-.9,1.44-.66,2.26-.36.14.05.28.1.43.16,2.48.85,4.9,1.92,7.2,3.18,1.2.66,2.39,1.45,2.93,2.67.58,1.33.3,3.05-.75,4.62-1.4,2.07-3.78,3.48-6.27,3.72-.29,1.63-1.8,2.96-3.46,3-.03,0-.06,0-.08,0ZM26.59,87.83c-.28,0-.51.13-.81.47-.7.81-1.26,1.88-1.76,2.82l-.09.17c-.94,1.79-1.16,3.12-.69,4.19.26.58.72,1.08,1.41,1.51.42.26.7.67.8,1.16.1.49-.01,1.01-.3,1.41-.5.7-.71,1.55-.57,2.33.25,1.48,1.67,2.65,3.17,2.61,1.5-.04,2.86-1.28,3.03-2.77.01-.11.11-.2.22-.21,2.41-.17,4.75-1.53,6.1-3.53.96-1.43,1.23-2.98.71-4.16-.5-1.15-1.67-1.86-2.72-2.44-2.27-1.25-4.66-2.31-7.12-3.15-.16-.05-.31-.11-.45-.16-.39-.15-.68-.25-.93-.25Z"/>
            </g>
            <path d="M26.95,102.15s-.09-.01-.14-.04c-.11-.08-.14-.22-.06-.33.59-.85,1.57-1.4,2.61-1.47.13,0,.25.09.25.22,0,.13-.09.25-.22.25-.88.06-1.74.54-2.25,1.27-.05.07-.12.1-.2.1Z"/>
          </g>
        </g>
      </g>
      <g>
        <path class="cls-1" d="M157.06,62.11c-6.21.4-12.42.8-18.63,1.2-2.07,4.23-4.14,8.45-6.21,12.68-5.86,1.84-11.89,3.86-18.05,6.08-4.26,1.54-8.41,3.11-12.45,4.7-2.91-.51-6.41-1-8.91-.98-5.15.05-5.4,2.29-3.67,2.76,1.24.34,3.26.45,4.25.49-5.28-.11-6.9,1.29-6.58,2.13.45,1.19,3.28,1.41,4.91,1.43-2.41.15-3.83,1.07-3.05,1.91.89.97,4.39,1.06,4.39,1.06-3.62-.03-2.98,1.23-1.66,1.62.51.15.89.28.96.29,8.36.94,11.74.41,11.74.41,13.35-2.07,24.07-6.02,24.07-6.02,4.94-1.82,7.41-2.73,10.16-4.38,8.67-5.21,13.01-11.99,13.96-13.56,1.5-2.46,3.56-6.44,4.77-11.83Z"/>
        <path d="M101.04,98.28c-1.9,0-4.74-.12-8.71-.57-.06,0-.16-.04-.44-.12-.16-.05-.35-.11-.56-.17-.66-.19-1.29-.63-1.21-1.16.04-.29.28-.51.69-.66-.93-.16-1.88-.44-2.32-.92-.27-.29-.34-.62-.21-.94.17-.42.69-.77,1.44-1.02-1.47-.18-2.8-.59-3.13-1.46-.11-.28-.05-.6.15-.89.47-.66,1.63-1.14,3.29-1.39-.34-.06-.66-.12-.95-.2-.75-.21-1.21-.74-1.13-1.33.12-.9,1.45-1.87,4.86-1.9,2.08-.02,5.07.31,8.89.97,4.09-1.62,8.26-3.19,12.39-4.68,5.22-1.88,10.55-3.7,15.83-5.38.13-.04.26.03.3.16.04.13-.03.26-.16.3-5.28,1.68-10.59,3.49-15.81,5.38-4.15,1.5-8.33,3.08-12.44,4.7-.04.02-.09.02-.13.01-3.77-.66-6.83-.99-8.87-.97-2.89.03-4.3.79-4.39,1.49-.04.35.26.66.78.8,1.2.33,3.14.44,4.19.48.13,0,.23.11.23.25,0,.13-.11.24-.24.23-3.85-.08-5.76.66-6.26,1.37-.11.16-.15.31-.1.44.29.77,2,1.24,4.69,1.28.13,0,.23.11.24.23,0,.13-.1.24-.22.24-1.74.11-2.83.62-3.02,1.07-.04.09-.06.23.12.44.67.73,3.27.96,4.22.98.13,0,.24.11.23.24,0,.13-.11.25-.24.24-1.89-.01-2.44.33-2.46.51-.02.15.27.46.87.63.22.06.41.12.57.17.16.05.32.1.36.11,8.22.93,11.64.42,11.68.42,13.17-2.04,23.92-5.97,24.02-6.01l1.44-.53c.12-.05.26.02.31.14.05.12-.02.26-.14.31l-1.44.53c-.11.04-10.9,3.98-24.12,6.03-.07.01-1.02.15-3.09.15Z"/>
      </g>
    </g>
  </g>
</svg>