<?xml version="1.0" encoding="UTF-8"?>
<svg id="Capa_1" data-name="Capa 1" xmlns="http://www.w3.org/2000/svg" viewBox="0 0 218.53 218.53">
  <defs>
    <style>
      .cls-1 {
        fill: #fff;
      }

      .cls-2 {
        fill: #754480;
      }

      .cls-3 {
        fill: #7d4184;
        opacity: .2;
      }
    </style>
  </defs>
  <circle class="cls-3" cx="95.1" cy="95.44" r="94.17"/>
  <g id="Playing_with_a_baby" data-name="Playing with a baby">
    <g>
      <g>
        <path d="M172.98,66.1s7.49-5.71,15.72,4.12c8.24,9.83,20.73-6.02,28.65,2.74,0,0-7.29-1.49-10.08,9.18-2.13,8.17-8.87,16.31-21.56,11.67-12.7-4.64-15.46-21.02-12.73-27.71Z"/>
        <g>
          <path class="cls-1" d="M167.51,63.56c0,.46,2.18,27.13,2.18,27.13l-13.84-3.15-2.5-22.01,14.16-1.97Z"/>
          <path d="M169.93,90.96l-14.26-3.25-2.54-22.37,14.6-2.03v.24c0,.4,1.43,17.91,2.18,27.11l.02.29ZM156.05,87.36l13.41,3.05c-.24-2.88-1.97-24.08-2.14-26.61l-13.72,1.91,2.46,21.66Z"/>
        </g>
        <path d="M151.22,53.39s-8.09-6.44-2.52-10.14c5.57-3.7,18.27-2.13,23.47,2.9,5.2,5.03,3.1,15.49-4.23,22.88l-5.16-1.98-11.56-13.65Z"/>
        <g>
          <path class="cls-1" d="M159.64,62.02s2.95-2.69,4.94-1.07c1.99,1.62,2.02,7.55-5.7,8.03,0,0-4.99,6.27-11.35,4.55-6.36-1.72-4.89-16.88,1.6-24.12,0,0,3.61,5.67,8.62,6.81,0,0,.16,5.08,1.88,5.8Z"/>
          <path d="M149.75,74.03c-.73,0-1.49-.09-2.27-.3-1.74-.47-3.02-1.93-3.7-4.23-1.71-5.78.71-15.24,5.19-20.23l.19-.21.15.24c.04.06,3.62,5.61,8.49,6.72l.16.04v.16c.05,1.33.42,4.85,1.64,5.56.58-.49,3.2-2.53,5.11-.98,1.07.87,1.49,2.74.98,4.35-.44,1.38-1.9,3.72-6.71,4.05-.52.61-4.28,4.85-9.23,4.85ZM149.11,49.75c-4.28,4.95-6.57,14.04-4.92,19.62.64,2.15,1.81,3.51,3.4,3.94,6.16,1.67,11.08-4.41,11.13-4.47l.06-.07h.09c4.63-.29,6.01-2.49,6.42-3.77.53-1.65-.04-3.24-.84-3.89-1.82-1.48-4.64,1.04-4.67,1.06l-.1.09-.12-.05c-1.67-.7-1.96-4.93-2.01-5.83-4.44-1.09-7.7-5.54-8.44-6.63Z"/>
        </g>
        <path d="M158.88,66.31s-.08-.01-.11-.03c-.1-.06-.13-.19-.06-.29.02-.03,1.81-2.76,4.84-1.75.11.04.17.16.13.27-.04.11-.16.17-.27.13-2.72-.9-4.29,1.48-4.36,1.58-.04.06-.11.1-.18.1Z"/>
      </g>
      <g>
        <g>
          <path class="cls-1" d="M143.41,160.58s-77.47-46.48-91.93-34.87c-14.46,11.62-5.11,52.85,0,63.22,5.11,10.37,107.27,8.78,107.27,8.78l10.26-22.29-6.14-29.48-19.46,14.64Z"/>
          <path d="M144.48,198c-9.85,0-23.61-.11-37.45-.59-34.83-1.19-53.58-4.02-55.74-8.39-2.74-5.56-6.24-18.76-7.36-31.21-1-11.19-.53-25.88,7.42-32.26,3.35-2.7,10.3-2.53,20.66.51,8.24,2.41,18.65,6.63,30.95,12.54,20.07,9.64,38.75,20.72,40.44,21.73l19.62-14.76,6.22,29.87-10.34,22.47h-.13c-.12,0-5.72.09-14.28.09ZM58.41,124.08c-3.02,0-5.3.6-6.79,1.8-7.8,6.27-8.25,20.8-7.26,31.89,1.11,12.4,4.59,25.54,7.32,31.06,2.05,4.16,21.2,6.99,55.37,8.16,24.91.85,49.54.53,51.58.5l10.17-22.1-6.06-29.08-19.31,14.53-.12-.07c-.19-.12-19.6-11.73-40.53-21.78-20.55-9.87-35.6-14.9-44.37-14.9Z"/>
        </g>
        <g>
          <path class="cls-1" d="M176.13,171.53s-83.4-10.43-123.22-7.77c-8.27.55-15.3,6.29-17.42,14.3-.04.17-.09.34-.13.51-2.25,8.75,1.88,17.89,9.95,21.96,21.71,10.96,45.68,16.66,69.99,16.66h42.17c10.31,0,18.67-8.36,18.67-18.67v-26.99Z"/>
          <path d="M157.46,217.4h-42.17c-24.23,0-48.46-5.77-70.09-16.68-3.94-1.99-7.12-5.3-8.94-9.33-1.82-4.02-2.22-8.59-1.12-12.88.04-.17.09-.34.13-.51,2.15-8.09,9.23-13.9,17.62-14.46,39.39-2.62,122.43,7.67,123.26,7.78l.19.02v27.17c0,10.41-8.47,18.89-18.89,18.89ZM67.74,163.54c-5.37,0-10.37.13-14.82.43-8.21.55-15.13,6.23-17.23,14.14-.04.17-.09.34-.13.51-2.21,8.59,1.93,17.73,9.84,21.72,21.57,10.89,45.74,16.64,69.9,16.64h42.17c10.18,0,18.46-8.28,18.46-18.46v-26.8c-3.92-.48-67.05-8.18-108.18-8.18Z"/>
        </g>
      </g>
      <g>
        <g>
          <path class="cls-2" d="M76.2,119.75s-.83,8.3-4.07,8.47c-3.24.17-6.92-5.57-11.76.37-4.84,5.94-3.12,10.34,3.2,8.56,0,0,7.09,6.86,14.33,5.53,7.24-1.33,12.79-10.8,10.59-18.27l-12.29-4.67Z"/>
          <g>
            <g>
              <path class="cls-1" d="M103.94,77.16s12.35-5.7,11.6-17.56c0,0-2.17-3.48-.93-4.32.8-.54,2.52,2.04,2.52,2.04,0,0,.41-5.63,1.56-5.6,1.16.03.74,3.45.74,3.45,0,0,1.63-4.47,2.68-4.18,1.26.34-.35,5.26-.35,5.26,0,0,1.72-3.68,2.68-3.37.96.31-1.53,5.11-1.53,5.11,0,0,1.43-2.67,2.14-2.55.71.12-.37,3.56-1.81,5.91,0,0-1.24,19.67-11.28,24.23l-8.03-8.42Z"/>
              <path d="M111.92,85.83l-8.34-8.74.27-.12s3.1-1.45,6.03-4.3c2.69-2.61,5.81-6.99,5.45-13-.33-.54-2.16-3.66-.84-4.56.15-.1.33-.13.53-.1.67.13,1.49,1.1,1.95,1.72.16-1.75.62-5.24,1.73-5.22.22,0,.41.1.56.27.37.43.46,1.32.46,2.08.61-1.43,1.6-3.32,2.45-3.09.19.05.35.18.45.38.35.65.14,2.08-.14,3.28.61-1,1.39-1.97,2.02-1.76.14.05.24.15.3.29.2.49-.16,1.63-.6,2.72.31-.31.62-.52.88-.47.14.02.26.12.32.26.38.84-.76,3.94-1.96,5.92-.04.55-.41,5.25-1.88,10.4-1.44,5.05-4.26,11.57-9.52,13.96l-.14.06ZM104.29,77.23l7.73,8.1c9.68-4.58,11-23.8,11.01-23.99v-.05s.03-.04.03-.04c1.5-2.45,2.25-5.33,1.95-5.6-.34-.05-1.26,1.22-1.92,2.45l-.37-.2c.79-1.52,1.95-4.15,1.7-4.76-.02-.04-.03-.05-.04-.05-.49-.16-1.63,1.57-2.42,3.25l-.39-.16c.35-1.05,1.15-3.97.69-4.82-.07-.12-.14-.16-.19-.17-.53-.14-1.67,1.99-2.43,4.05l-.63,1.73.22-1.83c.08-.67.19-2.54-.29-3.08-.07-.09-.15-.13-.25-.13,0,0,0,0,0,0-.59,0-1.16,2.8-1.34,5.4l-.04.62-.34-.51c-.35-.52-1.38-1.89-2.02-2.01-.11-.02-.17,0-.21.03-.87.59.46,3.17.99,4.03l.03.05v.05c.39,6.21-2.82,10.71-5.58,13.39-2.48,2.41-5.06,3.83-5.88,4.24Z"/>
            </g>
            <path d="M119.82,60.75c-.07,0-.14-.03-.18-.1l-.1-.15s-.03-.07-.03-.11c-.42-.82-.96-1.57-1.6-2.24-.08-.08-.08-.22,0-.3.08-.08.22-.08.3,0,.73.76,1.33,1.63,1.79,2.58.05.1.01.22-.09.28-.03.02-.07.03-.1.03Z"/>
          </g>
          <g>
            <g>
              <path class="cls-1" d="M77.14,71.72s-7.26-10.44,2.04-17.84c0,0,4.03-.72,3.83-2.2-.13-.95-3.2-.51-3.2-.51,0,0,3.9-4.07,3.11-4.92s-3.06,1.76-3.06,1.76c0,0,2.22-4.2,1.31-4.79-1.1-.71-3.66,3.79-3.66,3.79,0,0,1.57-3.74.7-4.25-.87-.5-2.76,4.56-2.76,4.56,0,0,1.02-2.86.46-3.3-.56-.45-2.39,2.66-3.17,5.31,0,0-14.71,17.1-4.57,30.81l8.99-8.43Z"/>
              <path d="M68.12,80.47l-.14-.19c-4.19-5.67-4.73-12.85-1.54-20.76,2.28-5.67,5.74-9.86,6.09-10.29.66-2.23,2.2-5.16,3.08-5.44.15-.05.3-.03.41.06.21.17.27.53.24.97.51-1.06,1.12-2.09,1.62-2.27.15-.05.29-.04.42.03.58.33.38,1.55.05,2.68.7-1.01,1.62-2.12,2.34-2.3.22-.05.42-.03.59.08.74.48,0,2.47-.65,3.89.57-.51,1.29-1.04,1.86-1.05.23,0,.43.08.58.23.77.81-1.52,3.49-2.71,4.79.76-.07,2.04-.11,2.58.3.16.12.26.27.28.45.22,1.58-3.32,2.32-3.95,2.43-3.76,3.01-5.23,6.86-4.39,11.44.63,3.45,2.42,6.05,2.44,6.08l.1.15-9.3,8.71ZM75.75,44.19c-.41,0-2.02,2.47-2.83,5.2v.04s-.04.03-.04.03c-.04.04-3.69,4.32-6.06,10.21-2.16,5.36-3.65,13.19,1.35,20.14l8.69-8.14c-.4-.61-1.83-2.98-2.4-6.08-.61-3.28-.3-8.01,4.58-11.9l.04-.03h.05c.99-.19,3.8-.93,3.65-1.98,0-.04-.02-.1-.12-.17-.52-.39-2.23-.24-2.85-.15l-.61.09.43-.45c1.81-1.89,3.51-4.19,3.11-4.62-.07-.07-.15-.1-.26-.1-.72.01-2.03,1.34-2.48,1.85l-1.21,1.39.86-1.63c1.02-1.94,1.84-4.22,1.38-4.52-.04-.03-.12-.06-.26-.03-.93.23-2.56,2.78-3.11,3.74l-.38-.19c.72-1.72,1.23-3.73.79-3.98,0,0-.02-.01-.07,0-.62.22-1.79,2.85-2.39,4.45l-.4-.15c.47-1.31.79-2.85.52-3.06,0,0,0,0-.01,0Z"/>
            </g>
            <path d="M75.61,51.54c-.1,0-.18-.07-.21-.17-.02-.11.04-.22.15-.25,1.01-.3,2.06-.43,3.12-.4.12,0,.21.1.21.22,0,.11-.1.21-.21.21,0,0,0,0,0,0-.92-.03-1.84.08-2.73.32-.03.03-.07.04-.11.05l-.17.03s-.02,0-.03,0Z"/>
          </g>
          <g>
            <path class="cls-1" d="M66.58,80.15s10.39-10.42,10.56-10.14,13.85,10.75,30.48,4.23l6.99,10.58-9.93,9.01-27.99-3.6s-6.07-3.82-10.1-10.07Z"/>
            <path d="M104.74,94.05l-28.14-3.62-.04-.02c-.06-.04-6.16-3.92-10.17-10.14l-.09-.14.12-.12s2.57-2.58,5.13-5.09c5.25-5.15,5.43-5.14,5.59-5.12h.1s.05.08.05.08c.24.22,13.7,10.65,30.23,4.16l.16-.06,7.19,10.87-10.14,9.2ZM76.75,90.02l27.85,3.58,9.73-8.82-6.8-10.29c-8.61,3.33-16.38,2.05-21.39.38-4.9-1.63-8.32-3.99-9.04-4.61-.89.64-6.49,6.15-10.25,9.92,3.79,5.8,9.39,9.51,9.91,9.84ZM76.96,70.12s.02.03.04.04c-.02-.02-.03-.03-.04-.04ZM77.3,69.88h.01s0,0-.01,0Z"/>
          </g>
          <path class="cls-2" d="M83.59,72.72l2.61,1.43s-.81,15.11,10.52,13.17c9-1.54,3.84-11.78,3.84-11.78l3.38-.05s10.45,24.28-6.14,40.81c0,0,4.54,4.39,5.61,11.39.89,5.86-2.69,13.47-1.52,18.49.34,1.45-.83,2.82-2.32,2.7-1.81-.14-4.09-.6-6.34-1.78-2.76-1.45-4.37-4.44-4.07-7.54.26-2.7.54-6.03.48-7.36-.29-6.44-14.71-5.05-18.93-14.02-7.63-16.21,12.89-45.48,12.89-45.48Z"/>
          <path d="M88.63,129.96s-.09-.01-.13-.04l-.77-.58c-.91-.69-1.9-1.27-2.93-1.72-.86-.37-1.78-.72-2.76-1.09-2.26-.85-4.6-1.74-6.7-3.05-.1-.06-.13-.19-.07-.29.06-.1.19-.13.29-.07,2.07,1.29,4.38,2.17,6.62,3.02.98.37,1.91.72,2.78,1.09,1.07.46,2.08,1.05,3.02,1.77l.77.58c.09.07.11.2.04.3-.04.05-.1.08-.17.08Z"/>
          <path d="M97.8,116.52c-.06,0-.12-.03-.16-.07-.9-1.05-2.71-2.07-4.46-3.05-.88-.49-1.79-1-2.58-1.52-2.42-1.56-3.52-3.68-3.56-3.77-.05-.1-.01-.23.09-.29.1-.05.23-.01.29.09.01.02,1.1,2.11,3.41,3.61.79.51,1.69,1.02,2.56,1.51,1.78,1,3.63,2.04,4.57,3.14.08.09.07.22-.02.3-.04.03-.09.05-.14.05Z"/>
        </g>
        <g>
          <path class="cls-1" d="M91.98,55.63c2.58-.23,8.48.35,10.87,5.28,2.31,4.76.39,4.04,2.59,6.75,1.5,1.86,3.9,7.83-1.74,11.54-5.65,3.71-12.51,2.74-15.73-3.36,0,0-.98-.16-2.03-2.12,0,0-5.31-.46-5.31-6.92,0-5.3,3.53-10.46,11.36-11.17Z"/>
          <path d="M96.82,81.58c-.96,0-1.91-.13-2.81-.38-2.67-.76-4.83-2.58-6.25-5.26-.05-.1-.02-.23.09-.29.1-.05.23-.02.29.09,2.71,5.14,8.23,6.84,13.72,4.24.11-.05.23,0,.28.1.05.11,0,.23-.1.28-1.71.81-3.5,1.22-5.23,1.22Z"/>
          <path d="M104.92,78.45c-.06,0-.11-.02-.16-.07-.08-.09-.07-.22.01-.3,3.82-3.51,1.98-8.45.49-10.29-1.15-1.43-1.21-1.95-1.3-2.75-.08-.73-.19-1.73-1.31-4.04-2.25-4.64-7.76-5.42-10.66-5.16-8.24.75-11.16,6.38-11.16,10.96,0,3.4,1.52,5.07,2.8,5.86.1.06.13.19.07.29-.06.1-.19.13-.29.07-1.37-.85-3-2.63-3-6.22,0-4.77,3.03-10.61,11.55-11.38,3.01-.27,8.73.55,11.08,5.4,1.15,2.38,1.27,3.42,1.35,4.18.08.75.13,1.2,1.21,2.53,1.57,1.94,3.51,7.16-.53,10.87-.04.04-.09.06-.14.06Z"/>
          <path d="M88.96,76.19c-.48,0-.96-.11-1.38-.33-.16-.06-1.17-.49-1.76-2.05-.4-1.06-.31-2.19.26-3.04.59-.88,1.66-1.43,2.73-1.39,1.06.04,2.09.66,2.62,1.59.06.1.02.23-.08.29-.1.06-.23.02-.29-.08-.46-.8-1.35-1.34-2.27-1.37-.92-.03-1.85.44-2.36,1.2-.48.72-.56,1.73-.22,2.65.56,1.47,1.51,1.81,1.52,1.81.01,0,.02,0,.03.01,1.05.56,2.47.29,3.24-.62.08-.09.21-.1.3-.02.09.08.1.21.02.3-.58.68-1.48,1.06-2.37,1.06Z"/>
          <path d="M91.47,74.55c-.06,0-.12-.03-.17-.08-.39-.49-.98-.82-1.6-.9-.12-.01-.2-.12-.18-.24.01-.12.12-.2.24-.18.74.09,1.42.47,1.88,1.05.07.09.06.23-.03.3-.04.03-.09.05-.13.05Z"/>
          <path d="M90.55,67.62s-.08-.01-.12-.04c-1.11-.78-1.9-1.99-2.15-3.32-.25-1.33.04-2.75.8-3.88.62-.93,1.52-1.62,2.39-2.26l.22-.16c.78-.57,1.58-1.15,2.2-1.89.74-.88,1.09-1.91.97-2.8-.14-1.03-1-1.88-1.92-1.88-.46,0-.9.21-1.13.55-.24.36-.21.86.06,1.14.14.14.35.22.56.21.19-.01.36-.09.45-.22.07-.09.2-.11.3-.04.09.07.11.2.04.3-.17.23-.45.37-.77.38-.34.02-.67-.11-.89-.34-.41-.43-.45-1.14-.1-1.67.31-.46.88-.74,1.48-.74,1.12,0,2.16,1.02,2.33,2.25.14,1.02-.25,2.16-1.06,3.13-.65.78-1.47,1.38-2.27,1.96l-.22.16c-.84.61-1.7,1.28-2.29,2.15-.7,1.04-.96,2.33-.73,3.56.23,1.23.95,2.34,1.97,3.05.1.07.12.2.05.3-.04.06-.11.09-.17.09Z"/>
          <path d="M87.56,68.03s-.08-.01-.12-.04c-1.77-1.17-2.53-3.77-1.77-6.05.79-2.37,2.79-3.95,4.33-4.86.1-.06.23-.03.29.07.06.1.03.23-.07.29-1.48.87-3.4,2.39-4.14,4.63-.67,2.01-.07,4.27,1.38,5.4.05-.08.15-.12.24-.09.11.03.17.15.14.26l-.07.22c-.02.06-.07.11-.13.14-.02,0-.05.01-.07.01Z"/>
        </g>
      </g>
      <g>
        <g>
          <path class="cls-1" d="M125.39,111.34s12.63-19.39,26.36-29.41c6.69-4.88,16.2-1.65,18.58,6.28,1.24,4.12,2.47,9.67,3.56,17.14,3.54,24.4,4.16,76.99,4.26,90.82,0,1.32-1.54,2.04-2.55,1.18l-13.71-11.79c-1.11-.95-1.77-2.32-1.83-3.78l-1.18-28.13-3.49,14.22-34.48-16.76,4.48-39.78Z"/>
          <path d="M176.6,197.94c-.41,0-.81-.15-1.14-.43l-13.71-11.79c-1.15-.99-1.84-2.42-1.91-3.94l-1.12-26.63-3.19,13.03-34.85-16.94,4.5-39.97.03-.04c.13-.19,12.81-19.54,26.41-29.46,3.24-2.36,7.27-2.98,11.08-1.7,3.82,1.29,6.67,4.23,7.83,8.09,1.38,4.6,2.58,10.38,3.56,17.17,3.51,24.19,4.15,75.65,4.26,90.85,0,.7-.38,1.31-1.02,1.6-.24.11-.49.17-.74.17ZM159.03,152.15l1.24,29.62c.06,1.4.7,2.72,1.76,3.63l13.71,11.79c.4.35.95.42,1.43.2.48-.22.77-.69.77-1.22-.11-15.19-.75-66.63-4.26-90.79-.98-6.77-2.18-12.52-3.55-17.11-1.12-3.72-3.87-6.57-7.56-7.81-3.67-1.24-7.57-.64-10.69,1.64-13.24,9.66-25.61,28.3-26.28,29.31l-4.46,39.58,34.11,16.58,3.78-15.42Z"/>
        </g>
        <path class="cls-1" d="M125.39,111.34l26.66,13.24s-5.61,13.75-19.01,25.21c-6.23,5.33-15.77,4.26-21.91-1.17-7.1-6.28-15.51-17.04-18.37-34.08,0,0-11.81-3.15-13.84-6.25-2.03-3.1,5.56-.36,8.6-.4,0,0-12.55-4.05-11.95-6.61.59-2.56,7.39.99,11.33,1.55,0,0-12.29-4.88-12.88-7.14-.59-2.26,14.48,2.32,14.48,2.32,0,0-10.16-6.33-8.55-9.01,1.61-2.68,8.25,9.33,26.9,4.13l13.04,27.04,5.51-8.83Z"/>
        <path d="M123.26,153.49c-.41,0-.81-.01-1.22-.04-4.04-.29-7.96-1.95-11.05-4.67-3.3-2.92-6.25-6.24-8.77-9.88-.07-.1-.04-.23.05-.3.1-.07.23-.04.3.05,2.5,3.61,5.43,6.91,8.7,9.8,6.45,5.7,15.75,6.2,21.63,1.17,12.38-10.59,18.16-23.28,18.88-24.94l-26.31-13.07-5.4,8.67c-.04.07-.11.1-.19.1-.08,0-.15-.05-.18-.12l-13.04-27.04c-.05-.11,0-.23.1-.28.11-.05.23,0,.28.1l12.87,26.69,5.3-8.51c.06-.09.18-.13.27-.08l26.66,13.24c.1.05.14.17.1.27-.06.14-5.79,13.93-19.07,25.29-2.7,2.31-6.18,3.54-9.92,3.54Z"/>
        <path d="M157.84,128.28s-.08-.01-.11-.03l-5.78-3.49c-.1-.06-.13-.19-.07-.29.06-.1.19-.13.29-.07l5.57,3.36,8.21-20.02c.04-.11.17-.16.28-.12.11.04.16.17.12.28l-8.31,20.25c-.02.06-.07.1-.13.12-.02,0-.04.01-.07.01Z"/>
        <path d="M114.6,128.28s-.08-.01-.12-.04c-.1-.07-.12-.2-.06-.29l5.28-7.9c.07-.1.2-.12.29-.06.1.07.12.2.06.29l-5.28,7.9c-.04.06-.11.09-.18.09Z"/>
      </g>
    </g>
  </g>
</svg>