<?xml version="1.0" encoding="UTF-8"?>
<svg id="Capa_1" data-name="Capa 1" xmlns="http://www.w3.org/2000/svg" viewBox="0 0 217.53 217.53">
  <defs>
    <style>
      .cls-1 {
        fill: #fff;
      }

      .cls-2 {
        fill: #26aaaa;
      }

      .cls-3 {
        fill: #ccefee;
      }
    </style>
  </defs>
  <circle class="cls-3" cx="96.25" cy="119.82" r="95.41"/>
  <g>
    <g>
      <g>
        <g>
          <path class="cls-1" d="M124.79,47.24s28.84,25.65,34.5,31.13c4.68,4.54,3.86,1.3,3.06.13,0,0,2.96,3.16,3.57.42,0,0,3.65,1.82,2.43-2.16,0,0,2.77-.13.28-2.66l-1.82-1.85s1.22-.75.46-2.04c-.77-1.28-2.23-3.29-3.81-4.69-.77-.68-2.19-1.17-3.06-1.42-.5-.15-.96-.42-1.33-.79-3.59-3.66-21.44-21.32-24.59-24.7-2.63-2.82-9.69,8.62-9.69,8.62Z"/>
          <path d="M162.58,80.96c-.5,0-1.45-.47-3.45-2.41-5.59-5.42-34.2-30.87-34.49-31.13-.08-.08-.1-.2-.04-.3.22-.36,5.5-8.85,8.69-9.17.54-.05,1,.12,1.37.51,2.02,2.17,10.08,10.21,16.56,16.67,3.62,3.61,6.74,6.72,8.03,8.03.34.34.76.6,1.23.73,1.01.29,2.37.78,3.15,1.47,1.6,1.42,3.08,3.44,3.85,4.74.6,1,.15,1.78-.3,2.18l1.63,1.66c.92.94,1.26,1.67,1.04,2.25-.2.52-.82.71-1.19.77.31,1.16.23,1.92-.25,2.33-.66.56-1.8.18-2.32-.04-.18.54-.47.87-.89.98-.68.19-1.5-.29-2.12-.77.17.54.22,1.09-.09,1.35-.09.08-.21.14-.39.14ZM125.1,47.2c2.24,1.99,28.97,25.79,34.36,31.01,2.71,2.63,3.2,2.27,3.22,2.25.19-.16-.04-1.14-.52-1.83-.07-.1-.05-.24.05-.31.1-.08.23-.07.32.02.44.47,1.77,1.65,2.55,1.44.3-.08.51-.39.63-.91.02-.07.06-.13.13-.16.06-.03.14-.03.2,0,.41.2,1.57.64,2.07.21.35-.3.36-1.02.03-2.1-.02-.07,0-.14.03-.2.04-.06.11-.1.18-.1.25-.01.92-.13,1.07-.52.14-.37-.19-.99-.94-1.75l-1.82-1.85c-.05-.05-.07-.12-.07-.19,0-.07.05-.13.11-.17.1-.07,1-.67.38-1.72-.76-1.27-2.2-3.25-3.76-4.63-.74-.66-2.18-1.14-2.97-1.37-.54-.16-1.03-.45-1.43-.85-1.29-1.31-4.41-4.42-8.03-8.03-6.48-6.46-14.54-14.5-16.57-16.68-.27-.29-.59-.41-.98-.37-2.74.27-7.48,7.59-8.24,8.79Z"/>
        </g>
        <path d="M166.27,72.18c-.07,0-.14-.03-.18-.09-.43-.56-1.11-1.32-2-1.59-.63-.18-1.29-.11-2-.04-.76.08-1.54.16-2.28-.09-.12-.04-.19-.17-.14-.3.04-.12.17-.19.3-.14.65.22,1.34.15,2.08.07.72-.08,1.46-.15,2.18.06,1.02.3,1.76,1.14,2.24,1.75.08.1.06.25-.04.33-.04.03-.09.05-.14.05Z"/>
        <path d="M168.14,76.7c-.06,0-.13-.03-.18-.08-1.1-1.25-2.25-2.48-3.42-3.66-.09-.09-.09-.24,0-.33.09-.09.24-.09.33,0,1.18,1.19,2.34,2.43,3.44,3.68.08.1.08.24-.02.33-.04.04-.1.06-.15.06Z"/>
        <path d="M165.81,79c-.06,0-.12-.02-.17-.07l-3.64-3.79c-.09-.09-.09-.24,0-.33.09-.09.24-.09.33,0l3.64,3.79c.09.09.09.24,0,.33-.05.04-.1.06-.16.06Z"/>
        <path d="M162,78.39c-.06,0-.12-.02-.17-.07l-1.9-2.01c-.09-.09-.08-.24,0-.33.09-.09.24-.08.33,0l1.9,2.01c.09.09.08.24,0,.33-.05.04-.1.06-.16.06Z"/>
      </g>
      <path class="cls-2" d="M126.95,26.28l-9.46,13.82s26.65,21.5,33.41,23.32c7.39.25,16.49-1.01,16.49-1.01,0,0,5.91-12.58,2.12-15.83-4.63,3.07-27.11-7.84-27.11-7.84l-15.46-12.47Z"/>
      <g>
        <g>
          <path class="cls-1" d="M137.59,53.79c.32-8.02-2.04-15.29-6.93-22.14s-16.82-11.98-25.26-5.3c-12.75,10.08-15.18,30.99-15.18,30.99l41.52,27.79s5.54-23.36,5.85-31.34Z"/>
          <path d="M132.3,83.76s-.07,0-.11-.03l-33.83-17.42s-.04-.03-.06-.05l-8.25-8.77c-.05-.05-.07-.12-.06-.19.02-.14,1.78-13.88,7.97-22.69,2.92-4.15,5.37-6.99,7.3-8.46,4.9-3.72,10.31-3.25,13.99-2.19,4.4,1.26,8.74,4.07,11.6,7.53.08.1.07.25-.03.33-.1.08-.25.07-.33-.03-4.95-5.99-16.31-11.81-24.94-5.26-1.89,1.43-4.31,4.24-7.2,8.35-5.84,8.3-7.7,21.07-7.88,22.38l8.15,8.66,33.53,17.26c.57-2.36,4.47-18.69,5.24-27.65.01-.13.13-.23.25-.21.13.01.22.12.21.25-.83,9.67-5.28,27.83-5.32,28.01-.02.07-.06.13-.13.16-.03.01-.06.02-.1.02Z"/>
        </g>
        <g>
          <path class="cls-2" d="M122.68,74.8l28.67,52.78c2.21,4.14,3.88,8.54,4.98,13.1l8.88,36.82,14.02,5.15c3.11,1.14,2.94,5.6-.25,6.5l-23.98,6.81c-6.84,1.94-13.92-2.27-15.46-9.21l-9.94-44.64-21.34-31.63-6.61,25.23c-2.43,9.28-7.23,17.78-13.93,24.66l-26.53,27.26,2.88,7.33c1.43,3.64-2.56,7.02-5.92,5.01l-19.34-11.54c-5.42-3.23-6.39-10.67-1.98-15.19l36.06-36.94,16.03-61.51h33.76Z"/>
          <path d="M108.27,110.72s-.03,0-.05,0c-.13-.03-.21-.15-.18-.27l2.31-11.51c.03-.13.15-.21.27-.18.13.03.21.15.18.27l-2.31,11.51c-.02.11-.12.19-.23.19Z"/>
          <path d="M145.65,188.45c-1.44,0-2.96-.13-4.56-.44-.13-.02-.21-.15-.19-.27.02-.13.15-.21.27-.19,8.05,1.53,14.11-1.32,17.77-3.97,3.97-2.88,6.06-6.16,6.08-6.2.07-.11.21-.14.32-.07.11.07.14.21.07.32-.02.03-2.16,3.39-6.2,6.33-3.01,2.18-7.6,4.49-13.56,4.49Z"/>
          <path d="M60.61,187.17h0s-4.02-.07-8.64-1.99c-4.27-1.77-9.97-5.52-12.91-13.34-.05-.12.02-.25.14-.3.12-.05.26.02.3.14,2.88,7.66,8.47,11.33,12.65,13.07,4.53,1.88,8.43,1.95,8.47,1.95.13,0,.23.11.23.24,0,.13-.11.23-.23.23Z"/>
        </g>
        <g>
          <path class="cls-1" d="M132.99,28.44l-5.6,8.25s-5.91-8.61-5.92-8.7c0-.1,6.4-7.15,6.4-7.15,0,0,3.27-1.56,5.12,7.61Z"/>
          <path d="M127.39,36.92c-.08,0-.15-.04-.19-.1-5.95-8.66-5.95-8.74-5.96-8.82,0-.13-.01-.2,6.46-7.32.02-.02.04-.04.07-.05.03-.01.74-.34,1.69.13,1.13.56,2.7,2.35,3.76,7.64.01.06,0,.13-.04.18l-5.6,8.25c-.04.06-.12.1-.19.1h0ZM121.75,28c.5.79,3.5,5.17,5.64,8.28l5.36-7.88c-1.03-5.03-2.46-6.7-3.49-7.22-.63-.31-1.11-.19-1.24-.14-2.3,2.53-5.68,6.27-6.26,6.97Z"/>
        </g>
      </g>
      <g>
        <g>
          <g>
            <g>
              <path class="cls-1" d="M150.6,89.83l-25.09-5.58s-4.79,51.73-2.43,58.82l4.88,45.81-6.42,6.37c-2.5,1.92-.52,5.61,2.68,4.99l22.6-5.84c4.51-.88,7.2-5.11,5.81-9.13l-5.35-41.08,3.33-54.36Z"/>
              <path d="M123.49,200.54c-1.5,0-2.59-.9-3.05-1.92-.57-1.27-.2-2.66.94-3.54l6.34-6.28-4.86-45.68c-.54-1.66-.75-5.77-.62-12.23,0-.13.12-.22.24-.23.13,0,.23.11.23.24-.13,6.44.08,10.51.61,12.1,0,.02,0,.03.01.05l4.88,45.81c0,.07-.02.14-.07.19l-6.42,6.37s-.01.01-.02.02c-1.18.91-1.2,2.14-.81,2.99.46,1.02,1.66,1.9,3.3,1.58l21.63-5.59c.12-.03.25.04.28.17.03.12-.04.25-.17.28l-21.64,5.6c-.27.05-.53.08-.78.08Z"/>
              <path d="M148.56,123.37s0,0-.01,0c-.13,0-.23-.12-.22-.25l2.03-33.11-24.64-5.48c-.12,1.32-.68,7.47-1.27,15.25,0,.13-.12.22-.25.21-.13,0-.22-.12-.21-.25.67-8.76,1.29-15.46,1.3-15.52,0-.07.04-.13.09-.17.05-.04.12-.05.19-.04l25.09,5.58c.11.03.19.13.18.24l-2.04,33.3c0,.12-.11.22-.23.22Z"/>
            </g>
            <path d="M135.6,155.95c-5.56,0-9.59-1.24-9.65-1.26-.12-.04-.19-.17-.15-.29.04-.12.17-.19.29-.15.1.03,10.29,3.16,20.66-.66.12-.04.25.02.3.14.04.12-.02.25-.14.3-3.98,1.46-7.93,1.92-11.31,1.92Z"/>
            <path d="M132.63,194.59c-.07,0-.13-.03-.18-.08l-4.67-5.48c-.08-.1-.07-.25.03-.33.1-.08.24-.07.33.03l4.58,5.37c1.59-.34,16.78-3.71,17.7-9.38.02-.13.14-.21.27-.19.13.02.21.14.19.27-1.02,6.28-17.5,9.65-18.21,9.79-.02,0-.03,0-.05,0Z"/>
          </g>
          <g>
            <g>
              <path class="cls-1" d="M165.05,85.91l-18.38-19.33-14.17,9.73-37.58-12.87c-7.83-2.68-15.73,1.58-17.35,9.35l-11.56,56.64s-3.27,6.56-4.68,11.02c-1.11,3.51-.04,6.12,3.21,5.36,7.76-1.81,11.56-3.97,16.73-6.37,5.28-2.45,9.09-3.69,9.97-8.12l7.93-41.49,32.21,12.78c9.7,3.85,22.8,2.87,27.57-5.67l6.1-11.04Z"/>
              <path d="M63.27,146.18s-.03,0-.05,0c-1.29-.28-2.07-.75-2.47-1.46-.59-1.06-.25-2.56.44-4.5l4.59-10.85,11.56-56.61c.77-3.72,2.98-6.77,6.2-8.61,3.37-1.92,7.55-2.26,11.46-.92l37.47,12.83,14.08-9.66c.09-.06.22-.05.3.03l18.38,19.33c.07.07.08.18.04.27l-6.1,11.04c-4.82,8.62-17.96,9.71-27.86,5.77l-7.17-2.85c-.12-.05-.18-.18-.13-.3.05-.12.18-.18.3-.13l7.17,2.85c9.72,3.86,22.59,2.83,27.29-5.57l6.01-10.89-18.13-19.06-14.01,9.62c-.06.04-.14.05-.21.03l-37.58-12.87c-3.78-1.29-7.82-.97-11.07.88-3.11,1.77-5.23,4.72-5.98,8.3l-11.56,56.64s0,.03-.01.04l-4.59,10.86c-.76,2.14-.9,3.33-.47,4.11.33.59,1.02.98,2.16,1.23.13.03.21.15.18.28-.02.11-.12.18-.23.18Z"/>
            </g>
            <path d="M99.17,90.06c-.09,0-.17-.05-.21-.14-.06-.15-6.67-14.54-21.43-16.9-.13-.02-.21-.14-.19-.27.02-.13.14-.21.27-.19,7.85,1.25,13.35,5.86,16.59,9.5,3.5,3.94,5.18,7.64,5.2,7.68.05.12,0,.26-.12.31-.03.01-.06.02-.09.02Z"/>
            <path d="M69.39,136.55c-.07,0-.14-.03-.18-.09l-3.44-4.38c-.08-.1-.06-.25.04-.33.1-.08.25-.06.33.04l3.35,4.28c1.57-.25,16.4-2.75,21.05-8.27.08-.1.23-.11.33-.03.1.08.11.23.03.33-5,5.94-20.8,8.35-21.47,8.45-.01,0-.02,0-.03,0Z"/>
          </g>
        </g>
        <g>
          <path class="cls-2" d="M159.56,94.78l-21.56-18.8c-.53-.49-.51-1.33.05-1.79,2.18-1.77,6.81-6.74,9.18-8.94,9.52-8.82,13.5-13.44,13.5-13.44,0,0,2.47-3.53,3.94-4.72,1.48-1.2,2.97-1.86,4.72-2.21,5.14-1.05,16.45.98,21.56,3.97l.73,1.4,1.13,3.53c1.48,4.6.24,9.64-3.21,13.03l-9.68,5.14-20.38,22.83Z"/>
          <path d="M149.94,63.32c-.06,0-.13-.03-.17-.08-.09-.1-.08-.24.02-.33l11.5-10.43c.14-.47.98-3.24,2.3-4.67.09-.09.23-.1.33-.01.09.09.1.23.01.33-1.34,1.45-2.21,4.52-2.22,4.55-.01.04-.04.08-.07.11l-11.55,10.48s-.1.06-.16.06Z"/>
          <g>
            <g>
              <g>
                <path class="cls-1" d="M154.38,73.87c-1.82-1.58-4.27-3.49-4.79-3.96-2.03-1.83-4.33-3.72-7.06-3.8-2.24-.06-4.46,1.26-5.47,3.26-1.37.19-2.49,1.5-2.44,2.88-1.17.11-2.04,1.48-1.64,2.59.4,1.11,1.63.97,3.9.84.72.89,4.21,4.32,8.85,8.37,4.17-2.38,8.8-5.43,8.66-10.18Z"/>
                <path d="M145.72,84.28c-.06,0-.11-.02-.15-.06-4.48-3.92-7.91-7.26-8.8-8.31h-.24c-2.08.14-3.34.22-3.78-1-.21-.59-.12-1.29.25-1.87.33-.52.83-.88,1.38-1,.06-1.37,1.17-2.65,2.52-2.9,1.08-2.03,3.31-3.34,5.63-3.28.04,0,1.53-.07,2.99.78.11.06.15.21.08.32-.06.11-.21.15-.32.08-1.34-.78-2.74-.71-2.75-.71-2.15-.06-4.31,1.23-5.27,3.13-.03.07-.1.12-.18.13-1.25.17-2.28,1.38-2.24,2.65,0,.12-.09.23-.21.24-.48.05-.94.35-1.24.82-.29.46-.37,1.01-.21,1.46.31.85,1.18.83,3.31.7l.35-.02c.07,0,.15.03.19.09.71.88,4.21,4.3,8.69,8.23.72-.42,1.4-.86,2.03-1.33.1-.08.25-.05.33.05.08.1.05.25-.05.33-.69.5-1.43.99-2.22,1.44-.04.02-.08.03-.12.03Z"/>
              </g>
              <path d="M140.24,74.9c-.07,0-.15-.04-.19-.1-1.14-1.65-3.24-2.57-5.23-2.29-.13.02-.25-.07-.26-.2-.02-.13.07-.25.2-.26,2.16-.31,4.44.69,5.68,2.49.07.11.05.25-.06.32-.04.03-.09.04-.13.04Z"/>
              <path d="M142.42,72.15c-.07,0-.13-.03-.18-.08-1.25-1.48-3.15-2.36-5.09-2.36-.02,0-.05,0-.07,0-.13,0-.23-.1-.23-.23,0-.13.1-.23.23-.24.02,0,.05,0,.07,0,2.07,0,4.1.94,5.44,2.52.08.1.07.25-.03.33-.04.04-.1.06-.15.06Z"/>
              <path d="M144.96,69.86c-.07,0-.14-.03-.18-.09-1.28-1.61-3.21-2.57-5.3-2.63-.13,0-.23-.11-.23-.24,0-.13.11-.23.23-.23,0,0,0,0,0,0,2.23.07,4.29,1.1,5.65,2.81.08.1.06.25-.04.33-.04.03-.09.05-.14.05Z"/>
            </g>
            <g>
              <path class="cls-2" d="M155.1,72.3l17.12,13.8,7.56-21.95s11.93-13.39,13.27-9.71c2.79,7.67-1.77,37.59-11.56,46.3-10.53,9.76-36.8-16.03-36.8-16.03l10.41-12.41Z"/>
              <path d="M173.91,87.74c-.05,0-.1-.02-.15-.05l-1.7-1.41c-.1-.08-.11-.23-.03-.33.08-.1.23-.11.33-.03l1.7,1.41c.1.08.11.23.03.33-.05.06-.11.08-.18.08Z"/>
              <path d="M169.34,84.05s-.1-.02-.14-.05l-14.37-10.94-.45.54c-.08.1-.23.11-.33.03-.1-.08-.11-.23-.03-.33l.59-.71c.08-.1.22-.11.32-.04l14.54,11.08c.1.08.12.22.04.33-.05.06-.12.09-.19.09Z"/>
              <path d="M175.3,77.38s-.04,0-.06,0c-.12-.03-.2-.16-.17-.28l1.31-5.23c.03-.12.16-.2.28-.17.12.03.2.16.17.28l-1.31,5.23c-.03.11-.12.18-.23.18Z"/>
            </g>
          </g>
        </g>
        <g>
          <path class="cls-1" d="M194.37,43.06s-3.23,2.65-9.09,4.13c-5.85,1.48-11.89,3.38-11.67,5.38.21,2,14.3-.38,19.22,1.22l8.74-4.85-7.21-5.88Z"/>
          <path d="M192.83,54.03c-.08,0-.16-.04-.2-.12-.06-.11-.02-.25.09-.32l8.44-4.69-6.78-5.53c-.59.56-2.88,2.46-7.93,3.74-.12.03-.25-.04-.28-.17-.03-.12.04-.25.17-.28,5.7-1.44,7.84-3.74,7.86-3.76.08-.09.22-.1.32-.02l7.21,5.88c.06.05.09.12.08.2,0,.08-.05.15-.12.18l-8.74,4.85s-.07.03-.11.03Z"/>
        </g>
      </g>
      <g>
        <g>
          <path class="cls-1" d="M107.38,95.35c.35.74.61,1.24.49,2.05-.15,1.02-1.81.93-2.41.37-.85-.79-.91-1.06-1.53-2.29.17.35.14.34.24.59.28.73.29,1.17-.09,1.71-.49.68-1.2.64-1.73.39-.73-.35-1.11-1.14-1.55-1.93-.46-.84-9.02-15.85-11.35-23.02-2.09-6.44-2.21-13.35-.39-19.87l.28-.98c4.36-11.48,8.84-17.6,8.84-17.6l15.1,11.09-9.52,14.09s4.18,17.15,7.94,27.27c1.68,4.54,2.44,6.5,2.65,7.15.2.64.37,1.11.33,1.76-.05.76-.73,1.12-1.39,1.16-.99.06-1.58-.8-1.97-1.53.31,1.14-1.66,2.39-2.81,1.06-.5-.58-1.09-1.54-1.22-1.69,0,0,.07.14.11.23Z"/>
          <path d="M114.66,96.35s-.01,0-.02,0c-.13,0-.23-.12-.22-.25.04-.55-.1-.98-.27-1.52l-.05-.15c-.13-.4-.48-1.35-1.12-3.06-.39-1.04-.89-2.38-1.52-4.08-3.72-10.02-7.91-27.12-7.95-27.3-.02-.06,0-.13.03-.19l9.39-13.9-14.73-10.81c-.78,1.12-4.79,7.14-8.67,17.35l-.27.96c-1.82,6.52-1.69,13.35.39,19.74,1.66,5.11,6.57,14.35,9.35,19.41.06.11.02.25-.09.32-.11.06-.25.02-.32-.09-2.79-5.07-7.71-14.35-9.38-19.49-2.11-6.48-2.24-13.4-.39-20.01l.28-.98c4.33-11.4,8.83-17.61,8.87-17.67.04-.05.09-.08.15-.09.06-.01.12,0,.17.04l15.1,11.09c.1.07.13.21.06.32l-9.46,14c.35,1.43,4.35,17.55,7.91,27.14.63,1.7,1.13,3.03,1.52,4.08.67,1.78,1,2.67,1.13,3.09l.05.15c.18.57.33,1.05.29,1.69,0,.12-.11.22-.23.22Z"/>
        </g>
        <path d="M111.34,96.06c-.09,0-.18-.06-.22-.15-.39-1.07-.68-1.61-1.11-2.42-.11-.21-.24-.44-.37-.7-.06-.11-.02-.25.1-.31.11-.06.25-.02.31.1.14.26.26.49.37.7.44.83.74,1.38,1.14,2.48.04.12-.02.25-.14.3-.03,0-.05.01-.08.01Z"/>
      </g>
      <g>
        <g>
          <path class="cls-1" d="M123.48,25.29s1.98-2.65-.74-3.85c-1.96-.86-5.15-1.25-7.56-1.19-1.7.04-2.52.98-3.08,2.13-.76,1.56-1.48,4.18-.89,4.6.51.37.99.4,1.82-1.06,0,0-.83,2.39.3,2.78,1.28.44,2.37-2.46,3.91-4.54,0,0-3.34,5.56-1.54,6.14,1.58.51,2.9-3.71,4.25-5.33,0,0-2.36,4.42-1.13,5.13,1.42.81,3.15-2.88,4.66-4.8Z"/>
          <path d="M115.97,30.57c-.11,0-.23-.02-.34-.06-.28-.09-.49-.29-.6-.58-.21-.55-.03-1.42.28-2.33-.65.95-1.3,1.57-2.05,1.31-.26-.09-.46-.27-.59-.53-.19-.38-.19-.9-.13-1.37-.21.22-.41.34-.62.38-.35.08-.63-.09-.84-.24-.8-.58.15-3.52.82-4.9.5-1.03,1.32-2.21,3.28-2.26,2.31-.06,5.57.3,7.66,1.21.82.36,1.33.89,1.5,1.56.33,1.27-.63,2.58-.68,2.64,0,0,0,0,0,0-.39.5-.79,1.1-1.21,1.75-1.23,1.88-2.51,3.82-3.75,3.11-.6-.35-.55-1.31-.26-2.33-.75,1.37-1.54,2.62-2.47,2.62ZM117.24,23.92s.09.01.13.04c.1.07.13.21.07.31-.69,1.15-2.39,4.39-1.98,5.5.06.16.16.25.31.3.86.28,1.78-1.44,2.6-2.96.48-.89.93-1.73,1.4-2.3.08-.09.21-.11.31-.04.1.07.13.2.08.3-.94,1.75-1.94,4.4-1.22,4.81.85.49,2.06-1.34,3.12-2.96.41-.62.83-1.27,1.23-1.78.04-.05.87-1.21.6-2.24-.14-.53-.56-.95-1.24-1.25-2.01-.88-5.27-1.23-7.46-1.17-1.7.04-2.41,1.03-2.87,1.99-.89,1.84-1.31,4.06-.96,4.31.2.14.34.19.47.16.27-.06.61-.44,1.01-1.14.06-.1.19-.15.3-.1.11.05.16.17.12.29-.14.41-.45,1.6-.17,2.19.07.15.18.24.32.29.72.25,1.51-1.06,2.35-2.46.41-.67.82-1.37,1.29-2,.05-.06.12-.09.19-.09ZM123.48,25.29h0,0Z"/>
        </g>
        <path d="M113.07,26.15s-.05,0-.08-.01c-.12-.05-.18-.18-.14-.3.03-.08.72-1.92,1.45-2.67.09-.09.24-.09.33,0,.09.09.09.24,0,.33-.66.68-1.34,2.49-1.35,2.51-.04.09-.12.15-.22.15Z"/>
      </g>
    </g>
    <g>
      <g>
        <path class="cls-1" d="M203.38,29.27c.46,0,.92.14,1.31.43,1.04-1,2.16-2,3.59-2.36,1.25-.32,2.68-.11,3.74.84.6.54,1.02,1.28,1.35,2.01.32.71.62,1.44.77,2.2.16.77.14,1.54-.07,2.27-.05.18-.11.35-.17.52,1.03.32,1.93,1.13,2.49,2.15.87,1.59.72,3.4,0,4.89-.29.6-.67,1.15-1.1,1.64.57.28,1.01.89,1.12,1.57.19,1.18-.34,2.39-.88,3.33-1.16,1.99-3.11,3.37-5.36,3.73-.75.12-1.52.13-2.29.04-.04.03-.07.07-.11.1-1.18,1.07-2.83,1.38-4.41,1.32-.78-.03-1.58-.15-2.32-.51-.74-.36-1.36-.94-1.96-1.53-1.24-1.22-2.43-2.7-2.85-4.44-.28-1.17-.21-2.45.32-3.45-.41-.01-.83-.11-1.18-.36-.38-.27-.63-.69-.69-1.16-.06-.49.06-.95.21-1.38.62-1.89,1.38-3.82,2.83-5.13.68-.62,1.5-1.09,2.4-1.3.06-1.18.27-2.36.72-3.42.46-1.09,1.32-1.98,2.54-1.99Z"/>
        <path d="M196.76,49.29c.5.89,1.22,1.8,2.2,2.76.59.59,1.24,1.19,2.01,1.57.67.33,1.43.5,2.4.53,1.32.05,3.18-.14,4.54-1.36.02-.02.04-.03.05-.05.76.09,1.52.07,2.26-.05,2.28-.37,4.28-1.76,5.48-3.82.77-1.33,1.07-2.46.91-3.47-.1-.64-.49-1.24-1.01-1.59.39-.48.72-.98.97-1.49.83-1.71.82-3.57-.02-5.08-.56-1.03-1.44-1.81-2.4-2.18.04-.11.07-.22.1-.33.21-.75.24-1.55.07-2.37-.16-.79-.47-1.55-.78-2.24-.43-.95-.87-1.61-1.41-2.09-1.03-.92-2.49-1.25-3.92-.89-1.42.36-2.54,1.32-3.56,2.3-.39-.25-.84-.38-1.29-.37-1.16.01-2.14.78-2.7,2.1-.41.97-.65,2.09-.73,3.35-.83.22-1.64.67-2.34,1.31-1.47,1.33-2.25,3.29-2.88,5.21-.15.45-.29.94-.22,1.48.07.53.36,1.01.78,1.31.27.19.6.32.97.37-.41.95-.48,2.14-.2,3.3.14.6.38,1.19.72,1.79ZM216,44.8c.11.2.19.42.23.64.15.91-.13,1.95-.86,3.2-1.15,1.97-3.05,3.3-5.23,3.65-.73.12-1.48.13-2.24.04-.05,0-.11.01-.14.05l-.03.03s-.05.05-.07.07c-1.27,1.14-3.03,1.32-4.29,1.27-.91-.04-1.63-.19-2.24-.49-.71-.35-1.33-.93-1.9-1.49-1.56-1.54-2.45-2.92-2.79-4.33-.29-1.19-.18-2.39.3-3.3.03-.06.03-.13,0-.2-.04-.06-.1-.11-.17-.11-.44-.02-.79-.12-1.07-.32-.33-.23-.54-.59-.6-1-.06-.45.07-.88.2-1.29.62-1.87,1.38-3.78,2.78-5.05.7-.64,1.5-1.07,2.32-1.26.08-.02.13-.09.14-.17.06-1.26.3-2.39.7-3.35.5-1.19,1.37-1.88,2.37-1.88.42,0,.85.13,1.19.39.08.06.18.05.24,0,1.01-.98,2.12-1.96,3.51-2.31,1.3-.33,2.64-.03,3.56.79.48.43.9,1.05,1.3,1.94.3.67.6,1.4.75,2.15.15.75.13,1.48-.07,2.17-.05.16-.1.33-.17.51-.02.05-.02.12.01.17.03.05.07.09.13.11.95.29,1.82,1.03,2.37,2.04.77,1.39.77,3.1,0,4.7-.27.56-.63,1.09-1.07,1.6-.04.05-.06.11-.04.18.02.06.06.12.12.15.32.16.59.43.78.76Z"/>
      </g>
      <g>
        <g>
          <path class="cls-1" d="M196.96,30.47c2.84-.19,5.54.52,7.67,1.82-.09.38-.11.78-.04,1.18.08.44.33.89.69,1.16.3.23.62.4.96.44-.37.24-.7.54-1,.86-.79.84-1.42,1.91-1.69,3.08-.25,1.07-.15,2.24.5,3.2-.58.07-1.16.11-1.73.18-.47.06-.91.17-1.36.31-.56.18-1.17.41-1.61.83.68.21,1.38.61,2.01,1.19,1.73,1.59,2.28,3.93,1.22,5.23-1.06,1.3-3.32,1.06-5.05-.53-.58-.53-1.02-1.15-1.32-1.79-4.65-.75-8.39-3.86-8.92-7.8-.64-4.78,3.69-8.97,9.68-9.36Z"/>
          <path d="M188.01,42.56c1.47,2.62,4.46,4.64,8.07,5.25.32.64.78,1.25,1.32,1.75,1.81,1.67,4.2,1.9,5.32.52,1.12-1.38.56-3.86-1.25-5.52-.52-.48-1.11-.86-1.72-1.1.39-.27.85-.44,1.27-.57.49-.15.91-.25,1.33-.3.33-.04.66-.07.99-.1.25-.02.5-.05.74-.08.07,0,.12-.05.14-.11.02-.06.01-.14-.03-.2-.56-.84-.73-1.92-.47-3.03.25-1.08.82-2.12,1.65-3,.32-.34.64-.62.97-.83.07-.04.1-.13.07-.22-.03-.09-.1-.15-.18-.16-.26-.03-.55-.16-.86-.39-.29-.23-.53-.62-.6-1.03-.07-.34-.05-.7.03-1.09.02-.09-.02-.19-.1-.23-2.24-1.37-5.01-2.03-7.79-1.85-2.94.19-5.58,1.29-7.44,3.08-1.87,1.81-2.73,4.12-2.41,6.5.13.95.45,1.87.92,2.72ZM196.36,47.54c-.03-.06-.09-.1-.15-.11-4.65-.75-8.24-3.88-8.74-7.61-.3-2.25.51-4.43,2.3-6.16,1.8-1.74,4.36-2.8,7.22-2.99,2.64-.17,5.27.43,7.42,1.71-.07.39-.07.76,0,1.11.1.52.39,1.01.77,1.3.2.16.41.28.6.36-.23.18-.46.39-.68.63-.87.93-1.47,2.02-1.74,3.17-.26,1.12-.13,2.2.36,3.1-.15.02-.3.03-.45.04-.33.03-.66.06-1,.11-.44.05-.88.16-1.39.32-.56.18-1.21.42-1.68.87-.05.05-.07.12-.05.2.02.07.08.13.15.15.68.21,1.35.61,1.93,1.14,1.65,1.51,2.18,3.73,1.19,4.95-.99,1.22-3.13.97-4.78-.54-.53-.49-.97-1.09-1.27-1.72,0,0,0,0,0-.01Z"/>
        </g>
        <path d="M198.4,45.76s.07.09.13.1c2.4.68,2.14,2.39,2.13,2.46-.02.11.05.22.16.25.11.03.21-.04.22-.15,0-.02.33-2.17-2.44-2.95-.11-.03-.21.03-.23.14,0,.05,0,.1.03.15Z"/>
      </g>
      <g>
        <g>
          <path class="cls-1" d="M196.26,35.11c-1.28.24-2.13,1.2-1.9,2.16.23.95,1.46,1.53,2.74,1.29,1.28-.24,2.13-1.2,1.9-2.16-.23-.95-1.46-1.53-2.74-1.29Z"/>
          <path d="M194.34,37.72c.19.34.51.63.93.83.55.26,1.22.34,1.88.21,1.38-.26,2.3-1.33,2.04-2.39-.26-1.06-1.59-1.71-2.97-1.46-.66.12-1.23.43-1.62.87-.4.46-.55,1-.43,1.53.04.15.09.28.16.41ZM198.7,36.14c.05.09.09.19.12.3.2.84-.59,1.7-1.77,1.92-.58.11-1.17.04-1.65-.18-.46-.21-.76-.55-.85-.94-.09-.39.03-.81.34-1.17.33-.38.84-.65,1.42-.76,1.03-.19,2.02.17,2.38.82Z"/>
        </g>
        <g>
          <path class="cls-1" d="M195.83,29.68c-1.28.24-2.13,1.2-1.9,2.16s1.46,1.53,2.74,1.29c1.28-.24,2.13-1.2,1.9-2.16s-1.46-1.53-2.74-1.29Z"/>
          <path d="M193.9,32.27c.46.81,1.62,1.27,2.81,1.05,1.38-.26,2.3-1.33,2.04-2.39-.26-1.06-1.59-1.71-2.97-1.46-.66.12-1.23.43-1.62.87-.4.46-.55,1-.43,1.53.03.14.09.28.16.41ZM198.27,30.7c.05.09.09.19.12.3.2.84-.59,1.7-1.77,1.92-1.18.22-2.3-.29-2.5-1.12-.09-.39.03-.81.34-1.17.33-.38.84-.65,1.42-.76,1.03-.19,2.02.17,2.38.82Z"/>
        </g>
        <path d="M196.48,38.76l2.72,4.85c.06.1.18.14.27.09s.12-.17.06-.27l-2.72-4.85c-.06-.1-.18-.14-.27-.09s-.12.17-.06.27Z"/>
        <path d="M196.28,35.1s.03.04.04.06c.08.08.2.07.27,0,.02-.02.46-.57.32-1.21-.08-.37-.34-.69-.76-.93-.1-.06-.21-.02-.26.07-.05.1,0,.22.09.28.31.18.49.39.55.64.1.44-.25.87-.25.87-.05.06-.06.16-.01.23Z"/>
      </g>
    </g>
    <g>
      <g>
        <path class="cls-1" d="M129.34,10.41s-1.83.93-2.72,2.86c-.88,1.92.06,4.57,2,5.96,1.94,1.38,5.94-5.69,4.73-7.85-1.2-2.16-2.15-2.04-4.02-.96Z"/>
        <path d="M127.91,18.88c.19.18.39.35.61.5.39.28,1.08.43,2.09-.43,1.79-1.53,3.91-5.89,2.93-7.66-.56-1.01-1.08-1.55-1.68-1.75-.76-.25-1.57.08-2.63.69-.12.06-1.9,1.01-2.79,2.93-.81,1.76-.15,4.18,1.47,5.72ZM132.34,10.29c.27.26.55.64.84,1.16.81,1.45-1.07,5.64-2.87,7.18-.45.39-1.1.78-1.59.43-1.88-1.34-2.74-3.9-1.92-5.69.85-1.84,2.62-2.77,2.64-2.78,0,0,0,0,0,0,.97-.56,1.7-.87,2.31-.67.19.06.38.19.58.37Z"/>
      </g>
      <path d="M143.86,24.43s.02.02.03.02c.1.07.22.05.28-.04,1.21-1.91,4.21-6.61,4.52-7.47.96-2.59-1.56-7.27-4.3-10.52-2.08-2.46-4.26-4.1-5.43-4.07-.92.02-2.73,1.06-2.81,1.1-.09.05-.11.18-.05.27.07.1.19.14.29.08.02-.01,1.81-1.03,2.64-1.05.86-.02,2.88,1.31,5.07,3.9,2.66,3.15,5.11,7.66,4.21,10.1-.31.83-3.29,5.51-4.49,7.4-.05.08-.03.19.05.26Z"/>
      <g>
        <path d="M132.3,13.04s-3.86,5.27-5.21,7.58c-1.35,2.31,3.73,6.79,7.06,9.07,4.06,2.79,4.96,1.3,6.54-.69,1.58-2,2.61-3.6,2.61-3.6,0,0-6.03-4.88-8-7.11-1.97-2.24,1.73-6.01,2.13-6.55.41-.54.76.08,2.94-1.54,2.17-1.62,1.96-3,.1-4.52-.8-.65-1.53-1.22-2.56-2.6.46-.22,1.18-.49,1.11-.56-.88-.8-2.42-1.66-3.78-.93-1.47.79-6.19,5.95-5.88,8.82,0,0,3.28-1.13,2.96,2.63Z"/>
        <path d="M129.95,26.55c1.03.98,2.06,1.8,2.64,2.25.09.07.22.06.28-.02.06-.09.03-.22-.06-.29-3.36-2.58-6.59-5.97-5.55-7.75,1.33-2.27,5.16-7.51,5.2-7.56.02-.03.03-.06.03-.09.1-1.22-.16-2.1-.77-2.59-.73-.59-1.72-.46-2.2-.35,0-2.82,4.38-7.62,5.8-8.37,1.12-.6,2.43-.04,3.35.72-.13.06-.3.14-.45.2-.15.07-.31.14-.45.2-.05.02-.09.07-.1.13-.01.06,0,.12.04.17,1.01,1.36,1.74,1.95,2.51,2.57l.09.08c.89.72,1.34,1.37,1.37,1.99.04.71-.44,1.43-1.49,2.21-1.3.97-1.94,1.12-2.31,1.21-.26.06-.46.11-.65.36-.04.06-.12.15-.22.27-.93,1.09-3.77,4.4-1.89,6.54,1.96,2.23,7.6,6.8,7.84,7,.09.08.22.07.28-.01.06-.08.04-.21-.05-.29-.06-.05-5.84-4.74-7.78-6.94-1.64-1.86,1.04-4.98,1.92-6.01.11-.13.19-.22.24-.28.12-.16.22-.18.46-.24.4-.09,1.08-.25,2.44-1.27,1.15-.86,1.68-1.68,1.63-2.52-.05-.75-.55-1.51-1.55-2.32l-.1-.08c-.71-.57-1.38-1.12-2.28-2.28.08-.03.16-.07.23-.1.64-.28.76-.34.77-.49,0-.07-.03-.15-.08-.2-1.04-.95-2.64-1.71-4.03-.97-1.56.83-6.28,6.04-5.96,9,0,.07.05.13.1.17.06.04.13.05.19.03.01,0,1.3-.43,2.07.19.48.39.68,1.11.6,2.15-.36.49-3.91,5.37-5.19,7.55-.97,1.66,1.06,4.16,3.04,6.05Z"/>
      </g>
      <path d="M130.5,15.42s.05.04.08.05c.11.04.22,0,.25-.11.06-.21.54-2.04-.19-2.88-.26-.3-.64-.44-1.12-.4-.11,0-.18.11-.16.22.02.11.13.19.24.18.33-.03.57.05.74.23.49.56.23,1.99.09,2.49-.02.08,0,.16.07.21Z"/>
    </g>
  </g>
</svg>