<?xml version="1.0" encoding="UTF-8"?>
<svg id="Capa_1" data-name="Capa 1" xmlns="http://www.w3.org/2000/svg" viewBox="0 0 218.53 218.53">
  <defs>
    <style>
      .cls-1 {
        fill: #fff6e0;
      }

      .cls-2 {
        fill: #ffd063;
      }

      .cls-3 {
        fill: #fff;
      }

      .cls-4 {
        fill: #ffd275;
      }
    </style>
  </defs>
  <circle class="cls-1" cx="122.4" cy="95.42" r="94.17"/>
  <g>
    <g>
      <path class="cls-2" d="M143.12,75.7s-8.22-6.21-18.47-5.12c-10.24,1.09-13.97,10.4-15.98,19.09-2.02,8.69-2.35,10.53-2.87,13.26-.6,3.13-.08,12.81,6.44,14.67,6.52,1.86,29.95-1.71,33.36-8.69s-2.48-33.21-2.48-33.21Z"/>
      <path class="cls-2" d="M150.41,76.29c.62.21,11.74,11.71,9.25,20.61-2.48,8.9-12.77-.34-14.63-7.99-1.86-7.65,5.38-12.62,5.38-12.62Z"/>
      <g>
        <path class="cls-3" d="M91.17,75.01s3.02-1.76,4.18-1.13c1.16.63.64,2.22.64,2.22,0,0,1.69-1.06,3.38-.22,1.69.84.53,2.75.53,2.75,0,0,2.32-.53,1.27,2.85-1.05,3.38-3.16,5.6-3.16,5.6,0,0,1.27.95.32,3.27-.95,2.33-9.69,12.38-9.69,12.38l-9.42-13.4-.32-4.33s2.23-3.93,3.29-6.23c1.06-2.29,2.85-4.52,3.81-5.15.96-.63,2.59-.64,3.25-.64.66,0,1.16.09,1.46.5.4.53.47,1.53.47,1.53Z"/>
        <path d="M88.64,102.99s0,0-.01,0c-.08,0-.15-.04-.2-.11l-9.42-13.4s-.04-.08-.05-.13l-.32-4.33c0-.05,0-.1.03-.15.02-.04,2.24-3.95,3.28-6.21,1.07-2.31,2.88-4.59,3.9-5.26,1.03-.68,2.69-.68,3.39-.68.64,0,1.27.07,1.67.6.27.36.41.9.47,1.27.87-.47,3.04-1.51,4.09-.94.81.44.95,1.31.88,1.97.66-.27,1.89-.6,3.13.02.52.26.85.63.99,1.12.17.58,0,1.18-.15,1.57.3.02.69.11.98.43.49.52.52,1.46.11,2.79-.89,2.88-2.51,4.9-3.05,5.51.36.41.98,1.48.2,3.38-.95,2.34-9.38,12.04-9.74,12.45-.05.06-.12.09-.2.09ZM79.47,89.24l9.19,13.06c1.36-1.57,8.59-9.99,9.43-12.05.85-2.09-.19-2.93-.24-2.97-.06-.05-.1-.11-.1-.19,0-.07.02-.15.07-.2.02-.02,2.08-2.22,3.1-5.5.35-1.12.35-1.9,0-2.28-.34-.37-.96-.24-.97-.24-.1.02-.21-.02-.27-.1-.06-.09-.07-.2-.01-.29,0,0,.51-.86.3-1.58-.1-.34-.34-.6-.72-.79-1.54-.77-3.11.2-3.12.2-.09.06-.21.05-.3-.02-.09-.07-.12-.18-.09-.29.02-.06.44-1.39-.51-1.9-.85-.46-3.12.65-3.92,1.12-.08.05-.17.05-.25,0-.08-.04-.13-.12-.14-.21,0,0-.07-.93-.42-1.39-.21-.28-.57-.4-1.25-.39-.61,0-2.21,0-3.11.59-.94.62-2.7,2.84-3.71,5.04-.97,2.11-2.96,5.64-3.26,6.18l.31,4.18Z"/>
      </g>
      <path class="cls-2" d="M117.79,73.04c1.37-1.1-6.69,10.33-13.4,8.78-1.94-.45-12.8-8.48-16.52-5.21-3.72,3.27.15,10.42,6.85,15.93,6.7,5.51,11.46,3.57,16.08-.6,11.81-10.66,5.95-12.41,7-18.9Z"/>
      <g>
        <path class="cls-3" d="M78.89,84.7s1.17-1.41,2.44-4.26c1.27-2.85,3.8-6.87,5.6-7.18,1.8-.32,3.27-.63,3.91.42.63,1.06.63,2.53-1.06,3.27-1.69.74-2.32,5.39-2.32,6.44s.74,2.43,1.06,5.49l-9.21-3.77-.41-.42Z"/>
        <path d="M88.51,89.15c-.13,0-.25-.1-.26-.23-.18-1.73-.5-2.93-.73-3.81-.18-.68-.33-1.22-.33-1.71,0-1.14.65-5.88,2.48-6.68.64-.28,1.05-.68,1.21-1.19.17-.52.07-1.14-.27-1.71-.51-.85-1.79-.63-3.4-.34l-.24.04c-1.53.27-3.99,3.86-5.4,7.03-.51,1.14-1.29,2.51-2.32,4.08-.08.12-.24.15-.36.07-.12-.08-.15-.24-.07-.36,1-1.52,1.79-2.91,2.28-4.01,1.18-2.65,3.79-6.98,5.79-7.33l.24-.04c1.74-.31,3.24-.58,3.94.59.42.69.53,1.47.32,2.13-.21.65-.73,1.18-1.5,1.51-1.5.65-2.17,5.13-2.17,6.2,0,.42.13.9.31,1.58.24.9.56,2.12.75,3.89.01.14-.09.27-.23.29,0,0-.02,0-.03,0Z"/>
      </g>
    </g>
    <g>
      <ellipse cx="134.27" cy="48.55" rx="5.98" ry="6.33"/>
      <ellipse cx="102.23" cy="56.28" rx="7.04" ry="7.45"/>
      <path d="M119.52,50.25s-9.39-.88-12.1,6.96c-2.72,7.84,4.76,12.87,5.74,13.39.98.52,20.54-6.01,20.54-6.01,0,0,2.35-7.8-1.44-12.66s-9.6-5.06-12.73-1.68Z"/>
      <g>
        <g>
          <path class="cls-3" d="M121.67,60.2s-1.45,6.55-7.38,8.48c0,0-1.42-4.57-3.7-2.3-2.29,2.27,0,7.23,4.64,5.83,0,0,4.48,6.59,11.29,4.69s8.11-7.26,6.88-10.52c0,0,2.52-.48,1.9-3.65-.63-3.17-2.18-2.64-3.17-1.79,0,0-2.11-.74-2.81-2.71,0,0-2.17,3.41-7.64,1.97Z"/>
          <path d="M124.08,77.5c-4.95,0-8.31-4.13-8.95-4.99-2.55.69-4.31-.48-5.11-1.82-.9-1.52-.74-3.37.39-4.49.6-.59,1.2-.81,1.8-.66,1.23.31,2,2.13,2.25,2.82,5.52-1.95,6.95-8.14,6.96-8.2.02-.07.06-.13.12-.17.06-.04.13-.05.2-.03,5.2,1.37,7.27-1.73,7.35-1.86.05-.08.15-.13.25-.12.1.01.18.08.22.17.55,1.55,2.05,2.3,2.51,2.49.51-.4,1.23-.78,1.94-.53.73.26,1.25,1.12,1.54,2.58.22,1.13.09,2.08-.4,2.8-.44.65-1.06.95-1.42,1.08.58,1.78.4,3.87-.5,5.65-.83,1.64-2.65,3.83-6.65,4.94-.87.24-1.71.35-2.51.35ZM115.23,71.94c.08,0,.17.04.22.11.04.06,4.46,6.41,11,4.58,3.81-1.07,5.54-3.13,6.32-4.67.88-1.75,1.03-3.8.38-5.5-.03-.07-.02-.15.02-.22.04-.07.1-.11.18-.13,0,0,.58-.12,1.07-.59.65-.62.86-1.55.62-2.76-.25-1.24-.66-2-1.2-2.18-.56-.2-1.21.25-1.55.54-.07.06-.17.08-.26.05-.08-.03-1.94-.7-2.79-2.45-.76.85-3.07,2.82-7.38,1.78-.35,1.26-2.16,6.68-7.49,8.41-.07.02-.14.02-.2-.02-.06-.03-.11-.09-.13-.15-.21-.67-.97-2.47-1.96-2.72-.42-.1-.84.07-1.31.53-.96.95-1.09,2.54-.31,3.85.72,1.21,2.33,2.25,4.69,1.54.02,0,.05-.01.08-.01Z"/>
        </g>
        <path d="M113.51,70.95c-.1,0-.2-.06-.24-.15-.22-.49-.77-.82-1.32-.77-.14.02-.27-.09-.28-.24-.01-.14.09-.27.24-.28.76-.06,1.53.39,1.84,1.08.06.13,0,.29-.13.35-.03.02-.07.02-.11.02Z"/>
        <path d="M133.43,66.6c-.11,0-.21-.07-.25-.17-.49-1.39-.85-2.84-1.08-4.3-.02-.14.08-.28.22-.3.14-.02.28.08.3.22.22,1.43.58,2.84,1.06,4.2.05.14-.02.29-.16.33-.03.01-.06.01-.09.01Z"/>
        <path d="M133.72,64.91c-.12,0-.23-.08-.26-.21-.16-.74.12-1.56.7-2.05.11-.09.28-.08.37.03.09.11.08.28-.03.37-.43.36-.65.98-.53,1.54.03.14-.06.28-.2.31-.02,0-.04,0-.06,0Z"/>
      </g>
    </g>
    <g>
      <g>
        <path class="cls-3" d="M154.38,106.04l25.59,10.62c5.48,2.27,9.23,7.4,9.74,13.31l3.29,38.23c.78,9.1-6.78,16.72-15.9,16.39l-.02.15,1.05,8.65h-70.13v-16.34l-3.5.59c-9.15,1.55-13.33-6.46-15.95-15.4l-3.86-12.85,6.8-9.13,1.65-12.3c.73-5.48,4.67-10,10-11.47l32.67-9.03,18.57-1.4Z"/>
        <path d="M178.13,193.64h-70.13c-.14,0-.26-.12-.26-.26v-16.03l-3.19.54c-4.26.72-7.85-.57-10.66-3.85-2.22-2.58-3.99-6.3-5.58-11.73l-3.86-12.85c-.02-.08,0-.17.04-.23l6.76-9.08,1.64-12.24c.75-5.6,4.75-10.19,10.19-11.69.14-.04.28.04.32.18.04.14-.04.28-.18.32-5.24,1.45-9.09,5.87-9.81,11.26l-1.65,12.3s-.02.09-.05.12l-6.72,9.03,3.82,12.72c2.33,7.93,6.21,16.82,15.66,15.22l3.5-.59c.08-.01.15,0,.21.06.06.05.09.12.09.2v16.08h69.58l-1.01-8.35s0-.04,0-.07l.02-.15c.02-.13.14-.24.27-.23,4.37.16,8.6-1.56,11.61-4.72,2.96-3.11,4.39-7.15,4.02-11.38l-3.29-38.23c-.5-5.83-4.17-10.85-9.58-13.09l-25.54-10.59-18.51,1.4c-.14.01-.27-.1-.28-.24-.01-.14.1-.27.24-.28l18.57-1.4s.08,0,.12.02l25.59,10.62c5.59,2.32,9.38,7.5,9.9,13.53l3.29,38.23c.37,4.32-1.15,8.61-4.16,11.79-3.05,3.2-7.32,4.98-11.74,4.89l1.03,8.5c0,.07-.01.15-.06.2-.05.06-.12.09-.2.09Z"/>
        <g>
          <polygon class="cls-3" points="159.93 108.35 147.93 122.01 142.34 112.91 138.41 119.32 159.93 108.35"/>
          <path d="M147.93,122.27s-.01,0-.02,0c-.08,0-.16-.05-.2-.12l-5.36-8.74-3.71,6.05c-.08.12-.24.16-.36.09-.12-.08-.16-.24-.09-.36l3.93-6.41c.09-.16.35-.15.45,0l5.4,8.8,11.77-13.39c.1-.11.26-.12.37-.02.11.1.12.26.02.37l-12,13.65c-.05.06-.12.09-.2.09Z"/>
        </g>
        <path d="M164.41,141.65h0c-.14,0-.26-.12-.26-.26l.15-31.21c0-.14.12-.26.26-.26h0c.14,0,.26.12.26.26l-.15,31.21c0,.14-.12.26-.26.26Z"/>
        <path d="M164.11,182.55h0c-.14,0-.26-.12-.26-.26l.02-3.11c0-.14.12-.27.26-.26.14,0,.26.12.26.26l-.02,3.11c0,.14-.12.26-.26.26Z"/>
        <path d="M112.85,122.27h0c-.14,0-.26-.12-.26-.27l.12-8.16c0-.14.12-.26.27-.26.14,0,.26.12.26.27l-.12,8.16c0,.14-.12.26-.26.26Z"/>
        <path d="M111.97,182.55h0c-.14,0-.26-.12-.26-.27l.71-49.11c0-.14.12-.26.26-.26h0c.14,0,.26.12.26.27l-.71,49.11c0,.14-.12.26-.26.26Z"/>
      </g>
      <g>
        <polygon class="cls-4" points="107.6 186.48 177.61 186.33 178.5 193.72 107.66 193.78 107.6 186.48"/>
        <g>
          <path class="cls-3" d="M111.97,188.57c-.7,0-1.27-.57-1.27-1.27v-3.74c0-.7.57-1.27,1.27-1.27s1.27.57,1.27,1.27v3.74c0,.7-.57,1.27-1.27,1.27Z"/>
          <path d="M113.24,186.49c-.14,0-.26-.12-.26-.26v-2.67c0-.56-.45-1.01-1.01-1.01s-1.01.45-1.01,1.01v2.67c0,.14-.12.26-.26.26s-.26-.12-.26-.26v-2.67c0-.84.69-1.53,1.53-1.53s1.53.69,1.53,1.53v2.67c0,.14-.12.26-.26.26Z"/>
        </g>
        <g>
          <path class="cls-3" d="M164.11,188.57c-.7,0-1.27-.57-1.27-1.27v-3.74c0-.7.57-1.27,1.27-1.27s1.27.57,1.27,1.27v3.74c0,.7-.57,1.27-1.27,1.27Z"/>
          <path d="M165.38,186.4c-.14,0-.26-.12-.26-.26v-2.58c0-.56-.45-1.01-1.01-1.01s-1.01.45-1.01,1.01v2.58c0,.14-.12.26-.26.26s-.26-.12-.26-.26v-2.58c0-.84.69-1.53,1.53-1.53s1.53.69,1.53,1.53v2.58c0,.14-.12.26-.26.26Z"/>
        </g>
        <polygon class="cls-4" points="178.13 193.38 181.86 219.04 108.07 219.04 108 193.38 178.13 193.38"/>
        <path d="M178.13,193.64h-70.13c-.14,0-.26-.12-.26-.26s.12-.26.26-.26h70.13c.14,0,.26.12.26.26s-.12.26-.26.26Z"/>
        <g>
          <rect class="cls-3" x="128.69" y="181.8" width="19.24" height="15.31" rx="6.27" ry="6.27"/>
          <path d="M144,197.37h-11.38c-2.31,0-4.19-1.88-4.19-4.19v-7.45c0-2.31,1.88-4.19,4.19-4.19h11.38c2.31,0,4.19,1.88,4.19,4.19v7.45c0,2.31-1.88,4.19-4.19,4.19ZM132.62,182.06c-2.02,0-3.67,1.65-3.67,3.67v7.45c0,2.02,1.65,3.67,3.67,3.67h11.38c2.02,0,3.67-1.65,3.67-3.67v-7.45c0-2.02-1.65-3.67-3.67-3.67h-11.38Z"/>
        </g>
        <path d="M140.31,219.3c-.12,0-.23-.09-.26-.22-.01-.07-1.29-7.13-1.98-8.51-.69-1.38-2.38-3.22-2.39-3.23-.1-.11-.09-.27.01-.37.11-.1.27-.09.37.01.07.08,1.75,1.91,2.48,3.36.72,1.45,1.98,8.36,2.03,8.65.03.14-.07.28-.21.3-.02,0-.03,0-.05,0Z"/>
      </g>
      <g>
        <polygon class="cls-3" points="136.9 91.84 135.81 107.44 142.34 112.91 154.38 106.04 151.73 86.53 136.9 91.84"/>
        <path d="M142.34,113.17c-.06,0-.12-.02-.17-.06l-6.53-5.46c-.11-.09-.13-.26-.03-.37.09-.11.26-.13.37-.03l6.39,5.35,11.73-6.69-2.59-19.01-14.52,5.2c-.14.05-.29-.02-.33-.16-.05-.14.02-.29.16-.33l14.83-5.31c.07-.03.16-.02.22.02.07.04.11.11.12.19l2.65,19.51c.01.11-.04.21-.13.26l-12.04,6.87s-.09.03-.13.03Z"/>
        <g>
          <path class="cls-3" d="M154.79,80.18s.83,2.66,0,5.42-3.86,4.5-6.7,4.04c-2.85-.46-.46-11.3,2.39-12.31,2.85-1.01,3.58,0,4.32,2.85Z"/>
          <path d="M149,89.97c-.32,0-.64-.02-.95-.08-.58-.09-1.3-.59-1.47-2.4-.29-3.22,1.48-9.58,3.81-10.41,1.34-.47,2.24-.52,2.93-.16.87.46,1.31,1.56,1.73,3.18.06.18.83,2.81,0,5.56-.76,2.52-3.35,4.3-6.04,4.3ZM152.26,77.21c-.45,0-1.01.12-1.7.36-1.92.68-3.76,6.64-3.46,9.87.07.82.31,1.82,1.03,1.93,2.76.45,5.64-1.29,6.41-3.86.79-2.64,0-5.24,0-5.27,0,0,0,0,0-.01-.38-1.48-.76-2.48-1.47-2.85-.22-.12-.49-.18-.81-.18Z"/>
        </g>
        <g>
          <path class="cls-3" d="M130.12,81.89c.09-.26,1.33-10.23,2.55-13.44,1.22-3.21,6.85-5.56,12.3-6.24,3.92-.49,7.03,0,7.91,1,.75.86,1.49,3.65,1.49,3.65l-3.65,11.38-8.6,11.82-9.04-3.3-2.95-4.87Z"/>
          <path d="M131.23,75s-.03,0-.04,0c-.14-.02-.24-.16-.21-.3.53-3.06,1.02-5.19,1.45-6.34,1.32-3.49,7.41-5.77,12.51-6.41,3.87-.49,7.14-.05,8.14,1.09.78.89,1.51,3.64,1.54,3.76.04.14-.05.28-.19.32-.14.04-.28-.05-.32-.19,0-.03-.73-2.75-1.43-3.55-.74-.84-3.61-1.42-7.68-.91-4.95.62-10.85,2.79-12.09,6.07-.42,1.12-.9,3.22-1.43,6.24-.02.13-.13.22-.26.22Z"/>
        </g>
        <g>
          <path class="cls-3" d="M150.01,79.99s-1.01,8.91-1.74,12.49c-.73,3.58-8.91,3.23-13.72,2.35-5.88-1.07-5.42-3.4-5.14-6.89s.71-6.06.71-6.06c0,0,9.33.86,12.91.49,3.58-.37,3.49-7.62,3.58-8.54.09-.92-.73-.64-1.29-4.32-.55-3.67.79-4.85,3.67-4.59,1.24.11,2.35.24,4.41-.16-.22-.66-.63-1.61-.51-1.61,1.43.03,3.5.64,4.08,2.66.63,2.18.46,11.79-2.2,14.36,0,0-1.93-4.22-4.78-.18Z"/>
          <path d="M140.83,95.68c-1.72,0-3.3-.15-4.18-.26-.14-.02-.25-.15-.23-.29.02-.14.15-.25.29-.23,5.09.62,10.73.29,11.3-2.47.72-3.53,1.73-12.38,1.74-12.47,0-.04.02-.09.05-.12.93-1.32,1.88-1.94,2.83-1.85,1.12.1,1.89,1.18,2.22,1.74,2.34-2.82,2.5-11.74,1.89-13.84-.48-1.65-2.08-2.34-3.53-2.45.06.18.15.42.22.62.08.21.16.43.23.62.02.07.02.15-.02.22-.04.07-.1.11-.18.13-2.02.39-3.14.29-4.33.18h-.15c-1.38-.14-2.31.09-2.86.66-.63.66-.8,1.85-.54,3.62.33,2.2.76,2.95,1.02,3.4.18.3.31.54.27.98,0,.09-.02.26-.03.48-.09,1.97-.36,7.95-3.79,8.3-3.57.37-12.3-.42-12.67-.45-.14-.01-.25-.14-.24-.28.01-.14.14-.25.28-.24.09,0,9.06.81,12.57.45,2.98-.31,3.24-5.95,3.32-7.8.01-.23.02-.4.03-.5.03-.27-.04-.39-.2-.67-.28-.48-.74-1.28-1.08-3.58-.29-1.94-.07-3.26.67-4.05.66-.7,1.74-.98,3.28-.84h.15c1.09.11,2.13.21,3.89-.11-.04-.11-.08-.22-.12-.32-.33-.89-.38-1.06-.27-1.23.05-.07.15-.11.23-.12,1.7.04,3.74.8,4.33,2.85.67,2.31.47,11.97-2.27,14.62-.06.06-.15.08-.23.07-.08-.02-.15-.07-.19-.15,0-.02-.78-1.66-1.97-1.77-.74-.07-1.52.46-2.31,1.58-.1.83-1.05,9.06-1.74,12.45-.53,2.57-4.38,3.14-7.69,3.14Z"/>
        </g>
        <path d="M149.61,84.07s-.07,0-.11-.02c-.13-.06-.19-.22-.13-.35.12-.26,1.23-2.54,2.57-2.69.48-.05.93.17,1.31.66.09.11.07.28-.05.37-.11.09-.28.07-.37-.05-.27-.35-.54-.5-.84-.46-.89.1-1.85,1.76-2.15,2.39-.04.1-.14.15-.24.15Z"/>
        <path class="cls-2" d="M153.57,89.2s-4.74,1.69-4.66,5.62c.12,5.73,4.08,6.24,7.7,5.72,3.63-.52,4.44-13.81-3.05-11.34Z"/>
      </g>
      <g>
        <g>
          <path class="cls-2" d="M131.44,100.27c0-.39-8.83-1.27-12.01,7.77-2.32,6.6-8.53,29.71-.28,38.17,5.04,5.17,12.4-.26,13.3-14.46.9-14.2-1.01-31.48-1.01-31.48Z"/>
          <path d="M118.09,112.19s-.03,0-.04,0c-.14-.02-.24-.16-.21-.3,1.92-11.52,10.75-12.22,10.84-12.23.14,0,.27.1.28.24,0,.14-.1.27-.24.28-.35.02-8.51.7-10.36,11.79-.02.13-.13.22-.26.22Z"/>
        </g>
        <g>
          <path class="cls-2" d="M113.35,100.99c.08-.38-12.12,1.81-16.8,7.01-4.67,5.21-11,26.22-4.69,36.22,3.85,6.1,14.15,2.74,16.02-11.37,2.46-18.5,5.46-31.86,5.46-31.86Z"/>
          <path d="M105.8,103.18c-.1,0-.19-.05-.24-.15-.06-.13,0-.29.12-.35.04-.02,3.81-1.8,9.61-2.67.14-.02.28.08.3.22.02.14-.08.28-.22.3-5.71.86-9.43,2.61-9.46,2.63-.04.02-.07.03-.11.03Z"/>
        </g>
        <g>
          <path class="cls-3" d="M84.73,149.52s-.41-1.7-1.56-10.03c-1.15-8.33,2.65-15.91,6.24-19.21,3.59-3.3,9.22-3.64,9.63-2.04.63,2.51-2.6,3.4-3.31,3.58-.72.18-3.3,3.24-3.3,3.24,0,0,5.46-2.7,7.86-2.76,2.4-.06,3,2.58,1.68,3.96,0,0,1.2,1.08-.18,3.84-1.38,2.76-2.28,3.36-2.28,3.36,0,0,.36,1.26-1.02,3.42s-5.33,6.07-8.11,8.59c-2.78,2.52-5.64,4.07-5.64,4.07Z"/>
          <path d="M84.73,149.78s-.07,0-.11-.02c-.07-.03-.13-.1-.15-.18-.02-.07-.43-1.81-1.56-10.06-1.09-7.94,2.35-15.79,6.32-19.44.57-.53,1.23-1.01,1.93-1.42.13-.07.29-.03.36.09.07.12.03.29-.09.36-.68.39-1.3.85-1.84,1.35-3.87,3.56-7.23,11.23-6.16,18.99.87,6.34,1.32,8.84,1.48,9.67.81-.47,3.09-1.86,5.28-3.85.37-.34.76-.7,1.17-1.08.11-.1.27-.09.37.01.1.11.09.27-.01.37-.41.38-.8.74-1.17,1.08-2.77,2.51-5.66,4.09-5.69,4.1-.04.02-.08.03-.12.03Z"/>
          <path d="M90.73,137.78c-.08,0-.16-.04-.21-.11-.08-.12-.06-.28.06-.36.04-.03,4.04-2.88,5.9-4.16.95-.65,1.74-.86,2.37-.63.69.25.88.94.89.97.04.14-.05.28-.18.32-.14.04-.28-.04-.32-.18,0-.02-.14-.47-.57-.62-.45-.16-1.1.03-1.89.57-1.86,1.27-5.85,4.12-5.89,4.15-.05.03-.1.05-.15.05Z"/>
          <path d="M91.24,132.44c-.09,0-.18-.05-.22-.13-.07-.12-.03-.28.09-.36.04-.03,4.41-2.65,7.35-4.77,2.51-1.81,3.54-1.23,3.65-1.16.12.08.15.24.07.36-.08.12-.24.15-.36.08-.03-.02-.88-.43-3.06,1.14-2.96,2.13-7.34,4.77-7.39,4.79-.04.03-.09.04-.13.04Z"/>
        </g>
        <g>
          <g>
            <path class="cls-3" d="M143.09,126.6l33.59,23.75-33.59-23.75Z"/>
            <path d="M176.68,150.61c-.05,0-.1-.02-.15-.05l-33.59-23.75c-.12-.08-.15-.25-.06-.36.08-.12.25-.15.36-.06l33.59,23.75c.12.08.15.25.06.36-.05.07-.13.11-.21.11Z"/>
          </g>
          <g>
            <path class="cls-3" d="M138.34,149.89l20.99,24.69c4.06,4.77,9.54,8.11,15.65,9.53l1.91.44-38.55-34.66Z"/>
            <path d="M176.89,184.82s-.04,0-.06,0l-1.91-.44c-6.11-1.42-11.72-4.83-15.79-9.61l-20.99-24.69c-.09-.11-.08-.28.03-.37.11-.09.28-.08.37.03l20.99,24.69c3.99,4.7,9.5,8.05,15.51,9.44l1.91.44c.14.03.23.17.2.31-.03.12-.14.2-.25.2Z"/>
          </g>
          <g>
            <path class="cls-3" d="M143.03,126.63s-3.77,21.42-4.69,23.26c0,0-9.31-10.64-10.51-11.01-1.2-.37-5.7-1.01-9.19-1.47-3.49-.46-4.87-3.13-2.94-4.78,0,0-1.95-.26-3.06-1.71-.48-.63-.8-2.41.48-3.23,0,0-2.18-1.81-.98-3.65,1.2-1.84,6.77-1.61,9.57-1.32,0,0-2.12-1.61-5.24-2.07-3.13-.46-2.31-3.5.28-4.05,3.73-.79,13.88.46,15.91,1.84l-.18-4.51s6.99,5.15,10.57,12.69Z"/>
            <path d="M138.34,150.15c-.07,0-.15-.03-.2-.09-.05-.05-4.55-5.19-7.66-8.41-.1-.1-.1-.27,0-.37.1-.1.27-.1.37,0,2.66,2.75,6.34,6.92,7.39,8.1.87-2.7,3.28-15.74,4.51-22.73-3.53-7.35-10.39-12.46-10.46-12.52-.12-.09-.14-.25-.06-.37.09-.12.25-.14.37-.06.07.05,7.08,5.27,10.65,12.79.02.05.03.1.02.16-.15.88-3.79,21.48-4.71,23.33-.04.08-.11.13-.2.14-.01,0-.02,0-.03,0Z"/>
            <path d="M116.46,120.91s-.03,0-.04,0c-.16-.02-.31-.05-.46-.09-1.14-.29-1.81-1.02-1.79-1.95.02-1.16,1.08-2.22,2.51-2.52.14-.03.28.06.31.2.03.14-.06.28-.2.31-1.34.28-2.08,1.25-2.09,2.02-.01.68.5,1.2,1.4,1.43.13.03.26.06.4.08.14.02.24.15.22.3-.02.13-.13.22-.26.22Z"/>
            <path d="M115.25,135.92c-.08,0-.16-.04-.22-.11-.69-.99-.62-2.13.13-3.02-.68-.18-1.92-.63-2.75-1.71-.32-.42-.58-1.28-.44-2.1.09-.53.34-.98.72-1.31-.79-.78-1.74-2.31-.79-3.77.53-.81,1.84-1.33,3.89-1.54.15-.01.27.09.29.23.01.14-.09.27-.23.29-1.86.19-3.08.64-3.51,1.3-1.06,1.62.91,3.29.93,3.3.06.05.1.13.09.22,0,.08-.05.16-.12.2-.41.26-.66.66-.75,1.17-.12.66.09,1.36.34,1.69,1.04,1.35,2.87,1.61,2.89,1.61.1.01.19.09.22.19.03.1,0,.21-.08.27-.89.76-1.04,1.76-.4,2.68.08.12.05.28-.07.36-.05.03-.1.05-.15.05Z"/>
            <g>
              <path class="cls-3" d="M113.11,127.69s4.21-.36,8.03.28l-8.03-.28Z"/>
              <path d="M121.14,128.23s-.03,0-.04,0c-3.74-.62-7.92-.28-7.96-.27-.14.01-.27-.09-.28-.24-.01-.14.09-.27.24-.28.04,0,4.29-.36,8.09.28.14.02.24.16.21.3-.02.13-.13.22-.26.22Z"/>
            </g>
            <g>
              <path class="cls-3" d="M115.69,132.63s4.55.19,7.84.5l-7.84-.5Z"/>
              <path d="M123.53,133.4s-.02,0-.03,0c-3.24-.31-7.78-.5-7.83-.5-.14,0-.26-.13-.25-.27,0-.14.13-.26.27-.25.05,0,4.6.19,7.85.5.14.01.25.14.24.29-.01.14-.13.24-.26.24Z"/>
            </g>
          </g>
          <g>
            <path class="cls-3" d="M169.72,145.41l.06-11.19-.06,11.19Z"/>
            <path d="M169.72,145.67h0c-.14,0-.26-.12-.26-.26l.06-11.19c0-.14.12-.27.26-.26.14,0,.26.12.26.26l-.06,11.19c0,.14-.12.26-.26.26Z"/>
          </g>
        </g>
        <g>
          <path class="cls-3" d="M107.79,159.45l.21,17.59-.21-17.59Z"/>
          <path d="M108,177.3c-.14,0-.26-.12-.26-.26l-.21-17.58c0-.14.11-.26.26-.26.14,0,.26.11.26.26l.21,17.58c0,.14-.11.26-.26.26h0Z"/>
        </g>
      </g>
    </g>
    <g>
      <g>
        <path class="cls-4" d="M40.64,102.28l14.79,8.17,22.34-26.81s9.47,8.66,13.94,19.14c0,0-15.02,23.24-25.65,36.34-10.63,13.1-22.5,8.01-29.12-.77-6.63-8.78,3.7-36.06,3.7-36.06Z"/>
        <path d="M50.9,116.55c-.06,0-.11-.02-.16-.06-.11-.09-.13-.25-.05-.37l4.54-5.84c.09-.11.25-.13.37-.05.11.09.13.25.05.37l-4.54,5.84c-.05.07-.13.1-.21.1Z"/>
      </g>
      <g>
        <g>
          <g>
            <path class="cls-3" d="M53.14,71.2c-.28-.55-.73-1.02-1.28-1.29.46-1.93.86-3.96.38-5.92-.42-1.72-1.53-3.3-3.23-3.94-.96-.36-2.03-.37-3.04-.27-.97.1-1.96.23-2.89.56-.95.34-1.77.87-2.45,1.62-.16.18-.32.37-.47.56-.98-1.03-2.43-1.57-3.89-1.55-2.28.02-4.18,1.43-5.37,3.3-.48.75-.85,1.58-1.13,2.44-.66-.49-1.6-.62-2.41-.3-1.42.57-2.42,2.02-3.12,3.32-1.47,2.74-1.79,6.03-.8,8.98.33.99.8,1.93,1.37,2.79-.02.07-.03.13-.05.2-.44,2.14.22,4.34,1.27,6.21.52.92,1.14,1.8,1.99,2.45.85.64,1.88,1.01,2.88,1.32,2.11.67,4.47,1.11,6.64.44,1.45-.45,2.82-1.4,3.59-2.72.27.49.63.92,1.12,1.18.53.28,1.15.29,1.7.05.57-.25,1-.72,1.39-1.19,1.69-2.03,3.34-4.25,3.89-6.89.26-1.24.28-2.55-.05-3.77,1.26-.87,2.43-1.93,3.31-3.18.92-1.29,1.37-2.93.63-4.41Z"/>
            <path d="M35.23,92.72c-1.29,0-2.73-.26-4.38-.79-1.01-.32-2.07-.69-2.96-1.37-.77-.58-1.42-1.39-2.06-2.53-.87-1.56-1.81-3.93-1.3-6.39,0-.03.01-.06.02-.1-.57-.86-1.02-1.79-1.34-2.76-1-3-.71-6.35.82-9.19.98-1.83,2.04-2.96,3.25-3.44.77-.31,1.66-.25,2.37.14.28-.8.63-1.53,1.05-2.18,1.37-2.16,3.41-3.4,5.59-3.42,1.48-.02,2.88.5,3.87,1.43.1-.12.2-.24.3-.35.69-.77,1.55-1.34,2.55-1.69.97-.34,1.99-.48,2.95-.57,1.3-.13,2.31-.04,3.16.28,1.64.62,2.91,2.16,3.39,4.12.48,1.96.11,3.96-.33,5.85.51.3.93.76,1.21,1.31.7,1.4.47,3.1-.65,4.67-.81,1.15-1.9,2.2-3.23,3.14.27,1.15.27,2.43,0,3.71-.55,2.67-2.22,4.94-3.94,7-.41.49-.86.99-1.49,1.26-.63.27-1.33.25-1.92-.06-.38-.2-.72-.51-1-.92-.79,1.13-2.05,2.03-3.51,2.48-.75.23-1.55.35-2.41.35ZM28.31,66.49c-.29,0-.57.05-.84.16-1.09.44-2.06,1.48-2.98,3.2-1.46,2.72-1.74,5.91-.78,8.78.32.96.77,1.88,1.34,2.73.04.06.05.14.04.21v.06s-.04.09-.05.13c-.48,2.3.41,4.55,1.24,6.03.6,1.08,1.22,1.83,1.92,2.37.82.63,1.84.98,2.8,1.28,2.66.84,4.72.98,6.48.44,1.48-.46,2.74-1.41,3.44-2.6.05-.08.13-.12.23-.13.09,0,.18.05.23.13.29.52.62.87,1.01,1.07.45.24.99.25,1.47.04.53-.23.93-.68,1.3-1.12,1.68-2.01,3.3-4.22,3.83-6.77.27-1.28.25-2.54-.04-3.65-.03-.11.01-.22.1-.28,1.35-.93,2.44-1.98,3.25-3.12,1-1.41,1.22-2.92.61-4.14-.26-.51-.67-.93-1.16-1.17-.11-.05-.17-.18-.14-.29.45-1.88.85-3.88.38-5.8-.44-1.8-1.59-3.2-3.07-3.76-.77-.29-1.7-.37-2.92-.25-.93.09-1.91.22-2.82.54-.92.33-1.71.85-2.34,1.55-.15.17-.3.34-.45.54-.05.06-.12.1-.19.1-.08,0-.15-.03-.2-.08-.91-.95-2.26-1.5-3.7-1.47-2,.02-3.88,1.18-5.16,3.18-.45.7-.81,1.5-1.1,2.38-.03.08-.09.14-.17.17-.08.03-.17.01-.24-.04-.37-.28-.84-.42-1.31-.42Z"/>
          </g>
          <g>
            <ellipse class="cls-3" cx="25.34" cy="61.42" rx="4.93" ry="4.58"/>
            <path d="M25.34,66.26c-2.86,0-5.19-2.17-5.19-4.84s2.33-4.84,5.19-4.84,5.19,2.17,5.19,4.84-2.33,4.84-5.19,4.84ZM25.34,57.1c-2.58,0-4.67,1.94-4.67,4.32s2.1,4.32,4.67,4.32,4.67-1.94,4.67-4.32-2.1-4.32-4.67-4.32Z"/>
          </g>
        </g>
        <g>
          <polygon class="cls-3" points="35.59 89.67 27.11 98.98 40.55 110.35 47.79 93.6 35.59 89.67"/>
          <path d="M40.55,110.62c-.06,0-.12-.02-.17-.06l-13.45-11.38c-.05-.05-.09-.11-.09-.18,0-.07.02-.14.07-.19l8.48-9.31c.07-.08.18-.1.27-.07l12.21,3.93c.07.02.13.07.16.14.03.07.03.14,0,.21l-7.24,16.76c-.03.08-.1.13-.18.15-.02,0-.04,0-.06,0ZM27.48,98.95l12.97,10.98,6.99-16.17-11.77-3.79-8.19,8.98Z"/>
        </g>
        <g>
          <g>
            <path class="cls-3" d="M55.78,79.75c-1.55-3.55-3.99-6.34-6.73-8.02-.37.36-.79.66-1.27.84-.53.2-1.18.2-1.7-.04-.43-.2-.82-.48-1.07-.87-.04.61-.16,1.21-.32,1.79-.44,1.52-1.22,3-2.34,4.13-1.02,1.03-2.37,1.69-3.83,1.56.28.74.59,1.47.87,2.21.22.6.38,1.22.5,1.85.15.8.27,1.69.09,2.5-.65-.68-1.52-1.25-2.54-1.62-2.81-1.01-5.72-.08-6.5,2.07-.77,2.16.88,4.72,3.69,5.74.94.34,1.9.46,2.78.39,3.69,5.1,9.41,7.51,14.06,5.48,5.65-2.46,7.58-10.52,4.32-18.01Z"/>
            <path d="M48.01,98.73c-3.79,0-7.84-2.24-10.74-6.18-.91.05-1.85-.09-2.74-.41-2.95-1.06-4.67-3.78-3.85-6.07.82-2.29,3.89-3.29,6.83-2.23.85.31,1.63.76,2.27,1.33.06-.65-.05-1.32-.16-1.92-.13-.7-.29-1.27-.49-1.81-.16-.42-.33-.85-.49-1.26-.13-.32-.25-.63-.38-.95-.03-.08-.02-.18.04-.25.05-.07.14-.11.23-.1,1.27.11,2.55-.42,3.62-1.49,1.03-1.04,1.82-2.42,2.28-4.02.17-.61.28-1.19.32-1.73,0-.11.09-.21.2-.24.11-.03.22.02.29.11.19.3.52.56.96.77.43.2,1,.22,1.5.03.41-.15.8-.41,1.18-.78.09-.08.22-.1.32-.04,2.89,1.78,5.32,4.67,6.83,8.14,1.6,3.67,2.02,7.6,1.2,11.06-.84,3.48-2.84,6.08-5.65,7.3-1.12.49-2.33.73-3.56.73ZM37.4,92.02c.08,0,.16.04.21.11,3.69,5.09,9.35,7.31,13.75,5.4,2.65-1.16,4.55-3.62,5.35-6.94.8-3.35.39-7.16-1.17-10.72-1.44-3.3-3.73-6.06-6.45-7.79-.38.35-.79.6-1.21.76-.63.23-1.35.21-1.91-.05-.3-.14-.55-.3-.76-.48-.06.4-.15.82-.27,1.24-.48,1.68-1.31,3.14-2.41,4.24-1.06,1.07-2.34,1.65-3.62,1.66.08.19.15.38.23.57.17.42.34.84.5,1.27.21.56.37,1.16.51,1.89.15.8.28,1.74.08,2.61-.02.09-.09.17-.19.19-.09.03-.19,0-.26-.07-.65-.68-1.5-1.22-2.44-1.56-2.67-.96-5.44-.1-6.16,1.91-.72,2.02.86,4.44,3.54,5.4.87.31,1.79.44,2.67.37,0,0,.01,0,.02,0Z"/>
          </g>
          <path d="M38.1,88.37c-.07,0-.14-.03-.19-.09-2.22-2.43-3.94-.97-4.01-.9-.11.1-.27.09-.37-.02-.1-.11-.09-.27.02-.37.02-.02,2.18-1.87,4.74.94.1.11.09.27-.02.37-.05.05-.11.07-.18.07Z"/>
        </g>
        <g>
          <g>
            <path class="cls-3" d="M51.11,83.73c.53,1.71,0,3.39-1.2,3.76-1.19.37-2.58-.72-3.1-2.43-.53-1.71,0-3.39,1.2-3.76,1.19-.37,2.58.72,3.1,2.43Z"/>
            <path d="M49.44,87.82c-.5,0-1.01-.19-1.48-.56-.63-.49-1.12-1.24-1.39-2.12-.57-1.84.04-3.67,1.37-4.08,1.32-.41,2.86.76,3.43,2.6.27.88.29,1.78.04,2.54-.25.79-.75,1.34-1.41,1.55-.18.06-.37.08-.56.08ZM48.48,81.49c-.14,0-.27.02-.4.06-1.05.32-1.51,1.86-1.02,3.43.24.78.67,1.44,1.22,1.86.52.4,1.07.54,1.56.39.49-.15.87-.58,1.07-1.2.21-.66.19-1.45-.05-2.22-.42-1.37-1.43-2.32-2.37-2.32Z"/>
          </g>
          <g>
            <path class="cls-3" d="M57.35,80.58c.53,1.71,0,3.39-1.2,3.76s-2.58-.72-3.1-2.43c-.53-1.71,0-3.39,1.2-3.76s2.58.72,3.1,2.43Z"/>
            <path d="M55.68,84.66c-1.18,0-2.39-1.09-2.89-2.68-.57-1.84.04-3.67,1.37-4.08,1.32-.41,2.86.76,3.43,2.6.27.88.29,1.78.04,2.54-.25.79-.75,1.34-1.41,1.55-.18.06-.36.08-.54.08ZM54.72,78.34c-.14,0-.27.02-.4.06-1.05.32-1.51,1.86-1.02,3.43.48,1.57,1.73,2.58,2.78,2.26.49-.15.87-.58,1.07-1.2.21-.66.19-1.45-.05-2.22-.42-1.37-1.43-2.32-2.37-2.32Z"/>
          </g>
          <path d="M46.97,85.95h-7c-.14,0-.26-.12-.26-.26s.12-.26.26-.26h7c.14,0,.26.12.26.26s-.12.26-.26.26Z"/>
          <path d="M51.12,83.71s-.06,0-.09-.02c-.14-.05-.21-.2-.16-.33.01-.04.34-.94,1.13-1.21.46-.16.96-.06,1.49.29.12.08.16.24.08.36-.08.12-.24.16-.36.08-.39-.25-.74-.33-1.03-.23-.54.18-.8.88-.8.89-.04.11-.14.17-.25.17Z"/>
        </g>
      </g>
      <g>
        <path class="cls-4" d="M56.69,135.87s10.34,11.17,7.45,22.34c-2.9,11.17-6.21,13.65-5.79,16.14.41,2.48,9.1,25.24,10.34,44.69H-1.24s2.48-26.07,3.72-43.45c1.24-17.38,6.62-62.06,12.41-70.34,5.79-8.28,41.79,30.62,41.79,30.62Z"/>
        <g>
          <path class="cls-3" d="M65.91,112.36l11.51,15.47s3.69-2.46,4.31-7.38c.62-4.92,1-8.43,1.44-10.18.44-1.76,1.73-5.9-.29-8.45,0,0,2.7-3.86.51-5.71,0,0,1.59-3.78-.16-5.28s-7.47,6.15-7.47,6.15c0,0,.53-2.9,2.29-5.19,1.76-2.29,1.51-3.59.09-4.04-1.67-.53-5.45,3.43-6.5,5.71s-1.76,10.72-2.11,12.22-3.6,6.68-3.6,6.68Z"/>
          <path d="M79.22,111.35s-.02,0-.03,0c-.14-.02-.24-.15-.23-.29.02-.18.57-4.47,1.48-7.04.99-2.76,2.43-2.47,2.49-2.46.14.03.23.17.2.31-.03.14-.17.23-.31.2-.03,0-1.08-.15-1.89,2.12-.9,2.52-1.45,6.89-1.46,6.93-.02.13-.13.23-.26.23Z"/>
          <path d="M76.18,106.57s-.04,0-.06,0c-.14-.03-.23-.18-.19-.32,0-.03.19-.77.92-3.14.75-2.44,2.25-5.23,3.55-6.63,1.41-1.51,2.74-.82,2.8-.79.13.07.17.23.11.35-.07.13-.23.17-.35.11-.05-.02-1.05-.52-2.17.68-1.26,1.35-2.7,4.05-3.44,6.43-.72,2.35-.91,3.11-.92,3.11-.03.12-.14.2-.25.2Z"/>
          <path d="M74.8,100.87s-.03,0-.04,0c-.14-.02-.24-.16-.21-.3.37-2.21.95-3.63.97-3.69.06-.13.21-.2.34-.14.13.05.2.21.14.34,0,.01-.58,1.43-.94,3.57-.02.13-.13.22-.26.22Z"/>
        </g>
        <g>
          <path class="cls-4" d="M13.38,110.08s2.48-12.14,12.69-13.52c10.21-1.38,19.31,23.72,23.72,30.34l17.65-18.21s8.4,5.26,12.87,15.21c.3.68.59,1.38.85,2.1,0,0-6.43,14.84-16.86,26.32-4.02,4.42-8.63,8.34-13.69,10.71-24.47,11.49-41.1-27.86-37.24-52.96Z"/>
          <path d="M49.79,127.17s-.02,0-.02,0c-.08,0-.15-.05-.19-.12-1.07-1.61-2.42-4.3-3.98-7.41-.97-1.94-2.07-4.14-3.23-6.32-.07-.13-.02-.29.11-.35.13-.07.29-.02.35.11,1.16,2.18,2.26,4.39,3.24,6.33,1.46,2.93,2.74,5.47,3.77,7.08l17.43-17.97c.1-.1.27-.11.37,0,.1.1.11.27,0,.37l-17.65,18.21c-.05.05-.12.08-.19.08Z"/>
          <path d="M42,165.36c-2.71,0-5.37-.63-7.96-1.88-4.51-2.18-8.74-6.33-12.25-12.01-3.25-5.25-5.81-11.67-7.42-18.55-.03-.14.05-.28.2-.31.14-.03.28.05.31.2,3.38,14.48,10.81,26.05,19.38,30.21,5.16,2.5,10.63,2.43,16.24-.21,4.48-2.1,8.99-5.62,13.41-10.44.1-.11.26-.11.37-.02.11.1.11.26.02.37-4.47,4.88-9.04,8.43-13.58,10.56-2.96,1.39-5.88,2.09-8.74,2.09Z"/>
        </g>
      </g>
    </g>
  </g>
</svg>