<?xml version="1.0" encoding="UTF-8"?>
<svg id="Capa_1" data-name="Capa 1" xmlns="http://www.w3.org/2000/svg" viewBox="0 0 251.17 232.45">
  <defs>
    <style>
      .cls-1 {
        fill: #e94e24;
      }

      .cls-2 {
        fill: #f2f7f8;
      }

      .cls-3 {
        fill: #ec6839;
      }

      .cls-4 {
        fill: #cadee1;
      }

      .cls-5 {
        fill: #6b6664;
      }

      .cls-6 {
        fill: #fff;
      }

      .cls-7 {
        fill: #8cbdc1;
      }

      .cls-8 {
        fill: #b8ac8f;
      }

      .cls-9 {
        fill: #504b48;
      }
    </style>
  </defs>
  <path class="cls-2" d="M153.24,26.16c-36.88,7.79-31.39,50.87-94.89,75.05-68.06,25.91-26.84,123.67,50.6,129.23,77.07,5.54,112.61-29.22,120.53-95.25,5.95-49.66-21.42-120.61-76.24-109.03"/>
  <path class="cls-4" d="M66.55,92.35c16.54-5.68,41.61-32.24,32.55-62C90.03.6,17.72,109.13,66.55,92.35"/>
  <path class="cls-1" d="M12.17,68.26c-4.12,0-7.47,3.35-7.47,7.47v68.93c0,4.88,3.97,8.85,8.85,8.85h88.24c4.88,0,8.85-3.97,8.85-8.85v-68.93c0-4.12-3.35-7.47-7.47-7.47H12.17ZM101.78,154.82H13.55c-5.6,0-10.15-4.55-10.15-10.16v-68.93c0-4.84,3.93-8.78,8.78-8.78h90.99c4.84,0,8.78,3.94,8.78,8.78v68.93c0,5.6-4.56,10.16-10.16,10.16"/>
  <path class="cls-1" d="M94.74,70.37c-.4,0-.73.33-.73.73s.33.74.73.74.73-.33.73-.74-.33-.73-.73-.73"/>
  <path class="cls-1" d="M97.83,70.37c-.41,0-.74.33-.74.73s.33.74.74.74.73-.33.73-.74-.33-.73-.73-.73"/>
  <path class="cls-1" d="M100.93,70.37c-.4,0-.73.33-.73.73s.33.74.73.74.73-.33.73-.74-.33-.73-.73-.73"/>
  <rect class="cls-1" x="4.04" y="75.58" width="78.68" height="1.31"/>
  <polygon class="cls-9" points="38.26 142.12 37.78 141.5 57.21 126.34 57.69 126.96 38.26 142.12"/>
  <path class="cls-1" d="M41.39,141.81c0,2.57-2.08,4.66-4.66,4.66s-4.66-2.09-4.66-4.66,2.09-4.66,4.66-4.66,4.66,2.08,4.66,4.66"/>
  <polygon class="cls-9" points="53.6 114.28 29.41 99.82 29.81 99.15 54 113.62 53.6 114.28"/>
  <path class="cls-9" d="M68.89,112.08l-.71-.32c.69-1.51,13.69-18.17,14.24-18.88l.61.48c-3.75,4.81-13.61,17.54-14.14,18.72"/>
  <rect class="cls-9" x="78.62" y="112.69" width=".78" height="17.89" transform="translate(-57.25 171.37) rotate(-77.04)"/>
  <path class="cls-1" d="M32.07,97.78c0,2.57-2.08,4.66-4.65,4.66s-4.65-2.09-4.65-4.66,2.08-4.66,4.65-4.66,4.65,2.09,4.65,4.66"/>
  <path class="cls-1" d="M94.91,123.64c0,2.57-2.08,4.66-4.66,4.66s-4.66-2.09-4.66-4.66,2.09-4.66,4.66-4.66,4.66,2.09,4.66,4.66"/>
  <path class="cls-1" d="M89.24,90.65c0,2.57-2.08,4.65-4.66,4.65s-4.66-2.08-4.66-4.65,2.09-4.66,4.66-4.66,4.66,2.09,4.66,4.66"/>
  <path class="cls-1" d="M74.03,118.67c0,6.56-5.31,11.88-11.87,11.88s-11.88-5.31-11.88-11.88,5.31-11.87,11.88-11.87,11.87,5.31,11.87,11.87"/>
  <path class="cls-9" d="M145.77,100.23c-1.54-4.51-7.03-9.02-15.59-2.24-9.11,7.22-12.89,45.26-13.15,70.66,0,0,2.5,2.04,6.65.99,0,0,1.2-12.51,1.43-14.42,0,0,.02,11.17.45,13.37,0,0,3.22,1.61,5.67-.72,0,0-2.72-41.95,4.94-53.22,7.21-10.62,11.21-9.71,9.6-14.42"/>
  <path class="cls-6" d="M204.92,114.49l-8.47-.32c-.58-.03-1.07.43-1.09,1.01-.02.58.43,1.06,1.01,1.09h.35s-1.29,34.62-1.29,34.62c-.09,2.14,1.59,3.94,3.73,4.02,2.14.08,3.93-1.59,4.02-3.73l1.29-34.6.37.02c.57.02,1.06-.43,1.08-1.01.02-.58-.43-1.06-1-1.09"/>
  <path class="cls-3" d="M196.8,150.94c-.05,1.38,1.03,2.54,2.41,2.59,1.38.05,2.54-1.03,2.59-2.41l.83-22.29-5-.18-.83,22.28Z"/>
  <path class="cls-6" d="M113.04,146.59c-9.65,5.32-27.98,20.23-37.58,31.04-9.6,10.81-.92,26.6,12.68,21.07,13.61-5.53,39.01-22.68,42.84-27.01,7.53-8.5-3.1-33.29-17.94-25.1"/>
  <path class="cls-6" d="M175.55,145.95c9.65,5.32,30.7,20.87,40.3,31.68,9.6,10.81.92,26.61-12.69,21.07-13.6-5.53-39-22.68-42.83-27.01-7.53-8.49.38-33.93,15.21-25.75"/>
  <path class="cls-3" d="M178.49,185.12c1.37-4.02.79-15.47.02-20.94-.63-6.33.07-16.05-6.26-19.4-2.84-1.51-15.24-2.23-20.8-3.8h-14.12c-4.37,1.11-15.12,3.76-18.89,3.85-3.04.07-4.94,2.45-6.48,7.08-1.69,8.81-2.19,17.17-3.64,26.01-.83,4.73-.06,8.48,2.81,15.37,4.17,11.73-5.97,30.15-5.97,30.15,0,0,42.03,13.1,78.45-.33,0,0-10.58-22.01-5.14-38"/>
  <path class="cls-6" d="M132.27,142.23s-6.37,13.29-3.5,25.32c2.87,12.03,1.88,29.44,1.88,29.44l-6.77,32.47h-23.39c2.67-5.7,7.39-15.37,7.79-20.26.56-6.85-2.61-27.53,1.28-42.77l1.94-14.47,2.38-5.38,2.21-1.2c.52-.28,1.09-.48,1.68-.58l14.49-2.57Z"/>
  <path class="cls-6" d="M153.91,141.01s6.37,13.29,3.5,25.32c-2.87,12.02-1.88,29.44-1.88,29.44l7.12,33.69h26.02c-2.89-6.92-6.9-16.35-7.25-20.67-.56-6.86,2.61-27.53-1.28-42.77l-1.94-14.47-2.38-5.39-1.75-.94c-.83-.45-1.72-.77-2.66-.94l-17.5-3.27Z"/>
  <path class="cls-8" d="M151.51,128.88v12.3c5.87,15.18-7.23,34.13-7.23,34.13,0,0-12.29-20.47-6.71-34.18v-17.68s5.28,2.57,13.95,5.42"/>
  <path class="cls-8" d="M222.28,180.07c-1.56,11.27-19.79,10.25-21.28-.64-1.01-7.37,1.33-23.15,4.17-32.67.51-1.69,1.03-3.19,1.55-4.4h0c1.79-4.19-4.96-1.41-7.43-2.18-2.46-.78-2.15-2.96-1.95-4.74.19-1.78-.44-2.33.66-3.96.92-1.35,1.84-2.67,2.07-3.7-2.32-.41-4.13-1.18-6.36-2.57-1.85-1.15-.38-2.19.7-2,2.46.45,7.64.8,10.48,1.78l.07.03c2.07.38,8.32,4.53,9.27,5.64,1.44,1.64,3.3,5.09,3.05,10.57-.22,1.4-.24,3.2-.13,5.23.63,11.41,5.57,30.63,5.15,33.61"/>
  <path class="cls-7" d="M217.58,146.47c-4.13,1.05-10.74.52-13.12.23.5-1.69,2.25-4.35,2.25-4.35,1.79-4.19-4.96-1.4-7.43-2.18-2.46-.78-2.15-2.96-1.95-4.74.19-1.78-.44-2.33.66-3.95.92-1.35,1.84-2.67,2.08-3.71-2.32-.4-4.14-1.18-6.36-2.56-1.86-1.15-.38-2.2.7-2,2.46.45,7.64.8,10.48,1.78l.06.03c2.07.38,8.32,4.52,9.27,5.63,1.44,1.65,3.3,5.09,3.05,10.57-.22,1.41.2,3.21.32,5.24"/>
  <path class="cls-6" d="M199.42,193.81c-1.62-12.14-3.4-12.69-.88-31.85,0,0,19.25-2.13,25.66.43,0,0-.01,20.64-1.25,30.6-1.1,8.99-22.28,10.11-23.53.82"/>
  <path class="cls-6" d="M75.12,196.88c9.12,8.17,16.86,11.93,34.1,20.64,0,0,7.93-9.02,9.42-15.76,0,0-19.2-19.73-26.31-25.34-7.11-5.61-24.2,14.21-17.22,20.47"/>
  <path class="cls-5" d="M176.12,178.66h-83.9c-1.09,0-1.95,1.02-1.75,2.07l9.04,48.7h70.84l7.55-48.99c.03-1.04-.71-1.77-1.78-1.77"/>
  <path class="cls-9" d="M99.77,231.66l.33.31h68.95c.4,0,.81-.28.92-.63l.37-1.93h-70.86l.28,2.24Z"/>
  <path class="cls-9" d="M132.63,125.85c1.9,3.28,5.34,5.53,4.94-1.52-.49-8.61,24.62-12.57,14.97-19.57-14.42-10.46-27.5,8-19.92,21.09"/>
  <path class="cls-8" d="M150.72,136.59c-4.29-.03-12.11-5.87-13.84-9.79-.62-1.4-.37-5.11.19-6.9,1.77-5.62,3.2-10.71,7.56-12.26,1.84-.64,8.52,1.59,10.21,1.96,3.22.69,4.62,3.96,4.66,9.64.04,6.39-1.23,17.4-8.78,17.34"/>
  <path class="cls-9" d="M137.9,116.81s2.49,2.95,4.56-1.61c2.53-5.58,11.4-4.73,15.07-4.04,0,0,.52.4,1.9,5.28,0,0,2.22-9.65-8.71-12.07-10.63-2.35-13.48,7.98-12.82,12.44"/>
  <path class="cls-8" d="M140.86,119.53c.67,2.11-.49,4.36-2.59,5.04-2.11.68-4.36-.49-5.04-2.59-.67-2.11.49-4.36,2.6-5.04,2.1-.67,4.36.49,5.03,2.59"/>
  <path class="cls-5" d="M142.71,118.45c.03-.09.13-.35,2.42-.36l.63-.2-.56.49c-.46.24-.9,1.72-1.04,2.27l-.05.19-.17-.09s-.63-.35-.81-.8l-.12-.3c-.23-.54-.4-.95-.31-1.18"/>
  <path class="cls-5" d="M163.26,118.35c2.06.17,2.14.44,2.16.53.07.24-.09.63-.32,1.15l-.13.29c-.17.43-.73.73-.76.75l-.18.09-.03-.2c-.14-.78-.49-2.1-.83-2.34l-.46-.32.55.05Z"/>
  <path class="cls-5" d="M156.14,119.39l-.17-.03c-1.49-.6-2.66-.02-2.67-.02l-.61-.2.19-.6c.06-.03,1.56-.77,3.42-.02l.26.59-.41.28Z"/>
  <path class="cls-5" d="M144.36,119.15c-.27,1.57,0,3.76,1.16,5.2.8.97,1.9,1.48,3.29,1.51h.14c1.14,0,2.06-.36,2.75-1.06,1.55-1.59,1.45-4.37,1.43-4.69-.07-1.49-1.15-2.17-3.99-2.5l-.68-.04c-2.25,0-3.8,1.31-4.1,1.58M148.8,126.41c-1.55-.04-2.8-.61-3.7-1.72-1.31-1.6-1.58-4.03-1.26-5.76l.03-.06.03-.03s1.8-1.81,4.55-1.81l.74.04c3.13.36,4.38,1.21,4.47,3.02.07,1.52-.3,3.76-1.59,5.09-.79.82-1.85,1.23-3.14,1.23h-.15Z"/>
  <path class="cls-5" d="M159.89,117.59h-.25c-2.56.14-3.51.72-3.64,2.23-.03.33-.23,3.29,1.22,4.95.59.67,1.38,1.04,2.37,1.09h.22c1.03,0,1.9-.36,2.57-1.09,1.24-1.33,1.61-3.62,1.43-5.32-.26-.31-1.72-1.87-3.92-1.87M159.56,126.4c-1.13-.06-2.06-.49-2.75-1.28-1.61-1.84-1.38-5-1.35-5.36.16-1.8,1.32-2.56,4.15-2.71h.28c2.65,0,4.33,2.03,4.41,2.15l.03.06v.05c.23,1.84-.17,4.35-1.55,5.83-.78.83-1.78,1.26-2.96,1.26h-.26Z"/>
  <polygon class="cls-5" points="143.04 118.75 143.15 118.55 143.1 118.32 142.85 118.2 142.74 118.22 139.69 117.43 139.96 117.96 139.99 118.03 142.98 118.8 143.04 118.75"/>
  <path class="cls-7" d="M146.03,99.24s1.38,1.45.36,2.81c0,0-6.81.02-9.86,3.6,0,0-1.61-1.39-1.48-3.29,0,0,5.91-4.77,10.98-3.12"/>
  <polygon class="cls-6" points="152.06 68.89 151.74 68.03 180.73 57.27 181.05 58.14 152.06 68.89"/>
  <polygon class="cls-6" points="246.06 69.16 223.1 44.51 181.8 56.01 147.76 31.4 148.3 30.66 181.97 55.01 223.4 43.47 246.73 68.54 246.06 69.16"/>
  <path class="cls-6" d="M241.77,70.05c.66,2.55,3.27,4.08,5.82,3.42,2.55-.66,4.08-3.27,3.42-5.82-.66-2.55-3.27-4.08-5.82-3.42-2.55.66-4.08,3.26-3.42,5.81"/>
  <path class="cls-6" d="M217.66,45.44c.8,3.09,3.96,4.94,7.04,4.14,3.09-.8,4.94-3.96,4.14-7.04-.8-3.09-3.96-4.94-7.04-4.14-3.09.8-4.94,3.95-4.14,7.04"/>
  <path class="cls-6" d="M139.73,31.62c1.14,4.37,5.6,7,9.98,5.87,4.37-1.14,7-5.6,5.87-9.98-1.14-4.37-5.6-7-9.98-5.87-4.37,1.14-7,5.6-5.87,9.98"/>
  <path class="cls-6" d="M183.12,51.08l-.9-.18c.42-2.14,7.1-40.01,7.17-40.39l.9.16c-.06.38-6.75,38.26-7.17,40.41"/>
  <path class="cls-6" d="M187,10.56c.45,1.75,2.24,2.79,3.99,2.34,1.75-.46,2.8-2.24,2.34-3.99-.45-1.75-2.24-2.8-3.99-2.35-1.75.46-2.79,2.24-2.34,3.99"/>
  <path class="cls-6" d="M148.3,69.39c.32,1.23,1.57,1.97,2.8,1.65,1.23-.32,1.97-1.57,1.65-2.8-.32-1.23-1.57-1.96-2.8-1.64-1.23.32-1.96,1.57-1.65,2.8"/>
  <path class="cls-6" d="M176.18,56.99c.91,3.5,4.48,5.6,7.98,4.69,3.5-.91,5.6-4.48,4.69-7.97-.91-3.5-4.48-5.6-7.97-4.69-3.5.91-5.6,4.48-4.69,7.98"/>
  <path class="cls-9" d="M77.33,172.39l-4.77,5.09-2.97-4.19,5.28-4.01c1.05-.33,3.56,1.26,2.46,3.1"/>
  <path class="cls-7" d="M73.29,177.19l-6.8,7.25-5.67-4.96,8.96-6.72c1.1-.34,4.8,1.6,3.5,4.43"/>
  <path class="cls-9" d="M85.31,171.68l-5.33,5.33-3.07-4.62,5.84-4.15c1.15-.32,3.8,1.49,2.55,3.44"/>
  <path class="cls-7" d="M80.79,176.73l-9.96,9.56-5.21-5.91,11.54-8.55c1.2-.34,5.14,1.89,3.64,4.9"/>
  <path class="cls-5" d="M71.26,179.2l3.48,5.56s0,3.59-5.63,4.47l-8.05-2.46,1.09-4.29,9.12-3.28Z"/>
  <polygon class="cls-9" points="56.85 208.57 70.86 208.57 71.42 209.14 71.42 209.18 70.86 209.75 56.85 209.75 56.29 209.18 56.29 209.14 56.85 208.57"/>
  <polygon class="cls-9" points="64.62 191.56 66.6 191.56 67.26 192.22 67.26 199.81 67.11 200.22 66.12 201.43 65.1 201.43 64.12 200.22 63.97 199.81 63.97 192.22 64.62 191.56"/>
  <path class="cls-5" d="M58.75,186.86l11.5-.47-2.35,5.87-8.86,3.57c-2.92,1.18-4.01,4.76-2.22,7.36l8.5,12.42v13.85h-18.07l1.52-36.14,9.98-6.46Z"/>
  <path class="cls-9" d="M54.86,217.43c1.39,0,2.53,1.13,2.53,2.53s-1.13,2.52-2.53,2.52-2.53-1.13-2.53-2.52,1.13-2.53,2.53-2.53"/>
  <path class="cls-5" d="M54.86,216.7h-.05l.05-1.8h.23s-.09,1.81-.09,1.81h-.14ZM53.85,215l.21-.04.29,1.78-.14.02-.37-1.76ZM55.48,216.75l.35-1.77.21.05-.41,1.75-.15-.03ZM52.93,215.28l.21-.08.6,1.69-.12.05-.69-1.66ZM56.07,216.93l.68-1.67.2.08-.73,1.65-.14-.06ZM52.08,215.73l.19-.12.92,1.55-.12.08-.99-1.5ZM56.62,217.21l.98-1.52.19.12-1.04,1.47-.12-.08ZM51.34,216.33l.16-.15,1.19,1.35-.1.1-1.26-1.29ZM57.11,217.6l1.24-1.31.17.16-1.31,1.24-.09-.09ZM50.72,217.06l.13-.18,1.43,1.09-.08.12-1.48-1.03ZM57.52,218.06l1.47-1.05.11.17-1.49,1-.09-.13ZM50.24,217.9l.1-.21,1.61.82-.06.12-1.65-.73ZM57.82,218.6l1.64-.75.09.2-1.67.69-.06-.13ZM49.94,218.82l.06-.22,1.73.48-.03.14-1.75-.4ZM58.03,219.19l1.75-.44.05.22-1.77.36-.03-.14ZM49.81,219.76l.02-.23,1.79.16v.13s-1.81-.07-1.81-.07ZM58.12,219.79l1.8-.09v.22s-1.79,0-1.79,0v-.14ZM49.83,220.5l1.79-.19.02.14-1.78.26-.03-.22ZM58.07,220.55l.02-.14,1.78.25-.03.22-1.77-.33ZM50.02,221.43l1.73-.52.04.12-1.69.61-.08-.22ZM57.9,221.15l.05-.14,1.7.59-.07.2-1.68-.65ZM50.39,222.32l1.6-.83.07.12-1.55.91-.11-.2ZM57.62,221.69l.07-.12,1.56.9-.11.19-1.52-.97ZM50.92,223.13l1.41-1.13.1.11-1.36,1.19-.14-.17ZM57.24,222.18l.09-.11,1.36,1.18-.15.17-1.31-1.24ZM51.6,223.81l1.16-1.37.11.09-1.11,1.42-.17-.14ZM56.77,222.6l.12-.09,1.11,1.41-.17.13-1.07-1.45ZM52.38,224.36l.89-1.57.12.06-.81,1.61-.2-.11ZM56.24,222.91l.13-.07.83,1.6-.2.1-.76-1.63ZM53.27,224.76l.56-1.71.14.04-.5,1.73-.2-.07ZM55.67,223.12l.13-.03.52,1.72-.22.06-.43-1.75ZM54.19,224.97l.25-1.79.14.02-.15,1.8-.23-.03ZM55.05,223.21h.14s.17,1.78.17,1.78l-.22.02-.1-1.8Z"/>
  <path class="cls-9" d="M41.83,188.42l5.8-1.78,13.52.12-5.4,2.92c-3.2,1.29-5.41,4.28-5.71,7.72l-2.8,32.06h-17.72l5.83-33.79c.6-3.45,3.11-6.27,6.48-7.25"/>
  <polygon class="cls-9" points="71.26 179.2 62.15 182.48 48.59 182.51 57.73 179.21 71.26 179.2"/>
  <polygon class="cls-9" points="62.15 182.48 61.06 186.77 47.63 186.65 48.59 182.52 62.15 182.48"/>
</svg>