<?xml version="1.0" encoding="UTF-8"?>
<svg id="Capa_1" data-name="Capa 1" xmlns="http://www.w3.org/2000/svg" viewBox="0 0 232.37 226.82">
  <defs>
    <style>
      .cls-1 {
        fill: none;
      }

      .cls-2 {
        fill: #adcdd2;
      }

      .cls-3 {
        fill: #f2f7f8;
      }

      .cls-4 {
        fill: #ccdff4;
      }

      .cls-5 {
        fill: #ec6839;
      }

      .cls-6 {
        fill: #6b6664;
      }

      .cls-7 {
        fill: #adcdd1;
      }

      .cls-8 {
        fill: #cadee1;
      }

      .cls-9 {
        fill: #8cbdc1;
      }

      .cls-10 {
        fill: #eceae3;
      }

      .cls-11 {
        fill: #c5bca3;
      }

      .cls-12 {
        fill: #817e7c;
      }

      .cls-13 {
        fill: #b8ac8f;
      }

      .cls-14 {
        fill: #6b6865;
      }

      .cls-15 {
        fill: #9a8a6f;
      }
    </style>
  </defs>
  <path class="cls-1" d="M209.74,164.79c.13.03.25.05.37.08v-.81c-.12.24-.25.49-.37.73Z"/>
  <path class="cls-3" d="M211.52,161.18c1.2-2.55,2.31-5.16,3.31-7.82-1.03.19-2.13.31-3.31.36v7.45Z"/>
  <path class="cls-3" d="M67.89,131.21v23.23c0,.53-.43.96-.96.96s-.96-.43-.96-.96v-20.78c-3.14,5.58-9.65,9.8-20.3,10.29v18.74c8.18-1.19,17.82-2.19,28.54-2.94v-29.43c-1.89.48-3.99.78-6.31.89Z"/>
  <path class="cls-3" d="M210.11,153.75c-15.3-.34-18.05-12.15-13.29-20.02.93-1.54,1.62-3.07,2.13-4.58-2.88,1.36-6.44,2.24-10.77,2.44v23.63c0,.54-.44.98-.98.98s-.98-.44-.98-.98v-23.6c-1.3-.03-2.54-.12-3.72-.26v29.5c10.79,1.06,20.05,2.39,27.23,3.93.13-.24.25-.48.37-.73v-10.32Z"/>
  <path class="cls-3" d="M25.89,178.27c19.62,27.27,51.63,45.03,87.79,45.03s64.98-16.04,84.77-41.03c-19.1,2.83-46.41,4.6-76.75,4.6-42.85,0-79.67-3.54-95.81-8.6Z"/>
  <path class="cls-3" d="M43.51,143.99c-23.49-.52-27.71-18.65-20.4-30.73,7.37-12.18,4.83-24.16,7.12-31.02,2.28-6.83,6.32-16.2,13.79-16.27h0s.03,0,.04,0,.03,0,.04,0h0c4.86.05,8.26,4.04,10.68,8.7,2.11-5.8,5.62-12.66,11.64-12.72h0s.03,0,.04,0,.03,0,.04,0h0c6.63.06,10.23,8.39,12.25,14.46,0,0,0,0,0,.01h95.3c.06-.2.1-.41.17-.6,2.06-6.17,5.72-14.64,12.47-14.71h0s.03,0,.04,0,.03,0,.04,0h0c6.75.07,10.41,8.54,12.47,14.71,2.07,6.19-.23,17.02,6.43,28.03.19.31.36.63.53.94,1.18-1.12,2.58-1.86,4.24-1.87h0s.02,0,.03,0c0,0,.02,0,.03,0h0c4.87.05,7.5,6.15,8.99,10.6,1.02,3.05.57,7.66,1.71,12.81.37-3.66.57-7.37.57-11.12,0-59.69-48.39-108.08-108.08-108.08S5.59,55.52,5.59,115.21c0,19.66,5.25,38.1,14.43,53.98,4.05-2.33,12.26-4.44,23.49-6.18v-19.03Z"/>
  <path class="cls-10" d="M226.24,172.53c0-2.68-5.38-5.19-14.72-7.34v5.57c0,.39-.32.7-.7.7s-.7-.32-.7-.7v-5.89c-.13-.03-.25-.05-.37-.08-3.2,6.2-6.99,12.04-11.29,17.47,17.25-2.56,27.79-5.98,27.79-9.73Z"/>
  <path class="cls-10" d="M182.51,160.86v10.43h-108.3v-11.54c-10.72.75-20.36,1.75-28.54,2.94v7.41c0,.6-.48,1.08-1.08,1.08s-1.08-.48-1.08-1.08v-7.09c-11.23,1.73-19.43,3.85-23.49,6.18,1.81,3.13,3.77,6.16,5.87,9.08,16.14,5.06,52.96,8.6,95.81,8.6,30.34,0,57.65-1.77,76.75-4.6,4.3-5.42,8.08-11.27,11.29-17.47-7.18-1.53-16.44-2.87-27.23-3.93Z"/>
  <path class="cls-9" d="M59.13,90.83c.04-.15.11-.3.23-.42.37-.37.98-.37,1.36,0l5.26,5.26v-12.5c0-.53.43-.96.96-.96s.96.43.96.96v31.16l3.99-3.99c.37-.37.98-.37,1.36,0s.37.98,0,1.36l-5.35,5.35v3.74c.49,2.56.5,5.18,0,7.69v2.75c2.32-.11,4.42-.41,6.31-.89v-7.77h-1.68v-3.98h1.68v-38.83h-2.68v-3.33h7.22s0,0,0-.01c-2.02-6.06-5.62-14.39-12.25-14.45h0s-.03,0-.04,0-.03,0-.04,0h0c-6.02.06-9.53,6.92-11.64,12.72,1.3,2.5,2.32,5.19,3.11,7.58.78,2.33,1,5.26,1.24,8.59Z"/>
  <path class="cls-9" d="M59.36,91.77c-.08-.08-.14-.18-.18-.27.46,6.32,1.13,14,5.83,21.76.35.58.67,1.18.97,1.79v-16.66l-6.61-6.61Z"/>
  <path class="cls-12" d="M65.97,133.66v20.78c0,.53.43.96.96.96s.96-.43.96-.96v-23.23c-.26.01-.53.02-.79.03-.31.83-.69,1.64-1.13,2.42Z"/>
  <path class="cls-12" d="M67.89,117.04l5.35-5.35c.37-.37.37-.98,0-1.36s-.98-.37-1.36,0l-3.99,3.99v-31.16c0-.53-.43-.96-.96-.96s-.96.43-.96.96v12.5l-5.26-5.26c-.37-.37-.98-.37-1.36,0-.12.12-.19.27-.23.42.02.22.03.44.05.66.05.1.1.19.18.27l6.61,6.61v16.66c.9,1.83,1.55,3.76,1.92,5.73v-3.74Z"/>
  <path class="cls-12" d="M67.1,131.24c.27,0,.53-.02.79-.03v-2.75c-.19.94-.46,1.87-.79,2.77Z"/>
  <path class="cls-7" d="M48.91,124.75l-3.24,3.24v15.96c10.66-.49,17.16-4.71,20.3-10.29v-2.41c-8.18-.18-13.73-2.77-17.06-6.49Z"/>
  <path class="cls-7" d="M45.67,124.94l1.91-1.91c-.85-1.27-1.48-2.64-1.91-4.06v5.97Z"/>
  <path class="cls-7" d="M36.06,99.54c-.42-.42-.42-1.11,0-1.53s1.11-.42,1.53,0l5.92,5.92v-14.07c0-.6.48-1.08,1.08-1.08s1.08.48,1.08,1.08v19.15c.49-1.76,1.22-3.46,2.18-5.05,6.55-10.82,4.29-21.46,6.32-27.55.19-.56.39-1.15.61-1.74-2.42-4.66-5.82-8.65-10.68-8.7h0s-.03,0-.04,0-.03,0-.04,0h0c-7.47.07-11.51,9.45-13.79,16.28-2.29,6.85.25,18.83-7.12,31.02-7.31,12.08-3.08,30.21,20.4,30.73v-37l-7.45-7.45Z"/>
  <path class="cls-7" d="M67.89,120.78v7.69c.5-2.51.49-5.12,0-7.69Z"/>
  <path class="cls-7" d="M47.85,103.95c-.96,1.59-1.69,3.3-2.18,5.05v9.96c.43,1.42,1.06,2.79,1.91,4.06l2.59-2.59c.42-.42,1.11-.42,1.53,0,.42.42.42,1.11,0,1.53l-2.78,2.78c3.33,3.73,8.88,6.31,17.06,6.49v-16.2c-.3-.61-.61-1.21-.97-1.79-4.7-7.76-5.37-15.44-5.83-21.76-.1-.21-.11-.44-.05-.66-.24-3.33-.46-6.26-1.24-8.59-.8-2.38-1.81-5.08-3.11-7.58-.22.59-.42,1.18-.61,1.74-2.03,6.09.23,16.73-6.32,27.55Z"/>
  <path class="cls-7" d="M66.5,131.26h0s-.03,0-.04,0c-.01,0-.03,0-.04,0h0c-.15,0-.3-.01-.45-.02v2.41c.44-.78.82-1.59,1.13-2.42-.2,0-.4.02-.6.02Z"/>
  <path class="cls-7" d="M66.42,131.26s.03,0,.04,0c.01,0,.03,0,.04,0h0c.21,0,.4-.02.6-.02.34-.9.61-1.83.79-2.77v-7.69c-.37-1.97-1.02-3.9-1.92-5.73v16.2c.15,0,.3.01.45.02h0Z"/>
  <path class="cls-7" d="M59.18,91.49c-.02-.22-.03-.44-.05-.66-.06.22-.05.45.05.66Z"/>
  <path class="cls-15" d="M44.1,144h0s-.03,0-.04,0-.03,0-.04,0h0c-.17,0-.33-.02-.5-.02v19.03c.71-.11,1.43-.22,2.16-.32v-18.74c-.52.02-1.03.05-1.57.05Z"/>
  <path class="cls-15" d="M43.51,170.1c0,.6.48,1.08,1.08,1.08s1.08-.48,1.08-1.08v-7.41c-.73.11-1.45.22-2.16.32v7.09Z"/>
  <path class="cls-15" d="M44.01,144.01s.03,0,.04,0,.03,0,.04,0h0c.54,0,1.05-.03,1.57-.06v-15.96l3.24-3.24c-.49-.55-.94-1.13-1.33-1.72l-1.91,1.91v-5.97c-.97-3.2-.92-6.67,0-9.96v-19.15c0-.6-.48-1.08-1.08-1.08s-1.08.48-1.08,1.08v14.07l-5.92-5.92c-.42-.42-1.11-.42-1.53,0s-.42,1.11,0,1.53l7.45,7.45v37c.17,0,.33.02.5.02h0Z"/>
  <path class="cls-15" d="M51.69,120.44c-.42-.42-1.11-.42-1.53,0l-2.59,2.59c.4.6.84,1.17,1.33,1.72l2.78-2.78c.42-.42.42-1.11,0-1.53Z"/>
  <path class="cls-15" d="M45.67,118.97v-9.96c-.92,3.3-.97,6.77,0,9.96Z"/>
  <path class="cls-9" d="M182.51,94.47v24.1h3.19v3.98h-3.19v8.81c1.17.14,2.41.23,3.72.26v-33.44l-3.72-3.72Z"/>
  <path class="cls-9" d="M184.2,79.74h-1.69v11.96l3.72,3.72v-12.72c0-.54.44-.98.98-.98s.98.44.98.98v31.7l4.06-4.06c.38-.38,1-.38,1.38,0,.38.38.38,1,0,1.38l-5.45,5.45v14.42c4.32-.2,7.89-1.08,10.77-2.44,2.14-6.26,1.3-12.03,2.51-15.62.98-2.93,2.46-6.56,4.74-8.73-.17-.32-.35-.63-.53-.94-6.66-11.01-4.36-21.84-6.43-28.03-2.06-6.17-5.72-14.64-12.47-14.71h0s-.03,0-.04,0-.03,0-.04,0h0c-6.75.07-10.41,8.54-12.47,14.71-.06.19-.11.4-.17.6h10.15v3.33Z"/>
  <path class="cls-12" d="M186.76,131.64s-.03,0-.04,0-.03,0-.04,0h0c-.16,0-.3-.01-.46-.02v23.6c0,.54.44.98.98.98s.98-.44.98-.98v-23.63c-.47.02-.93.04-1.42.05h0Z"/>
  <path class="cls-12" d="M193.63,111.73c.38-.38.38-1,0-1.38-.38-.38-1-.38-1.38,0l-4.06,4.06v-31.7c0-.54-.44-.98-.98-.98s-.98.44-.98.98v12.72l-3.72-3.72v2.76l3.72,3.72v33.44c.15,0,.3.01.46.02h0s.03,0,.04,0,.03,0,.04,0h0c.49,0,.95-.03,1.42-.05v-14.42l5.45-5.45Z"/>
  <path class="cls-11" d="M167.79,103.85c4.33-7.15,4.87-14.21,5.29-19.99l-93.47-2.82c.21,2.1.32,4.45.58,6.97h64.1v17.02h-58.6c2.22,4.22,2.9,9.12,1.69,13.54h78.03c-1.28-4.84-.32-10.24,2.39-14.72Z"/>
  <path class="cls-11" d="M167.06,122.56h-81.41c-2.16,3.52-5.89,6.37-11.45,7.77v29.43c5.37-.38,11-.69,16.85-.94v-28.22h76.1v29.02c5.39.36,10.52.78,15.35,1.25v-29.5c-7.86-.96-12.85-4.39-15.45-8.81Z"/>
  <path class="cls-11" d="M91.06,169.53v-10.71c-5.85.25-11.49.56-16.85.94v11.54h13.62v-1.77h3.23Z"/>
  <path class="cls-11" d="M167.16,169.53h5.22v1.77h10.13v-10.43c-4.83-.47-9.96-.89-15.35-1.25v9.92Z"/>
  <path class="cls-11" d="M79.6,81.05l-5.39-.16v7.13h5.97c-.25-2.53-.37-4.87-.58-6.97Z"/>
  <path class="cls-11" d="M85.68,105.03h-11.47v13.54h13.16c1.21-4.42.53-9.32-1.69-13.54Z"/>
  <path class="cls-11" d="M74.21,130.32c5.56-1.4,9.29-4.25,11.45-7.77h-11.45v7.77Z"/>
  <path class="cls-11" d="M167.79,103.85c-2.71,4.48-3.67,9.88-2.39,14.72h17.11v-24.1l-3.01-3.01c-.38-.38-.38-1,0-1.38.38-.38,1-.38,1.38,0l1.63,1.63v-7.55l-9.43-.28c-.42,5.78-.97,12.84-5.29,19.99Z"/>
  <path class="cls-11" d="M167.06,122.56c2.6,4.42,7.59,7.85,15.45,8.81v-8.81h-15.45Z"/>
  <path class="cls-11" d="M179.5,90.08c-.38.38-.38,1,0,1.38l3.01,3.01v-2.76l-1.63-1.63c-.38-.38-1-.38-1.38,0Z"/>
  <path class="cls-5" d="M173.43,79.74c.14-1.21.34-2.32.62-3.33h-95.3c.33.99.54,2.11.7,3.33h93.98Z"/>
  <path class="cls-5" d="M71.53,79.74h7.92c-.16-1.21-.37-2.34-.7-3.33h-7.22v3.33Z"/>
  <path class="cls-5" d="M182.51,79.74h1.69v-3.33h-10.15c-.28,1.01-.48,2.12-.62,3.33h9.08Z"/>
  <path class="cls-6" d="M144.28,88.02h-64.1c.05.48.11.98.17,1.47h60.98v14.07h-56.48c.08.13.14.26.22.39.22.36.42.72.61,1.08h58.6v-17.02Z"/>
  <path class="cls-6" d="M80.18,88.02h-5.97v1.47h6.14c-.06-.5-.12-.99-.17-1.47Z"/>
  <path class="cls-6" d="M85.07,103.95c-.08-.13-.14-.26-.22-.39h-10.65v1.47h11.47c-.19-.37-.39-.73-.61-1.08Z"/>
  <path class="cls-13" d="M173.08,83.87c.11-1.46.2-2.85.35-4.12h-93.98c.06.42.11.86.15,1.3l93.47,2.82Z"/>
  <path class="cls-13" d="M79.45,79.74h-5.24v1.14l5.39.16c-.04-.45-.09-.88-.15-1.3Z"/>
  <path class="cls-13" d="M182.51,84.15v-4.41h-9.08c-.15,1.28-.25,2.66-.35,4.12l9.43.28Z"/>
  <path class="cls-14" d="M93.62,133.38h71.34v26.09c.74.05,1.47.09,2.2.14v-29.02h-76.1v28.22c.85-.04,1.7-.07,2.56-.1v-25.34Z"/>
  <path class="cls-14" d="M164.96,169.53h2.2v-9.92c-.73-.05-1.47-.1-2.2-.14v10.06Z"/>
  <path class="cls-14" d="M93.62,169.53v-10.81c-.86.03-1.71.07-2.56.1v10.71h2.56Z"/>
  <path class="cls-14" d="M96.32,146.57h19.32v11.65c.61,0,1.22,0,1.84-.01v-11.63h23.76v11.87c.55.01,1.09.03,1.63.04v-11.92h19.53v12.75c.86.05,1.71.1,2.56.15v-26.09h-71.34v25.34c.9-.03,1.8-.07,2.7-.1v-12.05ZM96.32,135.72h66.08v8.53h-66.08v-8.53Z"/>
  <path class="cls-14" d="M162.4,169.53h2.56v-10.06c-.85-.05-1.7-.1-2.56-.15v10.21Z"/>
  <path class="cls-14" d="M115.64,158.21v11.31h1.84v-11.33c-.61,0-1.23,0-1.84.01Z"/>
  <path class="cls-14" d="M96.32,158.62c-.9.03-1.81.06-2.7.1v10.81h2.7v-10.91Z"/>
  <path class="cls-14" d="M141.24,158.44v11.09h1.63v-11.04c-.54-.02-1.09-.03-1.63-.04Z"/>
  <polygon class="cls-2" points="125.71 144.25 127.33 135.72 113.68 135.72 112.56 144.25 125.71 144.25"/>
  <polygon class="cls-2" points="162.4 144.25 162.4 135.72 158.7 135.72 157.58 144.25 162.4 144.25"/>
  <polygon class="cls-2" points="103.89 135.72 96.32 135.72 96.32 144.25 102.77 144.25 103.89 135.72"/>
  <polygon class="cls-2" points="147.8 144.25 148.92 135.72 144.98 135.72 143.35 144.25 147.8 144.25"/>
  <path class="cls-2" d="M115.64,158.21v-11.65h-3.39l-1.54,11.7c1.63-.02,3.28-.04,4.93-.05Z"/>
  <path class="cls-2" d="M102.47,146.57h-6.15v12.05c1.52-.05,3.04-.1,4.58-.14l1.57-11.91Z"/>
  <path class="cls-2" d="M110.71,158.27l-1.48,11.26h6.41v-11.31c-1.65.01-3.3.03-4.93.05Z"/>
  <path class="cls-2" d="M100.9,158.47c-1.54.04-3.07.09-4.58.14v10.91h3.13l1.45-11.05Z"/>
  <path class="cls-2" d="M141.24,158.44v-3.08l-.58,3.07c.19,0,.39.01.58.02Z"/>
  <path class="cls-2" d="M120.6,151.09h3.81l.86-4.52h-7.78v11.63c1.03,0,2.07,0,3.11-.01v-7.1Z"/>
  <path class="cls-2" d="M140.66,158.43l-2.11,11.1h2.7v-11.09c-.19,0-.39-.01-.58-.02Z"/>
  <path class="cls-2" d="M120.6,158.19c-1.04,0-2.08,0-3.11.01v11.33h3.11v-11.34Z"/>
  <path class="cls-2" d="M147.5,146.57h-4.62v11.92c1.02.03,2.03.06,3.04.09l1.58-12.01ZM142.89,148.32h.04l-.04.19v-.19Z"/>
  <path class="cls-2" d="M162.4,159.32v-12.75h-5.12l-1.63,12.4c2.29.11,4.54.23,6.75.35Z"/>
  <path class="cls-2" d="M155.65,158.96l-1.39,10.57h8.14v-10.21c-2.21-.13-4.46-.25-6.75-.35Z"/>
  <path class="cls-2" d="M145.92,158.58c-1.01-.03-2.02-.06-3.04-.09v11.04h1.6l1.44-10.95Z"/>
  <path class="cls-8" d="M138.37,151.09v7.28c.76.02,1.53.03,2.29.05l.58-3.07v-8.79h-15.97l-.86,4.52h13.96Z"/>
  <path class="cls-8" d="M138.37,169.53h.17l2.11-11.1c-.76-.02-1.52-.04-2.29-.05v11.16Z"/>
  <path class="cls-14" d="M121.45,151.96h2.8l.17-.87h-3.81v7.1c.28,0,.56,0,.85,0v-6.23Z"/>
  <path class="cls-14" d="M121.45,158.19c-.28,0-.56,0-.85,0v11.34h.3l.55-2.87v-8.47Z"/>
  <path class="cls-14" d="M129.19,151.96h8.34v6.39c.28,0,.56.01.85.02v-7.28h-13.96l-.17.87h4.94Z"/>
  <polygon class="cls-14" points="121.45 166.66 120.9 169.53 121.45 169.53 121.45 166.66"/>
  <path class="cls-14" d="M137.52,158.35v11.18h.85v-11.16c-.28,0-.56-.01-.85-.02Z"/>
  <path class="cls-8" d="M123.06,158.19l1.19-6.23h-2.8v6.23c.09,0,.17,0,.26,0,.45,0,.9,0,1.35,0Z"/>
  <path class="cls-8" d="M121.7,158.19c-.09,0-.17,0-.26,0v8.47l1.61-8.47c-.45,0-.9,0-1.35,0Z"/>
  <path class="cls-8" d="M129.78,151.96v6.27c2.61.03,5.19.07,7.74.12v-6.39h-7.74Z"/>
  <path class="cls-8" d="M129.19,158.23v-6.27h-4.94l-1.19,6.23c2.06,0,4.1.01,6.13.03Z"/>
  <path class="cls-8" d="M129.78,158.23v11.3h7.74v-11.18c-2.55-.05-5.13-.09-7.74-.12ZM130.84,161.54c-.21,0-.38-.17-.38-.38s.17-.38.38-.38.38.17.38.38-.17.38-.38.38Z"/>
  <path class="cls-8" d="M123.06,158.19l-1.61,8.47v2.87h7.74v-11.3c-2.03-.02-4.07-.03-6.13-.03ZM128.13,161.54c-.21,0-.38-.17-.38-.38s.17-.38.38-.38.38.17.38.38-.17.38-.38.38Z"/>
  <path class="cls-14" d="M129.19,151.96v6.27c.2,0,.4,0,.6,0v-6.27h-.6Z"/>
  <path class="cls-14" d="M129.19,169.53h.6v-11.3c-.2,0-.4,0-.6,0v11.3Z"/>
  <path class="cls-14" d="M128.13,160.78c-.21,0-.38.17-.38.38s.17.38.38.38.38-.17.38-.38-.17-.38-.38-.38Z"/>
  <path class="cls-14" d="M130.84,160.78c-.21,0-.38.17-.38.38s.17.38.38.38.38-.17.38-.38-.17-.38-.38-.38Z"/>
  <path class="cls-8" d="M110.71,158.27l1.54-11.7h-9.78l-1.57,11.91c3.22-.09,6.49-.16,9.81-.21Z"/>
  <path class="cls-8" d="M99.45,169.53h9.78l1.48-11.26c-3.32.05-6.59.12-9.81.21l-1.45,11.05Z"/>
  <polygon class="cls-8" points="112.56 144.25 113.68 135.72 103.89 135.72 102.77 144.25 112.56 144.25"/>
  <path class="cls-8" d="M155.65,158.96l1.63-12.4h-9.78l-1.58,12.01c3.31.11,6.55.24,9.73.39Z"/>
  <path class="cls-8" d="M144.48,169.53h9.78l1.39-10.57c-3.18-.15-6.43-.28-9.73-.39l-1.44,10.95Z"/>
  <polygon class="cls-8" points="157.58 144.25 158.7 135.72 148.92 135.72 147.8 144.25 157.58 144.25"/>
  <polygon class="cls-8" points="143.35 144.25 144.98 135.72 127.33 135.72 125.71 144.25 143.35 144.25"/>
  <polygon class="cls-4" points="142.89 148.32 142.89 148.51 142.93 148.32 142.89 148.32"/>
  <rect class="cls-5" x="72.53" y="118.57" width="1.68" height="3.98"/>
  <rect class="cls-5" x="182.51" y="118.57" width="3.19" height="3.98"/>
  <path class="cls-5" d="M87.37,118.57c-.38,1.39-.95,2.73-1.71,3.98h81.41c-.74-1.26-1.3-2.6-1.66-3.98h-78.03Z"/>
  <path class="cls-5" d="M74.21,118.57v3.98h11.45c.77-1.26,1.33-2.6,1.71-3.98h-13.16Z"/>
  <path class="cls-5" d="M182.51,118.57h-17.11c.37,1.39.92,2.72,1.66,3.98h15.45v-3.98Z"/>
  <polygon class="cls-14" points="167.16 169.53 167.16 170.35 164.96 170.35 164.96 170.49 93.62 170.49 93.62 170.35 91.06 170.35 91.06 169.53 87.83 169.53 87.83 171.3 172.38 171.3 172.38 169.53 167.16 169.53"/>
  <rect class="cls-14" x="91.06" y="169.53" width="2.56" height=".82"/>
  <rect class="cls-14" x="164.96" y="169.53" width="2.2" height=".82"/>
  <polygon class="cls-14" points="137.52 170.35 129.78 170.35 129.19 170.35 121.45 170.35 120.6 170.35 93.62 170.35 93.62 170.49 164.96 170.49 164.96 170.35 138.37 170.35 137.52 170.35"/>
  <polygon class="cls-14" points="162.4 169.53 162.4 170.33 154.16 170.33 144.37 170.33 142.87 170.33 142.87 169.53 141.24 169.53 141.24 170.33 138.39 170.33 138.37 170.33 138.37 170.35 164.96 170.35 164.96 169.53 162.4 169.53"/>
  <polygon class="cls-14" points="120.6 170.33 117.48 170.33 117.48 169.53 115.64 169.53 115.64 170.33 109.13 170.33 99.35 170.33 96.32 170.33 96.32 169.53 93.62 169.53 93.62 170.35 120.6 170.35 120.6 170.33"/>
  <polygon class="cls-14" points="96.32 169.53 96.32 170.33 99.35 170.33 99.45 169.53 96.32 169.53"/>
  <polygon class="cls-14" points="109.13 170.33 115.64 170.33 115.64 169.53 109.23 169.53 109.13 170.33"/>
  <polygon class="cls-14" points="138.39 170.33 141.24 170.33 141.24 169.53 138.55 169.53 138.39 170.33"/>
  <rect class="cls-14" x="117.48" y="169.53" width="3.11" height=".8"/>
  <polygon class="cls-14" points="154.16 170.33 162.4 170.33 162.4 169.53 154.26 169.53 154.16 170.33"/>
  <polygon class="cls-14" points="142.87 169.53 142.87 170.33 144.37 170.33 144.48 169.53 142.87 169.53"/>
  <polygon class="cls-14" points="138.37 169.53 138.37 170.33 138.39 170.33 138.55 169.53 138.37 169.53"/>
  <polygon class="cls-14" points="120.75 170.33 120.6 170.33 120.6 170.35 121.45 170.35 121.45 170.33 120.75 170.33"/>
  <rect class="cls-14" x="137.52" y="170.33" width=".85" height=".03"/>
  <polygon class="cls-14" points="120.9 169.53 120.6 169.53 120.6 170.33 120.75 170.33 120.9 169.53"/>
  <polygon class="cls-14" points="120.9 169.53 120.75 170.33 121.45 170.33 121.45 169.53 120.9 169.53"/>
  <rect class="cls-14" x="137.52" y="169.53" width=".85" height=".8"/>
  <rect class="cls-14" x="129.78" y="170.33" width="7.74" height=".03"/>
  <rect class="cls-14" x="121.45" y="170.33" width="7.74" height=".03"/>
  <rect class="cls-14" x="121.45" y="169.53" width="7.74" height=".8"/>
  <rect class="cls-14" x="129.78" y="169.53" width="7.74" height=".8"/>
  <rect class="cls-14" x="129.19" y="170.33" width=".6" height=".03"/>
  <rect class="cls-14" x="129.19" y="169.53" width=".6" height=".8"/>
  <polygon class="cls-14" points="99.45 169.53 99.35 170.33 109.13 170.33 109.23 169.53 99.45 169.53"/>
  <polygon class="cls-14" points="144.48 169.53 144.37 170.33 154.16 170.33 154.26 169.53 144.48 169.53"/>
  <path class="cls-8" d="M141.33,89.49h-60.98c.54,4.38,1.65,9.2,4.51,14.07h56.48v-14.07Z"/>
  <path class="cls-8" d="M80.35,89.49h-6.14v14.07h10.65c-2.86-4.87-3.96-9.69-4.51-14.07Z"/>
  <path class="cls-9" d="M224.12,133.73c-1.52-2.51-2.39-5.01-2.92-7.4-.96,9.42-3.14,18.48-6.37,27.03,11.75-2.15,13.6-12.5,9.29-19.63Z"/>
  <path class="cls-9" d="M210.49,102.92h0s-.02,0-.03,0c0,0-.02,0-.03,0h0c-1.66.02-3.06.75-4.24,1.87,3.2,5.97,3.39,13.31-.48,18.81.2-.01.4.05.55.2l3.85,3.86v-9.17c0-.39.32-.7.7-.7s.7.32.7.7v22.85l2.93-2.93c.27-.28.72-.28,1,0,.28.28.28.72,0,1l-3.92,3.92v10.39c1.18-.05,2.28-.18,3.31-.36,3.22-8.55,5.4-17.61,6.37-27.03-1.14-5.15-.7-9.76-1.71-12.81-1.48-4.45-4.12-10.55-8.99-10.6Z"/>
  <path class="cls-9" d="M205.26,124.8c-.1-.1-.15-.23-.18-.36-1.51,1.87-3.54,3.49-6.13,4.72-.52,1.51-1.2,3.04-2.13,4.58-4.76,7.87-2.01,19.68,13.29,20.02v-24.1l-4.85-4.85Z"/>
  <path class="cls-9" d="M201.45,113.53c-1.2,3.6-.36,9.37-2.51,15.62,2.59-1.23,4.62-2.85,6.13-4.72-.04-.22,0-.46.18-.63.13-.12.29-.19.45-.2,3.87-5.5,3.68-12.84.48-18.81-2.28,2.16-3.76,5.8-4.74,8.73Z"/>
  <path class="cls-12" d="M210.11,164.87c.48.1.95.21,1.41.31v-4.01c-.46.97-.92,1.93-1.41,2.89v.81Z"/>
  <path class="cls-12" d="M210.49,153.76h0s-.02,0-.03,0c0,0-.02,0-.03,0h0c-.11,0-.22,0-.33-.01v10.32c.48-.95.95-1.92,1.41-2.89v-7.45c-.34.02-.67.03-1.02.04Z"/>
  <path class="cls-12" d="M210.11,170.76c0,.39.32.7.7.7s.7-.32.7-.7v-5.57c-.46-.11-.93-.21-1.41-.31v5.89Z"/>
  <path class="cls-12" d="M205.26,124.8l4.85,4.85v24.1c.11,0,.22.01.33.01h0s.02,0,.03,0c0,0,.02,0,.03,0h0c.35,0,.69-.02,1.02-.04v-10.39l3.92-3.92c.28-.28.28-.72,0-1-.27-.28-.72-.28-1,0l-2.93,2.93v-22.85c0-.39-.32-.7-.7-.7s-.7.32-.7.7v9.17l-3.85-3.86c-.15-.15-.35-.21-.55-.2-.2.28-.41.56-.63.83.03.13.08.26.18.36Z"/>
  <path class="cls-12" d="M205.08,124.43c.22-.27.43-.55.63-.83-.16.01-.33.07-.45.2-.17.17-.22.41-.18.63Z"/>
</svg>