<?xml version="1.0" encoding="UTF-8"?>
<svg id="Capa_1" data-name="Capa 1" xmlns="http://www.w3.org/2000/svg" xmlns:xlink="http://www.w3.org/1999/xlink" viewBox="0 0 223.24 217.53">
  <defs>
    <style>
      .cls-1 {
        fill: #a4cfd8;
      }

      .cls-2 {
        fill: #99896e;
      }

      .cls-3 {
        fill: #e94e24;
      }

      .cls-4 {
        fill: #f2f7f8;
      }

      .cls-5 {
        fill: #e6eff0;
      }

      .cls-6 {
        fill: #e6412b;
      }

      .cls-7 {
        fill: #ece9e2;
      }

      .cls-8 {
        fill: #f5f3ee;
      }

      .cls-9 {
        fill: #c9dde1;
      }

      .cls-10 {
        fill: #c4bba2;
      }

      .cls-11 {
        fill: #18203b;
      }

      .cls-12 {
        fill: #6b6664;
      }

      .cls-13 {
        fill: #dbdce0;
      }

      .cls-14 {
        fill: #80c3de;
      }

      .cls-15 {
        fill: #e84e24;
      }

      .cls-16 {
        fill: #817e7c;
      }

      .cls-17 {
        fill: #ed7c7b;
      }

      .cls-18 {
        fill: #b7ac8e;
      }

      .cls-19 {
        fill: #882412;
      }

      .cls-20 {
        fill: #d0c8b1;
      }

      .cls-21 {
        fill: #eb6739;
      }

      .cls-22 {
        fill: #8bbcc1;
      }

      .cls-23 {
        clip-path: url(#clippath);
      }
    </style>
    <clipPath id="clippath">
      <path class="cls-11" d="M158.31,150.33c-.78-3.86,5.81-37.46,6.03-49.05,4.88-.61,8.14,1.48,9.24,3.33,2.13,3.59,5.94,11.57,5.77,16.27-.25,6.87-12.34,27.51-12.57,29.21-.14,1.01,2.69,4.33,3.96,6.85,3.97,7.81-4.33,27.66-4.13,33.06.01.29-2.64,1.06-3.98-.26-2.72-21.71-3.69-36.29-4.32-39.41Z"/>
    </clipPath>
  </defs>
  <circle class="cls-4" cx="112.45" cy="111" r="105.71"/>
  <g>
    <g id="mom_and_son" data-name="mom and son">
      <path class="cls-12" d="M173.12,80.22c-.51-.73-7.18-3.59-7.66-4.51-.53-1,.03-16.4.45-18.11,1.45-5.91,6.52-9.31,11.29-6.83,9.17,4.76,5.27,23.9,5.11,24.14-.68,1.01-5.85,9.49-9.19,5.32Z"/>
      <path class="cls-16" d="M177.15,72.82c6.01-.53,13.55,2.75,15.96,6.42,2.41,3.68,9.61,16.65,8.93,21.16-.68,4.51-6.02,9.52-8.93,9.45-2.91-.07-3.92-5.18-4.7-4.34-.47.5,1.35,3.2-2.08,5.06-3.43,1.87-26.17,6.46-26.68.94-.52-5.52,1.09-4.98-.52-5.52-1.61-.54-6.18.29-7.42-3.11-2.16-5.93,3.91-24.28,8.89-27.25,6.75-4.03,16.56-2.8,16.56-2.8Z"/>
      <g>
        <path class="cls-2" d="M163.39,197.67l-.93-.4s.42-2.21-.36-2.46c-.78-.25,1.74-.74,1.74-.74l.54,1.82-.99,1.78Z"/>
        <path class="cls-18" d="M152.17,197.71c.2.15,7.28.26,7.94,0,.46-.18.9-2.24,2.5-2.36,1.43-.11.33,2.37.78,2.32,2.79-.3,3.42-.2,3.36-.42-.86-3.43,2.16-3.66-.14-7.25-1,.33-3.91-.46-4.04-.75-2,1.34-4.2,4.9-4.8,5.27-1.41.88-5.41,1.42-5.6,3.2Z"/>
      </g>
      <g>
        <path class="cls-2" d="M190.46,196.7l-1.18-.93s.11-1.72-.55-1.94c-.66-.21,1.89-.77,1.89-.77l.54,2.47-.69,1.17Z"/>
        <path class="cls-18" d="M179.35,198.52c.14.08,2.18.62,4.58.16,1.37-.26,3.3-.76,4.18-1.47.44-.35.54-2.6,1.05-2.76,1.94-.63,1.06,2.29,1.3,2.24,2.36-.55,2.77-.79,2.73-.99-.49-2.48.55-3.59-1.54-5.82-.9.42-3.86-.9-4.01-1.16-1.74,1.63-3.74,6.24-4.25,6.65-1.22.98-4.06,1.47-4.03,3.15Z"/>
      </g>
      <g>
        <path class="cls-11" d="M158.31,150.33c-.78-3.86,5.81-37.46,6.03-49.05,4.88-.61,8.14,1.48,9.24,3.33,2.13,3.59,5.94,11.57,5.77,16.27-.25,6.87-12.34,27.51-12.57,29.21-.14,1.01,2.69,4.33,3.96,6.85,3.97,7.81-4.33,27.66-4.13,33.06.01.29-2.64,1.06-3.98-.26-2.72-21.71-3.69-36.29-4.32-39.41Z"/>
        <g class="cls-23">
          <rect class="cls-15" x="157.53" y="100.66" width="21.99" height="90.39"/>
          <g>
            <path class="cls-8" d="M174.11,139.16c-1.2-.22-2.46,1.24-2.83,3.24-.37,2.01.31,3.81,1.51,4.03,1.2.22,2.46-1.24,2.83-3.24.37-2.01-.31-3.81-1.51-4.03Z"/>
            <path class="cls-14" d="M172.75,146.63c-1.33-.24-2.06-2.12-1.67-4.27.18-1.01.59-1.91,1.15-2.55.58-.67,1.26-.97,1.91-.85,1.33.24,2.06,2.12,1.67,4.27-.18,1.01-.59,1.91-1.15,2.55-.5.57-1.07.88-1.64.88-.09,0-.19,0-.28-.03ZM172.53,140.07c-.51.59-.89,1.42-1.06,2.36-.34,1.9.26,3.6,1.34,3.8.51.09,1.05-.16,1.54-.72.51-.59.89-1.42,1.06-2.36.34-1.9-.26-3.6-1.34-3.8-.07-.01-.14-.02-.2-.02-.45,0-.91.26-1.33.74Z"/>
          </g>
          <g>
            <path class="cls-8" d="M173.88,140.37c-.8-.15-1.64.82-1.89,2.16-.24,1.34.21,2.54,1,2.69.8.15,1.64-.82,1.89-2.16.24-1.34-.21-2.54-1-2.69Z"/>
            <path class="cls-14" d="M172.97,145.42c-.92-.17-1.43-1.45-1.17-2.92.12-.68.4-1.3.78-1.73.4-.46.88-.67,1.34-.59.92.17,1.43,1.45,1.17,2.92-.25,1.37-1.07,2.34-1.92,2.34-.07,0-.13,0-.2-.02ZM172.89,141.03c-.33.38-.58.93-.69,1.54-.22,1.21.17,2.33.84,2.45.68.12,1.43-.79,1.65-2,.22-1.21-.17-2.33-.84-2.45-.04,0-.08-.01-.12-.01-.28,0-.57.16-.84.47Z"/>
          </g>
          <g>
            <path class="cls-8" d="M173.66,141.58c-.4-.07-.82.41-.94,1.08s.1,1.27.5,1.34c.4.07.82-.41.94-1.08.12-.67-.1-1.27-.5-1.34Z"/>
            <path class="cls-14" d="M173.19,144.2c-.27-.05-.48-.25-.6-.58-.11-.29-.13-.64-.06-1,.14-.79.66-1.34,1.18-1.24.52.09.81.79.66,1.58-.13.73-.59,1.25-1.06,1.25-.04,0-.08,0-.12-.01ZM173.63,141.78c-.24-.05-.6.32-.71.92-.05.28-.03.57.05.79.07.18.17.3.29.32.25.05.6-.32.71-.92.11-.6-.09-1.06-.34-1.11h0Z"/>
          </g>
        </g>
      </g>
      <path class="cls-15" d="M174.21,149.13c-1.95-4.79,1.4-27.05-5.87-47.96,4.68-1.51,11.86-.19,13.28,1.42,2.76,3.13,7.99,10.26,8.7,14.91,1.04,6.8-6.87,28.29-6.78,30,.05,1.02,2.92,4.47,4.57,6.76,5.57,7.75,2.33,30.39,3.53,35.65.06.28-4.69,1.21-4.53-.65-6.73-20.82-11.71-37.2-12.91-40.15Z"/>
      <path class="cls-7" d="M178.2,74.6c1.63.73,3.97,4.94,4.53,6.8.87,2.89-3.13,10.75-.07,20.54,1.59,5.09-19.36,5.27-19.05,3.36,1.07-6.58-.76-19.78-.06-23.27.56-2.78,3.43-6.76,6.12-8.21,1.83-.99,4.21-1.16,8.53.78Z"/>
      <path class="cls-18" d="M175.89,62.48c.24,3.8,1.66,10.92,2.31,12.11.9,1.69-3.98,3.29-6.03,2.75-2.05-.54-2.65-1.63-2.71-2.35-.06-.72,1.72-6.24,2.15-11.32.34-4.05,4.18-2.75,4.28-1.2Z"/>
      <path class="cls-18" d="M168.88,54.33c-3.4,5.59-1.91,14.06,1.46,14.85,1.95.46,7.2-2.61,6.88-7.04,1.61-.02,2.25-1.8,1.84-2.61-.75-1.45-1.93.02-1.93.02l-8.25-5.22Z"/>
      <g>
        <path class="cls-22" d="M186.51,108.74c1.13,2.69,2.81,10.66,3.91,13.23.85,1.97.96,2.01,1.77,1.33.81-.68,1.03-2.4,1.81-3.87.78-1.47.58-2.78-1.11-3.45-1.69-.67,0-7.24,0-7.24h-6.38Z"/>
        <path class="cls-16" d="M194.5,117.73c0-1.01-1.12-1.75-1.37-1.75-.5,0-1.59.42-2.12,1.35-.53.93-1.25,1.38-1.71,1.28-.21-.05.08,1,.15,2.18.09,1.46-.15,3.19,1.12,3.26.42-1.67,3.93-6.32,3.93-6.32Z"/>
        <path class="cls-12" d="M194.26,117.1c.87.53-.08,4.97-1.84,6.54-.72.64-2.58.72-2.61-.29-.07-1.77,1.32-2.18,1.92-3.36.39-.78.35-1.67.74-2.26.51-.78,1.19-1.02,1.8-.64Z"/>
      </g>
      <g>
        <path class="cls-22" d="M178.54,105.59c-.9,2.66,1.74,10.88,1.88,14.24.05,1.25.11,2.69-.17,3.79-.7,2.71,1.09,2.93,1.96,2.34.87-.6,1.28-2.11,2.2-3.51.91-1.39,1.46-2.49,0-3.57-1.98-1.47,1.65-10.48,1.65-10.48l-7.51-2.81Z"/>
        <path class="cls-16" d="M185.87,121.03c.28-.97-1.01-2.17-1.25-2.25-.73-.26-1.38.19-2.14.93-.77.74-1.58.98-2,.75-.42-.23-1.33,5.19.41,5.91.86-1.49,4.98-5.34,4.98-5.34Z"/>
        <path class="cls-12" d="M185.66,120.39c.4.69.19,1.18-.38,1.88-.34.42-.91.65-1.16,1.07-.67,1.11-1.2,3.03-2.38,3.23-1.19.19-1.79-.94-1.62-1.93.24-1.35,4.5-6.04,5.55-4.25Z"/>
      </g>
      <path class="cls-18" d="M197.18,110.86c-2.52,1.13-12.54.39-13.13,1.32-.63.99-2.69,2.19-5.28,2.37-2.7.19-4.04-3.75-3.61-4.34.57-.78,1.54-.3,1.38-1.84-.05-.53.68-.06,1.58.07,1.12.17,1.51-.36,2.36-.15,1.21.3,1.89.67,2.15.74.7.19,14.65-7.57,16.76-6.74,2.11.83,3.32,6.1-2.2,8.56Z"/>
      <path class="cls-22" d="M200.16,100.5c1.05,4.18.81,5.67-.28,7.65-1.08,1.98-8.47,2.49-11.53,1.7-3.06-.79-2.81-.67-4.5-1.61-1.69-.94-6-.86-5.25-2.8,1.38-3.61,11.45-3.89,11.45-3.89l10.12-1.05Z"/>
      <path class="cls-21" d="M198.66,84.02c4.39,1.7,7.43,7.99,7.25,9.05-.75,4.51-7.84,4.99-7.84,4.99l.59-14.04Z"/>
      <path class="cls-21" d="M198.66,84.02c3.16,1.01,4.94,18.21,2.49,21.57-1.98,2.71-14.69-.94-14.13-3.8.61-3.08-.54-15.08,1.09-16.82,1.62-1.74,5.96-2.42,10.55-.95Z"/>
      <path class="cls-20" d="M188.59,75.34c.38-.18.22-1.07.32-1.69.06.5,3.52-1.17,5.39,0,1.53.96,1.49,4.79,1.93,5.1.63.05.27,4.33-1.12,5.1-1.7.94-4.16.62-4.39-.11-.18-.56-.17-.52-.26-1.06-.54.13-1.43.13-1.97-.31-1.23-1.01-3.21-5.52.09-7.03Z"/>
      <path class="cls-12" d="M188.86,74.02c-1.49-1,.47-5.29,4.97-4.76,4.7.55,8.02,3.41,8.02,6.72,0,4.46-3.98,6.72-5.29,7.59-1.31.87-3.56-.49-4.2-1.32-.64-.83-.46-3.87-.09-4.33.37-.46,1.63-2.21.99-2.95-.35-.4-.92-.37-1.68.09-1.23-.25-2.12-.64-2.72-1.04Z"/>
      <path class="cls-21" d="M188.37,84.73c-6.22,4.91-10.42-1.45-12.26-1.51-1.83-.06,1.07,8.23,4.96,8.95,3.89.72,8.64-1.01,10.15-3.65,1.51-2.64-2.85-3.79-2.85-3.79Z"/>
      <path class="cls-18" d="M161.63,102.61c4.2-2.03,15.69-5.05,16.69-5.06.5,0,3.39-1.34,4.14-1.63.74-.29-3.18-2.24-3.65-1.8-.47.44-15.62-.76-16.95.8-1.33,1.55-.23,7.69-.23,7.69Z"/>
      <path class="cls-18" d="M179.41,97.2c1.3-.41,4.01,1.65,6.05.88.81-.31,4.14-2.54,4.55-3.52.4-.97-2.98.01-3.64.02-.66,0-4.51-.28-4.08-.94s3.08-.18,3.04-1.65c0-.22-.8.21-1.75.07-.56-.08-1.16-.38-1.81-.33-1.39.1-3.37,1.97-3.49,2.61-.12.64-.6,3.41,1.14,2.87Z"/>
      <path class="cls-20" d="M177.08,84.65c.57-.71.61-1.81.39-1.99-.22-.18-.63-.57-.73-.83-.1-.25-.27-.55-.37-.07-.09.48.36.94.12.98s-.7-1.04-.86-1.41c-.17-.38-.34-.46-.44-.42-.17.07.21,1.16.1,1.2-.11.04-.78-1.07-1.04-.96-.21.09.47,1.15.4,1.2-.07.05-.62-.7-.76-.55-.19.21.43,1.09.36,1.14-.07.05-.62-.44-.7-.34-.2.24.96,1.65,1.21,1.91.26.26,1.1.64,1.5.63s.83-.5.83-.5Z"/>
      <path class="cls-17" d="M187.68,91.52s.04,0,.06-.01c1.06-.42,3.06-1.84,3.81-3.11.05-.08.02-.18-.06-.23-.08-.05-.18-.02-.23.06-.71,1.21-2.63,2.56-3.64,2.96-.09.03-.13.13-.09.22.03.07.09.11.16.11Z"/>
    </g>
    <g>
      <g>
        <path class="cls-10" d="M86.5,105.96c-.66-2.21-13.44-5.85-15.44-7.49-2-1.64-8.5-20.57-8.5-20.57l-8.5,10.83s7.35,13.07,9.61,14.71c1.54,1.12,3.73,1.61,5.49,2.18,2.63.85,5.28,1.63,7.94,2.37,1.3.37,2.57.7,3.82,1.2-.71.69-1.01,1.77-.78,2.77.27,1.17.96,2.29-.01,3.31-.05.05-.1.1-.1.17,0,.08.07.15.14.2.39.27.94.28,1.31.02.25-.17.42-.44.56-.7.04-.08.08-.16.15-.2.08-.05.17-.05.27-.05,1.24,0,2.59.38,3.66-.19.69-.37,1.13-1.09,1.42-1.82.19-.48.33-.98.43-1.49.13-.74-.29-1.82-.52-2.54-.29-.9-.65-1.79-.92-2.7Z"/>
        <path class="cls-10" d="M50.76,48.74s-3.64,20.53,8.43,15.62c7.72-3.14,6.36-13.09,3.57-18.63-2.18-4.32-9.65-2.28-12,3Z"/>
        <path class="cls-19" d="M57.38,42.83c-5.76.23-7.26,4.11-7.54,7.16.41.43.85.82,1.29,1.22.19-.21.42-.37.61-.57,1.29-1.28.41-3.99,2.29-4.79.41-.17.86-.25,1.3-.32,1.01-.17,2.03-.25,3.06-.26,1.02-.01,2.15-.07,3.17.2.5.13,1,.41,1.3.84.26.38.35.83.45,1.27.15-.12.29-.23.44-.35.18-.14.87-.49.94-.71.03-.09.07-.17.11-.24-1.29-1.99-3.54-3.61-7.44-3.45Z"/>
        <path class="cls-2" d="M65.86,42.67c-.05-.08-.41-.41-.41-.47.02.55-.06,1.09-.23,1.59.02-.54-.33-1.04-.71-1.45-1.25-1.34-2.99-2.08-4.68-2.72.09.46.1.92.02,1.37-.47-1.12-2.21-2.29-4.42-2.99-.53,1.68-3.71,3.74-3.65,4.35-.26-.26-.56-.39-.68-.74-.67.5-2.07,2.25-2.21,3.09-.11.64.05,1.37.47,1.92.09.11.87,1.21.91,1.18.04-.02,6.96-4.23,6.96-4.23l7.72,2.9c.49-.54.83-1.19,1.1-1.86.16-.41.21-.84.1-1.3-.06-.23-.15-.45-.28-.65Z"/>
        <path class="cls-2" d="M66.04,44.92c.16-.41.24-.91.08-1.36,0,.33-.09.57-.25.84-.04.07-.6.82-.76.54-.2-.36-.51-.66-.86-.87,0,.3,0,.6.01.89-.22-.46-.62-.82-1.03-1.13-.43-.32-.93-.57-1.41-.81-.13-.06-1.47-.58-1.47-.6,0,.6-.06,1.19-.19,1.77-.04-.31-.23-.59-.45-.84-.97-1.11-2.41-1.67-3.77-2.18.16.46.11.96-.04,1.4s-.39.84-.64,1.23c.08-.24-.03-.52-.21-.73s-.41-.34-.65-.47c-.39-.22-.77-.45-1.16-.67.14.5-.06,1.01-.36,1.39-.3.38-.7.68-1.03,1.04-.51.56-.84,1.28-.95,2.04-.53-.15-1.01-.5-1.28-.99-.13-.22-.21-.47-.25-.72-.03-.16.04-.82.13-.96-.21.32-.55.87-.61,1.25-.1.59.02,1.2.34,1.72.14.24.31.45.37.72.07.29.07.59.07.89,0,.4.02.81.05,1.21.07,1.4.15,2.79.23,4.19.01.21.02.42.09.62.11.32.42.54.69.73.26.18.53.35.77.56.16.14.36.55.53.62.49.23.5-.59.46-.89-.12-.88-.24-1.77-.36-2.65-.04-.32-.09-.64-.04-.96.04-.31.19-.62.45-.79.09-.06.19-.1.24-.19.03-.06.04-.14.04-.21.05-1.4-.31-3.79,1.23-4.44.41-.17.86-.25,1.3-.32,1.01-.17,2.03-.25,3.06-.26,1.02-.01,2.15-.07,3.17.2.5.13,1,.41,1.3.84.28.4.36.89.47,1.36.07.29.15.58.3.84.18.31.28.35.36.68.17.69.21.89.32,1.68.18,1.27.72,2.78.72,2.8-.36-2.08,1.34-4.48-.11-7.18.49-.54.83-1.19,1.1-1.86Z"/>
        <path class="cls-6" d="M59.15,59.68l-.18.25s.26.19.77.17c.25,0,.57-.06.97-.2l-.12-.31c-1.03.35-1.43.09-1.43.08Z"/>
        <path class="cls-10" d="M23.94,191.57c-.45-.2-4.58-8.1-4.74-8.92-.16-.82,4.9-7.29,4.84-8.58l-4.71-2.8s-7.26,9-7.37,9.63c-.11.63,4.91,11,5.43,11.66.52.65,9.19,1.02,9.21.39s-2.22-1.18-2.67-1.38Z"/>
        <path class="cls-13" d="M15.32,175.75l-1.52,1.87,2.93,4.67,3.5-.34s1.07-1.89.93-2.3c-.14-.42-5.82-3.9-5.82-3.9Z"/>
        <path class="cls-12" d="M24.19,189.68c-.37-.17-2.1-4.11-2.71-6.22,1.29-2.37-2.37-2.25-4.68-2.21-.36-.71-2.54-4.02-2.72-4.35-3.35,1.37-3.78,3.44-3.82,3.71-.11.63,6.62,11.3,7.14,11.95.52.65,9.4.86,9.57.26.64-2.36-2.33-2.93-2.78-3.13Z"/>
        <path class="cls-10" d="M70.29,187.64c-.31-.67-1.1-8.28-1.1-8.28l-7.21,1.27,1.16,13.13s22.05,1.48,22.18.93c.13-.54-14.72-6.38-15.03-7.05Z"/>
        <path class="cls-13" d="M70.83,187.67c-.11-.25-.58-1.43-.76-2.81-.97.14-2.19.29-3.16.47-1.46.26-3.15.63-4.65.79l.87,7.64s22.05,1.48,22.18.93c.13-.54-14.17-6.35-14.48-7.02Z"/>
        <path class="cls-1" d="M37.92,125.59c-.11.02-6.35,18.79-7.18,19.95-.68.95-10.54,17.06-14.02,22.75-.68,1.1-.33,2.59.78,3.36l6.63,4.6c1.3.9,3.04.6,3.86-.68,4.55-7.12,18.17-28.6,21.68-35.95,4.24-8.86,6.39-15.5,5.96-15.63-.43-.13-17.72,1.6-17.72,1.6Z"/>
        <path class="cls-10" d="M60.96,59.45l-11.1-5.48s1.36,6.46-1.91,11.37l.66,10.1,11.33-.61,1.27-2.01c-.88-1.38-1.57-4.93-1.66-6.26-.22-3.33,1.42-7.1,1.42-7.1Z"/>
        <path class="cls-1" d="M68.25,146.3c-.68-4.99-6.21-31.93-6.21-31.93l-27.02-1.16c.76,17.75,10.06,20.65,18.75,35.03,1.49,2.47,3.96,22.53,4.75,29.21.14,1.17,1.23,2.02,2.37,1.86l8.52-1.17c1.31-.18,2.21-1.34,2.06-2.67-.74-6.87-2.88-26.61-3.23-29.17Z"/>
        <path class="cls-3" d="M63.4,78.73c-.95-3.62-1.89-5.4-2.61-7.12-.68-.11-1.37-.23-2.04-.39-1.11-.26-2.19-.65-3.23-1.13-.9-.3-1.78-.68-2.63-1.14-1.37-.74-2.7-1.59-4.02-2.42-.55-.35-1.16-.75-1.64-1.24-4.73,4.26-8.79,10.35-10.81,22.61-2.23,13.57-1.34,32.55-1.34,32.55,0,0,3.43,1.47,14.77,1.3,10.22-.15,13.79-2.51,13.79-2.51,0,0-2.29-11.46-.53-20.61,1.77-9.14,1.76-14.39.31-19.9Z"/>
        <path class="cls-10" d="M39.57,80.28c-.33.47-.65.95-.95,1.44-2,3.19-3.57,6.65-4.96,10.16-1.45,3.68-2.7,7.45-3.81,11.26-.96,3.28-1.82,6.58-2.6,9.91-.29,1.23-.56,2.46-.83,3.69-.23,1.07-.7,3-.7,3-.18.17-.81.71-1.01.86-.52.38-.96.86-1.29,1.4.09-.15.17-.3.18-.48.01-.17-.07-.37-.23-.44-.16-.07-.33,0-.48.07-1.07.56-1.14,1.89-.85,3,.17.65.42,1.16,1.07,1.48.47.24,1.01.3,1.52.29.24,0,.48-.03.72.03.14.03.28.09.42.13.72.22,1.48-.03,2.23,0,.42.02.83.13,1.25.13.56,0,.84-.26,1.23-.59,1.7-1.48,14.31-34.9,18.62-39.64.76-.84,1.51-1.8,2.2-2.82-3.07-2.03-6.15-4.05-9.22-6.08-1.5,1.77-2.5,3.18-2.5,3.18Z"/>
        <path class="cls-1" d="M60.64,178.51s0,3.59.71,3.93c.71.33,8.43.12,8.55-.82.12-.93-.15-4.5-.15-4.5l-9.12,1.39Z"/>
        <path class="cls-1" d="M16.21,174.2c.37.52,5.4,3.93,6.09,3.87.69-.07,2.95-2.82,2.95-2.82l-7.5-4.62c-.15.1-1.91,3.05-1.54,3.58Z"/>
        <path class="cls-12" d="M71.93,185.4c-1.71-.54-4.85,4.31-4.85,4.31,0,0-3.95-1.93-4.66-1.72,0,0-2.01,5.02-1.23,6.3.79,1.28,26.41,1.89,26.3.74-.11-1.15-13.85-9.08-15.56-9.62Z"/>
        <path class="cls-13" d="M75.24,187.06s-2.53,1.54-1.01,3.05c1.52,1.52,4.38,2.47,4.9,2.28s1.54-1.82,1.21-2.52c-.6-1.28-5.1-2.81-5.1-2.81Z"/>
        <path class="cls-13" d="M60.6,193.77s-1.24,1.53-.3,2.32c.94.79,26.75,1.05,27.62.2.3-.29.28-1.13-.19-1.56s-27.13-.96-27.13-.96Z"/>
        <path class="cls-13" d="M19.34,185.39c.22,1.69,1.19,3.47,1.89,3.48.7,0,2.34.23,2.26-.34-.22-1.66-1.36-4.01-1.36-4.01-.02-.05-3.01-.82-2.79.88Z"/>
        <path class="cls-13" d="M27.06,192.59s-8.68-.08-9.25-.39c-.57-.31-7.55-12.37-7.55-12.37,0,0-1.3.14-1.58,1.24-.28,1.1,6.24,11.75,7.32,12.28,1.08.53,11.24.79,11.61.63.37-.16.08-1.05,0-1.24-.09-.19-.53-.15-.53-.15Z"/>
        <path class="cls-5" d="M54.55,68.04c-4.18-1.94-5.72-4.55-5.72-4.55l-1.97,2.1s2.35,2.79,6.63,4.64c5.06,2.18,7.55,1.94,7.55,1.94l-.61-2.38s-3.23-.52-5.88-1.75Z"/>
        <polygon class="cls-5" points="41.42 76.78 51.48 83.7 53.29 81.53 42.93 74.97 41.42 76.78"/>
        <path class="cls-10" d="M49.34,52.82c-1.01.04-1.56,1.11-1.22,2.39.34,1.28,1.44,2.28,2.46,2.24,1.01-.04,1.29-1.06.94-2.34-.34-1.28-1.17-2.33-2.18-2.29Z"/>
      </g>
      <path class="cls-20" d="M156.77,94.39s-3.7,2.48-3.85,2.52c-.15.04,1.6,1,1.6,1l2.99-1.48s.75,1,.94.72-.75-1.64-.75-1.64c0,0,1.97.58,1.79.15-.17-.43-2.71-1.26-2.71-1.26Z"/>
      <path class="cls-20" d="M92.78,173.36s-2.22.86-2.66,1.31c-.12.12-.54.63-.59.83.45.74.49,1.45.82,2.25.32.79.66,1.57,1,2.34.54.98,1.06,1.97,1.57,2.96.75-.18,1.49-.36,2.24-.52.65-.15-.13.15.56.03-.27-.54-.05-1.24-.05-1.24-.27-1.4-.84-2.31-.31-5.37.27-1.52,5.62-5.65,5.62-5.65l-4.22-1.54c.04.13-3.99,4.6-3.99,4.6Z"/>
      <path class="cls-15" d="M92.9,181.58c-1.49-1.27-3.44-6.32-1.39-7.7,0,0-3.67.57-2.25,4.25.32.84.94,1.4,1.19,2.28,1.3,4.43,2.58,6.53,5.32,6.56,2.48.03.26-4.17-.17-6.52-1.32.13-2.71,1.13-2.71,1.13Z"/>
      <path class="cls-21" d="M113.59,136.13s-3.85,18.09-3.84,18.18c0,.08-16.49,13.67-16.18,15.94.31,2.27,4.75,6.06,5.98,5.74,1.23-.33,21.71-16.15,22.72-18.33,1.02-2.19,3.71-23.37,3.49-23.74l-12.17,2.22Z"/>
      <path class="cls-21" d="M113.59,136.13c-.46-.8-11.96-5.69-11.96-5.69-3.7,7.33,9.65,32.08,10.19,32.99.54.91,7.73,24.35,8.55,24.92.81.58,7.71-1.5,8.12-2.51.42-1.02-6.13-23.65-6.98-25.36-.85-1.71-7.46-23.55-7.92-24.35Z"/>
      <path class="cls-2" d="M115.81,78.68c-3.84-.58-7.64,1.12-10.21,3.76-4.19,4.29-6.86,3.95-6.86,3.95-.03,1-.01,1.93.06,2.81,1.38.44,3.2.25,4.25-.3-.67.99-2.63,1.56-4.1,1.59.17,1.13.42,2.16.75,3.09,1.88.23,3.91.15,5.38-1.43-.9,1.79-2.6,2.36-4.87,2.68,4.81,10.24,19.68,7.28,19.68,7.28,0,0-.08-2.34,1.98-6.58,2.06-4.24,2.7-15.51-6.06-16.84Z"/>
      <path class="cls-20" d="M116.95,96.18s-5.66-1.83-4.84.22c1.53,3.82-1.07,3.44-1.07,3.44l.36,1.94,3.28,3.07,4.07-5.26c-3.05.13-1.79-3.28-1.79-3.42Z"/>
      <path class="cls-20" d="M109.89,81.31c-.35.33-.36.93-.66,1.32-2.11,2.7-2.9,6.56-1.95,10.08.62,2.32,2.66,4.32,4.71,4.62,5.05.75,8.1-3.43,9.26-7.96.67-2.61.38-5.92-2.03-8.04-2.76-2.43-7-2.23-9.32-.03Z"/>
      <path class="cls-9" d="M121.93,113.95s-.22-7.19,1.32-12.84l-4.88-1.85s-1.23,3.03-3.81,2.67c-2.57-.36-2.87-2.59-2.87-2.59,0,0-5.49-.1-6.91,1.3,0,0,.99,10.8.66,14.36-.5,5.32-5.14,16.55-5.14,16.55,4.08,6.51,16.46,8.02,26.29,2.38,0,0-3.59-12.55-4.34-17.59-.07-.47-.33-1.81-.33-2.38Z"/>
      <path class="cls-20" d="M120.96,90.78c-.98.26-1.7,1.1-1.6,1.87.1.77.97,1.18,1.95.91.98-.26,1.7-1.1,1.6-1.87-.1-.77-.97-1.18-1.95-.91Z"/>
      <path class="cls-20" d="M112.45,97.37c.03.13.06.24.08.36.23.03.5.04.79.05,1.03.01,2.35-.17,3.48-.96.05-.24.1-.43.13-.54-1.46,1.23-3.42,1.22-4.49,1.1Z"/>
      <path class="cls-2" d="M117.21,79.31c-8.32-2.28-12.07,5.34-10.42,10.16,0,0,.09-7.23,7.53-8.34,0,0,.47,8.22,6.59,9.37,0,0,4.63-8.91-3.69-11.19ZM115.79,82.88c.7,2.27,1.68,4.88,3.75,6.27-2.38-.78-3.45-3.86-3.75-6.27Z"/>
      <path class="cls-2" d="M119.56,93.43s-1.04,1.87-3.17,4.75c-1.48,2-4.97,3.2-4.97,3.2,1.96,2.2,6.56,2.24,8.58-.79,2.01-3.04,2.48-6.7,2.48-6.7l-2.04.46-.87-.91Z"/>
      <path class="cls-20" d="M98.5,115.14c-1.31,2.79-9.33-2.82-13.57-3.29l-1.07,2.2c2.13.94,15.06,8.66,17.57,2.59,1.97-4.75,5.98-13.87,6.15-14.26l-3-1.35c-.04.09-3.92,9.54-6.08,14.12Z"/>
      <path class="cls-20" d="M137.25,107.69c-2.91.62-8.6-1.91-12.29-3.87-.22.46-.5.9-.74,1.33-.27.48-.52.97-.77,1.46,3.24,1.74,8.79,4.35,12.91,4.4.6,0,1.18-.04,1.71-.15,5.51-1.18,13.68-10.15,14.07-10.5l-1.18-1.77c-2.49,2.25-9.8,8.27-13.71,9.11Z"/>
      <path class="cls-9" d="M103.22,101.49c-.69.88-1.7,4.25-2.82,7.9l.43.51s.45-.44,1.66.25c1.32.76,1.25,1.31,1.25,1.31l.52.03c1.86-4.3,3.2-8.84,3.31-9.11l-2.11-2.17s-1.7.59-2.24,1.29Z"/>
      <path class="cls-9" d="M120.47,101.69l-1.58,2.15,1.35,2.12c.77.47,5.8,3.15,10.61,4.69.97-1.35,1.68-2.91,1.62-4.38-3.83-1.14-7.23-4.78-11.16-5.9-.39-.11-.85,1.31-.85,1.31Z"/>
      <path class="cls-20" d="M129.58,192.42c-1.33-1.5-3.13-5.89-3.55-6.96-.51.11-1.08.25-1.69.43-.65.19-1.25.41-1.79.62.24.74,1.73,5.29,1.77,6.46.05,1.28-.53,3.86.17,4.56.7.7,13.25-1.41,12.61-2.59-.64-1.18-6.01-.81-7.53-2.52Z"/>
      <path class="cls-15" d="M132.84,193.11c-.81-.24-1.55.47-2.02,1-.55.63-.79,1.47-1.65,1.71-.9.25-1.87.31-2.82.17-.5-.08-1.32-.25-1.63-.73-.07-.1-.46-1.08-.41-1.12,0,0-.02.02-.29.25-.29.25-.85,4.57-.19,4.98.66.4,15.78-2.85,15.21-4.01-.57-1.16-4.36-1.71-6.21-2.25Z"/>
      <path class="cls-12" d="M130.86,197.39c-3.86,1.21-7.31,1.54-7.02,1.98s3.92.08,8.75-1.01c3.96-.89,6.75-2.55,6.46-3-.29-.44-4.33.81-8.19,2.03Z"/>
      <path class="cls-20" d="M156.49,93.96s-2.34.76-2.56.92c-.22.17-3.29,3.97-3.29,3.97l1.42,1.45s1.7-.4,2.06-.68c.36-.28,1.8-1.85,2.36-2.47.56-.62,2-1.04,1.87-1.32-.13-.28-.55-.45-1.34-.25-.78.2-2.3,1.5-2.3,1.5,0,0,1.03-1.62,1.22-1.78.19-.16,1.49-.65,2.05-.78.55-.13,1-.53.86-.77-.08-.15-2.35.22-2.35.22Z"/>
      <path class="cls-2" d="M110.54,99.75l-.09.5s.33.07.86.09c1.48.06,4.59-.24,7.12-3.4l-.4-.33c-3.23,4.04-7.44,3.15-7.48,3.14Z"/>
      <path class="cls-2" d="M99.23,84.52l-.21.46c.06.03,3.49,1.98,7.55-1.87l-.55-.82c-3.73,3.67-6.66,2.3-6.78,2.24Z"/>
    </g>
  </g>
</svg>