<?xml version="1.0" encoding="UTF-8"?>
<svg id="Capa_1" data-name="Capa 1" xmlns="http://www.w3.org/2000/svg" xmlns:xlink="http://www.w3.org/1999/xlink" viewBox="0 0 223.24 217.53">
  <defs>
    <style>
      .cls-1 {
        fill: none;
      }

      .cls-2 {
        fill: #e94e24;
      }

      .cls-3 {
        fill: #e4ddd0;
      }

      .cls-4 {
        fill: #cadee1;
      }

      .cls-5 {
        fill: #6b6664;
      }

      .cls-6 {
        fill: #fff;
      }

      .cls-7 {
        fill: #edeae3;
      }

      .cls-8 {
        fill: #8cbdc1;
      }

      .cls-9 {
        fill: #c5bca3;
      }

      .cls-10 {
        clip-path: url(#clippath);
      }

      .cls-11 {
        fill: #504b48;
      }

      .cls-12 {
        fill: #9a8a6f;
      }
    </style>
    <clipPath id="clippath">
      <rect class="cls-1" x="73.46" y="85.05" width="150.01" height="121.25"/>
    </clipPath>
  </defs>
  <path class="cls-3" d="M184.12,147.25c-68.63,13.99-48.04,49.69-93.83,58.1C28.52,216.7-.45,124.06,38.28,66.88,69.23,21.19,122.62,6.76,169.93,25.52c66.82,26.51,68.36,110.69,14.19,121.72"/>
  <path class="cls-2" d="M104.81,11.78c-4.55,0-8.25,3.7-8.25,8.25v76.12c0,5.39,4.38,9.77,9.78,9.77h97.43c5.39,0,9.77-4.38,9.77-9.77V20.03c0-4.55-3.7-8.25-8.25-8.25h-100.48ZM203.77,107.36h-97.43c-6.19,0-11.22-5.03-11.22-11.22V20.03c0-5.34,4.35-9.69,9.69-9.69h100.48c5.35,0,9.69,4.35,9.69,9.69v76.12c0,6.19-5.03,11.22-11.22,11.22"/>
  <path class="cls-2" d="M195.98,14.12c-.45,0-.81.36-.81.81s.36.81.81.81.81-.36.81-.81-.37-.81-.81-.81"/>
  <path class="cls-2" d="M199.4,14.12c-.45,0-.81.36-.81.81s.36.81.81.81.81-.36.81-.81-.37-.81-.81-.81"/>
  <path class="cls-2" d="M202.82,14.12c-.45,0-.81.36-.81.81s.36.81.81.81.81-.36.81-.81-.37-.81-.81-.81"/>
  <rect class="cls-2" x="126.59" y="19.86" width="87.67" height="1.45"/>
  <polygon class="cls-11" points="118.48 85.09 117.82 84.73 131.06 60.25 166.01 60.87 187.54 34.84 188.11 35.32 166.35 61.62 131.51 61 118.48 85.09"/>
  <path class="cls-2" d="M122.03,84.91c0,2.14-1.74,3.88-3.88,3.88s-3.88-1.74-3.88-3.88,1.74-3.88,3.88-3.88,3.88,1.74,3.88,3.88"/>
  <path class="cls-2" d="M135.98,60.63c0,2.59-2.1,4.7-4.7,4.7s-4.69-2.1-4.69-4.7,2.1-4.7,4.69-4.7,4.7,2.1,4.7,4.7"/>
  <path class="cls-2" d="M170.97,61.25c0,2.94-2.38,5.32-5.32,5.32s-5.32-2.38-5.32-5.32,2.38-5.32,5.32-5.32,5.32,2.38,5.32,5.32"/>
  <path class="cls-2" d="M194.48,33.85c0,3.67-2.98,6.65-6.65,6.65s-6.65-2.98-6.65-6.65,2.98-6.65,6.65-6.65,6.65,2.98,6.65,6.65"/>
  <path class="cls-11" d="M42.44,206.06h16.56l6.01-31.28c.96-5.02-2.88-9.67-7.98-9.67-3.9,0-7.25,2.77-7.99,6.6l-6.6,34.35Z"/>
  <path class="cls-11" d="M64.77,174.73c.45-2.32-.16-4.69-1.67-6.51-1.5-1.82-3.72-2.86-6.08-2.86-3.78,0-7.04,2.69-7.75,6.4l-6.54,34.05h16.07l5.97-31.09ZM48.79,171.67c.76-3.94,4.22-6.8,8.23-6.8,2.5,0,4.86,1.11,6.46,3.04,1.6,1.93,2.24,4.45,1.77,6.91l-6.01,31.28-.04.2h-17.05l6.65-34.64Z"/>
  <path class="cls-11" d="M3.72,132.22l2.08,23.89,2.43,27.95.46,5.27c.22,2.51,2.3,4.41,4.83,4.41h94.55c2.83,0,5.1-2.37,5.01-5.17v-.27s-.05-.37-.05-.37l-.11-1.29-.06-.64-.4-4.53-1.8-20.68-2.58-29.61c-.1-1.12-.57-2.11-1.28-2.88-.88-.95-2.15-1.54-3.55-1.54H8.72l-.84.07c-2.52.43-4.39,2.75-4.16,5.37"/>
  <path class="cls-11" d="M8.72,127.02l-.79.06c-2.43.41-4.17,2.66-3.96,5.11l4.98,57.12c.2,2.39,2.17,4.19,4.58,4.19h94.55c1.3,0,2.52-.52,3.43-1.46.91-.94,1.39-2.16,1.34-3.47v-.24s-4.99-57.12-4.99-57.12c-.09-1.04-.51-1.98-1.21-2.74-.87-.93-2.1-1.46-3.38-1.46H8.72ZM8.45,189.35l-4.97-57.12c-.24-2.71,1.68-5.18,4.36-5.64l.87-.07h94.55c1.42,0,2.77.59,3.73,1.61.77.83,1.24,1.88,1.34,3.03l2.58,29.61,2.39,27.5.02.29c.05,1.42-.48,2.77-1.48,3.81-1,1.03-2.34,1.61-3.77,1.61H13.52c-2.66,0-4.84-1.99-5.07-4.63"/>
  <path class="cls-5" d="M10.8,186.74l-4.77-54.76c-.07-.75.18-1.46.69-2.02.51-.55,1.21-.86,1.95-.86h94.56c1.34,0,2.44,1,2.55,2.34l4.82,55.31H10.8Z"/>
  <path class="cls-6" d="M33.53,143.84c.07.85,0,1.67-.19,2.43l-.42-4.86c.21.49.37,1,.48,1.53l.13.91Z"/>
  <polygon class="cls-6" points="35.71 173.43 35.73 173.75 35.68 173.12 35.71 173.43"/>
  <path class="cls-7" d="M18.8,145.22c-.34-1.21-.39-2.54-.05-3.88.68-2.61,2.85-4.52,5.55-4.91,1.98-.28,3.91.24,5.49,1.27.62.42,1.03,1.09,1.1,1.8l.43,4.89-4.57,2.39c-3.91,2.05-7.15-.77-7.95-1.56"/>
  <path class="cls-7" d="M28.83,168.45l-.63-.11c.19-2.26-.29-3.99-1.44-5.14-1.78-1.79-4.58-1.6-4.61-1.6l-.1-.63c.13,0,3.15-.21,5.14,1.8,1.3,1.31,1.85,3.21,1.64,5.68M33.46,169.03l-1.49-17.01c-1.39.63-3.79,2.24-4.41,6.04l-.63-.16c.69-4.2,3.52-5.93,4.98-6.55l-.55-6.23-4.29,2.24c-1.09.57-2.13.79-3.1.79-2.77,0-4.92-1.82-5.59-2.48-4.2.96-7.08,4.78-6.68,9.36.22,2.52,1.4,4.82,3.14,6.53,2.84-.13,8.04-1.27,8.83-7.7l.63.13c-.84,6.73-6.33,8-9.34,8.18-.4,1.16-.57,2.44-.45,3.78.43,4.85,4.37,8.86,9.1,9.5.8-1.73,2.83-4.57,7.47-4.63l.07.63c-4.47.07-6.34,2.88-7.02,4.45,1.14,2.18,3.44,3.7,5.97,3.7,1.06,0,2.03-.27,2.86-.74.81-.46,1.24-1.36,1.16-2.32l-.65-7.43v-.04s0-.01,0-.01Z"/>
  <path class="cls-7" d="M46.09,175.55c-.65,2.36-2.76,4.03-5.41,4.03-1.18,0-2.31-.33-3.3-.91-.8-.47-1.32-1.33-1.4-2.23l-.56-6.4c4.04-.16,7.63,1.68,10.68,5.5"/>
  <path class="cls-7" d="M40.87,167.04l-.49-.44s1.95-2.27,1.45-4.94c-.3-1.61-1.41-3.07-3.32-4.32l.31-.52c2.08,1.37,3.3,2.98,3.63,4.79.55,2.96-1.5,5.33-1.59,5.44M44.06,158.7c-1.55-1.85-1.97-4.35-1.26-7.43l.61.19c-.67,2.86-.29,5.17,1.12,6.85,2.4,2.87,7.13,3.13,8.29,3.16,1.4-1.7,2.15-3.97,1.94-6.46-.39-4.4-3.66-8.09-7.8-9.23-1.48-.1-6.12.01-8.95,5.22l-.59-.3c2.27-5.33,7.88-5.48,8.54-5.48.12-1.21-.06-2.55-.64-3.89-1.15-2.63-3.68-4.55-6.48-4.91-2.06-.26-3.92.29-5.32,1.39-.55.43-.83,1.12-.77,1.85l2.61,29.75c4.33-.16,8.15,1.85,11.38,5.98,4.44-.78,7.54-4.72,7.12-9.45-.12-1.36-.51-2.65-1.13-3.83-1.43-.03-6.13-.38-8.66-3.4"/>
  <polygon class="cls-6" points="33.48 169.04 33.47 169.09 33.46 169.03 33.48 169.04"/>
  <polygon class="cls-6" points="91.61 166.59 91.52 165.16 102.59 165.16 102.68 166.59 91.61 166.59"/>
  <polygon class="cls-6" points="83.39 162.28 83.3 160.85 102.35 160.85 102.45 162.28 83.39 162.28"/>
  <polygon class="cls-6" points="86.21 157.97 86.12 156.53 102.18 156.53 102.27 157.97 86.21 157.97"/>
  <polygon class="cls-6" points="88.7 166.59 88.6 165.16 90.78 165.16 90.88 166.59 88.7 166.59"/>
  <polygon class="cls-6" points="70.88 166.59 70.78 165.16 81.85 165.16 81.94 166.59 70.88 166.59"/>
  <polygon class="cls-6" points="62.66 162.28 62.56 160.85 81.62 160.85 81.72 162.28 62.66 162.28"/>
  <polygon class="cls-6" points="65.48 157.97 65.38 156.53 81.44 156.53 81.54 157.97 65.48 157.97"/>
  <polygon class="cls-6" points="67.96 166.59 67.87 165.16 70.05 165.16 70.14 166.59 67.96 166.59"/>
  <polygon class="cls-6" points="90.6 153.82 90.5 152.38 101.57 152.38 101.66 153.82 90.6 153.82"/>
  <polygon class="cls-6" points="82.38 149.5 82.28 148.07 101.34 148.07 101.44 149.5 82.38 149.5"/>
  <polygon class="cls-6" points="85.2 145.19 85.1 143.76 101.16 143.76 101.26 145.19 85.2 145.19"/>
  <polygon class="cls-6" points="87.68 153.82 87.59 152.38 89.77 152.38 89.86 153.82 87.68 153.82"/>
  <polygon class="cls-6" points="69.86 153.82 69.77 152.38 80.83 152.38 80.93 153.82 69.86 153.82"/>
  <polygon class="cls-6" points="61.64 149.5 61.55 148.07 80.6 148.07 80.7 149.5 61.64 149.5"/>
  <polygon class="cls-6" points="64.46 145.19 64.37 143.76 80.43 143.76 80.52 145.19 64.46 145.19"/>
  <polygon class="cls-6" points="66.95 153.82 66.85 152.38 69.03 152.38 69.12 153.82 66.95 153.82"/>
  <polygon class="cls-6" points="89.58 141.04 89.49 139.6 100.55 139.6 100.65 141.04 89.58 141.04"/>
  <polygon class="cls-6" points="81.36 136.73 81.27 135.29 100.33 135.29 100.42 136.73 81.36 136.73"/>
  <polygon class="cls-6" points="86.67 141.04 86.57 139.6 88.75 139.6 88.84 141.04 86.67 141.04"/>
  <polygon class="cls-6" points="68.84 141.04 68.75 139.6 79.82 139.6 79.91 141.04 68.84 141.04"/>
  <polygon class="cls-6" points="60.62 136.73 60.53 135.29 79.59 135.29 79.68 136.73 60.62 136.73"/>
  <polygon class="cls-6" points="65.93 141.04 65.84 139.6 68.02 139.6 68.11 141.04 65.93 141.04"/>
  <path class="cls-6" d="M52.98,58.09c0,8.3-6.73,15.03-15.03,15.03s-15.03-6.73-15.03-15.03,6.73-15.03,15.03-15.03,15.03,6.73,15.03,15.03"/>
  <path class="cls-6" d="M35.93,82.75c-.98-.08-1.97-.22-2.94-.42l.15-.73c.94.19,1.9.33,2.86.4l-.06.75Z"/>
  <path class="cls-6" d="M41.12,82.63l-.1-.74c.95-.12,1.91-.31,2.83-.54l.18.72c-.95.24-1.94.43-2.92.56"/>
  <path class="cls-6" d="M28.04,80.77c-.91-.4-1.79-.85-2.65-1.36l.38-.64c.83.49,1.69.93,2.57,1.31l-.3.69Z"/>
  <path class="cls-6" d="M48.91,80.27l-.33-.67c.85-.42,1.7-.9,2.5-1.43l.41.63c-.83.54-1.7,1.04-2.58,1.48"/>
  <path class="cls-6" d="M21.21,76.32c-.73-.67-1.42-1.39-2.06-2.13l.57-.49c.62.73,1.3,1.42,2,2.07l-.51.55Z"/>
  <path class="cls-6" d="M55.51,75.51l-.53-.52c.67-.68,1.31-1.4,1.91-2.16l.59.46c-.61.78-1.27,1.53-1.97,2.23"/>
  <path class="cls-6" d="M60.22,68.87l-.67-.33c.42-.86.79-1.76,1.1-2.67l.7.24c-.32.93-.7,1.86-1.13,2.75M16.2,69.91c-.48-.87-.9-1.77-1.26-2.69l.69-.28c.35.89.76,1.76,1.22,2.61l-.66.36Z"/>
  <path class="cls-6" d="M61.4,52.99c-.21-.94-.47-1.87-.78-2.77l.7-.25c.32.93.59,1.89.8,2.86l-.73.16ZM14.27,54.19l-.73-.12c.16-.98.38-1.95.65-2.9l.72.21c-.27.92-.48,1.86-.64,2.81M62.51,61.06l-.75-.09c.12-.95.17-1.92.17-2.88v-.1h.75v.1c0,.99-.06,1.98-.17,2.97M13.54,62.21c-.16-.97-.27-1.97-.31-2.96l.75-.03c.04.96.15,1.92.31,2.86l-.74.13Z"/>
  <path class="cls-6" d="M53.32,39.67c-.74-.61-1.52-1.19-2.33-1.71l.41-.63c.82.54,1.63,1.13,2.39,1.77l-.48.57ZM21.65,40.48l-.51-.55c.73-.67,1.5-1.3,2.3-1.88l.44.61c-.77.55-1.52,1.17-2.23,1.82M58.47,45.66c-.49-.82-1.05-1.62-1.64-2.37l.59-.46c.61.78,1.18,1.6,1.69,2.44l-.64.39ZM16.82,46.72l-.66-.36c.47-.87.99-1.72,1.57-2.52l.61.43c-.56.78-1.06,1.61-1.52,2.45"/>
  <path class="cls-6" d="M35.89,34.18l-.06-.75c.98-.08,1.99-.11,2.97-.07l-.03.75c-.95-.03-1.93-.01-2.88.07M46.51,35.67c-.89-.34-1.82-.64-2.75-.87l.18-.72c.95.24,1.91.54,2.83.89l-.27.7ZM28.25,36.14l-.3-.69c.9-.4,1.84-.75,2.79-1.04l.22.72c-.91.28-1.82.61-2.7,1.01"/>
  <path class="cls-6" d="M55.72,38.23c0,2.02-1.64,3.66-3.66,3.66s-3.66-1.64-3.66-3.66,1.64-3.66,3.66-3.66,3.66,1.64,3.66,3.66"/>
  <path class="cls-4" d="M152.52,103.07s-2.55-.28-5.42.84l1.8,4.44s1.44,1.8,4.28,1.8,3.01-7.08-.66-7.08"/>
  <path class="cls-11" d="M149.12,108.22c.19.21,1.57,1.68,4.06,1.68,1.22,0,1.87-1.56,1.87-3.1,0-.93-.23-1.79-.64-2.42-.46-.71-1.09-1.07-1.89-1.07h-.03s-2.39-.24-5.07.74l1.7,4.17ZM153.18,110.39c-2.92,0-4.41-1.81-4.47-1.89l-.04-.06-1.9-4.67.23-.09c2.82-1.1,5.29-.88,5.52-.86.95,0,1.75.45,2.29,1.29.46.72.72,1.67.72,2.69,0,1.79-.81,3.59-2.36,3.59"/>
  <path class="cls-9" d="M172.33,116.2l.02-.03c.5-1.33.07-4.77-.55-6.41-1.95-5.13-1.64-11.23-5.78-12.43-1.75-.5-9.13.03-10.74.03-6.3,0-4.65,7.89-4.37,13.19.31,5.95,2.96,14.79,7.57,14.93.57.01,1.47-.24,2.56-.68l2.23,6.83s9.83,2.48,14-4.18l-4.93-11.24Z"/>
  <g class="cls-10">
    <path class="cls-12" d="M151.77,100.86c.61.17,2.45.57,2.45.57,0,0,1.14,4.33,2.05,5.87.91,1.54-.34,7.64-3.3,8.66-2.96,1.03-.54,4-.05,5.36.69,1.95-.85,4.38,3.16,5.14,2.67.51,8.83-1.89,6.55-5.65-2.28-3.76-5.9-8.33-3.74-13.17,2.17-4.84.34,5.47,6.38,8.14,6.03,2.68,7.68,3.82,7.68,3.82,0,0,.4-2.39,1.88-3.19,1.48-.8,5.13-6.89,4.22-13.89-.91-7.01-4.44-8.89-10.82-9.17-6.38-.28-4.57-3.22-8.54-3.36-3.97-.13-9.57-4.02-9.57-4.02,0,0-3.89,13.33,1.66,14.9"/>
    <path class="cls-8" d="M158.87,129.64c-11.79,4.14-19.32,13.42-25.81,40.24-4.26,17.67,2.6,21.72-.99,26.71-1.86,2.59-34.81,6.02-62.53,21.35,2.54,25.23,33.71,49.69,50.84,44.25,1.99-.63-8.41-15.22-6.5-16.29,0,0,56.85,10.52,75.82-14.17,14.88-19.37,9.74-64.04,8.06-78.03-1.68-14-8.68-26.15-16.74-26.92-6.64-.63-13.04-.35-22.14,2.85"/>
    <path class="cls-9" d="M165.95,110.5c-.73,2.41-2.99,3.85-5.05,3.22-2.06-.63-3.14-3.08-2.41-5.49.73-2.4,3-3.85,5.05-3.22,2.06.63,3.14,3.09,2.41,5.49"/>
    <path class="cls-9" d="M130.22,154.54c-2.42,2.01-6.43,5.45-10.23,8.87-9.07-5.54-19.28-11.94-20.66-13.05-1.94-1.54-2.58-2.7-1.91-7.66.67-4.96-.61-5.04-4.29-7.86-3.68-2.82-2.39-5.38-7.52-4.19-5.13,1.19-9.87-3.92-11.08-2.54-1.14,1.31,5.51,5.93,5.51,5.93,0,0-2,3.01-1,4.52,1,1.51,2.14-1.74,3.99-2.22,3.15-.82,5.78,1.94,3.47,4.85-2.31,2.9-.26,6.7-.26,6.7,0,0,16.39,35.13,28.06,42.17,3.96,2.39,7.39,2.89,10.22,2.18,7.78-1,17.86-8.29,26.99-18.27,9.33-10.18-8.32-30.16-21.3-19.41"/>
    <path class="cls-8" d="M103.08,152.87c-1.94-1.24-3.31-2.15-3.75-2.51-1.94-1.54-2.57-2.7-1.91-7.66.67-4.96-.61-5.04-4.29-7.86-3.68-2.82-2.39-5.38-7.52-4.19-5.13,1.19-9.87-3.92-11.08-2.53-1.14,1.31,5.51,5.92,5.51,5.92,0,0-2,3.01-1,4.52,1,1.51,2.14-1.74,4-2.23,3.15-.82,5.78,1.95,3.47,4.85-2.31,2.9-.26,6.69-.26,6.69,0,0,2.51,5.38,6.27,12.36,2.33-4.46,6.18-6.29,10.57-7.37"/>
    <path class="cls-8" d="M166.91,133.87c3.76,2.46,7.25,6.73,3.97,17.13-3.28,10.41-16.11,26.84-28.29,37.41,0,0-17.7-6.51-22.48-27.77,0,0,21.07-19.34,28.26-24.86,7.18-5.53,14.41-4.62,18.55-1.91"/>
    <path class="cls-11" d="M194.02,246.58h-51.03c2.3-.45,13.94-4.35,10.96-37.37-1.78-19.69,10.18-49.89,13.88-57.92h52.87c.15.93-.22,2.34-2.05,4.39-4.1,4.62-12.83,40.36-14.02,50.62-1.16,9.97,8.33,33.62-10.61,40.28"/>
    <path class="cls-11" d="M139.84,246.95h5.56s15.3-2.42,11.76-31.94c-.46-3.79-2.99-7.01-6.57-8.33-8.3-3.02-25.23-7.96-47.37-7.96,0,0-.22.02-.58.09,19.7.66,34.74,5.08,42.39,7.87,3.59,1.31,6.12,4.53,6.57,8.33,3.54,29.53-11.75,31.94-11.75,31.94"/>
    <path class="cls-11" d="M90.93,213.66c4.67,14.03,9.46,25.88,9.46,25.88,0,0,2.28,7.41,11.52,7.41h5.56c-9.24,0-11.52-7.41-11.52-7.41,0,0-4.79-11.85-9.46-25.88-4.03-12.08,3.88-14.43,6.14-14.85-1.63-.06-3.29-.09-4.98-.09,0,0-11.4.91-6.72,14.93"/>
    <path class="cls-11" d="M97.66,199.42c-.33.03-3.98.48-5.93,3.44-1.63,2.48-1.69,6.04-.17,10.58,4.61,13.84,9.4,25.72,9.44,25.84.11.34,2.29,6.98,10.87,6.98h27.87c.88-.19,14.45-3.51,11.13-31.16-.43-3.56-2.77-6.54-6.11-7.75-8.11-2.96-25.01-7.92-47.1-7.92M139.87,247.64h-27.99c-9.63,0-12.15-7.82-12.18-7.9-.02-.06-4.83-11.98-9.45-25.87-1.66-4.98-1.54-8.94.34-11.79,2.41-3.64,6.8-4.04,6.98-4.05h.06c22.33,0,39.41,5.01,47.61,8,3.84,1.4,6.53,4.81,7.02,8.9,3.59,29.85-11.69,32.61-12.34,32.71h-.05Z"/>
  </g>
</svg>