<?xml version="1.0" encoding="UTF-8"?>
<svg id="Capa_1" data-name="Capa 1" xmlns="http://www.w3.org/2000/svg" xmlns:xlink="http://www.w3.org/1999/xlink" viewBox="0 0 257.14 248.99">
  <defs>
    <style>
      .cls-1 {
        fill: none;
      }

      .cls-2 {
        fill: #e94e24;
      }

      .cls-3 {
        fill: #f2f7f8;
      }

      .cls-4 {
        fill: #e4ddd0;
      }

      .cls-5 {
        fill: #342547;
      }

      .cls-6 {
        fill: #e6eff1;
      }

      .cls-7 {
        fill: #ec6839;
      }

      .cls-8 {
        fill: #cadee1;
      }

      .cls-9 {
        fill: #6b6664;
      }

      .cls-10 {
        fill: #fff;
      }

      .cls-11 {
        fill: #adced2;
      }

      .cls-12 {
        fill: #bd4461;
      }

      .cls-13 {
        fill: #8cbdc1;
      }

      .cls-14 {
        fill: #d1c8b2;
      }

      .cls-15 {
        fill: #c5bca3;
      }

      .cls-16 {
        fill: #b8ac8f;
      }

      .cls-17 {
        clip-path: url(#clippath);
      }

      .cls-18 {
        fill: #786a85;
      }

      .cls-19 {
        fill: #504b48;
      }

      .cls-20 {
        fill: #9a8a6f;
      }
    </style>
    <clipPath id="clippath">
      <path class="cls-1" d="M17.22,121.53c0,66.25,53.71,119.96,119.96,119.96s119.96-53.71,119.96-119.96S203.43,1.57,137.18,1.57,17.22,55.28,17.22,121.53"/>
    </clipPath>
  </defs>
  <path class="cls-3" d="M137.18,1.97c-65.97.01-119.45,53.5-119.45,119.48,0,5.03.31,9.99.92,14.86,1.69,13.65,5.69,26.59,11.59,38.41,3.98,7.97,8.82,15.44,14.41,22.28,9.41,11.52,20.92,21.24,33.96,28.59,17.31,9.76,37.29,15.33,58.58,15.34,65.97-.01,119.45-53.5,119.45-119.48S203.16,1.98,137.18,1.97"/>
  <g>
    <polygon class="cls-16" points="34.77 219.18 29.43 217.39 33.53 203.46 39.35 205.51 34.77 219.18"/>
    <path class="cls-2" d="M40.27,229.31h0c.26-.3-4.46-6.73-4.75-7.59-.11-.32-.18-.67-.22-1.04-.05-.46-.02-1.06.07-1.69.05-.32-.16-.62-.48-.66-.46-.07-.89-.18-1.17-.24-1.63-.33-2.64-.9-3.69-1.89-.27-.26-.72-.2-.9.13-.79,1.39-2.11,3.81-2.17,3.95-.75,1.18.53,1.71,1.39,2.68.55.62,1.33.3,1.92.77.73.57.76,1.85,1.26,2.39,1.61,1.75,7.11,6.67,8.71,3.25v-.07Z"/>
    <path class="cls-5" d="M33.34,219.56c.57.19,1.29.44,1.95.41,0-.2.02-.41.04-.62-.59.08-1.33-.22-1.83-.38-.38-.12-.54.48-.16.6M33.38,220.94c.6.2,1.36.47,2.04.4-.05-.2-.09-.4-.11-.61-.58.05-1.29-.23-1.77-.39-.38-.12-.54.48-.16.6"/>
    <path class="cls-20" d="M40.16,229.59c-5.26-1.24-9.37-5.71-13-9.64-.11.2-.17.33-.19.36-.75,1.18.53,1.71,1.39,2.68.55.62,1.33.3,1.92.77.73.57.76,1.85,1.26,2.4,1.58,1.72,6.9,6.48,8.62,3.43"/>
    <polygon class="cls-16" points="72.6 228.6 67.02 229.31 64.65 214.98 70.77 214.29 72.6 228.6"/>
    <path class="cls-2" d="M81.97,235.32h0c.11-.39-6.94-4.12-7.58-4.77-.24-.25-.46-.52-.65-.84-.24-.39-.48-.95-.67-1.55-.09-.31-.41-.48-.72-.39-.44.14-.88.23-1.16.3-1.61.41-2.76.34-4.15-.1-.36-.11-.73.14-.75.51-.11,1.6-.24,4.35-.24,4.5-.16,1.39,1.22,1.31,2.42,1.81.76.32,1.33-.3,2.06-.15.91.2,1.49,1.33,2.18,1.61,2.21.88,9.31,2.91,9.26-.86l-.02-.07Z"/>
    <path class="cls-5" d="M71.48,229.56c.6-.08,1.36-.16,1.93-.48-.08-.18-.16-.38-.23-.58-.5.33-1.3.38-1.82.46-.4.06-.28.66.11.61M72.12,230.78c.63-.09,1.43-.17,2.01-.53-.13-.16-.25-.32-.37-.5-.5.3-1.26.35-1.76.42-.4.05-.28.66.11.61"/>
    <path class="cls-20" d="M81.99,235.62c-5.27,1.17-10.92-1.06-15.9-3.02,0,.22-.01.37-.01.4-.16,1.39,1.22,1.31,2.42,1.81.76.32,1.33-.31,2.06-.15.91.19,1.49,1.34,2.18,1.61,2.17.86,9.04,2.83,9.25-.66"/>
    <path class="cls-19" d="M56.66,216.72l-11.22-41.72c-.22-.83-1.07-1.32-1.9-1.1-.83.22-1.32,1.07-1.09,1.9l2.42,8.99H11.14l1.66-8.26c.17-.84-.38-1.65-1.22-1.82-.84-.17-1.66.38-1.83,1.22L1.37,217.74c-.82.47-1.37,1.34-1.37,2.34,0,1.5,1.22,2.71,2.71,2.71s2.71-1.22,2.71-2.71c0-.82-.37-1.55-.95-2.04l5.59-27.9h36.23l7.35,27.33c-.45.52-.71,1.21-.66,1.95.1,1.49,1.39,2.63,2.88,2.53,1.49-.1,2.63-1.39,2.53-2.88-.07-1.09-.78-1.99-1.75-2.36"/>
    <path class="cls-9" d="M54.67,142.96c-1.09-7.21-4.9-15.06-8.78-17.8-.96-.67-1.05-1.15-1.95-1.41-2.7-1.28-5.83-1.71-9.07-1.73-7.04-.03-16.31-.77-21.95,4.96-.21.21-.4.42-.59.64-3.4,3.39-5.93,10.92-6.89,17.32-1.06,7.05-1.24,13.69-.78,18.16.54,5.16.75,10.73,4.42,14.34,3.65,3.6,9,4.85,13.56,5.45,4.85.64,11.78.41,17.31.05,1.12-.04,2.13-.11,2.97-.22,4.57-.6,6.53-2.53,8.62-4.65,3.63-3.67,4.21-11.82,4.74-16.98.47-4.47-.56-11.09-1.62-18.14"/>
    <g class="cls-17">
      <path class="cls-9" d="M158.25,88.69s-6.34,1.47-6.88-2.7c-.08-.61-.37-1.19-.82-1.61-.88-.82-2.03-2.5-.69-5.11.28-.54.39-1.15.26-1.75-.25-1.16-.36-3.13,1.54-3.78.92-.32,1.62-1.1,1.74-2.07.18-1.42,1-3.15,3.89-3.11.7,0,1.37-.28,1.86-.78,1.03-1.04,3.07-2.41,5.65-.46.62.47,1.41.64,2.17.45,1.23-.3,3.1-.31,3.99,1.97.29.73.92,1.27,1.66,1.5,1.1.34,2.45,1.22,2.31,3.56-.04.64.2,1.25.59,1.75.81,1.07,1.83,3.09.18,5.24-.41.53-.62,1.2-.53,1.86.17,1.3.02,3.42-2.52,4.02-.51.12-.97.36-1.32.74-1.06,1.14-3.71,3.29-6.98,1.03-4.2-2.89-6.11-.77-6.11-.77"/>
      <polygon class="cls-14" points="101.37 216.86 106.91 217.83 109.93 203.63 103.84 202.66 101.37 216.86"/>
      <path class="cls-20" d="M108.09,224.73c-.35-1.17-.7-2.24-1.03-3.59-.13-.54-.3-.96-.14-2.29.28-.85.77-2.7.88-3.15.11-.44-.11-.51-.76-.71-1.56-.49-3.04-.94-4.61-1.4h-.14c-.41-.05-.57.37-.72.83-.64,1.87-.48,1.3-1.03,3.19-.75,2.57-.37,2.53.16,3.66.28.6.54,1.21.74,1.99.28,1.14.49,2.46.78,3.38.66,2.1,3.75,2.7,4.99,2.57,2.19-.22,1.2-3.42.89-4.48"/>
      <path class="cls-16" d="M108.08,224.74c-.05-.17-.1-.33-.15-.5-.16-.17-.33-.34-.5-.51-.91-.97-1.09-1.96-1.01-3.25.12-1.83.45-3.62.93-5.38l-.32-.11-.27-.08c-.58,2.1-1.07,4.41-.98,6.59.07,1.77,1.34,2.86,2.53,4.02-.08-.31-.16-.58-.22-.78"/>
      <path class="cls-16" d="M103.7,213.97c-.21-.06-.43-.13-.64-.19.22,1.91-.57,3.62-.43,5.5.07.88.39,1.69.38,2.59-.01,1.17-.38,2.24-.99,3.24-.21.34.31.68.52.34.96-1.57,1.29-3.26.94-5.07-.43-2.19.4-4.24.23-6.42"/>
      <path class="cls-16" d="M106.51,216.36c-.91-.21-1.8-.47-2.69-.75-.38-.12-.57.47-.19.59.89.29,1.78.54,2.69.75.39.09.58-.5.19-.59"/>
      <path class="cls-16" d="M106.02,217.86c-.88-.19-1.74-.43-2.59-.72-.38-.13-.57.46-.19.59.85.29,1.71.53,2.59.72.39.08.58-.51.19-.59"/>
      <path class="cls-19" d="M102.87,226.74c-.56-.99-.67-3.44-.99-4.52-.34-1.15-.94-2.08-1.7-3.18-.21,1.21.1,1.39.51,2.26.28.6.54,1.22.74,2,.28,1.13.49,2.46.78,3.38.66,2.1,3.75,2.7,4.99,2.57.57-.06.93-.32,1.13-.7-1.54.2-4.64-.35-5.45-1.8"/>
      <path class="cls-19" d="M126.73,221.88l-11.22-41.72c-.22-.82-1.07-1.32-1.9-1.09-.83.22-1.32,1.07-1.09,1.9l2.42,8.99h-33.72l1.66-8.26c.17-.84-.38-1.65-1.22-1.82-.84-.17-1.66.38-1.83,1.21l-8.38,41.82c-.82.47-1.37,1.34-1.37,2.35,0,1.5,1.22,2.71,2.71,2.71s2.71-1.21,2.71-2.71c0-.82-.37-1.55-.95-2.05l5.59-27.9h36.24l7.35,27.32c-.45.52-.71,1.21-.66,1.96.1,1.5,1.39,2.63,2.88,2.53,1.49-.1,2.63-1.39,2.53-2.88-.07-1.09-.78-1.99-1.75-2.35"/>
      <polygon class="cls-14" points="93.67 223.95 99.24 223.15 97.71 208.71 91.62 209.68 93.67 223.95"/>
      <path class="cls-9" d="M128.29,146.35c-1.45-8.16-6.51-17.05-11.68-20.15-1.27-.76-1.39-1.31-2.6-1.6-3.59-1.45-7.75-1.94-12.07-1.95-9.36-.04-21.7-.87-29.2,5.62-.27.24-.53.48-.78.72-4.52,3.83-7.88,12.36-9.17,19.6-1.41,7.98-1.65,15.5-1.03,20.57.72,5.84.99,12.15,5.88,16.24,4.86,4.07,11.97,5.49,18.04,6.17,6.46.73,15.66.47,23.03.06,1.49-.04,2.83-.12,3.95-.25,6.07-.68,8.68-2.87,11.47-5.27,4.83-4.16,5.59-13.38,6.31-19.22.62-5.06-.74-12.56-2.15-20.53"/>
      <path class="cls-19" d="M113.74,162.92c-.61-.88-1.78-.6-2.2.07-.42-.44-1.1-.33-1.57.06l-.03-.09c-.58-1.51-2.63-.92-2.39.66.06.4.11.81.16,1.21-.45-.62-1.5-.6-2-.08-.24-.09-.5-.11-.75-.06l.12-.38c.51-1.52-1.87-2.15-2.39-.66l-.34.98c-.12-.97-1.27-1.45-1.97-.92-.63-.37-1.58-.25-1.83.66l-.25-.06c-.13-1.12-1.49-1.57-2.27-.54l-.14.19c-.22-.96-1.68-1.38-2.28-.36-.33.56-.63,1.13-.91,1.71,0-.64-.07-1.28-.24-1.9-.26-1.05-1.87-1.21-2.3-.27-.62-.7-1.87-.72-2.15.39-.27-1.19-2.21-1.11-2.42.21-.64-.75-2.19-.49-2.21.78,0,.17,0,.35,0,.52-.41.14-.75.48-.84,1.01,0-1.54-3.98-1.93-4.02-.35-.16,5.87,1.24,12.19,2.34,17.98,1.09,5.67,6.09,31.03,7.03,33.1.63,1.39,1.39,1.43,2.79,1.34,3.02-.2,6.31-1.47,9.27-2.15.56-.13.87-.66.91-1.2.05-.72.08-1.44.1-2.16,2.28.33,4.52.81,6.75,1.45.62.18,1.38-.21,1.53-.86,2.06-9.4,4.13-18.8,6.19-28.2,1.73-7.88,3.21-15.02-1.7-22.1"/>
      <path class="cls-13" d="M115.67,112.28c-.52-4.35-3.11-7.09-6.64-9.57-1.98-1.39-4.23-3.47-6.55-4.25-2.24-.75-5.27-.21-7.59-.19h-.05c-.16-.06-2.16-.27-2.36-.17-6.95,3.33-13.39,4.5-15.99,12.26-1.3,3.86-.13,8.43.29,12.37.5,4.58.53,12.33,1.9,16.75.21,1.56.64,3.05,2.19,3.87,2.25,1.2,5.46.8,7.91.71,6.23-.22,21.28,2.79,22.36.81.42-.29,3.04-12.96,3.18-13.95.82-6.03,2.08-12.57,1.35-18.65"/>
      <path class="cls-19" d="M56.66,221.26l-11.22-41.72c-.22-.83-1.07-1.32-1.9-1.1-.83.22-1.32,1.07-1.09,1.9l2.42,8.99H11.14l1.66-8.26c.17-.84-.38-1.65-1.22-1.82-.84-.17-1.66.38-1.83,1.22L1.37,222.28c-.82.47-1.37,1.34-1.37,2.34,0,1.5,1.22,2.71,2.71,2.71s2.71-1.22,2.71-2.71c0-.82-.37-1.55-.95-2.04l5.59-27.9h36.23l7.35,27.33c-.45.52-.71,1.21-.66,1.95.1,1.49,1.39,2.63,2.88,2.53,1.49-.1,2.63-1.39,2.53-2.88-.07-1.09-.78-1.99-1.75-2.36"/>
      <path class="cls-9" d="M58.23,145.73c-1.45-8.16-6.51-17.05-11.68-20.15-1.27-.76-1.39-1.31-2.6-1.6-3.59-1.45-7.75-1.94-12.07-1.95-9.36-.03-21.7-.87-29.2,5.62-.27.24-.53.48-.78.72-4.52,3.84-7.88,12.36-9.17,19.61-1.41,7.98-1.65,15.5-1.03,20.57.72,5.84.99,12.14,5.88,16.24,4.86,4.07,11.97,5.49,18.04,6.17,6.46.73,15.66.47,23.03.06,1.49-.04,2.83-.12,3.95-.25,6.07-.68,8.68-2.87,11.47-5.27,4.83-4.16,5.59-13.39,6.31-19.22.62-5.06-.74-12.56-2.15-20.54"/>
      <path class="cls-19" d="M146.5,231.06c-.1,1.5-1.39,2.63-2.88,2.53-1.5-.09-2.63-1.39-2.53-2.88.1-1.5,1.39-2.63,2.88-2.53,1.49.1,2.63,1.39,2.53,2.88"/>
      <path class="cls-19" d="M159.54,231.16c.1,1.5,1.39,2.63,2.88,2.53,1.5-.1,2.63-1.39,2.53-2.88-.1-1.5-1.39-2.63-2.88-2.53-1.49.1-2.63,1.39-2.53,2.88"/>
      <rect class="cls-19" x="141.35" y="188.18" width="38.99" height="5.35"/>
      <path class="cls-19" d="M188.3,223.49l.3-.05c.83-.22,1.32-1.07,1.09-1.9l-11.6-43.16c-.22-.82-1.07-1.32-1.9-1.1-.83.22-1.32,1.07-1.1,1.9l11.6,43.16c.19.72.87,1.19,1.6,1.14"/>
      <path class="cls-19" d="M135.15,224.99l-.31-.03c-.84-.17-1.38-.99-1.21-1.83l8.78-43.82c.17-.84.99-1.38,1.83-1.21.84.17,1.38.98,1.22,1.82l-8.78,43.82c-.15.74-.79,1.25-1.52,1.25"/>
      <path class="cls-19" d="M185.64,222.81c.1,1.5,1.39,2.63,2.88,2.53,1.5-.1,2.63-1.39,2.53-2.88-.1-1.5-1.39-2.63-2.88-2.53-1.49.1-2.63,1.39-2.53,2.88"/>
      <path class="cls-19" d="M132.23,223.83c0,1.5,1.22,2.71,2.71,2.71s2.71-1.21,2.71-2.71-1.21-2.71-2.71-2.71-2.71,1.22-2.71,2.71"/>
      <path class="cls-9" d="M194.61,144.19c-1.45-8.16-6.51-17.05-11.68-20.15-1.27-.76-2.51-1.27-3.72-1.57-3.6-1.45-7.75-1.94-12.07-1.95-9.36-.04-20.93-.15-28.43,6.34-.27.24-.53.48-.78.72-4.52,3.84-8.66,11.64-9.94,18.88-1.41,7.98-1.65,15.5-1.03,20.56.72,5.84.99,12.15,5.88,16.24,4.86,4.07,11.97,5.49,18.04,6.17,6.46.73,15.67.47,23.03.06,1.49-.04,2.83-.12,3.96-.24,6.07-.68,8.68-2.87,11.47-5.27,4.83-4.16,5.59-13.38,6.31-19.22.62-5.06.38-12.59-1.03-20.57"/>
      <path class="cls-9" d="M145,172.7c-.55-.36-.83-1.76-.99-2.66.53.77,1.52,1.31,2.46,1.12,1.16-.23,2.31-.46,3.46-.68-.71.41-1.41.84-2.08,1.31-.94.66-1.61,1.72-2.85.91M178.11,160.46c-.31-1.76-3.23-2.19-3.97-.52-.53,1.2-1.29,2.36-2.18,3.39-.46-.36-.98-.64-1.61-.83-2.84-.85-6.56-.64-9.51-.59-3.06.06-5.8,1.04-8.63,2.12-1.02.39-2.1.74-3.17,1.13-.63.12-1.26.25-1.88.38-.73.16-1.17.57-1.39,1.07-.49.28-.97.58-1.42.92-.33.26-.53.55-.64.86-.74-4.5-.72-9.25-1.06-13.77-.21-2.77-4.55-2.79-4.34,0,.27,3.63.53,7.26.81,10.89.21,2.74.41,5.54,1.51,8.09.87,2.02,2.54,4.57,5.06,4.34,2.73-.24,2.12,4.41,3.7,2.24,6.38-8.77,14.03-9.7,19.81-1.43,1.79,2.56.98-4.28,4.07-4.75,7.14-1.1,5.79-8.06,4.84-13.55"/>
      <path class="cls-9" d="M151.02,219.18c-.55-1.06-2.16-.14-1.61.92.47.91-4.06,2.52-4.73,2.91-.56.32-4.97,3.62-5.91,2.29.04-.32-.07-.64-.44-.85l-.13-.07c1.12.44-2.12.42-1.98,1.22.65,3.72,6.66.74,8.67-.53,2.06-1.3,8.07-2.15,6.14-5.89"/>
      <path class="cls-7" d="M150.09,215.61c-1.57.94-2.76,1.35-4.7,1.22-.41-.03-1.14-.03-1.77-.18-.04.84-.21,1.69-.43,2.25-.49,1.27-1.4,2.08-2.41,2.77-1.15.77-4.74,3.49-4.57,3.84.41.84,2.33.92,3.62.85,1.86-.1,4.78-2.39,6.22-3.15.73-.38,3.76-1.47,4.24-1.76,1.32-.79,1.04-1.25.89-2.25-.17-1.17-.75-2.42-1.09-3.6"/>
      <path class="cls-10" d="M144.99,219.05c-.51.03-1.26.11-1.81-.09-.08.2-.17.38-.27.56.64.24,1.45.18,2.08.15.4-.02.4-.64,0-.62"/>
      <path class="cls-10" d="M145.39,217.74c-.53.03-1.32.12-1.87-.11-.03.21-.07.42-.12.61.62.21,1.38.15,1.99.12.4-.02.4-.64,0-.62"/>
      <path class="cls-9" d="M169.46,220.59c.36-1.14,2.11-.51,1.75.63-.31.98,4.43,1.78,5.17,2.05.61.22,5.52,2.7,6.21,1.23-.1-.31-.04-.65.29-.92l.11-.09c-1.02.63,2.16.05,2.16.85,0,3.78-6.43,1.88-8.63.98-2.25-.92-8.32-.72-7.06-4.74"/>
      <path class="cls-7" d="M169.76,216.92c1.71.66,2.96.85,4.84.39.4-.1,1.12-.23,1.72-.48.18.82.5,1.63.81,2.15.7,1.17,1.74,1.81,2.85,2.31,1.26.57,5.28,2.62,5.17,2.99-.26.89-2.14,1.31-3.42,1.47-1.85.22-5.12-1.53-6.67-2.03-.78-.25-3.95-.8-4.47-1-1.44-.56-1.24-1.05-1.27-2.06-.03-1.19.32-2.51.45-3.74"/>
      <path class="cls-18" d="M174.87,218.8c.6-.07,1.36-.15,1.94-.47-.08-.18-.15-.38-.22-.58-.5.33-1.3.37-1.82.44-.4.05-.29.66.11.61M175.5,220.03c.63-.08,1.43-.15,2.02-.5-.13-.16-.25-.32-.36-.5-.51.29-1.26.34-1.77.4-.4.05-.29.66.11.61"/>
      <path class="cls-8" d="M159.54,162.82c.68-1.12-.55-2.34-1.47-1.96l-.1-.35.13-.21c.31-.51.24-1.03-.04-1.42l.02-.03c.79-1.34-1.01-2.81-1.98-1.5l-.23.31c-.19-.15-.42-.25-.65-.28l.06-.12c.68-1.23-1.37-2.38-2.14-1.22l-.22.34c-.21-.61-.92-1.02-1.54-.86-.23-.88-1.59-1.4-2.21-.47l-.09.13c-.5-.28-1.2-.26-1.66.26l-.38.44c.12-.2.23-.41.35-.61.78-1.37-1.19-2.88-1.98-1.5-2.52,4.43-5.05,8.85-7.43,13.35-2.41,4.56-3.93,8.38-3.1,13.59,1.74,10.91,3.04,22.27,5.24,33.09.47,2.33.33,4.31,1.73,4.02,2.22-.46,10.42-1.3,10.59-2.74.26-2.11-4.3-29.74-3.08-34.9.52-2.2,7.61-13.18,10.15-17.37"/>
      <path class="cls-8" d="M169.89,180.58c1.51,5.08-1.68,33.5-1.3,35.59.26,1.43,7.28,1.84,9.12,2.3.93.23.96-.47,1.3-2.82,1.59-10.93,4.26-24.37,5.38-35.36.54-5.25-1.19-8.97-3.86-13.39-2.63-4.36-5.4-8.64-8.17-12.91-.86-1.34-2.75.28-1.89,1.6.13.2.25.4.38.59l-.4-.42c-.49-.49-1.19-.47-1.67-.16l-.09-.13c-.68-.89-2-.3-2.18.6-.62-.13-1.31.32-1.48.94l-.24-.32c-.83-1.12-2.81.15-2.07,1.33l.07.11c-.23.05-.46.16-.64.32l-.25-.3c-1.04-1.26-2.76.31-1.89,1.6l.02.03c-.25.41-.3.94.04,1.42l.15.21-.08.36c-.93-.33-2.1.95-1.35,2.03,2.77,4.04,10.46,14.6,11.11,16.77"/>
      <path class="cls-4" d="M169.39,76.93c-2.87-2.71-7.5-2.59-10.66-.48-.6-.66-1.64-.86-2.23.11-3.06,5.02-2.77,13.34.42,18.31,1.41,2.21,3.84,4.64,6.56,4.46,2.85-.19,4.97-3.31,6.31-5.63,2.62-4.54,3.87-12.76-.4-16.78"/>
      <path class="cls-4" d="M166.62,92.93c-.09.39-.17.78-.26,1.17-.46-.09-.99.1-1.13.63l-.02.07c-.28-.09-.6-.07-.85.09-.4-.41-1.15-.39-1.47.15-.12-.14-.26-.27-.44-.36l-.48-.11h0c-.16-.86-1.12-.8-1.59-.3-.02-.35-.04-.7-.06-1.05-.06-1.19-1.93-1.2-1.86,0,.18,3.26.14,6.69.65,9.91.34,2.14,2.18,1.98,4.04,2.08,2.48.12,3.74.21,4.24-2.36.63-3.18.91-6.44,1.05-9.67.04-1.04-1.6-1.28-1.83-.25"/>
      <path class="cls-7" d="M184.65,120.32c-.62-4.55-2.38-8.45-6.06-11.3-2.58-2-5.58-3.34-8.37-4.98-.06-.2-.17-.43-.36-.73-.56-.91-1.2-2.16-2.33-2.31-.92-.12-3.32.4-4.04.68l-.29.38c-.09-.31-.33-.41-.7-.51-.62-.16-1.32-.14-1.95-.21-.6-.07-1.38-.27-1.97-.04-.75.29-1.37,1.15-1.92,1.92-6.94,3.21-14.37,6.36-17.31,13.89-2.45,6.27-2.43,14.33-2.47,21.38-.02,2.99-.69,5.17-.53,7.97.04.65.4,1.09.86,1.31.04.87.7,1.45,1.55,1.52,2.17.18,4.34.33,6.52.45.09.53.19,1.07.3,1.6.41,1.86,2.83,1.17,3.04-.41.04-.33.1-.67.14-1,3.33.14,6.66.19,9.99.17,1.56,0,3.12-.04,4.68-.09v.1c-.15,2,2.93,1.98,3.09,0l.02-.22c.84-.04,1.68-.06,2.52-.11,2.9-.16,6.41.04,9.21-.78.72-.21,1.22-.5,1.55-.83,3.73-2.28,5.41-6.23,5.67-10.59.33-5.57-.07-11.71-.82-17.24"/>
      <path class="cls-4" d="M173.36,87.6c-.09-.7-.54-1.41-1.33-1.35-.78.06-1.29.84-1.66,1.45-.18.29-.08.57.13.74-.25.34-.48.7-.7,1.07l-.07.09-.14.27c-.12.23-.08.44.03.61l-.07.26c-.05.44.43.67.79.6,1.57-.3,3.24-2.08,3.02-3.74"/>
      <path class="cls-4" d="M153.38,88.23c.09-.7.54-1.41,1.33-1.35.78.06,1.29.84,1.66,1.45.18.3.08.57-.13.75.25.34.48.7.7,1.07l.07.09.14.27c.12.23.08.44-.03.61l.07.26c.05.43-.43.67-.78.6-1.57-.3-3.24-2.08-3.03-3.74"/>
      <path class="cls-5" d="M130.97,152.46c-.89-.07-1.78-.15-2.67-.25-.4-.04-.39.58,0,.62.89.1,1.78.18,2.67.25.4.03.4-.59,0-.62"/>
      <path class="cls-5" d="M153.05,154.61c-.41-.49-.87-.93-1.36-1.33-.31-.25-.75.19-.44.44.5.4.95.84,1.36,1.33.26.31.69-.14.44-.44"/>
      <path class="cls-14" d="M109.74,74.27c-1.81-2.37-5.13-2.6-8.29-2.65-.38-.14-.83-.16-1.17-.03-4.12,1.57-6.25,5.31-6.05,9.37.11,2.24.36,7.62,4.43,11.25,1.13,1.01,3.59,1.53,5.1,1.93,3.51.91,5.59-1.74,5.87-3.2.42-2.17.67-3.93.92-6.11.21-1.81.51-3.75.38-5.61-.11-1.53-.19-3.65-1.19-4.95"/>
      <rect class="cls-14" x="89.69" y="88.13" width="17.16" height="8.39" transform="translate(-6.63 177.04) rotate(-82.14)"/>
      <polygon class="cls-16" points="72.2 223.04 66.65 223.94 63.81 209.7 69.91 208.81 72.2 223.04"/>
      <path class="cls-13" d="M104.48,100.08c-.29-1.22-.77-2.45-1.57-3.43-.69-.85-1.39-.82-2.43-.66-.84.13-2.04.24-2.44,1.1l-.07.19c-.15-.81-.51-.91-1.49-1.06-.88-.13-2.19-.55-3.04-.11-.87.46-1.18,1.74-1.54,2.56-.16.36.37.68.54.31l.19-.47c-.1.39-.19.79-.24,1.2-.03.2.09.36.26.38-.08.19-.13.39-.14.67-.02.36.49.39.6.09l.04.18c.06.23.35.29.52.14l.03-.03.33-.06.13-.17.24.33-.02.4c-.04.34.56.43.61.08.04-.29.1-.58.16-.86v.28s0,.05,0,.05v.04c.01.22.03.44.03.67,0,.35.51.42.61.08l.1-.33.32.11c.21-.03.32-.14.39-.29l.03.15.08.13v.08c.06.33.55.27.61-.02.08.26.5.35.58.06l.24-.29.03-.42v.03s.05.08.05.08c-.02.27-.03.55,0,.83l.22.28.16.23.49-.06.1-.17.17-.03.16-.1.08.19c.14.25.48.16.57-.08.08-.23.14-.47.21-.7-.03.22-.05.44-.08.67-.04.34.54.42.61.08l.09-.47c.11.24.55.18.59-.15.03-.22.06-.44.09-.66.09.35.58.25.61-.08.04-.47.08-.94.11-1.41l.02.06c.13.33.58.27.61-.08v-.22s.03.02.03.02l.11.38c.08.29.43.27.56.08l.21.45c.15.33.64.09.57-.24"/>
      <path class="cls-2" d="M81.79,229.45h0c.09-.39-7.07-3.89-7.73-4.52-.25-.24-.47-.51-.68-.82-.25-.38-.52-.93-.72-1.52-.1-.3-.43-.47-.73-.37-.44.15-.87.25-1.15.33-1.6.47-2.75.43-4.15.04-.36-.1-.72.16-.74.53-.06,1.6-.1,4.36-.09,4.5-.12,1.39,1.26,1.27,2.48,1.73.77.29,1.32-.35,2.06-.21.92.17,1.53,1.28,2.23,1.53,2.24.8,9.4,2.61,9.23-1.17l-.02-.06Z"/>
      <path class="cls-19" d="M143.84,231.74l-.3-.05c-.83-.22-1.32-1.07-1.09-1.9l18.9-68.77c.22-.83,1.07-1.32,1.9-1.1.83.22,1.32,1.07,1.1,1.9l-18.9,68.77c-.19.73-.87,1.19-1.6,1.14"/>
      <path class="cls-5" d="M71.12,224.04c.6-.1,1.35-.21,1.92-.55-.09-.18-.17-.37-.25-.57-.49.35-1.28.43-1.8.52-.39.07-.26.67.13.6M71.8,225.24c.62-.11,1.42-.21,1.99-.59-.13-.15-.26-.31-.38-.49-.49.32-1.25.39-1.75.47-.39.07-.26.67.13.61"/>
      <path class="cls-19" d="M162.2,231.84l.3-.05c.83-.22,1.32-1.07,1.09-1.9l-18.05-65.93c-.22-.82-1.07-1.32-1.9-1.1-.83.22-1.32,1.07-1.09,1.9l18.05,65.93c.19.73.87,1.19,1.6,1.14"/>
      <path class="cls-20" d="M81.82,229.75c-5.23,1.34-10.95-.7-15.99-2.49,0,.22,0,.37,0,.4-.12,1.39,1.26,1.27,2.47,1.73.77.29,1.32-.35,2.06-.21.92.16,1.53,1.29,2.23,1.54,2.2.79,9.12,2.53,9.23-.96"/>
      <path class="cls-14" d="M75.24,212.8c-1.31-6.58-6.92-38.43-11.2-45.34-2.97-4.8-6.27-4.74-10.18-8.73-4.12-4.2-8.11-8.65-13.2-11.7-2.05-1.23-4.08,1.89-2.03,3.12.22.13.43.28.65.42-.81.11-1.54.66-1.76,1.36-.23-.21-.46-.42-.69-.63-1.74-1.59-4.48.8-2.75,2.5.7.69,1.39,1.4,2.08,2.1-.95.19-1.7,1.06-1.59,2-1.33.3-1.8,2.47-.55,3.45h0c-.87.59-1.29,1.76-.3,2.65,4.04,3.64,15.93,13.96,18.48,16.92,1.83,7.33,7.1,34.03,8.06,35.28.89,1.16,2.01.98,3.36.91,2.39-.11,6.39-.36,8.78-.56,1.06-.09,1.93-.26,2.43-.95.45-.64.59-1.91.41-2.8"/>
      <path class="cls-8" d="M103.21,99.13c-.47.51-2.66,3.01-3.42,2.46-.33-.24-.52-1.41-.66-1.8-.23-.69-.45-1.38-.66-2.08-.07-.24-.34-.26-.5-.15l-.27.03c-.09-.22-.42-.33-.54-.06-.47,1.07-1.11,2.05-1.82,2.98-.21.28-.68.74-1.09.55-.18-.08-.51-.62-.63-.78-.42-.54-.79-1.11-1.15-1.7-.21-.34-.74-.03-.54.31.47.77.98,1.5,1.55,2.2.37.46.75.97,1.39.71.53-.22.89-.82,1.21-1.27.48-.67.93-1.36,1.31-2.09-.74,3.41.12,6.79.75,10.17.84,4.52.4,8.77-.68,13.21-.95,3.89-2.51,7.93-2.51,11.98,0,2.04.59,4.02.77,6.04.22,2.43.04,4.84-.46,7.22-.08.39.52.56.6.17.41-1.95.63-3.93.57-5.92-.06-2.15-.61-4.21-.8-6.34-.39-4.34,1.41-8.82,2.43-12.98.91-3.73,1.54-7.53,1.03-11.36-.53-4.06-2-8.11-1.05-12.2.28.89.57,1.77.88,2.65.17.48.31,1.13.88,1.25.59.13,1.18-.41,1.6-.73.81-.6,1.54-1.29,2.23-2.03.27-.29-.17-.73-.44-.44"/>
      <path class="cls-14" d="M31.93,155.24l-.6-8.44c-.56-.92-1.46-1.17-2.28-.99-.17-1.07-.36-2.14-.72-3.17-.86-2.48-3.34-3.83-5.9-3.81-.62,0-1.16.12-1.62.33l.03-.07c1.07-2.58-3.1-3.79-4.16-1.24-3.48,8.34-9.65,18.07-5.91,27.27,3.29,8.1,17.2,11.05,25.39,16.48-2.72,8.24-5.97,21.35-8.66,29.14-.92,2.67-.98,1.91,2.04,3.31,4.07,1.89,11.79,2.71,12.58,2.92,1.19.32,1.62-1.32,1.99-2.57,1.92-6.43,2.34-8.83,4.2-15.28,1.79-6.22,5.63-14.93,5.51-21.45-.14-7.93-18.96-17.64-21.88-22.45"/>
      <path class="cls-19" d="M59.69,111.07c-.56-3.37-3.61-5.44-4.14-8.65-.47-2.91.24-5.63-1.53-8.21-.89-1.31-3.05-.07-2.14,1.25,1.5,2.19.86,4.67,1.16,7.14l.03.19c-.26-.15-.58-.19-.88-.14l-.07-.45c-.21-1.3-2.16-1.09-2.41.06-.69-.15-1.58.35-1.65,1.2l-.02.23c-.4.17-.72.53-.73,1.08-.03,1.04.17,1.8.63,2.72.22.43.57.62.93.62.3,1.71.61,3.42.91,5.13.15.84,1.09,1.01,1.75.77.06.39.13.78.19,1.17.16.97,1.33,1.1,1.99.6.09.31.29.53.55.66.09.31.31.57.61.72-1.42.73-3.19,1.06-4.57,1.44-1.54.42-.93,1.51.62,1.09,2.31-.63,5.53-1.14,7.24-2.99,1.62-1.76,1.91-3.38,1.54-5.62"/>
      <path class="cls-19" d="M54.23,89.34c.79-3.55,2.91-6.07,1.91-9.88-.76-2.91-2.69-5.07-5.34-6.41-1.42-.72-2.33,1.59-.92,2.31,1.98,1,3.32,2.72,3.83,4.7-.55-.08-1.12.13-1.31.74-.14.46-.25.92-.35,1.37-.05.2-.11.4-.16.59-.24.12-.44.32-.56.66-.28.78-.57,1.56-.86,2.33-.57-.37-1.42-.29-1.81.54-.59,1.26-1.18,2.53-1.78,3.79.22-1.35-1.89-1.78-2.39-.54-1.74,4.36-3.43,8.71-4.65,13.25-.21.78.15,1.58,1.02,1.69.3.04.56.02.8-.03.48.18,1.05.1,1.39-.4.22-.31.41-.64.59-.98.09.22.24.4.44.53,0,.3,0,.6.03.9.08,1.18,1.58,1.23,2.22.54l.14-.16-.02.04c-.44,1.29,1.08,2.18,2.01,1.33.27.07.55.07.82-.04,2.59-1.15,4.6-3.2,5.52-5.92,1.32-3.9-1.4-7.23-.57-10.97"/>
      <path class="cls-2" d="M51.68,110.95c-.14-1.91-3.29-9.63-14.12-12.04-6.96-1.55-13.72-.62-18.56,1.8-2.98,1.49-3.56,4.81-4.09,8.27-.11.38,1.07,6.63.56,10.68-.8,6.49-5.14,24-.91,25.45,1.52,1.72,10.79,3.47,10.83,3.28.76.66,13.32.57,13.85-.77.59-.63.97-4.22,2.48-8.53,1.42-4.05,3.97-8.72,5.15-12.37,1.03-3.2,1.78-5.57,1.88-5.92,1.19-3.94,4.39-7.68,2.93-9.85"/>
      <path class="cls-16" d="M17.68,113.57c-1.14.09-5.23-2.96-5.83-1.55-2.1,4.95-4,10.05-5.04,15.45-.56,2.9-2.4,10.15.74,11.82,3.03,1.61,4.88-4.92,5.69-7.15,2.01-5.57,3.73-11.3,5.42-17.01.21-.71-.32-1.61-.98-1.56"/>
      <path class="cls-19" d="M46.1,165.71c-.82-.22-.68-2.7-.9-1.87l-17.7,63.89c-.97.36-1.68,1.26-1.75,2.36-.1,1.5,1.04,2.79,2.53,2.88,1.5.1,2.79-1.04,2.88-2.53.05-.74-.21-1.43-.65-1.95l17.41-63.25c.22-.83-.99.69-1.81.47"/>
      <path class="cls-19" d="M49.83,227.11l-18.5-67.14c-.22-.83-1.07-1.32-1.9-1.1-.83.22-1.32,1.07-1.1,1.9l18.49,67.1c-.45.52-.7,1.21-.65,1.95.1,1.5,1.39,2.63,2.88,2.53,1.49-.1,2.63-1.39,2.53-2.88-.07-1.1-.79-2-1.75-2.36"/>
      <path class="cls-16" d="M54.45,77.92c-1.33-2.67-4.55-3.53-7.64-4.17-.34-.21-.78-.32-1.14-.26-4.34.76-7.15,4.02-7.72,8.05-.32,2.22-1.09,7.54,2.21,11.89.92,1.21,3.23,2.18,4.65,2.86,3.28,1.56,5.82-.65,6.37-2.02.82-2.05,1.4-3.72,2.06-5.82.55-1.74,1.21-3.59,1.44-5.44.19-1.53.51-3.62-.22-5.09"/>
      <rect class="cls-16" x="31.18" y="89.27" width="17.16" height="8.39" transform="translate(-61.54 100.95) rotate(-71.18)"/>
      <path class="cls-20" d="M112.36,74.87l.08-.03c2.53-1.44-.63-3.64-2.13-3.87l-.16-.03c-.03-.17-.12-.34-.2-.54-.79-2.09-6.14-1.93-6.88-.83-1.6-1.25-7.01.72-8.68,2.43-1.94,1.99-2.22,4.53-2.22,4.65-.1,1.74.25,3.39.66,5.08.38,1.57.62,3.3,1.23,4.79.4.98,1.21,1.48,2.29,1.51.88.02,1.01-.45,1.21-1.26.17-.69.12-1.44.3-2.11.19-.74.54-1.57,1.43-1.62.19-.01.52.18.71.16.71-.1.9-.92.99-1.5.07-.43.07-.86.08-1.3.03-.3.05-.6.05-.9.02-.17.04-.34.08-.5.14-.57.42-1,.8-1.34.28-.18.56-.36.85-.53.53-.22,1.11-.34,1.7-.37,1.67-.09,3.34.22,5,.25h.04c1.87.29,3.46.15,3.26-1.33-.03-.23-.22-.52-.48-.79"/>
      <path class="cls-14" d="M100.37,83.24c-.94-.66-2.2-.34-2.83.59-.63.93-.57,2.19.04,3.12.6.9,1.86,1.58,2.63.44.46-.69.62-1.88.24-2.7.37-.37.48-1.05-.08-1.44"/>
      <path class="cls-16" d="M193.68,158.1v-6.1c.01-5.08-43.1-9.2-96.28-9.2S1.96,146.85,1.13,151.86h-.02v6.51h.02c.25,5.06,43.26,9.15,96.29,9.15s96.29-4.12,96.29-9.2l-.03-.22Z"/>
      <path class="cls-20" d="M193.71,158.32l-.03-.22v-5.89c-.26,4.32-38.88,8.93-96.28,8.93S1.11,156.5,1.11,152.17h0s0,6.2,0,6.2h.02c.26,5.06,43.26,9.15,96.29,9.15s96.29-4.12,96.29-9.2"/>
      <path class="cls-4" d="M151.9,154.74l-5.02-.57c-.74-.09-1.27-.75-1.19-1.5l.43-3.76c.09-.74.75-1.28,1.5-1.19l5.02.57c.74.09,1.27.76,1.19,1.5l-.43,3.76c-.08.74-.75,1.28-1.5,1.19"/>
      <path class="cls-2" d="M42.57,98.26c-1.04-.23-7.87-2.32-8.91-2.54-.34-.07-3.98,11.87-3.4,12.08.46.16,7.43-3.84,8.4-1.5.13.3.55.43.82.32.2.33.75.32.94.01.17.24.57.22.82.02.21,0,.42-.11.49-.33l.1-.27-.02-.34c.03-.24.07-.49.12-.73.04-.19-.04-.34-.16-.46v-.19s-.03-.13-.03-.13c.06-.23.12-.46.18-.68l.16-.32c.02-.19.04-.39.06-.59l.29-.16c.21-.88.57-2.6.74-3.49.06-.35-.15-.6-.61-.7"/>
      <path class="cls-16" d="M88.05,149.09c-1.28-1.06-2.67-2.01-4.35-2.27-1.82-.28-3.39.56-5.12.5-5.4-6.06-12.4-13.04-16.95-20.73-2.56-4.33-4.62-8.95-7.16-13.29-.6-1.03-2.21-.1-1.61.94l.07.13-.32.32c-.23-.35-.47-.7-.71-1.05-.68-.97-2.19-.13-1.61.94.44.82.89,1.63,1.33,2.45-.73-1.1-1.47-2.21-2.2-3.31-.66-.99-2.19-.12-1.61.94.43.79.88,1.57,1.34,2.35-.36.24-.55.7-.28,1.2l.12.21c-.1.18-.13.39-.06.62-.27-.41-.55-.82-.82-1.23-.64-1-2.25-.07-1.61.94,2.63,4.11,10.14,13.86,11.53,15.4,1.51,1.67,4.25,4.76,5.89,6.36,3.58,3.47,7.99,5.84,12.33,8.33.08.68.22,1.37.69,1.82.16.15,1.62,1.05,2.36,1.19,1.4.24,3.24.48,4.54-.22.28-.15.14-.57-.16-.58-.2,0-2.14-.39-3.25-.49.01-.01,3.46-.17,4.77.01,1.16.16,1.89.16,2.83-.57.25-.2.24-.68,0-.88"/>
      <path class="cls-2" d="M53.55,109.74c-2.9-3.24-4.44-5.04-8.03-7.47-.99-.67-1.91,2.52-.92,3.18.89.6,1.8,2.55,2.53,4.65h0c-.03.76-.06,1.51-.09,2.26-.2,0-.42.09-.56.28-.47.67-.77,1.38-.91,2.11-.36.01-.73.31-.63.77.11.47.23.92.36,1.37-.74-.39-1.83.4-1.26,1.26,1.34,2.01,4.13,7.61,5.84,7.66,1.61.05,8.25-5.41,9.16-6.41.77-.85-4.16-8.18-5.49-9.66"/>
      <path class="cls-2" d="M25.97,98.81c-4.36.64-8.2,1.79-11.4,5.1-3.19,3.3-5.97,7.14-7.5,11.49-.19.55.14,1.1.54,1.4,2.56,1.95,8.2,4.18,11.28,4.57.82.1-.46-2.06-.6-2.76l-.08-.4c-.15-.78,4.88-16.5,8.38-17.02,1.5-.22.86-2.61-.63-2.39"/>
      <path class="cls-19" d="M55.71,79.94c-.2-.41-.45-.78-.73-1.1.16-.17.24-.43.11-.72-.36-.85-.79-1.67-1.43-2.35-.59-.63-1.35-1.11-1.99-1.7-.04-.39-.26-.77-.71-.98-5.77-2.71-12.94-2.94-16.44,3.32-1.69,3.02-1.54,6.69-2.72,9.9-1.41,3.87-7.14,8.36-6.25,11.83.08.3,2.13.31,3.21.2,1.45-.14,2.83.26,4.23.36,1.13.08,1.97.21,3.06-.25,2.33-1,3.45-3.4,4.08-5.71.44-1.64-.17-3.45.19-5.11.29-1.34.69-2.7,2.13-3.29.59-.24,2.21.06,2.82-.24.92-.44,1.38-1.18,1.92-2.01,1.48-2.25,5.96-5.43,7.73-2.01.36.71,1.14.59.79-.14"/>
      <path class="cls-15" d="M50.7,170.41c-.27-.29-.71.15-.44.44,4.67,5.06,2.26,11.66.8,17.49-.1.39.5.55.6.16,1.53-6.09,3.91-12.83-.96-18.1"/>
      <path class="cls-16" d="M43.55,84.66c-.8-.83-2.09-.75-2.89.04-.8.8-.97,2.04-.55,3.07.41,1,1.53,1.9,2.49.93.58-.59.96-1.73.75-2.61.44-.3.67-.94.19-1.43"/>
      <path class="cls-19" d="M46.94,77.28c-1.4,1-2.55,2.24-3.43,3.72-.2.34.33.66.54.31.82-1.38,1.9-2.56,3.21-3.5.32-.23.01-.77-.31-.54"/>
      <path class="cls-19" d="M43.85,76.93c-1.02.77-1.63,1.85-2.21,2.97-.19.35.35.67.53.31.52-1.01,1.06-2.05,1.99-2.75.31-.24,0-.78-.31-.54"/>
      <path class="cls-19" d="M55.63,106.89c-.84-1.46-1.83-3.24-1.94-4.96-.03-.4-.65-.4-.62,0,.12,1.83,1.12,3.71,2.02,5.27.2.34.74.03.54-.31"/>
      <path class="cls-19" d="M36.37,93.51c-.59,1.02-1.52,1.75-2.64,2.09-.38.12-.22.72.16.6,1.28-.39,2.33-1.22,3.01-2.38.2-.35-.33-.66-.54-.31"/>
      <path class="cls-19" d="M32.22,93.98c-1.18,1-2.74.83-4.16.64-.39-.05-.56.54-.16.6,1.68.23,3.39.36,4.76-.8.3-.26-.14-.69-.44-.44"/>
      <path class="cls-12" d="M40.33,99.2v.05c0,.8,1.24.8,1.24,0v-.05c0-.8-1.24-.8-1.24,0"/>
      <path class="cls-16" d="M37.51,145.28c-.09-.21-.23-.41-.39-.6.03-.21-.03-.43-.23-.59-1.24-1.01-2.55-2.57-4.26-2.62-1.8-.05-3.34.58-5.01.77-5.62-2.77-11.06-5.87-16.31-9.29-.66-.43-4.14,6.31-3.68,6.59,2.75,1.66,5.92,2.44,8.97,3.36,2.68.8,5.38,1.52,8.12,2.08.81.56,1.62,1.21,2.56,1.44,1.25.3,2.36-.19,3.58-.41,1.94-.35,3.08.73,4.85.67.73-.03,1.3-.2,1.77-.77.14-.17.11-.43.03-.61"/>
      <path class="cls-7" d="M107.49,154.47l-2.52-4.37c-.37-.65-.15-1.47.49-1.85l3.28-1.9c.65-.37,1.47-.15,1.85.5l2.53,4.37c.37.65.15,1.47-.5,1.85l-3.28,1.9c-.65.37-1.47.15-1.85-.5"/>
      <path class="cls-8" d="M124.34,155.91l-5.02.52c-.74.08-1.41-.47-1.48-1.21l-.39-3.77c-.08-.74.47-1.41,1.21-1.49l5.02-.51c.74-.08,1.41.47,1.48,1.21l.39,3.77c.08.74-.47,1.41-1.21,1.48"/>
      <path class="cls-19" d="M60.26,148.77l3.92-3.18c.58-.47,1.43-.38,1.9.2l2.38,2.94c.47.58.38,1.43-.2,1.9l-3.92,3.18c-.58.47-1.43.38-1.9-.2l-2.38-2.94c-.47-.58-.38-1.43.2-1.9"/>
      <rect class="cls-19" x="218.92" y="180.6" width="5.35" height="26.97" transform="translate(7.71 396.64) rotate(-84.66)"/>
      <rect class="cls-19" x="234.86" y="190.88" width="31.74" height="5.35" transform="translate(-22.34 33.05) rotate(-7.22)"/>
      <path class="cls-19" d="M227.53,230.22l-.3-.05c-.83-.22-1.32-1.07-1.09-1.9l11.6-43.16c.22-.83,1.07-1.32,1.9-1.1.83.22,1.32,1.07,1.1,1.9l-11.6,43.16c-.19.72-.87,1.19-1.6,1.14"/>
      <path class="cls-19" d="M199.49,231.17l-.3-.05c-.83-.22-1.32-1.07-1.09-1.9l11.6-43.16c.22-.83,1.07-1.32,1.9-1.1.83.22,1.32,1.07,1.09,1.9l-11.6,43.16c-.19.72-.87,1.19-1.6,1.14"/>
      <path class="cls-9" d="M245.01,139.14c-.08-1.02-.73-1.67-1.5-1.94-.42-.24-.93-.34-1.52-.22-22.49,4.61-37.47,11.24-41.84,46.79-.06.46,9.67,4.27,10.77,4.34,7.72.53,2.98-1.09,10.65-1.95,6.07-.68,13.15-1.62,18.01-5.7,4.88-4.09,4.84-11.2,5.35-17.06.71-8.07.7-16.18.07-24.26"/>
      <path class="cls-9" d="M277.8,140.71c-1.09-6.5-5.92-10.86-12.19-12.41-12.18-3.02-24.38,3.39-30.43,13.95-1.26,2.21.78,4.26,2.71,4.17-1.06,1.84-1.95,3.78-2.68,5.76-.78,2.15,1.1,3.51,2.91,3.37-1.36,1.96.38,3.81,2.31,3.93-.82,1.11-1.63,2.22-2.42,3.35-1.79,2.58,2.35,5.82,4.38,3.38.21-.25.41-.5.62-.75,1.04,1.09,2.86,1.52,4.02.17,2.61-3.03,5.16-6.1,7.64-9.23.87,1.43,3.06,2.19,4.46.72,1.97-2.07,3.81-4.25,5.52-6.52.42.31.82.5,1.22.61.42,2.03,2.92,3.54,4.57,1.54.52-.63,1.18-1.52,1.83-2.57-.42,3.47-1.21,6.92-2.04,10.21-.88,3.48,4.5,4.97,5.38,1.48,1.68-6.66,3.34-14.28,2.19-21.16"/>
      <path class="cls-9" d="M250.55,183.21c-6.17-1.21-12.86-.5-19.2-.54-.44-.65-1.16-1.12-2.19-1.13-6.94-.07-13.89-.14-20.83-.21h-.06c.18-.52.36-1.04.54-1.56,1.19-3.4-4.2-4.86-5.38-1.48-1.45,4.14-4.26,9.33,1.12,11.74,4.77,2.13,37.81,6.4,46.15.37,1.75-1.27,2.41-6.69-.16-7.19"/>
      <path class="cls-15" d="M188.12,114.12c-1.43-1.8-3.51-2.82-5.14-4.41-1.73-2.2-2.15-5.12-3.16-7.72-1.18-3.05-2.09-3.58-4.98-2.27-1.13.26-1.82.64-2.48,1.59-.3.44.19.95.65.85,1.29-.31,2.6-.99,3.58.69.43.74.29,2.37.34,3.26.06,1.21.12,2.46.69,3.57.46.89,1.05,1.45,1.9,1.96,1.84,1.09,3.24,1.96,4.68,3.57.37.41.91.06.96-.36l.28-.35c.2.18.39.37.6.54.3.26.64.17.82-.04l.24-.06.34.14c.46.29,1.08-.42.67-.94"/>
      <rect class="cls-15" x="164.49" y="221.74" width="14.42" height="6.35" transform="translate(-106.23 278.04) rotate(-63.47)"/>
      <path class="cls-9" d="M174.76,232.81l-.24-4.22c.03-.19.04-.61-.06-.72-.27-.3-.79-.23-1.35-.26-2.64-.14-3.97,1.04-6.56-.2-.15-.07-.31-.04-.55.11-2.18,1.41-4.26,2.93-6.66,3.93-1.61.67-3.52,1.3-5.21,2.12-.68.33-1.33,1.61-.64,2.3.4.4,10.8.07,12.82-.54.8-.24,1.36-.94,2.12-.56.37.18.29.45.78.59.89.25,4.52,0,4.99-.42.48-.43.47-1.56.56-2.13"/>
      <path class="cls-11" d="M247.85,150.29c-.23-2.36-3.95-2.38-3.72,0,.04.45.09.9.13,1.36-.86-.06-1.77.38-1.95,1.32-.07.36-.15.71-.22,1.07-.02-1.08-.97-1.94-1.9-1.99-.49-.42-1.17-.61-1.8-.43-.49-.46-1.22-.69-1.91-.49-.19-.17-.41-.3-.64-.39-.5-.34-1.15-.47-1.73-.26-.49-.83-1.54-1.36-2.52-.72-2.66,1.75-5.29,3.55-7.88,5.41-.4.02-.81.17-1.17.54l-.17.18c-.15-1.39-2.2-4.96-3.41-3.64-4.39,4.81-25.67,20.8-27.71,22.6-2.24,1.98-3.52,4.47-4.76,7.15-6.25,13.57-10.83,23.72-17.07,37.29-.59,1.29.11,2.74,1.6,2.8,3.26.13,3.08.18,6.34.31,1.91.08,4.03.49,5.58-.91,1.48-1.33,15.27-32.69,18.86-35.09,3.72-2.48,36.47-8.1,40.1-10.69,8.35-5.95,6.84-16.43,5.96-25.42"/>
      <path class="cls-15" d="M231.12,88.8l.06-.05c.54-.4.38-1.4-.23-1.7.28-.29.56-.58.84-.86.73-.71.15-1.68-.69-1.82.05-.41.12-.81.16-1.22.15-1.19.61-2.67.23-3.85-.16-.48-.58-.75-1.08-.81.26-.43.51-.86.75-1.3.34-.62-.11-1.57-.84-1.67l.09-.17c.34-.8-.25-1.7-1.09-1.65l.2-.3c.11-.18.15-.39.13-.59,1.29-.1,1.18-2.09-.22-2.17-3.4-.18-7.18-.37-9.36,2.27-1.1,1.33-1.35,3.59-1.58,5.22-.28,1.98-.13,4.07-.07,6.02.08,2.35.19,4.71.47,7.05.15,1.24.26,2.33,1.4,3.11,1.29.89,2.77.54,4.17.21,1.53-.37,4.11-.64,5.25-1.74.44-.42.39-.97.07-1.38.52-.15,1.04-.33,1.56-.47,1.25-.35.88-2.07-.24-2.14"/>
      <rect class="cls-15" x="227.77" y="89.49" width="10.17" height="14.42" transform="translate(-11.22 33.44) rotate(-8.02)"/>
      <rect class="cls-15" x="191.19" y="199.71" width="6.21" height="14.42" transform="translate(-10.95 10.86) rotate(-3.11)"/>
      <path class="cls-11" d="M219.94,157.48c-.63-.34-1.24-.8-1.77-1.29h-.01c-.89-.01-1.64-.42-2.18-1.03-.32.14-.57.24-.71.26-6.13,1.15-26.76,7.78-29.04,12.74-1.11,2.42-1.09,5.07-1.15,7.7-.07,3.4.29,22.33.68,29.29.04.67.54,1.25,1.24,1.24,2.23-.02,9.35-2.3,10.19-3.05.64-.58.68-1.37.77-2.16.23-2.18,1.35-26.65,1.96-26.87,3.22-1.14,8.48-4.09,11.75-5.05.67-.2.92-.77.86-1.32,1.27-.59,2.52-1.2,3.77-1.84.65-.33.73-1.02.48-1.56.31-.15.62-.29.93-.45,1.06-.53,2.07-3.95,3.24-4.32.43-.14.58-.94.57-1.93-.55,0-1.1-.11-1.59-.37"/>
      <path class="cls-9" d="M200.07,215.88l-1.55-3.93c-.04-.19-.17-.58-.31-.65-.36-.18-.82.06-1.35.23-2.52.8-3.51,2.44-6.38,2.18-.16-.01-.31.07-.48.29-1.55,2.09-2.96,4.25-4.85,6.03-1.27,1.2-2.84,2.46-4.13,3.82-.52.55-.67,1.98.21,2.38.52.24,10.14-3.74,11.81-5.02.67-.51.94-1.35,1.79-1.27.41.04.43.31.94.27.92-.08,4.23-1.6,4.52-2.15.3-.58-.11-1.63-.22-2.19"/>
      <path class="cls-19" d="M240.65,74.58c-.05-.8-.04-1-.39-1.67.97-.67,1.19-2.57-.04-3.3-.59-.35-1.38-.25-2-.52l-.2-.09c-.2-.15-.42-.26-.65-.35-.3-.17-.61-.34-.94-.45-1.39-.47-2.74-.21-4.14.02-2.92.47-5.69-1.46-8.45.24-.47.29-.86.7-1.32,1.01-.51.34-1.04.49-1.44.98-.61.73-1.25,1.59-.98,2.47.71.57,3.8,5.63,4.32,6.19.67.72,1.59.37,2.36.91,1.32.94.82,2.97.95,4.33.15,1.62.81,3.25,2.05,4.33,1.28,1.13,2.81,1.07,4.42.93.7-.06,2.18.02,2.71-.43.39-.33.41-1.1.48-1.58.11-.68.15-1.39.33-2.06.23-.84.69-1.49,1.09-2.23.37-.69.58-1.39.69-2.15.21-1.41.42-2.69.81-4.06.23-.83.42-1.64.36-2.51"/>
      <path class="cls-15" d="M219.57,87.35v-.06s-.09-.17-.09-.17l.08-.13-.14-.34v-.11s-.12-.22-.12-.22l-.15-.09.03-.11c.07-.21-.1-.36-.28-.38.1-.3.19-.61.29-.9.08-.22-.12-.38-.31-.38l.08-.31-.08-.27.14-.39c.09-.25-.18-.42-.39-.37l.42-1.27c.12-.36-.47-.55-.59-.19-.32.97-.64,1.95-.97,2.92-.21.63-.66,1.43-.53,2.12.16.86,1.68,1.3,2.43.95l.16-.32Z"/>
      <path class="cls-19" d="M164.08,230.23c-.46-.18-.92-.38-1.38-.57-.22.14-.44.27-.66.4h.02c0,.46-.01.91-.03,1.37-.01.4.6.44.62.04v-.1s0,0,0,0c0-.34.01-.69.02-1.04.4.16.79.33,1.19.49.37.15.58-.44.21-.58M166.43,228.75c-.47-.18-.92-.38-1.39-.57v-.03c-.22.14-.44.29-.65.43h.03c0,.46-.01.92-.03,1.37,0,.4.61.44.62.04v-.1s0,0,0,0c0-.35.01-.69.02-1.04.4.16.79.33,1.19.49.37.14.58-.44.21-.59"/>
      <path class="cls-19" d="M174.42,233.3c-6.84,1.4-14.2,1.49-21.18,1.5-.09.39-.04.78.25,1.07.4.4,10.8.08,12.82-.54.8-.24,1.36-.94,2.12-.56.37.18.29.45.78.59.89.25,4.52,0,4.99-.42.38-.33.45-1.08.51-1.67l-.29.03Z"/>
      <path class="cls-19" d="M189.16,217.26c-.5,0-.99-.03-1.49-.05-.16.2-.32.4-.48.6h.02c.15.43.3.85.45,1.28.13.38.72.21.6-.17l-.03-.1h0c-.11-.34-.23-.66-.34-.99.43.01.86.04,1.29.04.4,0,.39-.61,0-.62M190.84,215.06c-.5,0-1-.04-1.5-.05v-.03c-.16.21-.32.42-.47.63h.03c.15.43.3.85.44,1.28.13.38.72.21.6-.17l-.03-.09h0c-.11-.34-.23-.66-.34-.99.43.01.86.04,1.29.05.4,0,.39-.61,0-.62"/>
      <path class="cls-19" d="M199.92,216.57c-5.94,3.69-12.81,6.31-19.36,8.74.05.39.23.75.6.92.52.24,10.16-3.67,11.84-4.94.67-.51.95-1.35,1.79-1.26.41.04.43.32.94.28.92-.07,4.24-1.57,4.54-2.13.24-.44.05-1.17-.1-1.74l-.26.13Z"/>
      <path class="cls-8" d="M197.92,172.68c0,6.1-.12,12.2-.34,18.29-.01.4.61.4.62,0,.23-6.09.34-12.19.34-18.29,0-.4-.62-.4-.62,0"/>
      <path class="cls-8" d="M197.32,171.33c-.97-1.01-2.03-1.93-3.15-2.76-.32-.24-.63.3-.31.54,1.08.8,2.09,1.69,3.03,2.66.28.29.72-.15.44-.44"/>
      <path class="cls-8" d="M197.71,169.97c-.36-.73-.77-1.43-1.25-2.09-.23-.32-.77-.01-.54.31.47.66.89,1.36,1.25,2.09.18.36.71.04.54-.31"/>
      <path class="cls-8" d="M224.25,162.45c-8.41,2.24-16.63,5.14-24.59,8.67-.36.16-.05.7.31.54,7.91-3.5,16.08-6.38,24.44-8.61.39-.1.22-.7-.16-.6"/>
      <path class="cls-8" d="M189.33,205.57c-.84.31-1.7.58-2.58.78-.82.18-1.57.6-1.91-.55-.09-.32.02-.87.03-1.2.05-2.11.11-4.21.16-6.32.11-4.11.21-8.22.32-12.33.01-.4-.61-.4-.62,0-.14,5.31-.27,10.63-.41,15.94-.03,1.28-.18,2.63-.1,3.91.02.27.01.56.11.81-1.42,1.94-2.35,4.26-3.42,6.4l-3.47,6.96c-.18.36.36.67.54.31,1.16-2.32,2.31-4.64,3.47-6.96,1.04-2.08,1.95-4.33,3.3-6.24,1.16.67,3.76-.55,4.75-.91.37-.13.21-.73-.16-.6"/>
      <path class="cls-2" d="M255.73,106.76c-1.33-4.54-6.57-6.46-10.51-7.45-1.76-.44-3.34-.76-5-.71-.21-.81-.52-1.59-1.05-2.24-.87-1.08-1.87-.7-3.13-.45-1.36.27-3.08.84-4.43,1.3-.77.26-.82,1.26-1.06,2.05-.01-.21-.02-.41-.03-.62-.09-1.04-.23-1.16-1.24-1.4-.59-.14-1.64-.59-2.15-.09-.28.27-.39.88-.52,1.22-.24.61-.47,1.22-.71,1.83-2.4,1.49-6.76,2.91-11.33,6.61-2.26,1.82-4.66,5.37-6.45,7.59-1.52,1.89-3.01,3.8-4.48,5.73-.95-.58-2.06-.98-3.27-1.36-2.6-.82-3.51-2.19-4.99-4.31-.72-1.04-1.55-2.08-2.75-2.59-1.34-.58-2.61.02-3.92-.41-1.11-.37-1.16-.61-2.74-1.58-.54-.33-.77-.65-1.36-.19-1.69,1.3-3.01,3.86-3.68,5.06-.25.45,1.28,1.68,1.63,1.91,2.06,1.37-.34,4.9,1.11,6.65,1.07,1.29,2.66,1.95,4.08,2.74,3.06,1.72,4.32,5.63,7.56,6.93.68.27,3.94,3.83,10.44,3.45,2.41-.14,4.9-2.5,7.02-5.07.57,3.22,1.12,6.45,1.27,9.48.22,4.31.34,6.76,2.22,10.62.19,1.23.09,2.44.42,3.64.15.54,16.71,1.97,22.74,1.41,4.21-.39,9.46.64,9.07-3.39-.22-2.28-.75-3.38-.75-6.79,0-1.17,3.08-12.87,4.64-18.98,1.29-5.06,4.88-15.38,3.36-20.58"/>
      <path class="cls-9" d="M277.41,144.72c-.08-1.02-.73-1.67-1.5-1.94-.42-.24-.93-.34-1.52-.22-22.49,4.61-40.34,22-45.61,44.34-.11.45-.07.85.05,1.2-.1.23-.18.49-.2.78-.04.56-.08,1.12-.12,1.67-.09,1.23-2.87,2.67-1.77,2.74,7.72.53,19.53-.22,27.21-1.08,6.07-.68,13.18-2.1,18.04-6.17,4.88-4.09,4.84-11.21,5.35-17.07.71-8.07.7-16.18.07-24.26"/>
      <path class="cls-11" d="M240.56,152.79c-6.16.28-12.24-.47-18.37-.93-1.25-.09-4.56-.41-5.84-.16-.64.13-.44,3.09-.88,4.21-.29.74.9,1.06,1.2.33l.11-.31.16.1h0c0,.56.68.82,1.06.45.33-.06.66-.12.99-.18,1.18.13,2.37.23,3.56.31.06.24.25.46.57.47,3.48.12,6.96.12,10.45.07.1.13.25.22.45.21.92-.05,1.82-.14,2.73-.28h0l.16-.02.26-.13c.28-.04.56-.07.84-.11.16.25.52.34.81.22-.21.36-.46.66-.76.84-.69.4-.06,1.47.63,1.07,1.57-.92,2.1-3.75,2.48-5.37.09-.37-.18-.81-.6-.79"/>
      <path class="cls-15" d="M249.87,149.25l-.18.16c.17-.4-.12-.77-.48-.83-.13-.37-.65-.57-1.03-.26-.28.23-.56.47-.84.71l.24-.41c.37-.7-.7-1.33-1.07-.62-1.32,2.53-3.97,3.64-5.71,5.81-1.71,2.14-2.16,5.4-2.39,8.05-.07.8-.24,1.99.89,2,.28,0,.4-.1.54-.24.57.52,1.25.85,2.09.57,1.34-.45,1.43-2.08,1.9-3.2.91-2.15,2.52-3.47,3.84-5.29,1.31-1.81,1.21-3.97,3.07-5.56.61-.52-.27-1.39-.88-.88"/>
      <path class="cls-2" d="M268.84,133.82c-.42-1.16-.46-.75-1.06-1.72-.83-1.34-1.43-2.23-1.65-3.9-.18-1.34-.44-2.5-1.15-3.67-.89-1.47-2.14-2.58-2.89-4.15-.23-.47-.42-.97-.6-1.47-.48-2.96-1.26-5.88-2.5-8.61-1.2-2.65-3.37-6.54-6.29-7.61l-.39-.06c-1.58-.75-2.93,1.74-1.35,2.79.17.11.34.22.51.34.34.22.69.29,1,.23.94.59,1.78,1.69,2.48,2.93-.21-.06-.42-.07-.63-.03-.51-.86-1.1-1.61-1.78-2.12-.84-.62-2.01.06-2.28.93l-.05.16c-.25.82.3,1.64,1.07,1.9.82,1.02,1.41,3.38,1.8,4.37.09.23.18.47.26.71l-.16.3c-.25-.33-.51-.64-.81-.95-.88-.93-2.18-.34-2.59.68-.37.92-.49,1.9-.47,2.91-.47,0-.93.17-1.22.5-.99-.46-2.55.37-2.26,1.81.52,2.57,2.28,4.02,3.35,6.43,1.14,2.58,3.51,4.55,4.16,7.32v.06c-2.03,2.49-3.65,4.54-6.19,6.94-.57.54-.03,1.48-.44,2.38-.42-.17.41,3.15.26,3.01-.48-.48-1.4.17-.97.75.2.28-1.95.34-1.55,1.6.23.71,1.25,1.15,1.83,1.51.36.22,1.52,1.13,2.78,1.58,1.51.54,1.56.14,2.35-.26,1.11-.55,1.89-1.37,3.18-1.55.92-.13,3.46.54,4.38.36,1.19-.23,2.15-.79,2.96-1.69.38-.42.63-.86.84-1.32l.31-.32c.77-1.06,1.27-2.2,1.55-3.39.85-.89,1.86-1.31,2.9-2.48,1.59-1.77,2.09-4.99,1.28-7.21"/>
      <path class="cls-16" d="M240.59,156.07c-.72,2.26-1.08,4.55-1.08,6.92,0,.4.62.4.62,0,0-2.31.35-4.56,1.06-6.76.12-.38-.48-.54-.6-.16"/>
      <path class="cls-16" d="M242.64,157.06c-.92,1.81-1.41,3.73-1.46,5.76,0,.4.61.4.62,0,.05-1.92.51-3.73,1.38-5.44.18-.35-.36-.67-.54-.31"/>
      <path class="cls-8" d="M238.96,156.07c-3.97-.1-7.76-.11-11.69-.67-.44-.06-.89-.12-1.33-.17.06-.8.02-1.61.32-2.38.14-.37-.46-.53-.6-.16-.29.73-.28,1.37-.31,2.15l-.03.32c-3.04-.32-6.09-.44-9.12-.88-.39-.06-.56.54-.16.6,3.04.45,6.11.6,9.16.91-.23.77-.69,1.32-1.25,2.06-.89,1.2-1.22,2.58-1.04,4.05.05.39.67.4.62,0-.12-1.02-.03-2.04.46-2.97.37-.72,1.02-1.22,1.45-1.9.24-.38.36-.77.43-1.18.6.07,1.2.14,1.79.22,3.8.54,7.47.51,11.3.61.4.01.4-.61,0-.62"/>
      <path class="cls-8" d="M227.75,160.61c-1.17.03-2.32.18-3.46.43-.39.09-.22.69.17.6,1.09-.25,2.18-.38,3.29-.41.4-.01.4-.63,0-.62"/>
      <path class="cls-19" d="M202.36,229.57c-.1,1.5-1.39,2.63-2.88,2.53-1.5-.09-2.63-1.39-2.53-2.88.1-1.5,1.39-2.63,2.88-2.53,1.5.1,2.63,1.39,2.53,2.88"/>
      <path class="cls-8" d="M227.51,153.23c-.8,0-.8,1.24,0,1.24s.8-1.24,0-1.24"/>
      <path class="cls-8" d="M177.53,108.26h-5.05c-.75,0-1.35-.6-1.35-1.35v-3.79c0-.75.6-1.35,1.35-1.35h5.05c.75,0,1.35.61,1.35,1.35v3.79c0,.75-.61,1.35-1.35,1.35"/>
      <path class="cls-6" d="M242.75,115.25h0s0-.04,0-.04l-.02-.09c-2.94-3.39-7.5-1.47-10.25,2.04-.35.45-3.29,3.81-3.64,4.21-.77.86-1.15-1.93-.54-5.61.75-4.58,2.66-10.53,3.04-12.42.4-.34.81-.67,1.21-1.01.22-.19.39-.29.39-.58,0-.43-.53-.96-.76-1.3-.34-.51-.69-.97-1.15-1.37l-.47.06-.32.13c-.57.82-1.15,1.65-1.72,2.48l.05.38,1.41,1.34c-1.57,3.45-3.6,7.19-4.73,10.81-.63,2.03-2.34,7.96-.65,10.82,1.56,2.65,4.67,1.25,6.28-.36.95-.95,1.85-2.13,2.79-3.32.35-.39.67-.79.99-1.21,1.46-1.73,3.08-3.25,5.18-3.76l.05-.02c.44-.1.89-.2,1.33-.3.38-.09.82-.12,1.17-.28.29-.13.42-.37.37-.59"/>
      <path class="cls-6" d="M177.59,103.1c-1.72-.1-3.44-.17-5.17-.23-.4-.01-.4.61,0,.62,1.72.06,3.44.13,5.17.23.4.02.4-.6,0-.62"/>
      <path class="cls-6" d="M174.91,105.37c-.8.02-1.6,0-2.4-.06-.4-.03-.39.59,0,.62.8.07,1.6.09,2.4.06.4-.01.4-.63,0-.62"/>
      <path class="cls-13" d="M83.93,124.55c-1.05.49-2.14,1.09-3.26,1.68.65-.43,1.3-.87,1.95-1.32.97-.67.11-2.22-.94-1.61-.44.26-.87.52-1.3.78-.28-.2-.68-.27-1.02-.09l-.46.28c.87-1.38,1.61-2.79,2.08-4.23.31-.96-.9-1.44-1.55-.9-1.24,1.02-.66-1.13.64-3.41.51-.89-.74-1.94-1.46-1.13-.65.73-1.23,1.5-1.76,2.3.65-1.46,1.3-2.91,1.95-4.37.49-1.1-.88-1.9-1.61-.94-.35.47-.68.95-.99,1.44l-.21-.28c1.32-1.86,2.91-3.52,4.78-4.99.6-.47.27-1.18-.28-1.43,1.45-.95,2.98-1.81,4.48-2.66,1.04-.59.11-2.19-.94-1.6-4.39,2.47-8.71,5.08-11.5,9.41-2.57,4-3.84,8.85-4.69,13.48-.6,3.25.36,11.36,3.96,12.8,4.6,1.83,9.33-2.45,12.86-4.77.79-.52-.57-5.81-1.27-5.93.49-.3.99-.6,1.48-.9,1.04-.63.13-2.11-.94-1.6"/>
      <path class="cls-13" d="M125.27,127.73c-1.58-9.9-3.49-21.16-20.67-28.43-1.1-.46-2.03,1.11-.94,1.6,4.56,2.08,8.78,5.63,11.84,9.8-.31.09-.58.35-.7.67-.31.18-.51.54-.41,1h0s-.21.11-.21.11c-.52-.24-1.27.22-1.33.86-.39-.09-.83.03-1.01.42-.27.61-.4,1.23-.43,1.87-.14.2-.22.46-.16.76.05.27.12.53.17.8-.19.11-.34.28-.44.53-.61,1.55.63,3.79,1.33,5.3-.19-.14-.38-.26-.57-.37l-.18-.14c-.26-.33-.53-.67-.78-1.02-.31-.42-.8-.48-1.19-.32l-.09-.06c-.8-.46-1.75.47-1.27,1.27.22.37.45.73.68,1.08.03.42.19.9.44,1.41-.76-.31,1.45,10.43,2.04,11.23,2.05,2.8,6.04,5.9,9.77,4.96,4.1-1.03,4.65-9.99,4.11-13.36"/>
      <path class="cls-14" d="M107.91,112.05l-.09.24-.02-.28c.54-.56.23-1.54-.63-1.58-.39-.02-.77-.02-1.15,0l-.24-.1c-1.44.12-2.81.45-3.63,1.74-.82,1.28-1.16,3.09-2.22,4.1-.08.03-1.96.83-4.5,1.91.48,1.44.94,2.89,1.39,4.34,2.88-1.7,5.06-3.05,5.09-3.08,1.19-1.14,2.99-.88,4.09-2.23,1.13-1.39,1.86-3.25,2.53-4.9.15-.37-.45-.53-.6-.16"/>
      <path class="cls-13" d="M110.11,117.96l-5.05.07c-.75,0-1.36-.59-1.37-1.34l-.05-3.79c-.01-.75.59-1.36,1.33-1.37l5.05-.07c.75-.01,1.36.59,1.37,1.33l.05,3.79c.01.74-.59,1.36-1.33,1.37"/>
      <path class="cls-11" d="M109.46,113.17c-1.28-.02-2.56,0-3.84.04-.4.02-.42.64-.02.62,1.28-.05,2.56-.06,3.84-.04.4,0,.42-.61.02-.62"/>
      <path class="cls-11" d="M109.62,115.11c-1.28-.02-2.56,0-3.84.04-.4.01-.42.64-.02.62,1.28-.05,2.56-.06,3.84-.04.4,0,.42-.61.02-.62"/>
      <path class="cls-14" d="M108.18,109.62c-2.8-.16-6.47.76-6.63,4.11-.02.4.6.4.62,0,.06-1.12.63-1.96,1.45-2.53.41,1.36,1.42,3.89,2.48,2.18.26.22.6.32.96.22l.29-.19c.93-.04,1.71-.64,1.74-1.69.4,0,.77-.22.84-.7.15-1-.99-1.35-1.74-1.39"/>
      <path class="cls-14" d="M123.26,107.31c-.21-.97-.89-2.02-1.94-2.41h-.04s-.39-.12-.39-.12c-.49-.08-.97,0-1.4.18-.37.13-.74.3-1.07.47-2.5,1.28-2.74,6.97-2.46,9.81.22,2.24.07,5.42.05,7.67,0,.25.26.37.47.27l.28-.25.03.05c.04.21.08.42.12.63.07.34.63.27.61-.08v-.11s.38.07.38.07h0c.07.23.27.27.42.19.17.08.42.03.45-.18v-.09s.38-.15.38-.15c.18.03.39-.1.38-.3v-.29c.17.07.42-.02.42-.27-.05-2.08-.11-4.18.33-6.22.19-.86.48-1.66.82-2.46.69-.56,1.01-1.36,1.3-2.18.46-1.33,1.15-2.83.84-4.24"/>
      <path class="cls-7" d="M123.53,113.59l-5.04.2c-.75.03-1.38-.55-1.41-1.3l-.15-3.79c-.03-.75.55-1.38,1.3-1.41l5.04-.21c.75-.03,1.38.55,1.41,1.3l.15,3.79c.03.75-.55,1.38-1.3,1.41"/>
      <path class="cls-14" d="M122.43,105.72h-.38c-.29.02-.63.11-.97.25l-.36-.06-.12.09.02-.05c.13-.32-.31-.47-.52-.3l-.15.13-.19-.11-.42-.13-.06.05-.08-.08c.53-.16,1.11-.18,1.61,0,.38.13.54-.47.16-.6-1.57-.54-3.61.38-4.05,2.03-.09.32-.14.78-.02,1.15l.24.38.21.13c.64.25.95-.55,1.58-.44.91.16,1.5.44,2.43,0,.57-.27,1.57-.88,1.6-1.61.02-.52-.19-.75-.53-.82"/>
      <path class="cls-14" d="M116.88,111.52l-.02-.69c.52-.91,1.27-2.11,1.05-3.04-.13-.55-.56-.79-1.07-.51-.79.42-1.45,2.02-1.64,2.87-.34,1.51.71,2.81.84,4.28.03.39.65.4.62,0l-.07-.48c.17.02.34-.08.34-.29v-.12s0-.04,0-.04c0-.66-.02-1.32-.05-1.98"/>
      <path class="cls-8" d="M120.87,122.19c.01-.18-.16-.34-.34-.33l.18-.25c.21-.35-.31-.64-.54-.31l-.02.03-.29.08c-.46.59-1.1.94-1.81,1.18-.2.05-.42.08-.63.1-.26.01-.52,0-.77-.01-.15-.01-.62-.13-1.02-.2l-.06-.19-.27-.15c-.38.03-.6.27-.48.66l.16.19.21.06.36.07c-.25.04-.49.08-.72.12-.34.06-.26.65.08.61.39-.04.79-.09,1.19-.14l-.2.06c-.39.1-.22.67.16.6.44-.09.94-.15,1.44-.23-.1.22.07.55.34.44l.07-.04h0s.03-.01.03-.01c.58-.25,1.1-.57,1.59-.93.54-.25.99-.6,1.3-1.13v-.28Z"/>
      <path class="cls-8" d="M94.01,117.66c-.61.38-.88.68-1.54.55-.31-.06-.6-.35-.88-.47-.78-.33-1.56-.46-2.41-.33-1.58.23-2.87,1.27-3.94,2.4-1.62,1.7-3.53,2.43-5.56,3.46.62-2.99,1.04-6.02,1.17-9.07.06-1.22.14-2.55-.39-3.68-.54-1.18-1.69-1.91-2.67-2.7-.31-.25-.75.19-.44.44,1.03.83,2.26,1.61,2.7,2.93.42,1.27.19,2.87.11,4.18-.19,2.79-.6,5.55-1.19,8.27-1.78.07-3.47.48-5.08,1.23-.36.17-.05.7.31.54,1.12-.52,2.27-.86,3.47-1.03-1.43.83-2.81,1.74-4.14,2.73-.32.24,0,.77.31.54,1.67-1.24,3.42-2.37,5.25-3.36.16.07.36.03.41-.19v-.04c1.72-.88,3.71-1.5,5.16-2.78,1.7-1.51,3.23-3.77,5.87-3.21.77.16,1.39.98,2.15,1.01.56.03,1.21-.62,1.64-.89.34-.21.03-.74-.31-.54"/>
      <path class="cls-8" d="M115.6,122.91c0-.4-.63-.4-.62,0,.02.88.49,2.25-.12,2.87-.56.57-1.01.83-1.32,1.61-.76,1.88-.49,4.35-.34,6.31.03.39.65.4.62,0-.16-2.17-.65-5.76,1.22-7.27.44-.35.75-.35.87-.89.16-.75-.29-1.87-.31-2.63"/>
      <path class="cls-8" d="M95.61,122.2c-1.07.59-2.23,1.27-2.73,2.46-.72,1.73.28,3.66-1.03,5.24-1.09,1.3-2.98,2.06-4.46,2.81-1.94.98-3.92,1.84-5.95,2.62-.37.14-.21.74.16.6,3.32-1.28,7.16-2.66,9.95-4.91.84-.68,1.44-1.49,1.62-2.57.19-1.15-.18-2.36.28-3.46.46-1.1,1.46-1.69,2.47-2.24.35-.19.04-.73-.31-.54"/>
      <path class="cls-19" d="M175.15,146.89h-28.75c-1.99,0-3.61-1.61-3.61-3.61v-20.07c0-1.99,1.62-3.61,3.61-3.61h28.75c1.99,0,3.61,1.62,3.61,3.61v20.07c0,1.99-1.62,3.61-3.61,3.61"/>
      <path class="cls-9" d="M162.99,132.81c0,1.2-.97,2.17-2.17,2.17s-2.17-.97-2.17-2.17.97-2.17,2.17-2.17,2.17.97,2.17,2.17"/>
      <path class="cls-20" d="M102.5,229.35c-.7-1.01-1.36-1.92-2.09-3.1-.29-.47-.58-.81-.84-2.13,0-.9-.11-2.81-.15-3.27-.04-.46-.26-.45-.94-.44-1.63.02-3.19.05-4.82.09l-.13.03c-.39.09-.42.54-.43,1.03-.03,1.97-.05,1.38.01,3.35.09,2.68.44,2.52,1.29,3.43.45.48.89.99,1.32,1.67.62.99,1.23,2.19,1.79,2.98,1.27,1.79,4.4,1.4,5.54.9,2.01-.89.09-3.63-.54-4.53"/>
      <path class="cls-16" d="M94.99,220.48c-.22,0-.45,0-.67.01.8,1.75.58,3.61,1.3,5.36.34.82.89,1.49,1.16,2.35.36,1.12.33,2.25.06,3.39-.09.39.5.55.6.16.43-1.79.22-3.49-.68-5.1-1.08-1.95-.93-4.15-1.77-6.17M102.49,229.36l-.3-.42c-.21-.11-.42-.22-.63-.34-1.16-.64-1.65-1.53-1.97-2.78-.45-1.77-.69-3.58-.79-5.4h-.62c.1,2.18.35,4.53,1.11,6.57.62,1.66,2.16,2.31,3.65,3.04-.17-.27-.33-.5-.45-.67"/>
      <path class="cls-16" d="M98.4,221.88c-.93.08-1.86.11-2.79.12-.4,0-.4.62,0,.62.93,0,1.86-.04,2.79-.12.39-.03.4-.65,0-.62"/>
      <path class="cls-16" d="M98.4,223.45c-.89.09-1.79.13-2.69.12-.4,0-.4.61,0,.62.9.01,1.79-.03,2.69-.12.39-.04.4-.66,0-.62"/>
      <path class="cls-19" d="M98.15,232.88c-.84-.77-1.7-3.06-2.34-3.99-.68-.99-1.54-1.68-2.6-2.5.17,1.22.53,1.29,1.18,1.99.45.48.89.99,1.32,1.67.62.99,1.23,2.19,1.79,2.98,1.27,1.79,4.4,1.4,5.54.9.53-.23.78-.59.86-1.01-1.4.67-4.52,1.1-5.74-.03"/>
      <path class="cls-9" d="M100.29,178.72c.08-2.98.74-6.53-.6-9.31-.17-.36-.71-.04-.54.31.81,1.68.67,3.52.62,5.33-.05,1.73-.1,3.46-.15,5.19-.09,3.46-.18,6.92-.23,10.38-.11,6.91-.09,13.83.18,20.74.01.4.64.4.62,0-.29-7.32-.29-14.64-.16-21.97.06-3.56.15-7.12.25-10.68"/>
      <path class="cls-8" d="M123.68,125.68c-.53-.42-1.16-.61-1.73-.96-1.12-.68-1-1.93-1.15-3.08-.05-.39-.67-.4-.62,0,.12.97,0,2.48.8,3.21,1.25,1.14,3.31,1.15,3.42,3.3.02.4.64.4.62,0-.05-1.03-.54-1.84-1.35-2.47"/>
      <path class="cls-7" d="M153.83,85.17s-3.26-5.03-.02-10.77c3.24-5.75,11.71-3.83,11.71-3.83,0,0,7.84,1.34,8.27,8.08.09,1.48-.16,2.45-.64,3.02-1.69,2.04-6.14-.77-7.5-2.53-4.75-6.15-11.82,6.04-11.82,6.04"/>
      <path class="cls-9" d="M172.66,79.86c-.02-.14-.46-1.57-.77-2.16-.64-1.21-.99-2.65-1.65-3.8-1-1.78-3.32-1.39-5.05-1.4-1.72,0-3.01-.05-4.62.03-1.09.06-2.08.22-3.02.81-.96.6-1.65,1.39-2.06,2.31-2.39,3.04-2.86,7.1-2,10.9.21.94.63,1.76,1.75,1.49.63-.15,1.14-.65,1.56-1.28.84.37,1.8.38,2.64.04.31-.12.55-.4.85-.53,1.4-.6,1.84-.32,3.11-.38,2.49-.12,2.03-3.34,4.39-3.99l.05-.02c2.46.06,2.6,4.02,2.67,4.55.15,1.18.98,1.28,1.28.54,1.01-2.48,1.05-5.49.86-7.1"/>
    </g>
    <path class="cls-14" d="M31.93,155.24l-.6-8.44c-.56-.92-1.46-1.17-2.28-.99-.17-1.07-.36-2.14-.72-3.17-.86-2.48-3.34-3.83-5.9-3.81-.62,0-1.16.12-1.62.33l.03-.07c1.07-2.58-3.1-3.79-4.16-1.24-3.48,8.34-9.65,18.07-5.91,27.27,3.29,8.1,17.2,11.05,25.39,16.48-2.72,8.24-5.97,21.35-8.66,29.14-.92,2.67-.98,1.91,2.04,3.31,4.07,1.89,11.79,2.71,12.58,2.92,1.19.32,1.62-1.32,1.99-2.57,1.92-6.43,2.34-8.83,4.2-15.28,1.79-6.22,5.63-14.93,5.51-21.45-.14-7.93-18.96-17.64-21.88-22.45"/>
    <path class="cls-19" d="M59.69,111.07c-.56-3.37-3.61-5.44-4.14-8.65-.47-2.91.24-5.63-1.53-8.21-.89-1.31-3.05-.07-2.14,1.25,1.5,2.19.86,4.67,1.16,7.14l.03.19c-.26-.15-.58-.19-.88-.14l-.07-.45c-.21-1.3-2.16-1.09-2.41.06-.69-.15-1.58.35-1.65,1.2l-.02.23c-.4.17-.72.53-.73,1.08-.03,1.04.17,1.8.63,2.72.22.43.57.62.93.62.3,1.71.61,3.42.91,5.13.15.84,1.09,1.01,1.75.77.06.39.13.78.19,1.17.16.97,1.33,1.1,1.99.6.09.31.29.53.55.66.09.31.31.57.61.72-1.42.73-3.19,1.06-4.57,1.44-1.54.42-.93,1.51.62,1.09,2.31-.63,5.53-1.14,7.24-2.99,1.62-1.76,1.91-3.38,1.54-5.62"/>
    <path class="cls-19" d="M54.23,89.34c.79-3.55,2.91-6.07,1.91-9.88-.76-2.91-2.69-5.07-5.34-6.41-1.42-.72-2.33,1.59-.92,2.31,1.98,1,3.32,2.72,3.83,4.7-.55-.08-1.12.13-1.31.74-.14.46-.25.92-.35,1.37-.05.2-.11.4-.16.59-.24.12-.44.32-.56.66-.28.78-.57,1.56-.86,2.33-.57-.37-1.42-.29-1.81.54-.59,1.26-1.18,2.53-1.78,3.79.22-1.35-1.89-1.78-2.39-.54-1.74,4.36-3.43,8.71-4.65,13.25-.21.78.15,1.58,1.02,1.69.3.04.56.02.8-.03.48.18,1.05.1,1.39-.4.22-.31.41-.64.59-.98.09.22.24.4.44.53,0,.3,0,.6.03.9.08,1.18,1.58,1.23,2.22.54l.14-.16-.02.04c-.44,1.29,1.08,2.18,2.01,1.33.27.07.55.07.82-.04,2.59-1.15,4.6-3.2,5.52-5.92,1.32-3.9-1.4-7.23-.57-10.97"/>
    <path class="cls-2" d="M51.68,110.95c-.14-1.91-3.29-9.63-14.12-12.04-6.96-1.55-13.72-.62-18.56,1.8-2.98,1.49-3.56,4.81-4.09,8.27-.11.38,1.07,6.63.56,10.68-.8,6.49-5.14,24-.91,25.45,1.52,1.72,10.79,3.47,10.83,3.28.76.66,13.32.57,13.85-.77.59-.63.97-4.22,2.48-8.53,1.42-4.05,3.97-8.72,5.15-12.37,1.03-3.2,1.78-5.57,1.88-5.92,1.19-3.94,4.39-7.68,2.93-9.85"/>
    <path class="cls-16" d="M17.68,113.57c-1.14.09-5.23-2.96-5.83-1.55-2.1,4.95-4,10.05-5.04,15.45-.56,2.9-2.4,10.15.74,11.82,3.03,1.61,4.88-4.92,5.69-7.15,2.01-5.57,3.73-11.3,5.42-17.01.21-.71-.32-1.61-.98-1.56"/>
    <path class="cls-19" d="M46.1,165.71c-.82-.22-.68-2.7-.9-1.87l-17.7,63.89c-.97.36-1.68,1.26-1.75,2.36-.1,1.5,1.04,2.79,2.53,2.88,1.5.1,2.79-1.04,2.88-2.53.05-.74-.21-1.43-.65-1.95l17.41-63.25c.22-.83-.99.69-1.81.47"/>
    <path class="cls-19" d="M49.83,227.11l-18.5-67.14c-.22-.83-1.07-1.32-1.9-1.1-.83.22-1.32,1.07-1.1,1.9l18.49,67.1c-.45.52-.7,1.21-.65,1.95.1,1.5,1.39,2.63,2.88,2.53,1.49-.1,2.63-1.39,2.53-2.88-.07-1.1-.79-2-1.75-2.36"/>
    <path class="cls-16" d="M54.45,77.92c-1.33-2.67-4.55-3.53-7.64-4.17-.34-.21-.78-.32-1.14-.26-4.34.76-7.15,4.02-7.72,8.05-.32,2.22-1.09,7.54,2.21,11.89.92,1.21,3.23,2.18,4.65,2.86,3.28,1.56,5.82-.65,6.37-2.02.82-2.05,1.4-3.72,2.06-5.82.55-1.74,1.21-3.59,1.44-5.44.19-1.53.51-3.62-.22-5.09"/>
    <rect class="cls-16" x="31.18" y="89.27" width="17.16" height="8.39" transform="translate(-61.54 100.95) rotate(-71.18)"/>
    <path class="cls-16" d="M193.68,158.1v-6.1c.01-5.08-43.1-9.2-96.28-9.2S1.96,146.85,1.13,151.86h-.02v6.51h.02c.25,5.06,43.26,9.15,96.29,9.15s96.29-4.12,96.29-9.2l-.03-.22Z"/>
    <path class="cls-20" d="M193.71,158.32l-.03-.22v-5.89c-.26,4.32-38.88,8.93-96.28,8.93S1.11,156.5,1.11,152.17h0s0,6.2,0,6.2h.02c.26,5.06,43.26,9.15,96.29,9.15s96.29-4.12,96.29-9.2"/>
    <path class="cls-2" d="M42.57,98.26c-1.04-.23-7.87-2.32-8.91-2.54-.34-.07-3.98,11.87-3.4,12.08.46.16,7.43-3.84,8.4-1.5.13.3.55.43.82.32.2.33.75.32.94.01.17.24.57.22.82.02.21,0,.42-.11.49-.33l.1-.27-.02-.34c.03-.24.07-.49.12-.73.04-.19-.04-.34-.16-.46v-.19s-.03-.13-.03-.13c.06-.23.12-.46.18-.68l.16-.32c.02-.19.04-.39.06-.59l.29-.16c.21-.88.57-2.6.74-3.49.06-.35-.15-.6-.61-.7"/>
    <path class="cls-2" d="M53.55,109.74c-2.9-3.24-4.44-5.04-8.03-7.47-.99-.67-1.91,2.52-.92,3.18.89.6,1.8,2.55,2.53,4.65h0c-.03.76-.06,1.51-.09,2.26-.2,0-.42.09-.56.28-.47.67-.77,1.38-.91,2.11-.36.01-.73.31-.63.77.11.47.23.92.36,1.37-.74-.39-1.83.4-1.26,1.26,1.34,2.01,4.13,7.61,5.84,7.66,1.61.05,8.25-5.41,9.16-6.41.77-.85-4.16-8.18-5.49-9.66"/>
    <path class="cls-2" d="M25.97,98.81c-4.36.64-8.2,1.79-11.4,5.1-3.19,3.3-5.97,7.14-7.5,11.49-.19.55.14,1.1.54,1.4,2.56,1.95,8.2,4.18,11.28,4.57.82.1-.46-2.06-.6-2.76l-.08-.4c-.15-.78,4.88-16.5,8.38-17.02,1.5-.22.86-2.61-.63-2.39"/>
    <path class="cls-19" d="M55.71,79.94c-.2-.41-.45-.78-.73-1.1.16-.17.24-.43.11-.72-.36-.85-.79-1.67-1.43-2.35-.59-.63-1.35-1.11-1.99-1.7-.04-.39-.26-.77-.71-.98-5.77-2.71-12.94-2.94-16.44,3.32-1.69,3.02-1.54,6.69-2.72,9.9-1.41,3.87-7.14,8.36-6.25,11.83.08.3,2.13.31,3.21.2,1.45-.14,2.83.26,4.23.36,1.13.08,1.97.21,3.06-.25,2.33-1,3.45-3.4,4.08-5.71.44-1.64-.17-3.45.19-5.11.29-1.34.69-2.7,2.13-3.29.59-.24,2.21.06,2.82-.24.92-.44,1.38-1.18,1.92-2.01,1.48-2.25,5.96-5.43,7.73-2.01.36.71,1.14.59.79-.14"/>
    <path class="cls-15" d="M50.7,170.41c-.27-.29-.71.15-.44.44,4.67,5.06,2.26,11.66.8,17.49-.1.39.5.55.6.16,1.53-6.09,3.91-12.83-.96-18.1"/>
    <path class="cls-16" d="M43.55,84.66c-.8-.83-2.09-.75-2.89.04-.8.8-.97,2.04-.55,3.07.41,1,1.53,1.9,2.49.93.58-.59.96-1.73.75-2.61.44-.3.67-.94.19-1.43"/>
    <path class="cls-19" d="M46.94,77.28c-1.4,1-2.55,2.24-3.43,3.72-.2.34.33.66.54.31.82-1.38,1.9-2.56,3.21-3.5.32-.23.01-.77-.31-.54"/>
    <path class="cls-19" d="M43.85,76.93c-1.02.77-1.63,1.85-2.21,2.97-.19.35.35.67.53.31.52-1.01,1.06-2.05,1.99-2.75.31-.24,0-.78-.31-.54"/>
    <path class="cls-19" d="M55.63,106.89c-.84-1.46-1.83-3.24-1.94-4.96-.03-.4-.65-.4-.62,0,.12,1.83,1.12,3.71,2.02,5.27.2.34.74.03.54-.31"/>
    <path class="cls-19" d="M36.37,93.51c-.59,1.02-1.52,1.75-2.64,2.09-.38.12-.22.72.16.6,1.28-.39,2.33-1.22,3.01-2.38.2-.35-.33-.66-.54-.31"/>
    <path class="cls-19" d="M32.22,93.98c-1.18,1-2.74.83-4.16.64-.39-.05-.56.54-.16.6,1.68.23,3.39.36,4.76-.8.3-.26-.14-.69-.44-.44"/>
    <path class="cls-12" d="M40.33,99.2v.05c0,.8,1.24.8,1.24,0v-.05c0-.8-1.24-.8-1.24,0"/>
    <path class="cls-16" d="M37.51,145.28c-.09-.21-.23-.41-.39-.6.03-.21-.03-.43-.23-.59-1.24-1.01-2.55-2.57-4.26-2.62-1.8-.05-3.34.58-5.01.77-5.62-2.77-11.06-5.87-16.31-9.29-.66-.43-4.14,6.31-3.68,6.59,2.75,1.66,5.92,2.44,8.97,3.36,2.68.8,5.38,1.52,8.12,2.08.81.56,1.62,1.21,2.56,1.44,1.25.3,2.36-.19,3.58-.41,1.94-.35,3.08.73,4.85.67.73-.03,1.3-.2,1.77-.77.14-.17.11-.43.03-.61"/>
    <path class="cls-1" d="M17.22,121.53c0,66.25,53.71,119.96,119.96,119.96s119.96-53.71,119.96-119.96S203.43,1.57,137.18,1.57,17.22,55.28,17.22,121.53"/>
  </g>
</svg>