<?xml version="1.0" encoding="UTF-8"?>
<svg id="Capa_1" data-name="Capa 1" xmlns="http://www.w3.org/2000/svg" xmlns:xlink="http://www.w3.org/1999/xlink" viewBox="0 0 223.24 217.53">
  <defs>
    <style>
      .cls-1 {
        fill: none;
      }

      .cls-2 {
        fill: #99896e;
      }

      .cls-3 {
        fill: #e4ddd0;
      }

      .cls-4 {
        fill: #c4bba2;
      }

      .cls-5 {
        fill: #adcdd1;
      }

      .cls-6 {
        fill: #6b6664;
      }

      .cls-7 {
        fill: #fff;
      }

      .cls-8 {
        fill: #e84e24;
      }

      .cls-9 {
        fill: #817e7c;
      }

      .cls-10 {
        fill: #b7ac8e;
      }

      .cls-11 {
        fill: #d0c8b1;
      }

      .cls-12 {
        fill: #eb6739;
      }

      .cls-13 {
        fill: #8bbcc1;
      }

      .cls-14 {
        clip-path: url(#clippath);
      }
    </style>
    <clipPath id="clippath">
      <path class="cls-1" d="M143,94.82s-7.56,36.47-8,49.47c-.19,5.53,2.95,23.28.83,32.99.25,1.8,5.65,2.24,5.89,1.24,2.04-8.27,6.89-19.67,7.26-26.93.08-1.62-1.61-4.45-2.61-6.89,2.2-6.17,11.28-29.14,11.28-29.14l-8-27.97-6.66,7.22Z"/>
    </clipPath>
  </defs>
  <circle class="cls-3" cx="116.77" cy="110.17" r="105.71"/>
  <g>
    <g>
      <path class="cls-9" d="M94.29,179.06c.78-.27,1.07-.91,1.32-1.64,3.9-11.45,7.61-22.98,11.79-34.33,2.82-7.66,3.81-15.69,5.73-23.53.09-.38.14-.77.25-1.15.11-.36.51-.6.63-1.06.23,1.89.45,3.78.68,5.67.39,3.21,1.35,6.33,1.44,9.59.03.9-.02,1.77-.2,2.62-1.86,8.82-1.44,17.62-.11,26.46.68,4.52,1.78,8.93,2.69,13.4.11.53.24,1.07.21,1.59-.04.81.31,1.19,1.08,1.26,1.78-.1,3.55-.09,5.31.18.46-.8.41-1.69.41-2.57.05-7.4-.13-14.82.24-22.2.51-10.22.7-20.46,1.52-30.68.58-7.17.9-14.37.65-21.58-.15-4.25.4-8.52.14-12.78-1.67.43-3.28-.11-4.92-.26-3.42-.31-6.84.12-10.27,0,.31,1.09.3,2.21.27,3.33-.03,1.24-.67,1.65-1.87,1.68-2.45.06-5.35-2.45-5.85-4.73-.6-.13-1.21-.25-1.81-.38-1.73,3.64-2.37,7.57-2.89,11.5-.77,5.84-.79,11.74-.63,17.62.15,5.56-.52,11.06-1.2,16.55-.19,1.5-1.2,2.67-1.79,4.01-3.56,8.16-5.44,16.76-6.72,25.51-.6,4.12-1.24,8.24-1.97,12.34-.16.9-.63,1.97.6,2.59,1.71.53,3.41,1.09,5.24.96Z"/>
      <path class="cls-13" d="M103.16,87.46c-1.96-.09-3.54-1.33-5.37-1.76-1.58-.37-2.86-1.1-4.08-2.17-1.21-1.07-1.75-2.61-2.88-3.67-3.43-3.24-3.8-6.78-1.92-10.17.45-.81.94-1.61,1.46-2.38,3.05-4.51,5.28-9.5,8.2-14.09.78-1.22,1.71-2.29,3.3-2.43.74.9,1.88.69,2.84.94,4.94,1.29,9.7.79,14.14-1.8,1.33-.78,2.73-1.54,3.44-3.04,4.41.42,7.63,3.25,8.72,8.02,1.09,4.77,2.39,9.49,3.52,14.24.17.73.23,1.31,1.28.8,4.49-2.17,9.03-4.26,13.54-6.38,1.02-.48,2.05-.93,3.21-.97,1.33,1.52,2.31,3.26,3.04,5.13-.05,1.26-.95,1.73-1.96,2.07-2.1.7-3.6,1.89-4.35,4.13-.8,2.38-2.7,3.93-5.09,4.47-2.16.48-3.85,1.57-5.51,2.87-1.42,1.1-3.02,1.87-4.86,1.81-1.87-.07-3.79.29-5.76-.77.32,2.18,1.42,4.12.03,6.01-1.67.43-3.28-.11-4.92-.26-3.42-.31-6.84.12-10.27,0-1.08-1.23-2.01-2.6-3.61-3.3-1.08-.47-1.86-.41-2.41.73-.46.96-.95,1.91-1.43,2.86-.6-.13-1.21-.25-1.81-.38-.16-.18-.31-.5-.48-.51ZM102.72,67.59c-.77.67-1.17,1.53-1.59,2.37-.79,1.62-1.3,3.41-2.82,4.58-.25.19-.45.43-.13.71,1.42,1.25,2.54,2.84,4.25,3.99,1.19-3.9,2.47-7.63.28-11.65Z"/>
      <path class="cls-4" d="M118.73,41.99c2.16.25,4.31,0,6.46-.08.53-.02,1.11-.19.84-.86-1.09-2.66-.2-5.32-.11-7.98.08-2.45.23-4.87-.35-7.3-.83-3.48-2.97-5.4-6.54-5.82-1.31-.15-2.61-.38-3.94-.32-3.52.17-6.77,2.62-7.96,5.94-.83,2.34-1.16,4.74-1.17,7.22-.01,2.11-.15,4.21-.23,6.32-.04,1.05-.31,2.02-.86,2.92-.65,1.06-.42,1.56.84,1.76,1.66.27,3.2-.23,4.73-.78,2.93-1.62,3.94-4.17,3.61-7.4-.08-.83.02-1.67-.03-2.5-.04-.68.21-1.1.84-1.37,1.53-.64,2.47-1.88,3.25-3.27.41-.72.66-1.77,1.28-2.09.82-.43,1.38.82,2.2,1.05.05.01.08.06.13.07,2.27.22,2.54,1.82,2.49,3.63-.08,2.64.06,5.3-1.36,7.71-.71,1.21-1.69,1.93-3.12,1.74-1.31-.18-1.43.38-1.01,1.39Z"/>
      <path class="cls-12" d="M118.73,41.99c-.42-1.02-.3-1.57,1.01-1.39,1.43.19,2.41-.53,3.12-1.74,1.42-2.41,1.28-5.08,1.36-7.71.05-1.81-.22-3.41-2.49-3.63-.04,0-.08-.05-.13-.07-.82-.23-1.38-1.48-2.2-1.05-.62.32-.87,1.36-1.28,2.09-.79,1.39-1.73,2.63-3.25,3.27-.63.27-.88.68-.84,1.37.05.83-.06,1.67.03,2.5.33,3.23-.68,5.77-3.61,7.4-.09.87-.18,1.74-.27,2.6-.11,1.01-1.02,1.1-1.7,1.38-1.65.69-3.53.79-4.98,1.99-.63.52-1.38.93-1.62,1.8.74.9,1.88.69,2.83.94,4.94,1.29,9.7.79,14.14-1.8,1.33-.78,2.73-1.54,3.44-3.04-.16-.36-.51-.44-.82-.52-2.28-.61-2.93-2.23-2.74-4.38Z"/>
      <path class="cls-10" d="M119.97,182c-.99,2.24-1.2,4.68-1.8,7.01-.11.42.17.73.55.94.4.22.82.3,1.27.3,4.11.03,8.22-.09,12.32.28.29.03.59.03.88,0,.62-.06,1.46,0,1.63-.68.19-.75-.67-.94-1.19-1.28-2.71-1.83-5.34-3.76-7.46-6.3-.26-.31-.54-.57-.98-.56-1.72.57-3.49.11-5.23.28Z"/>
      <path class="cls-12" d="M152.56,62.61c1.33,1.52,2.31,3.26,3.04,5.13,3.74-1.3,7.4-2.81,10.79-4.86,1.36-.82,1.25-1.97-.21-2.64-1.71-.78-3.54-1.14-5.42-1.04-.87.04-1.19-.13-.86-1.04.13-.35.11-.78.08-1.16-.09-1.21-.82-1.62-1.91-1.11-.59.28-1.05.71-1.48,1.18-1.55,1.7-2.75,3.66-4.03,5.55Z"/>
      <path class="cls-10" d="M88.39,182.3c-.49,0-.91.26-1.05.68-.75,2.38-2.78,3.71-4.34,5.43-.42.46-1.09.89-.73,1.6.37.74,1.11.59,1.86.69,2.91.37,5.84-.17,8.74.38,2.47.46,2.95-.16,2.26-2.55-.39-1.35-1.01-2.66-.89-4.12.06-.74-.68-.89-1-1.34-1.62-.26-3.24-.51-4.86-.77Z"/>
      <path class="cls-12" d="M119.97,182c1.74-.18,3.51.29,5.23-.28-.02-1.19-.04-2.39-.06-3.58-1.76-.27-3.54-.28-5.31-.18.05,1.35.1,2.7.15,4.05Z"/>
      <path class="cls-12" d="M88.39,182.3c1.62.26,3.24.52,4.86.77.35-1.34.69-2.68,1.04-4.02-1.83.13-3.53-.44-5.23-.96-.22,1.4-.44,2.8-.66,4.21Z"/>
      <path class="cls-12" d="M112.9,88.07c-1.08-1.23-2.01-2.6-3.61-3.3-1.08-.47-1.86-.41-2.41.73-.46.96-.95,1.91-1.43,2.86.5,2.27,3.4,4.78,5.85,4.73,1.2-.03,1.85-.44,1.87-1.68.02-1.12.04-2.24-.27-3.33Z"/>
    </g>
    <g>
      <g>
        <path class="cls-11" d="M63.76,125.01c-.15,2.7.39,14.26.57,22.52.39,18.01-1.61,38.95-.73,41.67,1.28,3.97-2.27,2.85-2.35-.05-.14-5.26-11.54-27.51-10.44-34.57.57-3.7,1.79-6.07,1.98-8.31.18-2.24-5.94-21.47-5.94-21.47l16.91.21Z"/>
        <path class="cls-11" d="M48.56,125.8c-.76,2.6-2.23,13.49-4.17,21.52-.6,2.48-2.69,8.82-4.04,13.23-4.07,13.24-8.56,25.27-8.38,27.41.35,4.17-3.91,2.19-2.65-.41,1.26-2.6-2.39-28.17-.27-35,2.12-6.82,4.18-7.43,4.87-9.57.69-2.14-1.77-21.29-1.77-21.29l16.41,4.1Z"/>
        <path class="cls-5" d="M65.46,125.71c.4,5.49.27,14.77,0,15.59-.27.82-8.13,2.13-17.14,2.58-9.01.45-16.64-2.51-17.17-3.18-.53-.67.04-17.41.31-18.82.27-1.41,34,3.83,34,3.83Z"/>
        <path class="cls-7" d="M22.24,92.32c1.6,2.31,5.46,2.23,8.69,1.56-.87,16.35-1.17,33.04-.73,33.37,3.64,2.73,35.25,2.68,36.52-.17.65-1.47.42-16.51-.38-31.79,4.58.46,9.53-.58,10.4-5.01,1.04-5.34-6.23-20.31-15.23-29.78-.12-.13-.25-.24-.39-.34-1.98-2.22-5.27-4.82-8.56-6.36-2.48-1.56-7.29-.48-9.24.77-2.99,1.56-5.22,3.08-6.84,4.98-4.4,4.04-19.98,24.5-14.25,32.77ZM29.62,85.21c.45-1.44,1.21-2.83,2.15-4.3-.13,1.66-.26,2.83-.38,4.6-.7-.11-1.58-.22-1.77-.3Z"/>
        <g>
          <path class="cls-6" d="M53.17,42.61c2.25-2.4,3.34-9.78-1.64-14.22-4.12-3.67-8.01-1.49-9.43-.62-2.24,1.38-5.42,8.88.6,14.72,6.03,5.84,6.67,4.18,10.47.12Z"/>
          <path class="cls-12" d="M47.63,54.41c-1.49.24-4.03,1.23-5.43,3.05-1.4,1.82,8.1,14.44,8.67,14.44,1.22,0,3.74-13.21,3.15-14.77-.4-1.05-4.71-3-6.39-2.73Z"/>
          <path class="cls-11" d="M45.04,46.16c-.28,4.38-1.13,8.99-1.86,10.37-1.03,1.95,4.55,3.8,6.89,3.17,2.34-.63,3.03-1.88,3.1-2.71s-2.74-3.59-3.23-9.45c-.39-4.67-4.78-3.17-4.89-1.38Z"/>
          <path class="cls-11" d="M54.6,36.17c.78,6.45-1.82,13.44-3.89,13.82-2.81.51-7.81-3.18-7.98-9.16-1.47.42-1.84-1.9-1.52-3.4.4-1.87,1.8.21,1.8.21,0,0,11.28-3.98,11.58-1.46Z"/>
        </g>
        <path class="cls-6" d="M43.92,28.25c-1.26-2.55-5.04-6.84-9.21-7.16-9.3-.72-11.81,4.56-11.69,9.66.09,3.58,2.83,5.56,2.7,8.8-.09,2.23-6.95,5.6-4.9,11.95,1.44,4.46,9.46,6.36,14.57,2.98,1.82-1.2,5.19-5.71,3.3-11.47-1.89-5.76-3.51-6.69-4.62-9.58-1.52-3.92,1.25-9.99,9.33-4.79,1.94,1.25.77.12.52-.38Z"/>
        <path class="cls-11" d="M58.62,83.47c.45.03,1.26-.4,1.73-.21,1.66.7,2.58,4.39,3.17,5.21.76,1.06-1.28,2.59-2.33,3.17-1.05.59-4.57.36-5.34.2-1.77-.37-4.65-2.7-3.91-3.03.93-.41,6.13-4.09,6.29-4.29-.68-.07-.89-.52-.92-.93-.02-.22,1.04-.14,1.31-.13Z"/>
        <path class="cls-5" d="M40.21,89.07h15.59c1.93,0,3.5-1.58,3.5-3.54,0-.56-.45-1.01-1-1.01h-20.59c-.55,0-1,.45-1,1.01,0,1.95,1.57,3.54,3.5,3.54Z"/>
        <path class="cls-11" d="M37.93,83.95c-.45.03-1.26-.4-1.73-.21-1.66.7-3.13,3.91-3.72,4.73-.76,1.06,1.28,2.59,2.33,3.17,1.05.59,3.37.38,4.1.09.87-.35,3.41-3.23,2.67-3.56-.93-.41-3.85-2.6-4.01-2.8.68-.07,1.65-.9,1.68-1.3.02-.22-1.04-.14-1.31-.13Z"/>
      </g>
      <path class="cls-2" d="M63.23,186.83c5.19,2.94,8.02,4.21,7.98,5.3-.04,1.09-10.98.64-11.93.22-.94-.42,1.61-5.28,1.61-5.28l2.34-.24Z"/>
      <path class="cls-2" d="M31.88,186.69c2.83,1.67,7.93,3.22,7.84,4.82-.09,1.6-10.01,1.5-11.18.24-.63-.68.75-4.4.75-4.4l2.59-.66Z"/>
    </g>
    <g>
      <g>
        <path class="cls-2" d="M140.94,187.92c.71-.11.61,1.61.35,1.74-1.72.91-5.97,1.03-9.31,1.27-3.9.28-7.91.07-8.25-.52-.3-.52-.7-1.56.69-2.23.64-.31,9.49-.86,9.69-.8.2.05,6.82.54,6.82.54Z"/>
        <path class="cls-11" d="M136.59,175.7c-.14,2.57-1.58,7.43-2.04,8.39-.18.38-2.09,2.55-1.04,3.66,1.61,1.71,5.63,1.94,6.67-2.09-1.06-4.28,1.83-8.07,1.83-9.35s-5.34-1.97-5.42-.61Z"/>
        <path class="cls-2" d="M140.15,183.65c-.1,2.41,1.3,2.89.76,4.79-.28.99-14.45,2.58-16.48,1.26-1.08-.7-.12-1.5,1.1-2.01,1.42-.6,4.86-2.02,6.19-2.61,1.78-.79,2.2-2.31,2.56-2.05.86.62-.65,3.5.04,3.87,1.41.75,4.97-2.74,5.51-3.37.14-.17.32-.08.31.11Z"/>
        <path class="cls-11" d="M175.59,176.9c1.22,3.19.8,7.53.43,8.44-.18.45-1.8,5.56,2.72,4.15,2.94-.91,3.53-1.92,3.16-2.54-1.81-3.01-.81-8.58-.81-9.8s-5.95-1.44-5.5-.26Z"/>
        <path class="cls-2" d="M182.62,189.15c.57-.13.36,1.88.21,2.09-.16.21-3.24.9-6.55.81-3-.08-4.9-.24-5.14-.79-.12-.28.07-1.58.65-1.95.51-.33,5.46-.63,5.63-.59.17.04,5.21.44,5.21.44Z"/>
        <path class="cls-2" d="M176.82,183.84c-.66.02-1.61,1.48-2.13,3.01-.61.65-1.73.88-2.31,1.75-.41.6-.92,1.66-.7,1.95.76,1,10.49.83,10.84-.07.45-1.17-.5-2.24-.63-3.39-.13-1.05,0-1.58-.37-2.14-.12-.17-.4-.07-.39.26.02.73.13,2.01-.92,2.16-.91-2.68-2.31-3.57-3.39-3.54Z"/>
        <g class="cls-14">
          <rect class="cls-6" x="134.82" y="87.6" width="22.84" height="91.91"/>
        </g>
        <path class="cls-6" d="M171.14,96.31c2.45,11.88,3.8,33.67,3.8,44.3,3.44,2.62,5.68,5.85,6.06,7.38,1.89,7.57.47,29.8.47,30.68-.63,1.18-5.95,2.37-5.9.37-6.89-29.09-9.34-29.15-11.32-34.37-8.05-21.27-18.22-45.26-18.22-45.26l25.1-3.1Z"/>
      </g>
      <path class="cls-13" d="M153.35,44.4c3.67.57,19.03,1.48,23.57,8.31,1.91,2.88-4.19,44.05-5.33,45.31-1.83,2.02-26.04,4.74-29.81,0-1.07-1.34-12.03-41.67-4.67-47.86,3.72-3.13,16.26-5.76,16.26-5.76Z"/>
      <path class="cls-2" d="M145.2,21.59c-3.12,2.05-2.26,8.02,1.66,10.54,2.02,1.3,9.11,4.76,10.5,3.89,1.38-.87,3.56-7.58,1.86-11.32-.55-1.21-1.84-2.55-3.52-2.81-1.61-.25-2.19-1.16-4.27-2.05-2.27-.97-4.63.69-6.23,1.74Z"/>
      <path class="cls-11" d="M157.81,27.96c.62,5.56,2.11,16.02,2.52,17.01.41,1-3.63,3.21-6.55,3.23-4.03.03-6.39-1.49-6.39-2.4s1.33-10.13,1.33-10.13l3.15-6.98,5.93-.73Z"/>
      <path class="cls-11" d="M149.15,25.56c-1.09.32-2.21-1.16-2.88-.38-.94,1.09-1.28,1.65-1.15,4.43.24,5.04,2.91,10.76,4.65,10.86,5.4.31,7.61-6.77,7.66-7.1.37-2.33-.09-1.99.28-2.95.37-.96,1.23-2.55.71-3.23-.52-.68-1.48.46-1.48.46,0,0-.22-1.23-2.08-2.87-1.15-1.02-2.75-.08-5.7.79Z"/>
      <path class="cls-13" d="M147.76,42.62c-.46-.17-2.54,3.09-2.67,3.82-.13.73,3.78,5.29,4.71,4.82.93-.47,1.67-2.34,2.04-2.48.57-.23.91,2.95,2.04,2.95s9.65-3.7,9.71-6.12c0-.28-3.78-4.68-4-4.57-.5.26-3.86,3.36-7.97,3.36-2.14,0-3.46-1.63-3.85-1.78Z"/>
      <path class="cls-8" d="M151.92,45.55l-1.71,5.05s.53,2.15.86,3.08c-.86,1.68-3.11,24.07,0,31.76,3.2-3.97,5.24-7.94,5.24-7.94,0,0-4.49-17.37-3.99-23.82.57-1.24,1.06-3.54,1.06-3.54l-1.46-4.59Z"/>
      <path class="cls-11" d="M102.99,55.81c1.38-2.39-.23-5.66-.44-6.5s-.35-1.88-.94-1.52c-.59.36-.6,1.98-.9,2.65-.3.67-2.23-4.1-2.73-4.92-.5-.82-1.92-2.23-2.32-1.6-.4.63,1.62,3.25,1.43,4.09-.19.84-2.92-3.15-3.66-2.76-.74.39-2.04,3.04-1.9,4.25.14,1.21,5.22,7.09,5.5,7.56.29.47,3.37,3.16,3.37,3.16l2.59-4.41Z"/>
      <path class="cls-11" d="M103.88,56.76c1.38-2.39-1.12-6.61-1.33-7.45s-.35-1.88-.94-1.52c-.59.36-.6,1.97-.9,2.64-.13.29-.6-.63-.74-.66-.47-.1-1,.48-1.23.82-.34.49-.5,1.07-.65,1.65-.36,1.47-.21,4.47.44,5.92.42.94,1.02,1.54,1.86,2.05l3.48-3.46Z"/>
      <path class="cls-7" d="M140.91,47.66c-5.1,1.84-19.96,15.93-24.65,14.63-4.7-1.3-11.87-6.94-11.87-6.94,0,0-5.74,2.86-4.83,4.33.91,1.47,10.6,14.66,13.79,15.7,5.45,1.78,23.03-8.96,23.03-8.96l4.54-18.75Z"/>
      <path class="cls-7" d="M162.09,43.67c.64,6.66-5.44,78.86-2.33,86.91,10.56,2.63,25.4-2,25.4-2,0,0-6.58-32.09-6.38-38.1.2-6.01,1.32-34.27-.53-38.29-2.22-4.84-16.16-8.52-16.16-8.52Z"/>
      <path class="cls-7" d="M145.82,44.95s-4.68,1.13-9.35,5.18c-6.03,5.23.02,33.83-2.43,41.52-2.45,7.69-7.28,35.46-6.54,36.46.74.99,10.94,3.85,13.92,3.12,2.98-.74,2.33-41.91,1.34-49.05-.99-7.15,3.06-37.22,3.06-37.22Z"/>
      <path class="cls-11" d="M176.88,94.51l-2.79,4s-2.64,4.56-3,5.3c-.35.74-1.01,2.42-.63,2.61.37.19,6.33-.56,7.07-.84.74-.28.09-5.25.74-5.55s5.2-6.92,5.2-6.92l-6.6,1.4Z"/>
      <path class="cls-7" d="M178.26,52.19c6.19,7.57,17.61,22.92,17.61,26.89s-15.3,20.7-15.3,20.7l-5.73-3.76s7.63-16.32,8.19-17.81c.56-1.49-11.54-8.9-11.91-13.74s5.08-14.81,7.15-12.28Z"/>
    </g>
  </g>
</svg>