<?xml version="1.0" encoding="UTF-8"?>
<svg id="Capa_1" data-name="Capa 1" xmlns="http://www.w3.org/2000/svg" viewBox="0 0 508.49 490.75">
  <defs>
    <style>
      .cls-1 {
        fill: #f15a33;
        font-family: OpenSans-ExtraBold, 'Open Sans';
        font-size: 30.3px;
      }

      .cls-1, .cls-2, .cls-3 {
        font-weight: 700;
      }

      .cls-1, .cls-4 {
        opacity: .7;
      }

      .cls-5 {
        fill: #b9b8bb;
      }

      .cls-5, .cls-6, .cls-7 {
        font-size: 14.27px;
      }

      .cls-5, .cls-7 {
        font-family: OpenSans-Medium, 'Open Sans';
      }

      .cls-5, .cls-7, .cls-8 {
        font-weight: 500;
      }

      .cls-9 {
        fill: #f58b70;
      }

      .cls-10 {
        fill: #dfdfdf;
      }

      .cls-6 {
        fill: #8b898e;
        font-family: Inter-Regular, Inter;
        font-variation-settings: 'wght' 400, 'slnt' 0;
      }

      .cls-7, .cls-2, .cls-3, .cls-8 {
        fill: #616161;
      }

      .cls-11, .cls-12, .cls-13, .cls-14, .cls-15, .cls-16, .cls-17, .cls-18, .cls-19 {
        fill: none;
        stroke-miterlimit: 10;
      }

      .cls-11, .cls-13 {
        stroke: #8b898e;
      }

      .cls-12 {
        stroke: #b9b8bb;
      }

      .cls-12, .cls-13, .cls-16 {
        stroke-width: 2px;
      }

      .cls-12, .cls-14, .cls-15, .cls-16, .cls-17, .cls-18, .cls-19 {
        stroke-linecap: round;
      }

      .cls-20 {
        fill: #faba92;
      }

      .cls-2 {
        font-family: Inter-Bold, Inter;
        font-size: 20.2px;
      }

      .cls-14 {
        stroke: #f36f43;
      }

      .cls-14, .cls-15, .cls-17, .cls-18, .cls-19 {
        stroke-width: 6px;
      }

      .cls-3 {
        font-family: OpenSans-Bold, 'Open Sans';
        font-size: 16.05px;
      }

      .cls-21 {
        fill: #f79a7b;
      }

      .cls-22 {
        letter-spacing: 0em;
      }

      .cls-8 {
        font-family: Inter-Medium, Inter;
        font-size: 17.84px;
      }

      .cls-15 {
        stroke: #b74e31;
      }

      .cls-23 {
        fill: #cd836f;
      }

      .cls-16 {
        stroke: #dfdfdf;
      }

      .cls-24 {
        fill: #fd774c;
      }

      .cls-17 {
        stroke: #f89d64;
      }

      .cls-18 {
        stroke: #fd3d00;
      }

      .cls-25 {
        letter-spacing: .03em;
      }

      .cls-19 {
        stroke: #f15a33;
      }
    </style>
  </defs>
  <text class="cls-2" transform="translate(2.31 17.45)"><tspan x="0" y="0">Principals causes de mo</tspan><tspan class="cls-25" x="238.8" y="0">r</tspan><tspan class="cls-22" x="247.61" y="0">talitat</tspan></text>
  <text class="cls-1" transform="translate(88.83 114.43)"><tspan x="0" y="0">26,1%</tspan></text>
  <text class="cls-1" transform="translate(348.37 92.53)"><tspan x="0" y="0">30,9%</tspan></text>
  <g>
    <line class="cls-11" x1="337.99" y1="85.04" x2="337.99" y2="478.19"/>
    <line class="cls-11" x1="195.68" y1="145.71" x2="195.68" y2="477.06"/>
    <g>
      <line class="cls-13" x1="38.78" y1="478.48" x2="508.49" y2="478.48"/>
      <g>
        <g>
          <text class="cls-6" transform="translate(9.08 486.19)"><tspan x="0" y="0">0%</tspan></text>
          <text class="cls-6" transform="translate(0 101.87)"><tspan x="0" y="0">30%</tspan></text>
        </g>
        <g>
          <line class="cls-11" x1="38.78" y1="95.45" x2="53.48" y2="95.45"/>
          <text class="cls-6" transform="translate(.45 230.01)"><tspan x="0" y="0">20%</tspan></text>
          <line class="cls-11" x1="38.78" y1="223.83" x2="53.48" y2="223.83"/>
          <text class="cls-6" transform="translate(2.45 353.74)"><tspan x="0" y="0">10%</tspan></text>
          <line class="cls-11" x1="38.78" y1="349.87" x2="53.48" y2="349.87"/>
        </g>
      </g>
      <g class="cls-4">
        <line class="cls-12" x1="195.71" y1="428.78" x2="336.62" y2="435.15"/>
      </g>
      <g class="cls-4">
        <line class="cls-12" x1="195.71" y1="386.73" x2="336.62" y2="430.06"/>
      </g>
      <g class="cls-4">
        <line class="cls-12" x1="195.71" y1="417.31" x2="336.62" y2="430.06"/>
      </g>
      <g class="cls-4">
        <line class="cls-12" x1="195.71" y1="414.76" x2="336.62" y2="417.31"/>
      </g>
      <g class="cls-4">
        <line class="cls-14" x1="195.71" y1="386.73" x2="336.62" y2="413.49"/>
      </g>
      <g class="cls-4">
        <line class="cls-17" x1="195.71" y1="427.51" x2="336.62" y2="402.02"/>
      </g>
      <line class="cls-16" x1="195.71" y1="365.07" x2="336.62" y2="385.46"/>
      <g class="cls-4">
        <line class="cls-19" x1="195.71" y1="354.87" x2="336.62" y2="328.11"/>
      </g>
      <g class="cls-4">
        <line class="cls-18" x1="195.71" y1="145.89" x2="336.62" y2="184.12"/>
      </g>
      <g class="cls-4">
        <line class="cls-15" x1="195.71" y1="189.22" x2="336.62" y2="84.72"/>
      </g>
    </g>
    <text class="cls-7" transform="translate(119.27 388.9)"><tspan x="0" y="0">Malalties</tspan><tspan x="-45.04" y="17.12">sistema nerviós</tspan></text>
    <text class="cls-7" transform="translate(348.37 426.73)"><tspan x="0" y="0">Malalties sistema</tspan><tspan x="0" y="17.12">nerviós</tspan></text>
    <text class="cls-7" transform="translate(348.37 404.87)"><tspan x="0" y="0">Causes externes</tspan></text>
    <text class="cls-7" transform="translate(69.43 433.78)"><tspan x="0" y="0">Causes externes</tspan></text>
    <text class="cls-5" transform="translate(348.37 382.4)"><tspan x="0" y="0">Resta de causes</tspan></text>
    <text class="cls-5" transform="translate(72.59 369.63)"><tspan x="0" y="0">Resta de causes</tspan></text>
    <text class="cls-3" transform="translate(348.37 311.3)"><tspan x="0" y="0">Malalties aparell</tspan><tspan x="0" y="19.26">respiratori</tspan></text>
    <text class="cls-3" transform="translate(106.54 312.51)"><tspan x="0" y="0">Malalties</tspan><tspan x="17.53" y="19.26">aparell</tspan><tspan x="-12.24" y="38.53">respiratori</tspan></text>
    <text class="cls-3" transform="translate(348.37 184.39)"><tspan x="0" y="0">Malalties aparell</tspan><tspan x="0" y="19.26">circularoti</tspan></text>
    <text class="cls-3" transform="translate(46.25 136.23)"><tspan x="0" y="0">Malalties aparell</tspan><tspan x="51.01" y="19.26">circularoti</tspan></text>
    <text class="cls-3" transform="translate(348.37 114.12)"><tspan x="0" y="0">Tumors</tspan></text>
    <text class="cls-3" transform="translate(119.38 205.58)"><tspan x="0" y="0">Tumors</tspan></text>
    <circle class="cls-24" cx="195.82" cy="146" r="7.6"/>
    <circle class="cls-24" cx="336.62" cy="184.63" r="7.6"/>
    <circle class="cls-23" cx="336.62" cy="84.83" r="7.6"/>
    <circle class="cls-23" cx="195.82" cy="189.46" r="7.6"/>
    <circle class="cls-10" cx="195.82" cy="365.43" r="4.9"/>
    <circle class="cls-10" cx="338.39" cy="386.19" r="4.9"/>
    <circle class="cls-21" cx="195.82" cy="386.17" r="7.6"/>
    <circle class="cls-20" cx="195.82" cy="428.13" r="7.6"/>
    <circle class="cls-9" cx="336.62" cy="328.57" r="7.6"/>
    <circle class="cls-21" cx="336.62" cy="415.22" r="7.6"/>
    <circle class="cls-20" cx="336.62" cy="401.98" r="7.6"/>
    <text class="cls-8" transform="translate(348.37 56.79)"><tspan x="0" y="0">HOMES</tspan></text>
    <text class="cls-8" transform="translate(118.07 56.79)"><tspan x="0" y="0">DONES</tspan></text>
    <circle class="cls-9" cx="195.82" cy="355.23" r="7.6"/>
  </g>
</svg>