<?xml version="1.0" encoding="UTF-8"?>
<svg id="Capa_1" data-name="Capa 1" xmlns="http://www.w3.org/2000/svg" viewBox="0 0 406.79 392.6">
  <defs>
    <style>
      .cls-1 {
        fill: #b64e31;
      }

      .cls-1, .cls-2 {
        font-family: Inter-SemiBold, Inter;
        font-size: 16.09px;
        font-weight: 600;
      }

      .cls-3 {
        font-family: Inter-Bold, Inter;
        font-size: 11.11px;
        font-weight: 700;
      }

      .cls-3, .cls-4, .cls-5 {
        fill: #8b898e;
      }

      .cls-3, .cls-5 {
        isolation: isolate;
      }

      .cls-6 {
        fill: #a7ced1;
      }

      .cls-7 {
        stroke: #82b9bd;
      }

      .cls-7, .cls-8, .cls-9, .cls-10, .cls-11, .cls-12, .cls-13, .cls-14 {
        fill: none;
        stroke-miterlimit: 10;
      }

      .cls-7, .cls-13, .cls-14 {
        stroke-linecap: round;
        stroke-width: 4.8px;
      }

      .cls-8 {
        stroke-width: .45px;
      }

      .cls-8, .cls-9, .cls-10, .cls-11, .cls-12 {
        stroke: #8b898e;
      }

      .cls-9 {
        stroke-width: .42px;
      }

      .cls-10 {
        stroke-width: .9px;
      }

      .cls-11 {
        stroke-width: .8px;
      }

      .cls-12 {
        stroke-width: .84px;
      }

      .cls-4, .cls-5 {
        font-family: Inter-Regular, Inter;
        font-size: 10px;
        font-variation-settings: 'wght' 400, 'slnt' 0;
      }

      .cls-15 {
        letter-spacing: 0em;
      }

      .cls-13 {
        stroke: #b74e31;
      }

      .cls-2 {
        fill: #709fa3;
      }

      .cls-16 {
        opacity: .7;
      }

      .cls-17 {
        fill: #cd836f;
      }

      .cls-18 {
        letter-spacing: -.09em;
      }

      .cls-19 {
        letter-spacing: -.02em;
      }

      .cls-20 {
        letter-spacing: -.03em;
      }

      .cls-21 {
        letter-spacing: -.02em;
      }

      .cls-22 {
        letter-spacing: -.02em;
      }

      .cls-23 {
        letter-spacing: -.02em;
      }

      .cls-24 {
        letter-spacing: -.03em;
      }

      .cls-25 {
        letter-spacing: -.03em;
      }

      .cls-26 {
        letter-spacing: -.01em;
      }

      .cls-27 {
        fill: #616161;
        font-family: OpenSans-Medium, 'Open Sans';
        font-size: 11.42px;
        font-weight: 500;
      }

      .cls-14 {
        stroke: #cd836f;
      }
    </style>
  </defs>
  <g>
    <text class="cls-1" transform="translate(29.38 144.83)"><tspan class="cls-22" x="0" y="0">4</tspan><tspan class="cls-20" x="10.38" y="0">,</tspan><tspan x="14.69" y="0">8%</tspan></text>
    <text class="cls-1" transform="translate(110.82 137.03)"><tspan class="cls-19" x="0" y="0">5</tspan><tspan x="9.79" y="0">,4%</tspan></text>
    <line class="cls-11" x1="121.81" y1="150.94" x2="121.81" y2="195.45"/>
    <line class="cls-11" x1="58.7" y1="157.91" x2="58.7" y2="195.45"/>
    <line class="cls-10" x1="28.32" y1="195.49" x2="179.27" y2="195.49"/>
    <g>
      <text class="cls-4" transform="translate(8.13 198.61)"><tspan x="0" y="0">0%</tspan></text>
      <text class="cls-4" transform="translate(3.48 118.28)"><tspan x="0" y="0">10%</tspan></text>
    </g>
    <line class="cls-8" x1="28.32" y1="114.33" x2="40.08" y2="114.33"/>
    <g class="cls-16">
      <line class="cls-13" x1="58.73" y1="157.85" x2="120.72" y2="150.68"/>
    </g>
    <circle class="cls-17" cx="120.72" cy="150.76" r="6.08"/>
    <circle class="cls-17" cx="58.81" cy="158.04" r="6.08"/>
    <text class="cls-5" transform="translate(46.21 210.11)"><tspan x="0" y="0">2021</tspan></text>
    <text class="cls-3" transform="translate(110.63 210.11)"><tspan x="0" y="0">20</tspan><tspan class="cls-23" x="14.65" y="0">2</tspan><tspan x="21.48" y="0">4</tspan></text>
  </g>
  <g>
    <text class="cls-1" transform="translate(252.23 348.65)"><tspan x="0" y="0">2</tspan><tspan class="cls-18" x="10" y="0">,</tspan><tspan x="13.31" y="0">1%</tspan></text>
    <text class="cls-1" transform="translate(323.02 342.65)"><tspan x="0" y="0">2,4%</tspan></text>
    <line class="cls-11" x1="344.07" y1="356.55" x2="344.07" y2="374.98"/>
    <line class="cls-11" x1="280.97" y1="360.89" x2="280.97" y2="374.98"/>
    <line class="cls-10" x1="250.59" y1="375.02" x2="401.53" y2="375.02"/>
    <g>
      <text class="cls-4" transform="translate(230.39 378.13)"><tspan x="0" y="0">0%</tspan></text>
      <text class="cls-4" transform="translate(225.74 297.81)"><tspan x="0" y="0">10%</tspan></text>
    </g>
    <line class="cls-8" x1="250.59" y1="293.86" x2="262.34" y2="293.86"/>
    <g class="cls-16">
      <line class="cls-13" x1="280.99" y1="360.82" x2="342.98" y2="356.3"/>
    </g>
    <circle class="cls-17" cx="342.98" cy="356.38" r="6.08"/>
    <circle class="cls-17" cx="281.08" cy="361.02" r="6.08"/>
    <text class="cls-5" transform="translate(268.47 389.63)"><tspan x="0" y="0">2021</tspan></text>
    <text class="cls-3" transform="translate(332.89 389.63)"><tspan x="0" y="0">20</tspan><tspan class="cls-23" x="14.65" y="0">2</tspan><tspan x="21.48" y="0">4</tspan></text>
  </g>
  <g>
    <text class="cls-1" transform="translate(251.51 106.51)"><tspan x="0" y="0">2</tspan><tspan class="cls-19" x="10" y="0">5</tspan><tspan class="cls-24" x="19.79" y="0">,</tspan><tspan class="cls-15" x="24.08" y="0">0%</tspan></text>
    <text class="cls-1" transform="translate(327.86 101.79)"><tspan x="0" y="0">2</tspan><tspan class="cls-25" x="10" y="0">6</tspan><tspan class="cls-15" x="19.93" y="0">,2%</tspan></text>
    <line class="cls-11" x1="342.06" y1="115.14" x2="342.06" y2="195.45"/>
    <line class="cls-11" x1="278.95" y1="119.42" x2="278.95" y2="195.45"/>
    <line class="cls-12" x1="248.57" y1="195.49" x2="399.52" y2="195.49"/>
    <g>
      <text class="cls-4" transform="translate(228.37 198.61)"><tspan x="0" y="0">0%</tspan></text>
      <text class="cls-4" transform="translate(222.32 139.91)"><tspan x="0" y="0">20%</tspan></text>
    </g>
    <line class="cls-9" x1="248.57" y1="135.49" x2="260.33" y2="135.49"/>
    <text class="cls-4" transform="translate(223.73 170.21)"><tspan x="0" y="0">10%</tspan></text>
    <line class="cls-9" x1="248.57" y1="165.49" x2="260.33" y2="165.49"/>
    <line class="cls-14" x1="278.97" y1="119.35" x2="340.97" y2="114.88"/>
    <circle class="cls-17" cx="340.96" cy="114.97" r="6.08"/>
    <circle class="cls-17" cx="279.06" cy="119.54" r="6.08"/>
    <text class="cls-5" transform="translate(266.46 210.11)"><tspan x="0" y="0">2021</tspan></text>
    <text class="cls-3" transform="translate(330.88 210.11)"><tspan x="0" y="0">20</tspan><tspan class="cls-23" x="14.65" y="0">2</tspan><tspan x="21.48" y="0">4</tspan></text>
  </g>
  <g>
    <text class="cls-2" transform="translate(48.91 293.24)"><tspan class="cls-21" x="0" y="0">8</tspan><tspan class="cls-26" x="10.05" y="0">,</tspan><tspan x="14.61" y="0">9%</tspan></text>
    <text class="cls-2" transform="translate(105.89 325.1)"><tspan class="cls-19" x="0" y="0">5</tspan><tspan x="9.79" y="0">,4%</tspan></text>
    <line class="cls-11" x1="120.09" y1="338.45" x2="120.09" y2="374.98"/>
    <line class="cls-11" x1="56.98" y1="307.41" x2="56.98" y2="374.98"/>
    <line class="cls-10" x1="26.6" y1="375.02" x2="177.55" y2="375.02"/>
    <g>
      <text class="cls-4" transform="translate(6.41 378.13)"><tspan x="0" y="0">0%</tspan></text>
      <text class="cls-4" transform="translate(1.76 297.81)"><tspan x="0" y="0">10%</tspan></text>
    </g>
    <line class="cls-8" x1="26.6" y1="293.86" x2="38.36" y2="293.86"/>
    <g class="cls-16">
      <line class="cls-7" x1="57.01" y1="307.35" x2="119" y2="338.19"/>
    </g>
    <circle class="cls-6" cx="119" cy="338.28" r="6.08"/>
    <circle class="cls-6" cx="57.09" cy="307.54" r="6.08"/>
    <text class="cls-5" transform="translate(44.49 389.63)"><tspan x="0" y="0">2021</tspan></text>
    <text class="cls-3" transform="translate(108.91 389.63)"><tspan x="0" y="0">2023</tspan></text>
  </g>
  <text class="cls-27" transform="translate(14.22 51.33)"><tspan x="0" y="0">Consum de begudes</tspan><tspan x="0" y="13.7">ensucrades en infants</tspan><tspan x="0" y="27.4">de 3 a 14 anys en %</tspan></text>
  <text class="cls-27" transform="translate(236.34 51.33)"><tspan x="0" y="0">Població de 65 anys i</tspan><tspan x="0" y="13.7">més amb manca</tspan><tspan x="0" y="27.4">d&apos;autonomia personavl</tspan></text>
  <text class="cls-27" transform="translate(14.22 238.28)"><tspan x="0" y="0">Possible trastorn per l’ús de</tspan><tspan x="0" y="13.7">videojocs entre la població</tspan><tspan x="0" y="27.4">d&apos;estudiants de 14 a 18 anys</tspan></text>
  <text class="cls-27" transform="translate(236.34 238.28)"><tspan x="0" y="0">Consum problemàtic</tspan><tspan x="0" y="13.7">de cànnabis entre la</tspan><tspan x="0" y="27.4">població de 15 a 64 anys</tspan></text>
</svg>