<?xml version="1.0" encoding="UTF-8"?>
<svg id="Capa_1" data-name="Capa 1" xmlns="http://www.w3.org/2000/svg" viewBox="0 0 884.47 598.85">
  <defs>
    <style>
      .cls-1, .cls-2 {
        font-size: 30.76px;
      }

      .cls-1, .cls-2, .cls-3 {
        font-family: OpenSans-ExtraBold, 'Open Sans';
      }

      .cls-1, .cls-2, .cls-3, .cls-4, .cls-5, .cls-6 {
        font-weight: 700;
      }

      .cls-7 {
        fill: #c98392;
      }

      .cls-8, .cls-9, .cls-4, .cls-10 {
        font-size: 12.82px;
      }

      .cls-8, .cls-9, .cls-10 {
        font-family: Inter-SemiBold, Inter;
        font-weight: 600;
      }

      .cls-2, .cls-3, .cls-4, .cls-5, .cls-11, .cls-6 {
        fill: #fff;
      }

      .cls-3 {
        font-size: 30.76px;
      }

      .cls-12, .cls-13, .cls-14 {
        stroke-miterlimit: 10;
      }

      .cls-12, .cls-13, .cls-14, .cls-15, .cls-16 {
        stroke: #fff;
      }

      .cls-12, .cls-13, .cls-15 {
        stroke-width: 4px;
      }

      .cls-12, .cls-14, .cls-15, .cls-16 {
        fill: none;
      }

      .cls-13, .cls-17 {
        fill: #ba4760;
      }

      .cls-9 {
        letter-spacing: 0em;
      }

      .cls-18 {
        fill: #ce6f45;
      }

      .cls-4, .cls-5, .cls-6 {
        font-family: Inter-Bold, Inter;
      }

      .cls-5 {
        font-size: 12.82px;
      }

      .cls-19 {
        letter-spacing: 0em;
      }

      .cls-14 {
        stroke-width: .25px;
      }

      .cls-10, .cls-20 {
        letter-spacing: -.02em;
      }

      .cls-15, .cls-16 {
        stroke-linecap: round;
        stroke-linejoin: round;
      }

      .cls-16 {
        stroke-width: 3px;
      }

      .cls-21 {
        letter-spacing: -.06em;
      }

      .cls-22 {
        fill: #842c00;
      }

      .cls-6 {
        font-size: 14.44px;
      }

      .cls-23 {
        letter-spacing: -.03em;
      }

      .cls-24 {
        letter-spacing: -.02em;
      }

      .cls-25 {
        letter-spacing: -.02em;
      }

      .cls-26 {
        letter-spacing: -.02em;
      }

      .cls-27 {
        letter-spacing: -.02em;
      }

      .cls-28 {
        letter-spacing: -.02em;
      }

      .cls-29 {
        letter-spacing: -.04em;
      }

      .cls-30 {
        letter-spacing: 0em;
      }

      .cls-31 {
        letter-spacing: 0em;
      }

      .cls-32 {
        letter-spacing: 0em;
      }

      .cls-33 {
        letter-spacing: 0em;
      }

      .cls-34 {
        letter-spacing: 0em;
      }
    </style>
  </defs>
  <g>
    <circle class="cls-22" cx="362.36" cy="113.97" r="79.97"/>
    <circle class="cls-18" cx="735.15" cy="339.38" r="79.97"/>
    <circle class="cls-22" cx="136.4" cy="370.18" r="71.04"/>
    <circle class="cls-7" cx="457.77" cy="461.74" r="105.14"/>
    <circle class="cls-17" cx="520.59" cy="245.69" r="105.14"/>
    <circle class="cls-17" cx="261.21" cy="472.61" r="71.04"/>
    <circle class="cls-18" cx="322.24" cy="299.41" r="71.04"/>
    <circle class="cls-22" cx="653.25" cy="486.06" r="71.04"/>
    <circle class="cls-7" cx="164.91" cy="178.69" r="105.14"/>
    <circle class="cls-17" cx="719.57" cy="137.11" r="105.14"/>
  </g>
  <rect class="cls-14" x=".12" y=".12" width="884.22" height="598.6"/>
  <g>
    <g>
      <text class="cls-2" transform="translate(320.76 85.71)"><tspan x="0" y="0">33%</tspan></text>
      <text class="cls-4" transform="translate(320.76 103.29)"><tspan x="0" y="0">dels nens de 3 a </tspan><tspan x="0" y="15.38">14 a</tspan><tspan class="cls-20" x="25.37" y="15.38">n</tspan><tspan x="33.09" y="15.38">ys </tspan><tspan class="cls-20" x="50.77" y="15.38">f</tspan><tspan x="55.46" y="15.38">an un </tspan><tspan x="0" y="30.76">consum f</tspan><tspan class="cls-23" x="58.14" y="30.76">r</tspan><tspan x="63.05" y="30.76">eqüent </tspan><tspan x="0" y="46.15">d´alimen</tspan><tspan class="cls-34" x="56.25" y="46.15">t</tspan><tspan x="61.13" y="46.15">s </tspan><tspan x="0" y="61.53">hipe</tspan><tspan class="cls-23" x="27.26" y="61.53">r</tspan><tspan x="32.17" y="61.53">calòrics</tspan></text>
    </g>
    <g>
      <text class="cls-2" transform="translate(693.54 311.13)"><tspan x="0" y="0">33%</tspan></text>
      <text class="cls-4" transform="translate(693.54 328.7)"><tspan x="0" y="0">dels nens de 3 a </tspan><tspan x="0" y="15.38">14 a</tspan><tspan class="cls-20" x="25.37" y="15.38">n</tspan><tspan x="33.09" y="15.38">ys </tspan><tspan class="cls-20" x="50.77" y="15.38">f</tspan><tspan x="55.46" y="15.38">an un </tspan><tspan x="0" y="30.76">consum f</tspan><tspan class="cls-23" x="58.14" y="30.76">r</tspan><tspan x="63.05" y="30.76">eqüent </tspan><tspan x="0" y="46.15">d´alimen</tspan><tspan class="cls-34" x="56.25" y="46.15">t</tspan><tspan x="61.13" y="46.15">s </tspan><tspan x="0" y="61.53">hipe</tspan><tspan class="cls-23" x="27.26" y="61.53">r</tspan><tspan x="32.17" y="61.53">calòrics</tspan></text>
    </g>
    <g>
      <text class="cls-2" transform="translate(95.59 349.66)"><tspan x="0" y="0">14,6%</tspan></text>
      <text class="cls-4" transform="translate(95.59 369.16)"><tspan x="0" y="0">dels adul</tspan><tspan class="cls-32" x="56.5" y="0">t</tspan><tspan x="61.39" y="0">s </tspan><tspan x="0" y="15.38">consumeix </tspan><tspan x="0" y="30.76">begudes </tspan><tspan x="0" y="46.15">ensuc</tspan><tspan class="cls-28" x="38.33" y="46.15">r</tspan><tspan x="43.37" y="46.15">ades</tspan></text>
    </g>
    <g>
      <text class="cls-2" transform="translate(437.42 411.11)"><tspan x="0" y="0">52%</tspan></text>
      <text class="cls-4" transform="translate(437.42 428.68)"><tspan x="0" y="0">dels adul</tspan><tspan class="cls-34" x="56.5" y="0">t</tspan><tspan x="61.39" y="0">s i el</tspan></text>
      <text class="cls-2" transform="translate(437.42 465.41)"><tspan x="0" y="0">32%</tspan></text>
      <text class="cls-4" transform="translate(437.42 483.62)"><tspan x="0" y="0">dels menors</tspan><tspan x="0" y="15.38">de 6 a 12 a</tspan><tspan class="cls-20" x="65.38" y="15.38">n</tspan><tspan x="73.1" y="15.38">ys </tspan><tspan class="cls-30" x="0" y="30.76">t</tspan><tspan class="cls-19" x="4.91" y="30.76">enen sob</tspan><tspan class="cls-23" x="62.35" y="30.76">r</tspan><tspan x="67.26" y="30.76">epes</tspan><tspan x="0" y="46.15">o obesitat</tspan></text>
      <g>
        <path class="cls-11" d="M374.86,433.85v41.91c.49,4.25,3.63,7.53,7.93,7.94h41.75c4.26-.28,7.77-3.65,8.11-7.93l-.03-42.44c-.8-4.69-4.16-7.28-8.82-7.58-2.76-.18-7,.45-9.47-.01-.46-.09-1.76-1.11-2.4-1.42-5.2-2.52-11.12-2.43-16.32.03-.61.29-1.98,1.31-2.43,1.4-2.41.45-6.6-.16-9.29,0-4.98.3-8.37,3.07-9.02,8.11ZM402.02,466.05v14.18h-19.23c-2,0-4.5-2.6-4.46-4.65v-41.37c-.02-2.39,2.44-5,4.83-5h6.11c-1.27,1.84-2.59,3.68-3.44,5.77-.52,1.3-.96,2.07-.1,3.33.93,1.36,3.99,5.39,5.1,6.38.4.35.9.58,1.43.57,7.21-.06,22.98,0,22.98,0,0,0,.8-.07,1.16-.3,1.66-2.06,3.8-4.22,5.3-6.37.25-.35.69-.86.73-1.29.1-.96-1.49-4.12-2.04-5.05-.23-.39-2.13-2.89-1.97-3.04h5.92c1.86,0,4.83,2.36,4.83,4.28v21.59s.03,10.96.03,10.96h-.03v9.9c0,1.67-2.61,4.28-4.28,4.28h-19.41v-14.18s-3.46,0-3.46,0Z"/>
        <path class="cls-7" d="M406.4,441.78c-.34-3.15-4.87-3.07-5.29,0h5.29Z"/>
        <line class="cls-7" x1="401.11" y1="441.78" x2="406.4" y2="441.78"/>
        <path class="cls-7" d="M406.03,436.42c1.34-1.13,3.22-5.6,5.38-3.93s-1.87,4.52-2.59,6.11l1.39,3.1h4.56s3.74-4.66,3.74-4.66c.29-.66-.67-2.31-1.04-2.96-6.82-12.05-23.91-10.21-28.57,2.52l4.01,5.09,4.54.08c.52-3.97,4.71-6.89,8.59-5.35Z"/>
      </g>
    </g>
    <g>
      <text class="cls-2" transform="translate(482.72 210.17)"><tspan x="0" y="0">1</tspan></text>
      <g>
        <text class="cls-6" transform="translate(501.82 209.45)"><tspan class="cls-26" x="0" y="0">de cada 2 j</tspan><tspan class="cls-29" x="72.13" y="0">ov</tspan><tspan class="cls-26" x="88.36" y="0">es</tspan></text>
        <text class="cls-11" transform="translate(483.39 242.08)"><tspan class="cls-1" x="0" y="0">14-18</tspan><tspan class="cls-8" x="81.88" y="0" xml:space="preserve"> a</tspan><tspan class="cls-10" x="92.43" y="0">n</tspan><tspan class="cls-9" x="99.99" y="0">ys</tspan></text>
        <text class="cls-4" transform="translate(493.22 261.87)"><tspan x="0" y="0">ha consumit</tspan><tspan x="0" y="15.38">alcohol el dar</tspan><tspan class="cls-23" x="83.58" y="15.38">r</tspan><tspan x="88.5" y="15.38">er</tspan><tspan x="0" y="30.76">mes i 1 de cada 4</tspan><tspan x="0" y="46.15">un consum</tspan><tspan x="0" y="61.53">in</tspan><tspan class="cls-30" x="11.46" y="61.53">t</tspan><tspan class="cls-19" x="16.36" y="61.53">ensiu</tspan></text>
      </g>
    </g>
    <g>
      <text class="cls-2" transform="translate(225.76 476.19)"><tspan x="0" y="0">18%</tspan></text>
      <text class="cls-4" transform="translate(229.75 493.76)"><tspan x="0" y="0">dels adul</tspan><tspan class="cls-32" x="56.5" y="0">t</tspan><tspan x="61.39" y="0">s </tspan><tspan x="0" y="15.38">fumadors </tspan><tspan x="0" y="30.76">habituals</tspan></text>
      <g>
        <rect class="cls-11" x="248.38" y="434.92" width="36.84" height="7.32"/>
        <rect class="cls-11" x="244.34" y="434.92" width="2.26" height="7.32"/>
        <rect class="cls-11" x="240.28" y="434.92" width="2.26" height="7.32"/>
        <path class="cls-11" d="M264.82,411.12l-1.72,1.47c.87.91,2.35,2.89,2.35,5.83,0,6.26-5.9,7.69-11.11,8.95-4.67,1.13-8.78,2.13-9.77,5.75h2.41c.87-1.68,3.28-2.43,7.89-3.55,2.68-.65,5.73-1.39,8.15-2.87,3.11-1.9,4.68-4.68,4.68-8.27s-1.74-6.07-2.89-7.3"/>
        <path class="cls-11" d="M261.73,413.77l-1.72,1.47c.18.16,1.38,1.28,1.38,3.18,0,2.66-1.8,3.5-8.01,5.01-2.75.67-5.86,1.42-8.35,2.96-2.63,1.62-4.17,3.89-4.62,6.74h2.29c1.02-5.03,6.4-6.34,11.21-7.5,5.22-1.27,9.74-2.36,9.74-7.2,0-2.42-1.28-4.01-1.92-4.65"/>
      </g>
    </g>
    <text class="cls-2" transform="translate(292.54 303.76)"><tspan x="0" y="0">40%</tspan></text>
    <text class="cls-4" transform="translate(292.54 321.33)"><tspan x="0" y="0">dels j</tspan><tspan class="cls-25" x="32.95" y="0">ov</tspan><tspan x="47.86" y="0">es</tspan><tspan class="cls-31" x="0" y="15.38">t</tspan><tspan x="4.91" y="15.38">enen oci</tspan><tspan x="0" y="30.76">sedentari</tspan></text>
    <text class="cls-2" transform="translate(626.07 489.15)"><tspan x="0" y="0">40%</tspan></text>
    <text class="cls-4" transform="translate(626.07 506.72)"><tspan x="0" y="0">dels j</tspan><tspan class="cls-25" x="32.95" y="0">ov</tspan><tspan x="47.86" y="0">es</tspan><tspan class="cls-31" x="0" y="15.38">t</tspan><tspan x="4.91" y="15.38">enen oci</tspan><tspan x="0" y="30.76">sedentari</tspan></text>
    <text class="cls-3" transform="translate(152.56 162.52) rotate(.1)"><tspan x="0" y="0">32,9%</tspan></text>
    <text class="cls-5" transform="translate(152.49 183.06) rotate(.1)"><tspan x="0" y="0">de la població </tspan><tspan x="0" y="15.38">major de 15 </tspan><tspan x="0" y="30.76">a</tspan><tspan class="cls-27" x="7.44" y="30.76">n</tspan><tspan x="15.15" y="30.76">ys </tspan><tspan class="cls-27" x="32.84" y="30.76">f</tspan><tspan x="37.53" y="30.76">an un </tspan><tspan x="0" y="46.15">ni</tspan><tspan class="cls-24" x="11.46" y="46.15">v</tspan><tspan x="18.74" y="46.15">ell baix </tspan><tspan x="0" y="61.53">d</tspan><tspan class="cls-21" x="8.14" y="61.53">’</tspan><tspan x="10.34" y="61.53">activitat </tspan><tspan x="0" y="76.91">física</tspan></text>
    <text class="cls-3" transform="translate(708.17 107.67) rotate(.1)"><tspan x="0" y="0">16%</tspan></text>
    <text class="cls-5" transform="translate(708.12 125.23) rotate(.1)"><tspan x="0" y="0">dels adul</tspan><tspan class="cls-33" x="56.5" y="0">t</tspan><tspan x="61.39" y="0">s </tspan><tspan x="0" y="15.38">consumeix </tspan><tspan x="0" y="30.76">psico</tspan><tspan class="cls-27" x="34.19" y="30.76">f</tspan><tspan x="38.88" y="30.76">àrmacs </tspan><tspan x="0" y="46.15">habitualment</tspan></text>
    <g>
      <rect class="cls-12" x="655.22" y="86.86" width="24.98" height="66.34" rx="11.87" ry="11.87" transform="translate(150.27 -318.72) rotate(30.1)"/>
      <line class="cls-12" x1="657.3" y1="113.09" x2="678.91" y2="125.62"/>
    </g>
    <g>
      <circle class="cls-13" cx="680.37" cy="137.81" r="17.96"/>
      <line class="cls-12" x1="661" y1="137.3" x2="700.22" y2="137.37"/>
    </g>
    <path class="cls-16" d="M474.48,229.31c0-4.52-1.12-8.92-3.18-12.53l-1.59-2.78c-2.07-3.61-3.18-8.01-3.18-12.53v-6.96c0-.92-.28-1.81-.78-2.46-.5-.65-1.17-1.02-1.87-1.02h-5.3c-.7,0-1.38.37-1.87,1.02-.5.65-.78,1.54-.78,2.46v6.96c0,4.52-1.12,8.92-3.18,12.53l-1.59,2.78c-2.07,3.61-3.18,8.01-3.18,12.53v27.84c0,.92.28,1.81.78,2.46.5.65,1.17,1.02,1.87,1.02h21.21c.7,0,1.38-.37,1.87-1.02.5-.65.78-1.54.78-2.46v-27.84ZM474.48,229.31h-10.61c-.7,0-1.38.37-1.87,1.02-.5.65-.78,1.54-.78,2.46v10.44c0,.92.28,1.81.78,2.46.5.65,1.17,1.02,1.87,1.02h10.61"/>
    <path class="cls-16" d="M310.02,255.73h8.32M314.17,251.57v8.32M328.73,257.81h.02M334.97,253.65h.02M333.56,243.25h-22.13c-2.06,0-4.04.76-5.57,2.14-1.53,1.38-2.49,3.28-2.7,5.32-.01.11-.02.21-.03.32-.17,1.4-1.42,11.88-1.42,15.09,0,1.65.66,3.24,1.83,4.41,1.17,1.17,2.76,1.83,4.41,1.83,2.08,0,3.12-1.04,4.16-2.08l2.94-2.94c.78-.78,1.84-1.22,2.94-1.22h9.03c1.1,0,2.16.44,2.94,1.22l2.94,2.94c1.04,1.04,2.08,2.08,4.16,2.08,1.65,0,3.24-.66,4.41-1.83,1.17-1.17,1.83-2.76,1.83-4.41,0-3.21-1.26-13.69-1.42-15.09-.01-.1-.02-.21-.03-.31-.21-2.05-1.17-3.94-2.7-5.32-1.53-1.38-3.51-2.14-5.57-2.14Z"/>
    <path class="cls-16" d="M640.29,441.68h8.32M644.45,437.52v8.32M659.01,443.76h.02M665.25,439.6h.02M663.83,429.21h-22.13c-2.06,0-4.04.76-5.57,2.14-1.53,1.38-2.49,3.28-2.7,5.32-.01.11-.02.21-.03.32-.17,1.4-1.42,11.88-1.42,15.09,0,1.65.66,3.24,1.83,4.41,1.17,1.17,2.76,1.83,4.41,1.83,2.08,0,3.12-1.04,4.16-2.08l2.94-2.94c.78-.78,1.84-1.22,2.94-1.22h9.03c1.1,0,2.16.44,2.94,1.22l2.94,2.94c1.04,1.04,2.08,2.08,4.16,2.08,1.65,0,3.24-.66,4.41-1.83,1.17-1.17,1.83-2.76,1.83-4.41,0-3.21-1.26-13.69-1.42-15.09-.01-.1-.02-.21-.03-.31-.21-2.05-1.17-3.94-2.7-5.32-1.53-1.38-3.51-2.14-5.57-2.14Z"/>
    <path class="cls-15" d="M135.28,147.39v-8.26c0-1.46-.58-2.86-1.61-3.89-1.03-1.03-2.43-1.61-3.89-1.61h-27.52c-1.46,0-2.86.58-3.89,1.61-1.03,1.03-1.61,2.43-1.61,3.89v8.26M135.28,147.39c1.46,0,2.86.58,3.89,1.61,1.03,1.03,1.61,2.43,1.61,3.89v13.76c0,1.46-.58,2.86-1.61,3.89s-2.43,1.61-3.89,1.61M135.28,147.39c-1.46,0-2.86.58-3.89,1.61-1.03,1.03-1.61,2.43-1.61,3.89v4.13c0,.36-.14.72-.4.97-.26.26-.61.4-.97.4h-24.77c-.36,0-.72-.14-.97-.4-.26-.26-.4-.61-.4-.97v-4.13c0-1.46-.58-2.86-1.61-3.89-1.03-1.03-2.43-1.61-3.89-1.61M96.75,147.39c-1.46,0-2.86.58-3.89,1.61-1.03,1.03-1.61,2.43-1.61,3.89v13.76c0,1.46.58,2.86,1.61,3.89s2.43,1.61,3.89,1.61M96.75,172.16h38.53M96.75,172.16v5.5M135.28,172.16v5.5"/>
  </g>
</svg>