<?xml version="1.0" encoding="UTF-8"?>
<svg id="Capa_1" data-name="Capa 1" xmlns="http://www.w3.org/2000/svg" viewBox="0 0 406.79 392.6">
  <defs>
    <style>
      .cls-1 {
        fill: #b64e31;
        font-size: 16.09px;
      }

      .cls-1, .cls-2 {
        font-family: Inter-SemiBold, Inter;
        font-weight: 600;
      }

      .cls-3, .cls-4 {
        fill: #99c4c8;
      }

      .cls-3, .cls-5, .cls-6, .cls-7 {
        opacity: .8;
      }

      .cls-8, .cls-9 {
        isolation: isolate;
      }

      .cls-8, .cls-10, .cls-11 {
        fill: #616161;
      }

      .cls-8, .cls-11 {
        font-family: Inter-Medium, Inter;
        font-size: 14.27px;
        font-weight: 500;
      }

      .cls-12 {
        stroke: #8b898e;
        stroke-linecap: square;
        stroke-width: 1.07px;
      }

      .cls-12, .cls-13 {
        fill: none;
      }

      .cls-13 {
        stroke: #b9b8bb;
        stroke-miterlimit: 10;
        stroke-width: 1.43px;
      }

      .cls-2 {
        fill: #709ea2;
        font-size: 16.09px;
      }

      .cls-14 {
        letter-spacing: 0em;
      }

      .cls-15 {
        letter-spacing: 0em;
      }

      .cls-16, .cls-5 {
        fill: #f15a33;
      }

      .cls-9 {
        fill: #8b898e;
        font-size: 12.79px;
      }

      .cls-9, .cls-10 {
        font-family: Inter-Regular, Inter;
        font-variation-settings: 'wght' 400, 'slnt' 0;
      }

      .cls-10 {
        font-size: 12.64px;
      }

      .cls-17, .cls-7 {
        fill: #e7e5db;
      }

      .cls-18 {
        letter-spacing: -.09em;
      }

      .cls-19 {
        letter-spacing: -.12em;
      }

      .cls-20 {
        letter-spacing: -.02em;
      }

      .cls-21 {
        letter-spacing: -.03em;
      }

      .cls-22 {
        letter-spacing: -.02em;
      }

      .cls-23 {
        letter-spacing: -.02em;
      }

      .cls-24 {
        letter-spacing: -.03em;
      }

      .cls-25 {
        letter-spacing: -.03em;
      }

      .cls-26 {
        letter-spacing: -.03em;
      }

      .cls-27 {
        letter-spacing: -.01em;
      }

      .cls-28 {
        letter-spacing: 0em;
      }
    </style>
  </defs>
  <g class="cls-6">
    <path id="point-1-0" class="cls-16" d="M80.04,78.51v27.59s29.26,0,29.26,0v-27.59s-29.26,0-29.26,0Z"/>
    <path id="point-2-0" class="cls-4" d="M80.04,109.01v27.59s11.49,0,11.49,0v-27.59s-11.49,0-11.49,0Z"/>
  </g>
  <text class="cls-8" transform="translate(40.95 310.2)"><tspan x="0" y="0">Baix</tspan></text>
  <text class="cls-8" transform="translate(36.48 206.91)"><tspan x="0" y="0">Mitjà</tspan></text>
  <text class="cls-8" transform="translate(50.98 120.46)"><tspan x="0" y="0">Alt</tspan></text>
  <text class="cls-9" transform="translate(71.7 382.42)"><tspan x="0" y="0">0%</tspan></text>
  <text class="cls-9" transform="translate(379.12 382.42)"><tspan x="0" y="0">80%</tspan></text>
  <text class="cls-9" transform="translate(304.34 382.42)"><tspan x="0" y="0">60%</tspan></text>
  <text class="cls-9" transform="translate(220.56 382.42)"><tspan x="0" y="0">40%</tspan></text>
  <text class="cls-9" transform="translate(146.35 382.42)"><tspan x="0" y="0">20%</tspan></text>
  <text class="cls-2" transform="translate(100.02 129.53) rotate(-.59)"><tspan class="cls-26" x="0" y="0">6</tspan><tspan class="cls-27" x="9.93" y="0">,</tspan><tspan x="14.49" y="0">9%</tspan></text>
  <text class="cls-1" transform="translate(117.46 98.02)"><tspan x="0" y="0">1</tspan><tspan class="cls-22" x="7.74" y="0">3</tspan><tspan class="cls-20" x="17.88" y="0">,</tspan><tspan x="22.26" y="0">7%</tspan></text>
  <g>
    <text class="cls-11" transform="translate(116.92 45.56)"><tspan x="0" y="0">HOMES</tspan></text>
    <text class="cls-11" transform="translate(221.69 45.56)"><tspan x="0" y="0">MI</tspan><tspan class="cls-18" x="16.66" y="0">T</tspan><tspan x="24.65" y="0">JA</tspan></text>
    <text class="cls-11" transform="translate(25.94 44.71)"><tspan x="0" y="0">DONES</tspan></text>
    <g>
      <rect class="cls-5" x=".94" y="32.02" width="16.36" height="16.36" transform="translate(-31.08 49.32) rotate(-90)"/>
      <rect class="cls-3" x="92.81" y="32.02" width="16.36" height="16.36" transform="translate(60.8 141.19) rotate(-90)"/>
      <rect class="cls-17" x="199.88" y="32.02" width="16.36" height="16.36" transform="translate(167.86 248.26) rotate(-90)"/>
    </g>
  </g>
  <path id="point-2-2" class="cls-7" d="M80.04,141.09v13.79s21.09,0,21.09,0v-13.79s-21.09,0-21.09,0Z"/>
  <text class="cls-10" transform="translate(108.65 152.2)"><tspan x="0" y="0">1</tspan><tspan class="cls-21" x="5.87" y="0">0,</tspan><tspan x="16.67" y="0">0%</tspan></text>
  <g class="cls-6">
    <path id="point-1-0-2" data-name="point-1-0" class="cls-16" d="M80.04,172.43v27.59s238.51,0,238.51,0v-27.59s-238.51,0-238.51,0Z"/>
    <path id="point-2-0-2" data-name="point-2-0" class="cls-4" d="M80.04,202.93v27.59s243.63,0,243.63,0v-27.59s-243.63,0-243.63,0Z"/>
  </g>
  <text class="cls-2" transform="translate(327.2 223.45) rotate(-.59)"><tspan x="0" y="0">6</tspan><tspan class="cls-25" x="10.43" y="0">0</tspan><tspan class="cls-23" x="20.7" y="0">,</tspan><tspan class="cls-15" x="25.09" y="0">7%</tspan></text>
  <text class="cls-1" transform="translate(324.53 191.95)"><tspan x="0" y="0">5</tspan><tspan class="cls-24" x="10.18" y="0">9</tspan><tspan class="cls-14" x="20.15" y="0">,2%</tspan></text>
  <path id="point-2-2-2" data-name="point-2-2" class="cls-7" d="M80.04,235.01v13.79s239.32,0,239.32,0v-13.79s-239.32,0-239.32,0Z"/>
  <text class="cls-10" transform="translate(326.88 246.12)"><tspan x="0" y="0">6</tspan><tspan class="cls-21" x="7.88" y="0">0,</tspan><tspan x="18.68" y="0">0%</tspan></text>
  <g class="cls-6">
    <path id="point-1-0-3" data-name="point-1-0" class="cls-16" d="M80.04,266.35v27.59s114,0,114,0v-27.59s-114,0-114,0Z"/>
    <path id="point-2-0-3" data-name="point-2-0" class="cls-4" d="M80.04,296.85v27.59s122.12,0,122.12,0v-27.59s-122.12,0-122.12,0Z"/>
  </g>
  <text class="cls-2" transform="translate(208.6 317.38) rotate(-.59)"><tspan x="0" y="0">32,4%</tspan></text>
  <text class="cls-1" transform="translate(200.74 285.87)"><tspan x="0" y="0">2</tspan><tspan class="cls-19" x="10" y="0">7</tspan><tspan class="cls-28" x="17.43" y="0">,</tspan><tspan x="22.05" y="0">5%</tspan></text>
  <path id="point-2-2-3" data-name="point-2-2" class="cls-7" d="M80.04,328.93v13.79s117.82,0,117.82,0v-13.79s-117.82,0-117.82,0Z"/>
  <text class="cls-10" transform="translate(205.37 340.04)"><tspan x="0" y="0">3</tspan><tspan class="cls-21" x="8.05" y="0">0,</tspan><tspan x="18.84" y="0">0%</tspan></text>
  <line class="cls-12" x1="79.86" y1="73.85" x2="79.86" y2="363.63"/>
  <g>
    <line class="cls-13" x1="158.73" y1="352.45" x2="158.73" y2="363.63"/>
    <line class="cls-13" x1="237.59" y1="352.45" x2="237.59" y2="363.63"/>
    <line class="cls-13" x1="316.45" y1="352.45" x2="316.45" y2="363.63"/>
    <line class="cls-13" x1="395.31" y1="352.45" x2="395.31" y2="363.63"/>
  </g>
</svg>