<?xml version="1.0" encoding="UTF-8"?>
<svg id="Capa_1" data-name="Capa 1" xmlns="http://www.w3.org/2000/svg" xmlns:xlink="http://www.w3.org/1999/xlink" viewBox="0 0 406.79 392.6">
  <defs>
    <style>
      .cls-1, .cls-2, .cls-3, .cls-4, .cls-5, .cls-6, .cls-7 {
        fill: none;
      }

      .cls-8, .cls-9 {
        fill: #fff;
        stroke-width: 4px;
      }

      .cls-8, .cls-9, .cls-2, .cls-3, .cls-4, .cls-5, .cls-6, .cls-7 {
        stroke-miterlimit: 10;
      }

      .cls-8, .cls-7 {
        stroke: #f89d64;
      }

      .cls-9, .cls-2 {
        stroke: #59858d;
      }

      .cls-2 {
        stroke-width: 5px;
      }

      .cls-3 {
        stroke-width: 2px;
      }

      .cls-3, .cls-4 {
        stroke: #8b898e;
      }

      .cls-4, .cls-6 {
        stroke-width: .25px;
      }

      .cls-10, .cls-11, .cls-12, .cls-13, .cls-14 {
        font-family: Inter-Bold, Inter;
        font-weight: 700;
      }

      .cls-10, .cls-12 {
        font-size: 14px;
      }

      .cls-10, .cls-13 {
        fill: #59858d;
      }

      .cls-15 {
        letter-spacing: 0em;
      }

      .cls-5, .cls-6 {
        stroke: #dcdcdd;
      }

      .cls-11 {
        font-size: 18.88px;
      }

      .cls-11, .cls-16 {
        fill: #4d4d4d;
      }

      .cls-12, .cls-14 {
        fill: #f36f43;
      }

      .cls-13, .cls-14 {
        font-size: 18px;
      }

      .cls-17 {
        fill: #616161;
        font-family: Inter-Medium, Inter;
        font-size: 14.27px;
        font-weight: 500;
      }

      .cls-16 {
        font-family: Inter-Regular, Inter;
        font-size: 13.25px;
        font-variation-settings: 'wght' 400, 'slnt' 0;
      }

      .cls-18 {
        letter-spacing: -.09em;
      }

      .cls-19 {
        letter-spacing: -.03em;
      }

      .cls-20 {
        letter-spacing: -.03em;
      }

      .cls-21 {
        letter-spacing: -.03em;
      }

      .cls-22 {
        letter-spacing: -.02em;
      }

      .cls-23 {
        letter-spacing: -.02em;
      }

      .cls-7 {
        stroke-width: 6px;
      }

      .cls-24 {
        letter-spacing: -.03em;
      }

      .cls-25 {
        letter-spacing: -.01em;
      }

      .cls-26 {
        clip-path: url(#clippath);
      }
    </style>
    <clipPath id="clippath">
      <polygon class="cls-1" points="61.97 307.3 73.37 283.96 84.83 252.43 96.17 218.28 107.7 196.49 118.96 172.18 130.43 146.41 141.75 134.65 153.15 107.92 164.55 91.76 175.35 90.11 187.05 95.32 198.08 95.32 209.64 102.27 221.01 117.04 232.78 130.5 244.15 132.23 255.51 128.76 267.12 122.25 278.52 106.76 289.91 86.2 301.31 91.85 312.71 91.85 323.86 68.4 340.13 40.52 340.13 353.3 61.97 353.3 61.97 307.3"/>
    </clipPath>
  </defs>
  <g>
    <text class="cls-17" transform="translate(165.11 52.97)"><tspan x="0" y="0">HOMES</tspan></text>
    <text class="cls-17" transform="translate(46.82 52.12)"><tspan x="0" y="0">DONES</tspan></text>
  </g>
  <line class="cls-7" x1="1.85" y1="47.47" x2="32.8" y2="47.47"/>
  <line class="cls-2" x1="121.74" y1="47.47" x2="152.69" y2="47.47"/>
  <g class="cls-26">
    <g>
      <line class="cls-4" x1="61.97" y1="63.37" x2="61.97" y2="352.33"/>
      <line class="cls-6" x1="73.37" y1="63.37" x2="73.37" y2="352.33"/>
      <line class="cls-6" x1="84.77" y1="63.37" x2="84.77" y2="352.33"/>
      <line class="cls-6" x1="96.17" y1="63.37" x2="96.17" y2="352.33"/>
      <line class="cls-6" x1="107.56" y1="63.37" x2="107.56" y2="352.33"/>
      <line class="cls-4" x1="118.96" y1="63.37" x2="118.96" y2="352.33"/>
      <line class="cls-6" x1="130.36" y1="63.37" x2="130.36" y2="352.33"/>
      <line class="cls-6" x1="141.75" y1="63.37" x2="141.75" y2="352.33"/>
      <line class="cls-6" x1="153.15" y1="63.37" x2="153.15" y2="352.33"/>
      <line class="cls-6" x1="164.55" y1="63.37" x2="164.55" y2="352.33"/>
      <line class="cls-4" x1="175.94" y1="63.37" x2="175.94" y2="352.33"/>
      <line class="cls-6" x1="187.34" y1="63.37" x2="187.34" y2="352.33"/>
      <line class="cls-6" x1="198.74" y1="63.37" x2="198.74" y2="352.33"/>
      <line class="cls-6" x1="210.14" y1="63.37" x2="210.14" y2="352.33"/>
      <line class="cls-6" x1="221.53" y1="63.37" x2="221.53" y2="352.33"/>
      <line class="cls-4" x1="232.93" y1="63.37" x2="232.93" y2="352.33"/>
      <line class="cls-6" x1="244.33" y1="63.37" x2="244.33" y2="352.33"/>
      <line class="cls-6" x1="255.72" y1="63.37" x2="255.72" y2="352.33"/>
      <line class="cls-6" x1="267.12" y1="63.37" x2="267.12" y2="352.33"/>
      <line class="cls-6" x1="278.52" y1="63.37" x2="278.52" y2="352.33"/>
      <line class="cls-4" x1="289.91" y1="63.37" x2="289.91" y2="352.33"/>
      <line class="cls-6" x1="301.31" y1="63.37" x2="301.31" y2="352.33"/>
      <line class="cls-6" x1="312.71" y1="63.37" x2="312.71" y2="352.33"/>
      <line class="cls-6" x1="324.11" y1="63.37" x2="324.11" y2="352.33"/>
      <line class="cls-4" x1="335.5" y1="63.37" x2="335.5" y2="352.33"/>
    </g>
  </g>
  <text class="cls-16" transform="translate(5.43 358.15)"><tspan class="cls-19" x="0" y="0">0,</tspan><tspan x="11.31" y="0">0%</tspan></text>
  <text class="cls-16" transform="translate(5.62 276.51)"><tspan class="cls-21" x="0" y="0">5</tspan><tspan class="cls-20" x="7.7" y="0">,</tspan><tspan x="11.07" y="0">0%</tspan></text>
  <text class="cls-16" transform="translate(.8 192.47)"><tspan x="0" y="0">1</tspan><tspan class="cls-19" x="6.15" y="0">0,</tspan><tspan x="17.47" y="0">0%</tspan></text>
  <text class="cls-16" transform="translate(49.39 373.88)"><tspan x="0" y="0">2000</tspan></text>
  <text class="cls-16" transform="translate(97.95 373.88)"><tspan x="0" y="0">2005</tspan></text>
  <text class="cls-16" transform="translate(151.49 373.88)"><tspan x="0" y="0">2010</tspan></text>
  <text class="cls-16" transform="translate(215.58 373.88)"><tspan x="0" y="0">2015</tspan></text>
  <text class="cls-16" transform="translate(265.91 373.88)"><tspan x="0" y="0">2020</tspan></text>
  <text class="cls-11" transform="translate(312.71 374.79)"><tspan x="0" y="0">20</tspan><tspan class="cls-23" x="24.89" y="0">2</tspan><tspan class="cls-15" x="36.49" y="0">4</tspan></text>
  <text class="cls-16" transform="translate(.98 112.87)"><tspan x="0" y="0">1</tspan><tspan class="cls-21" x="6.15" y="0">5</tspan><tspan class="cls-20" x="13.85" y="0">,</tspan><tspan x="17.22" y="0">0%</tspan></text>
  <polyline class="cls-2" points="61.97 299.3 72.98 283.15 84.83 255.59 96.17 221.38 107.7 198.98 118.96 166.8 131.28 142.37 141.75 131.8 153.15 107.92 164.55 94.31 175.35 92.66 187.05 95.32 198.08 95.32 209.64 102.27 221.01 117.04 232.78 130.5 244.15 132.23 255.51 128.76 267.12 122.25 278.52 106.76 289.19 87.65 300.58 93.3 311.98 93.3 324.11 72.12 335.47 56.77"/>
  <polyline class="cls-7" points="61.97 307.25 73.37 294.66 84.77 275.14 96.17 251.11 107.56 238.48 118.96 213.64 130.36 199.79 141.75 189.2 153.15 167.62 163.88 156.1 175.94 154.2 187.34 154.2 198.74 156.21 210.14 161.53 221.53 179.39 232.78 188.04 244.15 191.45 255.72 193.02 267.12 187.17 278.24 178.75 289.91 164.69 301.31 167.3 312.71 163.04 324.11 145.19 335.47 131.8"/>
  <g>
    <line class="cls-5" x1="34.84" y1="351.9" x2="52.08" y2="351.9"/>
    <line class="cls-5" x1="34.84" y1="270.39" x2="52.08" y2="270.39"/>
    <line class="cls-5" x1="34.84" y1="188.87" x2="52.08" y2="188.87"/>
    <line class="cls-5" x1="34.84" y1="107.36" x2="52.08" y2="107.36"/>
  </g>
  <text class="cls-13" transform="translate(348.94 61.52)"><tspan x="0" y="0">1</tspan><tspan class="cls-22" x="8.81" y="0">8</tspan><tspan class="cls-24" x="20.33" y="0">,</tspan><tspan x="25.24" y="0">0%</tspan></text>
  <text class="cls-14" transform="translate(351.73 139.75)"><tspan x="0" y="0">1</tspan><tspan class="cls-22" x="8.81" y="0">3</tspan><tspan x="20.3" y="0">,4%</tspan></text>
  <text class="cls-10" transform="translate(15.35 299.3)"><tspan class="cls-25" x="0" y="0">4</tspan><tspan class="cls-18" x="9.3" y="0">,</tspan><tspan x="12.27" y="0">1%</tspan></text>
  <text class="cls-12" transform="translate(14.14 323.94)"><tspan class="cls-25" x="0" y="0">4</tspan><tspan class="cls-24" x="9.3" y="0">,</tspan><tspan x="13.12" y="0">0%</tspan></text>
  <line class="cls-3" x1="34.84" y1="351.9" x2="405.32" y2="353.3"/>
  <circle class="cls-8" cx="336.48" cy="134.5" r="6.08"/>
  <circle class="cls-9" cx="336.48" cy="57.57" r="6.08"/>
  <circle class="cls-8" cx="62.38" cy="304.44" r="6.08"/>
  <circle class="cls-9" cx="62.38" cy="295.76" r="6.08"/>
</svg>