<?xml version="1.0" encoding="UTF-8"?>
<svg id="Capa_1" data-name="Capa 1" xmlns="http://www.w3.org/2000/svg" xmlns:xlink="http://www.w3.org/1999/xlink" viewBox="0 0 864.94 165.86">
  <defs>
    <style>
      .cls-1 {
        fill: none;
      }

      .cls-2, .cls-3, .cls-4, .cls-5, .cls-6 {
        font-size: 20px;
      }

      .cls-2, .cls-7 {
        fill: #374151;
        font-family: Inter-Bold, Inter;
        font-weight: 700;
      }

      .cls-8 {
        fill: #da7051;
      }

      .cls-9 {
        fill: url(#Degradado_sin_nombre_51-2);
      }

      .cls-10 {
        clip-path: url(#clippath-1);
      }

      .cls-11 {
        font-size: 30px;
      }

      .cls-4 {
        letter-spacing: -.02em;
      }

      .cls-5 {
        letter-spacing: -.02em;
      }

      .cls-12 {
        fill: #e5e7eb;
      }

      .cls-13 {
        fill: #709fa3;
      }

      .cls-14 {
        fill: url(#Degradado_sin_nombre_51);
      }

      .cls-6 {
        letter-spacing: 0em;
      }

      .cls-15 {
        clip-path: url(#clippath);
      }
    </style>
    <clipPath id="clippath">
      <path class="cls-1" d="M398.48,50.99c0,5.58-4.52,10.1-10.1,10.1s-10.1-4.52-10.1-10.1,4.52-10.1,10.1-10.1,10.1,4.52,10.1,10.1ZM410.41,40.89c-5.58,0-10.1,4.52-10.1,10.1s4.52,10.1,10.1,10.1,10.1-4.52,10.1-10.1-4.52-10.1-10.1-10.1ZM432.44,40.89c-5.58,0-10.1,4.52-10.1,10.1s4.52,10.1,10.1,10.1,10.1-4.52,10.1-10.1-4.52-10.1-10.1-10.1ZM454.47,40.89c-5.58,0-10.1,4.52-10.1,10.1s4.52,10.1,10.1,10.1,10.1-4.52,10.1-10.1-4.52-10.1-10.1-10.1ZM476.51,40.89c-5.58,0-10.1,4.52-10.1,10.1s4.52,10.1,10.1,10.1,10.1-4.52,10.1-10.1-4.52-10.1-10.1-10.1ZM498.54,40.89c-5.58,0-10.1,4.52-10.1,10.1s4.52,10.1,10.1,10.1,10.1-4.52,10.1-10.1-4.52-10.1-10.1-10.1ZM520.57,40.89c-5.58,0-10.1,4.52-10.1,10.1s4.52,10.1,10.1,10.1,10.1-4.52,10.1-10.1-4.52-10.1-10.1-10.1ZM542.6,40.89c-5.58,0-10.1,4.52-10.1,10.1s4.52,10.1,10.1,10.1,10.1-4.52,10.1-10.1-4.52-10.1-10.1-10.1ZM564.63,40.89c-5.58,0-10.1,4.52-10.1,10.1s4.52,10.1,10.1,10.1,10.1-4.52,10.1-10.1-4.52-10.1-10.1-10.1ZM586.66,40.89c-5.58,0-10.1,4.52-10.1,10.1s4.52,10.1,10.1,10.1,10.1-4.52,10.1-10.1-4.52-10.1-10.1-10.1ZM388.38,70.79c-5.58,0-10.1,4.52-10.1,10.1s4.52,10.1,10.1,10.1,10.1-4.52,10.1-10.1-4.52-10.1-10.1-10.1ZM410.41,70.79c-5.58,0-10.1,4.52-10.1,10.1s4.52,10.1,10.1,10.1,10.1-4.52,10.1-10.1-4.52-10.1-10.1-10.1ZM432.44,70.79c-5.58,0-10.1,4.52-10.1,10.1s4.52,10.1,10.1,10.1,10.1-4.52,10.1-10.1-4.52-10.1-10.1-10.1ZM454.47,70.79c-5.58,0-10.1,4.52-10.1,10.1s4.52,10.1,10.1,10.1,10.1-4.52,10.1-10.1-4.52-10.1-10.1-10.1ZM476.51,70.79c-5.58,0-10.1,4.52-10.1,10.1s4.52,10.1,10.1,10.1,10.1-4.52,10.1-10.1-4.52-10.1-10.1-10.1ZM498.54,70.79c-5.58,0-10.1,4.52-10.1,10.1s4.52,10.1,10.1,10.1,10.1-4.52,10.1-10.1-4.52-10.1-10.1-10.1ZM520.57,70.79c-5.58,0-10.1,4.52-10.1,10.1s4.52,10.1,10.1,10.1,10.1-4.52,10.1-10.1-4.52-10.1-10.1-10.1ZM542.6,70.79c-5.58,0-10.1,4.52-10.1,10.1s4.52,10.1,10.1,10.1,10.1-4.52,10.1-10.1-4.52-10.1-10.1-10.1ZM564.63,70.79c-5.58,0-10.1,4.52-10.1,10.1s4.52,10.1,10.1,10.1,10.1-4.52,10.1-10.1-4.52-10.1-10.1-10.1ZM586.66,70.79c-5.58,0-10.1,4.52-10.1,10.1s4.52,10.1,10.1,10.1,10.1-4.52,10.1-10.1-4.52-10.1-10.1-10.1ZM610.89,40.89c-5.58,0-10.1,4.52-10.1,10.1s4.52,10.1,10.1,10.1,10.1-4.52,10.1-10.1-4.52-10.1-10.1-10.1ZM632.92,40.89c-5.58,0-10.1,4.52-10.1,10.1s4.52,10.1,10.1,10.1,10.1-4.52,10.1-10.1-4.52-10.1-10.1-10.1ZM654.95,40.89c-5.58,0-10.1,4.52-10.1,10.1s4.52,10.1,10.1,10.1,10.1-4.52,10.1-10.1-4.52-10.1-10.1-10.1ZM610.89,70.79c-5.58,0-10.1,4.52-10.1,10.1s4.52,10.1,10.1,10.1,10.1-4.52,10.1-10.1-4.52-10.1-10.1-10.1ZM632.92,70.79c-5.58,0-10.1,4.52-10.1,10.1s4.52,10.1,10.1,10.1,10.1-4.52,10.1-10.1-4.52-10.1-10.1-10.1ZM654.95,70.79c-5.58,0-10.1,4.52-10.1,10.1s4.52,10.1,10.1,10.1,10.1-4.52,10.1-10.1-4.52-10.1-10.1-10.1Z"/>
    </clipPath>
    <linearGradient id="Degradado_sin_nombre_51" data-name="Degradado sin nombre 51" x1="378.28" y1="68.55" x2="666.75" y2="68.55" gradientUnits="userSpaceOnUse">
      <stop offset="0" stop-color="#e5e7eb"/>
      <stop offset=".93" stop-color="#fff"/>
    </linearGradient>
    <clipPath id="clippath-1">
      <path class="cls-1" d="M398.48,120.67c0,5.58-4.52,10.1-10.1,10.1s-10.1-4.52-10.1-10.1,4.52-10.1,10.1-10.1,10.1,4.52,10.1,10.1ZM410.41,110.57c-5.58,0-10.1,4.52-10.1,10.1s4.52,10.1,10.1,10.1,10.1-4.52,10.1-10.1-4.52-10.1-10.1-10.1ZM432.44,110.57c-5.58,0-10.1,4.52-10.1,10.1s4.52,10.1,10.1,10.1,10.1-4.52,10.1-10.1-4.52-10.1-10.1-10.1ZM454.47,110.57c-5.58,0-10.1,4.52-10.1,10.1s4.52,10.1,10.1,10.1,10.1-4.52,10.1-10.1-4.52-10.1-10.1-10.1ZM476.51,110.57c-5.58,0-10.1,4.52-10.1,10.1s4.52,10.1,10.1,10.1,10.1-4.52,10.1-10.1-4.52-10.1-10.1-10.1ZM498.54,110.57c-5.58,0-10.1,4.52-10.1,10.1s4.52,10.1,10.1,10.1,10.1-4.52,10.1-10.1-4.52-10.1-10.1-10.1ZM520.57,110.57c-5.58,0-10.1,4.52-10.1,10.1s4.52,10.1,10.1,10.1,10.1-4.52,10.1-10.1-4.52-10.1-10.1-10.1ZM542.6,110.57c-5.58,0-10.1,4.52-10.1,10.1s4.52,10.1,10.1,10.1,10.1-4.52,10.1-10.1-4.52-10.1-10.1-10.1ZM564.63,110.57c-5.58,0-10.1,4.52-10.1,10.1s4.52,10.1,10.1,10.1,10.1-4.52,10.1-10.1-4.52-10.1-10.1-10.1ZM586.66,110.57c-5.58,0-10.1,4.52-10.1,10.1s4.52,10.1,10.1,10.1,10.1-4.52,10.1-10.1-4.52-10.1-10.1-10.1ZM388.38,140.47c-5.58,0-10.1,4.52-10.1,10.1s4.52,10.1,10.1,10.1,10.1-4.52,10.1-10.1-4.52-10.1-10.1-10.1ZM410.41,140.47c-5.58,0-10.1,4.52-10.1,10.1s4.52,10.1,10.1,10.1,10.1-4.52,10.1-10.1-4.52-10.1-10.1-10.1ZM432.44,140.47c-5.58,0-10.1,4.52-10.1,10.1s4.52,10.1,10.1,10.1,10.1-4.52,10.1-10.1-4.52-10.1-10.1-10.1ZM454.47,140.47c-5.58,0-10.1,4.52-10.1,10.1s4.52,10.1,10.1,10.1,10.1-4.52,10.1-10.1-4.52-10.1-10.1-10.1ZM476.51,140.47c-5.58,0-10.1,4.52-10.1,10.1s4.52,10.1,10.1,10.1,10.1-4.52,10.1-10.1-4.52-10.1-10.1-10.1ZM498.54,140.47c-5.58,0-10.1,4.52-10.1,10.1s4.52,10.1,10.1,10.1,10.1-4.52,10.1-10.1-4.52-10.1-10.1-10.1ZM520.57,140.47c-5.58,0-10.1,4.52-10.1,10.1s4.52,10.1,10.1,10.1,10.1-4.52,10.1-10.1-4.52-10.1-10.1-10.1ZM542.6,140.47c-5.58,0-10.1,4.52-10.1,10.1s4.52,10.1,10.1,10.1,10.1-4.52,10.1-10.1-4.52-10.1-10.1-10.1ZM564.63,140.47c-5.58,0-10.1,4.52-10.1,10.1s4.52,10.1,10.1,10.1,10.1-4.52,10.1-10.1-4.52-10.1-10.1-10.1ZM586.66,140.47c-5.58,0-10.1,4.52-10.1,10.1s4.52,10.1,10.1,10.1,10.1-4.52,10.1-10.1-4.52-10.1-10.1-10.1ZM610.89,110.57c-5.58,0-10.1,4.52-10.1,10.1s4.52,10.1,10.1,10.1,10.1-4.52,10.1-10.1-4.52-10.1-10.1-10.1ZM632.92,110.57c-5.58,0-10.1,4.52-10.1,10.1s4.52,10.1,10.1,10.1,10.1-4.52,10.1-10.1-4.52-10.1-10.1-10.1ZM654.95,110.57c-5.58,0-10.1,4.52-10.1,10.1s4.52,10.1,10.1,10.1,10.1-4.52,10.1-10.1-4.52-10.1-10.1-10.1ZM610.89,140.47c-5.58,0-10.1,4.52-10.1,10.1s4.52,10.1,10.1,10.1,10.1-4.52,10.1-10.1-4.52-10.1-10.1-10.1ZM632.92,140.47c-5.58,0-10.1,4.52-10.1,10.1s4.52,10.1,10.1,10.1,10.1-4.52,10.1-10.1-4.52-10.1-10.1-10.1ZM654.95,140.47c-5.58,0-10.1,4.52-10.1,10.1s4.52,10.1,10.1,10.1,10.1-4.52,10.1-10.1-4.52-10.1-10.1-10.1Z"/>
    </clipPath>
    <linearGradient id="Degradado_sin_nombre_51-2" data-name="Degradado sin nombre 51" y1="138.23" y2="138.23" xlink:href="#Degradado_sin_nombre_51"/>
  </defs>
  <g>
    <g>
      <circle class="cls-12" cx="10.1" cy="50.99" r="10.1"/>
      <circle class="cls-12" cx="32.13" cy="50.99" r="10.1"/>
      <circle class="cls-12" cx="54.16" cy="50.99" r="10.1"/>
      <circle class="cls-12" cx="76.19" cy="50.99" r="10.1"/>
      <circle class="cls-12" cx="98.22" cy="50.99" r="10.1"/>
      <circle class="cls-12" cx="120.26" cy="50.99" r="10.1"/>
      <circle class="cls-12" cx="142.29" cy="50.99" r="10.1"/>
      <circle class="cls-12" cx="164.32" cy="50.99" r="10.1"/>
      <circle class="cls-12" cx="186.35" cy="50.99" r="10.1"/>
      <circle class="cls-12" cx="208.38" cy="50.99" r="10.1"/>
    </g>
    <g>
      <circle class="cls-12" cx="233.03" cy="50.99" r="10.1"/>
      <circle class="cls-12" cx="255.06" cy="50.99" r="10.1"/>
      <circle class="cls-12" cx="277.09" cy="50.99" r="10.1"/>
      <circle class="cls-12" cx="299.12" cy="50.99" r="10.1"/>
      <circle class="cls-12" cx="321.15" cy="50.99" r="10.1"/>
      <circle class="cls-12" cx="343.19" cy="50.99" r="10.1"/>
      <circle class="cls-12" cx="365.22" cy="50.99" r="10.1"/>
      <circle class="cls-12" cx="387.25" cy="50.99" r="10.1"/>
      <circle class="cls-12" cx="409.28" cy="50.99" r="10.1"/>
      <circle class="cls-12" cx="431.31" cy="50.99" r="10.1"/>
    </g>
    <g>
      <circle class="cls-12" cx="10.1" cy="80.89" r="10.1"/>
      <circle class="cls-12" cx="32.13" cy="80.89" r="10.1"/>
      <circle class="cls-12" cx="54.16" cy="80.89" r="10.1"/>
      <circle class="cls-12" cx="76.19" cy="80.89" r="10.1"/>
      <circle class="cls-12" cx="98.22" cy="80.89" r="10.1"/>
      <circle class="cls-12" cx="120.26" cy="80.89" r="10.1"/>
      <circle class="cls-12" cx="142.29" cy="80.89" r="10.1"/>
      <circle class="cls-12" cx="164.32" cy="80.89" r="10.1"/>
      <circle class="cls-12" cx="186.35" cy="80.89" r="10.1"/>
      <circle class="cls-12" cx="208.38" cy="80.89" r="10.1"/>
    </g>
    <g>
      <circle class="cls-12" cx="233.03" cy="80.89" r="10.1"/>
      <circle class="cls-12" cx="255.06" cy="80.89" r="10.1"/>
      <circle class="cls-12" cx="277.09" cy="80.89" r="10.1"/>
      <path class="cls-12" d="M289.02,80.89c0-5.58,4.52-10.1,10.1-10.1s10.1,4.52,10.1,10.1-4.52,10.1-10.1,10.1-10.1-4.52-10.1-10.1"/>
      <circle class="cls-12" cx="321.15" cy="80.89" r="10.1"/>
      <circle class="cls-12" cx="343.19" cy="80.89" r="10.1"/>
      <circle class="cls-12" cx="365.22" cy="80.89" r="10.1"/>
      <circle class="cls-12" cx="387.25" cy="80.89" r="10.1"/>
      <circle class="cls-12" cx="409.28" cy="80.89" r="10.1"/>
      <circle class="cls-12" cx="431.31" cy="80.89" r="10.1"/>
    </g>
    <g class="cls-15">
      <rect class="cls-14" x="378.28" y="31.18" width="288.47" height="74.73"/>
    </g>
    <text class="cls-7" transform="translate(777.81 62.09)"><tspan class="cls-11" x="0" y="0">12 </tspan><tspan class="cls-6" x="40.54" y="0">a</tspan><tspan class="cls-5" x="52.14" y="0">n</tspan><tspan class="cls-3" x="64.18" y="0">ys</tspan><tspan class="cls-3"><tspan x="0" y="24">de vida</tspan></tspan></text>
    <g>
      <circle class="cls-12" cx="10.1" cy="120.67" r="10.1"/>
      <circle class="cls-12" cx="32.13" cy="120.67" r="10.1"/>
      <circle class="cls-12" cx="54.16" cy="120.67" r="10.1"/>
      <circle class="cls-12" cx="76.19" cy="120.67" r="10.1"/>
      <circle class="cls-12" cx="98.22" cy="120.67" r="10.1"/>
      <circle class="cls-12" cx="120.26" cy="120.67" r="10.1"/>
      <circle class="cls-12" cx="142.29" cy="120.67" r="10.1"/>
      <circle class="cls-12" cx="164.32" cy="120.67" r="10.1"/>
      <circle class="cls-12" cx="186.35" cy="120.67" r="10.1"/>
      <circle class="cls-12" cx="208.38" cy="120.67" r="10.1"/>
    </g>
    <g>
      <circle class="cls-12" cx="233.03" cy="120.67" r="10.1"/>
      <circle class="cls-12" cx="255.06" cy="120.67" r="10.1"/>
      <circle class="cls-12" cx="277.09" cy="120.67" r="10.1"/>
      <circle class="cls-12" cx="299.12" cy="120.67" r="10.1"/>
      <circle class="cls-12" cx="321.15" cy="120.67" r="10.1"/>
      <circle class="cls-12" cx="343.19" cy="120.67" r="10.1"/>
      <circle class="cls-12" cx="365.22" cy="120.67" r="10.1"/>
      <circle class="cls-12" cx="387.25" cy="120.67" r="10.1"/>
      <circle class="cls-12" cx="409.28" cy="120.67" r="10.1"/>
      <circle class="cls-12" cx="431.31" cy="120.67" r="10.1"/>
    </g>
    <g>
      <circle class="cls-12" cx="10.1" cy="150.57" r="10.1"/>
      <circle class="cls-12" cx="32.13" cy="150.57" r="10.1"/>
      <circle class="cls-12" cx="54.16" cy="150.57" r="10.1"/>
      <circle class="cls-12" cx="76.19" cy="150.57" r="10.1"/>
      <circle class="cls-12" cx="98.22" cy="150.57" r="10.1"/>
      <circle class="cls-12" cx="120.26" cy="150.57" r="10.1"/>
      <circle class="cls-12" cx="142.29" cy="150.57" r="10.1"/>
      <circle class="cls-12" cx="164.32" cy="150.57" r="10.1"/>
      <circle class="cls-12" cx="186.35" cy="150.57" r="10.1"/>
      <circle class="cls-12" cx="208.38" cy="150.57" r="10.1"/>
    </g>
    <g>
      <circle class="cls-12" cx="233.03" cy="150.57" r="10.1"/>
      <circle class="cls-12" cx="255.06" cy="150.57" r="10.1"/>
      <circle class="cls-12" cx="277.09" cy="150.57" r="10.1"/>
      <path class="cls-12" d="M289.02,150.57c0-5.58,4.52-10.1,10.1-10.1s10.1,4.52,10.1,10.1-4.52,10.1-10.1,10.1-10.1-4.52-10.1-10.1"/>
      <circle class="cls-12" cx="321.15" cy="150.57" r="10.1"/>
      <circle class="cls-12" cx="343.19" cy="150.57" r="10.1"/>
      <circle class="cls-12" cx="365.22" cy="150.57" r="10.1"/>
      <circle class="cls-12" cx="387.25" cy="150.57" r="10.1"/>
      <circle class="cls-12" cx="409.28" cy="150.57" r="10.1"/>
      <circle class="cls-12" cx="431.31" cy="150.57" r="10.1"/>
    </g>
    <g class="cls-10">
      <rect class="cls-9" x="378.28" y="100.86" width="288.47" height="74.73"/>
    </g>
    <g>
      <g>
        <circle class="cls-8" cx="642.68" cy="50.99" r="10.1"/>
        <circle class="cls-8" cx="664.71" cy="50.99" r="10.1"/>
        <circle class="cls-8" cx="686.74" cy="50.99" r="10.1"/>
        <circle class="cls-8" cx="642.68" cy="80.89" r="10.1"/>
        <circle class="cls-8" cx="664.71" cy="80.89" r="10.1"/>
        <circle class="cls-8" cx="686.74" cy="80.89" r="10.1"/>
        <g>
          <circle class="cls-8" cx="710.97" cy="50.99" r="10.1"/>
          <circle class="cls-8" cx="733" cy="50.99" r="10.1"/>
          <circle class="cls-8" cx="755.03" cy="50.99" r="10.1"/>
        </g>
        <g>
          <circle class="cls-8" cx="710.97" cy="80.89" r="10.1"/>
          <circle class="cls-8" cx="733" cy="80.89" r="10.1"/>
          <circle class="cls-8" cx="755.03" cy="80.89" r="10.1"/>
        </g>
      </g>
      <g>
        <circle class="cls-13" cx="642.68" cy="120.67" r="10.1"/>
        <circle class="cls-13" cx="664.71" cy="120.67" r="10.1"/>
        <circle class="cls-13" cx="686.74" cy="120.67" r="10.1"/>
        <circle class="cls-13" cx="642.68" cy="150.57" r="10.1"/>
        <circle class="cls-13" cx="664.71" cy="150.57" r="10.1"/>
        <circle class="cls-13" cx="686.74" cy="150.57" r="10.1"/>
        <g>
          <circle class="cls-13" cx="710.97" cy="120.67" r="10.1"/>
          <circle class="cls-13" cx="733" cy="120.67" r="10.1"/>
        </g>
        <circle class="cls-13" cx="710.97" cy="150.57" r="10.1"/>
      </g>
    </g>
    <text class="cls-7" transform="translate(751.43 135.47)"><tspan class="cls-11" x="0" y="0">9 </tspan><tspan class="cls-3" x="26.76" y="0">a</tspan><tspan class="cls-4" x="38.37" y="0">n</tspan><tspan class="cls-3" x="50.4" y="0">ys</tspan><tspan class="cls-3"><tspan x="0" y="24">de vida</tspan></tspan></text>
  </g>
  <text class="cls-2" transform="translate(632.92 17.27)"><tspan x="0" y="0">GUANYES</tspan></text>
</svg>