<?xml version="1.0" encoding="UTF-8"?>
<svg id="Capa_1" data-name="Capa 1" xmlns="http://www.w3.org/2000/svg" viewBox="0 0 406.79 392.6">
  <defs>
    <style>
      .cls-1 {
        fill: #b64e31;
        font-size: 16.09px;
      }

      .cls-1, .cls-2 {
        font-family: Inter-SemiBold, Inter;
        font-weight: 600;
      }

      .cls-3, .cls-4 {
        isolation: isolate;
      }

      .cls-3, .cls-5, .cls-6 {
        fill: #616161;
      }

      .cls-3, .cls-6 {
        font-family: Inter-Medium, Inter;
        font-size: 14.27px;
        font-weight: 500;
      }

      .cls-7 {
        stroke: #8b898e;
        stroke-linecap: square;
        stroke-width: 1.07px;
      }

      .cls-7, .cls-8 {
        fill: none;
      }

      .cls-8 {
        stroke: #b9b8bb;
        stroke-miterlimit: 10;
        stroke-width: 1.43px;
      }

      .cls-9 {
        fill: #f89d64;
      }

      .cls-2 {
        fill: #709ea2;
        font-size: 16.09px;
      }

      .cls-10 {
        letter-spacing: 0em;
      }

      .cls-11 {
        letter-spacing: 0em;
      }

      .cls-4 {
        fill: #8b898e;
        font-size: 12.79px;
      }

      .cls-4, .cls-5 {
        font-family: Inter-Regular, Inter;
        font-variation-settings: 'wght' 400, 'slnt' 0;
      }

      .cls-5 {
        font-size: 12.64px;
      }

      .cls-12 {
        fill: #bbb49d;
      }

      .cls-12, .cls-13 {
        opacity: .8;
      }

      .cls-14 {
        letter-spacing: -.09em;
      }

      .cls-15 {
        letter-spacing: -.12em;
      }

      .cls-16 {
        letter-spacing: -.02em;
      }

      .cls-17 {
        letter-spacing: -.02em;
      }

      .cls-18 {
        letter-spacing: -.03em;
      }

      .cls-19 {
        letter-spacing: -.02em;
      }

      .cls-20 {
        letter-spacing: -.03em;
      }

      .cls-21 {
        letter-spacing: -.03em;
      }

      .cls-22 {
        letter-spacing: -.03em;
      }

      .cls-23 {
        letter-spacing: -.03em;
      }

      .cls-24 {
        fill: #56939a;
      }

      .cls-25 {
        letter-spacing: -.01em;
      }

      .cls-26 {
        letter-spacing: 0em;
      }
    </style>
  </defs>
  <g class="cls-13">
    <path id="point-1-0" class="cls-9" d="M92.67,71.29v27.59s223.38,0,223.38,0v-27.59s-223.38,0-223.38,0Z"/>
    <path id="point-2-0" class="cls-24" d="M92.67,101.79v27.59s250.64,0,250.64,0v-27.59s-250.64,0-250.64,0Z"/>
  </g>
  <text class="cls-3" transform="translate(7.48 114.77)"><tspan x="0" y="0">MÉS DE 65</tspan><tspan x="35.38" y="17.12">ANYS</tspan></text>
  <text class="cls-3" transform="translate(38.56 203.48)"><tspan x="0" y="0">15-65 </tspan><tspan x="4.3" y="17.12">ANYS</tspan></text>
  <text class="cls-3" transform="translate(57.5 292.61)"><tspan x="0" y="0">0-14</tspan><tspan x="-7.69" y="17.12">ANYS</tspan></text>
  <text class="cls-4" transform="translate(84.33 375.2)"><tspan x="0" y="0">0%</tspan></text>
  <text class="cls-4" transform="translate(316.97 375.2)"><tspan x="0" y="0">60%</tspan></text>
  <text class="cls-4" transform="translate(233.19 375.2)"><tspan x="0" y="0">40%</tspan></text>
  <text class="cls-4" transform="translate(158.98 375.2)"><tspan x="0" y="0">20%</tspan></text>
  <text class="cls-2" transform="translate(262.97 214.52) rotate(-.59)"><tspan x="0" y="0">3</tspan><tspan class="cls-22" x="10.49" y="0">6</tspan><tspan class="cls-25" x="20.41" y="0">,</tspan><tspan x="24.98" y="0">9%</tspan></text>
  <text class="cls-1" transform="translate(248.19 183.01)"><tspan x="0" y="0">3</tspan><tspan class="cls-19" x="10.49" y="0">3</tspan><tspan class="cls-16" x="20.62" y="0">,</tspan><tspan class="cls-10" x="25.01" y="0">7%</tspan></text>
  <g>
    <text class="cls-6" transform="translate(116.92 38.34)"><tspan x="0" y="0">HOMES</tspan></text>
    <text class="cls-6" transform="translate(221.69 38.34)"><tspan class="cls-23" x="0" y="0">TO</tspan><tspan class="cls-14" x="19.38" y="0">T</tspan><tspan x="27.43" y="0">AL</tspan></text>
    <text class="cls-6" transform="translate(25.94 37.48)"><tspan x="0" y="0">DONES</tspan></text>
    <g>
      <rect class="cls-9" x=".94" y="24.79" width="16.36" height="16.36" transform="translate(-23.86 42.1) rotate(-90)"/>
      <rect class="cls-24" x="92.81" y="24.79" width="16.36" height="16.36" transform="translate(68.02 133.97) rotate(-90)"/>
      <rect class="cls-12" x="199.88" y="24.79" width="16.36" height="16.36" transform="translate(175.08 241.04) rotate(-90)"/>
    </g>
  </g>
  <path id="point-2-2" class="cls-12" d="M92.67,133.86v13.79s241.92,0,241.92,0v-13.79s-241.92,0-241.92,0Z"/>
  <text class="cls-5" transform="translate(264.64 237.19)"><tspan x="0" y="0">3</tspan><tspan class="cls-20" x="8.05" y="0">4</tspan><tspan class="cls-18" x="15.73" y="0">,</tspan><tspan x="18.95" y="0">0%</tspan></text>
  <g class="cls-13">
    <path id="point-1-0-2" data-name="point-1-0" class="cls-9" d="M92.67,165.21v27.59s148.44,0,148.44,0v-27.59s-148.44,0-148.44,0Z"/>
    <path id="point-2-0-2" data-name="point-2-0" class="cls-24" d="M92.67,195.71v27.59s162.79,0,162.79,0v-27.59s-162.79,0-162.79,0Z"/>
  </g>
  <text class="cls-2" transform="translate(352.24 122.13) rotate(-.59)"><tspan x="0" y="0">62</tspan><tspan class="cls-17" x="20.43" y="0">,</tspan><tspan class="cls-11" x="24.81" y="0">7%</tspan></text>
  <text class="cls-1" transform="translate(322.22 91.88)"><tspan x="0" y="0">5</tspan><tspan class="cls-21" x="10.18" y="0">9</tspan><tspan class="cls-10" x="20.15" y="0">,2%</tspan></text>
  <path id="point-2-2-2" data-name="point-2-2" class="cls-12" d="M92.67,227.79v13.79s158.48,0,158.48,0v-13.79s-158.48,0-158.48,0Z"/>
  <text class="cls-5" transform="translate(343.71 145.43)"><tspan x="0" y="0">6</tspan><tspan class="cls-18" x="7.88" y="0">0,</tspan><tspan x="18.68" y="0">0%</tspan></text>
  <g class="cls-13">
    <path id="point-1-0-3" data-name="point-1-0" class="cls-9" d="M92.67,259.13v27.59s81.16,0,81.16,0v-27.59s-81.16,0-81.16,0Z"/>
    <path id="point-2-0-3" data-name="point-2-0" class="cls-24" d="M92.67,289.63v27.59s89.28,0,89.28,0v-27.59s-89.28,0-89.28,0Z"/>
  </g>
  <text class="cls-2" transform="translate(188.38 310.15) rotate(-.59)"><tspan x="0" y="0">32,4%</tspan></text>
  <text class="cls-1" transform="translate(180.53 278.65)"><tspan x="0" y="0">2</tspan><tspan class="cls-15" x="10" y="0">7</tspan><tspan class="cls-26" x="17.43" y="0">,</tspan><tspan x="22.05" y="0">5%</tspan></text>
  <path id="point-2-2-3" data-name="point-2-2" class="cls-12" d="M92.67,321.71v13.79s117.82,0,117.82,0l-32.84-13.79h-84.97Z"/>
  <text class="cls-5" transform="translate(185.16 332.82)"><tspan x="0" y="0">3</tspan><tspan class="cls-18" x="8.05" y="0">0,</tspan><tspan x="18.84" y="0">0%</tspan></text>
  <line class="cls-7" x1="92.49" y1="66.63" x2="92.49" y2="356.41"/>
  <g>
    <line class="cls-8" x1="171.36" y1="345.23" x2="171.36" y2="356.41"/>
    <line class="cls-8" x1="250.22" y1="345.23" x2="250.22" y2="356.41"/>
    <line class="cls-8" x1="329.08" y1="345.23" x2="329.08" y2="356.41"/>
  </g>
</svg>