<?xml version="1.0" encoding="UTF-8"?>
<svg id="Capa_1" data-name="Capa 1" xmlns="http://www.w3.org/2000/svg" viewBox="0 0 1706.57 456.61">
  <defs>
    <style>
      .cls-1 {
        fill: #a4cfd8;
      }

      .cls-2 {
        fill: #c5ba9e;
      }

      .cls-3 {
        fill: #f36f43;
      }

      .cls-4 {
        fill: #f2efef;
      }

      .cls-5 {
        fill: #ff9b99;
      }

      .cls-6 {
        fill: #5e9982;
      }

      .cls-7 {
        fill: #9a8b6f;
      }

      .cls-8 {
        fill: #e94e24;
      }

      .cls-9 {
        fill: #e94e24;
      }

      .cls-10 {
        fill: #827e7d;
      }

      .cls-11 {
        fill: #e6eff0;
      }

      .cls-12 {
        fill: #d3c1bd;
      }

      .cls-13 {
        fill: #ece9e2;
      }

      .cls-14 {
        fill: #f4a280;
      }

      .cls-15 {
        fill: #e4dbcd;
      }

      .cls-16 {
        fill: #e6eff1;
      }

      .cls-17 {
        fill: #e6eff1;
      }

      .cls-18 {
        fill: #ec6839;
      }

      .cls-19 {
        fill: #ec6839;
      }

      .cls-20 {
        fill: #adcdd1;
      }

      .cls-21 {
        fill: #f89d64;
      }

      .cls-22 {
        fill: #6b6664;
      }

      .cls-23 {
        fill: #fff;
      }

      .cls-24 {
        fill: #adced2;
      }

      .cls-25 {
        fill: #e84e24;
      }

      .cls-26 {
        fill: #8cbdc1;
      }

      .cls-27 {
        fill: #796c6a;
      }

      .cls-28 {
        fill: #eceae3;
      }

      .cls-29 {
        fill: #eceae3;
      }

      .cls-30 {
        fill: #8cbdc1;
      }

      .cls-31 {
        fill: #27242d;
      }

      .cls-32 {
        fill: #d1c8b2;
      }

      .cls-33 {
        fill: #817e7c;
      }

      .cls-34 {
        fill: #d1c8b2;
      }

      .cls-35 {
        fill: #8abcc0;
      }

      .cls-36 {
        fill: #ec7a7d;
      }

      .cls-37 {
        fill: #9b876a;
      }

      .cls-38 {
        fill: #b7ac8e;
      }

      .cls-39 {
        fill: #b8ac8f;
      }

      .cls-40 {
        fill: #6c6765;
      }

      .cls-41 {
        fill: #d0c8b1;
      }

      .cls-42 {
        fill: #6e453e;
      }

      .cls-43 {
        fill: #6b6865;
      }

      .cls-44 {
        fill: #504b48;
      }

      .cls-45 {
        fill: #9a8a6f;
      }
    </style>
  </defs>
  <ellipse class="cls-28" cx="704.72" cy="424.9" rx="284.03" ry="31.71"/>
  <ellipse class="cls-28" cx="1489.62" cy="309.67" rx="216.95" ry="24.22"/>
  <ellipse class="cls-28" cx="221.55" cy="271.42" rx="221.55" ry="22.87"/>
  <g>
    <path class="cls-26" d="M1543.83,160.37c19.03-31.45,12.47-62.37,18.37-80.06,5.88-17.62,16.32-41.82,35.6-42.01h0s.07,0,.11,0c.04,0,.07,0,.11,0h0c19.28.19,29.72,24.39,35.6,42.01,5.9,17.69-.66,48.61,18.37,80.06,19,31.41,7.83,78.68-53.97,79.36h0s-.07,0-.11,0c-.04,0-.07,0-.11,0h0c-61.8-.69-72.98-47.96-53.97-79.37Z"/>
    <path class="cls-33" d="M1613.68,178.91l-11.6,11.6v-90.54c0-1.54-1.25-2.79-2.79-2.79s-2.79,1.25-2.79,2.79v36.33l-15.27-15.27c-1.09-1.09-2.86-1.09-3.95,0-1.09,1.09-1.09,2.86,0,3.95l19.22,19.22v162.9c0,1.54,1.25,2.79,2.79,2.79s2.79-1.25,2.79-2.79v-108.68l15.55-15.55c1.09-1.09,1.09-2.86,0-3.95-1.09-1.09-2.86-1.09-3.95,0Z"/>
  </g>
  <g>
    <path class="cls-26" d="M127.47,105.34c16.42-27.14,10.76-53.82,15.85-69.09C148.4,21.04,157.41.16,174.05,0h0s.06,0,.1,0c.03,0,.06,0,.1,0h0c16.64.16,25.65,21.04,30.72,36.25,5.1,15.27-.57,41.95,15.85,69.09,16.4,27.11,6.75,67.9-46.58,68.49h0s-.06,0-.1,0c-.03,0-.06,0-.1,0h0c-53.33-.59-62.97-41.38-46.58-68.49Z"/>
    <path class="cls-33" d="M187.76,121.34l-10.01,10.01V53.22c0-1.33-1.08-2.41-2.41-2.41s-2.41,1.08-2.41,2.41v31.35l-13.18-13.18c-.94-.94-2.47-.94-3.41,0-.94.94-.94,2.47,0,3.41l16.59,16.59v140.58c0,1.33,1.08,2.41,2.41,2.41s2.41-1.08,2.41-2.41v-93.79l13.42-13.42c.94-.94.94-2.47,0-3.41-.94-.94-2.47-.94-3.41,0Z"/>
  </g>
  <g>
    <path class="cls-26" d="M1453.79,123.45c18.7-30.91,12.25-61.29,18.05-78.68,5.78-17.32,16.04-41.1,34.99-41.28h0s.07,0,.11,0c.04,0,.07,0,.11,0h0c18.95.19,29.21,23.97,34.99,41.28,5.8,17.39-.64,47.77,18.05,78.68,18.67,30.87,7.69,77.32-53.04,77.99h0s-.07,0-.11,0c-.04,0-.07,0-.11,0h0c-60.73-.68-71.71-47.13-53.04-78Z"/>
    <path class="cls-33" d="M1522.44,141.67l-11.4,11.4v-88.98c0-1.51-1.23-2.74-2.74-2.74s-2.74,1.23-2.74,2.74v35.7l-15.01-15.01c-1.07-1.07-2.81-1.07-3.88,0-1.07,1.07-1.07,2.81,0,3.88l18.89,18.89v161.09c0,1.51,1.23,2.74,2.74,2.74s2.74-1.23,2.74-2.74v-107.81l15.28-15.28c1.07-1.07,1.07-2.81,0-3.88-1.07-1.07-2.81-1.07-3.88,0Z"/>
  </g>
  <g>
    <path class="cls-20" d="M56.98,143.06c15.93-26.33,10.44-52.22,15.38-67.03,4.92-14.76,13.67-35.02,29.81-35.17h0s.06,0,.09,0c.03,0,.06,0,.09,0h0c16.14.16,24.88,20.42,29.81,35.17,4.94,14.81-.55,40.7,15.38,67.03,15.91,26.3,6.55,65.88-45.19,66.45h0s-.06,0-.09,0c-.03,0-.06,0-.09,0h0c-51.74-.58-61.1-40.15-45.19-66.45Z"/>
    <path class="cls-45" d="M115.47,158.59l-9.72,9.72v-75.81c0-1.29-1.05-2.34-2.34-2.34s-2.34,1.05-2.34,2.34v30.42l-12.79-12.79c-.91-.91-2.39-.91-3.3,0-.91.91-.91,2.39,0,3.3l16.09,16.09v136.39c0,1.29,1.05,2.34,2.34,2.34s2.34-1.05,2.34-2.34v-91l13.02-13.02c.91-.91.91-2.39,0-3.3-.91-.91-2.39-.91-3.3,0Z"/>
  </g>
  <g>
    <path class="cls-19" d="M519.67,232.17c-1.18-3.13-4.05-4.63-6.43-6.57-4.09-3.34-4.49-7.12-1.13-11.17.82-.99,1.76-1.84,1.92-3.3.39-3.57,1.9-4.72,5.55-4.23,1.14.15,1.58.1,2-1.14,1-2.97,4.42-4.25,7.69-2.49,3.34,1.8,5.64.04,8.17-1.46h1.96c.43.64,1.19.67,1.79,1,1.93,1.07,3.26,2.63,3.35,4.9.08,2.18-1.32,3.44-3.2,4.16-1.8.69-2.39,2.48-3.59,3.71-1,.78-2.08,1.36-3.4,1.21-2.37-.27-4,.77-5.1,2.83-.61,1.14-1.48,2.08-2.87,2.09-1.98,0-2.09,1.15-1.75,2.62.14.58.48,1.21-.22,1.56-.82.41-1.11-.35-1.47-.88-.7-1.02-1.24-2.17-2.38-2.8-.57-.32-1.19-.65-1.83-.18-.61.45-.62,1.13-.52,1.78.07.44.2.91.44,1.29,1.03,1.63,1.27,3.56,2.02,5.29.44,1.02.15,1.64-.98,1.8Z"/>
    <path class="cls-17" d="M546.04,317.93c.41,6.56.56,13.15,1.29,19.67,1.28,11.47,1.71,22.97,1.97,34.5.16,7.03.31,14.08.83,21.09.45,6.12.57,12.23.72,18.35.07,2.92.32,5.86.83,8.73.48,2.7,1.12,3.38-3.22,3.79-2.11.14-4.2.55-6.32.41-.56-.04-1.17-.12-1.61.41-1.97-.22-3.91.05-5.81.56-1.23.33-1.71.24-2.09-1.27-2.04-8.12-1.77-16.42-2.28-24.66-.53-8.51-1.22-17.02-1.7-25.54-.3-5.21-.53-10.41-.71-15.62-.09-2.61-.35-5.24-.6-7.88-.55,1.26-.86,2.52-.87,3.85-.05,9.33-1.21,18.6-1.29,27.93-.06,7.02-1.18,14-1.56,21.03-.4,7.3-.8,14.59-.69,21.9.03,2.02-.4,2.29-2.42,2.12-1.82-.15-3.66-.07-5.49-.1-2.58-.52-5.2-.34-7.81-.39-.52,0-1.05-.04-1.57,0-1.56.14-2.09-.57-1.99-2.09.55-8.72.94-17.45,1.35-26.17.29-6.07.05-12.26-.42-18.38-.19-2.54-.04-5.1-.17-7.65-.64-13.06,1.22-26.06.93-39.11-.09-4.07.69-8.17,1.07-12.25,4.98,1.27,9.97,2.47,15.15,2.68,6.88.28,13.2-1.98,19.52-4.18,1.65-.57,3.18-1.51,4.95-1.74Z"/>
    <path class="cls-26" d="M546.04,317.93c-1.78.23-3.3,1.17-4.95,1.74-6.33,2.2-12.64,4.46-19.52,4.18-5.18-.21-10.17-1.41-15.15-2.68-.82-3.22-.77-6.55-1.2-9.83-.75-5.64-.27-11.28.25-16.91,1.45-1.56,3.57-2.19,5.12-3.58,4.23-3.79,8.38-7.68,12.65-11.43,3.72-3.28,6.62-7.41,10.88-10.12,1.44-.91,1.92-2.48,1.75-4.14-.28-2.73-.1-5.21,2.6-6.8.3-.18.5-.61.63-.96.41-1.14-.33-2.14-1.52-2.13-3.16.04-7.26,3.27-7.91,6.38-.49,2.35-1.59,4.15-3.54,5.64-4.24,3.22-8.92,5.67-13.49,8.35-4.61,2.7-9.52,4.98-13,9.27-2.8,3.46-2.86,5.51-.23,9.13-3.45-.26-5.58-2.06-6.32-5.47,0-1.96-.02-3.91-.03-5.87.67-4.67,2.2-9.1,3.58-13.59.83-2.71,1-5.63,1.45-8.46.19-1.18.65-2.26,1.32-3.23,1.26-1.83,2.28-3.78,3.2-5.82,1.39-3.07,3.44-5.4,7.05-6.14,3.31-.68,6.59-1.62,9.77-2.82,1.2.23,1.83,1.22,2.57,2.01,1.31,1.38,2.69,2.63,4.29,3.7,1.38.92,2.32.69,3.38-.47,1.13-1.24,1.71-2.74,2.4-4.21,3,.71,5.79,2.13,8.48,3.44,2.96,1.45,4.34,4.76,5.2,7.99,2.13,8.01,3.57,16.2,6.28,24.05-.66.27-1.31.54-1.97.8-3.72,1.49-6.12,7.31-4.43,10.77-1.27,2.08-.61,4.34-.44,6.49.49,6.11,1.85,12.13,1.8,18.3,0,.99-.17,1.79-.94,2.42Z"/>
    <path class="cls-34" d="M499.38,294.03c-2.63-3.62-2.57-5.67.23-9.13,3.48-4.29,8.39-6.57,13-9.27,4.56-2.67,9.25-5.12,13.49-8.35,1.96-1.49,3.05-3.29,3.54-5.64.65-3.11,4.75-6.34,7.91-6.38,1.19-.02,1.93.99,1.52,2.13-.13.36-.33.79-.63.96-2.69,1.59-2.88,4.07-2.6,6.8.17,1.66-.31,3.22-1.75,4.14-4.26,2.71-7.16,6.84-10.88,10.12-4.26,3.76-8.42,7.64-12.65,11.43-1.56,1.4-3.67,2.02-5.12,3.58-2.07.56-4.11.6-6.08-.4Z"/>
    <path class="cls-34" d="M532.05,243.66c-.69,1.46-1.27,2.97-2.4,4.21-1.07,1.17-2.01,1.39-3.38.47-1.59-1.07-2.98-2.31-4.29-3.7-.75-.79-1.37-1.78-2.57-2.01.55-3.48.31-6.97.26-10.46,1.14-.16,1.42-.79.98-1.8-.75-1.73-.99-3.66-2.02-5.29-.24-.37-.37-.84-.44-1.29-.11-.66-.09-1.34.52-1.78.64-.47,1.26-.14,1.83.18,1.14.63,1.68,1.79,2.38,2.8.36.52.65,1.29,1.47.88.7-.35.36-.98.22-1.56-.34-1.47-.23-2.61,1.75-2.62,1.39,0,2.26-.95,2.87-2.09,1.1-2.06,2.73-3.1,5.1-2.83,1.33.15,2.41-.42,3.4-1.21.87,4.65,1.34,9.3.1,13.97-.49,1.84-1,3.64-2.08,5.25-.94,1.4-2.07,2.35-3.82,2.34-1.05,0-1.17.48-.96,1.37.4,1.71.72,3.45,1.08,5.17Z"/>
    <path class="cls-34" d="M540.96,281.22c1.82-3.39,7.95-4.83,11.33-2.68.6.38,1.2.76,1.8,1.14,3.02,2.78,5.94,5.68,9.15,8.25,1.07.86,2.23,1.66,3.09,2.7,5.53,6.62-7.19-2.37,8.12,3.51.55.21,1.12.34,1.69.5.8.23,1.51.61,1.68,1.47.2,1-.62,1.41-1.34,1.67-1.11.39-.59.84-.19,1.39.94,1.26,1.85,2.54,2.78,3.81.89,1.21.98,2.45-.06,3.58-1.03,1.12-2.22,1.02-3.56.36-3.94-1.93-6.96-5.07-10.26-7.81-2.59-2.15-5.21-4.16-8.39-5.3-4.54-1.62-8.62-4.12-12.59-6.75-1.96-1.3-2.92-3.47-3.25-5.84Z"/>
    <path class="cls-43" d="M514.27,433.1c1.23,2.13,1.8,4.46,2.16,6.87.17,1.14-.25,1.65-1.42,1.83-4.91.75-9.86,1.09-14.8,1.54-.51.05-1.1.17-1.34-.48-.21-.57.13-1,.49-1.39,2.62-2.82,5.36-5.52,8.21-8.11,2.25.39,4.43-.78,6.69-.26Z"/>
    <path class="cls-34" d="M548.48,432.86c-2.03.84-4.09-.34-6.28,0-.51-2.67-1.44-5.26-1.69-7.99.44-.53,1.05-.44,1.61-.41,2.13.15,4.22-.27,6.32-.41.01,2.29.02,6.51.03,8.8Z"/>
    <path class="cls-34" d="M514.27,433.1c-2.25-.52-4.44.65-6.69.26-.09-2.19.18-4.39-.37-6.55,2.61.04,5.23-.13,7.81.39-.25,1.97-.5,3.93-.75,5.9Z"/>
    <path class="cls-43" d="M548.62,431.4c3.39,2.55,6.78,5.09,10.15,7.66.45.34.93.82.75,1.49-.22.81-.99.82-1.61.82-2.22-.02-4.44-.09-6.66-.19-3.98-.19-7.96-.36-11.95-.15-.99.05-1.97-.32-1.1-1.43,1.27-1.61,1.72-3.5,2.34-5.34.3-.89.68-1.52,1.59-1.78,2.21-.05,4.35-.51,6.48-1.09Z"/>
  </g>
  <g id="patient">
    <path class="cls-10" d="M704.9,440.85h-21.11c-1.78,0-3.22-1.44-3.22-3.22v-55.08h-64.72c-1.63,0-3-1.21-3.19-2.83l-8.93-73.12-15.83-3.22h-11.19c-1.78,0-3.22-1.44-3.22-3.22s1.44-3.22,3.22-3.22h11.51c.22,0,.43.02.64.06l18.42,3.74c1.36.28,2.39,1.39,2.55,2.76l8.87,72.59h65.09c1.78,0,3.22,1.44,3.22,3.22v55.08h17.89c1.78,0,3.22,1.44,3.22,3.22s-1.44,3.22-3.22,3.22Z"/>
    <path class="cls-39" d="M674.79,319.67c.02-.18.09-2.72.77-4.14.47-.97,2.18-2.22,3.52-3.32,1.08-.88,1.85-1.76,2.06-1.66.52.26.86,1.61-.7,2.93-.95.81-1.12,2.6-.42,2.15.87-.55,2.59-1.63,4.22-2.5,1.77-.94,4.67-5.88,5.65-4.52.58.8-3.31,5.77-3.24,6.52.05.48,4.95-4.52,5.33-4.1.91,1.03-.38,6.45-1.3,7.27-.37.33-1.53,2.66-3.89,4.08-2.64,1.59-6.6,2.24-9.19,1.87-1.03-.15-3.42,1.36-2.83-4.58Z"/>
    <path class="cls-9" d="M641.86,298.22c6.79,6.69,14.64,39.06,17.11,40.91,3.66,2.74,22.86,4.71,22.86,4.71l1.02,12.46s-29.05,3.94-35.96,1.37c-6.91-2.57-9.86-64.21-5.03-59.45Z"/>
    <g>
      <path class="cls-39" d="M706.09,434.15c-.33.3-7.99.4-15.4.29-.87-.01-3.32-1.42-4.17-1.44-.84-.02-.07,1.34-.87,1.32-4.98-.16-8.9-.44-8.89-.85.01-4.75,1.9-9.45,2.76-10.78,1.81.46,6.48,0,6.67-.53,3.02,2.81,7.48,6.2,8.59,6.77,2.61,1.36,10.77,2.11,11.32,5.23Z"/>
      <path class="cls-7" d="M648.24,358.54c22.18-6.57,39.72-7.63,47.98,0,5.52,5.1-8.59,64.44-8.59,64.44h-8.6s-1.68-44.24-4.55-45.39c-2.87-1.15-64.76,7.2-65.91,1.73-1.15-5.47,9.5-21.3,9.5-21.3l30.18.52Z"/>
    </g>
    <path class="cls-9" d="M619.89,293.86c-11.41,3.03-23.24,22.51-20.85,42.06,2.05,16.82,6.45,43.41,10.48,43.41s39.75-16.49,48.07-18.59c1.18-.3-12.17-13.71-13.15-20.95-1.25-9.21,4.8-33.72-3.65-42.91-5.96-6.48-16.7-4.14-20.91-3.03Z"/>
    <path class="cls-9" d="M610.97,308.38c-12.1,13.66,25.6,37.02,34.75,35.25,11.3-2.19,31.26-17.12,32.34-18.66.62-.88-3.01-7.75-4.04-7.29-3.16,1.4-23.54,5.2-27.76,6.82-4.22,1.62-26.46-26.08-35.3-16.11Z"/>
    <g>
      <path class="cls-29" d="M639.18,260.08c2.18,1.99-1.59,9.4-3.11,10.52-3.42,2.52-10.06,12.68-12.9,12.16-2.84-.52-6.8-9.85-6.39-15.81.52-7.58,18.12-10.77,22.4-6.87Z"/>
      <path class="cls-39" d="M621.63,271.95c-1.09,9.81-3.72,24.01-4.45,25.76-.73,1.76,6.41,5.67,11.56,5.71,7.11.05,9.5-2.24,9.5-3.85s-1.8-13.93-1.8-13.93l-4.34-12.4-10.47-1.29Z"/>
      <path class="cls-39" d="M631.48,261.03c4.73-.97,9.05.53,9.85,8.92.23,2.44,4.68,6.13,4.37,7.69-.25,1.23-3.35-.5-3.34-.13.03,3.16-.96,4.63-2.06,7.59-1.74,4.67-16.36-22.52-8.81-24.07Z"/>
      <path class="cls-29" d="M637.49,277.75c1.67-.69,4.47-.69,5.54.04,1.07.73,1.47,9.47-.15,11.14-1.63,1.67-5.65.28-7.82-1.24-4.96-3.48-6.76-16.36-5.94-16.35,1.37.02,1.96,1.04,2.36,1.87,3.66,7.57,4.83,5.03,6.02,4.54Z"/>
      <path class="cls-29" d="M616.86,266.33c-.78,5.59,2.63,14.24,3.42,15.43.79,1.19,6.23.59,7.28-1.23,1.66-2.88-.69-14.21-.69-14.21h-10Z"/>
      <path class="cls-39" d="M629.11,271.34c-2-.94-5.23-1.48-3.66,2.65,1.56,4.13,4.08,3.61,4.53,3.07.44-.54-.45-5.52-.86-5.72Z"/>
    </g>
    <g>
      <path class="cls-39" d="M699.56,434.15c-.33.3-7.99.4-15.4.29-.87-.01-3.32-1.42-4.17-1.44-.84-.02-.07,1.34-.87,1.32-4.98-.16-8.9-.44-8.89-.85.01-4.75,1.9-9.45,2.76-10.78,1.81.46,6.48,0,6.67-.53,3.02,2.81,7.48,6.2,8.59,6.77,2.61,1.36,10.77,2.11,11.32,5.23Z"/>
      <path class="cls-7" d="M634.52,359.49c25.23-7.17,48.98-6.87,55.94-.95,7.65,6.5-7.97,59.29-9.36,64.44h-8.6c-.59-7.6-.43-44.22-3.18-45.32-2.87-1.15-61.63,6.85-62.78,1.38-1.15-5.47,4.99-21.01,4.99-21.01l22.98,1.47Z"/>
    </g>
    <g>
      <path class="cls-7" d="M604.92,379.55l14.97.96,55.51-1.67s4.1-11.57,1.41-14.12c-2.7-2.55-74.47,0-74.47,0l2.58,14.83Z"/>
      <g>
        <path class="cls-43" d="M704.9,440.85h-32.62c-1.78,0-3.22-1.44-3.22-3.22v-55.08h-64.72c-1.63,0-3-1.21-3.19-2.83l-8.93-73.12-16.15-3.28c-1.74-.35-2.87-2.05-2.51-3.79.35-1.74,2.05-2.87,3.79-2.51l18.42,3.74c1.36.28,2.39,1.39,2.55,2.76l8.87,72.59h65.09c1.78,0,3.22,1.44,3.22,3.22v55.08h29.41c1.78,0,3.22,1.44,3.22,3.22s-1.44,3.22-3.22,3.22Z"/>
        <path class="cls-43" d="M675.5,379.33h-6.44v-27.63c0-2.04-1.66-3.69-3.69-3.69h-65.06v-6.44h65.06c5.58,0,10.13,4.54,10.13,10.13v27.63Z"/>
      </g>
      <g>
        <circle class="cls-43" cx="672.53" cy="434.16" r="13.57" transform="translate(-114.95 290.41) rotate(-22.5)"/>
        <path class="cls-10" d="M672.53,444.01c-5.43,0-9.85-4.42-9.85-9.85s4.42-9.85,9.85-9.85,9.85,4.42,9.85,9.85-4.42,9.85-9.85,9.85ZM672.53,428.41c-3.17,0-5.75,2.58-5.75,5.75s2.58,5.75,5.75,5.75,5.75-2.58,5.75-5.75-2.58-5.75-5.75-5.75Z"/>
      </g>
      <g>
        <g>
          <rect class="cls-43" x="618.72" y="359.73" width="2.34" height="85.56"/>
          <rect class="cls-43" x="618.72" y="359.73" width="2.34" height="85.56" transform="translate(-100.28 236.29) rotate(-20)"/>
          <rect class="cls-43" x="618.72" y="359.73" width="2.34" height="85.56" transform="translate(-113.7 492.63) rotate(-40)"/>
          <rect class="cls-43" x="618.72" y="359.73" width="2.34" height="85.56" transform="translate(-38.64 738.1) rotate(-60)"/>
          <rect class="cls-43" x="618.72" y="359.73" width="2.34" height="85.56" transform="translate(115.85 943.09) rotate(-80)"/>
          <rect class="cls-43" x="577.11" y="401.34" width="85.56" height="2.34" transform="translate(-60.5 113.82) rotate(-10)"/>
          <rect class="cls-43" x="577.11" y="401.34" width="85.56" height="2.34" transform="translate(-118.21 363.89) rotate(-30)"/>
          <rect class="cls-43" x="577.11" y="401.34" width="85.56" height="2.34" transform="translate(-86.89 618.72) rotate(-50.01)"/>
          <rect class="cls-43" x="577.11" y="401.34" width="85.56" height="2.34" transform="translate(29.6 847.3) rotate(-69.99)"/>
        </g>
        <path class="cls-43" d="M619.89,362.81c21.89,0,39.71,17.81,39.71,39.71s-17.81,39.71-39.71,39.71-39.71-17.81-39.71-39.71,17.81-39.71,39.71-39.71h0ZM619.89,356.22c-25.57,0-46.3,20.73-46.3,46.3s20.73,46.3,46.3,46.3,46.3-20.73,46.3-46.3-20.73-46.3-46.3-46.3h0Z"/>
        <path class="cls-43" d="M619.89,363.58c21.47,0,38.93,17.47,38.93,38.93s-17.47,38.93-38.93,38.93-38.93-17.47-38.93-38.93,17.47-38.93,38.93-38.93h0ZM619.89,361.24c-22.79,0-41.27,18.48-41.27,41.27s18.48,41.27,41.27,41.27,41.27-18.48,41.27-41.27-18.48-41.27-41.27-41.27h0Z"/>
        <circle class="cls-43" cx="619.89" cy="402.51" r="8.31" transform="translate(36.77 856.66) rotate(-70.91)"/>
        <path class="cls-43" d="M619.89,407.8c-2.91,0-5.29-2.37-5.29-5.29s2.37-5.29,5.29-5.29,5.29,2.37,5.29,5.29-2.37,5.29-5.29,5.29ZM619.89,400.15c-1.3,0-2.36,1.06-2.36,2.36s1.06,2.36,2.36,2.36,2.36-1.06,2.36-2.36-1.06-2.36-2.36-2.36Z"/>
      </g>
    </g>
    <path class="cls-39" d="M690.02,343.31c1.48.52,1.74,9.73.57,11.33-.45.61-5.59.84-7.41.4-.5-.12-.64-.35-1.46-.55-2.32-.57-2.34-5.97-2.49-7.01-.18-1.28.62-6.31,3.15-6.24.27,0,2.38.82,4.44,1.51,1.43.48,2.74.39,3.21.55Z"/>
  </g>
  <g>
    <path class="cls-41" d="M732.67,319.23c-.86,8.27-2.02,16.54-2.23,24.85-.23,9.34-1.56,18.61-1.61,27.94-.03,5.43-.26,10.85-.59,16.25-.4,6.68-.35,13.35-.44,20.03-.02,1.88.56,2.66,2.38,2.61.44,0,.88.1,1.31.15,2.68.14,5.36.27,8.04.41.75.09,1.13-.18,1.25-1,1.75-11.71,3.72-23.39,5.23-35.13.98-7.62,1.66-15.29,2.6-22.92.12-1,.3-1.99.51-3.41.69,4.36.57,8.33.79,12.28.56,10.39.86,20.79,1.4,31.18.33,6.42.94,12.83,1.36,19.24.09,1.33.58,1.87,1.9,1.53,1.12-.29,2.26-.09,3.39-.09,2.72.41,5.43.39,8.15.06,1.26.18,1.46-.6,1.51-1.6.31-6.62.77-13.22.89-19.85.19-11.04.65-22.07.97-33.11.11-3.66-.05-7.31.26-10.97.67-7.99.81-16,.11-24.01-1.47.44-2.97.38-4.47.38-1.56,0-3.11-.09-4.68.28-6.94,1.63-13.64.5-20.24-1.85-2.66-.95-4.89-2.9-7.79-3.23Z"/>
    <path class="cls-25" d="M731.51,317.38c.55-5.33.31-10.7,1.16-16.02.49-3.03,1.39-6.02,1.06-9.17-.12-1.16-.4-1.32-1.49-1.02-1.97.53-3.76,1.45-5.66,2.12-3.18,1.12-7.84-1.43-8.78-4.76.12.04.25.06.35.13,3.72,2.93,6.07,2.18,7.65-2.32,1.12-3.17.35-6.28-.06-9.41-.06-.43-.11-.86-.16-1.29,2.37-3.65,4.52-7.51,5.54-11.7,2.04-8.37,7.99-12.14,15.5-14.43.26.17.54.32.78.52,4,3.18,6.69,3.09,10.62-.37,5.15,1.99,9.8,4.81,14.12,8.23,2.18,1.72,3.24,3.92,3.45,6.64.37,4.8,2.38,9.21,3.46,13.85.42,1.82.79,3.61.49,5.4-.27,1.64,0,3.08.53,4.6.67,1.91,1.1,3.81.11,5.85-1.76,3.62-4.55,5.23-8.53,4.87-.49-.04-1.3-.49-1.42.35-.24,1.73-.92,3.4-.55,5.22,1.3,6.31.83,12.64.17,18.97-1.47.44-2.97.38-4.47.38-1.56,0-3.11-.09-4.68.28-6.94,1.63-13.64.5-20.24-1.85-2.66-.95-4.89-2.9-7.79-3.23-.47-.56-1.25-.94-1.16-1.84ZM736.48,277.59c-.25,3.6,1.75,5.96,4.48,7.89.82,5.15,2.29,10.16,3.31,15.26.21,1.06.81,1.42,1.74,1.14,4.6-1.39,9.39-1.62,14.1-2.29,1.3-.18,2.71-.48,3.92-.17,2.03.53,2.45-.31,2.35-2.01,2.04.4,4.1.61,6.18.54,2.84-.1,4.57-1.11,5.22-3.14.72-2.26-.07-4.35-2.29-6.07-2.5-1.93-5.51-2.7-8.4-3.75-1-.36-2-.72-3-1.07-.83-5.79-1.71-11.57-2.46-17.37-.21-1.59-.88-2.25-2.45-2.09-3.27.33-6.4,1.34-9.59,2.04-3.57.77-7.11,1.66-10.68,2.41-1.37.29-1.8.92-1.44,2.26.34,1.27.59,2.57.88,3.86-1.62.12-1.79,1.37-1.87,2.56Z"/>
    <path class="cls-38" d="M717.8,288.53c.12.04.25.06.35.13,3.72,2.93,6.07,2.18,7.65-2.32,1.12-3.17.35-6.28-.06-9.41-.06-.43-.11-.86-.16-1.29-1.33-7.06-3.26-13.99-5.14-20.91-.57-2.09.1-3.98.46-5.95.28-1.55.62-3.09.82-4.64.08-.65.07-1.48-.74-1.77-.7-.25-1.17.27-1.63.72-1.82,1.8-1.78,1.78-3.12-.49-.7-1.19-1.5-2.34-2.39-3.4-1.33-1.59-2.76-1.44-3.79.34-1.67,2.87-2.18,5.68.17,8.56,1.19,1.45,2.17,3.11,3.04,4.78,1.08,2.07.76,4.44.9,6.66.37,6.22.51,12.46.66,18.7.09,3.54.67,6.89,2.71,9.87.1.15.21.3.31.45l-.04-.02Z"/>
    <path class="cls-38" d="M746.63,249.52c.26.17.54.32.78.52,4,3.18,6.69,3.09,10.62-.37-.28-1.73-.62-3.46-.83-5.21-.34-2.72-.19-5.39,1.28-7.82-.93-.65-.1-1.05.22-1.5,1.96-2.73,1.64-5.99-1.08-7.89-2.45-1.71-5.31-2.5-8.27-3.01-1.95-.33-2.9,1.13-4.27,1.87-1.45,3.81-1.52,7.72-.73,11.65.31,1.55,1.16,2.95,2.39,3.98,1.06.88,1.32,1.83,1.08,3.14-.29,1.58.06,3.3-1.18,4.64Z"/>
    <path class="cls-13" d="M745.07,226.12c1.36-.74,2.32-2.21,4.27-1.87,2.96.51,5.83,1.3,8.27,3.01,2.72,1.9,3.04,5.16,1.08,7.89-.32.44-1.15.85-.22,1.5,3.09-1.69,4.55-4.86,6.59-7.48.89-1.15.69-2.79.33-4.14-.41-1.54-.25-2.79.5-4.2.72-1.35-.51-2.06-1.52-2.48-1.66-.69-3.11-1.46-3.44-3.45-.15-.93-1.13-.9-1.74-1.3-2.69-1.76-6.76-1.31-8.85,1.05-.77.87-1.18.62-1.74-.1-.85-1.1-1.47-1.04-2.23.23-.63,1.05-1.09,2.25-2.22,3-.74.49-.56,1.34-.3,2.08.71,2.03,1.17,4.11,1.22,6.27Z"/>
    <path class="cls-22" d="M759.63,424.08c-.87,2.96-1.72,5.93-2.63,8.89-.33,1.07.12,1.4,1.08,1.4,5.56.02,11.11.05,16.67.06.43,0,.92.04,1.16-.44.21-.41.01-.77-.31-.98-3.87-2.42-6.46-6.16-9.58-9.34-2.14,0-4.28.08-6.39.41Z"/>
    <path class="cls-22" d="M731.47,423.07c-2,.76-2.78,2.69-3.87,4.25-1.12,1.61-2.39,3.08-3.57,4.63-1.02,1.34-.74,2.15.94,2.21,4.4.15,8.81.11,13.22.12.91,0,1.24-.69,1.18-1.41-.28-3.06-.59-6.11-1.82-8.98-2.03-.28-4.05-.56-6.08-.83Z"/>
    <path class="cls-38" d="M731.47,423.07c2.03.28,4.05.56,6.08.83,1.03-4.09,1.43-8.27,1.99-12.44-2.68-.14-5.36-.27-8.04-.41.05,4,.21,8.01-.03,12.01Z"/>
    <path class="cls-38" d="M759.63,424.08c2.12-.34,4.25-.42,6.39-.41.03-3.49.07-6.98.1-10.47-2.72.33-5.44.35-8.16-.06.55,3.65,1.1,7.29,1.66,10.94Z"/>
    <path class="cls-6" d="M717.84,288.55c-.1-.15-.21-.3-.31-.45,0,.23.04.42.31.45Z"/>
    <path class="cls-38" d="M766.39,297.41c2.04.4,4.1.61,6.18.54,2.84-.1,4.57-1.11,5.22-3.14.72-2.26-.07-4.35-2.29-6.07-2.5-1.93-5.51-2.7-8.4-3.75-1-.36-2-.72-3-1.07-4.05-.9-7.99-2.19-11.95-3.38-.85-.26-1.37-.63-1.9-1.32-1.68-2.19-3.45-4.32-5.23-6.44-.39-.47-.96-.9-1.65-.51-.6.34-.55.98-.47,1.52.15.97.42,1.91.69,3.08-1.89-.6-3.7-.79-5.23-1.85-1.62.12-1.79,1.37-1.87,2.56-.25,3.6,1.75,5.96,4.48,7.89,1.25.07,2.51.16,3.76.21,1.53.06,3,.32,4.26,1.27,1.91,1.44,4.06,2.49,6.1,3.73,3.76,2.27,7.69,4.23,11.3,6.73Z"/>
    <path class="cls-11" d="M738.36,275.02c1.53,1.06,3.34,1.24,5.23,1.85-.27-1.17-.53-2.12-.69-3.08-.09-.54-.13-1.18.47-1.52.7-.39,1.26.05,1.65.51,1.78,2.11,3.55,4.24,5.23,6.44.53.69,1.05,1.07,1.9,1.32,3.97,1.19,7.9,2.49,11.95,3.38-.83-5.79-1.71-11.57-2.46-17.37-.21-1.59-.88-2.25-2.45-2.09-3.27.33-6.4,1.34-9.59,2.04-3.57.77-7.11,1.66-10.68,2.41-1.37.29-1.8.92-1.44,2.26.34,1.27.59,2.57.88,3.86Z"/>
    <path class="cls-11" d="M766.39,297.41c-3.61-2.5-7.55-4.47-11.3-6.73-2.04-1.23-4.19-2.28-6.1-3.73-1.26-.95-2.73-1.21-4.26-1.27-1.25-.05-2.51-.14-3.76-.21.82,5.15,2.29,10.16,3.31,15.26.21,1.06.81,1.42,1.74,1.14,4.6-1.39,9.39-1.62,14.1-2.29,1.3-.18,2.71-.48,3.92-.17,2.03.53,2.45-.31,2.35-2.01Z"/>
  </g>
  <g>
    <path class="cls-20" d="M341.4,268.38c-3.35-.84-6.28-1.25-8.44-1.68-7.97-1.56-18.3,1.18-25.98,3.82.82-4.51,3.55-11.21,3.76-15.79.13-2.9.06-5.89,1.09-8.6.15-.4.34-.8.66-1.07.46-.39,1.1-.45,1.7-.5,5.58-.42,11.17-.66,16.76-.72,1.66-.02,3.34-.02,4.98.25.69.12,1.45.32,1.84.91.29.43.32.99.33,1.51.22,6.9,2.14,11.06,2.36,17.96l.93,3.91Z"/>
    <g>
      <path class="cls-35" d="M315.15,276.54c.27.32.48.7.84.91.41.25.93.23,1.41.19.76-.06,1.51-.15,2.26-.26.39-.06.8-.14,1.09-.41.24-.23.32-.58.26-.9,1.32,1.1,3.03,2.04,2.6,3.07-3.89-.04-9.46.92-9.65-.61-.07-.52.26-1.53.39-2.69.3.19.58.42.81.7Z"/>
      <path class="cls-45" d="M312.55,218.64c3.55-7.38,2.88-11.81,2.88-11.81,0,0,2.59,4.05,9.77,4.17-.38,1.65-1.2,4.53-2.95,8.94-.78,1.96-.2,4.41.92,8.65-.3,5.61-.84,15.29-1.07,18.55-.33,4.69-.69,4.46-1.26,8.81-.29,2.21-1.01,11.39-1.24,17.93-.03.81.62,1.52,1.4,2.17.06.32-.02.68-.26.9-.29.27-.7.35-1.09.41-.75.12-1.5.2-2.26.26-.48.04-.99.06-1.41-.19-.36-.22-.57-.59-.84-.91-.23-.28-.5-.51-.81-.7.07-.61.09-1.27-.04-1.91-.43-4.48-1.72-8.82-1.5-14.91.41-11.07-1.56-6.39-1.62-11.44-.12-10.91-1.55-22.88,1.36-28.94Z"/>
      <path class="cls-45" d="M325.83,211.01c-.22,0-.42,0-.63-.01.13-.55.21-.96.25-1.24.06.74.94,1.93,6.39,1.02,0,0,5.7,13.95,5.26,35.96-.09,4.7-2,6.73-1.92,11.13.08,4.4-.12,17.4-.17,17.42.03.47,1.97,1.03,3.51,1.57-1.16.36-2.33.67-3.53.77-.83.07-1.75,0-2.35-.56-.25-.24-.43-.56-.68-.8-.31-.3-.71-.46-1.14-.54-.41-2.29-2.23-12.86-3.32-22.61-1.24-11.01.66-.2-.12-5.19-1.42-9.1-3.08-15.11-4.2-19.34.13-2.47.22-4.15.22-4.15,2.83-1.36,2.44-13.43,2.44-13.43Z"/>
      <path class="cls-35" d="M332.63,277.07c.6.57,1.52.63,2.35.56,1.2-.1,2.38-.41,3.53-.77.89.32,1.65.63,1.83.91.02.03,2.15.54,2.29.79.21.38,0,.85-.43.95-1.92.44-10.44-.17-11.53-.37-.93-.75.34-2.52.23-2.95,0,0-.03-.16-.09-.46.43.08.82.24,1.14.54.25.24.43.56.68.8Z"/>
      <path class="cls-45" d="M322.25,219.94c1.75-4.41,2.57-7.29,2.95-8.94.21,0,.41.02.63.01,0,0,.39,12.07-2.44,13.43,0,0-.09,1.68-.22,4.15-1.12-4.24-1.7-6.69-.92-8.65Z"/>
    </g>
    <path class="cls-45" d="M329.98,187.03s2.77-.36,5.08,4.87c2.31,5.23,3.6,16.21,5.17,20.38s.74,17.86.74,17.86l-2.4,6.93s-4.31-16.18-6.7-21.28c-2.39-5.1-5.35-25.59-1.89-28.76Z"/>
    <path class="cls-22" d="M326.7,180.29s5.7,1.32,6.18-2.42c.07-.55.33-1.07.73-1.45.79-.73,1.83-2.25.62-4.59-.25-.49-.35-1.04-.24-1.57.22-1.04.32-2.81-1.38-3.4-.83-.29-1.45-.99-1.56-1.86-.16-1.28-.9-2.83-3.5-2.8-.63,0-1.23-.25-1.67-.7-.92-.93-2.76-2.16-5.07-.41-.56.42-1.27.57-1.95.41-1.11-.27-2.78-.28-3.59,1.77-.26.66-.82,1.14-1.49,1.35-.98.3-2.2,1.1-2.08,3.2.03.57-.18,1.12-.53,1.58-.73.96-1.64,2.77-.16,4.71.36.48.56,1.08.48,1.67-.15,1.16-.02,3.07,2.26,3.61.45.11.87.32,1.19.66.96,1.02,3.33,2.95,6.27.93,3.77-2.6,5.49-.69,5.49-.69Z"/>
    <path class="cls-25" d="M328.54,175.91s2-3.58.01-7.67c-1.99-4.09-7.18-2.73-7.18-2.73,0,0-4.81.95-5.08,5.75-.26,4.8,3.29,6.32,3.29,6.32l8.96-1.68Z"/>
    <path class="cls-22" d="M328.55,174.55s2.15-7.41-4.69-7.39c-7.94.02-7.26,6.12-5.98,8.21,1.28,2.09,10.92,2.44,10.67-.82Z"/>
    <path class="cls-45" d="M314.06,196.55s0,0,.01.03c2.81,4.42,2.05,10.04,1.44,12.72,5.56,1.37,10,1.42,13.25,1.04,1.61-.71,2.55-1.37,2.55-1.37,0,0,1.05-9.13,1.92-11.58.21-.58.3-1.51.32-2.58.05-3.36-.62-8.12-.62-8.12-.69-.38-1.74-.65-2.79-.84-.17-.03-.34-.05-.51-.08-1.59-.24-3.04-.31-3.04-.31l-.16-1.7-.11-1.15-.18-1.87c-.24-2.48-5.32-1.42-5.32-1.42,0,0,0,.25,0,.65v5.44c0,.1-1.15.17-2.53.28-.15,0-.3.02-.45.03-1.65.14-3.47.34-4.02.71-1.08.71-.94,8.27.25,10.13Z"/>
    <path class="cls-45" d="M327.84,171.32c.51.72.66,2.06.71,3.63.15,4.76-2.14,6.51-3.7,6.51-1.6,0-4.97-.67-5.5-5.09-.26-2.21-.25-4.06.26-5.2,1.06-2.38,5.99-2.99,8.23.15Z"/>
    <path class="cls-22" d="M324.11,169.78c-.08.35-.25.69-.54.89-.3.21-.67.24-1.02.32-.35.08-.73.23-.88.57-.11.23-.09.5-.14.74-.07.37-.31.71-.63.89-.29.17-.65.23-.86.5-.15.19-.19.44-.29.66-.11.22-.35.41-.56.3-.41-.73-.81-1.5-.92-2.34-.18-1.32.4-2.69,1.39-3.53,1-.83,2.36-1.13,3.61-.86.95.2,1.03.95.84,1.84Z"/>
    <path class="cls-45" d="M319.68,175.33s-.74-1.97-1.92-.93c-1.17,1.04.44,3.87,2.24,3.64,0,0,.25-2.04-.32-2.72Z"/>
    <path class="cls-45" d="M313.83,187.53s-2.57-.44-4.31,5.04c-1.74,5.48.84,17.34-.27,21.69-1.11,4.34-4.08,30.83-4.08,30.83l4.11,3.31s2.61-27.85,4.45-33.21c1.84-5.36,3.97-24.82.11-27.65Z"/>
    <path class="cls-35" d="M315.34,202.51c.36,1.91.46,3.78.34,5.77-.06,1.11-.37,1.66.49,2.27.51.37,1.33.55,1.92.75,4.47,1.52,9.47,1.67,13.75-.52,0-.01-.85-3.44.93-10.07,0,0,.83-2.37.96-3.76.07-.71-.02-1.46-.19-2.15-.22-.89-.57-1.67-.87-2.16,0,0-3.19.58-7.81.65-2.38.03-4.94-.41-7.23-.77-.9-.15-1.76-.27-2.55-.36l-1.03,4.39s0,0,.01.03c.56,1.6.64,3.22,1.03,4.84.09.37.17.74.24,1.1Z"/>
    <path class="cls-35" d="M339.58,247.92s-9.86,5.48-27.58,1.04c0,0,2.78-33.04,6.13-38.42s15.14.66,15.14.66l6.31,36.72Z"/>
    <path class="cls-20" d="M304.14,271.35c1.49-.27,4.92-.95,7.39-3.18.45-.4.87-.85,1.24-1.36.76-1.04,1.31-2.33,1.5-3.91.03-.2.05-.42.08-.67.02-.25.05-.54.08-.84.12-1.39.25-3.29.4-5.53.03-.39.05-.79.08-1.2.1-1.48.9-11.44,1.04-13.46.03-.4.05-.79.08-1.18.11-1.52.23-3,.34-4.44.03-.36.06-.71.09-1.06.13-1.53.27-2.99.41-4.36.03-.34.07-.67.11-1,.18-1.67.38-3.17.58-4.42.06-.39.13-.77.19-1.11.18-.93.36-1.68.55-2.2.23-.62.55-1.48.95-2.47.08-.21.16-.42.25-.64.44-1.11.94-2.36,1.46-3.62.16-.39.32-.78.48-1.18.45-1.11.9-2.22,1.32-3.23.15-.36.3-.71.43-1.04.87-2.09,1.49-3.58,1.49-3.58,0,0,.28,1.28,1.04,3.46.1.31.22.63.35.98.33.89.73,1.91,1.21,3.02.15.36.32.73.49,1.11.56,1.24,1.22,2.58,1.98,4,.03.07.07.13.1.2.08.16.16.33.25.52.39.93.76,2.27,1.09,3.91.07.33.13.67.19,1.02.24,1.31.46,2.78.66,4.37.04.27.08.56.11.84.17,1.43.34,2.95.49,4.53.03.4.07.8.11,1.2.15,1.68.3,3.43.43,5.21.02.31.05.62.07.94.12,1.76,1.17,18.31,1.22,19.75,0,.32.02.64.03.95.05,1.87.1,3.45.13,4.68,0,.32.01.62.02.89.02,1.18.03,1.84.03,1.84,3.39.8,6.7-.62,6.7-.62,0,0-.04-.58-.12-1.84,0-.18-.02-.36-.03-.57-.07-1.11-.15-2.62-.25-4.58,0-.23-.02-.47-.03-.71-.08-1.56-.16-3.38-.25-5.47-.01-.28-.02-.56-.03-.86-.09-2.01-.66-11.18-.7-12.63-.01-.39-.03-.78-.05-1.15,0-.25-.02-.5-.03-.74-.11-2.19-.27-4.24-.46-6.16-.03-.23-.05-.46-.08-.69-.2-1.81-.43-3.49-.69-5.05-.03-.21-.06-.41-.1-.6-.27-1.6-.57-3.08-.88-4.44-.05-.23-.1-.45-.16-.67-.38-1.57-.77-2.98-1.17-4.23-.06-.21-.12-.41-.19-.6-.62-1.91-1.25-3.43-1.78-4.6-.12-.26-.24-.5-.35-.72-.3-.61-.57-1.1-.78-1.47-.32-.56-.55-1.15-.67-1.79-.04-.21-.07-.43-.08-.65,0-.02,0-.03,0-.05-.09-1.26-.13-3.08.22-4.51.08-.31.16-.6.29-.86.3-.69.74-1.17,1.4-1.29,2.88-.51,5.51-4.17,5.51-4.17,0,0-.2-.63-.55-1.59-.08-.23-.17-.47-.27-.74-.36-.96-.83-2.13-1.35-3.26-.09-.19-.18-.37-.26-.56-.34-.69-.69-1.35-1.04-1.94-.14-.21-.27-.42-.4-.61-.08-.12-.17-.24-.25-.35-.48-.64-1.11-1.13-1.77-1.52-.24-.14-.48-.27-.73-.38-2.1-.97-4.37-1.05-4.37-1.05-.2,1.01-.42,2.05-.65,3.09-.07.31-.14.62-.21.94-.21.91-.43,1.82-.64,2.71-.08.32-.15.62-.23.93-.33,1.36-.66,2.65-.96,3.83-.08.32-.16.63-.25.93-.25.98-.49,1.85-.68,2.58-.08.3-.16.58-.23.83-.26.98-.43,1.55-.43,1.55-.19-.48-.36-.95-.54-1.42-.09-.25-.18-.49-.27-.73-.3-.82-.58-1.61-.86-2.39-.1-.28-.2-.56-.3-.83-.44-1.27-.84-2.47-1.2-3.59-.08-.25-.16-.51-.25-.76-.36-1.15-.68-2.2-.96-3.14-.1-.35-.2-.69-.29-1.01-.67-2.31-1-3.69-1-3.69,0,0-3.01-.2-5.84,1.41-.1.05-.2.12-.3.19-.27.19-.56.43-.84.72-.79.77-1.62,1.86-2.42,3.04-.12.17-.23.34-.34.51-.52.79-1.02,1.61-1.48,2.4-.14.24-.27.47-.41.71-.54.95-1,1.82-1.37,2.51-.12.23-.23.45-.32.63-.29.57-.45.91-.45.91,1.47,1.63,3.39,2.79,5.44,3.53,1.22.44,3.61.39,4.6,1.02.53.34.27,2.29.25,2.86-.03.93-.14,1.9-.31,2.87-.07.36-.14.72-.22,1.09-.2.95-.45,1.91-.73,2.86-.1.38-.22.75-.34,1.13-.41,1.29-.85,2.57-1.3,3.8-.12.34-.24.67-.36,1-1.92,5.28-3.79,10.01-4.31,15.69-.66,7.18-1.34,8.7-1.36,15.91-.02,7.37.26,14.35-2.36,21.33Z"/>
  </g>
  <g>
    <path class="cls-34" d="M1377.84,290.71c-.14,1.47-.28,2.94-.49,4.4-.19,1.27-.43,2.53-.65,3.8-.83,4.71-1.75,9.5-2.27,14.26-.04.38-.08.78.03,1.15.21.69,1.33,1.12,2.04,1.23.72.11,1.38.2,2.08.04.07-4.98,2.67-9.78,4.46-14.43,1.96-5.07,3.09-10.45,3.33-15.88.05-1.17.06-2.34.26-3.5.59-3.4,2.01-6.5,2.15-9.95,0,0-2.93-.99-4.85-1-1.19,0-3.64-.16-4.26,1.12-.31.64-.23,1.62-.29,2.31-.1,1.06-.2,2.11-.3,3.17-.2,2.11-.4,4.23-.59,6.34-.22,2.31-.43,4.63-.65,6.94Z"/>
    <path class="cls-34" d="M1401.27,279.63c.72,1.96,1.32,3.97,1.87,5.99,2.49,9.12,4.11,18.44,5.78,27.74.1.58.23,1.19.64,1.61.66.68,1.87.53,2.55-.12.68-.66.82-.51.76-1.46-.06-.94-.17-3.79-.22-4.73-.35-6.19.19-12.45-.23-17.91-.33-4.23-1.72-5.86-2.68-10-.93-3.99-1.02-6.02-1.5-9.1-.03-.21,0-.45-.13-.61-.12-.15-.32-.2-.5-.24-2.15-.46-3.73-.58-5.91-.23h0c-.8.13-1.94.37-2.46,1.07-.46.63-.17,1.3,0,2.01.47,2.06,1.3,3.98,2.02,5.96Z"/>
    <path class="cls-19" d="M1380.99,257.33h0c-1.28,5.15-2.56,10.38-2.29,15.68,4.02.05,7.88,2,11.89,1.75-.01-1.5.48-2.96.96-4.38,1.03-3.02,2.05-6.04,3.08-9.06,1.67,4.2,1.52,9.01,3.54,13.05.08.17.17.34.33.44.18.13.42.14.64.15,4.02.19,8.38.29,11.65-2.06.1-.07.2-.15.25-.26.06-.13.03-.28,0-.42-.63-3.1-1.27-6.19-1.9-9.29-.25-1.24-.51-2.48-.52-3.75-.02-1.49.3-2.97.48-4.45.39-3.25.14-6.53-.11-9.79-6.29-1.42-12.83-1.73-19.22-.91-2.35.3-5.65.7-6.29,3.33-.82,3.32-1.65,6.64-2.47,9.97Z"/>
    <path class="cls-43" d="M1374.35,313.18c-.16,0-.33.02-.48.09-.15.06-.27.17-.39.27-.82.65-1.86,1.02-2.91,1.05-.46.01-.91-.04-1.37-.03-.57.01-1.15.12-1.64.41-.49.29-.89.76-.99,1.32-.01.07-.02.15,0,.22.03.09.1.16.17.22.7.65,1.41,1.3,2.27,1.73.52.26,1.08.43,1.64.59,2.97.84,6.18,1.42,9.11.45,0-1.28-.19-2.57-.57-3.79-.03-.09-.06-.18-.13-.24-.11-.1-.28-.09-.42-.08h0c-1.08.04-1.17-.62-1.78-1.26-.61-.64-1.63-.95-2.49-.93Z"/>
    <path class="cls-43" d="M1408.77,313.83h0c-.7.41-.81,1.35-1.1,2.11-.47,1.23-1.54,2.11-2.33,3.16-.22.29-.43.66-.32,1.01.14.43.68.57,1.13.6.92.06,1.84-.03,2.76-.12.74-.07,1.5-.15,2.19-.44.94-.39,1.67-1.15,2.38-1.88.42-.43.84-.87,1.25-1.3.1-.1.2-.21.24-.35.04-.15-.01-.32-.07-.46-.29-.76-.73-1.45-1.16-2.13-.23-.35-.47-.73-.86-.9-.64-.28-1.23.44-1.86.51-.74.09-1.57-.21-2.25.19Z"/>
    <path class="cls-29" d="M1408.22,227.07c-.16.55-.06,1.13.03,1.69.84,5.1,1.1,10.28.78,15.44-.02.36-.05.73-.24,1.03-.15.24-.4.42-.64.57-1.49.92-3.23,1.32-4.94,1.68-3.24.68-6.54,1.27-9.85,1.12-3.31-.15-6.67-1.09-9.24-3.18-.07-1.87-.15-3.74-.22-5.61-.06-1.55-.12-3.1-.06-4.64.15-3.66.99-7.27,1.23-10.93,0-.02,0-.03,0-.04.01-.19.02-.39.03-.58,0-.21.02-.42.02-.63.02-.43.02-.85.02-1.28,0-.35,0-.69,0-1.03,0-.2,0-.41-.01-.61,0-.21-.01-.42-.02-.63,0-.1,0-.19,0-.29-.01-.32-.03-.63-.04-.95,0-.2-.02-.41-.03-.62-.01-.28-.03-.57-.04-.85-.01-.3-.03-.6-.04-.9-.02-.35-.04-.71-.05-1.07,0-.11,0-.21-.01-.32-.04-.89-.07-1.78-.07-2.67,0-1.45.05-2.93.61-4.26.74-1.79,2.23-3.01,3.96-3.79,1.73-.78,3.71-1.12,5.45-1.15,3.35-.06,6.95-.04,9.67,1.91,2.59,1.86,3.79,5.06,4.86,8.07.08.22.16.44.23.66.04.11.08.22.12.33.08.23.16.45.24.68.11.3.21.6.32.9.18.52.37,1.04.55,1.56.07.2.14.4.21.59.13.36.26.72.38,1.08.04.11.08.22.12.33.21.58.42,1.17.62,1.76.06.17.12.34.12.52,0,.29-.19.55-.35.79-1.03,1.42-2.05,2.84-3.08,4.26-.24.34-.49.68-.61,1.08Z"/>
    <path class="cls-19" d="M1393.01,183.94c1.61-.51,3.27-.92,4.96-.93.41,0,.83.02,1.22.13,1.3.36,2.18,1.56,2.76,2.77.42.88.75,1.8.97,2.75.19.83.3,1.72,0,2.53-.29.8-1.1,1.47-1.95,1.35.25.41.04.97-.3,1.31s-.8.55-1.17.85c-.72.6-1.19,1.6-2.11,1.78-.83.16-1.6-.44-2.16-1.08-.47-.54-.89-1.14-1.12-1.82-.31-.9-.29-1.9-.76-2.73h0c-.7-1.25-2.16-1.64-3.18-2.54-1.18-1.04-.68-2.37.43-3.25.7-.55,1.55-.85,2.39-1.12Z"/>
    <path class="cls-34" d="M1398.77,191.27c-.15-.04-.32,0-.47.05-.17.06-.34.15-.49.25-.16.28-.23.64-.3.96-.18.76-.59,1.58-1.35,1.77.19-.42.24-.89.15-1.34-.54-.11-1.02-.47-1.27-.96-.25-.49-.25-1.09-.02-1.59-.11.14-.28.21-.45.27-.93.31-1.94.41-2.9.21-.89-.18-1.74-.63-2.35-1.3,0,.04,0,.08-.01.12-.04.48,0,1-.02,1.38-.01.4-.02.8-.02,1.19,0,.62.03,1.24.08,1.86.11,1.14.32,2.28.7,3.37.15.45.35.9.67,1.25.47.48,1.21.69,1.86.51.07.37.07.73.02,1.09-.12.95-.54,1.89-.86,2.81-.07.18-.13.38-.15.57-.01.13-.01.26.02.38.13.52.69.81,1.21.96,1.79.51,3.81.15,5.31-.96.02-.01.04-.03.06-.04.34-.26.68-.6.7-1.04.01-.34-.18-.65-.35-.95-.49-.9-.74-1.9-.84-2.92-.02-.19-.03-.38-.04-.58-.06-1.21.07-2.41.19-3.62.01-.11.04-.24.13-.3.06-.04.14-.04.21-.05.38-.06.59-.47.71-.83.16-.51.26-1.03.29-1.56.02-.39-.06-.89-.44-.99ZM1390.11,192.3s0-.02,0-.03c.04-.02.09-.04.13-.07l-.13.09Z"/>
    <path class="cls-14" d="M1390.11,192.28s.09-.04.13-.07l-.13.09s0-.02,0-.03Z"/>
    <path class="cls-12" d="M1368.38,211.72h0l-4.92.12c-.23,0-.37.27-.23.46l1.27,1.83c.95,1.36,1.89,2.73,2.63,4.22,1.08.01,2.17.03,3.25.04.55,0,1.31-.12,1.38-.8.06-.55-.55-1.27-.81-1.71-.82-1.41-1.68-2.79-2.57-4.15Z"/>
    <path class="cls-27" d="M1364.37,212.89c.01-.07.06-.13.15-.14.29-.03.7.21.65.54-.05.36-.44.31-.66.13-.15-.12-.26-.39-.14-.53Z"/>
    <path class="cls-27" d="M1364.98,213.83c.01-.07.06-.14.15-.14.29-.03.7.21.65.54-.05.36-.44.31-.66.13-.15-.12-.26-.39-.14-.53Z"/>
    <path class="cls-27" d="M1365.49,213.12c.01-.07.06-.14.15-.14.29-.03.7.21.65.54-.05.36-.44.31-.66.13-.15-.12-.26-.39-.14-.53Z"/>
    <path class="cls-4" d="M1368.83,213.03c.22.23.37.52.52.8.18.35.38.69.57,1.03.1.18-.18.34-.28.16-.17-.31-.35-.62-.52-.94-.16-.29-.29-.59-.52-.83-.14-.15.08-.37.23-.23Z"/>
    <path class="cls-4" d="M1364.18,212.08h3.92c.21,0,.21.32,0,.32h-3.92c-.21,0-.21-.32,0-.32Z"/>
    <path class="cls-14" d="M1397.81,191.58c-.16.28-.23.64-.3.96-.18.76-.59,1.58-1.35,1.77.19-.42.24-.89.15-1.34-.54-.11-1.02-.47-1.27-.96-.25-.49-.25-1.09-.02-1.59-.11.14-.28.21-.45.27-.93.31-1.94.41-2.9.21-.89-.18-1.74-.63-2.35-1.3.04-.34.12-.66.3-.89.38-.49,1.29-.72,1.85-.89.92-.27,1.9-.35,2.85-.23,1.04.14,2.13.58,2.67,1.48.3.5.4,1.08.5,1.65.06.35.12.73.02,1.07.09-.09.19-.17.3-.23Z"/>
    <path class="cls-7" d="M1397.59,192.19h0c-.03.12-.05.24-.08.35-.18.76-.59,1.58-1.35,1.77.19-.42.24-.89.15-1.34-.54-.11-1.02-.47-1.27-.96-.25-.49-.25-1.09-.02-1.59-.11.14-.28.21-.45.27-.93.31-1.94.41-2.9.21-.89-.18-1.74-.63-2.35-1.3-.05-.05-.09-.11-.14-.16.04.09.09.19.12.28-.04.48,0,1-.02,1.38-.01.4-.02.8-.02,1.19-.2-.07-.38-.18-.52-.32-.38-.38-.51-.97-.43-1.5-.59-.35-1.06-.91-1.29-1.56-.08-.22-.13-.46-.12-.69.05-.74.74-1.27,1.39-1.63.9-.5,1.88-.9,2.91-.98.96-.07,1.91.16,2.84.41.53.14,1.07.3,1.52.63.44.33.78.85.74,1.4,0,0,1.4,1.19,1.27,4.13Z"/>
    <path class="cls-34" d="M1383.37,226.15c-.06,1.05-.24,2.18-.98,2.92-.19.18-.42.34-.68.35-.19,0-.37-.06-.55-.13-2.02-.8-4.01-1.7-5.93-2.71-1.76-.92-3.51-1.95-4.94-3.34-.41-.39-.79-.81-1.16-1.23-1-1.1-2-2.22-2.85-3.45-.31-.45-.73-.94-.67-1.52.02-.24.11-.69.28-1,.09-.27.21-.54.35-.76.11-.18.26-.32.42-.46.28-.25.58-.48.89-.71.3-.23.61-.45.97-.55.11.23.05.52-.08.74-.13.22-.33.4-.53.57-.05.04-.1.08-.15.13.07-.03.15-.05.22-.08.43-.13.85-.26,1.29-.35.05,0,.11-.02.16,0,.06.02.11.07.15.12.17.21.34.43.51.65.07,0,.13,0,.2.02.07,0,.15,0,.2.05.05.04.09.09.12.14.12.21.25.41.37.62.02.04.05.08.05.12,0,.02,0,.04-.01.05.04.03.09.06.13.09.1.07.2.15.27.24.08.11.12.23.16.35.07.2.13.39.2.59,0,.02.01.04.01.06,0,.07-.1.11-.17.11-.26.02-.53-.11-.69-.32-.03-.04-.06-.08-.1-.11-.1-.06-.23,0-.32.09,0,0-.02.01-.02.02.17.48.34.96.5,1.44.1.29.2.59.39.84.2.27.47.47.75.65,1.04.66,2.2,1.1,3.35,1.53,1.89.71,3.81,1.42,5.82,1.62.46.04.95.07,1.33.33.7.46.76,1.45.71,2.29Z"/>
    <path class="cls-26" d="M1409.7,213.52c-1.07-.06-2.14-.09-3.21-.09-2.56,0-5.11.15-7.67.35-4.65.36-9.29.89-13.95.98,0-.11,0-.21-.01-.32,4.56-.09,9.1-.59,13.65-.95,2.5-.2,5.01-.35,7.52-.37,1.18,0,2.37,0,3.55.08.04.11.08.22.12.33Z"/>
    <path class="cls-26" d="M1410.27,215.1c-1.38.08-2.76.22-4.04.27-2.53.09-5.06.21-7.58.46-2.6.25-5.19.45-7.79.65-1.3.1-2.6.24-3.9.31-.59.03-1.3-.05-1.98-.08-.01-.3-.03-.6-.04-.9.38.03.76.06,1.13.06,1.39-.03,2.77-.19,4.16-.3,2.81-.23,5.61-.43,8.42-.7,2.72-.27,5.46-.39,8.19-.48,1.01-.04,2.06-.13,3.11-.2.11.3.21.6.32.9Z"/>
    <path class="cls-26" d="M1411.03,217.26c-1.18.09-2.37.21-3.53.25-2.86.08-5.72-.02-8.58.04-2.87.06-5.74.29-8.6.54-1.65.14-3.53-.04-5.27.1,0-.2-.02-.41-.03-.62,1.55-.1,3.19.06,4.68-.06,3.07-.25,6.13-.53,9.21-.59,3.06-.06,6.13.05,9.19-.06.9-.04,1.81-.12,2.71-.18.07.2.14.4.21.59Z"/>
    <path class="cls-26" d="M1411.52,218.66c-1.24-.06-2.46-.04-3.7,0-2.81.08-5.61.06-8.42.17-2.83.11-5.65.27-8.48.38-1.41.05-2.82.04-4.22.14-.53.04-1.07.05-1.6.08,0-.1,0-.19,0-.29.34-.02.68-.03,1.01-.06,1.41-.11,2.81-.13,4.22-.17,2.82-.08,5.64-.26,8.46-.38,2.8-.12,5.61-.12,8.42-.18,1.34-.03,2.67-.1,4.01-.03.07,0,.13,0,.2.01.04.11.08.22.12.33Z"/>
    <path class="cls-26" d="M1403.73,220.28c-3.76,0-7.49-.11-11.24.22-1.81.16-3.63.25-5.44.26-.62,0-1.27-.05-1.91-.09,0-.2,0-.41-.01-.61.44.02.88.05,1.32.06,1.81.03,3.64-.07,5.44-.21,3.96-.31,7.87-.28,11.84-.27.41,0,.41.64,0,.64Z"/>
    <path class="cls-26" d="M1408.12,222.43c-7.67.12-15.33.46-23,.54.02-.43.02-.85.02-1.28,7.66-.08,15.32-.43,22.98-.54.82-.01.82,1.27,0,1.28Z"/>
    <path class="cls-26" d="M1402.84,224.34c-1.67-.35-3.47-.14-5.18-.14s-3.43,0-5.15,0c-1.76,0-3.52.06-5.28.09-.72,0-1.45-.03-2.17-.04,0-.02,0-.03,0-.04.01-.19.02-.39.03-.58.63,0,1.26.04,1.9.04,1.84,0,3.68-.09,5.52-.09,1.92,0,3.84,0,5.76,0,1.57,0,3.18-.15,4.73.17.4.08.23.7-.17.61Z"/>
    <path class="cls-34" d="M1416.23,244.73h0c.09.18.17.37.2.56.03.21,0,.42-.04.63-.18,1.05-.35,2.11-.53,3.16-.08.48-.08,1.11.38,1.29.21.08.47.02.67.12.18.09.28.28.37.47.27.56.53,1.11.8,1.67.06.13.13.27.25.36.27.19.63.03.9-.15.62-.4,1.19-.88,1.7-1.42.45-.48.86-1.06.83-1.72-.01-.35-.15-.68-.29-1.01-.5-1.18-.99-2.37-1.49-3.55-.2-.48-.41-.97-.58-1.46-.19-.54-.35-1.09-.51-1.64-1.04-3.62-1.95-7.27-2.74-10.96-.05-.22-1.6-.14-1.79-.12-.6.06-1.21.21-1.76.46-.76.35-1.31.9-1.29,1.79.03,1.11.74,2.26,1.17,3.25.56,1.3,1.13,2.59,1.72,3.88.66,1.47,1.34,2.93,2.03,4.38Z"/>
    <path class="cls-43" d="M1392.61,200.38c-.12.95-.54,1.89-.86,2.81-.07.18-.13.38-.15.57-.55,1.23-1.14,2.41-1.92,3.54-.51.73-1.05,1.43-1.43,2.23-.24.51-.4,1.04-.55,1.58-1.16,4.27-1.21,8.75-1.19,13.17.04,9.18.32,18.36.84,27.53-1.65-.87-3.23-1.88-4.71-3.01-.27-.2-.54-.43-.65-.74-.16-.46.08-.94.17-1.42.27-1.39-.71-2.72-.82-4.14-.07-.97.29-1.92.58-2.86.94-2.99,1.32-5.55,1.02-8.67-.17.53-.8.51-1.34.35-.27-.08-.95-.23-1.23-.32-1.25-.43-1.52-.69-1.86-2.8,1.1.41,2.55-.93,2.69-2.1.14-1.17-.19-2.16-1.21-2.87.68-.37.92-1.21,1.1-1.96.6-2.52,1.21-5.06,1.26-7.65.04-2.39-.35-4.99.95-7.01.83-1.28,2.21-2.08,3.53-2.83,1.05-.59,2.15-1.35,3.28-2.05.82-.51,1.66-.98,2.48-1.34Z"/>
    <path class="cls-43" d="M1416.84,234.17c-1.51.37-3.29.97-4.81,1.34-.53-.48-.97-1.14-.92-1.85-.74,1.81-1.15,3.42-.87,5.36.14,1.02.58,2,.62,3.03.12,2.35-1.75,4.64-1.04,6.88.04.13.1.27.06.42-.05.22-.27.34-.48.43-2.88,1.25-6.01,1.92-9.15,1.95-.04-2.91-.48-5.82-1.31-8.61-.34-1.14-.74-2.27-.98-3.44-.34-1.67-.33-3.39-.29-5.09.05-2.3.16-4.61.32-6.9.1-1.46.22-2.94-.05-4.38-.12-.63-.32-1.24-.4-1.87-.13-.99.01-1.99.1-2.98.13-1.61.09-3.23-.11-4.83-.19-1.5-.53-2.99-.44-4.49.1-1.59.66-3.11.98-4.67.02-.11.04-.21.06-.32.02-.01.47-1.48.19-2.16-.39-.94-.52-1.76-.62-2.78,1.07-.35,2.41-.19,3.31.27,1.07.55,1.85,1.63,2.05,2.82,1.59.28,3.2.62,4.58,1.46,1.38.84,2.5,2.25,2.58,3.86.02.41-.02.84.1,1.23.12.38.39.69.59,1.03.6,1.04.55,2.31.69,3.51.22,1.87.95,3.64,1.68,5.39.59,1.43,1.18,2.85,1.77,4.28.27.66.55,1.33.99,1.9.34.43.77.81.95,1.33.13.37.43,2.96.41,3.35-.11,2.25-.8,1.49-.57,4.54Z"/>
    <path class="cls-31" d="M1415.95,232.17c-.06-.2-.36-.11-.31.08.08.3.12.6.1.92,0,.21.31.21.32,0,.02-.34-.02-.67-.11-1Z"/>
    <path class="cls-7" d="M1469.35,219.15c-1.16.92-2.59,1.46-4.04,1.76-1.54.31-3.11.36-4.68.41-2.85.07-5.74.12-8.52-.54-1.13-.27-2.23-.65-3.3-1.11-.04-.49.14-.98.41-1.39.33-.48.79-.86,1.27-1.2.91-.66,1.89-1.25,2.91-1.74.79-.38,1.67-.75,2.11-1.52.25-.44.33-.96.38-1.46.1-.95.12-1.91.09-2.87-.16.05-.32.1-.49.14-.9.22-1.91.17-2.69-.34-.55-.36-.94-.91-1.24-1.5-.35-.7-.6-1.45-.71-2.22-.13-.88-.1-1.78-.07-2.67.05-1.34.1-2.68.15-4.02.91-.6,1.83-1.18,2.81-1.67,1.05-.53,2.26-.96,3.4-.66,1.11.28,1.95,1.2,2.53,2.18.36.61.65,1.28.66,1.99,0,.59-.18,1.17-.13,1.76.06.62.42,1.19.93,1.55-.13,2.73-.18,5.47-.14,8.21,0,.34.01.69.14,1.01.13.33.37.6.62.83,1.18,1.09,2.74,1.62,4.19,2.29,1.36.62,2.74,1.47,3.42,2.78Z"/>
    <path class="cls-43" d="M1468.03,197.88c-.53,1.68-1.61,3.3-3.13,4.1.18,1.38-.05,2.82-.69,4.06-.91,1.76-2.63,3.08-4.56,3.52.39-1.63-.02-3.44-1.08-4.73-.37-.45-.81-.84-1.23-1.23-1.53-1.4-3.04-3.05-3.54-5.03-.51.44-1.15.74-1.77,1.01-.22.1-.91.26-1.14.3,0,.38,0,.64-.04,1.12-.95-.27-1.43-1.01-1.85-1.91-.45-.95-.39-2.15.2-3.01.54-.79,1.44-1.25,2.33-1.59,2.02-.77,4.22-1.07,6.37-.88.37.04.75.09,1.1.2.45-.99,1.27-1.83,2.28-2.24.58-.24,1.21-.35,1.84-.41,1.26-.11,2.62.02,3.64.77.88.64,1.42,1.68,1.59,2.75.18,1.07,0,2.18-.32,3.21Z"/>
    <path class="cls-7" d="M1449.44,229.75c-.03.48-.14.96-.16,1.44,0,.3.03.61.13.88-1.19,2.13-2.4,4.26-3.68,6.34-.57.92-1.17,1.85-2.05,2.47-.37.26-.79.46-1.21.66-5.52,2.59-11.12,5-16.8,7.22-1.21,1.06-2.76,1.71-4.31,2.17-.24.07-.48.14-.7.25-.25.12-.46.29-.68.45-.34.25-.69.47-1.05.67-.37.2-.78.38-1.2.35-.42-.03-.85-.35-.86-.78-.23.05-.48-.12-.57-.34-.09-.22-.05-.48.04-.7.09-.22.24-.41.37-.61.6-.89.97-1.94,1.73-2.71.93-.95,2.3-1.33,3.63-1.41.79-.05,1.58,0,2.37.07,4.6-2.6,9.72-5.52,14.29-8.11.68-.38,1.37-.77,1.93-1.32.66-.64,1.12-1.47,1.57-2.28,1.46-2.67,2.92-5.34,4.38-8,.5.27,1.02.51,1.54.71.21.08.43.16.6.31.2.16.32.4.41.63.2.52.3,1.08.27,1.64Z"/>
    <path class="cls-7" d="M1482.27,263.25c.02.26-.02.52-.06.78-.07.44-.14.89-.27,1.32-.18.61-.47,1.18-.75,1.75-.13.25-.26.51-.38.76-.04.07-.07.14-.15.16-.1.03-.2-.05-.27-.13-.65-.74-1.11-1.63-1.33-2.58-.11-.17-.21-.35-.3-.53-.12.29-.27.57-.45.83-.2-.26-.26-.59-.31-.91-.25-1.53-.39-3.08-.42-4.63-.15-.72-.33-1.41-.58-2.12-.36-1.05-.73-2.09-1.1-3.14-.73-2.09-1.46-4.18-2.2-6.28-.82-2.33-1.64-4.67-2.05-7.11-.17-.99-.27-2-.51-2.97-.36-1.45-1.01-2.82-1.66-4.16-.94-1.94-1.88-3.88-2.81-5.82,1.59-1.03,3.26-1.93,4.94-2.81,1.41,2.69,2.56,5.51,3.44,8.41.35,1.15.65,2.31.94,3.47,1.62,6.44,2.85,12.97,3.7,19.55h0c-.08.44.37,1.15.71,1.62.37.51.8.97,1.06,1.54.33.71.38,1.52.71,2.23.08.16.17.32.17.49,0,.1-.03.2-.07.28Z"/>
    <path class="cls-7" d="M1472.27,313.39c-.96.6-2.23.4-3.38.51-.48.04-.96.15-1.41.32-.77-3.36-1.54-6.71-2.32-10.07-.8-3.47-1.6-6.95-2.8-10.31-2.29-6.41-5.96-12.24-8.4-18.59-2.48-6.45-3.64-13.3-4.3-20.2,3.04-.53,6.29.08,8.84,1.83.72.5,1.4,1.07,2.21,1.39.27.11.56.18.86.22-.49,5.88-.79,11.89,1.09,17.45.96,2.83,2.46,5.45,3.51,8.25,3.51,9.29,1.92,20.03,6.03,29.07.02.04.04.08.06.12Z"/>
    <path class="cls-1" d="M1449.49,244.22c-.57,3.23-.76,6.53-.56,9.8.05.79.12,1.58.31,2.35.06.24.13.48.32.64.18.15.42.19.66.22,3.09.37,6.17-.6,9.27-.87,1.8-.16,3.64-.07,5.41-.46,1.77-.38,3.54-1.34,4.32-2.97.43-.91.52-1.93.61-2.93.08-.96.16-1.93.02-2.89-.1-.65-.29-1.28-.49-1.91-.28-.85-.58-1.69-1.01-2.47-.66-1.19-1.61-2.18-2.55-3.16-.12-.13-.25-.26-.41-.32-.19-.07-.39-.05-.59-.03-3.46.35-6.94.46-10.42.33h0c-1.09-.04-2.81-.13-3.68.71-.86.84-.99,2.83-1.19,3.95Z"/>
    <path class="cls-7" d="M1469.01,253.25c-.49,2.14-1.32,4.21-2.15,6.25-2.55,6.27-5.21,12.5-7.98,18.69-.45,1.01-.91,2.03-1.19,3.1-.29,1.13-.38,2.31-.54,3.47-.61,4.5-2.27,8.78-3.95,13-2.79,6.96-5.7,13.88-8.74,20.74-.65.44-1.4-.44-1.64-1.19-.18-.55-.46-1.22-.9-1.48,1.36-3.66,2.55-7.38,3.56-11.15,4.97-18.56,5.64-38.33,12.76-56.13,1.35.01,2.69.18,4.01.49,1.14.27,2.27.65,3.29,1.23,1.33.76,2.44,1.84,3.47,2.99Z"/>
    <path class="cls-1" d="M1459.98,255.36c2.22.1,4.49.83,6,2.45.37.4.69.85,1.04,1.27.07.09.15.18.26.19.17.01.28-.16.35-.32,1.16-2.54,1.87-5.28,2.08-8.06.01-.14.02-.29-.02-.43-.05-.17-.17-.32-.28-.45-1.24-1.39-2.95-2.27-4.71-2.88-1.22-.42-2.47-.74-3.72-1.05-.67-.17-1.35-.34-2.03-.28-.94.08-1.82.6-2.43,1.32-.61.73-.95,1.65-1.08,2.58-.15,1.06-.03,2.15-.34,3.17h0c-.25.83-1.6,3.06.24,3.05.73,0,1.53-.37,2.27-.47.79-.11,1.58-.14,2.37-.11Z"/>
    <path class="cls-9" d="M1467.08,236.17c.08.25.16.5.17.76.04,1.08-1.15,1.9-1.44,2.89-2.05.7-4.2,1.07-6.36,1.38-3.04.44-6.28.73-9.09-.4-.23-.71-.37-1.46-.75-2.1-.14-.24-.31-.46-.44-.71-.26-.5-.3-1.07-.34-1.63-.14-2-.28-4-.42-6-.03-.39-.06-.79-.21-1.15-.13-.29-.33-.54-.47-.82-.1-.21-.16-.44-.18-.67-1.18-.5-2.27-1.2-3.21-2.06,1.84-1.88,3.23-4.2,4.03-6.7.1-.32.2-.65.41-.91.38-.46,1.13-.71,1.17-1.31.27.04.54.02.8-.06,2.43,1.31,5.28,1.75,8.04,1.5,2.76-.25,5.43-1.16,7.92-2.37-.02.29.25.51.53.6.27.09.58.11.82.26.29.18.45.5.64.77.44.63,1.1,1.08,1.54,1.71.28.4.46.87.67,1.31.73,1.58,1.8,3,3.06,4.2-2.42,2.04-5.2,3.65-8.16,4.76.15,2.29.58,4.56,1.28,6.74Z"/>
    <path class="cls-43" d="M1434.59,315h0c-.22.11-.43.23-.59.41-.4.43-.44,1.11-.21,1.66.22.55.66.98,1.12,1.34,1.29,1.01,2.87,1.61,4.48,1.94,1.61.33,3.26.41,4.9.48.55.02,1.2,0,1.5-.46.11-.16.16-.35.19-.54.16-.89.11-1.82-.17-2.68-.05-.15-.11-.31-.23-.41-.32-.29-.92-.09-1.18-.42-.15-.19-.11-.46-.02-.68.09-.22.23-.42.28-.66.09-.45-.2-.91-.58-1.16-.38-.25-.85-.34-1.3-.42-.48-.09-1.05-.15-1.4.19-.17.17-.25.42-.38.63-.26.44-.75.72-1.25.77-.57.06-1.07-.04-1.59-.17-1.24-.32-2.43-.39-3.57.18Z"/>
    <path class="cls-43" d="M1470.11,312.5c.01-.11.02-.23-.07-.3-.05-.04-.12-.06-.19-.06-.37-.04-.74-.07-1.11-.08-.67-.02-1.4.02-1.92.44-.15.12-.28.27-.35.45-.07.18-.07.38-.07.57,0,.65.02,1.31-.07,1.96-.09.65-.3,1.29-.71,1.81-.38.48-.91.82-1.39,1.21-.48.39-.93.86-1.06,1.47-.03.13-.04.28.01.41.05.13.16.24.28.31.33.21.73.25,1.12.29.94.09,1.89.16,2.83.03.93-.13,1.86-.49,2.53-1.16.18-.18.35-.39.51-.6,1-1.29,1.94-2.63,2.82-4,.2-.31.4-.65.37-1.02-.02-.2-.11-.39-.2-.57-.19-.37-.4-.73-.62-1.09-.22-.35-.47-.71-.82-.93-.1-.06-.21-.12-.32-.08-.12.04-.18.17-.21.29-.1.35-.14.74-.33,1.06h0c-.15.26-.52.53-.84.43-.35-.12-.21-.54-.18-.82Z"/>
    <path class="cls-42" d="M1465.04,200.82s0,0,0-.02c0,0,0,0,0,0,0,0,0,0,0,.01Z"/>
  </g>
  <g>
    <path class="cls-20" d="M181.21,129.26c18.49-30.56,12.11-60.6,17.85-77.78,5.71-17.12,15.86-40.63,34.59-40.81h0s.07,0,.11,0c.04,0,.07,0,.11,0h0c18.73.18,28.88,23.69,34.59,40.82,5.74,17.19-.64,47.23,17.85,77.78,18.46,30.52,7.6,76.44-52.44,77.11h0s-.07,0-.11,0c-.04,0-.07,0-.11,0h0c-60.04-.67-70.9-46.59-52.44-77.11Z"/>
    <path class="cls-45" d="M249.08,147.27l-11.28,11.28v-87.97c0-1.5-1.21-2.71-2.71-2.71s-2.71,1.21-2.71,2.71v35.29l-14.84-14.84c-1.06-1.06-2.78-1.06-3.83,0-1.06,1.06-1.06,2.78,0,3.83l18.67,18.67v158.27c0,1.5,1.21,2.71,2.71,2.71s2.71-1.21,2.71-2.71v-105.6l15.11-15.11c1.06-1.06,1.06-2.78,0-3.83-1.06-1.06-2.78-1.06-3.83,0Z"/>
  </g>
  <ellipse class="cls-28" cx="1027.97" cy="255" rx="221.55" ry="22.87"/>
  <g>
    <path class="cls-20" d="M851.45,122.85c15.93-26.33,10.44-52.22,15.38-67.03,4.92-14.76,13.67-35.02,29.81-35.17h0s.06,0,.09,0c.03,0,.06,0,.09,0h0c16.14.16,24.88,20.42,29.81,35.17,4.94,14.81-.55,40.7,15.38,67.03,15.91,26.3,6.55,65.88-45.19,66.45h0s-.06,0-.09,0c-.03,0-.06,0-.09,0h0c-51.74-.58-61.1-40.15-45.19-66.45Z"/>
    <path class="cls-45" d="M909.94,138.38l-9.72,9.72v-75.81c0-1.29-1.05-2.34-2.34-2.34s-2.34,1.05-2.34,2.34v30.42l-12.79-12.79c-.91-.91-2.39-.91-3.3,0-.91.91-.91,2.39,0,3.3l16.09,16.09v136.39c0,1.29,1.05,2.34,2.34,2.34s2.34-1.05,2.34-2.34v-91l13.02-13.02c.91-.91.91-2.39,0-3.3-.91-.91-2.39-.91-3.3,0Z"/>
  </g>
  <g>
    <path class="cls-20" d="M1102.02,127.23c15.05-24.88,9.86-49.33,14.53-63.33,4.65-13.94,12.91-33.08,28.16-33.23h0s.06,0,.09,0c.03,0,.06,0,.09,0h0c15.25.15,23.51,19.29,28.16,33.23,4.67,13.99-.52,38.45,14.53,63.33,15.03,24.85,6.19,62.24-42.69,62.78h0s-.06,0-.09,0c-.03,0-.06,0-.09,0h0c-48.88-.55-57.72-37.93-42.69-62.78Z"/>
    <path class="cls-45" d="M1157.28,141.9l-9.18,9.18v-71.62c0-1.22-.99-2.21-2.21-2.21s-2.21.99-2.21,2.21v28.73l-12.08-12.08c-.86-.86-2.26-.86-3.12,0-.86.86-.86,2.26,0,3.12l15.2,15.2v128.86c0,1.22.99,2.21,2.21,2.21s2.21-.99,2.21-2.21v-85.97l12.3-12.3c.86-.86.86-2.26,0-3.12-.86-.86-2.26-.86-3.12,0Z"/>
  </g>
  <g>
    <path class="cls-21" d="M361.91,205.23c-6.54-1.9-14.56-14.35-14.56-14.35l.92-2.13s9.38,8.43,17.38,10.41c3.96.98,1.21,7.51-3.74,6.08Z"/>
    <path class="cls-2" d="M348.93,189.41s-1.61-3.19-1.69-3.98c-.04-.37-.58.1-.56.65.03.54.14,1.07.14,1.07l-1.42-1.23s-.57-1.23-.7-1.55c-.13-.32-.51-.13-.4.44.07.36.23,1.09.36,1.35.17.35.89,1.19.89,1.19,0,0-.75-.67-.96-1.13-.14-.29-.45-1.08-.52-1.28-.12-.33-.62-.25-.54.2.08.45.17,1.18.32,1.54.16.36,1.1,1.36,1.1,1.36,0,0-.96-.8-1.15-1.11-.19-.31-.44-1.15-.51-1.5-.08-.35-.46.16-.46.67s.1.82.39,1.31c.29.49,1.1,1.12,1.1,1.12,0,0-.89-.52-1.1-.86-.21-.34-.39-.81-.39-.81,0,0-.31.56.04,1.26.28.57,1.53,1.7,2.25,2.12.27.16,2.49.99,2.49.99l1.32-1.83Z"/>
    <path class="cls-2" d="M371.25,278.29c-.31.61-2.11.18-3.42,1.31-1.56,1.35-2.85,1.49-3.65,1.5-.8,0-2.79-1.79-2.28-2.57.5-.78,2.54-1.69,3.26-2.25.73-.56,2.12-2.36,2.12-2.36l2.01-.56,1.9,1.17s.92,2.04.05,3.76Z"/>
    <path class="cls-2" d="M358.98,212.5c1.22-8.02,17.58-9.52,18.51,2.46.93,11.98-9.21,30.35-9.21,30.35,0,0,2.22,1.63,2.87,7.94.44,4.25.04,21.28.04,21.28l-3.92-.61s-6.72-22.94-7.97-32.23c-1.25-9.3-1.71-20.12-.33-29.18Z"/>
    <path class="cls-36" d="M362.58,245.2c-.07-.02-.15-.05-.22-.08-.07-.04-.14-.08-.2-.13-.12-.1-.22-.22-.3-.37-.04-.08-.08-.19-.05-.28.01-.04.05-.08.1-.08.05,0,.08.03.1.06h0s.02.03.02.03c.05.06.08.14.13.22l.06.09.03.05v.02s.02.01.02.01c.1.13.22.24.35.33.07.04.03.16-.06.14Z"/>
    <path class="cls-36" d="M361.37,245.07l-.11-.02h0s0,0,0,0h-.02s-.07-.01-.07-.01l-.12-.06-.11-.09c-.05-.06-.1-.13-.14-.21-.02-.04-.04-.08-.04-.13v-.05c0-.06.03-.15.09-.18l-.04.04h0s.09-.06.13-.04h-.01s.05,0,.05,0h-.01s.09.05.09.05l.08.1c.03.06.06.12.1.17l.05.08.05.07.02.04h0s0,.02,0,.02h0s.03.02.03.02h0s.02.02.02.02l.04.1-.09.07Z"/>
    <path class="cls-3" d="M365.02,276.18c.62.24,1.73,1.61,1.99,2.21,1.63-.72,4.36-3.7,4.36-3.7,0,0,.89,1.95.13,3.29-.67,1.19-2.27,1.34-3.46,1.97-.93.49-1.88,1.25-2.97,1.32-1.47.1-3.44-.88-3.44-2.49,0-.8,2.96-2.75,3.38-2.59Z"/>
    <path class="cls-2" d="M378.49,279.29c-.31.61-2.11.18-3.42,1.31-1.56,1.35-2.85,1.49-3.65,1.5-.8,0-2.79-1.79-2.28-2.57.5-.77,2.54-1.69,3.26-2.25.73-.56,2.12-2.36,2.12-2.36l2.01-.56,1.9,1.17s.92,2.04.05,3.76Z"/>
    <path class="cls-2" d="M366.22,213.5c1.22-8.02,17.58-9.52,18.51,2.46.93,11.98-9.21,30.35-9.21,30.35,0,0,2.22,1.63,2.87,7.94.44,4.25.04,21.28.04,21.28l-3.92-.61s-6.72-22.94-7.97-32.23c-1.25-9.3-1.71-20.12-.33-29.18Z"/>
    <path class="cls-36" d="M369.82,246.2c-.07-.02-.15-.05-.22-.08-.07-.04-.14-.08-.2-.13-.12-.1-.22-.22-.29-.37-.04-.08-.08-.19-.05-.28.01-.05.05-.08.1-.08.05,0,.08.03.1.06h0s.02.03.02.03c.05.06.08.14.13.22l.06.09.03.05v.02s.02.01.02.01c.1.13.22.24.35.33.07.04.03.16-.06.14Z"/>
    <path class="cls-36" d="M368.61,246.07l-.11-.02h0s0,0,0,0h-.02s-.07-.01-.07-.01l-.12-.06-.11-.09c-.05-.06-.1-.13-.14-.21-.02-.04-.04-.08-.04-.13v-.05c0-.06.03-.15.09-.18l-.03.04h0s.09-.06.13-.04h-.01s.05,0,.05,0h-.02s.09.05.09.05l.08.1c.03.06.06.12.1.17l.05.08.05.07.02.04h0s0,.02,0,.02h0s.03.02.03.02h0s.02.02.02.02l.04.1-.09.06Z"/>
    <path class="cls-3" d="M372.25,277.19c.62.24,1.73,1.61,1.99,2.21,1.63-.72,4.36-3.7,4.36-3.7,0,0,.89,1.95.14,3.29-.67,1.19-2.27,1.34-3.46,1.97-.93.49-1.88,1.25-2.97,1.32-1.47.1-3.44-.88-3.44-2.49,0-.8,2.96-2.75,3.38-2.59Z"/>
    <path class="cls-15" d="M371.6,167.78c0-.91.74-1.65,1.65-1.65s1.65.74,1.65,1.65c0,.13-.02.25-.04.37.05,0,.09-.01.14-.01.5,0,.9.4.9.9,0,.15-.04.29-.1.41.65.22,1.12.83,1.12,1.56,0,.29-.08.57-.22.81.34.13.59.46.59.84,0,.23-.09.44-.23.6.3.3.49.71.49,1.17,0,.83-.61,1.5-1.4,1.63.07.27.11.55.11.84,0,1.9-1.54,3.44-3.43,3.44-1.9,0-3.44-1.54-3.44-3.44s2.21-8.2,2.21-9.11Z"/>
    <path class="cls-15" d="M367.22,167.96c0-.91-.74-1.65-1.65-1.65s-1.65.74-1.65,1.65c0,.13.02.25.04.37-.05,0-.09-.01-.14-.01-.5,0-.9.4-.9.9,0,.15.04.29.1.41-.65.22-1.12.83-1.12,1.56,0,.29.08.57.22.81-.34.13-.59.46-.59.84,0,.23.09.44.23.6-.3.3-.49.71-.49,1.17,0,.83.61,1.5,1.4,1.63-.07.27-.11.55-.11.84,0,1.9,1.54,3.44,3.43,3.44s3.44-1.54,3.44-3.44-2.21-8.2-2.21-9.11Z"/>
    <path class="cls-37" d="M357.9,214.56c-1.09,4.5-.56,18.25.81,26.82,1.38,8.57,6.9,27.99,6.9,27.99h6.01s2.32-15.59,1.67-19.02c-.65-3.43-1.11-8.86-1.11-8.86,0,0,5.68-24.5,5.15-25.61-.53-1.1-18.36-5.72-19.43-1.32Z"/>
    <path class="cls-37" d="M384.85,212.43s3.55,6.37,2.06,14.96c-1.23,7.13-7.91,19.41-7.91,19.41,0,0,1.64,5.17,1.3,8.69-.31,3.16-1.25,13.89-1.25,13.89h-6.46s-4.17-18.51-4.73-22.29c-1.19-7.97-1.68-11.46-2.59-17.57,0,0-5.8-5.27-6.27-12.48-.47-7.21,25.85-4.61,25.85-4.61Z"/>
    <path class="cls-21" d="M386.99,217.18c-5.62,4.99-24.11,4.1-29.58,0,.58-8.01,3.06-13.16,3.06-13.16,0,0-.66-5.39-.23-11.2.3-4.1,2.75-11.38,3.13-11.55,1.34-.59,2.35-.77,2.35-.77l9.39.24s3.63.08,5.09,3.49c1.38,3.24,2.07,20.01,2.07,20.01,0,0,4.37,5.75,4.73,12.95Z"/>
    <path class="cls-23" d="M369.26,188.36c-1.06,0-2.22-2.1-3.05-3.9-.87-1.89-.72-3.9-.72-3.9l9.62.18s-.43,2.14-1.36,3.72c-1.15,1.96-3.43,3.9-4.49,3.9Z"/>
    <path class="cls-5" d="M378.33,181.87c4.58,2.58,12.03,13.06,12.19,16.35.18,3.63-7.05-.14-7.05-.14l-6.11-5.88.97-10.33Z"/>
    <path class="cls-2" d="M390.09,200.55c-3.41,6.89-7.36,10.77-7.36,10.77l-1.92-1.65s-.24-3.95,2.67-11.58c1.45-3.81,8.91-2.15,6.62,2.47Z"/>
    <path class="cls-2" d="M365.28,177.86c1,.79,2.14.68,2.14.68l-.19,1.79s-.42,1.38,1.85,1.38c2.75,0,4.39-1.38,4.39-1.38-.74-4.43-.87-7.87-.87-7.87,0,0,.28-.44.14-2.53-.19-2.64-5-3.76-5-3.76l-3.23,1.21s-.66,1.08-.61,2.43c.06,2.08-.38,6.66,1.38,8.05Z"/>
    <path class="cls-15" d="M368.53,164.45c-3.63.08-4.95,2.28-5,3.55-.05,1.36.37,1.8.37,1.8,0,0,.05-.85.41-1.29,1.02-.71,4.93-1.55,6.55.82.68,1,.53,3.4.79,3.83.39.65.95,1.01,1.17.35.17-.48,1.53-2.12,1.37-5.14-.16-3.02-3.43-3.97-5.68-3.92Z"/>
    <path class="cls-2" d="M371.67,173.16c-.71-.12.19.9.73.98.39.06.74-.18.88-.73.16-.61-.1-1.04-.49-1.1-.67-.1-.64.93-1.12.85Z"/>
    <path class="cls-2" d="M366.85,182.77c.8.58,3.08,1.07,4.55.71,1.92-.48,3.71-2.74,3.71-2.74l-1.64-.42-6.22-.17-1.76.41s.44,1.54,1.36,2.21Z"/>
    <path class="cls-40" d="M377.1,282.12s-.38-14.79-.7-31.82c-.16-8.51-.67-14.45-.79-21.13-.12-6.69-.2-11.44-.21-12.26,0-1.64.08-3.07.4-4.18.16-.56.39-1.05.75-1.43.18-.19.4-.35.65-.46.25-.11.52-.16.8-.16.39,0,.74.18.99.41.22.2.38.44.52.7.24.45.42.98.56,1.52.42,1.63.54,3.46.54,3.48.02.36-.25.67-.61.69-.36.02-.67-.25-.69-.61v-.06c-.02-.28-.14-1.62-.42-2.85-.14-.61-.33-1.19-.53-1.56-.1-.19-.2-.31-.27-.37-.07-.06-.08-.05-.09-.05-.12,0-.21.02-.28.05-.13.06-.26.17-.4.4-.21.35-.38.95-.48,1.72-.1.77-.14,1.71-.14,2.75,0,.79.08,5.56.2,12.24.18,10.03.85,19.88,1.08,31.74.12,5.93.22,11.23.29,15.05.07,3.82.12,6.16.12,6.16,0,.36-.28.66-.64.67-.36,0-.66-.28-.67-.64h0Z"/>
    <path class="cls-2" d="M380.81,209.66l-2.7,1.04s.82.75.36,1.39c-.46.65-.95.89-.91,1.65.02.4.7,1.78,1.28,1.71,1.8-.2,2.42-.87,2.91-1.55.18-.26.99-2.58.99-2.58l-1.92-1.65Z"/>
    <path class="cls-15" d="M363.62,168.53c-.42-.26-.71-1.03-.54-1.48.14-.36.5-.62.87-.69.02-.34-.04-.63.22-.91.16-.17.43-.29.66-.17,0-.59.47-1.21,1.06-1.34.63-.14,1.1.04,1.61.39.16-.38.61-.67,1.03-.54.16.05.24.17.38.25.07.04.03.12.14.11.04,0,.24-.23.29-.27.5-.29,1.25-.35,1.73-.02.15.1.26.24.36.39.05.08.11.35.19.38.08.03.43-.16.58-.15.26.01.41.13.59.31.32.31.71.9.62,1.37-.09.48-.66.8-1.12.8-.41,0-.86-.23-1.24-.4-.49-.21-1.04-.34-1.55-.5-.69-.23-1.39-.3-2.12-.21-.65.08-1.11.33-1.66.67-.67.42-1.25.99-1.73,1.62-.1.13-.2.26-.31.4-.06.08-.12.13-.05,0Z"/>
    <path class="cls-15" d="M372.1,172.83c-.11.41-.67.51-.89.13-.23-.38-.07-1.02.06-1.39-.44.04-.4-.66-.21-.88-.38.01-.75-.47-.8-.82-.05-.34.06-.58.2-.86-.55.09-.88-.02-1.06-.62-.42.97-1.45.58-1.81-.22-.21.45-.68.45-.91.04-.16.95-1.05.87-1.6.35.01.48-.3.65-.7.45.08.23.05.75-.31.61-.03.23.06.42-.03.64-.09.21-.27.42-.44.16-.19-.3.02-1.14.12-1.45.23-.72.72-1.25,1.41-1.55,1.15-.51,2.55-.7,3.79-.51,1.47.23,2.55,1.27,2.95,2.7.24.86.09,1.71.08,2.58,0,.25-.02.49.13.63Z"/>
    <path class="cls-21" d="M383.24,210.78c.91,0,7.57-7.73,7.57-11.87,0-2.16-2.7-7.7-6.03-11.49-3.99-4.54-7.1-5.94-7.1-5.94l-.58,10.72,6.36,5.88s-2.67,6.93-2.95,10.13c-.08.88,1.81,2.56,2.72,2.56Z"/>
  </g>
  <g>
    <path class="cls-26" d="M1033.68,119.24c16.42-27.14,10.76-53.82,15.85-69.09,5.08-15.21,14.09-36.09,30.72-36.25h0s.06,0,.1,0c.03,0,.06,0,.1,0h0c16.64.16,25.65,21.04,30.72,36.25,5.1,15.27-.57,41.95,15.85,69.09,16.4,27.11,6.75,67.9-46.58,68.49h0s-.06,0-.1,0c-.03,0-.06,0-.1,0h0c-53.33-.59-62.97-41.38-46.58-68.49Z"/>
    <path class="cls-33" d="M1093.96,135.24l-10.01,10.01v-78.14c0-1.33-1.08-2.41-2.41-2.41s-2.41,1.08-2.41,2.41v31.35l-13.18-13.18c-.94-.94-2.47-.94-3.41,0-.94.94-.94,2.47,0,3.41l16.59,16.59v140.58c0,1.33,1.08,2.41,2.41,2.41s2.41-1.08,2.41-2.41v-93.79l13.42-13.42c.94-.94.94-2.47,0-3.41-.94-.94-2.47-.94-3.41,0Z"/>
  </g>
  <g>
    <path class="cls-32" d="M997.39,190.31s-2.08-2.13-2.64-1.59c-.02.02-.03.04-.05.06.06-.3.13-.59.24-.88.08-.21,0-.44-.21-.55-1.41-.1-1.28,3.82-1.34,4.85,0,.03,0,.05,0,.07,0,.02-.01.03-.02.05-1.19,3.16-5.02,8.59-8.3,5.5-3.37-3.18-2.35-7.33-6.46-13.43-.53-.79-1.56-1.26-2.18-1.99,0,0-3.55-.16-3.96.36-.67.98-.73,2.18.34,4.33,1.04,3.71,1.87,8.5,3.96,11.82,5.98,9.51,16.04,8,19.07-5.24h0s1.76-1.9,1.53-3.37"/>
    <path class="cls-32" d="M938.1,241.11s3.19-.47,5.79-1.21l.94,5.64-6.05-.3s-1.93-1.53-.68-4.13"/>
    <path class="cls-32" d="M971.23,264.02l.5-3.69,4.99.05s-.66,1.61-1.27,3.69c0,0-2.15,1.81-4.21-.05"/>
    <path class="cls-22" d="M976.8,165.97s-3.43-4.82-10.23.62c-6.8,5.44-3.24,6.04-12.78,7.78-7.93,1.45-11.57,9.39-2.11,13.49,9.04,3.92,16.34-2.57,21.92-1.23,5.58,1.34,8.34-10.55,7.06-13.88-1.28-3.33-3.86-6.78-3.86-6.78"/>
    <path class="cls-22" d="M976.8,165.97c5.73-.68,4.03,8.21,3.2,9.87l-3.2-9.87Z"/>
    <path class="cls-44" d="M935.15,241.05c-.33.09-.64.24-.91.45l1.63,9.96c.08.49.62.76,1.05.52,0,0,.01,0,.02,0,.99-.54,2.35-2.12,1.84-6.74,0,0-.72-1.49-.68-4.13,0,0-1.61-.45-2.95-.06"/>
    <path class="cls-22" d="M936.94,251.98l-1.79-10.93c-.33.09-.64.24-.91.45l1.63,9.96c.08.48.62.76,1.05.52h.02Z"/>
    <path class="cls-23" d="M938.5,250.12c-.07,0-.14-.04-.18-.1-.02-.03-.4-.64-1.37-.86-.11-.02-.18-.13-.16-.24.02-.11.14-.18.25-.15,1.15.26,1.61,1.01,1.63,1.05.06.1.03.22-.07.28-.03.02-.07.03-.1.03"/>
    <path class="cls-23" d="M938.81,248.64c-.32-.06-.59-.86-1.91-1.07-.26-.03-.21-.44.06-.4,1.27.18,1.99,1.11,2.02,1.15.1.13,0,.33-.16.33"/>
    <path class="cls-23" d="M938.87,246.8c-.06,0-.11-.02-.15-.06,0,0-.74-.78-1.9-.98-.11-.02-.19-.13-.17-.24.02-.11.13-.18.24-.17,1.29.23,2.09,1.07,2.13,1.11.08.08.07.21-.01.29-.04.04-.09.05-.14.05"/>
    <path class="cls-44" d="M970.67,267.1c.04.34.13.67.3.97l10.16.11c.49,0,.86-.47.7-.94,0,0,0-.01,0-.02-.37-1.06-1.7-2.66-6.37-2.95,0,0-1.6.45-4.21-.05,0,0-.72,1.5-.56,2.87"/>
    <path class="cls-23" d="M977.24,266.64c-.14,0-.24-.14-.2-.27.4-1.36,2.12-2.36,1.67-1.41-.01,0-.94.49-1.28,1.54-.03.09-.11.14-.2.14"/>
    <path class="cls-23" d="M975.42,266.4c-.95-.23,2.02-3.26,1.49-1.82,0,0-.9.59-1.3,1.69-.03.08-.11.14-.19.14"/>
    <path class="cls-22" d="M981.82,267.22l-11.15-.12c.04.34.13.67.3.97l10.16.11c.49,0,.86-.47.7-.94v-.02Z"/>
    <path class="cls-32" d="M997.21,190.73c.68-1.08-.49-1.82-.64-.46v-.02c-.36.55.3,1,.64.47"/>
    <path class="cls-32" d="M996.8,190.14c.59-1.45-.97-1.48-.71-.38,0-.02-.01.07-.02.1,0,0,0,.01,0,0-.27.63.51.85.73.29"/>
    <path class="cls-32" d="M996.21,189.5l.08-.48c.09-.67-.76-.55-.82,0l-.08.48c-.09.67.76.55.82,0"/>
    <path class="cls-32" d="M995.55,189.11l.08-.48c.09-.67-.76-.55-.82,0l-.08.48c-.09.67.76.55.82,0"/>
    <path class="cls-24" d="M979.45,208.23c.06,23.91-10.28,38.88-36.78,37.21-1.98-3.32-.69-5.05-.69-5.05.22-.05.45-.11.67-.16h0c16.52-3.85,25.33-14.19,20.47-29.43v.02c-1.65-10.6,14.57-13.17,16.33-2.59"/>
    <path class="cls-24" d="M979.45,208.23c.69,16.03-7.41,26.99-7.41,26.99-1.54-4.83-7.96-12.56-7.96-12.56.65-3.43.38-7.37-.95-11.86v.02c-1.65-10.6,14.57-13.17,16.33-2.59"/>
    <path class="cls-16" d="M942.35,243.56c-.18,0-.28,0-.28,0-.15,0-.26-.13-.26-.27s.12-.26.27-.26c.18,0,18.29.33,24.78-10.58,6.52-10.96,5.02-22.49,5-22.6-.02-.15.08-.28.23-.3.14-.02.28.08.3.23.02.12,1.55,11.82-5.07,22.95-3.48,5.85-10.17,8.49-15.17,9.67-4.64,1.1-8.72,1.17-9.8,1.17"/>
    <path class="cls-30" d="M984.06,237.7c-.81,7.92-3.65,15.63-7.34,22.89-2.3.5-4.02.4-4.99-.05,3.32-21.9,4.16-25.1-9.96-43.38-2.71-3.51-2.71-7.96-2.45-9.15,1.4-6.3,9.11-8.8,14.24-2.42,5.05,9.16,11.6,21.5,10.5,32.1"/>
    <path class="cls-16" d="M974.11,260.81s-.06,0-.09-.02c-.14-.05-.21-.2-.16-.34,8.44-23.6,2-31.95-3.68-39.33l-.38-.5c-5.69-7.4-7-11.2-7.05-11.36-.05-.14.03-.29.17-.34.14-.05.29.03.34.17.01.04,1.35,3.89,6.97,11.21l.38.5c2.77,3.6,5.91,7.67,7.21,13.74,1.48,6.92.35,15.45-3.45,26.08-.04.11-.14.18-.25.18"/>
    <path class="cls-8" d="M980.84,193.41c-.09,2.96-2.62,4.88-2.06,8.78.66,4.54.66,6.67.66,6.67-13.43,2.68-20.12-.84-20.12-.84-.07.36.02-7.94,2.43-13.93.25-.77,7.73-9.82,7.13-11.96,2.99-.82,6.71-1.08,9.06,1.45.41.44.68.81.67.81h0c1.29,2.51,2.28,6.06,2.23,9.01"/>
    <path class="cls-8" d="M970.08,188.99c-2.15,3.18-5.42,4.44-8.62,5.92.08-1.49,7.86-9.99,7.42-12.78.37-.1.74-.18,1.1-.26,0,0,2.25,3.93.1,7.11"/>
    <path class="cls-8" d="M977,190.43c-3.82.5-5.67-8.78-5.67-8.78,1.95-.25,4.16-.02,5.89,1.27,1.1,3.52,1.77,7.26-.22,7.52"/>
    <path class="cls-32" d="M976.59,181.11l-.18,1.28s2.25,7.5.36,7.34c-2.7-.23-4.61-8.17-4.61-8.17,0,0,.27-.8.33-1.4l4.11.94Z"/>
    <path class="cls-32" d="M972.58,178.51s.13-.24-.1,1.65c1.69,1.02,3.73.97,4.11.94.32-1.99.06-1.32.18-1.87-.02-.22-4.2-1.32-4.19-.72"/>
    <path class="cls-32" d="M979.8,178.96c-1.68,1.34-4.04,1.49-5.84.88-.75-.24-1.43-.64-1.97-1.2h0c-2.16-2.5-2.36-7.06-.59-9.73,2.58-3.92,7.82-2.63,8.48,2.03.16.71.53,1.52,1.03,2.14,1.33,1.69,1.05,4.06-1.1,5.87"/>
    <path class="cls-32" d="M971.15,175.13s-.09,1.81,1.22,3.87c-.14-.11-.26-.23-.38-.35h0c-2.16-2.5-2.36-7.06-.59-9.73,1.37-2.32,4.74-3.28,6.95-1.11,0,0,.64,3.96-6.76,6.07l-.43,1.26Z"/>
    <path class="cls-22" d="M977.71,167.21s.41,4.13-6.26,5.99l-1.71.67s-.9-2.89.7-5.84c1.6-2.95,6.8-3.33,7.27-.83"/>
    <path class="cls-32" d="M968.9,174c.08.91.75,1.59,1.49,1.53.74-.06,1.27-.86,1.19-1.77-.08-.91-.75-1.6-1.49-1.53-.74.07-1.27.86-1.19,1.77"/>
    <path class="cls-32" d="M976.28,203.12c-.3-.98-5.03.57-5.4.6-6.41-.97-15.01-6.42-3.96-12.76,5.57-3.19,1.97-8.83,1.97-8.83-8.9,1.59-15.62,9.02-14.44,16.52.82,5.26,7.83,8.6,16.4,7.78h0s2.91.93,4.23.64c.92-.2.94-.74.48-.82.54-.17.6-.67.25-.83.43-.13.4-.67.03-.78.56-.35.09-.91-.86-.77.07,0,1.45-.26,1.3-.74"/>
    <path class="cls-18" d="M993.27,192.59s.59.97,2.58,1.08c0,0-.01,1.34-.6,2.15,0,0-1.87.09-2.99-1.24,0,0,.07-1.04,1.01-1.99"/>
    <path class="cls-8" d="M980.8,191.97h0c-.68-4.1-2.82-8.32-2.85-8.38.41.44.67.81.67.81,1.09,2.07,1.96,5.09,2.18,7.57"/>
    <path class="cls-16" d="M977.15,259.74c-.14.28-.28.57-.43.85-2.3.5-4.02.4-4.99-.05.04-.27.08-.54.12-.81,0,0,2.21.95,5.29,0"/>
    <path class="cls-16" d="M943.45,245.48c-.26-.01-.52-.02-.79-.04-1.98-3.32-.69-5.05-.69-5.05.22-.05.45-.11.67-.16-.02.06-1,2.42.81,5.26"/>
    <path class="cls-18" d="M970.85,203.72s-.72,1.67,0,2.71c0,0-1.2.49-2.4.12,0,0-.6-1.36.21-3.32,0,0,1.72-.13,2.19.49"/>
  </g>
</svg>