<?xml version="1.0" encoding="UTF-8"?>
<svg id="Capa_1" data-name="Capa 1" xmlns="http://www.w3.org/2000/svg" xmlns:xlink="http://www.w3.org/1999/xlink" viewBox="0 0 406.79 392.6">
  <defs>
    <style>
      .cls-1, .cls-2, .cls-3, .cls-4, .cls-5, .cls-6, .cls-7, .cls-8 {
        fill: none;
      }

      .cls-9, .cls-10, .cls-11 {
        fill: #fff;
        stroke-width: 4px;
      }

      .cls-9, .cls-10, .cls-11, .cls-2, .cls-3, .cls-4, .cls-5, .cls-6, .cls-7, .cls-8 {
        stroke-miterlimit: 10;
      }

      .cls-9, .cls-8 {
        stroke: #f89d64;
      }

      .cls-10, .cls-5 {
        stroke: #8f836c;
      }

      .cls-11, .cls-2 {
        stroke: #59858d;
      }

      .cls-2, .cls-5 {
        stroke-width: 5px;
      }

      .cls-3 {
        stroke-width: 2px;
      }

      .cls-3, .cls-4 {
        stroke: #8b898e;
      }

      .cls-4, .cls-7 {
        stroke-width: .25px;
      }

      .cls-12 {
        fill: #59858d;
      }

      .cls-12, .cls-13, .cls-14 {
        font-size: 14px;
      }

      .cls-12, .cls-13, .cls-14, .cls-15 {
        font-family: Inter-Bold, Inter;
        font-weight: 700;
      }

      .cls-6, .cls-7 {
        stroke: #dcdcdd;
      }

      .cls-13 {
        fill: #f36f43;
      }

      .cls-16 {
        fill: #616161;
        font-family: Inter-Medium, Inter;
        font-size: 14.27px;
        font-weight: 500;
      }

      .cls-17 {
        letter-spacing: -.09em;
      }

      .cls-14 {
        fill: #8f836c;
      }

      .cls-18 {
        letter-spacing: -.01em;
      }

      .cls-19 {
        letter-spacing: -.02em;
      }

      .cls-8 {
        stroke-width: 6px;
      }

      .cls-20 {
        letter-spacing: -.03em;
      }

      .cls-15 {
        font-size: 19.91px;
      }

      .cls-15, .cls-21 {
        fill: #4d4d4d;
      }

      .cls-22 {
        clip-path: url(#clippath);
      }

      .cls-21 {
        font-family: Inter-Regular, Inter;
        font-size: 13.97px;
        font-variation-settings: 'wght' 400, 'slnt' 0;
      }
    </style>
    <clipPath id="clippath">
      <path class="cls-1" d="M66.72,74.04c.53,2,28.88,59.93,28.88,59.93l13.65-17.98,12.08-4.66,13.13,27.3,14.18-37.29,14.18,50.61,12.6-9.99,16.8,6.66,13.65,7.33,11.55,9.99,14.18,2,13.13-5.33,10.57,16.62,16.73,5.36,12.6-9.32,13.65-.67,14.7,11.32,12.6-7.33,14.7-3.33,17.04,19.31v154.37H65.53l1.19-274.9Z"/>
    </clipPath>
  </defs>
  <g class="cls-22">
    <g>
      <line class="cls-4" x1="65.3" y1="80.06" x2="65.3" y2="384.73"/>
      <line class="cls-7" x1="77.32" y1="80.06" x2="77.32" y2="384.73"/>
      <line class="cls-7" x1="89.33" y1="80.06" x2="89.33" y2="384.73"/>
      <line class="cls-7" x1="101.35" y1="80.06" x2="101.35" y2="384.73"/>
      <line class="cls-7" x1="113.37" y1="80.06" x2="113.37" y2="384.73"/>
      <line class="cls-4" x1="125.38" y1="80.06" x2="125.38" y2="384.73"/>
      <line class="cls-7" x1="137.4" y1="80.06" x2="137.4" y2="384.73"/>
      <line class="cls-7" x1="149.42" y1="80.06" x2="149.42" y2="384.73"/>
      <line class="cls-7" x1="161.43" y1="80.06" x2="161.43" y2="384.73"/>
      <line class="cls-7" x1="173.45" y1="80.06" x2="173.45" y2="384.73"/>
      <line class="cls-4" x1="185.47" y1="80.06" x2="185.47" y2="384.73"/>
      <line class="cls-7" x1="197.48" y1="80.06" x2="197.48" y2="384.73"/>
      <line class="cls-7" x1="209.5" y1="80.06" x2="209.5" y2="384.73"/>
      <line class="cls-7" x1="221.52" y1="80.06" x2="221.52" y2="384.73"/>
      <line class="cls-7" x1="233.53" y1="80.06" x2="233.53" y2="384.73"/>
      <line class="cls-4" x1="245.55" y1="80.06" x2="245.55" y2="384.73"/>
      <line class="cls-7" x1="257.57" y1="80.06" x2="257.57" y2="384.73"/>
      <line class="cls-7" x1="269.58" y1="80.06" x2="269.58" y2="384.73"/>
      <line class="cls-7" x1="281.6" y1="80.06" x2="281.6" y2="384.73"/>
      <line class="cls-7" x1="293.62" y1="80.06" x2="293.62" y2="384.73"/>
      <line class="cls-4" x1="305.63" y1="80.06" x2="305.63" y2="384.73"/>
      <line class="cls-7" x1="317.65" y1="80.06" x2="317.65" y2="384.73"/>
      <line class="cls-7" x1="329.67" y1="80.06" x2="329.67" y2="384.73"/>
      <line class="cls-7" x1="341.68" y1="80.06" x2="341.68" y2="384.73"/>
      <line class="cls-4" x1="353.7" y1="80.06" x2="353.7" y2="384.73"/>
    </g>
  </g>
  <g>
    <text class="cls-16" transform="translate(165.11 52.97)"><tspan x="0" y="0">HOMES</tspan></text>
    <text class="cls-16" transform="translate(46.82 52.12)"><tspan x="0" y="0">DONES</tspan></text>
  </g>
  <line class="cls-8" x1="1.85" y1="47.47" x2="32.8" y2="47.47"/>
  <line class="cls-2" x1="121.74" y1="47.47" x2="152.69" y2="47.47"/>
  <text class="cls-16" transform="translate(281.63 52.97)"><tspan class="cls-20" x="0" y="0">TO</tspan><tspan class="cls-17" x="19.38" y="0">T</tspan><tspan x="27.43" y="0">AL</tspan></text>
  <line class="cls-5" x1="238.27" y1="47.47" x2="269.22" y2="47.47"/>
  <text class="cls-21" transform="translate(5.68 354.87)"><tspan x="0" y="0">0</tspan></text>
  <text class="cls-21" transform="translate(5.88 268.79)"><tspan x="0" y="0">40</tspan></text>
  <text class="cls-21" transform="translate(.8 180.18)"><tspan x="0" y="0">80</tspan></text>
  <text class="cls-21" transform="translate(52.03 371.45)"><tspan x="0" y="0">2000</tspan></text>
  <text class="cls-21" transform="translate(103.24 371.45)"><tspan x="0" y="0">2005</tspan></text>
  <text class="cls-21" transform="translate(159.68 371.45)"><tspan x="0" y="0">2010</tspan></text>
  <text class="cls-21" transform="translate(227.26 371.45)"><tspan x="0" y="0">2015</tspan></text>
  <text class="cls-21" transform="translate(280.33 371.45)"><tspan x="0" y="0">2020</tspan></text>
  <text class="cls-15" transform="translate(334.77 372.42)"><tspan x="0" y="0">20</tspan><tspan class="cls-19" x="26.24" y="0">2</tspan><tspan x="38.47" y="0">4</tspan></text>
  <text class="cls-21" transform="translate(.99 96.25)"><tspan x="0" y="0">120</tspan></text>
  <g>
    <line class="cls-6" x1="36.69" y1="348.28" x2="54.87" y2="348.28"/>
    <line class="cls-6" x1="36.69" y1="262.34" x2="54.87" y2="262.34"/>
    <line class="cls-6" x1="36.69" y1="176.39" x2="54.87" y2="176.39"/>
    <line class="cls-6" x1="36.69" y1="90.44" x2="54.87" y2="90.44"/>
  </g>
  <line class="cls-3" x1="36.69" y1="348.28" x2="391.36" y2="349.75"/>
  <path class="cls-2" d="M66.72,75.57c.53,2,28.88,59.93,28.88,59.93l13.65-17.98,12.08-4.66,13.13,27.3,14.18-37.29,14.18,50.61,12.6-9.99,16.8,6.66,13.65,7.33,11.55,9.99,14.18,2,13.13-5.33,10.57,16.62,16.73,5.36,12.6-9.32,13.65-.67,14.7,11.32,12.6-7.33,14.7-3.33,11.55,19.31"/>
  <path class="cls-2" d="M66.72,75.57c.53,2,28.88,59.93,28.88,59.93l13.65-17.98,12.08-4.66,13.13,27.3,14.18-37.29,14.18,50.61,12.6-9.99,16.8,6.66,13.65,7.33,11.55,9.99,14.18,2,13.13-5.33,10.57,16.62,16.73,5.36,12.6-9.32,13.65-.67,14.7,11.32,12.6-7.33,14.7-3.33,11.55,19.31"/>
  <polyline class="cls-5" points="68.3 173.46 93.5 213.42 107.68 204.09 122.9 198.77 134.98 217.41 149.16 194.77 163.33 224.74 176.46 215.42 189.06 222.07 203.24 223.41 215.31 231.4 227.91 232.06 244.71 227.4 257.32 241.39 273.07 242.05 284.62 232.73 298.27 232.73 312.45 241.39 326.1 235.39 341.85 231.4 353.4 245.38"/>
  <polyline class="cls-8" points="351.3 276.68 338.7 267.36 324.52 273.35 313.5 278.68 299.32 271.35 285.67 271.35 274.12 278.01 258.89 280.01 243.66 269.35 231.59 273.35 217.94 274.68 204.81 269.35 192.21 268.02 175.41 263.36 162.81 268.02 148.63 250.71 136.55 264.69 121.85 253.37 108.2 257.37 94.55 266.02 69.35 234.06"/>
  <text class="cls-12" transform="translate(363.25 202.81)"><tspan class="cls-18" x="0" y="0">7</tspan><tspan x="8.13" y="0">8</tspan></text>
  <text class="cls-14" transform="translate(364.53 250.02)"><tspan x="0" y="0">56</tspan></text>
  <text class="cls-12" transform="translate(32.15 78.41)"><tspan x="0" y="0">128</tspan></text>
  <text class="cls-14" transform="translate(37.26 168.37)"><tspan x="0" y="0">83</tspan></text>
  <text class="cls-13" transform="translate(37.26 232.16)"><tspan x="0" y="0">59</tspan></text>
  <text class="cls-13" transform="translate(364.91 282.76)"><tspan x="0" y="0">47</tspan></text>
  <circle class="cls-9" cx="351.87" cy="277.05" r="6.08"/>
  <circle class="cls-11" cx="353.43" cy="196.22" r="6.08"/>
  <circle class="cls-10" cx="351.87" cy="244.59" r="6.08"/>
  <circle class="cls-9" cx="68.31" cy="234.48" r="6.08"/>
  <circle class="cls-11" cx="69.87" cy="77.74" r="6.08"/>
  <circle class="cls-10" cx="68.31" cy="171.96" r="6.08"/>
</svg>