<?xml version="1.0" encoding="UTF-8"?>
<svg xmlns="http://www.w3.org/2000/svg" xmlns:xlink="http://www.w3.org/1999/xlink" version="1.1" viewBox="0 0 1483.6 537.8">
  <!-- Generator: Adobe Illustrator 30.1.0, SVG Export Plug-In . SVG Version: 2.1.1 Build 136)  -->
  <defs>
    <style>
      .st0, .st1, .st2, .st3, .st4, .st5, .st6 {
        fill: none;
      }

      .st7 {
        stroke-width: 4px;
      }

      .st7, .st8 {
        fill: #fff;
      }

      .st7, .st1, .st2, .st3, .st4, .st5, .st6 {
        stroke-miterlimit: 10;
      }

      .st7, .st2 {
        stroke: #8f836c;
      }

      .st9 {
        fill: #8884bc;
      }

      .st9, .st10 {
        mix-blend-mode: overlay;
      }

      .st9, .st10, .st11, .st12 {
        opacity: .6;
      }

      .st10 {
        fill: #4e73b4;
      }

      .st8 {
        mix-blend-mode: screen;
      }

      .st13 {
        font-size: 20px;
      }

      .st13, .st14, .st15 {
        font-family: Inter-Bold, Inter;
        font-weight: 700;
      }

      .st13, .st16 {
        fill: #8b898e;
      }

      .st1 {
        stroke: #8b898e;
      }

      .st1, .st6 {
        stroke-width: 2px;
      }

      .st17 {
        isolation: isolate;
      }

      .st18 {
        clip-path: url(#clippath-1);
      }

      .st19 {
        clip-path: url(#clippath-3);
      }

      .st20 {
        clip-path: url(#clippath-4);
      }

      .st21 {
        clip-path: url(#clippath-2);
      }

      .st11 {
        fill: #f89d64;
      }

      .st11, .st12 {
        mix-blend-mode: soft-light;
      }

      .st2 {
        stroke-width: 8px;
      }

      .st3 {
        stroke-width: .5px;
      }

      .st3, .st6 {
        stroke: #fff;
      }

      .st4 {
        stroke: #dcdcdd;
      }

      .st5 {
        stroke: #616161;
        stroke-width: 1.5px;
      }

      .st14 {
        font-size: 24px;
      }

      .st14, .st22, .st23 {
        fill: #616161;
      }

      .st15 {
        fill: #9b7200;
        font-size: 26px;
      }

      .st24 {
        fill: #e7e5db;
      }

      .st22 {
        font-family: Inter-Medium, Inter;
        font-size: 22.5px;
        font-weight: 500;
      }

      .st12 {
        fill: #fd3d00;
      }

      .st25 {
        clip-path: url(#clippath);
      }
    </style>
    <clipPath id="clippath">
      <polygon class="st0" points="116.9 438.9 132.5 429.2 149.1 420.9 166.2 412.1 182.7 406.8 198.8 406.3 215.4 413.1 231.9 421.4 247 430.2 264.6 439.4 279.2 440.4 297.2 443.8 312.8 437 329.4 432.1 344.5 420.9 360.6 410.2 378.6 401.4 392.7 389.2 409.3 373.6 425.4 357.1 442.5 334.6 458.5 310.8 475.1 307.8 491.7 303.9 506.8 302 523.8 300 539.4 269.8 555.5 238.6 572.6 214.8 588.2 190.4 605.2 166.5 619.8 147.5 638.3 127.1 638.3 503.4 116.9 503.4 116.9 438.9"/>
    </clipPath>
    <clipPath id="clippath-1">
      <path class="st0" d="M1367.4,259.6c1,1.9,8.5,4.7,9.2,9.6.4,2.5-.1,8.9-1.2,10.8-1.4,2.4-5.1.2-6.4,1.2s-.7,6.8-2.1,7.7c-1.9,1.2-8.5-1.3-9.5,3.5,7.8-3.3,8.7,6.8,10,7.8s7.3-.2,9.3,4.9c3.7,9.3-2.1,9.3-3.2,18-8.9-2.1-8.4,4.1-12.9,7.3-1.4,1-6,4-6.2,4.4.8-.8,2.1-.8,2.8,0,.8.8.8,2.1,0,2.8s-2.1.8-2.8,0-.8-2.1,0-2.8c-1.1.3-4.4-1-6.3.2-2.2,1.4-2.2,6.9-10.1,4.5-.2.1,1.4,2.5,1.1,3.7-2,8.5-5,22.9-5.9,31.2-.3,3.2,2.4,7.1,1.6,11s-3.3,4.6-5,8c-.6,1.3-3.1,1.2-3.2,2.2,0,1.5,2.7,6.2,1.7,7.1s-4.3-.7-6.2.3c-.8.5-2.1,4.8-3.7,6.5s-9.4,8.6-10,9c-2,1.2-5.5,0-6.1.4s1.4,4,1.3,5.7c-.1,3.5-2.2,7.6-1.4,11.3s7.5-1.2,5,7.4c-10.3-1.8-4.5,3.8-8.3,10.4-3.7,6.3-10.6,5.4-11.1,5.8-.5.5.8,8.1-2.5,13-2.8,4.2-19.4,13.8-19.9,15-1,2.6,4.3,11.8,2.9,15.9h-95.7V88l9.7,18.4c7.8,1.2,4.6,5.4,7,9.7,4.8,8.5,16.6,6.9,17.4,7.7.8.9-.8,5.2.3,6.3s3.5-.4,4.3.5,0,3.8.5,4.3c1,1.1,7.4-.5,10.2.5,2,.7,2,3.6,3,4.2,2.6,1.6,12.1,3.2,14.2,4.4s2.5,6.6,3.4,7.1c1.9,1.2,6.7-.6,7.8.4s-.4,3.9.2,4.5c1,1,10.3-.3,12.9.2.6,2.6-3,9.6-1.4,11.2s3.1,0,4.5,1.1c1.3,1,1.4,3.5,3,3.9,10.1,2.6,9.9,4.9,17.6,11.9,1.4,1.3,5.5,6.9,5.9,7.1,3,1.2,8.2-.3,9.2.7s-.4,3.1.5,4.2,3.1.3,3.8,1c5.6,5.5,8.1,11.9,13.8,17.7,1.3,1.4,3.8.8,4.4,1.5.9,1.1,0,3.7.5,4.2,1.2,1.2,6-.7,7.8.5s1.9,8.4,3.3,10.1c1.4,1.8,4.6.8,5.8,2.6s3.4,10.3,4.3,11.1c1.1.9,3.9-.1,5.7.8,3,1.7,3.6,7,4,7.3,1.1.9,3.6-.1,5,.3l6.3,6.1Z"/>
    </clipPath>
    <clipPath id="clippath-2">
      <polygon class="st0" points="1193.6 90.6 1155.7 72.4 1155.7 118.2 935.4 279 935.4 510 1353.5 510 1353.5 332.7 1379.9 332.7 1379.9 262.6 1367.3 262.6 1362.5 253 1193.6 90.6"/>
    </clipPath>
    <clipPath id="clippath-3">
      <path class="st0" d="M1068.6,503.3c-1.2-3.7,5.7-17.4,3.3-19.5s-3.7.5-5.2,0c-2-.8-10.2-7.1-11.9-8.7-5.4-5-12.3-9.3-5.6-15.6-10.2,2.3-7.5-3.4-11.3-7.1-1.5-1.5-4.1-.5-5-2.1-.9-1.7-.3-5.5-2-6.8s-6.7,1.2-4.5-4.3,4.7-2.2,4.9-2.5c.2-.3-2.9-4.9-3.2-7.4-.4-3.3,2-10.1,1.6-10.4s-4,.3-6.4-.9-4.2-6.1-5.4-6.7c-1.8-1-4.7,0-5.8-.8s-.7-5-4.1-7.2-4.1-.4-4.2-.6c-1-1,1.6-5.6,1.6-7.1s-2.8-1.3-3.8-2.9c-7.8-13.3,1.5-49-7.4-57-1.1-1-10.8-4-13.1-5.2-1.1-.6-8.1-6.9-9.3-7.2-2.7-.6-5.7.5-8.5-.2-.7-8.1-6.8-8.9-4.1-17.6,2.5-7.9,6.7-3.5,10.1-5.3.7-.4,1.8-4.6,4.3-6.3,4.2-2.9,7.6.7,4.6-6s-5-5.8-5.4-6c-2.2-1.2-5.8-.6-6.3-1s-1.3-10.6-.8-12.6,5.3-7.7,5.9-8c2.2-1,5.1.2,6.5-.5,5.3-2.6,12.5-9.3,16.8-11.9,4.3-2.7,8.3-2.5,8.7-2.8s-.4-3.2.5-4.3,3.1,0,4.6-1.4c1.3-1.2,1.7-4.7,3.1-6s10-5,10.7-5.9c1.4-2,.3-5.9.8-6.5.8-.9,9.1.7,11.8,0s6.5-6.6,8.2-7.6,4.7,0,5.7-.7c.9-.7.8-6.9,2.1-7.7s4.8.6,6-.5c.5-.5,0-3,.8-3.9,6.4-7.5,19.3-10.8,28.5-18.1,2.8-2.2,6.2-7.7,8.7-9.6s10.3-4.3,12-5.8,2.8-10,3.9-10.8c1.6-1,5.4.7,7.6-.6,5.1-3,13.8-12.8,18.7-15.3s5,0,5.8-.8-.3-3.8.3-4.4c.4-.4,7.3,0,10.3-5.2,1.3-2.2.5-5.6,1.1-6.2.8-.9,6.8.7,7.8-2.7l8.2-21.8v404h-102.2Z"/>
    </clipPath>
    <clipPath id="clippath-4">
      <polygon class="st0" points="1193.6 90.6 1155.7 72.4 1155.7 118.2 935.4 279 935.4 510 1353.5 510 1353.5 332.7 1379.9 332.7 1379.9 262.6 1367.3 262.6 1362.5 253 1193.6 90.6"/>
    </clipPath>
  </defs>
  <g class="st17">
    <g id="Capa_1">
      <g>
        <polygon class="st24" points="121 438.1 132.5 429.2 149.1 420.9 166.2 412.1 182.7 406.8 198.8 406.3 215.4 413.1 231.9 421.4 247 430.2 264.6 439.4 279.2 440.4 297.2 443.8 312.8 437 329.4 432.1 344.5 420.9 360.6 410.2 378.6 401.4 392.7 389.2 409.3 373.6 425.4 357.1 442.5 334.6 458.5 310.8 475.1 307.8 491.7 303.9 506.8 302 523.8 300 539.4 269.8 555.5 238.6 572.6 214.8 588.2 190.4 605.2 166.5 619.8 147.5 638.3 127.1 638.3 503.4 120.4 503.4 121 438.1"/>
        <g class="st25">
          <g>
            <line class="st3" x1="121.8" y1="39" x2="121.8" y2="606.1"/>
            <line class="st3" x1="126.9" y1="39" x2="126.9" y2="606.1"/>
            <line class="st3" x1="131.9" y1="39" x2="131.9" y2="606.1"/>
            <line class="st3" x1="137" y1="39" x2="137" y2="606.1"/>
            <line class="st3" x1="142" y1="39" x2="142" y2="606.1"/>
            <line class="st3" x1="147.1" y1="39" x2="147.1" y2="606.1"/>
            <line class="st3" x1="152.1" y1="39" x2="152.1" y2="606.1"/>
            <line class="st3" x1="157.2" y1="39" x2="157.2" y2="606.1"/>
            <line class="st3" x1="162.2" y1="39" x2="162.2" y2="606.1"/>
            <line class="st3" x1="167.3" y1="39" x2="167.3" y2="606.1"/>
            <line class="st3" x1="172.3" y1="39" x2="172.3" y2="606.1"/>
            <line class="st3" x1="177.4" y1="39" x2="177.4" y2="606.1"/>
            <line class="st3" x1="182.4" y1="39" x2="182.4" y2="606.1"/>
            <line class="st3" x1="187.5" y1="39" x2="187.5" y2="606.1"/>
            <line class="st3" x1="192.6" y1="39" x2="192.6" y2="606.1"/>
            <line class="st3" x1="197.6" y1="39" x2="197.6" y2="606.1"/>
            <line class="st3" x1="202.7" y1="39" x2="202.7" y2="606.1"/>
            <line class="st3" x1="207.7" y1="39" x2="207.7" y2="606.1"/>
            <line class="st3" x1="212.8" y1="39" x2="212.8" y2="606.1"/>
            <line class="st3" x1="217.8" y1="39" x2="217.8" y2="606.1"/>
            <line class="st3" x1="222.9" y1="39" x2="222.9" y2="606.1"/>
            <line class="st3" x1="227.9" y1="39" x2="227.9" y2="606.1"/>
            <line class="st3" x1="233" y1="39" x2="233" y2="606.1"/>
            <line class="st3" x1="238" y1="39" x2="238" y2="606.1"/>
            <line class="st3" x1="243.1" y1="39" x2="243.1" y2="606.1"/>
            <line class="st3" x1="248.1" y1="39" x2="248.1" y2="606.1"/>
            <line class="st3" x1="253.2" y1="39" x2="253.2" y2="606.1"/>
            <line class="st3" x1="258.2" y1="39" x2="258.2" y2="606.1"/>
            <line class="st3" x1="263.3" y1="39" x2="263.3" y2="606.1"/>
            <line class="st3" x1="268.3" y1="39" x2="268.3" y2="606.1"/>
            <line class="st3" x1="273.4" y1="39" x2="273.4" y2="606.1"/>
            <line class="st3" x1="278.4" y1="39" x2="278.4" y2="606.1"/>
            <line class="st3" x1="283.5" y1="39" x2="283.5" y2="606.1"/>
            <line class="st3" x1="288.6" y1="39" x2="288.6" y2="606.1"/>
            <line class="st3" x1="293.6" y1="39" x2="293.6" y2="606.1"/>
            <line class="st3" x1="298.7" y1="39" x2="298.7" y2="606.1"/>
            <line class="st3" x1="303.7" y1="39" x2="303.7" y2="606.1"/>
            <line class="st3" x1="308.8" y1="39" x2="308.8" y2="606.1"/>
            <line class="st3" x1="313.8" y1="39" x2="313.8" y2="606.1"/>
            <line class="st3" x1="318.9" y1="39" x2="318.9" y2="606.1"/>
            <line class="st3" x1="323.9" y1="39" x2="323.9" y2="606.1"/>
            <line class="st3" x1="329" y1="39" x2="329" y2="606.1"/>
            <line class="st3" x1="334" y1="39" x2="334" y2="606.1"/>
            <line class="st3" x1="339.1" y1="39" x2="339.1" y2="606.1"/>
            <line class="st3" x1="344.1" y1="39" x2="344.1" y2="606.1"/>
            <line class="st3" x1="349.2" y1="39" x2="349.2" y2="606.1"/>
            <line class="st3" x1="354.2" y1="39" x2="354.2" y2="606.1"/>
            <line class="st3" x1="359.3" y1="39" x2="359.3" y2="606.1"/>
            <line class="st3" x1="364.3" y1="39" x2="364.3" y2="606.1"/>
            <line class="st3" x1="369.4" y1="39" x2="369.4" y2="606.1"/>
            <line class="st3" x1="374.4" y1="39" x2="374.4" y2="606.1"/>
            <line class="st3" x1="379.5" y1="39" x2="379.5" y2="606.1"/>
            <line class="st3" x1="384.6" y1="39" x2="384.6" y2="606.1"/>
            <line class="st3" x1="389.6" y1="39" x2="389.6" y2="606.1"/>
            <line class="st3" x1="394.7" y1="39" x2="394.7" y2="606.1"/>
            <line class="st3" x1="399.7" y1="39" x2="399.7" y2="606.1"/>
            <line class="st3" x1="404.8" y1="39" x2="404.8" y2="606.1"/>
            <line class="st3" x1="409.8" y1="39" x2="409.8" y2="606.1"/>
            <line class="st3" x1="414.9" y1="39" x2="414.9" y2="606.1"/>
            <line class="st3" x1="419.9" y1="39" x2="419.9" y2="606.1"/>
            <line class="st3" x1="425" y1="39" x2="425" y2="606.1"/>
            <line class="st3" x1="430" y1="39" x2="430" y2="606.1"/>
            <line class="st3" x1="435.1" y1="39" x2="435.1" y2="606.1"/>
            <line class="st3" x1="440.1" y1="39" x2="440.1" y2="606.1"/>
            <line class="st3" x1="445.2" y1="39" x2="445.2" y2="606.1"/>
            <line class="st3" x1="450.2" y1="39" x2="450.2" y2="606.1"/>
            <line class="st3" x1="455.3" y1="39" x2="455.3" y2="606.1"/>
            <line class="st3" x1="460.3" y1="39" x2="460.3" y2="606.1"/>
            <line class="st3" x1="465.4" y1="39" x2="465.4" y2="606.1"/>
            <line class="st3" x1="470.4" y1="39" x2="470.4" y2="606.1"/>
            <line class="st3" x1="475.5" y1="39" x2="475.5" y2="606.1"/>
            <line class="st3" x1="480.6" y1="39" x2="480.6" y2="606.1"/>
            <line class="st3" x1="485.6" y1="39" x2="485.6" y2="606.1"/>
            <line class="st3" x1="490.7" y1="39" x2="490.7" y2="606.1"/>
            <line class="st3" x1="495.7" y1="39" x2="495.7" y2="606.1"/>
            <line class="st3" x1="500.8" y1="39" x2="500.8" y2="606.1"/>
            <line class="st3" x1="505.8" y1="39" x2="505.8" y2="606.1"/>
            <line class="st3" x1="510.9" y1="39" x2="510.9" y2="606.1"/>
            <line class="st3" x1="515.9" y1="39" x2="515.9" y2="606.1"/>
            <line class="st3" x1="521" y1="39" x2="521" y2="606.1"/>
            <line class="st3" x1="526" y1="39" x2="526" y2="606.1"/>
            <line class="st3" x1="531.1" y1="39" x2="531.1" y2="606.1"/>
            <line class="st3" x1="536.1" y1="39" x2="536.1" y2="606.1"/>
            <line class="st3" x1="541.2" y1="39" x2="541.2" y2="606.1"/>
            <line class="st3" x1="546.2" y1="39" x2="546.2" y2="606.1"/>
            <line class="st3" x1="551.3" y1="39" x2="551.3" y2="606.1"/>
            <line class="st3" x1="556.3" y1="39" x2="556.3" y2="606.1"/>
            <line class="st3" x1="561.4" y1="39" x2="561.4" y2="606.1"/>
            <line class="st3" x1="566.4" y1="39" x2="566.4" y2="606.1"/>
            <line class="st3" x1="571.5" y1="39" x2="571.5" y2="606.1"/>
            <line class="st3" x1="576.6" y1="39" x2="576.6" y2="606.1"/>
            <line class="st3" x1="581.6" y1="39" x2="581.6" y2="606.1"/>
            <line class="st3" x1="586.7" y1="39" x2="586.7" y2="606.1"/>
            <line class="st3" x1="591.7" y1="39" x2="591.7" y2="606.1"/>
            <line class="st3" x1="596.8" y1="39" x2="596.8" y2="606.1"/>
            <line class="st3" x1="601.8" y1="39" x2="601.8" y2="606.1"/>
            <line class="st3" x1="606.9" y1="39" x2="606.9" y2="606.1"/>
            <line class="st3" x1="611.9" y1="39" x2="611.9" y2="606.1"/>
            <line class="st3" x1="617" y1="39" x2="617" y2="606.1"/>
            <line class="st3" x1="622" y1="39" x2="622" y2="606.1"/>
            <line class="st3" x1="627.1" y1="39" x2="627.1" y2="606.1"/>
            <line class="st3" x1="632.1" y1="39" x2="632.1" y2="606.1"/>
          </g>
        </g>
        <line class="st6" x1="638.8" y1="504.1" x2="638.8" y2="130.4"/>
        <line class="st6" x1="551.2" y1="504.1" x2="551.2" y2="249.3"/>
        <line class="st6" x1="465.3" y1="504.1" x2="465.3" y2="311.4"/>
        <line class="st6" x1="378.6" y1="504.1" x2="378.6" y2="403.7"/>
        <line class="st6" x1="293.4" y1="504.1" x2="293.4" y2="443.6"/>
        <line class="st6" x1="202.5" y1="504.1" x2="202.5" y2="408.1"/>
        <line class="st6" x1="121.2" y1="504.1" x2="121.2" y2="437.7"/>
        <g>
          <path class="st16" d="M29.3,509.6l4.6-9h0c0,0-5.3,0-5.3,0v-1.1h6.5v1.2l-4.5,9h-1.3Z"/>
          <path class="st16" d="M36.1,509.7c-.2,0-.5,0-.6-.3-.2-.2-.3-.4-.3-.6s0-.5.3-.6c.2-.2.4-.3.6-.3s.5,0,.6.3c.2.2.3.4.3.6s0,.3-.1.4c0,.1-.2.2-.3.3-.1,0-.3.1-.5.1Z"/>
          <path class="st16" d="M42.2,509.7c-.7,0-1.2-.1-1.8-.3s-.9-.5-1.2-.9-.5-.9-.5-1.4h1.3c0,.3.1.6.3.9.2.2.5.4.8.5.3.1.7.2,1.1.2s.8,0,1.2-.2c.3-.2.6-.4.8-.6.2-.3.3-.6.3-.9s0-.7-.3-1-.5-.5-.8-.7c-.4-.2-.8-.2-1.3-.2h-.8v-1.1h.8c.4,0,.8,0,1.1-.2.3-.1.5-.4.7-.6.2-.3.3-.6.3-.9s0-.6-.2-.9-.4-.5-.6-.6-.6-.2-1-.2-.7,0-1,.2-.6.3-.8.6c-.2.2-.3.5-.3.9h-1.2c0-.5.2-1,.5-1.4s.7-.7,1.2-.9c.5-.2,1-.3,1.6-.3s1.2.1,1.6.4c.5.3.8.6,1,1,.2.4.4.9.4,1.3s-.2,1.1-.5,1.5-.7.7-1.2.8h0c.6.2,1.1.5,1.5.9.4.4.5,1,.5,1.6s-.2,1.1-.5,1.5c-.3.4-.7.8-1.2,1-.5.3-1.1.4-1.8.4Z"/>
          <path class="st16" d="M51,509.7c-.8,0-1.4-.2-1.9-.6s-.9-1-1.2-1.8-.4-1.7-.4-2.8.1-2,.4-2.8c.3-.8.7-1.4,1.2-1.8.5-.4,1.2-.6,1.9-.6s1.4.2,1.9.6c.5.4.9,1,1.2,1.8.3.8.4,1.7.4,2.8s-.1,2.1-.4,2.8c-.3.8-.7,1.4-1.2,1.8s-1.2.6-1.9.6ZM51,508.6c.7,0,1.3-.4,1.7-1.1.4-.7.6-1.7.6-3.1s0-1.6-.3-2.3c-.2-.6-.5-1.1-.8-1.4-.4-.3-.8-.5-1.3-.5-.7,0-1.3.4-1.7,1.1-.4.7-.6,1.8-.6,3.1s0,1.6.3,2.3.5,1.1.8,1.4.8.5,1.3.5Z"/>
          <path class="st16" d="M59.8,509.7c-.8,0-1.4-.2-1.9-.6s-.9-1-1.2-1.8-.4-1.7-.4-2.8.1-2,.4-2.8c.3-.8.7-1.4,1.2-1.8.5-.4,1.2-.6,1.9-.6s1.4.2,1.9.6c.5.4.9,1,1.2,1.8.3.8.4,1.7.4,2.8s-.1,2.1-.4,2.8c-.3.8-.7,1.4-1.2,1.8s-1.2.6-1.9.6ZM59.8,508.6c.7,0,1.3-.4,1.7-1.1.4-.7.6-1.7.6-3.1s0-1.6-.3-2.3c-.2-.6-.5-1.1-.8-1.4-.4-.3-.8-.5-1.3-.5-.7,0-1.3.4-1.7,1.1-.4.7-.6,1.8-.6,3.1s0,1.6.3,2.3.5,1.1.8,1.4.8.5,1.3.5Z"/>
          <path class="st16" d="M65.7,509.7c-.2,0-.5,0-.6-.3-.2-.2-.3-.4-.3-.6s0-.5.3-.6c.2-.2.4-.3.6-.3s.5,0,.6.3c.2.2.3.4.3.6s0,.3-.1.4c0,.1-.2.2-.3.3-.1,0-.3.1-.5.1Z"/>
          <path class="st16" d="M71.7,509.7c-.8,0-1.4-.2-1.9-.6s-.9-1-1.2-1.8-.4-1.7-.4-2.8.1-2,.4-2.8c.3-.8.7-1.4,1.2-1.8.5-.4,1.2-.6,1.9-.6s1.4.2,1.9.6c.5.4.9,1,1.2,1.8.3.8.4,1.7.4,2.8s-.1,2.1-.4,2.8c-.3.8-.7,1.4-1.2,1.8s-1.2.6-1.9.6ZM71.7,508.6c.7,0,1.3-.4,1.7-1.1.4-.7.6-1.7.6-3.1s0-1.6-.3-2.3c-.2-.6-.5-1.1-.8-1.4-.4-.3-.8-.5-1.3-.5-.7,0-1.3.4-1.7,1.1-.4.7-.6,1.8-.6,3.1s0,1.6.3,2.3.5,1.1.8,1.4.8.5,1.3.5Z"/>
          <path class="st16" d="M80.5,509.7c-.8,0-1.4-.2-1.9-.6s-.9-1-1.2-1.8-.4-1.7-.4-2.8.1-2,.4-2.8c.3-.8.7-1.4,1.2-1.8.5-.4,1.2-.6,1.9-.6s1.4.2,1.9.6c.5.4.9,1,1.2,1.8.3.8.4,1.7.4,2.8s-.1,2.1-.4,2.8c-.3.8-.7,1.4-1.2,1.8s-1.2.6-1.9.6ZM80.5,508.6c.7,0,1.3-.4,1.7-1.1.4-.7.6-1.7.6-3.1s0-1.6-.3-2.3c-.2-.6-.5-1.1-.8-1.4-.4-.3-.8-.5-1.3-.5-.7,0-1.3.4-1.7,1.1-.4.7-.6,1.8-.6,3.1s0,1.6.3,2.3.5,1.1.8,1.4.8.5,1.3.5Z"/>
          <path class="st16" d="M89.2,509.7c-.8,0-1.4-.2-1.9-.6s-.9-1-1.2-1.8-.4-1.7-.4-2.8.1-2,.4-2.8c.3-.8.7-1.4,1.2-1.8.5-.4,1.2-.6,1.9-.6s1.4.2,1.9.6c.5.4.9,1,1.2,1.8.3.8.4,1.7.4,2.8s-.1,2.1-.4,2.8c-.3.8-.7,1.4-1.2,1.8s-1.2.6-1.9.6ZM89.2,508.6c.7,0,1.3-.4,1.7-1.1.4-.7.6-1.7.6-3.1s0-1.6-.3-2.3c-.2-.6-.5-1.1-.8-1.4-.4-.3-.8-.5-1.3-.5-.7,0-1.3.4-1.7,1.1-.4.7-.6,1.8-.6,3.1s0,1.6.3,2.3.5,1.1.8,1.4.8.5,1.3.5Z"/>
        </g>
        <g>
          <path class="st16" d="M105.3,526.2v-.9l3.4-3.7c.4-.4.7-.8,1-1.1.3-.3.4-.6.6-.9s.2-.6.2-.9,0-.7-.3-.9c-.2-.3-.4-.5-.7-.6-.3-.1-.6-.2-1-.2s-.7,0-1,.2c-.3.2-.5.4-.7.7s-.2.6-.2,1h-1.2c0-.6.1-1.1.4-1.6.3-.5.7-.8,1.1-1.1.5-.3,1-.4,1.6-.4s1.1.1,1.6.4c.5.3.8.6,1.1,1,.3.4.4.9.4,1.4s0,.7-.2,1.1c-.1.4-.4.8-.7,1.2-.3.4-.8,1-1.4,1.6l-2.3,2.5h0c0,0,4.7,0,4.7,0v1.1h-6.4Z"/>
          <path class="st16" d="M117.1,526.4c-.8,0-1.4-.2-1.9-.6s-.9-1-1.2-1.8-.4-1.7-.4-2.8.1-2,.4-2.8c.3-.8.7-1.4,1.2-1.8.5-.4,1.2-.6,1.9-.6s1.4.2,1.9.6c.5.4.9,1,1.2,1.8.3.8.4,1.7.4,2.8s-.1,2.1-.4,2.8c-.3.8-.7,1.4-1.2,1.8s-1.2.6-1.9.6ZM117.1,525.3c.7,0,1.3-.4,1.7-1.1.4-.7.6-1.7.6-3.1s0-1.6-.3-2.3c-.2-.6-.5-1.1-.8-1.4-.4-.3-.8-.5-1.3-.5-.7,0-1.3.4-1.7,1.1-.4.7-.6,1.8-.6,3.1s0,1.6.3,2.3.5,1.1.8,1.4.8.5,1.3.5Z"/>
          <path class="st16" d="M125.9,526.4c-.8,0-1.4-.2-1.9-.6s-.9-1-1.2-1.8-.4-1.7-.4-2.8.1-2,.4-2.8c.3-.8.7-1.4,1.2-1.8.5-.4,1.2-.6,1.9-.6s1.4.2,1.9.6c.5.4.9,1,1.2,1.8.3.8.4,1.7.4,2.8s-.1,2.1-.4,2.8c-.3.8-.7,1.4-1.2,1.8s-1.2.6-1.9.6ZM125.9,525.3c.7,0,1.3-.4,1.7-1.1.4-.7.6-1.7.6-3.1s0-1.6-.3-2.3c-.2-.6-.5-1.1-.8-1.4-.4-.3-.8-.5-1.3-.5-.7,0-1.3.4-1.7,1.1-.4.7-.6,1.8-.6,3.1s0,1.6.3,2.3.5,1.1.8,1.4.8.5,1.3.5Z"/>
          <path class="st16" d="M134.6,515.9c.4,0,.8,0,1.3.2.4.2.8.4,1.1.8.3.4.6.9.8,1.5.2.6.3,1.4.3,2.3s0,1.7-.3,2.4c-.2.7-.4,1.3-.7,1.8-.3.5-.7.8-1.2,1.1-.5.2-1,.4-1.5.4s-1.1-.1-1.5-.3c-.4-.2-.8-.5-1.1-1s-.5-.9-.5-1.4h1.2c.1.5.3.9.7,1.2.3.3.8.5,1.3.5.8,0,1.4-.3,1.9-1,.5-.7.7-1.7.7-2.9h0c-.2.3-.4.5-.7.7-.3.2-.5.4-.9.5-.3.1-.6.2-1,.2-.6,0-1.1-.1-1.6-.4-.5-.3-.9-.7-1.2-1.2-.3-.5-.4-1.1-.4-1.8s.1-1.2.4-1.7c.3-.5.7-.9,1.2-1.2.5-.3,1.1-.5,1.8-.4ZM134.6,517c-.4,0-.8.1-1.1.3-.3.2-.6.5-.8.8s-.3.7-.3,1.2,0,.8.3,1.2c.2.3.4.6.8.8s.7.3,1.1.3.6,0,.9-.2c.3-.1.5-.3.7-.5.2-.2.4-.5.5-.7.1-.3.2-.6.2-.9s0-.8-.3-1.1-.5-.6-.8-.8c-.3-.2-.7-.3-1.1-.3Z"/>
        </g>
        <g>
          <path class="st16" d="M362.3,526.2v-.9l3.4-3.7c.4-.4.7-.8,1-1.1.3-.3.4-.6.6-.9s.2-.6.2-.9,0-.7-.3-.9c-.2-.3-.4-.5-.7-.6-.3-.1-.6-.2-1-.2s-.7,0-1,.2c-.3.2-.5.4-.7.7s-.2.6-.2,1h-1.2c0-.6.1-1.1.4-1.6.3-.5.7-.8,1.1-1.1.5-.3,1-.4,1.6-.4s1.1.1,1.6.4c.5.3.8.6,1.1,1,.3.4.4.9.4,1.4s0,.7-.2,1.1c-.1.4-.4.8-.7,1.2-.3.4-.8,1-1.4,1.6l-2.3,2.5h0c0,0,4.7,0,4.7,0v1.1h-6.4Z"/>
          <path class="st16" d="M374.1,526.4c-.8,0-1.4-.2-1.9-.6s-.9-1-1.2-1.8-.4-1.7-.4-2.8.1-2,.4-2.8c.3-.8.7-1.4,1.2-1.8.5-.4,1.2-.6,1.9-.6s1.4.2,1.9.6c.5.4.9,1,1.2,1.8.3.8.4,1.7.4,2.8s-.1,2.1-.4,2.8c-.3.8-.7,1.4-1.2,1.8s-1.2.6-1.9.6ZM374.1,525.3c.7,0,1.3-.4,1.7-1.1.4-.7.6-1.7.6-3.1s0-1.6-.3-2.3c-.2-.6-.5-1.1-.8-1.4-.4-.3-.8-.5-1.3-.5-.7,0-1.3.4-1.7,1.1-.4.7-.6,1.8-.6,3.1s0,1.6.3,2.3.5,1.1.8,1.4.8.5,1.3.5Z"/>
          <path class="st16" d="M383.1,516v10.2h-1.2v-8.9h0l-2.5,1.7v-1.3l2.6-1.7h1.2Z"/>
          <path class="st16" d="M389.2,526.4c-.6,0-1.1-.1-1.6-.3-.5-.2-.8-.6-1.1-1-.3-.4-.4-.9-.5-1.4h1.2c0,.5.3.8.6,1.1.4.3.8.5,1.3.5s.8,0,1.1-.3c.3-.2.6-.5.8-.8s.3-.7.3-1.2,0-.8-.3-1.2-.5-.6-.8-.8c-.3-.2-.7-.3-1.2-.3-.3,0-.6,0-1,.1-.3,0-.6.2-.8.4h-1.2c0-.1.6-5.2.6-5.2h5.3v1.1h-4.3l-.4,3h0c.2-.2.5-.3.8-.4.3-.1.6-.2,1-.2.6,0,1.2.1,1.7.4.5.3.9.7,1.2,1.2.3.5.4,1.1.4,1.8s-.1,1.2-.4,1.7c-.3.5-.7.9-1.2,1.2-.5.3-1.1.4-1.7.4Z"/>
        </g>
        <text class="st13" transform="translate(607.4 531.4)"><tspan x="0" y="0">2024</tspan></text>
        <g>
          <path class="st16" d="M1187.4,528.4h-4v-13.1h4.2c1.3,0,2.4.3,3.3.8.9.5,1.6,1.3,2.1,2.2.5,1,.7,2.1.7,3.5s-.2,2.5-.7,3.5c-.5,1-1.2,1.7-2.1,2.3s-2.1.8-3.4.8ZM1185,527h2.4c1.1,0,2-.2,2.7-.6.7-.4,1.2-1,1.6-1.8.3-.8.5-1.7.5-2.8s-.2-2-.5-2.7c-.3-.8-.9-1.4-1.5-1.8-.7-.4-1.5-.6-2.6-.6h-2.5v10.3Z"/>
          <path class="st16" d="M1200.1,528.6c-.9,0-1.7-.2-2.3-.6s-1.2-1-1.6-1.8c-.4-.8-.6-1.6-.6-2.7s.2-1.9.6-2.7.9-1.4,1.6-1.8,1.4-.6,2.3-.6,1.7.2,2.3.6,1.2,1,1.6,1.8.6,1.7.6,2.7-.2,1.9-.6,2.7c-.4.8-.9,1.3-1.6,1.8s-1.4.6-2.3.6ZM1200.1,527.2c.7,0,1.2-.2,1.7-.5.4-.3.8-.8,1-1.4.2-.6.3-1.2.3-1.8s-.1-1.3-.3-1.8c-.2-.6-.5-1-1-1.4s-1-.5-1.7-.5-1.2.2-1.7.5-.8.8-1,1.4c-.2.6-.3,1.2-.3,1.8s.1,1.3.3,1.8.5,1,1,1.4c.4.3,1,.5,1.7.5Z"/>
          <path class="st16" d="M1208.4,522.5v5.9h-1.5v-9.8h1.5v1.5h.1c.2-.5.6-.9,1-1.2.5-.3,1.1-.5,1.8-.5s1.2.1,1.7.4c.5.3.9.7,1.2,1.2.3.5.4,1.2.4,2.1v6.2h-1.5v-6.1c0-.8-.2-1.4-.6-1.8-.4-.4-1-.6-1.6-.6s-.9.1-1.3.3c-.4.2-.7.5-.9.9-.2.4-.3.9-.3,1.5Z"/>
          <path class="st16" d="M1221.5,528.6c-.9,0-1.8-.2-2.4-.6-.7-.4-1.2-1-1.6-1.8-.4-.8-.6-1.6-.6-2.6s.2-1.9.6-2.7c.4-.8.9-1.4,1.5-1.8.7-.4,1.4-.6,2.3-.6s1,0,1.5.3c.5.2,1,.4,1.4.8.4.4.7.9,1,1.5s.4,1.4.4,2.3v.6h-7.6v-1.3h6c0-.6-.1-1-.3-1.5s-.5-.8-.9-1c-.4-.3-.9-.4-1.4-.4s-1.1.1-1.6.4-.8.7-1,1.2c-.2.5-.4,1-.4,1.5v.9c0,.7.1,1.4.4,1.9s.6.9,1.1,1.2,1,.4,1.6.4.8,0,1.1-.2c.3-.1.6-.3.8-.5s.4-.5.5-.9l1.5.4c-.2.5-.4.9-.8,1.3s-.8.7-1.3.9c-.5.2-1.1.3-1.8.3Z"/>
          <path class="st16" d="M1234.8,520.8l-1.4.4c0-.2-.2-.4-.4-.7-.2-.2-.4-.4-.7-.5s-.6-.2-1.1-.2-1.1.1-1.5.4-.6.6-.6,1,.1.7.4.9c.3.2.7.4,1.3.5l1.5.4c.9.2,1.5.5,2,1,.4.4.6,1,.6,1.7s-.2,1.1-.5,1.5c-.3.4-.8.8-1.3,1-.6.3-1.2.4-2,.4s-1.8-.2-2.5-.7-1.1-1.1-1.2-1.9l1.4-.4c.1.5.4.9.8,1.2.4.3.9.4,1.5.4s1.3-.2,1.7-.5c.4-.3.6-.7.6-1.1s-.1-.6-.4-.9c-.2-.2-.6-.4-1.1-.5l-1.6-.4c-.9-.2-1.6-.5-2-1-.4-.4-.6-1-.6-1.7s.2-1,.5-1.5c.3-.4.7-.8,1.3-1,.5-.2,1.2-.4,1.9-.4s1.7.2,2.3.6c.6.4,1,1,1.2,1.7Z"/>
        </g>
        <g>
          <path class="st16" d="M1106.2,528.4v-13.1h1.6v5.8h7v-5.8h1.6v13.1h-1.6v-5.9h-7v5.9h-1.6Z"/>
          <path class="st16" d="M1123.3,528.6c-.9,0-1.7-.2-2.3-.6s-1.2-1-1.6-1.8c-.4-.8-.6-1.6-.6-2.7s.2-1.9.6-2.7.9-1.4,1.6-1.8,1.4-.6,2.3-.6,1.7.2,2.3.6,1.2,1,1.6,1.8.6,1.7.6,2.7-.2,1.9-.6,2.7c-.4.8-.9,1.3-1.6,1.8s-1.4.6-2.3.6ZM1123.3,527.2c.7,0,1.2-.2,1.7-.5.4-.3.8-.8,1-1.4.2-.6.3-1.2.3-1.8s-.1-1.3-.3-1.8c-.2-.6-.5-1-1-1.4s-1-.5-1.7-.5-1.2.2-1.7.5-.8.8-1,1.4c-.2.6-.3,1.2-.3,1.8s.1,1.3.3,1.8.5,1,1,1.4c.4.3,1,.5,1.7.5Z"/>
          <path class="st16" d="M1130,528.4v-9.8h1.5v1.5h.1c.2-.5.5-.9,1-1.2s1-.4,1.6-.4,1.2.1,1.6.4.8.7,1,1.2h.1c.3-.5.6-.9,1.1-1.2s1.1-.5,1.8-.5,1.6.3,2.2.8c.6.5.8,1.4.8,2.6v6.6h-1.5v-6.6c0-.7-.2-1.2-.6-1.6s-.9-.5-1.4-.5-1.2.2-1.6.6c-.4.4-.6.9-.6,1.6v6.4h-1.5v-6.7c0-.6-.2-1-.5-1.4s-.8-.5-1.4-.5-.8.1-1.1.3-.6.5-.8.9c-.2.4-.3.8-.3,1.3v6.1h-1.5Z"/>
          <path class="st16" d="M1149.8,528.6c-.9,0-1.8-.2-2.4-.6-.7-.4-1.2-1-1.6-1.8-.4-.8-.6-1.6-.6-2.6s.2-1.9.6-2.7c.4-.8.9-1.4,1.5-1.8.7-.4,1.4-.6,2.3-.6s1,0,1.5.3c.5.2,1,.4,1.4.8.4.4.7.9,1,1.5s.4,1.4.4,2.3v.6h-7.6v-1.3h6c0-.6-.1-1-.3-1.5s-.5-.8-.9-1c-.4-.3-.9-.4-1.4-.4s-1.1.1-1.6.4-.8.7-1,1.2c-.2.5-.4,1-.4,1.5v.9c0,.7.1,1.4.4,1.9s.6.9,1.1,1.2,1,.4,1.6.4.8,0,1.1-.2c.3-.1.6-.3.8-.5s.4-.5.5-.9l1.5.4c-.2.5-.4.9-.8,1.3s-.8.7-1.3.9c-.5.2-1.1.3-1.8.3Z"/>
          <path class="st16" d="M1163.1,520.8l-1.4.4c0-.2-.2-.4-.4-.7-.2-.2-.4-.4-.7-.5s-.6-.2-1.1-.2-1.1.1-1.5.4-.6.6-.6,1,.1.7.4.9c.3.2.7.4,1.3.5l1.5.4c.9.2,1.5.5,2,1,.4.4.6,1,.6,1.7s-.2,1.1-.5,1.5c-.3.4-.8.8-1.3,1-.6.3-1.2.4-2,.4s-1.8-.2-2.5-.7-1.1-1.1-1.2-1.9l1.4-.4c.1.5.4.9.8,1.2.4.3.9.4,1.5.4s1.3-.2,1.7-.5c.4-.3.6-.7.6-1.1s-.1-.6-.4-.9c-.2-.2-.6-.4-1.1-.5l-1.6-.4c-.9-.2-1.6-.5-2-1-.4-.4-.6-1-.6-1.7s.2-1,.5-1.5c.3-.4.7-.8,1.3-1,.5-.2,1.2-.4,1.9-.4s1.7.2,2.3.6c.6.4,1,1,1.2,1.7Z"/>
        </g>
        <g>
          <path class="st16" d="M934.6,348.4v-.9l3.4-3.7c.4-.4.7-.8,1-1.1s.4-.6.6-.9c.1-.3.2-.6.2-.9s0-.7-.3-.9c-.2-.3-.4-.5-.7-.6-.3-.1-.6-.2-1-.2s-.7,0-1,.2c-.3.2-.5.4-.7.7-.2.3-.2.6-.2,1h-1.2c0-.6.1-1.1.4-1.6.3-.5.7-.8,1.1-1.1.5-.3,1-.4,1.6-.4s1.1.1,1.6.4c.5.3.8.6,1.1,1,.3.4.4.9.4,1.4s0,.7-.2,1.1c-.1.4-.4.8-.7,1.2-.3.4-.8,1-1.4,1.6l-2.3,2.5h0c0,0,4.7,0,4.7,0v1.1h-6.4Z"/>
          <path class="st16" d="M946.5,348.5c-.8,0-1.4-.2-1.9-.6-.5-.4-.9-1-1.2-1.8-.3-.8-.4-1.7-.4-2.8s.1-2,.4-2.8c.3-.8.7-1.4,1.2-1.8.5-.4,1.2-.6,1.9-.6s1.4.2,1.9.6c.5.4.9,1,1.2,1.8.3.8.4,1.7.4,2.8s-.1,2.1-.4,2.8c-.3.8-.7,1.4-1.2,1.8-.5.4-1.2.6-1.9.6ZM946.5,347.5c.7,0,1.3-.4,1.7-1.1s.6-1.7.6-3.1,0-1.6-.3-2.3c-.2-.6-.5-1.1-.8-1.4s-.8-.5-1.3-.5c-.7,0-1.3.4-1.7,1.1s-.6,1.8-.6,3.1,0,1.6.3,2.3c.2.6.5,1.1.8,1.4s.8.5,1.3.5Z"/>
          <path class="st16" d="M955.2,348.5c-.8,0-1.4-.2-1.9-.6-.5-.4-.9-1-1.2-1.8-.3-.8-.4-1.7-.4-2.8s.1-2,.4-2.8c.3-.8.7-1.4,1.2-1.8.5-.4,1.2-.6,1.9-.6s1.4.2,1.9.6c.5.4.9,1,1.2,1.8.3.8.4,1.7.4,2.8s-.1,2.1-.4,2.8c-.3.8-.7,1.4-1.2,1.8-.5.4-1.2.6-1.9.6ZM955.2,347.5c.7,0,1.3-.4,1.7-1.1s.6-1.7.6-3.1,0-1.6-.3-2.3c-.2-.6-.5-1.1-.8-1.4s-.8-.5-1.3-.5c-.7,0-1.3.4-1.7,1.1s-.6,1.8-.6,3.1,0,1.6.3,2.3c.2.6.5,1.1.8,1.4s.8.5,1.3.5Z"/>
          <path class="st16" d="M963.9,338.1c.4,0,.8,0,1.3.2.4.2.8.4,1.1.8s.6.9.8,1.5.3,1.4.3,2.3,0,1.7-.3,2.4c-.2.7-.4,1.3-.7,1.8-.3.5-.7.8-1.2,1.1-.5.2-1,.4-1.5.4s-1.1-.1-1.5-.3c-.4-.2-.8-.5-1.1-1-.3-.4-.5-.9-.5-1.4h1.2c.1.5.3.9.7,1.2.3.3.8.5,1.3.5.8,0,1.4-.3,1.9-1,.5-.7.7-1.7.7-2.9h0c-.2.3-.4.5-.7.7-.3.2-.5.4-.9.5-.3.1-.6.2-1,.2-.6,0-1.1-.1-1.6-.4-.5-.3-.9-.7-1.2-1.2s-.4-1.1-.4-1.8.1-1.2.4-1.7c.3-.5.7-.9,1.2-1.2.5-.3,1.1-.5,1.8-.4ZM963.9,339.2c-.4,0-.8.1-1.1.3-.3.2-.6.5-.8.8-.2.3-.3.7-.3,1.2s0,.8.3,1.2c.2.3.4.6.8.8s.7.3,1.1.3.6,0,.9-.2c.3-.1.5-.3.7-.5.2-.2.4-.5.5-.7s.2-.6.2-.9,0-.8-.3-1.1c-.2-.3-.5-.6-.8-.8s-.7-.3-1.1-.3Z"/>
        </g>
        <text class="st13" transform="translate(933.6 247)"><tspan x="0" y="0">2024</tspan></text>
        <g>
          <path class="st16" d="M32.3,157.6c-.7,0-1.3-.1-1.8-.4s-.9-.6-1.2-1c-.3-.4-.4-.9-.4-1.5,0-.4,0-.8.3-1.2s.4-.7.7-.9c.3-.2.6-.4,1-.5h0c-.5-.2-.9-.5-1.2-.9-.3-.4-.4-.9-.4-1.4,0-.5.1-1,.4-1.4.3-.4.6-.7,1.1-1,.5-.2,1-.4,1.6-.4s1.1.1,1.6.4c.5.2.8.6,1.1,1,.3.4.4.9.4,1.4,0,.5-.2,1-.4,1.4-.3.4-.7.7-1.2.8h0c.4.1.7.3,1,.5.3.2.5.6.7.9.2.4.3.8.3,1.2,0,.6-.2,1-.4,1.5-.3.4-.7.8-1.2,1s-1.1.4-1.8.4ZM32.3,156.5c.5,0,.9,0,1.2-.2.3-.1.6-.4.8-.6s.3-.6.3-1c0-.4-.1-.7-.3-1-.2-.3-.5-.5-.8-.7-.3-.2-.7-.3-1.2-.3s-.8,0-1.2.3c-.3.2-.6.4-.8.7s-.3.6-.3,1c0,.4,0,.7.3,1s.4.5.8.6.7.2,1.2.2ZM32.3,151.7c.4,0,.7,0,1-.2.3-.1.5-.4.7-.6.2-.3.2-.6.2-.9,0-.3,0-.6-.2-.9-.2-.3-.4-.5-.7-.6-.3-.1-.6-.2-1-.2s-.7,0-1,.2c-.3.1-.5.3-.7.6-.2.3-.2.6-.2.9,0,.4,0,.7.2.9.2.3.4.5.7.6.3.1.6.2,1,.2Z"/>
          <path class="st16" d="M38.2,157.6c-.2,0-.5,0-.6-.3-.2-.2-.3-.4-.3-.6s0-.5.3-.6c.2-.2.4-.3.6-.3s.5,0,.6.3c.2.2.3.4.3.6s0,.3-.1.4c0,.1-.2.2-.3.3-.1,0-.3.1-.5.1Z"/>
          <path class="st16" d="M43.6,147.3v10.2h-1.2v-8.9h0l-2.5,1.7v-1.3l2.6-1.7h1.2Z"/>
          <path class="st16" d="M49.8,157.6c-.8,0-1.4-.2-1.9-.6s-.9-1-1.2-1.8-.4-1.7-.4-2.8.1-2,.4-2.8c.3-.8.7-1.4,1.2-1.8.5-.4,1.2-.6,1.9-.6s1.4.2,1.9.6c.5.4.9,1,1.2,1.8.3.8.4,1.7.4,2.8s-.1,2.1-.4,2.8c-.3.8-.7,1.4-1.2,1.8s-1.2.6-1.9.6ZM49.8,156.5c.7,0,1.3-.4,1.7-1.1.4-.7.6-1.7.6-3.1s0-1.6-.3-2.3c-.2-.6-.5-1.1-.8-1.4-.4-.3-.8-.5-1.3-.5-.7,0-1.3.4-1.7,1.1-.4.7-.6,1.8-.6,3.1s0,1.6.3,2.3.5,1.1.8,1.4.8.5,1.3.5Z"/>
          <path class="st16" d="M58.6,157.6c-.8,0-1.4-.2-1.9-.6s-.9-1-1.2-1.8-.4-1.7-.4-2.8.1-2,.4-2.8c.3-.8.7-1.4,1.2-1.8.5-.4,1.2-.6,1.9-.6s1.4.2,1.9.6c.5.4.9,1,1.2,1.8.3.8.4,1.7.4,2.8s-.1,2.1-.4,2.8c-.3.8-.7,1.4-1.2,1.8s-1.2.6-1.9.6ZM58.6,156.5c.7,0,1.3-.4,1.7-1.1.4-.7.6-1.7.6-3.1s0-1.6-.3-2.3c-.2-.6-.5-1.1-.8-1.4-.4-.3-.8-.5-1.3-.5-.7,0-1.3.4-1.7,1.1-.4.7-.6,1.8-.6,3.1s0,1.6.3,2.3.5,1.1.8,1.4.8.5,1.3.5Z"/>
          <path class="st16" d="M64.6,157.6c-.2,0-.5,0-.6-.3-.2-.2-.3-.4-.3-.6s0-.5.3-.6c.2-.2.4-.3.6-.3s.5,0,.6.3c.2.2.3.4.3.6s0,.3-.1.4c0,.1-.2.2-.3.3-.1,0-.3.1-.5.1Z"/>
          <path class="st16" d="M70.5,157.6c-.8,0-1.4-.2-1.9-.6s-.9-1-1.2-1.8-.4-1.7-.4-2.8.1-2,.4-2.8c.3-.8.7-1.4,1.2-1.8.5-.4,1.2-.6,1.9-.6s1.4.2,1.9.6c.5.4.9,1,1.2,1.8.3.8.4,1.7.4,2.8s-.1,2.1-.4,2.8c-.3.8-.7,1.4-1.2,1.8s-1.2.6-1.9.6ZM70.5,156.5c.7,0,1.3-.4,1.7-1.1.4-.7.6-1.7.6-3.1s0-1.6-.3-2.3c-.2-.6-.5-1.1-.8-1.4-.4-.3-.8-.5-1.3-.5-.7,0-1.3.4-1.7,1.1-.4.7-.6,1.8-.6,3.1s0,1.6.3,2.3.5,1.1.8,1.4.8.5,1.3.5Z"/>
          <path class="st16" d="M79.3,157.6c-.8,0-1.4-.2-1.9-.6s-.9-1-1.2-1.8-.4-1.7-.4-2.8.1-2,.4-2.8c.3-.8.7-1.4,1.2-1.8.5-.4,1.2-.6,1.9-.6s1.4.2,1.9.6c.5.4.9,1,1.2,1.8.3.8.4,1.7.4,2.8s-.1,2.1-.4,2.8c-.3.8-.7,1.4-1.2,1.8s-1.2.6-1.9.6ZM79.3,156.5c.7,0,1.3-.4,1.7-1.1.4-.7.6-1.7.6-3.1s0-1.6-.3-2.3c-.2-.6-.5-1.1-.8-1.4-.4-.3-.8-.5-1.3-.5-.7,0-1.3.4-1.7,1.1-.4.7-.6,1.8-.6,3.1s0,1.6.3,2.3.5,1.1.8,1.4.8.5,1.3.5Z"/>
          <path class="st16" d="M88.1,157.6c-.8,0-1.4-.2-1.9-.6s-.9-1-1.2-1.8-.4-1.7-.4-2.8.1-2,.4-2.8c.3-.8.7-1.4,1.2-1.8.5-.4,1.2-.6,1.9-.6s1.4.2,1.9.6c.5.4.9,1,1.2,1.8.3.8.4,1.7.4,2.8s-.1,2.1-.4,2.8c-.3.8-.7,1.4-1.2,1.8s-1.2.6-1.9.6ZM88.1,156.5c.7,0,1.3-.4,1.7-1.1.4-.7.6-1.7.6-3.1s0-1.6-.3-2.3c-.2-.6-.5-1.1-.8-1.4-.4-.3-.8-.5-1.3-.5-.7,0-1.3.4-1.7,1.1-.4.7-.6,1.8-.6,3.1s0,1.6.3,2.3.5,1.1.8,1.4.8.5,1.3.5Z"/>
        </g>
        <text class="st15" transform="translate(0 412.6)"><tspan x="0" y="0">7.416.605</tspan></text>
        <g>
          <path class="st16" d="M29.3,333.2l4.6-9h0c0,0-5.3,0-5.3,0v-1.1h6.5v1.2l-4.5,9h-1.3Z"/>
          <path class="st16" d="M36.1,333.3c-.2,0-.5,0-.6-.3-.2-.2-.3-.4-.3-.6s0-.5.3-.6c.2-.2.4-.3.6-.3s.5,0,.6.3c.2.2.3.4.3.6s0,.3-.1.4c0,.1-.2.2-.3.3-.1,0-.3.1-.5.1Z"/>
          <path class="st16" d="M39.3,333.2l4.6-9h0c0,0-5.3,0-5.3,0v-1.1h6.5v1.2l-4.5,9h-1.3Z"/>
          <path class="st16" d="M50.1,333.3c-.8,0-1.4-.2-1.9-.6s-.9-1-1.2-1.8-.4-1.7-.4-2.8.1-2,.4-2.8c.3-.8.7-1.4,1.2-1.8.5-.4,1.2-.6,1.9-.6s1.4.2,1.9.6c.5.4.9,1,1.2,1.8.3.8.4,1.7.4,2.8s-.1,2.1-.4,2.8c-.3.8-.7,1.4-1.2,1.8s-1.2.6-1.9.6ZM50.1,332.3c.7,0,1.3-.4,1.7-1.1.4-.7.6-1.7.6-3.1s0-1.6-.3-2.3c-.2-.6-.5-1.1-.8-1.4-.4-.3-.8-.5-1.3-.5-.7,0-1.3.4-1.7,1.1-.4.7-.6,1.8-.6,3.1s0,1.6.3,2.3.5,1.1.8,1.4.8.5,1.3.5Z"/>
          <path class="st16" d="M58.8,333.3c-.8,0-1.4-.2-1.9-.6s-.9-1-1.2-1.8-.4-1.7-.4-2.8.1-2,.4-2.8c.3-.8.7-1.4,1.2-1.8.5-.4,1.2-.6,1.9-.6s1.4.2,1.9.6c.5.4.9,1,1.2,1.8.3.8.4,1.7.4,2.8s-.1,2.1-.4,2.8c-.3.8-.7,1.4-1.2,1.8s-1.2.6-1.9.6ZM58.8,332.3c.7,0,1.3-.4,1.7-1.1.4-.7.6-1.7.6-3.1s0-1.6-.3-2.3c-.2-.6-.5-1.1-.8-1.4-.4-.3-.8-.5-1.3-.5-.7,0-1.3.4-1.7,1.1-.4.7-.6,1.8-.6,3.1s0,1.6.3,2.3.5,1.1.8,1.4.8.5,1.3.5Z"/>
          <path class="st16" d="M64.8,333.3c-.2,0-.5,0-.6-.3-.2-.2-.3-.4-.3-.6s0-.5.3-.6c.2-.2.4-.3.6-.3s.5,0,.6.3c.2.2.3.4.3.6s0,.3-.1.4c0,.1-.2.2-.3.3-.1,0-.3.1-.5.1Z"/>
          <path class="st16" d="M70.8,333.3c-.8,0-1.4-.2-1.9-.6s-.9-1-1.2-1.8-.4-1.7-.4-2.8.1-2,.4-2.8c.3-.8.7-1.4,1.2-1.8.5-.4,1.2-.6,1.9-.6s1.4.2,1.9.6c.5.4.9,1,1.2,1.8.3.8.4,1.7.4,2.8s-.1,2.1-.4,2.8c-.3.8-.7,1.4-1.2,1.8s-1.2.6-1.9.6ZM70.8,332.3c.7,0,1.3-.4,1.7-1.1.4-.7.6-1.7.6-3.1s0-1.6-.3-2.3c-.2-.6-.5-1.1-.8-1.4-.4-.3-.8-.5-1.3-.5-.7,0-1.3.4-1.7,1.1-.4.7-.6,1.8-.6,3.1s0,1.6.3,2.3.5,1.1.8,1.4.8.5,1.3.5Z"/>
          <path class="st16" d="M79.5,333.3c-.8,0-1.4-.2-1.9-.6s-.9-1-1.2-1.8-.4-1.7-.4-2.8.1-2,.4-2.8c.3-.8.7-1.4,1.2-1.8.5-.4,1.2-.6,1.9-.6s1.4.2,1.9.6c.5.4.9,1,1.2,1.8.3.8.4,1.7.4,2.8s-.1,2.1-.4,2.8c-.3.8-.7,1.4-1.2,1.8s-1.2.6-1.9.6ZM79.5,332.3c.7,0,1.3-.4,1.7-1.1.4-.7.6-1.7.6-3.1s0-1.6-.3-2.3c-.2-.6-.5-1.1-.8-1.4-.4-.3-.8-.5-1.3-.5-.7,0-1.3.4-1.7,1.1-.4.7-.6,1.8-.6,3.1s0,1.6.3,2.3.5,1.1.8,1.4.8.5,1.3.5Z"/>
          <path class="st16" d="M88.3,333.3c-.8,0-1.4-.2-1.9-.6s-.9-1-1.2-1.8-.4-1.7-.4-2.8.1-2,.4-2.8c.3-.8.7-1.4,1.2-1.8.5-.4,1.2-.6,1.9-.6s1.4.2,1.9.6c.5.4.9,1,1.2,1.8.3.8.4,1.7.4,2.8s-.1,2.1-.4,2.8c-.3.8-.7,1.4-1.2,1.8s-1.2.6-1.9.6ZM88.3,332.3c.7,0,1.3-.4,1.7-1.1.4-.7.6-1.7.6-3.1s0-1.6-.3-2.3c-.2-.6-.5-1.1-.8-1.4-.4-.3-.8-.5-1.3-.5-.7,0-1.3.4-1.7,1.1-.4.7-.6,1.8-.6,3.1s0,1.6.3,2.3.5,1.1.8,1.4.8.5,1.3.5Z"/>
        </g>
        <polyline class="st2" points="639.8 127.7 621.3 148.2 606.6 167.2 589.6 191.1 574 215.4 556.9 239.3 540.9 270.5 525.3 300.7 508.2 302.7 493.1 304.6 476.5 308.5 460 311.4 443.9 335.3 426.8 357.7 410.8 374.3 394.2 389.9 380.1 402.1 362 410.8 345.9 421.6 330.8 432.8 314.3 437.6 298.7 444.5 280.6 441.1 266 440.1 248.5 430.8 233.4 422.1 216.8 413.8 200.2 407 184.2 407.4 167.6 412.8 150.5 421.6 134 429.9 118.4 439.6"/>
        <line class="st1" x1="97.8" y1="503" x2="669.3" y2="504.4"/>
        <line class="st1" x1="926.7" y1="503" x2="1403.7" y2="504.4"/>
        <line class="st4" x1="98.4" y1="152.7" x2="125.2" y2="152.7"/>
        <line class="st4" x1="98.4" y1="328.5" x2="125.2" y2="328.5"/>
        <circle class="st7" cx="639.1" cy="129.7" r="8.4"/>
        <circle class="st7" cx="121" cy="436.7" r="8.4"/>
        <text class="st14" transform="translate(27.7 49)"><tspan x="0" y="0">Població de Catalunya</tspan></text>
        <text class="st14" transform="translate(1028.9 49)"><tspan x="0" y="0">Piràmide d’edat i sexe</tspan></text>
        <text class="st22" transform="translate(517.6 19.5)"><tspan x="0" y="0">Ha superat</tspan><tspan x="0" y="27">el 8 milions</tspan></text>
        <text class="st22" transform="translate(1365.3 146.1)"><tspan x="0" y="0">té més</tspan><tspan x="0" y="27">de 65 anys</tspan></text>
        <g class="st18">
          <g>
            <rect class="st8" x="940.5" y="60.1" width="451.9" height="444.7"/>
            <g class="st21">
              <g id="YVSbfF">
                <image id="YVSbfF1" data-name="YVSbfF" width="750" height="363" transform="translate(555.5 3.4) scale(1.6)" xlink:href="Salut-GRAFICS-1 poblacio-1.png"/>
              </g>
            </g>
            <rect class="st11" x="1171.8" y="63.2" width="220.6" height="441.6"/>
            <rect class="st12" x="1171.8" y="63.2" width="217.1" height="441.6"/>
            <rect class="st10" x="948" y="62.5" width="223.8" height="442.4" transform="translate(2119.9 567.3) rotate(180)"/>
            <rect class="st9" x="948" y="62.6" width="223.8" height="442.2" transform="translate(2119.9 567.4) rotate(180)"/>
          </g>
        </g>
        <g class="st19">
          <g>
            <rect class="st8" x="940.5" y="60.1" width="451.9" height="444.7"/>
            <g class="st20">
              <g id="YVSbfF2" data-name="YVSbfF">
                <image id="YVSbfF3" data-name="YVSbfF" width="750" height="363" transform="translate(555.5 3.4) scale(1.6)" xlink:href="Salut-GRAFICS-1 poblacio-2.png"/>
              </g>
            </g>
            <rect class="st11" x="1171.8" y="63.2" width="220.6" height="441.6"/>
            <rect class="st12" x="1171.8" y="63.2" width="217.1" height="441.6"/>
            <rect class="st10" x="948" y="62.5" width="223.8" height="442.4" transform="translate(2119.9 567.3) rotate(180)"/>
            <rect class="st9" x="948" y="62.6" width="223.8" height="442.2" transform="translate(2119.9 567.4) rotate(180)"/>
          </g>
        </g>
        <g>
          <polyline class="st5" points="960.1 294.2 1394.3 294.2 1394.3 197.9"/>
          <polygon class="st23" points="1400.4 202.8 1399.3 203.9 1394.3 198.4 1389.2 203.9 1388.1 202.8 1394.3 196.2 1400.4 202.8"/>
        </g>
      </g>
    </g>
  </g>
</svg>