<?xml version="1.0" encoding="UTF-8"?>
<svg id="Capa_1" data-name="Capa 1" xmlns="http://www.w3.org/2000/svg" viewBox="0 0 564.36 253.16">
  <defs>
    <style>
      .cls-1 {
        fill: #5e9982;
      }

      .cls-2 {
        fill: #9a8b6f;
      }

      .cls-3 {
        fill: #e94e24;
      }

      .cls-4 {
        fill: #827e7d;
      }

      .cls-5 {
        fill: #e6eff0;
      }

      .cls-6 {
        fill: #ece9e2;
      }

      .cls-7 {
        fill: #e6eff1;
      }

      .cls-8 {
        fill: #ec6839;
      }

      .cls-9 {
        fill: #6b6664;
      }

      .cls-10 {
        fill: #e84e24;
      }

      .cls-11 {
        fill: #8cbdc1;
      }

      .cls-12 {
        fill: #eceae3;
      }

      .cls-13 {
        fill: #eceae3;
      }

      .cls-14 {
        fill: #d1c8b2;
      }

      .cls-15 {
        fill: #b7ac8e;
      }

      .cls-16 {
        fill: #b8ac8f;
      }

      .cls-17 {
        fill: #d0c8b1;
      }

      .cls-18 {
        fill: #6b6865;
      }
    </style>
  </defs>
  <ellipse class="cls-12" cx="282.18" cy="221.65" rx="282.18" ry="31.5"/>
  <g>
    <path class="cls-8" d="M98.33,30.17c-1.18-3.11-4.02-4.6-6.39-6.53-4.06-3.32-4.46-7.07-1.13-11.1.82-.99,1.75-1.82,1.91-3.28.39-3.54,1.89-4.69,5.52-4.2,1.14.15,1.57.1,1.99-1.13.99-2.95,4.39-4.22,7.64-2.48,3.32,1.78,5.6.04,8.12-1.45h1.95c.42.64,1.18.67,1.78,1,1.92,1.06,3.24,2.61,3.33,4.86.08,2.17-1.31,3.42-3.18,4.13-1.79.68-2.37,2.47-3.57,3.68-.99.78-2.06,1.35-3.38,1.2-2.36-.26-3.98.76-5.07,2.81-.6,1.13-1.47,2.07-2.85,2.07-1.96,0-2.08,1.14-1.73,2.6.13.57.47,1.2-.22,1.55-.82.41-1.11-.35-1.46-.87-.69-1.01-1.23-2.16-2.37-2.79-.57-.31-1.18-.64-1.82-.18-.6.44-.62,1.12-.51,1.77.07.44.2.91.44,1.28,1.02,1.62,1.26,3.54,2.01,5.26.44,1.01.15,1.63-.98,1.79Z"/>
    <path class="cls-7" d="M124.53,115.37c.41,6.52.56,13.06,1.28,19.54,1.28,11.4,1.7,22.82,1.96,34.28.16,6.99.31,13.99.82,20.95.45,6.08.56,12.15.72,18.23.07,2.9.32,5.82.82,8.68.47,2.68,1.11,3.36-3.2,3.76-2.09.14-4.17.55-6.28.4-.56-.04-1.17-.12-1.6.4-1.96-.22-3.89.05-5.77.56-1.22.33-1.7.24-2.08-1.26-2.02-8.07-1.76-16.32-2.27-24.5-.52-8.46-1.21-16.91-1.69-25.37-.29-5.17-.52-10.34-.7-15.51-.09-2.6-.35-5.21-.6-7.83-.55,1.25-.85,2.5-.86,3.83-.05,9.27-1.2,18.48-1.28,27.75-.06,6.98-1.17,13.91-1.55,20.89-.39,7.25-.79,14.49-.68,21.75.03,2.01-.39,2.27-2.4,2.1-1.81-.15-3.63-.07-5.45-.1-2.57-.52-5.17-.34-7.76-.39-.52,0-1.04-.04-1.56,0-1.55.14-2.07-.57-1.98-2.07.54-8.66.93-17.34,1.35-26,.29-6.03.05-12.18-.42-18.26-.19-2.52-.04-5.07-.17-7.6-.64-12.97,1.21-25.89.93-38.86-.09-4.05.68-8.11,1.06-12.17,4.95,1.26,9.9,2.46,15.05,2.67,6.84.28,13.11-1.97,19.4-4.15,1.64-.57,3.16-1.5,4.92-1.73Z"/>
    <path class="cls-11" d="M124.53,115.37c-1.77.23-3.28,1.16-4.92,1.73-6.29,2.18-12.56,4.43-19.4,4.15-5.15-.21-10.1-1.4-15.05-2.67-.81-3.2-.76-6.51-1.2-9.76-.75-5.6-.26-11.2.25-16.8,1.44-1.55,3.54-2.17,5.09-3.56,4.2-3.77,8.33-7.63,12.56-11.36,3.69-3.25,6.58-7.36,10.81-10.05,1.43-.91,1.9-2.47,1.73-4.11-.28-2.71-.1-5.18,2.58-6.75.3-.17.5-.6.62-.96.4-1.13-.33-2.13-1.51-2.11-3.14.04-7.21,3.25-7.86,6.34-.49,2.33-1.58,4.12-3.52,5.6-4.21,3.2-8.87,5.64-13.4,8.29-4.58,2.68-9.46,4.95-12.92,9.21-2.79,3.44-2.84,5.47-.23,9.07-3.43-.26-5.55-2.05-6.28-5.43,0-1.94-.02-3.89-.03-5.83.67-4.64,2.19-9.04,3.56-13.5.83-2.7.99-5.6,1.44-8.41.19-1.18.64-2.24,1.31-3.21,1.26-1.82,2.27-3.76,3.18-5.78,1.38-3.05,3.42-5.36,7.01-6.1,3.29-.68,6.54-1.61,9.7-2.8,1.19.23,1.82,1.22,2.56,2,1.3,1.37,2.68,2.62,4.26,3.67,1.37.92,2.3.69,3.36-.47,1.13-1.23,1.7-2.72,2.38-4.18,2.98.71,5.76,2.11,8.43,3.42,2.94,1.44,4.31,4.73,5.16,7.94,2.12,7.96,3.54,16.09,6.24,23.9-.65.26-1.3.53-1.96.79-3.7,1.48-6.08,7.27-4.4,10.7-1.27,2.07-.61,4.31-.44,6.45.49,6.07,1.84,12.05,1.79,18.18,0,.98-.17,1.78-.94,2.4Z"/>
    <path class="cls-14" d="M78.18,91.63c-2.61-3.6-2.56-5.63.23-9.07,3.46-4.26,8.34-6.53,12.92-9.21,4.53-2.65,9.19-5.09,13.4-8.29,1.94-1.48,3.03-3.27,3.52-5.6.65-3.09,4.72-6.3,7.86-6.34,1.18-.02,1.92.98,1.51,2.11-.13.35-.33.78-.62.96-2.68,1.58-2.86,4.04-2.58,6.75.17,1.64-.31,3.2-1.73,4.11-4.23,2.69-7.12,6.8-10.81,10.05-4.24,3.73-8.36,7.59-12.56,11.36-1.55,1.39-3.65,2.01-5.09,3.56-2.06.56-4.08.6-6.04-.4Z"/>
    <path class="cls-14" d="M110.63,41.59c-.68,1.45-1.26,2.95-2.38,4.18-1.06,1.16-1.99,1.38-3.36.47-1.58-1.06-2.96-2.3-4.26-3.67-.74-.79-1.36-1.77-2.56-2,.55-3.45.31-6.92.26-10.39,1.13-.16,1.42-.78.98-1.79-.75-1.72-.99-3.63-2.01-5.26-.23-.37-.37-.84-.44-1.28-.11-.65-.09-1.33.51-1.77.64-.47,1.25-.14,1.82.18,1.13.63,1.67,1.78,2.37,2.79.36.52.65,1.28,1.46.87.69-.35.35-.98.22-1.55-.34-1.46-.23-2.59,1.73-2.6,1.38,0,2.25-.94,2.85-2.07,1.09-2.05,2.71-3.08,5.07-2.81,1.32.15,2.39-.42,3.38-1.2.86,4.62,1.33,9.24.1,13.88-.48,1.82-.99,3.61-2.07,5.22-.93,1.39-2.06,2.34-3.79,2.32-1.05,0-1.16.47-.96,1.36.4,1.7.72,3.42,1.07,5.14Z"/>
    <path class="cls-14" d="M119.48,78.9c1.81-3.37,7.9-4.8,11.26-2.66.59.38,1.19.75,1.79,1.13,3,2.76,5.9,5.64,9.09,8.2,1.06.85,2.21,1.65,3.07,2.68,5.5,6.58-7.14-2.36,8.07,3.48.54.21,1.12.34,1.68.5.79.22,1.5.61,1.67,1.46.19.99-.61,1.4-1.33,1.66-1.11.39-.59.84-.19,1.38.93,1.25,1.84,2.52,2.76,3.78.88,1.2.97,2.44-.06,3.55-1.03,1.12-2.2,1.01-3.54.36-3.91-1.92-6.91-5.04-10.2-7.76-2.58-2.13-5.17-4.13-8.34-5.26-4.51-1.61-8.56-4.09-12.51-6.71-1.95-1.29-2.9-3.45-3.23-5.8Z"/>
    <path class="cls-18" d="M92.97,229.79c1.23,2.11,1.79,4.43,2.15,6.82.17,1.14-.25,1.64-1.41,1.82-4.88.75-9.8,1.08-14.7,1.53-.5.05-1.09.17-1.33-.48-.21-.57.13-.99.49-1.38,2.61-2.8,5.33-5.48,8.16-8.05,2.23.39,4.41-.78,6.64-.26Z"/>
    <path class="cls-14" d="M126.96,229.56c-2.02.84-4.07-.34-6.24,0-.51-2.66-1.43-5.22-1.68-7.93.43-.53,1.04-.44,1.6-.4,2.11.14,4.19-.27,6.28-.4.01,2.28.02,6.46.03,8.74Z"/>
    <path class="cls-14" d="M92.97,229.79c-2.24-.52-4.41.65-6.64.26-.09-2.17.18-4.36-.37-6.51,2.59.04,5.19-.13,7.76.39-.25,1.95-.5,3.91-.75,5.86Z"/>
    <path class="cls-18" d="M127.09,228.11c3.37,2.53,6.74,5.05,10.09,7.61.44.34.92.82.75,1.48-.22.81-.98.82-1.6.81-2.21-.02-4.41-.08-6.61-.19-3.95-.19-7.91-.36-11.87-.15-.98.05-1.96-.32-1.09-1.42,1.26-1.6,1.71-3.48,2.33-5.3.3-.89.67-1.51,1.58-1.77,2.2-.05,4.32-.51,6.43-1.08Z"/>
  </g>
  <g id="patient">
    <path class="cls-4" d="M282.36,237.49h-20.97c-1.77,0-3.2-1.43-3.2-3.2v-54.73h-64.3c-1.62,0-2.98-1.21-3.17-2.81l-8.87-72.64-15.73-3.19h-11.12c-1.77,0-3.2-1.43-3.2-3.2s1.43-3.2,3.2-3.2h11.44c.21,0,.43.02.64.06l18.3,3.72c1.35.27,2.37,1.38,2.54,2.75l8.81,72.12h64.66c1.77,0,3.2,1.43,3.2,3.2v54.73h17.78c1.77,0,3.2,1.43,3.2,3.2s-1.43,3.2-3.2,3.2Z"/>
    <path class="cls-16" d="M252.44,117.11c.02-.17.09-2.7.77-4.11.46-.96,2.16-2.21,3.5-3.3,1.07-.88,1.84-1.75,2.05-1.64.52.26.86,1.6-.69,2.91-.95.8-1.12,2.58-.41,2.14.86-.55,2.57-1.62,4.19-2.49,1.76-.94,4.64-5.85,5.62-4.49.57.8-3.29,5.73-3.22,6.48.05.48,4.92-4.49,5.29-4.08.91,1.02-.38,6.41-1.29,7.22-.37.33-1.52,2.64-3.86,4.05-2.62,1.58-6.56,2.23-9.13,1.85-1.02-.15-3.39,1.35-2.81-4.55Z"/>
    <path class="cls-3" d="M219.73,95.79c6.74,6.64,14.54,38.81,17,40.65,3.64,2.72,22.71,4.68,22.71,4.68l1.02,12.38s-28.86,3.91-35.73,1.36c-6.86-2.55-9.8-63.8-5-59.07Z"/>
    <g>
      <path class="cls-16" d="M283.54,230.84c-.33.29-7.94.4-15.3.28-.86-.01-3.3-1.41-4.15-1.43-.83-.02-.07,1.34-.86,1.31-4.94-.16-8.84-.44-8.84-.85.01-4.72,1.88-9.39,2.74-10.71,1.79.45,6.44,0,6.63-.53,3,2.79,7.44,6.16,8.53,6.73,2.6,1.35,10.7,2.09,11.25,5.2Z"/>
      <path class="cls-2" d="M226.07,155.72c22.04-6.53,39.47-7.58,47.67,0,5.48,5.07-8.53,64.02-8.53,64.02h-8.55s-1.67-43.95-4.52-45.09c-2.85-1.14-64.34,7.15-65.49,1.72-1.14-5.43,9.44-21.16,9.44-21.16l29.98.51Z"/>
    </g>
    <path class="cls-3" d="M197.9,91.46c-11.34,3.01-23.09,22.36-20.71,41.79,2.04,16.71,6.41,43.12,10.41,43.12s39.49-16.38,47.76-18.46c1.18-.3-12.09-13.62-13.06-20.81-1.24-9.15,4.77-33.5-3.62-42.63-5.92-6.44-16.6-4.11-20.78-3.01Z"/>
    <path class="cls-3" d="M189.03,105.89c-12.02,13.57,25.43,36.78,34.53,35.02,11.23-2.18,31.06-17.01,32.13-18.54.62-.87-2.99-7.7-4.01-7.25-3.14,1.39-23.39,5.16-27.58,6.77-4.19,1.61-26.29-25.91-35.07-16Z"/>
    <g>
      <path class="cls-13" d="M217.06,57.9c2.17,1.98-1.58,9.34-3.09,10.45-3.39,2.51-10,12.6-12.81,12.08-2.82-.52-6.75-9.78-6.35-15.71.51-7.53,18.01-10.7,22.25-6.82Z"/>
      <path class="cls-16" d="M199.63,69.7c-1.08,9.74-3.7,23.85-4.43,25.59-.73,1.75,6.37,5.63,11.49,5.67,7.06.05,9.44-2.22,9.44-3.82s-1.79-13.84-1.79-13.84l-4.32-12.32-10.4-1.28Z"/>
      <path class="cls-16" d="M209.42,58.85c4.7-.97,8.99.52,9.79,8.86.23,2.42,4.65,6.09,4.34,7.64-.24,1.22-3.32-.5-3.32-.13.03,3.14-.96,4.6-2.05,7.55-1.72,4.64-16.25-22.38-8.76-23.92Z"/>
      <path class="cls-13" d="M215.39,75.46c1.66-.68,4.44-.69,5.5.03,1.06.72,1.46,9.41-.15,11.07-1.62,1.66-5.61.28-7.77-1.23-4.93-3.45-6.72-16.25-5.91-16.24,1.36.02,1.95,1.03,2.34,1.86,3.64,7.52,4.8,5,5.98,4.51Z"/>
      <path class="cls-13" d="M194.89,64.11c-.78,5.56,2.61,14.15,3.4,15.33.79,1.18,6.19.59,7.23-1.22,1.65-2.86-.69-14.11-.69-14.11h-9.94Z"/>
      <path class="cls-16" d="M207.06,69.09c-1.98-.94-5.19-1.47-3.64,2.64,1.55,4.1,4.06,3.58,4.5,3.05.44-.54-.44-5.49-.86-5.68Z"/>
    </g>
    <g>
      <path class="cls-16" d="M277.06,230.84c-.33.29-7.94.4-15.3.28-.86-.01-3.3-1.41-4.15-1.43-.83-.02-.07,1.34-.86,1.31-4.94-.16-8.84-.44-8.84-.85.01-4.72,1.88-9.39,2.74-10.71,1.79.45,6.44,0,6.63-.53,3,2.79,7.44,6.16,8.53,6.73,2.6,1.35,10.7,2.09,11.25,5.2Z"/>
      <path class="cls-2" d="M212.44,156.67c25.07-7.12,48.66-6.82,55.58-.94,7.6,6.46-7.91,58.9-9.3,64.02h-8.55c-.58-7.55-.42-43.93-3.16-45.03-2.85-1.14-61.23,6.8-62.37,1.37-1.14-5.43,4.96-20.88,4.96-20.88l22.83,1.46Z"/>
    </g>
    <g>
      <path class="cls-2" d="M183.03,176.59l14.88.95,55.15-1.66s4.08-11.49,1.4-14.03c-2.68-2.54-73.99,0-73.99,0l2.57,14.73Z"/>
      <g>
        <path class="cls-18" d="M282.36,237.49h-32.41c-1.77,0-3.2-1.43-3.2-3.2v-54.73h-64.3c-1.62,0-2.98-1.21-3.17-2.81l-8.87-72.64-16.05-3.26c-1.73-.35-2.85-2.04-2.5-3.77.35-1.73,2.04-2.85,3.77-2.5l18.3,3.72c1.35.27,2.37,1.38,2.54,2.75l8.81,72.12h64.66c1.77,0,3.2,1.43,3.2,3.2v54.73h29.22c1.77,0,3.2,1.43,3.2,3.2s-1.43,3.2-3.2,3.2Z"/>
        <path class="cls-18" d="M253.15,176.37h-6.39v-27.45c0-2.02-1.64-3.67-3.67-3.67h-64.63v-6.39h64.63c5.55,0,10.06,4.51,10.06,10.06v27.45Z"/>
      </g>
      <g>
        <circle class="cls-18" cx="250.19" cy="230.85" r="13.48" transform="translate(-69.3 113.32) rotate(-22.5)"/>
        <path class="cls-4" d="M250.19,240.63c-5.4,0-9.78-4.39-9.78-9.78s4.39-9.78,9.78-9.78,9.78,4.39,9.78,9.78-4.39,9.78-9.78,9.78ZM250.19,225.13c-3.15,0-5.72,2.56-5.72,5.72s2.56,5.72,5.72,5.72,5.72-2.56,5.72-5.72-2.56-5.72-5.72-5.72Z"/>
      </g>
      <g>
        <g>
          <rect class="cls-18" x="196.74" y="156.9" width="2.33" height="85.01"/>
          <rect class="cls-18" x="196.74" y="156.9" width="2.33" height="85.01" transform="translate(-56.27 79.71) rotate(-20)"/>
          <rect class="cls-18" x="196.74" y="156.9" width="2.33" height="85.01" transform="translate(-81.88 173.86) rotate(-40)"/>
          <rect class="cls-18" x="196.74" y="156.9" width="2.32" height="85.01" transform="translate(-73.74 271.09) rotate(-60)"/>
          <rect class="cls-18" x="196.74" y="156.9" width="2.33" height="85.01" transform="translate(-32.84 359.68) rotate(-80)"/>
          <rect class="cls-18" x="155.4" y="198.25" width="85.01" height="2.33" transform="translate(-31.63 37.41) rotate(-10)"/>
          <rect class="cls-18" x="155.4" y="198.25" width="85.01" height="2.32" transform="translate(-73.19 125.67) rotate(-30)"/>
          <rect class="cls-18" x="155.4" y="198.25" width="85.01" height="2.33" transform="translate(-82.06 222.86) rotate(-50.01)"/>
          <rect class="cls-18" x="155.4" y="198.25" width="85.01" height="2.33" transform="translate(-57.18 317.15) rotate(-69.99)"/>
        </g>
        <path class="cls-18" d="M197.9,159.96c21.75,0,39.45,17.7,39.45,39.45s-17.7,39.45-39.45,39.45-39.45-17.7-39.45-39.45,17.7-39.45,39.45-39.45h0ZM197.9,153.41c-25.4,0-46,20.59-46,46s20.59,46,46,46,46-20.59,46-46-20.59-46-46-46h0Z"/>
        <path class="cls-18" d="M197.9,160.73c21.33,0,38.68,17.35,38.68,38.68s-17.35,38.68-38.68,38.68-38.68-17.35-38.68-38.68,17.35-38.68,38.68-38.68h0ZM197.9,158.4c-22.65,0-41.01,18.36-41.01,41.01s18.36,41.01,41.01,41.01,41.01-18.36,41.01-41.01-18.36-41.01-41.01-41.01h0Z"/>
        <circle class="cls-18" cx="197.9" cy="199.41" r="8.26" transform="translate(-55.27 321.21) rotate(-70.91)"/>
        <path class="cls-18" d="M197.9,204.66c-2.9,0-5.25-2.36-5.25-5.25s2.36-5.25,5.25-5.25,5.25,2.36,5.25,5.25-2.36,5.25-5.25,5.25ZM197.9,197.06c-1.29,0-2.34,1.05-2.34,2.34s1.05,2.34,2.34,2.34,2.34-1.05,2.34-2.34-1.05-2.34-2.34-2.34Z"/>
      </g>
    </g>
    <path class="cls-16" d="M267.57,140.59c1.47.52,1.73,9.66.57,11.26-.44.61-5.56.84-7.36.4-.49-.12-.64-.34-1.46-.55-2.31-.57-2.33-5.93-2.47-6.96-.18-1.27.61-6.27,3.13-6.2.27,0,2.37.81,4.41,1.5,1.42.48,2.72.38,3.19.55Z"/>
  </g>
  <g>
    <path class="cls-17" d="M309.95,116.66c-.86,8.22-2.01,16.43-2.21,24.69-.23,9.28-1.55,18.49-1.6,27.75-.03,5.39-.26,10.78-.58,16.14-.4,6.64-.35,13.26-.44,19.9-.02,1.87.56,2.64,2.37,2.6.43,0,.87.1,1.31.15,2.66.14,5.32.27,7.99.41.75.09,1.12-.18,1.25-.99,1.74-11.64,3.7-23.24,5.2-34.91.97-7.57,1.65-15.19,2.58-22.77.12-.99.29-1.98.51-3.39.69,4.33.57,8.28.78,12.2.55,10.32.86,20.65,1.39,30.98.33,6.38.93,12.74,1.35,19.12.09,1.32.57,1.86,1.89,1.52,1.12-.29,2.25-.09,3.37-.09,2.7.41,5.4.39,8.1.06,1.25.18,1.45-.59,1.5-1.59.3-6.57.77-13.14.88-19.72.19-10.97.64-21.93.96-32.89.11-3.63-.05-7.26.25-10.9.66-7.94.81-15.9.11-23.85-1.46.43-2.95.38-4.44.37-1.55,0-3.09-.09-4.65.28-6.89,1.62-13.55.49-20.11-1.84-2.64-.94-4.85-2.88-7.74-3.21Z"/>
    <path class="cls-10" d="M308.8,114.83c.55-5.29.31-10.63,1.16-15.92.48-3.01,1.39-5.98,1.05-9.11-.12-1.15-.39-1.31-1.48-1.02-1.95.53-3.74,1.44-5.63,2.11-3.16,1.11-7.79-1.42-8.72-4.73.12.04.25.06.34.13,3.7,2.91,6.03,2.17,7.6-2.3,1.11-3.15.35-6.24-.06-9.35-.06-.43-.1-.85-.16-1.28,2.36-3.63,4.5-7.46,5.51-11.62,2.02-8.31,7.94-12.06,15.4-14.34.26.17.53.32.77.51,3.97,3.16,6.64,3.07,10.55-.37,5.11,1.98,9.74,4.78,14.03,8.18,2.16,1.71,3.22,3.9,3.43,6.6.37,4.77,2.36,9.15,3.44,13.76.42,1.81.78,3.58.49,5.36-.27,1.63,0,3.06.53,4.57.66,1.89,1.09,3.79.1,5.81-1.75,3.6-4.52,5.19-8.48,4.84-.49-.04-1.3-.49-1.41.35-.23,1.72-.92,3.38-.55,5.18,1.29,6.27.82,12.56.17,18.85-1.46.43-2.95.38-4.44.37-1.55,0-3.09-.09-4.65.28-6.89,1.62-13.55.49-20.11-1.84-2.64-.94-4.85-2.88-7.74-3.21-.47-.56-1.25-.93-1.15-1.83ZM313.74,75.29c-.25,3.58,1.74,5.92,4.46,7.84.82,5.12,2.28,10.09,3.29,15.16.21,1.05.8,1.41,1.73,1.13,4.57-1.38,9.32-1.61,14.01-2.27,1.29-.18,2.69-.48,3.9-.17,2.02.52,2.43-.31,2.34-1.99,2.03.4,4.07.61,6.14.54,2.82-.1,4.54-1.11,5.18-3.12.72-2.25-.07-4.32-2.28-6.03-2.48-1.91-5.47-2.68-8.34-3.72-.99-.36-1.98-.71-2.98-1.07-.83-5.75-1.7-11.49-2.45-17.25-.21-1.58-.88-2.24-2.43-2.08-3.25.33-6.35,1.33-9.53,2.02-3.54.77-7.06,1.65-10.61,2.39-1.37.28-1.79.92-1.43,2.24.34,1.27.59,2.56.87,3.84-1.61.12-1.78,1.36-1.86,2.55Z"/>
    <path class="cls-15" d="M295.17,86.17c.12.04.25.06.34.13,3.7,2.91,6.03,2.17,7.6-2.3,1.11-3.15.35-6.24-.06-9.35-.06-.43-.1-.85-.16-1.28-1.33-7.02-3.24-13.9-5.11-20.78-.57-2.08.1-3.96.46-5.91.28-1.54.62-3.07.82-4.61.08-.65.07-1.47-.74-1.76-.69-.25-1.17.26-1.62.71-1.8,1.79-1.77,1.76-3.1-.49-.7-1.18-1.49-2.33-2.37-3.38-1.32-1.58-2.74-1.43-3.76.33-1.66,2.86-2.16,5.65.17,8.5,1.18,1.44,2.15,3.09,3.02,4.75,1.07,2.06.76,4.41.89,6.62.37,6.18.51,12.38.66,18.58.08,3.51.67,6.85,2.7,9.81.1.15.21.3.31.44l-.04-.02Z"/>
    <path class="cls-15" d="M323.81,47.41c.26.17.53.32.77.51,3.97,3.16,6.64,3.07,10.55-.37-.28-1.72-.61-3.44-.83-5.17-.34-2.7-.19-5.35,1.27-7.77-.92-.64-.1-1.05.22-1.49,1.95-2.71,1.63-5.95-1.07-7.84-2.43-1.7-5.28-2.49-8.22-2.99-1.94-.33-2.88,1.12-4.24,1.86-1.44,3.78-1.51,7.67-.72,11.57.31,1.54,1.16,2.93,2.38,3.95,1.05.87,1.31,1.81,1.07,3.12-.29,1.57.05,3.28-1.18,4.61Z"/>
    <path class="cls-6" d="M322.27,24.16c1.35-.74,2.3-2.19,4.24-1.86,2.94.5,5.79,1.29,8.22,2.99,2.71,1.89,3.02,5.13,1.07,7.84-.32.44-1.14.85-.22,1.49,3.07-1.68,4.52-4.82,6.54-7.43.89-1.14.69-2.77.33-4.12-.41-1.53-.25-2.77.5-4.17.72-1.34-.51-2.05-1.51-2.47-1.65-.69-3.09-1.45-3.42-3.43-.15-.92-1.13-.9-1.73-1.29-2.67-1.75-6.71-1.3-8.79,1.05-.77.87-1.17.61-1.73-.1-.85-1.1-1.46-1.04-2.22.23-.62,1.04-1.08,2.24-2.2,2.98-.73.49-.56,1.33-.3,2.07.7,2.02,1.16,4.08,1.21,6.23Z"/>
    <path class="cls-9" d="M336.73,220.83c-.87,2.94-1.71,5.9-2.61,8.83-.32,1.06.12,1.39,1.08,1.39,5.52.02,11.04.05,16.56.06.43,0,.91.04,1.16-.44.21-.41.01-.77-.31-.97-3.85-2.4-6.41-6.12-9.52-9.28-2.13,0-4.25.08-6.35.41Z"/>
    <path class="cls-9" d="M308.76,219.83c-1.99.76-2.76,2.67-3.84,4.22-1.11,1.6-2.38,3.06-3.54,4.6-1.01,1.33-.74,2.14.93,2.2,4.38.15,8.76.11,13.14.12.91,0,1.24-.68,1.17-1.4-.28-3.04-.59-6.07-1.81-8.92-2.01-.28-4.03-.55-6.04-.83Z"/>
    <path class="cls-15" d="M308.76,219.83c2.01.28,4.03.55,6.04.83,1.02-4.06,1.42-8.22,1.98-12.36-2.66-.14-5.32-.27-7.99-.41.05,3.98.21,7.96-.03,11.93Z"/>
    <path class="cls-15" d="M336.73,220.83c2.1-.33,4.23-.41,6.35-.41.03-3.47.07-6.93.1-10.4-2.7.33-5.4.35-8.1-.06.55,3.62,1.1,7.24,1.65,10.87Z"/>
    <path class="cls-1" d="M295.22,86.18c-.1-.15-.21-.29-.31-.44,0,.23.04.41.31.44Z"/>
    <path class="cls-15" d="M343.45,94.99c2.03.4,4.07.61,6.14.54,2.82-.1,4.54-1.11,5.18-3.12.72-2.25-.07-4.32-2.28-6.03-2.48-1.91-5.47-2.68-8.34-3.72-.99-.36-1.98-.71-2.98-1.07-4.02-.89-7.94-2.18-11.88-3.36-.84-.25-1.37-.63-1.89-1.31-1.67-2.18-3.42-4.29-5.19-6.39-.39-.46-.95-.9-1.64-.51-.6.34-.55.97-.46,1.51.15.96.42,1.9.68,3.06-1.88-.6-3.68-.78-5.2-1.84-1.61.12-1.78,1.36-1.86,2.55-.25,3.58,1.74,5.92,4.46,7.84,1.25.07,2.49.16,3.74.21,1.52.06,2.98.32,4.23,1.26,1.9,1.43,4.04,2.48,6.06,3.7,3.73,2.25,7.64,4.2,11.23,6.69Z"/>
    <path class="cls-5" d="M315.6,72.75c1.52,1.05,3.32,1.23,5.2,1.84-.27-1.16-.53-2.1-.68-3.06-.09-.54-.13-1.18.46-1.51.69-.39,1.25.05,1.64.51,1.77,2.1,3.52,4.22,5.19,6.39.52.68,1.05,1.06,1.89,1.31,3.94,1.19,7.85,2.47,11.88,3.36-.83-5.75-1.7-11.49-2.45-17.25-.21-1.58-.88-2.24-2.43-2.08-3.25.33-6.35,1.33-9.53,2.02-3.54.77-7.06,1.65-10.61,2.39-1.37.28-1.79.92-1.43,2.24.34,1.27.59,2.56.87,3.84Z"/>
    <path class="cls-5" d="M343.45,94.99c-3.59-2.49-7.5-4.44-11.23-6.69-2.03-1.22-4.16-2.27-6.06-3.7-1.25-.94-2.71-1.2-4.23-1.26-1.25-.05-2.49-.14-3.74-.21.82,5.11,2.28,10.09,3.29,15.16.21,1.05.8,1.41,1.73,1.13,4.57-1.38,9.32-1.61,14.01-2.27,1.29-.18,2.69-.48,3.9-.17,2.02.52,2.43-.31,2.34-1.99Z"/>
  </g>
</svg>