<?xml version="1.0" encoding="UTF-8"?>
<svg id="Capa_1" xmlns="http://www.w3.org/2000/svg" version="1.1" viewBox="0 0 1740.4 827.1">
  <!-- Generator: Adobe Illustrator 30.1.0, SVG Export Plug-In . SVG Version: 2.1.1 Build 136)  -->
  <defs>
    <style>
      .st0, .st1, .st2 {
        font-family: Inter-ExtraBold, Inter;
        font-weight: 700;
      }

      .st0, .st1, .st3 {
        fill: #333;
      }

      .st1, .st4, .st2 {
        font-size: 51.3px;
      }

      .st5 {
        fill: none;
      }

      .st5, .st6, .st7 {
        stroke-miterlimit: 10;
      }

      .st5, .st7 {
        stroke: #fff;
        stroke-width: 12px;
      }

      .st8, .st7 {
        fill: #b8d9da;
      }

      .st9 {
        fill: #cad8db;
      }

      .st10 {
        font-size: 31.3px;
      }

      .st6 {
        stroke: #000;
      }

      .st6, .st11, .st12, .st2 {
        fill: #fff;
      }

      .st13 {
        fill: #7aabbe;
      }

      .st12, .st3 {
        font-family: Inter-Medium, Inter;
        font-size: 22.5px;
        font-weight: 500;
      }
    </style>
  </defs>
  <rect class="st6" x=".5" y=".5" width="1739.4" height="826.1"/>
  <g>
    <circle class="st8" cx="1055.1" cy="194.9" r="110.8"/>
    <text class="st1" transform="translate(984.9 152.4)"><tspan x="0" y="0">42%</tspan></text>
    <text class="st3" transform="translate(984.9 181.7)"><tspan x="0" y="0">dels catalans </tspan><tspan x="0" y="27">tenen una o </tspan><tspan x="0" y="54.1">més malalties </tspan><tspan x="0" y="81.1">cròniques</tspan></text>
  </g>
  <g>
    <circle class="st9" cx="589" cy="418.2" r="110.8"/>
    <text class="st1" transform="translate(518.7 386.2)"><tspan x="0" y="0">14,6%</tspan></text>
    <text class="st3" transform="translate(518.7 415.5)"><tspan x="0" y="0">dels adults </tspan><tspan x="0" y="27">consumeix </tspan><tspan x="0" y="54.1">begudes </tspan><tspan x="0" y="81.1">ensucrades</tspan></text>
  </g>
  <g>
    <circle class="st8" cx="875" cy="414.3" r="164"/>
    <text class="st1" transform="translate(836.6 328.6)"><tspan x="0" y="0">52%</tspan></text>
    <text class="st3" transform="translate(836.6 357.9)"><tspan x="0" y="0">dels adults i el</tspan></text>
    <text class="st1" transform="translate(836.6 413.4)"><tspan x="0" y="0">32%</tspan></text>
    <text class="st3" transform="translate(836.6 442.6)"><tspan x="0" y="0">dels menors</tspan><tspan x="0" y="27">de 6 a 12 anys </tspan><tspan x="0" y="54.1">tenen sobrepes </tspan><tspan x="0" y="81.1">o obesitat</tspan></text>
    <g>
      <path class="st11" d="M728.6,377.2v71.5c.8,7.3,6.2,12.8,13.5,13.5h71.3c7.3-.5,13.3-6.2,13.8-13.5v-72.4c-1.4-8-7.1-12.4-15.1-12.9-4.7-.3-11.9.8-16.2,0-.8-.1-3-1.9-4.1-2.4-8.9-4.3-19-4.1-27.9,0-1,.5-3.4,2.2-4.1,2.4-4.1.8-11.3-.3-15.9,0-8.5.5-14.3,5.2-15.4,13.8ZM775,432.1v24.2h-32.8c-3.4,0-7.7-4.4-7.6-7.9v-70.6c0-4.1,4.2-8.5,8.2-8.5h10.4c-2.2,3.1-4.4,6.3-5.9,9.8-.9,2.2-1.6,3.5-.2,5.7,1.6,2.3,6.8,9.2,8.7,10.9.7.6,1.5,1,2.4,1,12.3-.1,39.2,0,39.2,0,0,0,1.4-.1,2-.5,2.8-3.5,6.5-7.2,9-10.9.4-.6,1.2-1.5,1.3-2.2.2-1.6-2.5-7-3.5-8.6-.4-.7-3.6-4.9-3.4-5.2h10.1c3.2,0,8.2,4,8.2,7.3v36.9s0,18.7,0,18.7h0v16.9c0,2.9-4.5,7.3-7.3,7.3h-33.1v-24.2s-5.9,0-5.9,0Z"/>
      <path class="st8" d="M782.5,390.7c-.6-5.4-8.3-5.2-9,0h9Z"/>
      <line class="st8" x1="773.4" y1="390.7" x2="782.5" y2="390.7"/>
      <path class="st8" d="M781.8,381.6c2.3-1.9,5.5-9.6,9.2-6.7s-3.2,7.7-4.4,10.4l2.4,5.3h7.8s6.4-8,6.4-8c.5-1.1-1.1-3.9-1.8-5.1-11.6-20.6-40.8-17.4-48.8,4.3l6.8,8.7h7.7c.9-6.7,8-11.6,14.7-9Z"/>
    </g>
  </g>
  <g>
    <circle class="st9" cx="1362.9" cy="222.4" r="164"/>
    <text class="st1" transform="translate(1290.9 166.1)"><tspan x="0" y="0">1</tspan></text>
    <text class="st3" transform="translate(1320.7 164.9)"><tspan x="0" y="0">de cada 2 joves</tspan></text>
    <text class="st0" transform="translate(1291.9 215.8)"><tspan class="st4" x="0" y="0">14-18</tspan><tspan class="st10" x="145.3" y="0" xml:space="preserve"> anys</tspan></text>
    <g>
      <path class="st11" d="M1269,170.3c0,7.4-.8,12.9-1.1,15-.3,2.1-1.8,12.3-2.1,15.2-.3,2.9-.7,9.1-.7,13.9v18.3l-9.5,5.7v-24c0-4.6,1.2-10.5,2-13.1.6-1.9,3.1-7.9,4.6-11.4h0c.7-1.7,1.2-3,1.5-3.6v-.3c1.1-2.5,3.4-8.2,3.4-15.8v-16.8h2v16.8ZM1285.8,200.5c-.6-2.1-3.1-7.9-4.7-11.7-.7-1.6-1.2-2.9-1.5-3.5v-.3c-1-2.3-3.2-7.7-3.2-14.6v-18.3c.4,0,.8-.4.8-.8v-1.7c0-.5-.4-.8-.9-.8h-12.4c-.5,0-.9.4-.9.8v1.7c0,.4.3.8.8.8v18.3c0,7-2.1,12.3-3.1,14.6v.3c-.4.6-.9,1.9-1.6,3.5-1.6,3.8-4.1,9.6-4.7,11.7-.9,2.8-2.1,9-2.1,14v39.5c0,2.6.5,4.9,1.3,6.6.8,1.7,1.9,2.7,3.1,3,.2,0,.5.1.7.2,1.8.4,4.2,1,10.9,1.1h0s.3,0,.3,0c.5,0,.9,0,1.3,0,.4,0,.9,0,1.3,0h.3c6.8-.2,9.2-.7,10.9-1.1.2,0,.5-.1.7-.2,1.2-.3,2.3-1.3,3.1-3,.9-1.8,1.3-4.1,1.3-6.6v-39.5c0-4.9-1.2-11.1-2.1-14"/>
      <path class="st11" d="M1236.7,259.4c-4-.7-4.3-3-4.3-5.2v-9.7c0-3.3,5.3-3.8,11.5-12.3,6.3-8.5,3-30.5,1.7-36.2h-30.2c-1.2,5.7-4.5,27.7,1.7,36.2,6.3,8.5,11.5,9.1,11.5,12.3v9.7c0,2.2-.3,4.5-4.3,5.2-4,.7-10.1,1.6-7.6,3.5,2,1.5,10,1.7,13.1,1.8h0s.2,0,.7,0c.4,0,.7,0,.7,0h0c3.2,0,11.1-.3,13.1-1.8,2.5-1.9-3.6-2.7-7.6-3.5"/>
    </g>
    <text class="st3" transform="translate(1307.3 246.7)"><tspan x="0" y="0">ha consumit</tspan><tspan x="0" y="27">alcohol el darrer</tspan><tspan x="0" y="54.1">mes i 1 de cada 4</tspan><tspan x="0" y="81.1">un consum</tspan><tspan x="0" y="108.2">intensiu</tspan></text>
  </g>
  <g>
    <circle class="st13" cx="1153.4" cy="408.6" r="110.8"/>
    <text class="st2" transform="translate(1095.4 408.7)"><tspan x="0" y="0">18%</tspan></text>
    <text class="st12" transform="translate(1101.6 438)"><tspan x="0" y="0">dels adults </tspan><tspan x="0" y="27">fumadors </tspan><tspan x="0" y="54.1">habituals</tspan></text>
    <g>
      <rect class="st11" x="1131.2" y="344" width="59.5" height="11.8"/>
      <rect class="st11" x="1124.6" y="344" width="3.6" height="11.8"/>
      <rect class="st11" x="1118.1" y="344" width="3.6" height="11.8"/>
      <path class="st11" d="M1157.7,305.5l-2.8,2.4c1.4,1.5,3.8,4.7,3.8,9.4,0,10.1-9.5,12.4-18,14.5-7.5,1.8-14.2,3.4-15.8,9.3h3.9c1.4-2.7,5.3-3.9,12.8-5.7,4.3-1.1,9.3-2.2,13.2-4.6,5-3.1,7.6-7.6,7.6-13.4s-2.8-9.8-4.7-11.8"/>
      <path class="st11" d="M1152.7,309.8l-2.8,2.4c.3.3,2.2,2.1,2.2,5.1s-2.9,5.7-12.9,8.1c-4.4,1.1-9.5,2.3-13.5,4.8-4.2,2.6-6.7,6.3-7.5,10.9h3.7c1.7-8.1,10.3-10.2,18.1-12.1,8.4-2.1,15.7-3.8,15.7-11.6s-2.1-6.5-3.1-7.5"/>
    </g>
  </g>
  <g>
    <circle class="st13" cx="679.6" cy="200.1" r="110.8"/>
    <text class="st2" transform="translate(629.5 202.2)"><tspan x="0" y="0">40%</tspan></text>
    <text class="st12" transform="translate(629.5 231.4)"><tspan x="0" y="0">dels joves</tspan><tspan x="0" y="27">tenen oci</tspan><tspan x="0" y="54.1">sedentari</tspan></text>
    <g>
      <path class="st11" d="M665.8,121.8h-2.9c-.4,0-.7-.3-.7-.7v-2.9c0-.9-.8-1.7-1.7-1.7h-.4c-.9,0-1.7.8-1.7,1.7v2.9c0,.4-.3.7-.7.7h-2.9c-.9,0-1.7.8-1.7,1.7v.4c0,.9.8,1.7,1.7,1.7h2.9c.4,0,.7.3.7.7v2.9c0,.9.8,1.7,1.7,1.7h.4c.9,0,1.7-.8,1.7-1.7v-2.9c0-.4.3-.7.7-.7h2.9c.9,0,1.7-.8,1.7-1.7v-.4c0-.9-.8-1.7-1.7-1.7"/>
      <path class="st11" d="M706.6,127.5c-2.1,0-3.9-1.7-3.9-3.9s1.7-3.9,3.9-3.9,3.9,1.7,3.9,3.9-1.7,3.9-3.9,3.9M699.4,134.7c-2.1,0-3.9-1.7-3.9-3.9s1.7-3.9,3.9-3.9,3.9,1.7,3.9,3.9-1.7,3.9-3.9,3.9M692.2,127.5c-2.1,0-3.9-1.7-3.9-3.9s1.7-3.9,3.9-3.9,3.9,1.7,3.9,3.9-1.7,3.9-3.9,3.9M699.4,112.6c2.1,0,3.9,1.7,3.9,3.9s-1.7,3.9-3.9,3.9-3.9-1.7-3.9-3.9,1.7-3.9,3.9-3.9M685.8,115.1c0,.6-.5,1.2-1.2,1.2h-11.4c-.6,0-1.2-.5-1.2-1.2v-6.8c2.3.5,4.3.9,6.9.9s4.5-.4,6.9-.9v6.8ZM670.3,123.9c0,2-1.6,3.5-3.5,3.5h-2.7v2.7c0,2-1.6,3.5-3.5,3.5h-.5c-2,0-3.5-1.6-3.5-3.5v-2.7h-2.7c-2,0-3.5-1.6-3.5-3.5v-.5c0-2,1.6-3.5,3.5-3.5h2.7v-2.7c0-2,1.6-3.5,3.5-3.5h.5c2,0,3.5,1.6,3.5,3.5v2.7h2.7c2,0,3.5,1.6,3.5,3.5v.5ZM720.3,140.2v-.7c-.5-4.1-2.5-14.5-5.4-21v-.3c-1.9-4-5.5-12.3-15.7-13-5.7-.3-9.3.5-12.9,1.3-2.6.6-4.7,1-7.5,1s-4.9-.5-7.6-1.1c-3.4-.8-7-1.6-12.7-1.2-10.2.6-13.8,9-15.6,13v.3c-3,6.6-5,17-5.4,21v.7c-.6,4.6-1.2,11,1.6,14.1,1.2,1.3,2.8,1.9,4.8,1.9,6.7,0,11.6-6.5,14.8-10.9.7-1,1.4-1.8,1.9-2.5,3.2-3.7,5.1-4.7,7.5-4.2,1.7.4,6.2,1.3,10.7,1.3s8.9-.9,10.7-1.3c2.4-.5,4.3.5,7.5,4.2.6.7,1.2,1.5,1.9,2.5,3.3,4.3,8.2,10.9,14.8,10.9h0c2,0,3.7-.7,4.8-1.9,2.9-3.2,2.2-9.5,1.7-14.1"/>
      <path class="st11" d="M692.2,121.7c-1.1,0-1.9.9-1.9,1.9s.9,1.9,1.9,1.9,1.9-.9,1.9-1.9-.9-1.9-1.9-1.9"/>
      <path class="st11" d="M699.4,128.9c-1.1,0-1.9.9-1.9,1.9s.9,1.9,1.9,1.9,1.9-.9,1.9-1.9-.9-1.9-1.9-1.9"/>
      <path class="st11" d="M706.6,121.7c-1.1,0-1.9.9-1.9,1.9s.9,1.9,1.9,1.9,1.9-.9,1.9-1.9-.9-1.9-1.9-1.9"/>
      <path class="st11" d="M699.4,114.5c-1.1,0-1.9.9-1.9,1.9s.9,1.9,1.9,1.9,1.9-.9,1.9-1.9-.9-1.9-1.9-1.9"/>
    </g>
  </g>
  <g>
    <circle class="st8" cx="370.6" cy="234.6" r="164"/>
    <text class="st1" transform="translate(352.7 188.6)"><tspan x="0" y="0">16%</tspan></text>
    <text class="st3" transform="translate(352.7 217.9)"><tspan x="0" y="0">dels adults </tspan><tspan x="0" y="27">consumeix </tspan><tspan x="0" y="54.1">psicofàrmacs </tspan><tspan x="0" y="81.1">habitualment</tspan></text>
    <g>
      <rect class="st5" x="257.6" y="155.6" width="46" height="122.1" rx="21.8" ry="21.8" transform="translate(145.9 -111.2) rotate(30)"/>
      <line class="st5" x1="261.4" y1="203.9" x2="301.2" y2="226.9"/>
    </g>
    <g>
      <circle class="st7" cx="303.9" cy="249.3" r="33"/>
      <line class="st5" x1="268.3" y1="248.5" x2="340.4" y2="248.5"/>
    </g>
  </g>
</svg>