<?xml version="1.0" encoding="UTF-8"?>
<svg id="Capa_1" data-name="Capa 1" xmlns="http://www.w3.org/2000/svg" viewBox="0 0 406.79 392.6">
  <defs>
    <style>
      .cls-1 {
        font-family: Inter-Medium, Inter;
        font-size: 10px;
        font-weight: 500;
      }

      .cls-1, .cls-2 {
        fill: #616161;
      }

      .cls-3 {
        stroke-width: 2px;
      }

      .cls-3, .cls-4 {
        fill: none;
        stroke: #8b898e;
        stroke-miterlimit: 10;
      }

      .cls-4 {
        stroke-width: .25px;
      }

      .cls-2 {
        font-size: 11.76px;
      }

      .cls-2, .cls-5, .cls-6 {
        font-family: Inter-SemiBold, Inter;
        font-weight: 600;
      }

      .cls-5 {
        font-size: 14.38px;
      }

      .cls-5, .cls-7 {
        fill: #59858d;
      }

      .cls-8 {
        letter-spacing: 0em;
      }

      .cls-9 {
        fill: #b2d2d4;
      }

      .cls-6 {
        font-size: 16.34px;
      }

      .cls-6, .cls-10 {
        fill: #56939a;
      }

      .cls-11 {
        fill: #82b9bd;
      }

      .cls-12 {
        letter-spacing: 0em;
      }

      .cls-13 {
        letter-spacing: 0em;
      }

      .cls-14 {
        letter-spacing: 0em;
      }

      .cls-15 {
        fill: #4d4d4d;
        font-family: Inter-Regular, Inter;
        font-size: 13.25px;
        font-variation-settings: 'wght' 400, 'slnt' 0;
      }

      .cls-16 {
        letter-spacing: -.07em;
      }

      .cls-17 {
        letter-spacing: -.09em;
      }

      .cls-18 {
        letter-spacing: -.02em;
      }

      .cls-19 {
        letter-spacing: -.02em;
      }

      .cls-20 {
        letter-spacing: -.03em;
      }

      .cls-21 {
        letter-spacing: -.02em;
      }

      .cls-22 {
        letter-spacing: -.02em;
      }

      .cls-23 {
        letter-spacing: -.02em;
      }

      .cls-24 {
        letter-spacing: -.03em;
      }

      .cls-25 {
        letter-spacing: -.04em;
      }

      .cls-26 {
        letter-spacing: -.03em;
      }

      .cls-27 {
        letter-spacing: -.03em;
      }

      .cls-28 {
        letter-spacing: 0em;
      }

      .cls-29 {
        letter-spacing: 0em;
      }

      .cls-30 {
        letter-spacing: 0em;
      }

      .cls-31 {
        letter-spacing: 0em;
      }

      .cls-32 {
        letter-spacing: 0em;
      }

      .cls-33 {
        letter-spacing: .04em;
      }
    </style>
  </defs>
  <text class="cls-2" transform="translate(37.17 97)"><tspan x="0" y="0">Més de 80</tspan><tspan class="cls-32" x="0" y="40">7</tspan><tspan x="6.79" y="40">9-54</tspan><tspan x="0" y="80">64- 50</tspan><tspan x="0" y="120">49</tspan><tspan class="cls-28" x="15.46" y="120">-</tspan><tspan x="20.86" y="120">30</tspan><tspan x="0" y="160">30</tspan><tspan class="cls-18" x="15.51" y="160">-</tspan><tspan class="cls-12" x="20.7" y="160">20</tspan><tspan x="0" y="200">19-1</tspan><tspan x="0" y="240">1-0</tspan></text>
  <line class="cls-3" x1="89.85" y1="360.02" x2="396.48" y2="360.98"/>
  <text class="cls-6" transform="translate(327.83 100.53)"><tspan x="0" y="0">1</tspan><tspan class="cls-27" x="7.86" y="0">6</tspan><tspan class="cls-23" x="17.93" y="0">,</tspan><tspan x="22.38" y="0">7%</tspan></text>
  <text class="cls-5" transform="translate(195.55 99.51) scale(.92 1)"><tspan class="cls-26" x="0" y="0">6</tspan><tspan class="cls-31" x="8.87" y="0">,</tspan><tspan class="cls-8" x="12.99" y="0">5%</tspan></text>
  <text class="cls-5" transform="translate(190.8 139.59)"><tspan class="cls-22" x="0" y="0">4</tspan><tspan class="cls-14" x="9.28" y="0">,4%</tspan></text>
  <text class="cls-5" transform="translate(170.59 179.69)"><tspan class="cls-21" x="0" y="0">3</tspan><tspan class="cls-20" x="9.06" y="0">,</tspan><tspan x="12.91" y="0">8%</tspan></text>
  <text class="cls-5" transform="translate(166.48 217.27)"><tspan class="cls-21" x="0" y="0">3</tspan><tspan class="cls-14" x="9.06" y="0">,4%</tspan></text>
  <text class="cls-5" transform="translate(155.43 256.43)"><tspan x="0" y="0">2</tspan><tspan class="cls-19" x="8.93" y="0">,</tspan><tspan x="12.83" y="0">3%</tspan></text>
  <text class="cls-5" transform="translate(147.22 296.22)"><tspan x="0" y="0">2</tspan><tspan class="cls-19" x="8.93" y="0">,</tspan><tspan x="12.83" y="0">3%</tspan></text>
  <text class="cls-5" transform="translate(124.8 333.48)"><tspan x="0" y="0">2</tspan><tspan class="cls-19" x="8.93" y="0">,</tspan><tspan x="12.83" y="0">3%</tspan></text>
  <text class="cls-15" transform="translate(101.54 378.23)"><tspan x="0" y="0">0%</tspan></text>
  <text class="cls-15" transform="translate(166.6 378.23)"><tspan x="0" y="0">5%</tspan></text>
  <text class="cls-15" transform="translate(228.63 378.23)"><tspan x="0" y="0">10%</tspan></text>
  <text class="cls-15" transform="translate(294.08 378.23)"><tspan x="0" y="0">15%</tspan></text>
  <text class="cls-15" transform="translate(358.78 378.23)"><tspan x="0" y="0">20%</tspan></text>
  <rect class="cls-7" x="106.94" y="78.9" width="215.19" height="28.96"/>
  <rect class="cls-10" x="106.94" y="118.34" width="77.31" height="28.96"/>
  <rect class="cls-10" x="106.94" y="157.77" width="56.7" height="28.96"/>
  <rect class="cls-11" x="106.94" y="197.21" width="52.83" height="28.96"/>
  <rect class="cls-11" x="106.94" y="236.65" width="39.95" height="28.96"/>
  <rect class="cls-9" x="106.94" y="276.09" width="34.79" height="28.96"/>
  <rect class="cls-9" x="106.94" y="315.52" width="10.38" height="28.96"/>
  <text class="cls-1" transform="translate(147.24 48.82)"><tspan class="cls-30" x="0" y="0">C</tspan><tspan x="7.31" y="0">ÀNCER</tspan></text>
  <text class="cls-1" transform="translate(24.89 48.82)"><tspan class="cls-30" x="0" y="0">C</tspan><tspan x="7.31" y="0">ARDI</tspan><tspan class="cls-25" x="30.67" y="0">O</tspan><tspan class="cls-16" x="37.99" y="0">V</tspan><tspan class="cls-29" x="44.25" y="0">A</tspan><tspan x="51.19" y="0">SCU</tspan><tspan class="cls-33" x="72.35" y="0">L</tspan><tspan class="cls-13" x="78.36" y="0">AR</tspan></text>
  <text class="cls-1" transform="translate(229.71 48.82)"><tspan class="cls-24" x="0" y="0">A</tspan><tspan x="6.66" y="0">CCIDENTS</tspan></text>
  <text class="cls-1" transform="translate(326.49 48.82)"><tspan x="0" y="0">PERIN</tspan><tspan class="cls-17" x="29.03" y="0">AT</tspan><tspan x="40.81" y="0">AL</tspan></text>
  <rect class="cls-7" x="7.43" y="38.37" width="12.42" height="13.48"/>
  <rect class="cls-10" x="132.5" y="38.37" width="12.42" height="13.48"/>
  <rect class="cls-11" x="212.77" y="38.37" width="12.42" height="13.48"/>
  <rect class="cls-9" x="308.02" y="38.37" width="12.42" height="13.48"/>
  <g>
    <line class="cls-4" x1="171.37" y1="360.75" x2="171.37" y2="353.2"/>
    <line class="cls-4" x1="106.94" y1="360.98" x2="106.94" y2="59.22"/>
    <line class="cls-4" x1="235.8" y1="360.75" x2="235.8" y2="353.2"/>
    <line class="cls-4" x1="300.23" y1="360.75" x2="300.23" y2="353.2"/>
    <line class="cls-4" x1="364.66" y1="360.75" x2="364.66" y2="353.2"/>
  </g>
</svg>