<?xml version="1.0" encoding="UTF-8"?>
<svg id="Capa_1" data-name="Capa 1" xmlns="http://www.w3.org/2000/svg" xmlns:xlink="http://www.w3.org/1999/xlink" viewBox="0 0 406.79 392.6">
  <defs>
    <style>
      .cls-1, .cls-2, .cls-3, .cls-4, .cls-5, .cls-6, .cls-7, .cls-8, .cls-9, .cls-10, .cls-11, .cls-12 {
        fill: none;
      }

      .cls-13, .cls-2, .cls-3, .cls-14, .cls-4, .cls-5, .cls-6, .cls-7, .cls-8, .cls-9, .cls-10, .cls-11, .cls-12 {
        stroke-miterlimit: 10;
      }

      .cls-13, .cls-2, .cls-14, .cls-8 {
        stroke-width: 4px;
      }

      .cls-13, .cls-14 {
        fill: #fff;
      }

      .cls-13, .cls-11 {
        stroke: #f89d64;
      }

      .cls-15 {
        fill: #b74e31;
      }

      .cls-15, .cls-16, .cls-17, .cls-18 {
        font-weight: 700;
      }

      .cls-15, .cls-17 {
        font-family: OpenSans-ExtraBold, 'Open Sans';
        font-size: 16.67px;
      }

      .cls-2, .cls-14, .cls-12 {
        stroke: #82b9bd;
      }

      .cls-2, .cls-8 {
        stroke-linecap: round;
      }

      .cls-3 {
        stroke: #8b898e;
        stroke-width: 1.29px;
      }

      .cls-16 {
        font-family: Inter-Bold, Inter;
        font-size: 11.11px;
      }

      .cls-16, .cls-19 {
        fill: #8b898e;
      }

      .cls-19 {
        font-family: Inter-Regular, Inter;
        font-size: 10px;
        font-variation-settings: 'wght' 400, 'slnt' 0;
      }

      .cls-20 {
        letter-spacing: 0em;
      }

      .cls-4 {
        stroke-width: 1.2px;
      }

      .cls-4, .cls-5, .cls-6, .cls-7 {
        stroke: #fff;
      }

      .cls-17 {
        fill: #709fa3;
      }

      .cls-5 {
        stroke-width: .41px;
      }

      .cls-6 {
        stroke-width: 1.29px;
      }

      .cls-7 {
        stroke-width: 1.53px;
      }

      .cls-8 {
        stroke: #b74e31;
      }

      .cls-9 {
        stroke: #616161;
        stroke-width: .95px;
      }

      .cls-21 {
        font-family: Inter-Medium, Inter;
        font-size: 14.27px;
        font-weight: 500;
      }

      .cls-21, .cls-18, .cls-22 {
        fill: #616161;
      }

      .cls-23 {
        fill: #e7e5db;
      }

      .cls-18 {
        font-family: OpenSans-Bold, 'Open Sans';
        font-size: 12.84px;
      }

      .cls-24 {
        letter-spacing: -.02em;
      }

      .cls-25 {
        letter-spacing: -.02em;
      }

      .cls-10 {
        stroke: #dcdcdd;
        stroke-width: .62px;
      }

      .cls-11 {
        stroke-width: 6px;
      }

      .cls-12 {
        stroke-width: 5.1px;
      }

      .cls-26 {
        clip-path: url(#clippath);
      }
    </style>
    <clipPath id="clippath">
      <path class="cls-1" d="M59.75,100.63l8.66-2.74h9.21l12.52-.68,10.52.63,8.24,1.07,5.56-2.94,9.21-3.54,9.04.68,9.11-2.93,8.12.14,10.02.5,8.66-1.01,9.21-.72,8.35-2.83,9.26-.68,9.73-1.02,7.85-1.8,9.21-2.3,8.94-2.45,8.16-1.17,10.25-1.53,9.21-.43,7.79,1.08,10.1-4.11,10.98.05,8.02-1.4,7.79.04,9.48,1.37,9.02-2.05,9.73,4.1,7.51-5.47,9.03,1.37v303.43H60.89s-.23-274.12-1.13-272.66Z"/>
    </clipPath>
  </defs>
  <line class="cls-4" x1="348.93" y1="272.65" x2="348.93" y2="87.02"/>
  <path class="cls-23" d="M59.75,100.63l8.66-2.74h9.21l12.52-.68,10.52.63,8.24,1.07,5.56-2.94,9.21-3.54,9.04.68,9.11-2.93,8.12.14,10.02.5,8.66-1.01,9.21-.72,8.35-2.83,9.26-.68,9.73-1.02,7.85-1.8,9.21-2.3,8.94-2.45,8.16-1.17,10.25-1.53,9.21-.43,7.79,1.08,10.1-4.11,10.98.05,8.02-1.4,7.79.04,9.48,1.37,9.02-2.05,9.73,4.1,7.51-5.47,9.03,1.37v303.43H60.89s-.23-274.12-1.13-272.66Z"/>
  <g class="cls-26">
    <g>
      <line class="cls-5" x1="63.77" y1="-306.02" x2="63.77" y2="380.45"/>
      <line class="cls-5" x1="66.58" y1="-306.02" x2="66.58" y2="380.45"/>
      <line class="cls-5" x1="69.39" y1="-306.02" x2="69.39" y2="380.45"/>
      <line class="cls-5" x1="72.19" y1="-306.02" x2="72.19" y2="380.45"/>
      <line class="cls-5" x1="75" y1="-306.02" x2="75" y2="380.45"/>
      <line class="cls-5" x1="77.81" y1="-306.02" x2="77.81" y2="380.45"/>
      <line class="cls-5" x1="80.62" y1="-306.02" x2="80.62" y2="380.45"/>
      <line class="cls-5" x1="83.42" y1="-306.02" x2="83.42" y2="380.45"/>
      <line class="cls-5" x1="86.23" y1="-306.02" x2="86.23" y2="380.45"/>
      <line class="cls-5" x1="89.04" y1="-306.02" x2="89.04" y2="380.45"/>
      <line class="cls-5" x1="91.85" y1="-306.02" x2="91.85" y2="380.45"/>
      <line class="cls-5" x1="94.65" y1="-306.02" x2="94.65" y2="380.45"/>
      <line class="cls-5" x1="97.46" y1="-306.02" x2="97.46" y2="380.45"/>
      <line class="cls-5" x1="100.27" y1="-306.02" x2="100.27" y2="380.45"/>
      <line class="cls-5" x1="103.08" y1="-306.02" x2="103.08" y2="380.45"/>
      <line class="cls-5" x1="105.88" y1="-306.02" x2="105.88" y2="380.45"/>
      <line class="cls-5" x1="108.69" y1="-306.02" x2="108.69" y2="380.45"/>
      <line class="cls-5" x1="111.5" y1="-306.02" x2="111.5" y2="380.45"/>
      <line class="cls-5" x1="114.31" y1="-306.02" x2="114.31" y2="380.45"/>
      <line class="cls-5" x1="117.11" y1="-306.02" x2="117.11" y2="380.45"/>
      <line class="cls-5" x1="119.92" y1="-306.02" x2="119.92" y2="380.45"/>
      <line class="cls-5" x1="122.73" y1="-306.02" x2="122.73" y2="380.45"/>
      <line class="cls-5" x1="125.54" y1="-306.02" x2="125.54" y2="380.45"/>
      <line class="cls-5" x1="128.34" y1="-306.02" x2="128.34" y2="380.45"/>
      <line class="cls-5" x1="131.15" y1="-306.02" x2="131.15" y2="380.45"/>
      <line class="cls-5" x1="133.96" y1="-306.02" x2="133.96" y2="380.45"/>
      <line class="cls-5" x1="136.77" y1="-306.02" x2="136.77" y2="380.45"/>
      <line class="cls-5" x1="139.57" y1="-306.02" x2="139.57" y2="380.45"/>
      <line class="cls-5" x1="142.38" y1="-306.02" x2="142.38" y2="380.45"/>
      <line class="cls-5" x1="145.19" y1="-306.02" x2="145.19" y2="380.45"/>
      <line class="cls-5" x1="148" y1="-306.02" x2="148" y2="380.45"/>
      <line class="cls-5" x1="150.81" y1="-306.02" x2="150.81" y2="380.45"/>
      <line class="cls-5" x1="153.61" y1="-306.02" x2="153.61" y2="380.45"/>
      <line class="cls-5" x1="156.42" y1="-306.02" x2="156.42" y2="380.45"/>
      <line class="cls-5" x1="159.23" y1="-306.02" x2="159.23" y2="380.45"/>
      <line class="cls-5" x1="162.04" y1="-306.02" x2="162.04" y2="380.45"/>
      <line class="cls-5" x1="164.84" y1="-306.02" x2="164.84" y2="380.45"/>
      <line class="cls-5" x1="167.65" y1="-306.02" x2="167.65" y2="380.45"/>
      <line class="cls-5" x1="170.46" y1="-306.02" x2="170.46" y2="380.45"/>
      <line class="cls-5" x1="173.27" y1="-306.02" x2="173.27" y2="380.45"/>
      <line class="cls-5" x1="176.07" y1="-306.02" x2="176.07" y2="380.45"/>
      <line class="cls-5" x1="178.88" y1="-306.02" x2="178.88" y2="380.45"/>
      <line class="cls-5" x1="181.69" y1="-306.02" x2="181.69" y2="380.45"/>
      <line class="cls-5" x1="184.5" y1="-306.02" x2="184.5" y2="380.45"/>
      <line class="cls-5" x1="187.3" y1="-306.02" x2="187.3" y2="380.45"/>
      <line class="cls-5" x1="190.11" y1="-306.02" x2="190.11" y2="380.45"/>
      <line class="cls-5" x1="192.92" y1="-306.02" x2="192.92" y2="380.45"/>
      <line class="cls-5" x1="195.73" y1="-306.02" x2="195.73" y2="380.45"/>
      <line class="cls-5" x1="198.53" y1="-306.02" x2="198.53" y2="380.45"/>
      <line class="cls-5" x1="201.34" y1="-306.02" x2="201.34" y2="380.45"/>
      <line class="cls-5" x1="204.15" y1="-306.02" x2="204.15" y2="380.45"/>
      <line class="cls-5" x1="206.96" y1="-306.02" x2="206.96" y2="380.45"/>
      <line class="cls-5" x1="209.76" y1="-306.02" x2="209.76" y2="380.45"/>
      <line class="cls-5" x1="212.57" y1="-306.02" x2="212.57" y2="380.45"/>
      <line class="cls-5" x1="215.38" y1="-306.02" x2="215.38" y2="380.45"/>
      <line class="cls-5" x1="218.19" y1="-306.02" x2="218.19" y2="380.45"/>
      <line class="cls-5" x1="220.99" y1="-306.02" x2="220.99" y2="380.45"/>
      <line class="cls-5" x1="223.8" y1="-306.02" x2="223.8" y2="380.45"/>
      <line class="cls-5" x1="226.61" y1="-306.02" x2="226.61" y2="380.45"/>
      <line class="cls-5" x1="229.42" y1="-306.02" x2="229.42" y2="380.45"/>
      <line class="cls-5" x1="232.23" y1="-306.02" x2="232.23" y2="380.45"/>
      <line class="cls-5" x1="235.03" y1="-306.02" x2="235.03" y2="380.45"/>
      <line class="cls-5" x1="237.84" y1="-306.02" x2="237.84" y2="380.45"/>
      <line class="cls-5" x1="240.65" y1="-306.02" x2="240.65" y2="380.45"/>
      <line class="cls-5" x1="243.46" y1="-306.02" x2="243.46" y2="380.45"/>
      <line class="cls-5" x1="246.26" y1="-306.02" x2="246.26" y2="380.45"/>
      <line class="cls-5" x1="249.07" y1="-306.02" x2="249.07" y2="380.45"/>
      <line class="cls-5" x1="251.88" y1="-306.02" x2="251.88" y2="380.45"/>
      <line class="cls-5" x1="254.69" y1="-306.02" x2="254.69" y2="380.45"/>
      <line class="cls-5" x1="257.49" y1="-306.02" x2="257.49" y2="380.45"/>
      <line class="cls-5" x1="260.3" y1="-306.02" x2="260.3" y2="380.45"/>
      <line class="cls-5" x1="263.11" y1="-306.02" x2="263.11" y2="380.45"/>
      <line class="cls-5" x1="265.92" y1="-306.02" x2="265.92" y2="380.45"/>
      <line class="cls-5" x1="268.72" y1="-306.02" x2="268.72" y2="380.45"/>
      <line class="cls-5" x1="271.53" y1="-306.02" x2="271.53" y2="380.45"/>
      <line class="cls-5" x1="274.34" y1="-306.02" x2="274.34" y2="380.45"/>
      <line class="cls-5" x1="277.15" y1="-306.02" x2="277.15" y2="380.45"/>
      <line class="cls-5" x1="279.95" y1="-306.02" x2="279.95" y2="380.45"/>
      <line class="cls-5" x1="282.76" y1="-306.02" x2="282.76" y2="380.45"/>
      <line class="cls-5" x1="285.57" y1="-306.02" x2="285.57" y2="380.45"/>
      <line class="cls-5" x1="288.38" y1="-306.02" x2="288.38" y2="380.45"/>
      <line class="cls-5" x1="291.18" y1="-306.02" x2="291.18" y2="380.45"/>
      <line class="cls-5" x1="293.99" y1="-306.02" x2="293.99" y2="380.45"/>
      <line class="cls-5" x1="296.8" y1="-306.02" x2="296.8" y2="380.45"/>
      <line class="cls-5" x1="299.61" y1="-306.02" x2="299.61" y2="380.45"/>
      <line class="cls-5" x1="302.41" y1="-306.02" x2="302.41" y2="380.45"/>
      <line class="cls-5" x1="305.22" y1="-306.02" x2="305.22" y2="380.45"/>
      <line class="cls-5" x1="308.03" y1="-306.02" x2="308.03" y2="380.45"/>
      <line class="cls-5" x1="310.84" y1="-306.02" x2="310.84" y2="380.45"/>
      <line class="cls-5" x1="313.65" y1="-306.02" x2="313.65" y2="380.45"/>
      <line class="cls-5" x1="316.45" y1="-306.02" x2="316.45" y2="380.45"/>
      <line class="cls-5" x1="319.26" y1="-306.02" x2="319.26" y2="380.45"/>
      <line class="cls-5" x1="322.07" y1="-306.02" x2="322.07" y2="380.45"/>
      <line class="cls-5" x1="324.88" y1="-306.02" x2="324.88" y2="380.45"/>
      <line class="cls-5" x1="327.68" y1="-306.02" x2="327.68" y2="380.45"/>
      <line class="cls-5" x1="330.49" y1="-306.02" x2="330.49" y2="380.45"/>
      <line class="cls-5" x1="333.3" y1="-306.02" x2="333.3" y2="380.45"/>
      <line class="cls-5" x1="336.11" y1="-306.02" x2="336.11" y2="380.45"/>
      <line class="cls-5" x1="338.91" y1="-306.02" x2="338.91" y2="380.45"/>
      <line class="cls-5" x1="341.72" y1="-306.02" x2="341.72" y2="380.45"/>
      <line class="cls-5" x1="344.53" y1="-306.02" x2="344.53" y2="380.45"/>
      <line class="cls-5" x1="347.34" y1="-306.02" x2="347.34" y2="380.45"/>
    </g>
  </g>
  <line class="cls-4" x1="300.26" y1="373.81" x2="300.26" y2="69.55"/>
  <line class="cls-4" x1="252.54" y1="373.81" x2="252.54" y2="73.75"/>
  <line class="cls-6" x1="204.34" y1="373.81" x2="204.34" y2="78.5"/>
  <line class="cls-4" x1="156.98" y1="373.81" x2="156.98" y2="81.58"/>
  <line class="cls-7" x1="106.49" y1="374.07" x2="106.49" y2="98.38"/>
  <text class="cls-19" transform="translate(51.91 389.02)"><tspan x="0" y="0">1983</tspan></text>
  <text class="cls-19" transform="translate(194.68 389.02)"><tspan x="0" y="0">2003</tspan></text>
  <text class="cls-16" transform="translate(331.49 388.89)"><tspan x="0" y="0">2023</tspan></text>
  <text class="cls-19" transform="translate(5.51 179.17)"><tspan class="cls-25" x="0" y="0">7</tspan><tspan x="5.55" y="0">0 a</tspan><tspan class="cls-24" x="20.26" y="0">n</tspan><tspan class="cls-20" x="25.91" y="0">ys</tspan></text>
  <text class="cls-19" transform="translate(5.51 252.02)"><tspan x="0" y="0">60 a</tspan><tspan class="cls-24" x="20.94" y="0">n</tspan><tspan x="26.59" y="0">ys</tspan></text>
  <text class="cls-19" transform="translate(5.51 324.86)"><tspan x="0" y="0">50 a</tspan><tspan class="cls-24" x="20.78" y="0">n</tspan><tspan x="26.43" y="0">ys</tspan></text>
  <text class="cls-15" transform="translate(361.65 60.24)"><tspan x="0" y="0">86,7</tspan></text>
  <text class="cls-17" transform="translate(361.65 104.3)"><tspan x="0" y="0">81,5</tspan></text>
  <text class="cls-15" transform="translate(14.64 99.57)"><tspan x="0" y="0">80,2</tspan></text>
  <text class="cls-17" transform="translate(14.64 133.73)"><tspan x="0" y="0">76,3</tspan></text>
  <text class="cls-19" transform="translate(5.51 375.14)"><tspan x="0" y="0">40 a</tspan><tspan class="cls-24" x="21.12" y="0">n</tspan><tspan x="26.78" y="0">ys</tspan></text>
  <line class="cls-3" x1="48.29" y1="372.81" x2="365.87" y2="373.91"/>
  <line class="cls-10" x1="48.67" y1="176.11" x2="57.11" y2="176.11"/>
  <line class="cls-10" x1="48.67" y1="321.63" x2="57.11" y2="321.63"/>
  <line class="cls-10" x1="48.67" y1="248.87" x2="57.11" y2="248.87"/>
  <g>
    <text class="cls-21" transform="translate(165.11 43.57)"><tspan x="0" y="0">HOMES</tspan></text>
    <text class="cls-21" transform="translate(46.82 42.72)"><tspan x="0" y="0">DONES</tspan></text>
  </g>
  <polyline class="cls-11" points="348.22 69.86 339.19 70.59 331.68 73.96 321.95 69.86 312.93 71.91 303.45 70.54 295.66 70.5 287.64 71.91 276.66 71.86 266.56 75.98 258.77 74.9 249.57 75.33 239.31 76.85 231.15 78.03 222.22 80.47 213.01 82.77 205.16 84.57 195.43 85.59 186.16 86.27 177.81 89.1 168.6 89.82 159.94 90.83 149.92 90.33 141.8 90.18 132.69 93.11 123.66 92.43 114.45 95.96 108.89 98.91 100.66 97.84 90.14 97.21 77.62 97.9 68.42 97.9 59.75 100.63"/>
  <polyline class="cls-12" points="349.3 94.53 340.17 96.82 331.07 101.32 321.59 95.16 312.93 96.53 303.45 95.84 294.51 99.26 283.26 98.58 273.78 99.26 265.39 102.25 256.18 102.75 246.18 104.41 238.04 106.13 231.15 108.78 222.22 110.87 213.01 112.84 205.16 116.41 195.14 117.51 187.9 117.67 179.5 119.08 170.3 119.7 161.74 120.46 150.38 123.88 141.14 125.06 131.43 126.62 122.99 128.48 113.79 130.01 104.58 129.15 95.65 129.21 87.1 127.3 77.62 127.3 68.42 127.3 59.75 127.99"/>
  <text class="cls-18" transform="translate(362.5 73.83)"><tspan x="0" y="0">anys</tspan></text>
  <text class="cls-18" transform="translate(362.5 119.67)"><tspan x="0" y="0">anys</tspan></text>
  <text class="cls-18" transform="translate(195.02 171.85)"><tspan x="0" y="0">La brexta entre</tspan><tspan x="0" y="15.41">dones i homes</tspan><tspan x="0" y="30.82">s’ha reduit</tspan><tspan x="0" y="46.23">lleugerament</tspan></text>
  <line class="cls-8" x1="1.85" y1="38.07" x2="32.8" y2="38.07"/>
  <line class="cls-2" x1="121.74" y1="38.07" x2="152.69" y2="38.07"/>
  <g>
    <path class="cls-9" d="M267.79,154.25c0-37.97,30.47-68.82,68.3-69.43"/>
    <path class="cls-22" d="M329.73,89.55c-.15-.22-.09-.51.13-.66l6.01-4.05-6.21-3.74c-.22-.14-.3-.43-.16-.65.14-.22.43-.3.65-.16l6.85,4.12c.14.08.23.23.23.39s-.08.31-.21.41l-6.63,4.46c-.08.05-.17.08-.25.08-.16,0-.31-.07-.41-.21Z"/>
  </g>
  <circle class="cls-13" cx="349.11" cy="70.25" r="6.08"/>
  <circle class="cls-13" cx="60.12" cy="100.56" r="6.08"/>
  <circle class="cls-14" cx="349.11" cy="94.37" r="6.08"/>
  <circle class="cls-14" cx="60.12" cy="128.14" r="6.08"/>
</svg>