<?xml version="1.0" encoding="UTF-8"?>
<svg id="Capa_1" data-name="Capa 1" xmlns="http://www.w3.org/2000/svg" viewBox="0 0 406.79 392.6">
  <defs>
    <style>
      .cls-1 {
        font-size: 16.16px;
      }

      .cls-1, .cls-2 {
        font-family: Inter-Bold, Inter;
        font-weight: 700;
      }

      .cls-1, .cls-3, .cls-4 {
        fill: #616161;
      }

      .cls-2 {
        font-size: 11.11px;
      }

      .cls-2, .cls-5, .cls-6 {
        fill: #8b898e;
      }

      .cls-2, .cls-6 {
        isolation: isolate;
      }

      .cls-7 {
        fill: #a7ced1;
      }

      .cls-8 {
        stroke: #82b9bd;
      }

      .cls-8, .cls-9, .cls-10, .cls-11, .cls-12, .cls-13, .cls-14, .cls-15 {
        fill: none;
        stroke-miterlimit: 10;
      }

      .cls-8, .cls-14, .cls-15 {
        stroke-linecap: round;
        stroke-width: 4.8px;
      }

      .cls-9 {
        stroke-width: .45px;
      }

      .cls-9, .cls-10, .cls-11, .cls-12, .cls-13 {
        stroke: #8b898e;
      }

      .cls-10 {
        stroke-width: .42px;
      }

      .cls-11 {
        stroke-width: .9px;
      }

      .cls-12 {
        stroke-width: .8px;
      }

      .cls-13 {
        stroke-width: .84px;
      }

      .cls-16 {
        fill: #b74e31;
      }

      .cls-16, .cls-17 {
        font-family: Inter-SemiBold, Inter;
        font-size: 16.09px;
        font-weight: 600;
      }

      .cls-5, .cls-6 {
        font-family: Inter-Regular, Inter;
        font-size: 10px;
        font-variation-settings: 'wght' 400, 'slnt' 0;
      }

      .cls-18 {
        letter-spacing: 0em;
      }

      .cls-19 {
        letter-spacing: 0em;
      }

      .cls-14 {
        stroke: #b74e31;
      }

      .cls-17 {
        fill: #709fa3;
      }

      .cls-20 {
        opacity: .7;
      }

      .cls-21 {
        fill: #cd836f;
      }

      .cls-22 {
        letter-spacing: -.09em;
      }

      .cls-23 {
        letter-spacing: -.02em;
      }

      .cls-24 {
        letter-spacing: -.03em;
      }

      .cls-25 {
        letter-spacing: -.02em;
      }

      .cls-26 {
        letter-spacing: -.02em;
      }

      .cls-27 {
        letter-spacing: -.02em;
      }

      .cls-28 {
        letter-spacing: -.02em;
      }

      .cls-29 {
        letter-spacing: -.02em;
      }

      .cls-30 {
        letter-spacing: -.03em;
      }

      .cls-31 {
        letter-spacing: -.03em;
      }

      .cls-32 {
        letter-spacing: 0em;
      }

      .cls-33 {
        letter-spacing: -.01em;
      }

      .cls-4 {
        font-family: OpenSans-Medium, 'Open Sans';
        font-size: 11.42px;
        font-weight: 500;
      }

      .cls-15 {
        stroke: #cd836f;
      }
    </style>
  </defs>
  <g>
    <path class="cls-3" d="M19.05,56.02l-1.8,22.33c-.25,1.3-1.25,1.81-2.49,1.89-2.08.14-4.32-.1-6.42-.01-2.4-.35-2.25-1.7-2.39-3.65-.49-6.85-.83-13.71-1.27-20.57h14.37ZM17.1,66.36c0-2.92-2.36-5.28-5.28-5.28s-5.28,2.36-5.28,5.28,2.36,5.28,5.28,5.28,5.28-2.36,5.28-5.28Z"/>
    <path class="cls-3" d="M36.53,65.23c-.09,1.03-.35,2.05-.44,3.08-.23,2.65.15,4.91.73,7.47.19.85.7,2.04.52,2.88s-.93,1.51-1.79,1.58c-3.63.27-7.59-.21-11.25,0-1.01-.17-1.7-1.04-1.73-2.05.83-3.29,1.62-6.43,1.32-9.87-.09-1.03-.36-2.05-.44-3.08h13.1Z"/>
    <path class="cls-3" d="M36.71,64.4h-13.46c-.54-2.4-.49-4.83-.12-7.25.35-2.26.93-4.49,1.5-6.7l10.71.03c.58,2.36,1.2,4.75,1.55,7.16.32,2.26.3,4.52-.19,6.75ZM35.27,57.41c0-2.92-2.36-5.28-5.28-5.28s-5.28,2.36-5.28,5.28,2.36,5.28,5.28,5.28,5.28-2.36,5.28-5.28Z"/>
    <path class="cls-3" d="M24.83,49.6l1.94-7.89h6.45c.38,2.68,1.29,5.26,1.91,7.89h-10.3Z"/>
    <path class="cls-3" d="M4.62,55.19c.06-1.19-.69-2.95,1.17-2.93,3.99.21,8.26-.28,12.21,0,1.92.13,1.12,1.42,1.17,2.77l-.1.16H4.62Z"/>
    <path class="cls-3" d="M26.33,35.93c-.12-.04-.1-.24-.09-.34.03-.41.5-1.8.89-1.98l5.68-.02c.31.2.47.53.6.86.1.24.39,1.17.32,1.37-.01.03-.06.11-.09.11h-7.31Z"/>
    <rect class="cls-3" x="26.74" y="38.6" width="6.48" height="2.22"/>
    <path class="cls-3" d="M12.56,47.12v4.26h-.83v-4.55c1.36-1.21,2.62-2.56,4-3.75.11-.09.4-.35.49-.4.41-.2.78.34.46.65-1.31,1.23-2.65,2.43-3.94,3.69-.05.05-.12.09-.19.09Z"/>
    <rect class="cls-3" x="26.75" y="36.75" width="6.48" height="1.02"/>
    <path class="cls-3" d="M16.26,66.36c0,2.45-1.98,4.43-4.43,4.43s-4.43-1.98-4.43-4.43,1.98-4.43,4.43-4.43,4.43,1.98,4.43,4.43ZM8.67,63.98c-.53.19-.45.81.11.88,1.88.22,4.18-.17,6.11,0,.63-.07.52-.85-.06-.89l-6.15.02ZM8.67,65.95c-.48.16-.49.77.05.81,1.98-.12,4.13.15,6.08.03.7-.04.66-.79.09-.85h-6.22ZM8.61,67.92c-.36.08-.37.55-.08.75l6.36.06c.46-.02.57-.54.22-.79l-6.5-.02Z"/>
    <path class="cls-3" d="M34.42,57.41c0,2.45-1.99,4.43-4.43,4.43s-4.43-1.99-4.43-4.43,1.99-4.43,4.43-4.43,4.43,1.99,4.43,4.43ZM33.4,55.74c.15-.18.09-.47-.07-.62l-6.49-.06c-.46.06-.52.78.13.83,1.93.16,4.09-.13,6.05,0,.11,0,.32-.06.39-.15ZM26.85,56.98c-.6.25-.46.81.18.88,1.83.21,4.04-.15,5.91,0,.68-.02.76-.81.07-.89h-6.15ZM26.79,58.95c-.46.11-.37.82.11.81,1.95-.17,4.27.22,6.17,0,.58-.07.55-.78,0-.83h-6.28Z"/>
  </g>
  <text class="cls-1" transform="translate(1.85 13.96)"><tspan x="0" y="0">E</tspan><tspan class="cls-25" x="9.9" y="0">v</tspan><tspan x="19.08" y="0">olució de </tspan><tspan class="cls-28" x="94.66" y="0">f</tspan><tspan class="cls-19" x="100.58" y="0">ac</tspan><tspan class="cls-32" x="119.45" y="0">t</tspan><tspan x="125.63" y="0">ors de risc</tspan></text>
  <g>
    <text class="cls-16" transform="translate(29.38 144.83)"><tspan class="cls-27" x="0" y="0">4</tspan><tspan class="cls-24" x="10.38" y="0">,</tspan><tspan x="14.69" y="0">8%</tspan></text>
    <text class="cls-16" transform="translate(110.82 137.03)"><tspan class="cls-23" x="0" y="0">5</tspan><tspan x="9.79" y="0">,4%</tspan></text>
    <line class="cls-12" x1="121.81" y1="150.94" x2="121.81" y2="195.45"/>
    <line class="cls-12" x1="58.7" y1="157.91" x2="58.7" y2="195.45"/>
    <line class="cls-11" x1="28.32" y1="195.49" x2="179.27" y2="195.49"/>
    <g>
      <text class="cls-5" transform="translate(8.13 198.61)"><tspan x="0" y="0">0%</tspan></text>
      <text class="cls-5" transform="translate(3.48 118.28)"><tspan x="0" y="0">10%</tspan></text>
    </g>
    <line class="cls-9" x1="28.32" y1="114.33" x2="40.08" y2="114.33"/>
    <g class="cls-20">
      <line class="cls-14" x1="58.73" y1="157.85" x2="120.72" y2="150.68"/>
    </g>
    <circle class="cls-21" cx="120.72" cy="150.76" r="6.08"/>
    <circle class="cls-21" cx="58.81" cy="158.04" r="6.08"/>
    <text class="cls-6" transform="translate(46.21 210.11)"><tspan x="0" y="0">2021</tspan></text>
    <text class="cls-2" transform="translate(110.63 210.11)"><tspan x="0" y="0">20</tspan><tspan class="cls-29" x="14.65" y="0">2</tspan><tspan x="21.48" y="0">4</tspan></text>
  </g>
  <g>
    <text class="cls-16" transform="translate(252.23 348.65)"><tspan x="0" y="0">2</tspan><tspan class="cls-22" x="10" y="0">,</tspan><tspan x="13.31" y="0">1%</tspan></text>
    <text class="cls-16" transform="translate(323.02 342.65)"><tspan x="0" y="0">2,4%</tspan></text>
    <line class="cls-12" x1="344.07" y1="356.55" x2="344.07" y2="374.98"/>
    <line class="cls-12" x1="280.97" y1="360.89" x2="280.97" y2="374.98"/>
    <line class="cls-11" x1="250.59" y1="375.02" x2="401.53" y2="375.02"/>
    <g>
      <text class="cls-5" transform="translate(230.39 378.13)"><tspan x="0" y="0">0%</tspan></text>
      <text class="cls-5" transform="translate(225.74 297.81)"><tspan x="0" y="0">10%</tspan></text>
    </g>
    <line class="cls-9" x1="250.59" y1="293.86" x2="262.34" y2="293.86"/>
    <g class="cls-20">
      <line class="cls-14" x1="280.99" y1="360.82" x2="342.98" y2="356.3"/>
    </g>
    <circle class="cls-21" cx="342.98" cy="356.38" r="6.08"/>
    <circle class="cls-21" cx="281.08" cy="361.02" r="6.08"/>
    <text class="cls-6" transform="translate(268.47 389.63)"><tspan x="0" y="0">2021</tspan></text>
    <text class="cls-2" transform="translate(332.89 389.63)"><tspan x="0" y="0">20</tspan><tspan class="cls-29" x="14.65" y="0">2</tspan><tspan x="21.48" y="0">4</tspan></text>
  </g>
  <g>
    <text class="cls-16" transform="translate(251.51 106.51)"><tspan x="0" y="0">2</tspan><tspan class="cls-23" x="10" y="0">5</tspan><tspan class="cls-30" x="19.79" y="0">,</tspan><tspan class="cls-18" x="24.08" y="0">0%</tspan></text>
    <text class="cls-16" transform="translate(327.86 101.79)"><tspan x="0" y="0">2</tspan><tspan class="cls-31" x="10" y="0">6</tspan><tspan class="cls-18" x="19.93" y="0">,2%</tspan></text>
    <line class="cls-12" x1="342.06" y1="115.14" x2="342.06" y2="195.45"/>
    <line class="cls-12" x1="278.95" y1="119.42" x2="278.95" y2="195.45"/>
    <line class="cls-13" x1="248.57" y1="195.49" x2="399.52" y2="195.49"/>
    <g>
      <text class="cls-5" transform="translate(228.37 198.61)"><tspan x="0" y="0">0%</tspan></text>
      <text class="cls-5" transform="translate(222.32 139.91)"><tspan x="0" y="0">20%</tspan></text>
    </g>
    <line class="cls-10" x1="248.57" y1="135.49" x2="260.33" y2="135.49"/>
    <text class="cls-5" transform="translate(223.73 170.21)"><tspan x="0" y="0">10%</tspan></text>
    <line class="cls-10" x1="248.57" y1="165.49" x2="260.33" y2="165.49"/>
    <line class="cls-15" x1="278.97" y1="119.35" x2="340.97" y2="114.88"/>
    <circle class="cls-21" cx="340.96" cy="114.97" r="6.08"/>
    <circle class="cls-21" cx="279.06" cy="119.54" r="6.08"/>
    <text class="cls-6" transform="translate(266.46 210.11)"><tspan x="0" y="0">2021</tspan></text>
    <text class="cls-2" transform="translate(330.88 210.11)"><tspan x="0" y="0">20</tspan><tspan class="cls-29" x="14.65" y="0">2</tspan><tspan x="21.48" y="0">4</tspan></text>
  </g>
  <g>
    <text class="cls-17" transform="translate(48.91 293.24)"><tspan class="cls-26" x="0" y="0">8</tspan><tspan class="cls-33" x="10.05" y="0">,</tspan><tspan x="14.61" y="0">9%</tspan></text>
    <text class="cls-17" transform="translate(105.89 325.1)"><tspan class="cls-23" x="0" y="0">5</tspan><tspan x="9.79" y="0">,4%</tspan></text>
    <line class="cls-12" x1="120.09" y1="338.45" x2="120.09" y2="374.98"/>
    <line class="cls-12" x1="56.98" y1="307.41" x2="56.98" y2="374.98"/>
    <line class="cls-11" x1="26.6" y1="375.02" x2="177.55" y2="375.02"/>
    <g>
      <text class="cls-5" transform="translate(6.41 378.13)"><tspan x="0" y="0">0%</tspan></text>
      <text class="cls-5" transform="translate(1.76 297.81)"><tspan x="0" y="0">10%</tspan></text>
    </g>
    <line class="cls-9" x1="26.6" y1="293.86" x2="38.36" y2="293.86"/>
    <g class="cls-20">
      <line class="cls-8" x1="57.01" y1="307.35" x2="119" y2="338.19"/>
    </g>
    <circle class="cls-7" cx="119" cy="338.28" r="6.08"/>
    <circle class="cls-7" cx="57.09" cy="307.54" r="6.08"/>
    <text class="cls-6" transform="translate(44.49 389.63)"><tspan x="0" y="0">2021</tspan></text>
    <text class="cls-2" transform="translate(108.91 389.63)"><tspan x="0" y="0">2023</tspan></text>
  </g>
  <text class="cls-4" transform="translate(47.06 51.33)"><tspan x="0" y="0">Consum de begudes</tspan><tspan x="0" y="13.7">ensucrades en infants</tspan><tspan x="0" y="27.4">de 3 a 14 anys en %</tspan></text>
  <text class="cls-4" transform="translate(269.18 51.33)"><tspan x="0" y="0">Població de 65 anys i</tspan><tspan x="0" y="13.7">més amb manca</tspan><tspan x="0" y="27.4">d&apos;autonomia personavl</tspan></text>
  <text class="cls-4" transform="translate(47.06 238.27)"><tspan x="0" y="0">Possible trastorn per l’ús de</tspan><tspan x="0" y="13.7">videojocs entre la població</tspan><tspan x="0" y="27.4">d&apos;estudiants de 14 a 18 anys</tspan></text>
  <text class="cls-4" transform="translate(269.18 238.27)"><tspan x="0" y="0">Consum problemàtic</tspan><tspan x="0" y="13.7">de cànnabis entre la</tspan><tspan x="0" y="27.4">població de 15 a 64 anys</tspan></text>
  <g>
    <path class="cls-3" d="M11.57,247.89l-1.01,1.01c-.13.13-.33.13-.46,0l-1.01-1.01c-.32-.32-.84-.32-1.15,0l-.13.13c-.32.32-.32.84,0,1.15l1.01,1.01c.13.13.13.33,0,.46l-1.01,1.01c-.32.32-.32.84,0,1.15l.13.13c.32.32.84.32,1.15,0l1.01-1.01c.13-.13.33-.13.46,0l1.01,1.01c.32.32.84.32,1.15,0l.13-.13c.32-.32.32-.84,0-1.15l-1.01-1.01c-.13-.13-.13-.33,0-.46l1.01-1.01c.32-.32.32-.84,0-1.15l-.13-.13c-.32-.32-.84-.32-1.15,0"/>
    <path class="cls-3" d="M27.61,235.81c-.73.73-1.93.73-2.66,0s-.73-1.93,0-2.66,1.93-.73,2.66,0,.73,1.93,0,2.66M27.6,240.76c-.73.73-1.93.73-2.66,0s-.73-1.93,0-2.66,1.93-.73,2.66,0,.73,1.93,0,2.66M22.65,240.76c-.73.73-1.93.73-2.66,0s-.73-1.93,0-2.66,1.93-.73,2.66,0,.73,1.93,0,2.66M19.99,233.15c.73-.73,1.93-.73,2.66,0s.73,1.93,0,2.66-1.93.73-2.66,0-.73-1.93,0-2.66M16.15,238.7c.22.22.22.58,0,.8l-3.94,3.94c-.22.22-.58.22-.8,0l-2.34-2.34c.95-.61,1.79-1.19,2.66-2.07s1.45-1.69,2.07-2.67l2.34,2.34ZM13.85,247.06c.67.67.67,1.77,0,2.45l-.92.92.92.92c.67.67.68,1.77,0,2.45l-.16.16c-.67.67-1.77.67-2.45,0l-.92-.92-.92.92c-.67.67-1.77.67-2.44,0l-.16-.16c-.67-.67-.67-1.77,0-2.44l.92-.92-.92-.92c-.67-.67-.67-1.77,0-2.45l.16-.16c.67-.67,1.77-.67,2.44,0l.92.92.92-.92c.67-.67,1.77-.67,2.45,0l.16.16ZM36.73,235.43l-.25-.2c-1.56-1.26-5.84-4.15-9.09-5.42l-.15-.06c-1.98-.78-6.1-2.4-9.84.91-2.09,1.85-3.03,3.36-3.99,4.88-.68,1.09-1.27,1.99-2.22,2.94s-1.85,1.54-3.01,2.26c-1.44.91-2.95,1.86-4.81,3.95-3.31,3.73-1.68,7.86-.9,9.84l.06.14c1.27,3.26,4.16,7.53,5.42,9.09l.2.25c1.43,1.77,3.38,4.19,5.46,4.3.84.04,1.62-.29,2.34-1,2.3-2.3,1.74-6.25,1.36-8.86-.08-.59-.16-1.11-.19-1.53-.17-2.38.12-3.37,1.14-4.02.72-.46,2.57-1.69,4.11-3.23s2.77-3.39,3.23-4.11c.66-1.03,1.64-1.31,4.02-1.14.42.03.94.1,1.53.19,2.61.37,6.56.93,8.86-1.36h0c.7-.71,1.04-1.5.99-2.34-.11-2.08-2.53-4.03-4.3-5.46"/>
    <path class="cls-3" d="M20.66,238.76c-.37.37-.37.97,0,1.34s.97.37,1.34,0,.37-.97,0-1.34-.97-.37-1.34,0"/>
    <path class="cls-3" d="M25.6,238.76c-.37.37-.37.97,0,1.34s.97.37,1.34,0,.37-.97,0-1.34-.97-.37-1.34,0"/>
    <path class="cls-3" d="M25.61,233.81c-.37.37-.37.97,0,1.34s.97.37,1.34,0,.37-.97,0-1.34-.97-.37-1.34,0"/>
    <path class="cls-3" d="M20.66,233.81c-.37.37-.37.97,0,1.34s.97.37,1.34,0,.37-.97,0-1.34-.97-.37-1.34,0"/>
  </g>
  <path class="cls-3" d="M262.62,75.72h-5.15v-15.85c0-.51-.41-.93-.93-.93h-2.17c.3-1.03.69-2.77.16-3.28-.05-.05-.18-.09-.38-.12v-3.62c0-1.61-1.3-2.91-2.91-2.91h-14.64l-1.34-10.95c-.05-.4-.34-.72-.73-.79l-5.3-1.08-.18-.02h-3.31s0,0,0,0c-.06,0-.13,0-.19.02-.01,0-.02,0-.04.01-.05.01-.09.02-.14.04-.02.01-.04.02-.07.04-.03.02-.06.03-.09.05-.02.01-.04.03-.06.05-.03.02-.06.04-.08.07-.02.02-.03.03-.04.05-.02.03-.05.06-.07.09-.02.02-.03.05-.04.08-.01.03-.03.05-.04.08-.02.06-.04.12-.05.18,0,0,0,0,0,0-.03.13-.02.25,0,.37,0,0,0,.01,0,.02.01.05.03.1.05.15.01.02.03.05.04.07.02.03.03.06.05.09.02.02.03.04.05.06.02.03.04.05.06.07.02.02.04.03.06.05.03.02.05.05.08.07.03.02.06.03.09.05.02.01.04.03.07.04.06.02.12.04.18.05,0,0,0,0,0,0l4.65.94,1.92,15.72c-4.7,2.4-7.79,7.49-7.21,13.25.62,6.16,5.58,11.18,11.73,11.86,8.04.89,14.84-5.38,14.84-13.23,0-2.06-.47-4.01-1.3-5.74h2.13v11.08c-1.96.52-3.31,2.5-2.8,4.71.34,1.45,1.55,2.6,3.02,2.89,1.77.34,3.38-.52,4.17-1.9h5.92c.51,0,.93-.41.93-.93s-.41-.93-.93-.93ZM249.37,66.54c0,3.32-1.45,6.3-3.75,8.35l-5.67-6.76c.38-.42.61-.98.61-1.59,0-.03,0-.05,0-.08l8.7-1.53c.08.53.12,1.06.12,1.61ZM226.96,66.54c0-3.32,1.45-6.3,3.75-8.35l5.67,6.76c-.38.42-.61.98-.61,1.59,0,.03,0,.05,0,.08l-8.7,1.53c-.08-.53-.12-1.06-.12-1.61ZM238.5,68.91c.34-.05.65-.16.93-.34l5.67,6.76c-1.83,1.44-4.11,2.33-6.6,2.41v-8.83ZM237.83,64.18c-.34.05-.65.16-.93.34l-3.12-3.72h4.04v3.38ZM238.5,55.35c.46.01.92.05,1.36.12-.47.01-.92.02-1.36.03v-.15ZM237.83,55.52c-.14,0-.28,0-.42.01l-.02-.16c.15-.01.29-.02.44-.02v.17ZM232.72,59.53l-1.49-1.77c.37-.29.76-.57,1.17-.81l.32,2.58ZM235.89,67.29c.28.85,1.02,1.49,1.93,1.62v8.83c-5.25-.16-9.6-3.93-10.63-8.92l8.7-1.53ZM240.44,65.8c-.28-.85-1.02-1.49-1.94-1.62v-3.38h9.27c.63,1.06,1.1,2.23,1.36,3.47l-8.7,1.53ZM251.25,50.86c.59,0,1.06.48,1.06,1.06v3.47c-1.72-.07-4.25-.07-6.91-.03-2.08-1.35-4.57-2.14-7.24-2.14-.35,0-.69.02-1.03.04l-.29-2.41h14.41ZM234.75,49.01h-1.45l-1.27-10.36,1.48.3,1.23,10.06ZM233.52,50.86h1.45l.33,2.68c-.48.1-.94.24-1.4.39l-.37-3.07ZM255.62,60.8v11.71c-.43-.32-.92-.55-1.46-.67v-11.04h1.46Z"/>
  <path class="cls-3" d="M244.29,231.5c2.45,7.22,4.51,14.91,2.22,22.48l2.99-4.37c3-3.5,6.77-6.22,10.63-8.69-1.39,3.54-2.98,7.36-5.22,10.44-1.71,2.35-4.14,4.05-6.4,5.83,4.15-1.69,8.74-1.56,13.09-.85.44.07.97.16,1.4.26.11.03.27-.01.24.14-5.07,2.71-10.64,4.89-16.5,3.66l1.6,1.11c.47.26,2.92,3.3,2.71,3.54-2.13-.74-4.11-1.67-5.59-3.43l-.83-1.22c-.05.86.19,1.76.22,2.6.06,1.36.18,2.5-1.55,2.5l.66-5.31c-.44.4-.67.98-1.05,1.44-1.45,1.75-3.56,2.78-5.7,3.43.82-1.27,1.7-2.52,2.83-3.54l1.6-1.11c-5.86,1.24-11.43-.96-16.5-3.66-.03-.16.13-.11.24-.14.48-.13,1-.2,1.49-.28,4.36-.68,8.84-.82,12.99.87-1.52-1.22-3.14-2.35-4.54-3.71-3.37-3.26-5.35-8.28-7.08-12.57,4.5,2.9,8.98,6.13,12.05,10.59l1.57,2.47c-1.68-5.64-1.03-11.27.48-16.85.43-1.6,1.07-4,1.73-5.47.06-.13-.05-.2.23-.16Z"/>
</svg>