<?xml version="1.0" encoding="UTF-8"?>
<svg id="Capa_1" data-name="Capa 1" xmlns="http://www.w3.org/2000/svg" viewBox="0 0 564.36 241.06">
  <defs>
    <style>
      .cls-1 {
        fill: #a4cfd8;
      }

      .cls-2 {
        fill: #adcdd2;
      }

      .cls-3 {
        fill: #99896e;
      }

      .cls-4 {
        fill: #9a8b6f;
      }

      .cls-5 {
        fill: #e94e24;
      }

      .cls-6 {
        fill: #ccdff4;
      }

      .cls-7 {
        fill: #c9dde1;
      }

      .cls-8 {
        fill: #f29584;
      }

      .cls-9 {
        fill: #e6eff1;
      }

      .cls-10 {
        fill: #d0a99a;
      }

      .cls-11 {
        fill: #ec6839;
      }

      .cls-12 {
        fill: #6b6664;
      }

      .cls-13 {
        fill: #adcdd1;
      }

      .cls-14 {
        fill: #6b6664;
      }

      .cls-15 {
        fill: #cadee1;
      }

      .cls-16 {
        fill: #fff;
      }

      .cls-17 {
        fill: #8cbdc1;
      }

      .cls-18 {
        fill: #eceae3;
      }

      .cls-19 {
        fill: #eceae3;
      }

      .cls-20 {
        fill: #ee7952;
      }

      .cls-21 {
        fill: #c5bca3;
      }

      .cls-22 {
        fill: #d1c8b2;
      }

      .cls-23 {
        fill: #b8ac8f;
      }

      .cls-24 {
        fill: #30323f;
      }

      .cls-25 {
        fill: #d0c8b1;
      }

      .cls-26 {
        fill: #eb6739;
      }

      .cls-27 {
        fill: #6b6865;
      }
    </style>
  </defs>
  <g>
    <ellipse class="cls-19" cx="411.97" cy="133.44" rx="134.36" ry="15"/>
    <g>
      <path class="cls-17" d="M407.93,99.8c.16-.83.25-1.69.25-2.57,0-7.63-6.36-13.82-14.21-13.82-2.52,0-4.89.64-6.94,1.76-1.1-3.97-4.82-6.9-9.26-6.9-1.47,0-2.87.32-4.11.9-1.97-2.32-4.95-3.79-8.28-3.79-4.91,0-9.06,3.21-10.34,7.59-.78-.13-1.58-.2-2.39-.2-7.85,0-14.21,6.19-14.21,13.82,0,1.11.13,2.18.39,3.21h69.11Z"/>
      <path class="cls-15" d="M348.91,85.98c0,12.18-7.15,22.05-15.97,22.05s-15.97-9.87-15.97-22.05,8.62-78.23,17.44-78.23,14.49,66.06,14.49,78.23Z"/>
      <path class="cls-17" d="M322.04,88.72c0,10.94-5.23,19.81-11.68,19.81s-11.68-8.87-11.68-19.81,6.31-70.28,12.76-70.28,10.6,59.34,10.6,70.28Z"/>
      <path class="cls-17" d="M375.13,78.75c0,13.15-9.31,23.81-20.79,23.81s-20.79-10.66-20.79-23.81S344.25,0,355.73,0s19.41,65.59,19.41,78.75Z"/>
      <path class="cls-2" d="M377.89,114.52c.08-.56.12-1.14.12-1.73,0-6.06-4.26-10.98-9.51-10.98-1.75,0-3.39.55-4.79,1.5-2.61-4.65-7.79-7.82-13.76-7.82-1.6,0-3.14.23-4.59.65-2.1-2.97-5.11-5.16-8.58-6.1-.96-8.26-8.48-14.85-16.42-14.85s-14.29,5.22-15.72,12.87c-5.06.27-8.03,3.89-10.69,8.14-2.18-1.12-4.68-1.76-7.36-1.76-8.31,0-15.05,6.18-15.05,13.8,0,2.26.59,4.39,1.64,6.27h104.71Z"/>
    </g>
    <g>
      <g>
        <rect class="cls-21" x="348.71" y="20.59" width="176.54" height="112.85"/>
        <rect class="cls-22" x="345.4" y="16.49" width="181.93" height="4.1"/>
        <rect class="cls-15" x="356.16" y="30.79" width="78.91" height="20.98"/>
        <polygon class="cls-12" points="435.08 30.79 356.16 30.79 356.16 51.76 435.08 51.76 435.08 30.79 435.08 30.79"/>
        <polygon class="cls-23" points="348.71 22 525.25 26.02 525.25 20.59 348.71 20.59 348.71 22"/>
        <rect class="cls-27" x="358.51" y="83.27" width="92.76" height="49"/>
        <rect class="cls-27" x="361.66" y="86.7" width="86.89" height="45.74"/>
        <rect class="cls-2" x="364.99" y="89.59" width="80.41" height="10.51"/>
        <rect class="cls-2" x="364.99" y="102.96" width="22.77" height="29.29"/>
        <rect class="cls-2" x="390.03" y="102.96" width="29.28" height="29.29"/>
        <rect class="cls-2" x="421.33" y="102.96" width="24.07" height="29.29"/>
        <polygon class="cls-15" points="399.62 102.96 419.31 102.96 419.31 113.79 415.8 132.24 394.05 132.24 399.62 102.96"/>
        <g>
          <g>
            <rect class="cls-27" x="393.87" y="108.53" width="21.91" height="23.75"/>
            <rect class="cls-15" x="394.91" y="109.6" width="19.82" height="22.67"/>
            <rect class="cls-27" x="404.45" y="109.6" width=".74" height="22.67"/>
          </g>
          <g>
            <path class="cls-27" d="M402.69,120.94c0-.26.21-.47.47-.47s.47.21.47.47-.21.47-.47.47-.47-.21-.47-.47Z"/>
            <path class="cls-27" d="M406.02,120.94c0-.26.21-.47.47-.47s.47.21.47.47-.21.47-.47.47-.47-.21-.47-.47Z"/>
          </g>
        </g>
        <polygon class="cls-15" points="372.57 102.96 384.63 102.96 380.78 132.24 368.72 132.24 372.57 102.96"/>
        <polygon class="cls-15" points="386.38 89.59 385 100.1 372.94 100.1 374.32 89.59 386.38 89.59"/>
        <polygon class="cls-15" points="427.02 102.96 439.08 102.96 435.23 132.24 423.17 132.24 427.02 102.96"/>
        <polygon class="cls-15" points="440.84 89.59 439.46 100.1 427.4 100.1 428.78 89.59 440.84 89.59"/>
        <polygon class="cls-15" points="423.92 89.59 421.92 100.1 400.17 100.1 402.17 89.59 423.92 89.59"/>
        <polygon class="cls-6" points="421.35 105.11 421.39 105.11 421.35 105.35 421.35 105.11"/>
        <rect class="cls-23" x="346.63" y="68.45" width="182.55" height="4.91"/>
        <rect class="cls-27" x="354.52" y="131.26" width="145.72" height="2.18"/>
        <polyline class="cls-15" points="431.44 32.6 431.44 49.95 359.03 49.95 359.03 32.6 431.44 32.6"/>
        <polygon class="cls-12" points="518 30.79 439.08 30.79 439.08 51.76 518 51.76 518 30.79 518 30.79"/>
        <polyline class="cls-15" points="514.37 32.6 514.37 49.95 441.95 49.95 441.95 32.6 514.37 32.6"/>
      </g>
      <g>
        <rect class="cls-27" x="448.55" y="83.27" width="46.75" height="48.91"/>
        <rect class="cls-2" x="451.88" y="87.77" width="40.27" height="10.51"/>
        <rect class="cls-2" x="451.88" y="101.13" width="18.89" height="29.29"/>
        <rect class="cls-2" x="473.04" y="101.13" width="18.89" height="29.29"/>
        <polygon class="cls-15" points="480.82 101.13 491.93 101.13 491.93 111.97 488.42 130.42 475.25 130.42 480.82 101.13"/>
        <polygon class="cls-15" points="458.19 101.13 467.63 101.13 463.79 130.42 454.34 130.42 458.19 101.13"/>
        <polygon class="cls-15" points="469.39 87.77 468.01 98.28 458.56 98.28 459.94 87.77 469.39 87.77"/>
        <polygon class="cls-15" points="492.15 87.77 492.15 98.28 481.36 98.28 483.36 87.77 492.15 87.77"/>
        <polygon class="cls-6" points="493.97 103.29 494.01 103.29 493.97 103.53 493.97 103.29"/>
      </g>
    </g>
  </g>
  <ellipse class="cls-18" cx="282.18" cy="209.56" rx="282.18" ry="31.5"/>
  <ellipse class="cls-19" cx="242.97" cy="213.78" rx="218.71" ry="24.42"/>
  <g>
    <g>
      <g>
        <g>
          <path class="cls-8" d="M237.56,90.28c-4.39-3.6-8.7-3.86-6.3-12.16l-7.94-1.09c-.8,6.24-.41,6.71-3.28,8.82-.63.46-4.57,2.29-4.57,2.29,5.6,5.65,16.59,6.05,22.09,2.14Z"/>
          <path class="cls-20" d="M231.02,79.01c-.35,1.5-.59,2.78-.38,4.26-2.83-2.33-7.01-1.26-7.46-4.96,3.52,2.02,6.51,1.64,7.84.7Z"/>
          <path class="cls-4" d="M220.8,65.91c-1.11,5.35-.59,11.2,1.6,13.77,2.84,3.31,7.96,2.04,10.52-3.39,8.21-17.39-10.05-20.35-12.13-10.38Z"/>
        </g>
        <path class="cls-4" d="M235.06,70.83c-1.18-.45-1.46,2.08-1.56,3.34-.2,2.48,3.43-2.63,1.56-3.34Z"/>
        <path class="cls-20" d="M234.17,73.65s.09-.02.12-.05c.59-.59.78-1.38.58-1.73-.09-.15-.25-.21-.42-.16-.09.03-.14.12-.12.21.03.09.12.14.21.12.01,0,.02,0,.02,0,0,0,.03.04.03.14.02.28-.15.77-.56,1.18-.07.07-.07.18,0,.24.03.03.08.05.12.05Z"/>
      </g>
      <g>
        <path class="cls-4" d="M244.74,204.06c-1.09,1.07-2.97,1.09-4.79.32l-.78-8.38,5.41-.5.16,8.56Z"/>
        <path class="cls-11" d="M244.69,203.44c-.78.35-2.8,1.1-4.71.65-.06-.02-.13,0-.18.04-.03.02-.08.07-.08.16.01,1.55-.01,2.72-.03,3.57-.06,2.54-.06,2.64,1.04,3.59,2.69,2.32,3.48,2.5,4.17,2.66,1.46.33,3.62,0,5.33-.32.34-.07.58-.2.72-.42.19-.29.2-.75.05-1.36-.34-1.32-.81-2.33-2.38-3.83-1.04-1.01-1.74-1.61-2.19-2-1-.86-1.02-.9-1.33-2.11-.04-.15-.08-.31-.13-.5-.02-.06-.06-.11-.11-.13-.03-.01-.06-.02-.09-.02-.03,0-.05,0-.08.02Z"/>
      </g>
      <g>
        <path class="cls-4" d="M212.27,203.91c1.18.97,3.06.83,4.8-.1l.03-8.41-5.43-.03.59,8.54Z"/>
        <path class="cls-11" d="M217.02,203.53c-1.86.61-3.94.04-4.74-.24-.06-.02-.12-.01-.17.02s-.09.08-.1.14c-.03.19-.06.36-.09.51-.2,1.22-.23,1.27-1.14,2.21-.42.44-1.06,1.09-2.01,2.19-1.42,1.64-1.81,2.68-2.03,4.03-.1.62-.04,1.07.17,1.35.16.2.4.32.75.35,1.74.17,3.91.31,5.34-.15.68-.22,1.45-.47,3.92-3.01,1.01-1.04,1-1.14.72-3.67-.09-.85-.22-2.01-.35-3.56,0-.09-.06-.13-.09-.15-.03-.02-.07-.03-.12-.03-.02,0-.05,0-.07.01Z"/>
      </g>
      <path class="cls-15" d="M238.33,87.29c-.95.62-1.76,2.91-2.01,5.68-.02.24-.5,9.67-.52,9.87-.24,1.59,6.03,5.56,6.03,12.38,0,5.24.07,11.72.15,19.76,0,.22.12.42.31.52,1.85,1.07,3.77,1.18,5.72.33.21-.09.35-.3.36-.52.47-7.92,1.19-12.2,1.26-17,.04-2.87-.13-5.59-.34-6.8-.68-3.75-1.11-6.56-1.46-8.87-.6-3.94-.93-6.11-1.87-8.79-1.29-3.69-4.73-6.02-6.73-6.68-.11-.04-.22-.05-.32-.05-.19,0-.38.06-.56.18Z"/>
      <path class="cls-1" d="M215.04,114.81c-.92,5.55-6.93,12.34-8.08,43.07-.45,11.99-.29,24.14-3.25,35.76-.63,2.49-3.17,5.88-1.28,8.34,2.48,1.87,5.83-.43,7.38-1.63,5.39-4.18,13.09-5.15,19.35-2.43,6.26,2.72,6.12,3.72,13.03,1.62,6.28-1.9,13.12.32,19.59,1.37.55.09,1.04-.39.95-.94-.83-5.12-5.06-9.18-7.64-13.8-3.18-5.69-4.12-7.17-16.5-72.95-.59-3.13-.11-5.62.16-8.98-14.02,5.44-18.9.78-24.66,1.63.61,3.45,1.57,5.19.95,8.95Z"/>
      <path class="cls-15" d="M207.38,120.83c-2.52-.07-15.47-8.53-18.37-10.43-.28-.18-.44-.5-.42-.83.1-1.68.68-3.01,1.81-4.19.26-.26.64-.35.99-.23,1.97.71,4.03,1.44,6.1,2.18,2,.72,4,1.43,5.92,2.12.1.04.47-.14.5-.24,1.32-3.86,2.3-7.18,3.17-10.1.93-3.13,1.66-5.6,2.46-7.56,1.4-3.45,4.67-5.37,7.43-4.39,3.14,1.12,3.02,4.74-.15,15.05l-.62,2.04c-2.58,8.44-4.19,13.69-6.43,15.68-.71.63-1.49.94-2.38.91Z"/>
      <g>
        <path class="cls-24" d="M230.95,84.44c1.8.37,4.08,1.11,8.06,2.49,2.06,11.85-1.74,21.42-.39,29.87-8.56,3.4-15.87,4.88-23.8,1.56,1.06-6.39-5.28-23.22-1.54-31.11,2.69-1.16,5.2-2.41,8.64-3.12,2.81,4.67,4.97,3.86,9.03.31Z"/>
        <path class="cls-15" d="M213.73,118.26h0l.1-.58c-.31-2.63.55-6.23-.24-10.72-1.26-7.09-2.68-15.12-.39-19.94l.03-.06.06-.03c.43-.18.85-.37,1.28-.56,2.21-.97,4.49-1.97,7.39-2.58l.12-.02.06.1c1.18,1.96,2.26,2.95,3.38,3.13,1.5.23,3.17-.92,5.39-2.86l.06-.06.08.02c1.85.38,4.27,1.17,8.08,2.5l.1.03.02.1c1.13,6.52.49,12.45-.08,17.68-.47,4.32-.6,7.78,0,11.57l.06.45.24.41c-5.19,2.06-10.67,3.4-15.42,3.4-3.04,0-7.17-.67-10.32-1.99Z"/>
      </g>
      <path class="cls-10" d="M228.78,91.23c.08,0,.16-.04.21-.1,1.41-1.65,3.34-3.91,4.17-6.02.03-.09,0-.19-.1-.22-.09-.03-.19,0-.22.1-.8,2.03-2.66,4.23-4.05,5.86-.53-1.08-1.29-1.97-2.26-2.65-.15-.11-.36-.1-.51.02-.83.68-1.42,1.53-1.78,2.52-1.83-1.86-3.61-3.87-4.31-6.05-.03-.09-.13-.14-.22-.11-.09.03-.14.13-.11.22.73,2.28,2.57,4.35,4.46,6.26.07.07.17.1.27.08.1-.02.17-.09.21-.19.33-.96.9-1.79,1.7-2.45.03-.02.07-.02.09,0,.94.66,1.68,1.53,2.18,2.59.04.09.13.15.22.16.01,0,.02,0,.04,0Z"/>
      <path class="cls-27" d="M233.84,63.57c-4.29-3.5-15.28-2-14.27.22.47,1.03,19.53,4.06,14.27-.22Z"/>
      <path class="cls-1" d="M242.95,88.96c-1.57-1.51-4.86-2.86-6.79-3.5-1.36-.45.99-1.42-.94-2.59-.59-.36-1.93-.63-2.21-2.41-.16-1,.22-1.19.92-1.91.58-.59,2.58-1.98,3.01-2.71,2.13-3.6.94-8.67-.74-12.56s-5.17-6.55-10.72-5.94c-3.33.37-4.21,1.82-5.35,4.38-.98,2.19-3.41,6.61.36,14.43.35.72.58,1.49.7,2.29.28,1.88.36,2.8-2.47,4.05-.33.15-.53.46-.62.82-.26,1.01-4.33,1.18-7.08,5.26-.96,1.43,5.79,2.23,8.25,2.55,3.45.45,11.54,6.79,21.91.67,2.15-1.27,3-1.65,1.79-2.83ZM228.55,78.86c-.78.46-2.03.77-3.59.77-3.17,0-3.23-5.22-3.67-6.94-.68-2.66.43-3.07.19-4.78-.66-4.67,5.63-7.38,9.73-4.73,5.75,3.71,1.71,13.12-2.66,15.69Z"/>
    </g>
    <path class="cls-4" d="M242.51,134.35c1.49.76,3.08,1.2,4.73,1.41-.29,3.26-.77,6.5-1.74,9.64-.39,1.25-1.09,2.29-1.92,1.26-.97-1.21-.58-4.31-.88-5.84-.14-.7-.69-2.1-1.92-1.36-.27.16-1.36,1.52-1.67,1.57-.99.17-1.61-.3-1.33-.89.23-.48.79-1.01,1.08-1.45,1.05-1.59,2.51-1.52,3.64-4.35Z"/>
    <path class="cls-4" d="M191.76,105.83c-1.5,1.33-2.69,2.9-3.65,4.65-3.51-1.76-6.9-3.71-9.97-6.17-1.23-.98-.98-2.1.54-2.57,1.78-.55,3.62-.66,5.46-.32.85.16,1.19.02.98-.91-.08-.36,0-.78.07-1.15.24-1.17,1.02-1.49,2.02-.85.54.35.94.83,1.3,1.35,1.31,1.87,2.23,3.94,3.25,5.97Z"/>
  </g>
  <g id="doctor2">
    <g>
      <path class="cls-27" d="M173.41,215.12c-.67-.11-.58,1.53-.33,1.66,1.64.87,5.68.99,8.86,1.21,3.71.26,7.53.07,7.85-.49.28-.49.67-1.49-.66-2.13-.61-.29-9.03-.82-9.23-.77-.19.05-6.49.51-6.49.51Z"/>
      <path class="cls-4" d="M177.55,203.48c.14,2.45,1.51,7.08,1.94,7.99.17.36,1.99,2.42.99,3.48-1.53,1.63-5.36,1.85-6.35-1.99,1-4.08-1.75-7.69-1.75-8.9s5.08-1.88,5.16-.58Z"/>
      <path class="cls-4" d="M139.43,204.62c-1.16,3.04-.76,6.11-.41,6.97.17.43,1.72,5.29-2.59,3.95-2.8-.87-3.36-1.83-3.01-2.42,1.73-2.86.77-7.11.77-8.26s5.67-1.37,5.24-.25Z"/>
      <path class="cls-27" d="M132.73,215.22c-.55-.12-.35,1.79-.2,1.99.15.2,3.09.85,6.24.77,2.85-.07,4.66-.23,4.89-.75.12-.27-.06-1.51-.62-1.86-.49-.31-5.2-.6-5.36-.56-.16.04-4.96.42-4.96.42Z"/>
      <path class="cls-27" d="M180.39,211.54c-.24,1.71-6.51,2.64-6.84,1.72-2.32-6.4-9.12-17.23-10.73-27.94-.34-2.27-.41-7.47.54-9.79-3.06-4.2-5.15-9.27-6.56-14h0c-1.1-3.7-1.79-7.19-2.22-9.9-.51-3.26-.64-5.39-.64-5.39l4.67-16.33.11-.39,2.84-9.91,9.31,5.32s.04.8.11,2.21c.23,4.47.79,15.03,1.45,25.47.56,8.89,1.2,17.69,1.77,22.53.84,7.14,4.18,27.16,6.2,36.41Z"/>
      <path class="cls-27" d="M165.32,130.78s-2.61,9.44-6.46,21.5c-.94,2.96-1.96,6.07-3.04,9.24-1.47,4.35-3.05,8.8-4.68,13.11-.97,2.57-1.2,7.7-3.36,13.58-2.02,5.47-5.96,11.37-7.71,22.57.05,1.91-5.98,1.51-6.58.38,0-.84-1.24-20.67.98-27.88.95-3.09,3.46-7.66,6.13-10.57,0-5.25-.57-16.04-1.04-24.18-.31-5.39-.46-10.8-.11-15.44.14-1.87.36-3.62.68-5.19l16.32,1.87,1.17.13,7.69.88Z"/>
      <path class="cls-4" d="M138.26,210.17c.62.02,1.53,1.41,2.03,2.87.58.62,1.65.84,2.2,1.66.39.57.87,1.58.66,1.85-.73.95-9.99.79-10.32-.07-.43-1.11.47-2.13.6-3.23.11-.91.02-1.4.26-1.88.12.09.3.17.46.26-.03.71-.05,1.77.88,1.9.86-2.55,2.2-3.4,3.22-3.37Z"/>
      <path class="cls-4" d="M173.44,215.62c.27.94,13.75,2.46,15.69,1.21,1.03-.67.11-1.43-1.05-1.92-1.35-.57-4.63-1.92-5.89-2.48-1.03-.46-1.29-.86-1.66-1.64-.16-.32-.39-.59-.53-.49-.41.3-.5,1.32-.32,2.13.17.79.36,1.55.04,1.73-.59.32-1.56-.15-2.52-.81-1.5.33-3.04.39-3.51.07-.28.67-.51,1.24-.24,2.19Z"/>
    </g>
    <path class="cls-19" d="M190.07,107.97c-3.37,9.96-8.38,15.57-11.39,15.77-6.25.4-15.01-8.07-15.01-8.07l26.4-7.69Z"/>
    <path class="cls-17" d="M156.93,81.35c-3.56.66-15.79,1.64-20.18,9.58-1.85,3.35-.15,52.43.96,53.9,1.77,2.35,32.62,5.03,36.28-.48,1.04-1.56,6.4-49.12-.72-56.33-3.6-3.64-16.34-6.67-16.34-6.67Z"/>
    <path class="cls-4" d="M165.21,58.97c.98.43,2.76,9.37-1.03,11.81-1.96,1.26-9.43.88-10.77.04-1.34-.84-1.93-4.75-.52-7.71.55-1.16,1.51-1.87,2.73-2.24,1.51-.46,3.58-.12,5.75-.46,1.67-.27,2.88-1.86,3.84-1.44Z"/>
    <path class="cls-19" d="M153.58,66.74c-.6,5.38-2.04,15.51-2.44,16.47-.4.96,3.51,3.11,6.34,3.13,3.9.03,6.18-1.45,6.18-2.33s-1.28-9.81-1.28-9.81l-3.05-6.76-5.74-.71Z"/>
    <path class="cls-19" d="M161.97,64.01c1.06.31,2.05-1.11,2.7-.36.91,1.05,1.33,1.99,1.2,4.68-.23,4.88-2.82,10.41-4.5,10.51-5.23.3-7.37-6.55-7.42-6.88-.36-2.25.09-1.93-.27-2.86-.35-.93-1.19-2.47-.69-3.13.5-.66,1.44.45,1.44.45,0,0,.22-1.19,2.02-2.78,1.12-.98,2.67-.49,5.53.36Z"/>
    <path class="cls-17" d="M143.63,84.83c-13.59,3.31-14.49,25.97-13.36,28.4,1.12,2.42,21.83-.59,22.57-2.03.74-1.44.38-28.71-9.21-26.37Z"/>
    <path class="cls-11" d="M203.43,89.59h-23.92c-.2,0-.38.12-.46.3l-11.76,27.25c-.09.21.06.44.29.44h16.42c.16,0,.31-.08.4-.21l19.43-27c.24-.33,0-.79-.4-.79Z"/>
    <path class="cls-19" d="M132.17,112.73c-.53,1.21,1.06,11.16,2.73,12.19,2.54,1.57,28.38-1.7,31.39-2.8,2.58-.95,4.92-2.84,6.55-4.13,1.87-1.48,1.68-3.86,1.68-4.56,0-.55-.59.21-.62-.36-.04-.79.43-2.83.1-2.83-1.22.02-3.14,4.77-3.14,4.77,0,0,.88-5.18.1-5.18-1.14,0-2.14,7.23-3.48,6.94-1.53-.33.44-3.56-1.2-4.09-.45-.15-.36.89-.53,1.61-.16.74-1.1,1.19-1.43,2.18-.31.93,0,1.74-.36,1.91-.88.4-16.34-3.72-21.08-3.72.03-.59-.03-1.41-.03-1.41,0,0-9.63-2.95-10.71-.5Z"/>
    <path class="cls-19" d="M201.47,99.09c-.63-1.09-4.95-1.59-5.95-1.68-1-.09-1.06.93-.33,1.45.74.52,1.64,1.01,1.64,1.01,0,0-2.98.14-3.18.58-.2.44-1.02,2.04-.9,2.58.12.54,1.8,1.35,2.32,1.43.52.08,6.77-4.73,6.4-5.37Z"/>
  </g>
  <g id="doctor">
    <path class="cls-22" d="M126.14,131.23c.29.43,3.99-.26,5.75,1.19.7.58,3.25,3.92,3.32,5.02s-2.96-1.02-3.61-1.25c-.65-.23-4.57-1.25-4.37-.44.2.81,3,1.21,2.46,2.66-.08.22-.92-.08-1.91-.26-.59-.11-1.28-.02-1.91-.28-1.34-.57-2.48-3.49-2.38-4.16.1-.67-2.01-3.15-1.48-5.22.53-2.07,3.53,1.87,4.12,2.73Z"/>
    <path class="cls-7" d="M86.39,119.61c3.47-7.71,2.4-15.46,2.63-17.49.66-5.98,8.88-12.96,8.88-12.96,1.66.69,5.48,3.25,7.14,5.27,1.49,1.82,5.31,19.88,6.65,22.04,1.76,2.83,15.81,13.52,15.81,13.52,0,0-3.82,8.51-6.5,8.51-1.61,0-5.57-5.23-8.68-8.51.83,2.07,11.53,26.07,10.14,28.15-7.06,10.55-56.33,6.05-56.33.76,0-5.11,13.49-24.21,20.27-39.28Z"/>
    <path class="cls-22" d="M70.04,111.76c-2.71,1.04-9.41-3.32-10.51-2.94-1.16.41-2.56,1.24-5.26,1.56-2.54.3-4.69-1.57-5.61-2.38-.92-.81,3.68-.75,4.43-.96.97-.28,2.95-1.15,3.4-1.96.74-1.32-1.56-2.88-.7-4.25.3-.48.6.39,1.25,1.08.82.86,1.48.68,2.05,1.4.81,1.03,1.13,1.77,1.29,2,.45.61,11.75,5.65,9.65,6.45Z"/>
    <g>
      <g>
        <path class="cls-22" d="M82.19,211.48c-1.01,2.64-.66,6.24-.35,6.99.15.37,1.49,4.6-2.25,3.44-2.44-.76-2.92-1.59-2.62-2.1,1.5-2.49.67-7.11.67-8.11,0-1.01,4.93-1.19,4.56-.22Z"/>
        <path class="cls-27" d="M76.37,221.62c-.48-.11-.3,1.56-.17,1.73.13.17,2.69.74,5.43.67,2.48-.06,4.06-.2,4.26-.66.1-.24-.06-1.31-.54-1.62-.43-.27-4.52-.53-4.66-.49-.14.04-4.32.36-4.32.36Z"/>
        <path class="cls-11" d="M81.17,217.22c.54.02,1.33,1.23,1.77,2.5.51.54,1.43.73,1.92,1.45.34.5.76,1.37.58,1.61-.63.83-8.69.69-8.98-.06-.38-.97.41-1.85.52-2.81.1-.87,0-1.31.31-1.77.1-.14.34-.06.33.22-.02.6-.11,1.67.76,1.79.75-2.22,1.91-2.96,2.81-2.93Z"/>
      </g>
      <g>
        <path class="cls-22" d="M114.79,211.67c.3,3.11,1.29,6.14,1.59,6.9.15.37,1.49,4.6-2.25,3.44-.69-.22-1.23-.44-1.63-.65-1.02-.55-.75-1.9-.67-2.15.79-2.56-1.04-6.4-1.04-7.31,0-1.01,3.91-1.26,4.01-.22Z"/>
        <path class="cls-27" d="M111.29,221.72c-.48-.11-.3,1.56-.17,1.73.13.17,2.31.74,5.05.67,2.48-.06,4.9-.22,5.1-.68.1-.24.24-1.29-.24-1.6-.43-.27-5.65-.53-5.79-.49-.14.04-3.94.36-3.94.36Z"/>
        <path class="cls-11" d="M115.71,217.33c.54.03,1.57,1.98,2.14,2.5.55.5,2.19.73,2.67,1.45.34.5.39,1.38.21,1.62-.63.83-9.08.68-9.37-.07-.38-.97-.05-1.6.07-2.55.1-.87.21-1.2.27-1.76.02-.21.24-.31.39.04.24.55.46,1.57.81,1.7.51.13.13-3.06,2.8-2.93Z"/>
      </g>
      <path class="cls-5" d="M81.51,175.05c-2-5.35-7.97-27.11-5.46-37.53.86-3.58,7.07-13,10.27-16.41h15.22s8.6,25.66,10.55,51.83c.15,1.95,1.01,7.51,1.31,11.31.59,7.54.55,20.07,1.72,26.9-.21,1.9-4.68,2.37-4.88,1.31-1.69-8.74-9.62-20.82-9.93-28.49-.07-1.71.66-5.64,1.49-8.22-3.37-8.32-6.24-21.3-7.67-28.86-.99,7.44-2.2,20.8-3.14,29.58-.28,2.65-.51,7.6-1.2,10.26-1.16,4.51-4.52,9.76-7.58,26.27.05,2.12-4.36.86-4.89-.39,0-.94-2.4-21.77-.83-29.77.31-1.61,2.17-5.03,5.02-7.79Z"/>
    </g>
    <path class="cls-9" d="M88.96,89.98c-1.7.77-3.87,3.62-4.63,5.51-.5,1.25,3.39,13.35,1.03,23.83-1.02,4.52,16.25,2.5,16.18,1.77-.66-6.22-1.51-29.18-3.64-31.94-1.33-1.72-4.42-1.22-8.94.82Z"/>
    <g>
      <path class="cls-11" d="M83.58,74.13c-2.05-1.52-2.84-4.73-1.44-5.83.63-.5,1.77-.59,2.83.04-.37-.42-.66-.89-.87-1.41-.22-.57-.03-1.06.41-1.4.34-.25,1.56-.47,3.28.68-.54-.51-.78-1.74-.26-2.28,1.03-1.07,2.98-.05,3.91.69-.48-1.14-.36-2.16.27-2.37,1.04-.35,2.83.61,3.77,2.66-.1-.41-.13-1.48.52-1.96.63-.46,1.62.37,1.76,1.14.6-1.56,3.53-.48,2.87,2.34,1.42-.58,2.54,2.43.42,4.42.34-.09.64-.34.79-.66,1.38,2.63-.91,5.67-2.65,6.03-2.61,2.46-1.78,3.85-5.23,5.63-2.44,1.26-4.5.49-4.78-.37-2.14.56-3.91-1.4-3.38-3.37-.94.12-2.3-.13-2.79-.94-.7-1.15-.06-2.64.55-3.05Z"/>
      <path class="cls-22" d="M91.38,77.28c-.25,3.98-1.74,11.44-2.42,12.7-.95,1.77,4.17,3.45,6.32,2.88,2.15-.57,2.78-1.7,2.84-2.46.06-.76-2.01-5.24-2.26-11.86-.16-4.26-4.38-2.88-4.49-1.26Z"/>
      <path class="cls-22" d="M98.72,68.73c3.56,5.86.74,15.47-1.53,15.56-1.85.08-7.54-2.74-7.22-7.38-1.68-.02-2.36-1.88-1.93-2.73.78-1.52,2.02.02,2.02.02,0,0,1.03-.71.38-3.47,7.14,1.3,8.27-2.01,8.27-2.01Z"/>
    </g>
    <path class="cls-7" d="M89.18,89.42c-1.52.33-5.44,2.62-6.53,3.63-1.23,1.14-8.59,14.26-9.82,15.11-1.12.77-11.83-3.48-11.83-3.48l-3.82,10.29s15.07,3.44,18.1,2.36c2.3-.82,7.19-10.57,7.83-10.17.83.52-8.35,20.22-13.34,30.35-2.69,5.47-8.83,18.56-7.44,20.64,3.79,5.66,17.54,8.34,19.18,7.96,3.09-7.09,10.95-54.87,10.28-60.85-.66-5.98-2.62-15.83-2.62-15.83Z"/>
  </g>
  <g>
    <g>
      <path class="cls-25" d="M267.36,151.25c.15,2.58-.37,13.63-.54,21.52-.38,17.21,1.54,37.21.7,39.82-1.23,3.8,2.17,2.72,2.25-.05.14-5.03,11.03-26.29,9.98-33.04-.55-3.53-1.71-5.8-1.89-7.94-.18-2.14,5.67-20.52,5.67-20.52l-16.16.2Z"/>
      <path class="cls-25" d="M281.88,152c.73,2.48,2.13,12.89,3.99,20.56.57,2.37,2.57,8.43,3.86,12.65,3.89,12.65,8.18,24.15,8.01,26.19-.34,3.98,3.73,2.09,2.53-.4-1.2-2.49,2.28-26.92.25-33.44-2.03-6.52-4-7.1-4.65-9.14-.65-2.04,1.69-20.34,1.69-20.34l-15.69,3.92Z"/>
      <path class="cls-13" d="M265.73,151.92c-.38,5.24-.25,14.11,0,14.9.25.78,7.77,2.03,16.37,2.47,8.61.43,15.9-2.4,16.41-3.04.51-.64-.04-16.63-.29-17.98-.25-1.35-32.49,3.66-32.49,3.66Z"/>
      <path class="cls-16" d="M293.42,88.69c-1.55-1.81-3.67-3.27-6.53-4.76-1.86-1.2-6.46-2.23-8.83-.74-3.15,1.47-6.28,3.95-8.18,6.07-.13.1-.25.2-.37.33-8.59,9.05-15.55,23.36-14.55,28.46.83,4.24,5.56,5.23,9.93,4.79-.77,14.6-.99,28.98-.36,30.38,1.22,2.73,31.42,2.78,34.9.17.42-.31.14-16.26-.7-31.88,3.09.64,6.78.72,8.31-1.49,5.47-7.91-9.41-27.46-13.62-31.32ZM298.29,113.5c-.11-1.68-.24-2.8-.36-4.39.9,1.4,1.62,2.73,2.05,4.11-.18.07-1.03.17-1.69.28Z"/>
      <g>
        <path class="cls-14" d="M277.48,72.51c-2.15-2.29-3.2-9.34,1.57-13.59,3.93-3.5,7.66-1.42,9.01-.59,2.14,1.31,5.18,8.49-.58,14.07-5.76,5.58-6.37,3.99-10,.11Z"/>
        <path class="cls-26" d="M282.76,83.79c1.43.23,3.85,1.18,5.19,2.92,1.34,1.74-7.74,13.8-8.29,13.8-1.17,0-3.58-12.62-3.01-14.11.38-1,4.5-2.86,6.11-2.61Z"/>
        <path class="cls-25" d="M285.24,75.9c.26,4.19,1.08,8.59,1.78,9.91.99,1.86-4.35,3.63-6.58,3.03-2.24-.6-2.89-1.79-2.96-2.59s2.62-3.43,3.09-9.03c.38-4.47,4.57-3.03,4.67-1.32Z"/>
        <path class="cls-25" d="M276.11,66.35c-.75,6.16,1.74,12.84,3.71,13.2,2.68.49,7.46-3.04,7.62-8.76,1.4.4,1.76-1.81,1.45-3.25-.39-1.79-1.72.2-1.72.2,0,0-10.78-3.8-11.07-1.4Z"/>
      </g>
      <path class="cls-14" d="M286.32,58.78c1.2-2.44,4.82-6.53,8.8-6.84,8.88-.68,11.29,4.36,11.17,9.23-.08,3.42-2.71,5.32-2.58,8.4.09,2.13,6.64,5.36,4.68,11.41-1.38,4.26-9.04,6.08-13.92,2.85-1.74-1.15-4.96-5.46-3.15-10.96,1.8-5.51,3.35-6.4,4.42-9.15,1.45-3.75-1.19-9.54-8.92-4.58-1.85,1.19-.74.12-.5-.37Z"/>
      <path class="cls-25" d="M272.27,111.55c-.43.03-1.2-.38-1.65-.2-1.59.67-2.46,4.19-3.03,4.98-.72,1.01,1.22,2.47,2.22,3.03,1,.56,4.37.35,5.1.19,1.69-.36,4.45-2.58,3.73-2.9-.89-.39-5.85-3.91-6.01-4.1.65-.07.85-.5.88-.88.02-.21-.99-.14-1.25-.12Z"/>
      <path class="cls-13" d="M289.86,116.91h-14.89c-1.85,0-3.35-1.51-3.35-3.38,0-.53.43-.97.96-.97h19.67c.53,0,.96.43.96.97,0,1.87-1.5,3.38-3.35,3.38Z"/>
      <path class="cls-25" d="M292.03,112.01c.43.03,1.2-.38,1.65-.2,1.59.67,2.99,3.73,3.55,4.52.72,1.01-1.22,2.47-2.22,3.03-1,.56-3.22.36-3.91.08-.83-.34-3.26-3.09-2.55-3.4.89-.39,3.68-2.48,3.84-2.68-.65-.07-1.58-.86-1.6-1.24-.02-.21.99-.14,1.25-.12Z"/>
    </g>
    <path class="cls-3" d="M267.86,210.32c-4.96,2.81-7.66,4.03-7.62,5.06.04,1.04,10.5.61,11.4.21.9-.4-1.54-5.04-1.54-5.04l-2.24-.23Z"/>
    <path class="cls-3" d="M297.82,210.18c-2.7,1.59-7.58,3.08-7.49,4.61.09,1.53,9.57,1.43,10.69.23.6-.65-.72-4.21-.72-4.21l-2.48-.63Z"/>
  </g>
</svg>